<?xml version="1.0" standalone="no"?>
<!DOCTYPE svg PUBLIC "-//W3C//DTD SVG 1.1//EN" "http://www.w3.org/Graphics/SVG/1.1/DTD/svg11.dtd" >
<svg xmlns="http://www.w3.org/2000/svg" xmlns:xlink="http://www.w3.org/1999/xlink" version="1.1">
<metadata>
Created by FontForge 20201107 at Mon Sep 15 10:26:33 2025
 By 
Copyright 2017 The Barlow Project Authors (https://github.com/jpt/barlow)
</metadata>
<defs>
<font id="INNOQ-Bold" horiz-adv-x="547" >
  <font-face 
    font-family="INNO-Q"
    font-weight="700"
    font-stretch="normal"
    units-per-em="1000"
    panose-1="0 0 0 0 0 0 0 0 0 0"
    ascent="800"
    descent="-200"
    x-height="514"
    cap-height="700"
    bbox="-629 -225 1156 1100"
    underline-thickness="50"
    underline-position="-100"
    unicode-range="U+000D-FB02"
  />
<missing-glyph horiz-adv-x="474" 
d="M0 695q0 5 5 5h464q5 0 5 -5v-690q0 -5 -5 -5h-464q-5 0 -5 5v690zM266 250q5 0 8.5 3.5t3.5 8.5v13q0 19 12 32t37 30q37 26 57.5 52t20.5 71q0 62 -44.5 100.5t-117.5 38.5q-75 0 -122 -40.5t-47 -105.5v-4q0 -5 3.5 -9t8.5 -4l76 -3q12 0 12 12v8q0 24 18.5 39
t48.5 15q28 0 45 -14t17 -37q0 -21 -13.5 -36t-41.5 -34q-35 -25 -53 -46.5t-18 -57.5v-20q0 -5 3.5 -8.5t8.5 -3.5h77zM224 90q24 0 40 16t16 40q0 25 -15.5 40.5t-40.5 15.5t-40.5 -15.5t-15.5 -40.5q0 -24 15.5 -40t40.5 -16z" />
    <glyph glyph-name="fi" unicode="fi" horiz-adv-x="641" 
d="M345 515q5 0 8.5 -3.5t3.5 -8.5v-95q0 -5 -3.5 -8.5t-8.5 -3.5h-97q-5 0 -5 -5v-379q0 -5 -3.5 -8.5t-8.5 -3.5h-117q-5 0 -8.5 3.5t-3.5 8.5v379q0 5 -5 5h-59q-5 0 -8.5 3.5t-3.5 8.5v95q0 5 3.5 8.5t8.5 3.5h59q5 0 5 5v22q0 62 19 96.5t61.5 49t117.5 12.5h38
q5 0 8.5 -3.5t3.5 -8.5v-81q0 -5 -3.5 -8.5t-8.5 -3.5h-33q-35 -1 -48.5 -14.5t-13.5 -49.5v-11q0 -5 5 -5h97zM515 572q-34 0 -56.5 22.5t-22.5 56.5q0 35 22 57t57 22t57 -22t22 -57q0 -34 -22.5 -56.5t-56.5 -22.5zM455 0q-5 0 -8.5 3.5t-3.5 8.5v491q0 5 3.5 8.5
t8.5 3.5h117q5 0 8.5 -3.5t3.5 -8.5v-491q0 -5 -3.5 -8.5t-8.5 -3.5h-117z" />
    <glyph glyph-name="fl" unicode="fl" horiz-adv-x="631" 
d="M345 515q5 0 8.5 -3.5t3.5 -8.5v-95q0 -5 -3.5 -8.5t-8.5 -3.5h-97q-5 0 -5 -5v-379q0 -5 -3.5 -8.5t-8.5 -3.5h-117q-5 0 -8.5 3.5t-3.5 8.5v379q0 5 -5 5h-59q-5 0 -8.5 3.5t-3.5 8.5v95q0 5 3.5 8.5t8.5 3.5h59q5 0 5 5v22q0 62 19 96.5t61.5 49t117.5 12.5h38
q5 0 8.5 -3.5t3.5 -8.5v-81q0 -5 -3.5 -8.5t-8.5 -3.5h-33q-35 -1 -48.5 -14.5t-13.5 -49.5v-11q0 -5 5 -5h97zM451 0q-5 0 -8.5 3.5t-3.5 8.5v676q0 5 3.5 8.5t8.5 3.5h117q5 0 8.5 -3.5t3.5 -8.5v-676q0 -5 -3.5 -8.5t-8.5 -3.5h-117z" />
    <glyph glyph-name="hyphen_hyphen.liga" unicode="&#x2d;&#x2d;" horiz-adv-x="659" 
d="M41 232q-5 0 -8.5 3.5t-3.5 8.5v96q0 5 3.5 8.5t8.5 3.5h577q5 0 8.5 -3.5t3.5 -8.5v-96q0 -5 -3.5 -8.5t-8.5 -3.5h-577z" />
    <glyph glyph-name="IJ.liga" unicode="IJ" horiz-adv-x="846" 
d="M73 0q-5 0 -8.5 3.5t-3.5 8.5v676q0 5 3.5 8.5t8.5 3.5h117q5 0 8.5 -3.5t3.5 -8.5v-676q0 -5 -3.5 -8.5t-8.5 -3.5h-117zM533 -8q-76 0 -132.5 28.5t-87.5 80t-31 119.5v63q0 5 3.5 8.5t8.5 3.5h117q5 0 8.5 -3.5t3.5 -8.5v-63q0 -48 29.5 -77.5t80.5 -29.5
q49 0 80.5 29.5t31.5 77.5v468q0 5 3.5 8.5t8.5 3.5h116q5 0 8.5 -3.5t3.5 -8.5v-468q0 -68 -32 -119.5t-89 -80t-131 -28.5z" />
    <glyph glyph-name="f_f_i" unicode="ffi" horiz-adv-x="972" 
d="M845 572q-34 0 -56 22.5t-22 56.5q0 35 21.5 57t56.5 22t57 -22t22 -57q0 -34 -22.5 -56.5t-56.5 -22.5zM576 519q0 -5 5 -5h100q5 0 8.5 -3.5t3.5 -8.5v-89q0 -5 -3.5 -8.5t-8.5 -3.5h-100q-5 0 -5 -5v-384q0 -5 -3.5 -8.5t-8.5 -3.5h-117q-5 0 -8.5 3.5t-3.5 8.5v384
q0 5 -5 5h-185q-5 0 -5 -5v-384q0 -5 -3.5 -8.5t-8.5 -3.5h-117q-5 0 -8.5 3.5t-3.5 8.5v384q0 5 -5 5h-56q-5 0 -8.5 3.5t-3.5 8.5v89q0 5 3.5 8.5t8.5 3.5h56q5 0 5 5v32q0 83 45.5 118t153.5 31h38q5 0 8.5 -3.5t3.5 -8.5v-72q0 -5 -3.5 -8.5t-8.5 -3.5h-38
q-33 -1 -45.5 -16.5t-12.5 -48.5v-20q0 -5 5 -5h185q5 0 5 5v32q0 83 45.5 118t154.5 31h38q5 0 8.5 -3.5t3.5 -8.5v-72q0 -5 -3.5 -8.5t-8.5 -3.5h-38q-33 -1 -46 -17t-13 -48v-20zM785 0q-5 0 -8.5 3.5t-3.5 8.5v491q0 5 3.5 8.5t8.5 3.5h117q5 0 8.5 -3.5t3.5 -8.5v-491
q0 -5 -3.5 -8.5t-8.5 -3.5h-117z" />
    <glyph glyph-name="f_f_l" unicode="ffl" horiz-adv-x="960" 
d="M576 519q0 -5 5 -5h100q5 0 8.5 -3.5t3.5 -8.5v-89q0 -5 -3.5 -8.5t-8.5 -3.5h-100q-5 0 -5 -5v-384q0 -5 -3.5 -8.5t-8.5 -3.5h-117q-5 0 -8.5 3.5t-3.5 8.5v384q0 5 -5 5h-185q-5 0 -5 -5v-384q0 -5 -3.5 -8.5t-8.5 -3.5h-117q-5 0 -8.5 3.5t-3.5 8.5v384q0 5 -5 5h-56
q-5 0 -8.5 3.5t-3.5 8.5v89q0 5 3.5 8.5t8.5 3.5h56q5 0 5 5v32q0 83 45.5 118t153.5 31h38q5 0 8.5 -3.5t3.5 -8.5v-72q0 -5 -3.5 -8.5t-8.5 -3.5h-38q-33 -1 -45.5 -16.5t-12.5 -48.5v-20q0 -5 5 -5h185q5 0 5 5v32q0 83 45.5 118t154.5 31h38q5 0 8.5 -3.5t3.5 -8.5v-72
q0 -5 -3.5 -8.5t-8.5 -3.5h-38q-33 -1 -46 -17t-13 -48v-20zM767 688q0 5 3.5 8.5t8.5 3.5h117q5 0 8.5 -3.5t3.5 -8.5v-676q0 -5 -3.5 -8.5t-8.5 -3.5h-117q-5 0 -8.5 3.5t-3.5 8.5v676z" />
    <glyph glyph-name="g_j.liga" unicode="gj" horiz-adv-x="800" 
d="M673 572q-34 0 -56.5 22.5t-22.5 56.5q0 35 22 57t57 22t57 -22t22 -57q0 -34 -22.5 -56.5t-56.5 -22.5zM360 476q2 -2 4 -1.5t2 3.5v24q0 5 3.5 8.5t8.5 3.5h117q5 0 8.5 -3.5t3.5 -8.5v-456q0 -131 -75.5 -187t-194.5 -56q-35 0 -78 5q-10 1 -10 13l4 103q0 13 14 11
q36 -6 66 -6q64 0 98.5 28t34.5 90q0 3 -2 3.5t-4 -1.5q-38 -41 -111 -41q-65 0 -119.5 31.5t-77.5 101.5q-15 46 -15 119q0 78 18 127q21 61 71 98t116 37q77 0 118 -46zM602 502q0 5 3.5 8.5t8.5 3.5h117q5 0 8.5 -3.5t3.5 -8.5v-503q0 -80 -21 -124t-68.5 -62.5
t-132.5 -16.5q-12 0 -12 12v95q0 11 12 11q42 -2 61.5 18t19.5 66v504zM358 179q8 30 8 82q0 31 -2 48t-7 32q-9 27 -30 43.5t-52 16.5q-30 0 -51 -16.5t-31 -43.5q-14 -30 -14 -81q0 -56 12 -80q9 -27 31.5 -43.5t53.5 -16.5q32 0 53 16.5t29 42.5z" />
    <glyph glyph-name="ij.liga" unicode="ij" horiz-adv-x="507" 
d="M127 572q-34 0 -56 22.5t-22 56.5q0 35 21.5 57t56.5 22t57 -22t22 -57q0 -34 -22.5 -56.5t-56.5 -22.5zM376 572q-34 0 -56.5 22.5t-22.5 56.5q0 35 22 57t57 22t56.5 -22t21.5 -57q0 -34 -22 -56.5t-56 -22.5zM74 0q-5 0 -8.5 3.5t-3.5 8.5v490q0 5 3.5 8.5t8.5 3.5
h117q5 0 8.5 -3.5t3.5 -8.5v-490q0 -5 -3.5 -8.5t-8.5 -3.5h-117zM203 -204q-12 0 -12 12v95q0 13 13 11q59 -2 82.5 17t23.5 67v504q0 5 3.5 8.5t8.5 3.5h117q5 0 8.5 -3.5t3.5 -8.5v-502q0 -81 -22.5 -125.5t-75.5 -62.5t-150 -16z" />
    <glyph glyph-name=".notdef" horiz-adv-x="474" 
d="M0 695q0 5 5 5h464q5 0 5 -5v-690q0 -5 -5 -5h-464q-5 0 -5 5v690zM266 250q5 0 8.5 3.5t3.5 8.5v13q0 19 12 32t37 30q37 26 57.5 52t20.5 71q0 62 -44.5 100.5t-117.5 38.5q-75 0 -122 -40.5t-47 -105.5v-4q0 -5 3.5 -9t8.5 -4l76 -3q12 0 12 12v8q0 24 18.5 39
t48.5 15q28 0 45 -14t17 -37q0 -21 -13.5 -36t-41.5 -34q-35 -25 -53 -46.5t-18 -57.5v-20q0 -5 3.5 -8.5t8.5 -3.5h77zM224 90q24 0 40 16t16 40q0 25 -15.5 40.5t-40.5 15.5t-40.5 -15.5t-15.5 -40.5q0 -24 15.5 -40t40.5 -16z" />
    <glyph glyph-name=".null" horiz-adv-x="0" 
 />
    <glyph glyph-name=".null" horiz-adv-x="0" 
 />
    <glyph glyph-name="uni000D" unicode="&#xd;" horiz-adv-x="200" 
 />
    <glyph glyph-name="space" unicode=" " horiz-adv-x="200" 
 />
    <glyph glyph-name="exclam" unicode="!" horiz-adv-x="344" 
d="M128 240q-5 0 -8.5 3.5t-3.5 8.5l-13 436q0 5 3.5 8.5t8.5 3.5h117q5 0 8.5 -3.5t3.5 -8.5l-15 -436q0 -5 -3.5 -8.5t-8.5 -3.5h-89zM167 1q-34 0 -56.5 22.5t-22.5 56.5q0 35 22 57t57 22t56.5 -22t21.5 -57q0 -34 -22 -56.5t-56 -22.5z" />
    <glyph glyph-name="quotedbl" unicode="&#x22;" horiz-adv-x="359" 
d="M41 471q-5 0 -9 3.5t-4 8.5l-13 203q0 12 11 12h112q13 0 11 -12l-13 -203q0 -6 -3.5 -9t-9.5 -3h-82zM239 471q-5 0 -9 3.5t-4 8.5l-13 203q0 12 11 12h111q13 0 11 -12l-13 -203q0 -6 -3.5 -9t-9.5 -3h-81z" />
    <glyph glyph-name="numbersign" unicode="#" horiz-adv-x="687" 
d="M639 416q0 -5 -3.5 -8.5t-8.5 -3.5h-75q-6 0 -6 -5l-15 -99q0 -5 4 -5h56q5 0 8.5 -3.5t3.5 -8.5v-96q0 -5 -3.5 -8.5t-8.5 -3.5h-74q-6 0 -6 -5l-20 -132q-1 -11 -13 -11h-117q-12 0 -11 13l20 130q0 5 -4 5h-100q-6 0 -6 -5l-20 -132q-1 -11 -13 -11h-117q-12 0 -11 13
l20 130q0 5 -4 5h-56q-5 0 -8.5 3.5t-3.5 8.5v96q0 5 3.5 8.5t8.5 3.5h74q6 0 6 5l15 99q0 5 -4 5h-54q-5 0 -8.5 3.5t-3.5 8.5v97q0 5 3.5 8.5t8.5 3.5h73q6 0 6 5l20 132q1 11 13 11h117q12 0 11 -13l-20 -130q0 -5 4 -5h99q6 0 6 5l20 132q1 11 13 11h117q12 0 11 -13
l-20 -130q0 -5 4 -5h58q5 0 8.5 -3.5t3.5 -8.5zM384 295q6 0 6 5l15 99q0 5 -4 5h-100q-6 0 -6 -5l-15 -99q0 -5 4 -5h100z" />
    <glyph glyph-name="dollar" unicode="$" horiz-adv-x="572" 
d="M533 195q0 -80 -49 -132t-134 -66q-5 -2 -5 -6l1 -65q0 -5 -3.5 -8.5t-8.5 -3.5h-100q-5 0 -8.5 3.5t-3.5 8.5l1 66q0 4 -5 6q-85 17 -133.5 70t-48.5 133v22q0 5 3.5 8.5t8.5 3.5h108q5 0 8.5 -3.5t3.5 -8.5v-15q0 -40 35 -67.5t96 -27.5q51 0 75.5 22.5t24.5 55.5
q0 24 -15 40.5t-41.5 29t-83.5 34.5q-65 23 -109 47t-74.5 65.5t-30.5 102.5q0 77 46.5 127.5t125.5 65.5q5 2 5 6l-2 73q0 5 3.5 8.5t8.5 3.5h100q5 0 8.5 -3.5t3.5 -8.5l-1 -75q0 -4 5 -6q83 -17 132 -72.5t49 -135.5v-15q0 -5 -3.5 -8.5t-8.5 -3.5h-109q-5 0 -8.5 3.5
t-3.5 8.5v8q0 42 -33 71.5t-90 29.5q-45 0 -70 -20t-25 -55q0 -25 14.5 -42t43.5 -31t90 -36q67 -25 106 -45t70 -60t31 -103z" />
    <glyph glyph-name="percent" unicode="%" horiz-adv-x="825" 
d="M221 393q-44 0 -80.5 21t-58 57.5t-21.5 79.5t21.5 79t58 57.5t80.5 21.5q43 0 79 -21.5t57.5 -57.5t21.5 -79t-21 -79.5t-57.5 -57.5t-79.5 -21zM182 0q-7 0 -9 4t1 10l377 678q5 8 15 8h74q7 0 9 -4t-1 -10l-376 -678q-5 -8 -15 -8h-75zM221 475q31 0 52.5 22t21.5 54
q0 31 -21.5 53t-52.5 22q-32 0 -54 -22t-22 -53q0 -32 22 -54t54 -22zM611 -9q-43 0 -79.5 21.5t-58 58t-21.5 79.5t21.5 79t58 57t79.5 21t79.5 -21t58 -57t21.5 -79t-21.5 -79.5t-58 -58t-79.5 -21.5zM611 74q31 0 53 22t22 54q0 31 -22 53t-53 22t-53 -21.5t-22 -53.5
t21.5 -54t53.5 -22z" />
    <glyph glyph-name="ampersand" unicode="&#x26;" horiz-adv-x="705" 
d="M654 15q4 -6 4 -8q0 -7 -11 -7h-131q-9 0 -15 7l-39 42q-2 3 -7 1q-93 -58 -200 -58q-94 0 -156.5 44.5t-62.5 131.5q0 67 36 113t98 83q6 4 1 7q-50 61 -66 94.5t-16 71.5q0 47 25.5 86.5t72 62t106.5 22.5q61 0 109.5 -23t75.5 -64.5t27 -94.5q0 -62 -34.5 -107.5
t-93.5 -82.5q-5 -3 -1 -7l89 -101q4 -4 8 0q38 42 62 80q6 11 16 4l87 -49q11 -6 5 -16q-42 -66 -88 -115q-3 -3 2 -9zM296 580q-30 0 -48 -15.5t-18 -41.5q0 -14 10 -31t44 -58q2 -4 7 -2q36 23 54.5 44t18.5 47t-19 41.5t-49 15.5zM260 110q48 0 108 34q6 4 1 7l-31 35
l-23 25q-22 23 -51 56q-2 3 -7 1q-36 -22 -55 -42t-22 -46q-1 -3 -1 -10q0 -27 22.5 -43.5t58.5 -16.5z" />
    <glyph glyph-name="quotesingle" unicode="'" horiz-adv-x="168" 
d="M41 473q-5 0 -9 3.5t-4 8.5l-13 202q0 12 11 12h119q13 0 11 -12l-13 -202q0 -6 -3.5 -9t-9.5 -3h-89z" />
    <glyph glyph-name="parenleft" unicode="(" horiz-adv-x="347" 
d="M143 -91q-9 0 -15 7q-59 76 -94 180.5t-35 235.5t35.5 237.5t94.5 182.5q6 7 15 7h113q7 0 9.5 -4t-0.5 -10q-109 -186 -109 -412t109 -410q2 -4 2 -6q0 -8 -11 -8h-114z" />
    <glyph glyph-name="parenright" unicode=")" horiz-adv-x="347" 
d="M204 759q9 0 15 -7q59 -76 94 -181t35 -236t-35.5 -237t-94.5 -182q-6 -7 -15 -7h-113q-7 0 -9.5 4t0.5 10q109 184 109 412q0 224 -109 410q-2 4 -2 6q0 8 11 8h114z" />
    <glyph glyph-name="asterisk" unicode="*" horiz-adv-x="399" 
d="M171 393q-5 0 -8.5 3.5t-3.5 8.5l1 90q0 3 -2 4t-4 -1l-84 -49q-4 -2 -6 -2q-7 0 -11 7l-28 52q-2 4 -2 7q0 7 7 10l84 45q5 3 0 6l-84 43q-5 2 -6.5 7t1.5 10l28 52q3 5 7.5 6.5t9.5 -1.5l84 -48q2 -1 4 0t2 4l-1 88q0 5 3.5 8.5t8.5 3.5h57q5 0 8.5 -3.5t3.5 -8.5
l-1 -88q0 -3 2 -4t4 0l84 48q4 2 6 2q7 0 11 -7l28 -52q2 -4 2 -7q0 -6 -7 -9l-85 -44q-5 -3 0 -6l85 -45q5 -2 6.5 -7t-1.5 -10l-28 -52q-3 -5 -7.5 -6.5t-9.5 1.5l-84 49q-2 2 -4 1t-2 -4l1 -90q0 -5 -3.5 -8.5t-8.5 -3.5h-57z" />
    <glyph glyph-name="plus" unicode="+" horiz-adv-x="486" 
d="M445 361q5 0 8.5 -3.5t3.5 -8.5v-97q0 -5 -3.5 -8.5t-8.5 -3.5h-137q-5 0 -5 -5v-135q0 -5 -3.5 -8.5t-8.5 -3.5h-96q-5 0 -8.5 3.5t-3.5 8.5v135q0 5 -5 5h-137q-5 0 -8.5 3.5t-3.5 8.5v97q0 5 3.5 8.5t8.5 3.5h137q5 0 5 5v138q0 5 3.5 8.5t8.5 3.5h96q5 0 8.5 -3.5
t3.5 -8.5v-138q0 -5 5 -5h137z" />
    <glyph glyph-name="comma" unicode="," horiz-adv-x="265" 
d="M52 -98q-12 0 -11 13l33 232q1 11 13 11h102q13 0 10 -13l-62 -233q-3 -10 -14 -10h-71z" />
    <glyph glyph-name="hyphen" unicode="-" horiz-adv-x="409" 
d="M41 235q-5 0 -8.5 3.5t-3.5 8.5v97q0 5 3.5 8.5t8.5 3.5h327q5 0 8.5 -3.5t3.5 -8.5v-97q0 -5 -3.5 -8.5t-8.5 -3.5h-327z" />
    <glyph glyph-name="period" unicode="." horiz-adv-x="270" 
d="M130 -4q-34 0 -56.5 22.5t-22.5 56.5q0 35 22 57t57 22t57 -22t22 -57q0 -34 -22.5 -56.5t-56.5 -22.5z" />
    <glyph glyph-name="slash" unicode="/" horiz-adv-x="473" 
d="M34 0q-15 0 -10 14l257 677q3 9 14 9h116q15 0 10 -14l-257 -677q-3 -9 -14 -9h-116z" />
    <glyph glyph-name="zero" unicode="0" horiz-adv-x="570" 
d="M284 -11q-110 0 -174 61.5t-64 167.5v264q0 104 64 165t174 61t174.5 -61t64.5 -165v-264q0 -106 -64.5 -167.5t-174.5 -61.5zM284 110q45 0 71.5 27.5t26.5 73.5v275q0 46 -26.5 73.5t-71.5 27.5q-44 0 -70.5 -27.5t-26.5 -73.5v-275q0 -46 26.5 -73.5t70.5 -27.5z" />
    <glyph glyph-name="one" unicode="1" horiz-adv-x="354" 
d="M150 697q5 3 15 3h121q5 0 8.5 -3.5t3.5 -8.5v-676q0 -5 -3.5 -8.5t-8.5 -3.5h-117q-5 0 -8.5 3.5t-3.5 8.5v548q0 2 -2 4t-4 1l-99 -27l-4 -1q-9 0 -9 11l-3 86q0 10 9 14z" />
    <glyph glyph-name="two" unicode="2" horiz-adv-x="560" 
d="M233 127q-2 -2 -1 -4t4 -2h271q5 0 8.5 -3.5t3.5 -8.5v-97q0 -5 -3.5 -8.5t-8.5 -3.5h-450q-5 0 -8.5 3.5t-3.5 8.5v92q0 9 6 15q49 48 100 104.5t64 70.5q28 33 57 63q91 101 91 150q0 35 -25 57.5t-65 22.5t-65 -22.5t-25 -59.5v-25q0 -5 -3.5 -8.5t-8.5 -3.5h-118
q-5 0 -8.5 3.5t-3.5 8.5v47q3 54 34 95.5t82.5 63.5t115.5 22q71 0 123.5 -26.5t81 -71.5t28.5 -100q0 -42 -21 -86t-63 -95q-31 -39 -67 -77t-107 -110z" />
    <glyph glyph-name="three" unicode="3" horiz-adv-x="540" 
d="M477 334q20 -46 20 -106q0 -54 -18 -100q-24 -64 -80.5 -100t-133.5 -36q-76 0 -133.5 38t-82.5 103q-14 39 -16 84q0 12 12 12h118q12 0 12 -12q4 -33 11 -49q9 -26 29.5 -40.5t48.5 -14.5q56 0 77 49q14 30 14 70q0 47 -15 77q-23 47 -77 47q-11 0 -23 -6.5t-29 -18.5
q-4 -3 -8 -3q-6 0 -9 6l-59 83q-2 3 -2 7q0 6 4 10l159 139q2 2 1.5 4t-3.5 2h-235q-5 0 -8.5 3.5t-3.5 8.5v97q0 5 3.5 8.5t8.5 3.5h417q5 0 8.5 -3.5t3.5 -8.5v-110q0 -8 -7 -15l-131 -120q-2 -2 -1.5 -4t4.5 -2q87 -17 124 -103z" />
    <glyph glyph-name="four" unicode="4" horiz-adv-x="605" 
d="M546 305q5 0 8.5 -3.5t3.5 -8.5v-101q0 -5 -3.5 -8.5t-8.5 -3.5h-43q-5 0 -5 -5v-163q0 -5 -3.5 -8.5t-8.5 -3.5h-117q-5 0 -8.5 3.5t-3.5 8.5v163q0 5 -5 5h-307q-5 0 -8.5 3.5t-3.5 8.5v80q0 6 3 15l180 404q4 9 14 9h125q7 0 9.5 -3.5t-0.5 -10.5l-167 -375
q-1 -2 0 -4t3 -2h152q5 0 5 5v124q0 5 3.5 8.5t8.5 3.5h117q5 0 8.5 -3.5t3.5 -8.5v-124q0 -5 5 -5h43z" />
    <glyph glyph-name="five" unicode="5" horiz-adv-x="539" 
d="M491 319q15 -49 15 -95q0 -51 -16 -92q-23 -64 -81 -101.5t-136 -37.5q-76 0 -133.5 36.5t-81.5 99.5q-10 26 -15 55v2q0 11 12 11h121q10 0 13 -11q1 -6 3 -10t3 -7q10 -26 30 -40t47 -14q28 0 49 15t31 42q10 20 10 52q0 29 -9 52q-7 26 -28 40t-49 14t-52 -13t-32 -34
q-3 -10 -13 -10h-123q-5 0 -8.5 3.5t-3.5 8.5v403q0 5 3.5 8.5t8.5 3.5h413q5 0 8.5 -3.5t3.5 -8.5v-97q0 -5 -3.5 -8.5t-8.5 -3.5h-279q-5 0 -5 -5l-1 -148q0 -7 6 -3q45 29 104 29q70 0 122.5 -35.5t74.5 -97.5z" />
    <glyph glyph-name="six" unicode="6" horiz-adv-x="537" 
d="M480 339q24 -45 24 -115q0 -58 -19 -104q-26 -59 -81 -93t-130 -34q-77 0 -133 35.5t-81 98.5q-18 44 -18 98v301q0 54 28.5 95.5t79.5 64t117 22.5q65 0 115 -22.5t77.5 -63t27.5 -93.5v-28q0 -5 -3.5 -8.5t-8.5 -3.5h-117q-5 0 -8.5 3.5t-3.5 8.5v9q0 33 -22 55t-57 22
q-37 0 -60.5 -22.5t-23.5 -57.5v-94q0 -3 2 -3.5t4 1.5q41 35 109 35q60 0 107.5 -27.5t74.5 -79.5zM348 159q15 26 15 63q0 40 -16 66q-25 40 -73 40q-54 0 -75 -41q-15 -26 -15 -67q0 -36 13 -61q22 -44 76 -44q52 0 75 44z" />
    <glyph glyph-name="seven" unicode="7" horiz-adv-x="496" 
d="M124 0q-15 0 -10 14l217 559q2 6 -4 6h-187q-5 0 -5 -5v-46q0 -5 -3.5 -8.5t-8.5 -3.5h-91q-5 0 -8.5 3.5t-3.5 8.5l1 160q0 5 3.5 8.5t8.5 3.5h437q5 0 8.5 -3.5t3.5 -8.5v-101q0 -6 -3 -15l-216 -563q-3 -9 -14 -9h-125z" />
    <glyph glyph-name="eight" unicode="8" horiz-adv-x="541" 
d="M480 308q23 -46 23 -103q0 -60 -25 -103q-26 -51 -79.5 -80.5t-127.5 -29.5q-70 0 -126 28.5t-84 82.5q-24 47 -24 103q0 55 23 103q17 35 50 57q4 3 0 7q-24 18 -41 48q-23 40 -23 90q0 71 40 120q29 39 77.5 60.5t107.5 21.5q61 0 108 -22t76 -60q40 -52 40 -120
q0 -52 -26 -93q-17 -26 -41 -44q-4 -4 0 -7q33 -21 52 -59zM196 548q-10 -20 -10 -42q0 -29 13 -52q23 -36 71 -36t73 36q13 22 13 53q0 22 -10 42t-30 31.5t-47 11.5q-24 0 -43.5 -11.5t-29.5 -32.5zM342 148q19 27 19 70q0 37 -14 62q-22 42 -77 42q-52 0 -74 -41
q-15 -25 -15 -65q0 -39 17 -65q23 -38 73 -38q48 0 71 35z" />
    <glyph glyph-name="nine" unicode="9" horiz-adv-x="531" 
d="M471 573q17 -41 17 -98v-301q0 -54 -28 -95.5t-79 -64t-117 -22.5q-65 0 -115 22.5t-78 63t-28 93.5v28q0 5 3.5 8.5t8.5 3.5h117q5 0 8.5 -3.5t3.5 -8.5v-9q0 -33 22.5 -55t57.5 -22q37 0 60 22.5t23 57.5v93q0 3 -2 4t-4 -1q-41 -35 -108 -35q-60 0 -107.5 27.5
t-74.5 79.5q-25 47 -25 115q0 59 20 104q25 59 80.5 93t130.5 34q76 0 132.5 -35.5t81.5 -98.5zM257 372q52 0 75 41q15 26 15 67q0 33 -13 61q-22 44 -76 44q-52 0 -76 -44q-15 -28 -15 -63q0 -38 17 -66q25 -40 73 -40z" />
    <glyph glyph-name="colon" unicode=":" horiz-adv-x="364" 
d="M179 332q-34 0 -56.5 22.5t-22.5 56.5q0 35 22 57t57 22t57 -22t22 -57q0 -34 -22.5 -56.5t-56.5 -22.5zM179 5q-34 0 -56.5 22.5t-22.5 56.5q0 35 22 57t57 22t57 -22t22 -57q0 -34 -22.5 -56.5t-56.5 -22.5z" />
    <glyph glyph-name="semicolon" unicode=";" horiz-adv-x="316" 
d="M159 313q-39 0 -65 25.5t-26 61.5q0 35 28 60.5t63 25.5q36 0 64 -25.5t28 -60.5q0 -36 -26.5 -61.5t-65.5 -25.5zM87 -97q-6 0 -9.5 3.5t-2.5 9.5l24 229q1 11 12 11h102q14 0 11 -13l-54 -230q-3 -10 -13 -10h-70z" />
    <glyph glyph-name="less" unicode="&#x3c;" horiz-adv-x="486" 
d="M457 39q0 -7 -4 -9.5t-10 0.5l-405 179q-9 5 -9 14v102q0 10 9 14l405 179q4 2 6 2q8 0 8 -11v-109q0 -9 -9 -14l-267 -109q-6 -3 0 -6l267 -108q9 -4 9 -14v-110z" />
    <glyph glyph-name="equal" unicode="=" horiz-adv-x="486" 
d="M41 333q-5 0 -8.5 3.5t-3.5 8.5v97q0 5 3.5 8.5t8.5 3.5h404q5 0 8.5 -3.5t3.5 -8.5v-97q0 -5 -3.5 -8.5t-8.5 -3.5h-404zM41 141q-5 0 -8.5 3.5t-3.5 8.5v97q0 5 3.5 8.5t8.5 3.5h404q5 0 8.5 -3.5t3.5 -8.5v-97q0 -5 -3.5 -8.5t-8.5 -3.5h-404z" />
    <glyph glyph-name="greater" unicode="&#x3e;" horiz-adv-x="486" 
d="M43 30q-4 -2 -6 -2q-8 0 -8 11v110q0 10 9 14l267 108q6 3 0 6l-267 109q-9 5 -9 14v109q0 7 4 9.5t10 -0.5l405 -179q9 -4 9 -14v-102q0 -9 -9 -14z" />
    <glyph glyph-name="question" unicode="?" horiz-adv-x="521" 
d="M185 222q-5 0 -8.5 3.5t-3.5 8.5v32q0 50 25.5 80.5t73.5 64.5q39 27 58 48t19 51q0 32 -24 51.5t-63 19.5q-42 0 -67.5 -21t-25.5 -54v-16q0 -11 -12 -11l-117 5q-5 0 -8.5 3.5t-3.5 8.5v10q0 60 30 106.5t83.5 72t123.5 25.5q68 0 119.5 -24.5t79.5 -68.5t28 -102
q0 -44 -15.5 -75.5t-37.5 -51.5t-56 -44q-36 -25 -53 -43t-17 -44v-23q0 -5 -3.5 -8.5t-8.5 -3.5h-116zM239 -2q-34 0 -56.5 22.5t-22.5 56.5t22 56t57 22t56.5 -21.5t21.5 -56.5q0 -34 -22 -56.5t-56 -22.5z" />
    <glyph glyph-name="at" unicode="@" horiz-adv-x="819" 
d="M459 659q97 0 170 -39t112 -108.5t39 -159.5q0 -26 -3 -53q-12 -98 -60 -152.5t-129 -54.5q-70 0 -108 41q-3 4 -7 0q-20 -20 -48.5 -30t-58.5 -10q-53 0 -87.5 27.5t-42.5 70.5q-3 17 -3 35q0 17 4 51q6 45 20 83q17 49 55.5 75.5t84.5 26.5q49 0 76 -30q2 -3 4 -2.5
t2 3.5l2 16q1 11 13 11h70q12 0 11 -13l-25 -186q-1 -7 -1 -20q0 -28 11.5 -45t34.5 -17q61 0 78 114q4 25 4 55q0 107 -61 163t-164 56q-82 0 -149.5 -35t-110 -101.5t-51.5 -156.5q-2 -15 -2 -43q0 -106 61 -166t167 -60q48 0 88 11t65 28q2 2 7 2q7 0 9 -5l40 -54
q3 -5 3 -8q0 -5 -5 -8q-37 -28 -96.5 -44.5t-121.5 -16.5q-92 0 -164 39t-113 112.5t-41 171.5q0 25 3 50q12 111 71.5 196.5t150.5 132.5t196 47zM381 173q20 0 35 11.5t24 30.5q11 21 16 63q2 18 2 39q0 16 -1 22q-2 19 -15.5 30.5t-34.5 11.5q-20 0 -36.5 -11.5
t-25.5 -30.5q-10 -19 -16 -66q-3 -22 -3 -37q0 -9 2 -21q4 -20 17.5 -31t35.5 -11z" />
    <glyph glyph-name="A" unicode="A" horiz-adv-x="671" 
d="M506 0q-10 0 -13 10l-30 98q-2 4 -5 4h-246q-3 0 -5 -4l-29 -98q-3 -10 -13 -10h-127q-6 0 -9 3.5t-1 10.5l216 676q3 10 13 10h157q10 0 13 -10l216 -676q1 -2 1 -5q0 -9 -11 -9h-127zM243 227q-1 -6 4 -6h176q6 0 4 6l-90 297q-1 4 -3 3.5t-3 -3.5z" />
    <glyph glyph-name="B" unicode="B" horiz-adv-x="620" 
d="M476 365q-6 -3 0 -6q95 -49 95 -163q0 -97 -66 -146.5t-173 -49.5h-259q-5 0 -8.5 3.5t-3.5 8.5v676q0 5 3.5 8.5t8.5 3.5h251q237 0 237 -192q0 -100 -85 -143zM207 579q-5 0 -5 -5v-156q0 -5 5 -5h117q47 0 73 22t26 60q0 39 -26 61.5t-73 22.5h-117zM332 122
q46 0 72 23.5t26 64.5t-26 64.5t-73 23.5h-124q-5 0 -5 -5v-166q0 -5 5 -5h125z" />
    <glyph glyph-name="C" unicode="C" horiz-adv-x="608" 
d="M307 -8q-78 0 -137 30.5t-91 85.5t-32 127v231q0 72 32 127t91 85t137 30q77 0 135.5 -28.5t91 -81t32.5 -121.5q0 -9 -12 -11l-117 -7h-2q-10 0 -10 11q0 53 -32.5 85t-85.5 32q-54 0 -86.5 -32t-32.5 -85v-241q0 -52 32.5 -84t86.5 -32q53 0 85.5 32t32.5 84
q0 11 12 11l117 -5q5 0 8.5 -3t3.5 -7q0 -69 -32.5 -122t-91 -82t-135.5 -29z" />
    <glyph glyph-name="D" unicode="D" horiz-adv-x="618" 
d="M73 0q-5 0 -8.5 3.5t-3.5 8.5v676q0 5 3.5 8.5t8.5 3.5h250q75 0 131.5 -26.5t87.5 -74.5t31 -111v-276q0 -63 -31 -111t-87.5 -74.5t-131.5 -26.5h-250zM202 126q0 -5 5 -5h121q46 0 74.5 31t29.5 83v230q0 52 -28.5 83t-76.5 31h-120q-5 0 -5 -5v-448z" />
    <glyph glyph-name="E" unicode="E" horiz-adv-x="584" 
d="M547 591q0 -5 -3.5 -8.5t-8.5 -3.5h-328q-5 0 -5 -5v-155q0 -5 5 -5h215q5 0 8.5 -3.5t3.5 -8.5v-97q0 -5 -3.5 -8.5t-8.5 -3.5h-215q-5 0 -5 -5v-162q0 -5 5 -5h328q5 0 8.5 -3.5t3.5 -8.5v-97q0 -5 -3.5 -8.5t-8.5 -3.5h-462q-5 0 -8.5 3.5t-3.5 8.5v676q0 5 3.5 8.5
t8.5 3.5h462q5 0 8.5 -3.5t3.5 -8.5v-97z" />
    <glyph glyph-name="F" unicode="F" horiz-adv-x="560" 
d="M546 591q0 -5 -3.5 -8.5t-8.5 -3.5h-327q-5 0 -5 -5v-155q0 -5 5 -5h215q5 0 8.5 -3.5t3.5 -8.5v-97q0 -5 -3.5 -8.5t-8.5 -3.5h-215q-5 0 -5 -5v-276q0 -5 -3.5 -8.5t-8.5 -3.5h-117q-5 0 -8.5 3.5t-3.5 8.5v676q0 5 3.5 8.5t8.5 3.5h461q5 0 8.5 -3.5t3.5 -8.5v-97z
" />
    <glyph glyph-name="G" unicode="G" horiz-adv-x="612" 
d="M307 -8q-77 0 -136 31t-91.5 86.5t-32.5 128.5v224q0 73 32.5 129t91.5 86.5t136 30.5q76 0 134.5 -30t91 -81.5t32.5 -114.5v-7q0 -5 -3.5 -8.5t-8.5 -3.5h-117q-5 0 -8.5 3.5t-3.5 8.5v3q0 46 -32 77.5t-85 31.5q-54 0 -86.5 -33.5t-32.5 -87.5v-232q0 -54 35 -87.5
t89 -33.5q52 0 83 27.5t31 76.5v45q0 5 -5 5h-112q-5 0 -8.5 3.5t-3.5 8.5v92q0 5 3.5 8.5t8.5 3.5h244q5 0 8.5 -3.5t3.5 -8.5v-132q0 -76 -32 -132t-90.5 -85.5t-135.5 -29.5z" />
    <glyph glyph-name="H" unicode="H" horiz-adv-x="628" 
d="M433 688q0 5 3.5 8.5t8.5 3.5h117q5 0 8.5 -3.5t3.5 -8.5v-676q0 -5 -3.5 -8.5t-8.5 -3.5h-117q-5 0 -8.5 3.5t-3.5 8.5v276q0 5 -5 5h-221q-5 0 -5 -5v-276q0 -5 -3.5 -8.5t-8.5 -3.5h-117q-5 0 -8.5 3.5t-3.5 8.5v676q0 5 3.5 8.5t8.5 3.5h117q5 0 8.5 -3.5t3.5 -8.5
v-269q0 -5 5 -5h221q5 0 5 5v269z" />
    <glyph glyph-name="I" unicode="I" horiz-adv-x="263" 
d="M73 0q-5 0 -8.5 3.5t-3.5 8.5v676q0 5 3.5 8.5t8.5 3.5h117q5 0 8.5 -3.5t3.5 -8.5v-676q0 -5 -3.5 -8.5t-8.5 -3.5h-117z" />
    <glyph glyph-name="J" unicode="J" horiz-adv-x="583" 
d="M270 -8q-76 0 -132.5 28.5t-87.5 80t-31 119.5v63q0 5 3.5 8.5t8.5 3.5h117q5 0 8.5 -3.5t3.5 -8.5v-63q0 -48 29.5 -77.5t80.5 -29.5q49 0 80.5 29.5t31.5 77.5v468q0 5 3.5 8.5t8.5 3.5h116q5 0 8.5 -3.5t3.5 -8.5v-468q0 -68 -32 -119.5t-89 -80t-131 -28.5z" />
    <glyph glyph-name="K" unicode="K" horiz-adv-x="626" 
d="M73 0q-5 0 -8.5 3.5t-3.5 8.5v676q0 5 3.5 8.5t8.5 3.5h117q5 0 8.5 -3.5t3.5 -8.5v-280q0 -3 2 -3.5t4 1.5l231 287q6 7 15 7h132q8 0 10 -4.5t-2 -10.5l-223 -285q-3 -4 -1 -7l236 -379q2 -6 2 -7q0 -7 -10 -7h-132q-10 0 -14 8l-178 288q-1 2 -3 2t-4 -2l-63 -79
q-2 -4 -2 -6v-199q0 -5 -3.5 -8.5t-8.5 -3.5h-117z" />
    <glyph glyph-name="L" unicode="L" horiz-adv-x="572" 
d="M73 0q-5 0 -8.5 3.5t-3.5 8.5v676q0 5 3.5 8.5t8.5 3.5h117q5 0 8.5 -3.5t3.5 -8.5v-562q0 -5 5 -5h327q5 0 8.5 -3.5t3.5 -8.5v-97q0 -5 -3.5 -8.5t-8.5 -3.5h-461z" />
    <glyph glyph-name="M" unicode="M" horiz-adv-x="715" 
d="M511 692q5 8 14 8h117q5 0 8.5 -3.5t3.5 -8.5v-676q0 -5 -3.5 -8.5t-8.5 -3.5h-117q-5 0 -8.5 3.5t-3.5 8.5v441q0 4 -2 4t-4 -3l-106 -166q-5 -8 -14 -8h-59q-9 0 -14 8l-106 166q-2 3 -4 2.5t-2 -4.5v-440q0 -5 -3.5 -8.5t-8.5 -3.5h-117q-5 0 -8.5 3.5t-3.5 8.5v676
q0 5 3.5 8.5t8.5 3.5h117q9 0 14 -8l150 -233q3 -6 6 0z" />
    <glyph glyph-name="N" unicode="N" horiz-adv-x="665" 
d="M463 688q0 5 3.5 8.5t8.5 3.5h117q5 0 8.5 -3.5t3.5 -8.5v-676q0 -5 -3.5 -8.5t-8.5 -3.5h-113q-10 0 -14 8l-259 428q-2 3 -4 2.5t-2 -4.5l2 -422q0 -5 -3.5 -8.5t-8.5 -3.5h-117q-5 0 -8.5 3.5t-3.5 8.5v676q0 5 3.5 8.5t8.5 3.5h113q10 0 14 -8l258 -426q2 -3 4 -2.5
t2 4.5z" />
    <glyph glyph-name="O" unicode="O" horiz-adv-x="621" 
d="M310 -11q-78 0 -137.5 32t-92.5 89.5t-33 132.5v214q0 74 33 131t92.5 88.5t137.5 31.5q79 0 138.5 -31.5t92.5 -88.5t33 -131v-214q0 -75 -33 -133t-92.5 -89.5t-138.5 -31.5zM310 110q55 0 89 35t34 93v220q0 58 -33.5 93.5t-89.5 35.5q-55 0 -88.5 -35.5t-33.5 -93.5
v-220q0 -58 33.5 -93t88.5 -35z" />
    <glyph glyph-name="P" unicode="P" horiz-adv-x="597" 
d="M350 701q66 0 116 -27t77.5 -76.5t27.5 -113.5q0 -63 -28.5 -111t-80 -74.5t-118.5 -26.5h-142q-5 0 -5 -5v-255q0 -5 -3.5 -8.5t-8.5 -3.5h-117q-5 0 -8.5 3.5t-3.5 8.5v677q0 5 3.5 8.5t8.5 3.5h282zM329 385q46 0 74 26.5t28 69.5q0 44 -28 71t-74 27h-127q-5 0 -5 -5
v-184q0 -5 5 -5h127z" />
    <glyph glyph-name="Q" unicode="Q" horiz-adv-x="593" 
d="M214 200q17 15 37.5 22t42.5 7q30 0 58.5 -12.5t48.5 -35.5q14 30 14 65v216q0 54 -31 90.5t-88 36.5t-87.5 -36.5t-30.5 -90.5v-216q0 -54 30.5 -90t87.5 -36q17 0 30 3q-14 23 -38 42t-74 35zM480 69q22 -27 54 -41q11 -6 25 -11.5t29 -12.5q-37 -28 -84 -28
q-29 0 -56.5 11t-48.5 31q-48 -17 -103 -17q-57 0 -104 18t-80.5 51t-52 79t-18.5 102v210q0 57 19.5 103t53.5 78t80.5 49t101.5 17q57 0 104 -17.5t80.5 -49.5t52 -78t18.5 -102v-210q0 -51 -16.5 -99t-54.5 -83z" />
    <glyph glyph-name="R" unicode="R" horiz-adv-x="614" 
d="M445 0q-10 0 -14 9l-125 277q-2 4 -6 4h-93q-5 0 -5 -5v-273q0 -5 -3.5 -8.5t-8.5 -3.5h-117q-5 0 -8.5 3.5t-3.5 8.5v676q0 5 3.5 8.5t8.5 3.5h286q64 0 112.5 -26t75 -74t26.5 -111q0 -68 -34 -116.5t-95 -68.5q-5 -2 -3 -7l136 -283q2 -4 2 -6q0 -8 -11 -8h-123z
M207 579q-5 0 -5 -5v-171q0 -5 5 -5h131q42 0 68.5 25t26.5 65t-26.5 65.5t-68.5 25.5h-131z" />
    <glyph glyph-name="S" unicode="S" horiz-adv-x="595" 
d="M301 -8q-80 0 -140 25.5t-92.5 73t-32.5 110.5v22q0 5 3.5 8.5t8.5 3.5h114q5 0 8.5 -3.5t3.5 -8.5v-15q0 -40 37 -67.5t100 -27.5q53 0 79 22.5t26 55.5q0 24 -16 40.5t-43.5 29t-87.5 34.5q-67 23 -113.5 47t-78 65.5t-31.5 102.5q0 60 31 105t86 69t127 24
q76 0 135.5 -27t93 -75.5t33.5 -112.5v-15q0 -5 -3.5 -8.5t-8.5 -3.5h-115q-5 0 -8.5 3.5t-3.5 8.5v8q0 42 -34.5 71.5t-94.5 29.5q-47 0 -73.5 -20t-26.5 -55q0 -25 15.5 -42t46 -30.5t94.5 -36.5q71 -26 111.5 -46t73 -59.5t32.5 -102.5q0 -94 -69 -148.5t-187 -54.5z" />
    <glyph glyph-name="T" unicode="T" horiz-adv-x="585" 
d="M544 700q5 0 8.5 -3.5t3.5 -8.5v-98q0 -5 -3.5 -8.5t-8.5 -3.5h-179q-5 0 -5 -5v-561q0 -5 -3.5 -8.5t-8.5 -3.5h-117q-5 0 -8.5 3.5t-3.5 8.5v561q0 5 -5 5h-174q-5 0 -8.5 3.5t-3.5 8.5v98q0 5 3.5 8.5t8.5 3.5h504z" />
    <glyph glyph-name="U" unicode="U" horiz-adv-x="629" 
d="M315 -8q-77 0 -135.5 30t-91 84.5t-32.5 125.5v456q0 5 3.5 8.5t8.5 3.5h117q5 0 8.5 -3.5t3.5 -8.5v-457q0 -53 32.5 -85.5t85.5 -32.5t85.5 32.5t32.5 85.5v457q0 5 3.5 8.5t8.5 3.5h117q5 0 8.5 -3.5t3.5 -8.5v-456q0 -71 -32.5 -125.5t-91 -84.5t-135.5 -30z" />
    <glyph glyph-name="V" unicode="V" horiz-adv-x="622" 
d="M247 0q-10 0 -13 10l-206 676l-1 4q0 10 11 10h126q11 0 14 -10l133 -488q1 -3 3 -3t3 3l131 488q3 10 14 10h123q6 0 9 -4t1 -10l-209 -676q-3 -10 -13 -10h-126z" />
    <glyph glyph-name="W" unicode="W" horiz-adv-x="877" 
d="M216 0q-11 0 -14 10l-177 677l-1 4q0 9 11 9h124q10 0 13 -10l95 -407q1 -4 3 -4t3 4l92 406q3 11 13 11h121q11 0 14 -10l100 -407q1 -3 3 -3.5t3 3.5l92 406q3 11 13 11h118q14 0 11 -13l-164 -677q-3 -10 -14 -10h-119q-10 0 -13 10l-102 433q-1 4 -3 4t-3 -4
l-95 -432q-2 -11 -13 -11h-111z" />
    <glyph glyph-name="X" unicode="X" horiz-adv-x="631" 
d="M41 0q-7 0 -10 4t1 10l194 333q2 3 0 6l-194 333l-2 6q0 8 11 8h127q10 0 15 -8l130 -229q3 -6 6 0l130 229q5 8 15 8h126q7 0 10 -4t-1 -10l-194 -333q-1 -3 0 -6l194 -333l2 -6q0 -8 -11 -8h-126q-10 0 -15 8l-130 228q-3 6 -6 0l-131 -228q-5 -8 -15 -8h-126z" />
    <glyph glyph-name="Y" unicode="Y" horiz-adv-x="617" 
d="M250 1q-5 0 -8.5 3.5t-3.5 8.5v253q0 4 -1 6l-206 414q-2 4 -2 6q0 8 11 8h126q10 0 14 -9l125 -266q3 -6 6 0l125 266q4 9 14 9h128q7 0 9.5 -3.5t-0.5 -10.5l-208 -414q-1 -2 -1 -6v-253q0 -5 -3.5 -8.5t-8.5 -3.5h-116z" />
    <glyph glyph-name="Z" unicode="Z" horiz-adv-x="557" 
d="M44 0q-5 0 -8.5 3.5t-3.5 8.5v108q0 8 5 15l323 438q2 2 0.5 4t-4.5 2h-312q-5 0 -8.5 3.5t-3.5 8.5v97q0 5 3.5 8.5t8.5 3.5h463q5 0 8.5 -3.5t3.5 -8.5v-108q0 -8 -5 -15l-323 -438q-1 -2 0 -4t4 -2h312q5 0 8.5 -3.5t3.5 -8.5v-97q0 -5 -3.5 -8.5t-8.5 -3.5h-463z" />
    <glyph glyph-name="bracketleft" unicode="[" horiz-adv-x="416" 
d="M47 -147q-5 0 -8.5 3.5t-3.5 8.5v923q0 5 3.5 8.5t8.5 3.5h237q5 0 8.5 -3.5t3.5 -8.5v-97q0 -5 -3.5 -8.5t-8.5 -3.5h-103q-5 0 -5 -5v-694q0 -5 5 -5h104q5 0 8.5 -3.5t3.5 -8.5v-98q0 -5 -3.5 -8.5t-8.5 -3.5h-238z" />
    <glyph glyph-name="backslash" unicode="\" horiz-adv-x="473" 
d="M449 14q1 -2 1 -5q0 -9 -11 -9h-116q-11 0 -14 9l-257 677q-1 2 -1 5q0 9 11 9h115q11 0 14 -9z" />
    <glyph glyph-name="bracketright" unicode="]" horiz-adv-x="416" 
d="M382 -135q0 -5 -3.5 -8.5t-8.5 -3.5h-238q-5 0 -8.5 3.5t-3.5 8.5v98q0 5 3.5 8.5t8.5 3.5h104q5 0 5 5v694q0 5 -5 5h-104q-5 0 -8.5 3.5t-3.5 8.5v97q0 5 3.5 8.5t8.5 3.5h238q5 0 8.5 -3.5t3.5 -8.5v-923z" />
    <glyph glyph-name="asciicircum" unicode="^" horiz-adv-x="473" 
d="M44 298q-6 0 -9 3.5t-1 10.5l138 378q3 10 14 10h98q11 0 14 -10l141 -378q1 -2 1 -5q0 -9 -11 -9h-95q-10 0 -13 10l-82 243q-1 3 -3 3t-3 -3l-81 -243q-3 -10 -13 -10h-95z" />
    <glyph glyph-name="underscore" unicode="_" horiz-adv-x="523" 
d="M31 0q-5 0 -8.5 3.5t-3.5 8.5v83q0 5 3.5 8.5t8.5 3.5h461q5 0 8.5 -3.5t3.5 -8.5v-83q0 -5 -3.5 -8.5t-8.5 -3.5h-461z" />
    <glyph glyph-name="grave" unicode="`" horiz-adv-x="233" 
d="M206 590q2 -4 2 -6q0 -8 -10 -8h-84q-9 0 -14 8l-71 101q-2 3 -2 7q0 8 10 8h101q10 0 15 -9z" />
    <glyph glyph-name="a" unicode="a" horiz-adv-x="528" 
d="M257 522q65 0 116 -22.5t79.5 -61.5t28.5 -87v-339q0 -5 -3.5 -8.5t-8.5 -3.5h-117q-5 0 -8.5 3.5t-3.5 8.5v33q0 3 -2 4t-4 -2q-42 -55 -135 -55q-78 0 -126 38t-48 112q0 77 54 119.5t154 42.5h102q5 0 5 5v22q0 33 -20 51.5t-60 18.5q-31 0 -51.5 -11t-26.5 -31
q-3 -11 -13 -10l-121 16q-12 2 -11 9q4 42 33.5 76t78 53t108.5 19zM237 97q43 0 73 23t30 59v36q0 5 -5 5h-72q-45 0 -70.5 -17t-25.5 -48q0 -27 19 -42.5t51 -15.5z" />
    <glyph glyph-name="b" unicode="b" horiz-adv-x="566" 
d="M507 383q19 -52 19 -124q0 -69 -17 -121q-23 -68 -73.5 -107t-119.5 -39q-73 0 -115 55q-2 2 -4 1.5t-2 -3.5v-33q0 -5 -3.5 -8.5t-8.5 -3.5h-117q-5 0 -8.5 3.5t-3.5 8.5v676q0 5 3.5 8.5t8.5 3.5h117q5 0 8.5 -3.5t3.5 -8.5v-214q0 -3 2 -4t4 2q39 50 111 50
q73 0 122.5 -37.5t72.5 -101.5zM359 156q21 38 21 100q0 69 -24 106q-24 39 -71 39q-44 0 -67 -39q-22 -38 -22 -105t20 -101q24 -43 70 -43q49 0 73 43z" />
    <glyph glyph-name="c" unicode="c" horiz-adv-x="537" 
d="M278 -8q-80 0 -138.5 40t-83.5 110q-17 50 -17 118q0 67 17 116q24 68 83 107t139 39t140.5 -40t80.5 -101q8 -24 8 -36v-2q0 -9 -10 -11l-115 -17h-2q-9 0 -12 10l-3 16q-7 26 -31 43t-57 17q-32 0 -54 -16t-31 -44q-11 -30 -11 -82t10 -82q9 -30 31.5 -47t54.5 -17
q31 0 54.5 16.5t32.5 45.5q1 2 1 6q1 1 1 3q1 12 14 10l115 -18q10 -2 10 -11q0 -8 -6 -30q-21 -67 -81.5 -105t-139.5 -38z" />
    <glyph glyph-name="d" unicode="d" horiz-adv-x="566" 
d="M371 688q0 5 3.5 8.5t8.5 3.5h117q5 0 8.5 -3.5t3.5 -8.5v-676q0 -5 -3.5 -8.5t-8.5 -3.5h-117q-5 0 -8.5 3.5t-3.5 8.5v33q0 3 -2 3.5t-4 -1.5q-42 -55 -115 -55q-70 0 -120.5 39t-72.5 107q-17 52 -17 121q0 71 18 124q23 64 72.5 101.5t122.5 37.5q72 0 112 -50
q2 -3 4 -2t2 4v214zM350 156q20 37 20 101q0 67 -22 105q-23 39 -67 39q-47 0 -71 -39q-25 -39 -25 -106q0 -60 21 -100q25 -43 74 -43q45 0 70 43z" />
    <glyph glyph-name="e" unicode="e" horiz-adv-x="546" 
d="M507 310q6 -38 4 -85q-1 -12 -13 -12h-309q-6 0 -4 -5q3 -20 11 -40q26 -56 106 -56q64 1 101 52q4 6 9 6q3 0 7 -4l72 -71q5 -5 5 -9q0 -2 -4 -8q-33 -41 -85 -63.5t-114 -22.5q-86 0 -145.5 39t-85.5 109q-21 50 -21 131q0 55 15 97q23 71 80.5 113t136.5 42
q100 0 160.5 -58t73.5 -155zM274 401q-63 0 -83 -59q-4 -13 -7 -32q0 -5 5 -5h173q6 0 4 5q-5 29 -5 28q-9 30 -31.5 46.5t-55.5 16.5z" />
    <glyph glyph-name="f" unicode="f" horiz-adv-x="387" 
d="M345 515q5 0 8.5 -3.5t3.5 -8.5v-95q0 -5 -3.5 -8.5t-8.5 -3.5h-97q-5 0 -5 -5v-379q0 -5 -3.5 -8.5t-8.5 -3.5h-117q-5 0 -8.5 3.5t-3.5 8.5v379q0 5 -5 5h-59q-5 0 -8.5 3.5t-3.5 8.5v95q0 5 3.5 8.5t8.5 3.5h59q5 0 5 5v22q0 62 19 96.5t61.5 49t117.5 12.5h38
q5 0 8.5 -3.5t3.5 -8.5v-81q0 -5 -3.5 -8.5t-8.5 -3.5h-33q-35 -1 -48.5 -14.5t-13.5 -49.5v-11q0 -5 5 -5h97z" />
    <glyph glyph-name="g" unicode="g" horiz-adv-x="556" 
d="M366 502q0 5 3.5 8.5t8.5 3.5h117q5 0 8.5 -3.5t3.5 -8.5v-456q0 -131 -75.5 -187t-194.5 -56q-35 0 -78 5q-10 1 -10 13l4 103q0 13 14 11q36 -6 66 -6q64 0 98.5 28t34.5 90q0 3 -2 3.5t-4 -1.5q-38 -41 -111 -41q-65 0 -119.5 31.5t-77.5 101.5q-15 46 -15 119
q0 78 18 127q21 61 71 98t116 37q77 0 118 -46q2 -2 4 -1.5t2 3.5v24zM358 179q8 30 8 82q0 31 -2 48t-7 32q-9 27 -30 43.5t-52 16.5q-30 0 -51 -16.5t-31 -43.5q-14 -30 -14 -81q0 -56 12 -80q9 -27 31.5 -43.5t53.5 -16.5q32 0 53 16.5t29 42.5z" />
    <glyph glyph-name="h" unicode="h" 
d="M320 522q80 0 129 -49t49 -133v-328q0 -5 -3.5 -8.5t-8.5 -3.5h-117q-5 0 -8.5 3.5t-3.5 8.5v299q0 40 -22.5 65t-59.5 25t-59.5 -25t-22.5 -65v-299q0 -5 -3.5 -8.5t-8.5 -3.5h-117q-5 0 -8.5 3.5t-3.5 8.5v676q0 5 3.5 8.5t8.5 3.5h117q5 0 8.5 -3.5t3.5 -8.5v-221
q0 -3 2 -4t3 1q41 58 122 58z" />
    <glyph glyph-name="i" unicode="i" horiz-adv-x="255" 
d="M128 572q-34 0 -56.5 22.5t-22.5 56.5q0 35 22 57t57 22t57 -22t22 -57q0 -34 -22.5 -56.5t-56.5 -22.5zM68 0q-5 0 -8.5 3.5t-3.5 8.5v491q0 5 3.5 8.5t8.5 3.5h117q5 0 8.5 -3.5t3.5 -8.5v-491q0 -5 -3.5 -8.5t-8.5 -3.5h-117z" />
    <glyph glyph-name="j" unicode="j" horiz-adv-x="254" 
d="M127 572q-34 0 -56 22.5t-22 56.5q0 35 22 57t56 22q35 0 57 -22t22 -57q0 -34 -22.5 -56.5t-56.5 -22.5zM-48 -204q-12 0 -12 12v95q0 13 13 11q59 -2 82.5 17t23.5 67l-2 504q0 5 3.5 8.5t8.5 3.5h117q5 0 8.5 -3.5t3.5 -8.5v-502q0 -81 -22 -125.5t-74.5 -62.5
t-149.5 -16z" />
    <glyph glyph-name="k" unicode="k" horiz-adv-x="533" 
d="M64 0q-5 0 -8.5 3.5t-3.5 8.5v676q0 5 3.5 8.5t8.5 3.5h117q5 0 8.5 -3.5t3.5 -8.5v-337q0 -3 2 -3.5t4 1.5l136 158q7 7 15 7h133q10 0 10 -7q0 -3 -3 -8l-127 -161q-2 -4 -1 -7l149 -317q2 -4 2 -6q0 -8 -11 -8h-123q-10 0 -14 9l-99 234q-1 2 -3.5 2.5t-3.5 -1.5
l-64 -80q-2 -4 -2 -6v-146q0 -5 -3.5 -8.5t-8.5 -3.5h-117z" />
    <glyph glyph-name="l" unicode="l" horiz-adv-x="244" 
d="M64 0q-5 0 -8.5 3.5t-3.5 8.5v676q0 5 3.5 8.5t8.5 3.5h117q5 0 8.5 -3.5t3.5 -8.5v-676q0 -5 -3.5 -8.5t-8.5 -3.5h-117z" />
    <glyph glyph-name="m" unicode="m" horiz-adv-x="835" 
d="M622 522q78 0 122 -47t44 -132v-331q0 -5 -3.5 -8.5t-8.5 -3.5h-117q-5 0 -8.5 3.5t-3.5 8.5v300q0 41 -21 65t-56 24t-57 -24t-22 -64v-301q0 -5 -3.5 -8.5t-8.5 -3.5h-116q-5 0 -8.5 3.5t-3.5 8.5v300q0 40 -22 64.5t-57 24.5q-32 0 -53.5 -19t-25.5 -53v-317
q0 -5 -3.5 -8.5t-8.5 -3.5h-117q-5 0 -8.5 3.5t-3.5 8.5v490q0 5 3.5 8.5t8.5 3.5h117q5 0 8.5 -3.5t3.5 -8.5v-39q0 -3 2 -4t4 2q41 61 127 61q50 0 87.5 -21t57.5 -60q3 -6 7 0q22 41 59.5 61t84.5 20z" />
    <glyph glyph-name="n" unicode="n" 
d="M320 522q80 0 129 -49t49 -133v-328q0 -5 -3.5 -8.5t-8.5 -3.5h-117q-5 0 -8.5 3.5t-3.5 8.5v299q0 40 -22.5 65t-59.5 25t-59.5 -25t-22.5 -65v-299q0 -5 -3.5 -8.5t-8.5 -3.5h-117q-5 0 -8.5 3.5t-3.5 8.5v490q0 5 3.5 8.5t8.5 3.5h117q5 0 8.5 -3.5t3.5 -8.5v-35
q0 -3 2 -4t3 1q41 58 122 58z" />
    <glyph glyph-name="o" unicode="o" horiz-adv-x="557" 
d="M279 -8q-84 0 -144 44t-82 120q-14 47 -14 102q0 59 14 106q23 74 83 116t144 42q82 0 140 -41.5t82 -115.5q16 -50 16 -105q0 -54 -14 -101q-22 -78 -81.5 -122.5t-143.5 -44.5zM279 113q33 0 56 20t33 55q8 32 8 70q0 42 -8 71q-11 34 -34 53t-56 19q-34 0 -56.5 -19
t-32.5 -53q-8 -24 -8 -71q0 -45 7 -70q10 -35 33.5 -55t57.5 -20z" />
    <glyph glyph-name="p" unicode="p" horiz-adv-x="568" 
d="M511 376q18 -51 18 -120t-19 -125q-23 -64 -72.5 -101.5t-122.5 -37.5q-72 0 -112 50q-2 3 -4 2t-2 -4v-214q0 -5 -3.5 -8.5t-8.5 -3.5h-117q-5 0 -8.5 3.5t-3.5 8.5v676q0 5 3.5 8.5t8.5 3.5h117q5 0 8.5 -3.5t3.5 -8.5v-33q0 -3 2 -3.5t4 1.5q42 55 116 55
q69 0 119.5 -38.5t72.5 -107.5zM358 152q25 39 25 106q0 63 -21 100q-23 43 -74 43q-46 0 -69 -43q-21 -36 -21 -101q0 -67 22 -104q23 -40 68 -40t70 39z" />
    <glyph glyph-name="q" unicode="q" horiz-adv-x="568" 
d="M371 502q0 5 3.5 8.5t8.5 3.5h117q5 0 8.5 -3.5t3.5 -8.5v-676q0 -5 -3.5 -8.5t-8.5 -3.5h-117q-5 0 -8.5 3.5t-3.5 8.5v214q0 3 -2 4t-4 -2q-40 -50 -112 -50q-73 0 -122.5 37.5t-72.5 101.5q-18 53 -18 125q0 68 17 120q22 69 72.5 107.5t120.5 38.5q73 0 115 -55
q2 -2 4 -1.5t2 3.5v33zM348 153q22 37 22 104q0 64 -20 101q-25 43 -70 43q-49 0 -74 -43q-21 -40 -21 -100q0 -67 25 -106t71 -39q44 0 67 40z" />
    <glyph glyph-name="r" unicode="r" horiz-adv-x="383" 
d="M308 521q36 0 57 -14q8 -4 6 -15l-21 -114q-1 -12 -14 -7q-15 5 -35 5q-8 0 -22 -2q-36 -3 -61 -26.5t-25 -62.5v-273q0 -5 -3.5 -8.5t-8.5 -3.5h-117q-5 0 -8.5 3.5t-3.5 8.5v490q0 5 3.5 8.5t8.5 3.5h117q5 0 8.5 -3.5t3.5 -8.5v-38q0 -3 2 -4t3 1q41 60 110 60z" />
    <glyph glyph-name="s" unicode="s" horiz-adv-x="502" 
d="M257 -7q-67 0 -117 19t-77.5 53t-27.5 77v10q0 5 3.5 8.5t8.5 3.5h111q5 0 8.5 -3.5t3.5 -8.5v-1q0 -22 24.5 -37.5t61.5 -15.5q34 0 55 13.5t21 33.5q0 18 -18 27t-59 19q-47 12 -74 23q-64 22 -102 54t-38 92q0 74 57.5 117.5t152.5 43.5q64 0 112 -20.5t74.5 -57.5
t26.5 -84q0 -5 -3.5 -8.5t-8.5 -3.5h-107q-5 0 -8.5 3.5t-3.5 8.5q0 22 -22.5 37t-59.5 15q-33 0 -54 -12t-21 -33q0 -20 20.5 -30t68.5 -21q11 -3 25 -6.5t30 -8.5q71 -21 112 -54t41 -96q0 -74 -58.5 -115.5t-157.5 -41.5z" />
    <glyph glyph-name="t" unicode="t" horiz-adv-x="380" 
d="M347 413q0 -5 -3.5 -8.5t-8.5 -3.5h-96q-5 0 -5 -5v-212q0 -33 13.5 -49t43.5 -16h33q5 0 8.5 -3.5t3.5 -8.5v-95q0 -11 -12 -13q-42 -2 -60 -2q-83 0 -124 27.5t-42 103.5v268q0 5 -5 5h-57q-5 0 -8.5 3.5t-3.5 8.5v89q0 5 3.5 8.5t8.5 3.5h57q5 0 5 5v119q0 5 3.5 8.5
t8.5 3.5h112q5 0 8.5 -3.5t3.5 -8.5v-119q0 -5 5 -5h96q5 0 8.5 -3.5t3.5 -8.5v-89z" />
    <glyph glyph-name="u" unicode="u" horiz-adv-x="545" 
d="M352 502q0 5 3.5 8.5t8.5 3.5h117q5 0 8.5 -3.5t3.5 -8.5v-490q0 -5 -3.5 -8.5t-8.5 -3.5h-117q-5 0 -8.5 3.5t-3.5 8.5v34q0 3 -2 3.5t-4 -2.5q-40 -54 -124 -54q-76 0 -125 46t-49 129v334q0 5 3.5 8.5t8.5 3.5h116q5 0 8.5 -3.5t3.5 -8.5v-299q0 -40 21.5 -65
t59.5 -25q34 0 56 20.5t27 53.5v315z" />
    <glyph glyph-name="v" unicode="v" horiz-adv-x="520" 
d="M195 0q-10 0 -13 10l-160 491q-1 2 -1 5q0 9 11 9h129q11 0 14 -10l82 -303q1 -3 3 -3t3 3l82 303q3 10 14 10l129 -2q6 0 9 -3.5t1 -10.5l-159 -489q-3 -10 -13 -10h-131z" />
    <glyph glyph-name="w" unicode="w" horiz-adv-x="783" 
d="M180 0q-11 0 -14 10l-144 491l-1 4q0 10 11 10h121q11 0 14 -10l72 -302q1 -3 3 -3t3 3l75 302q3 10 14 10h105q11 0 14 -10l79 -303q1 -3 3 -3t3 3l78 303q3 10 14 10l120 -2q6 0 8.5 -3.5t1.5 -9.5l-146 -490q-3 -10 -13 -10h-121q-11 0 -14 10l-77 268q-1 3 -3 3
t-3 -3l-68 -268q-3 -10 -14 -10h-121z" />
    <glyph glyph-name="x" unicode="x" horiz-adv-x="538" 
d="M32 0q-7 0 -9.5 4.5t1.5 10.5l161 239q2 3 0 6l-161 239q-2 4 -2 7q0 8 10 8h125q9 0 14 -8l90 -137q4 -6 7 0l90 137q5 8 14 8h134q7 0 9 -4.5t-2 -10.5l-160 -239q-1 -3 0 -6l160 -239q2 -3 2 -7q0 -8 -9 -8h-126q-9 0 -14 8l-90 137q-3 6 -6 0l-90 -137q-5 -8 -14 -8
h-134z" />
    <glyph glyph-name="y" unicode="y" horiz-adv-x="504" 
d="M49 -199q-3 0 -5 3.5t-2 8.5v92q0 5 3.5 8.5t8.5 3.5q42 1 66.5 7t39 23t22.5 50q1 2 0 6l-164 498q-1 2 -1 5q0 9 11 9h125q11 0 14 -10l84 -324q1 -3 3 -3t3 3l84 324q3 10 14 10h122q6 0 8.5 -3.5t0.5 -10.5l-173 -520q-25 -73 -51 -109.5t-73 -53.5t-133 -17h-7z" />
    <glyph glyph-name="z" unicode="z" horiz-adv-x="460" 
d="M36 0q-5 0 -8.5 3.5t-3.5 8.5v107q0 8 6 15l225 247q5 6 -2 6h-211q-5 0 -8.5 3.5t-3.5 8.5v103q0 5 3.5 8.5t8.5 3.5h374q5 0 8.5 -3.5t3.5 -8.5v-106q0 -7 -6 -15l-232 -247q-4 -6 2 -6h229q5 0 8.5 -3.5t3.5 -8.5v-104q0 -5 -3.5 -8.5t-8.5 -3.5h-385z" />
    <glyph glyph-name="braceleft" unicode="{" horiz-adv-x="376" 
d="M238 -147q-65 0 -98 31.5t-33 92.5v207q0 43 -14.5 64t-45.5 25q-12 2 -12 13v87q0 12 12 13q31 4 45.5 25t14.5 63v203q0 61 33 92t98 31h91q5 0 8.5 -3.5t3.5 -8.5v-97q0 -5 -3.5 -8.5t-8.5 -3.5h-27q-24 0 -39 -17t-15 -46v-161q0 -49 -14 -78.5t-44 -43.5q-6 -3 0 -6
q30 -15 44 -45t14 -79v-165q0 -30 15 -46.5t39 -16.5h27q5 0 8.5 -3.5t3.5 -8.5v-98q0 -5 -3.5 -8.5t-8.5 -3.5h-91z" />
    <glyph glyph-name="bar" unicode="|" horiz-adv-x="203" 
d="M43 -80q-5 0 -8.5 3.5t-3.5 8.5v816q0 5 3.5 8.5t8.5 3.5h117q5 0 8.5 -3.5t3.5 -8.5v-816q0 -5 -3.5 -8.5t-8.5 -3.5h-117z" />
    <glyph glyph-name="braceright" unicode="}" horiz-adv-x="376" 
d="M47 -147q-5 0 -8.5 3.5t-3.5 8.5v98q0 5 3.5 8.5t8.5 3.5h27q24 0 39 16.5t15 46.5v165q0 49 14 79t43 45q6 3 0 6q-29 14 -43 43.5t-14 78.5v161q0 29 -15 46t-39 17h-27q-5 0 -8.5 3.5t-3.5 8.5v97q0 5 3.5 8.5t8.5 3.5h90q65 0 98.5 -31t33.5 -92v-203q0 -42 14.5 -63
t45.5 -25q12 -1 12 -13v-87q0 -11 -12 -13q-31 -4 -45.5 -25t-14.5 -64v-207q0 -61 -33.5 -92.5t-98.5 -31.5h-90z" />
    <glyph glyph-name="asciitilde" unicode="~" horiz-adv-x="534" 
d="M356 201q-26 0 -46 7t-42 20q-25 14 -43.5 22t-39.5 8q-40 0 -65 -36q-8 -9 -17 -3l-65 44q-9 6 -6 16q17 44 58.5 72.5t89.5 28.5q24 0 43 -6.5t41 -19.5q7 -4 23.5 -13t30.5 -14t28 -5q19 0 32.5 9.5t25.5 26.5q7 10 17 4l76 -49q9 -6 5 -16q-19 -43 -59.5 -69.5
t-86.5 -26.5z" />
    <glyph glyph-name="uni00A0" unicode="&#xa0;" horiz-adv-x="200" 
 />
    <glyph glyph-name="exclamdown" unicode="&#xa1;" horiz-adv-x="344" 
d="M167 708q34 0 56 -22.5t22 -56.5t-21.5 -56t-56.5 -22t-57 22t-22 56q0 35 22.5 57t56.5 22zM116 457q0 5 3.5 8.5t8.5 3.5h89q5 0 8.5 -3.5t3.5 -8.5l15 -436q0 -5 -3.5 -8.5t-8.5 -3.5h-117q-5 0 -8.5 3.5t-3.5 8.5z" />
    <glyph glyph-name="cent" unicode="&#xa2;" horiz-adv-x="537" 
d="M364 265q1 2 1 6q1 1 1 3q1 12 14 10l115 -18q10 -2 10 -11q0 -8 -6 -30q-18 -54 -60.5 -89.5t-101.5 -47.5q-5 -2 -5 -6l2 -76q0 -5 -3.5 -8.5t-8.5 -3.5h-100q-5 0 -8.5 3.5t-3.5 8.5l2 80q0 4 -4 5q-54 15 -93.5 51.5t-58.5 89.5q-17 50 -17 118q0 67 17 116
q19 52 57.5 87t92.5 50q4 1 4 5l-2 77q0 5 3.5 8.5t8.5 3.5h99q5 0 8.5 -3.5t3.5 -8.5l-1 -73q0 -4 5 -6q60 -13 103.5 -49.5t60.5 -85.5q8 -24 8 -36v-2q0 -9 -10 -11l-115 -17h-2q-9 0 -12 10l-3 16q-7 26 -31 43t-57 17q-32 0 -54 -16t-31 -44q-11 -30 -11 -82t10 -82
q9 -30 31.5 -47t54.5 -17q31 0 54.5 16.5t32.5 45.5z" />
    <glyph glyph-name="sterling" unicode="&#xa3;" horiz-adv-x="613" 
d="M286 222q0 -56 -37 -95q-2 -2 -1 -4t4 -2h319q5 0 8.5 -3.5t3.5 -8.5v-97q0 -5 -3.5 -8.5t-8.5 -3.5h-466q-5 0 -8.5 3.5t-3.5 8.5v100q0 8 8 14q24 16 34 39t10 57v60q0 5 -5 5h-67q-5 0 -8.5 3.5t-3.5 8.5v90q0 5 3.5 8.5t8.5 3.5h67q5 0 5 5v84q0 103 61 160.5
t164 57.5q81 0 134.5 -41.5t77.5 -115.5q1 -2 1 -5q0 -6 -10 -9l-108 -20h-3q-7 0 -12 9q-11 33 -30.5 47t-47.5 14q-40 0 -63 -23t-23 -71v-87q0 -5 5 -5h182q5 0 8.5 -3.5t3.5 -8.5v-90q0 -5 -3.5 -8.5t-8.5 -3.5h-182q-5 0 -5 -5v-60z" />
    <glyph glyph-name="currency" unicode="&#xa4;" horiz-adv-x="574" 
d="M504 304q0 -57 -26 -103q-1 -4 1 -7l66 -66q4 -4 4 -9q0 -4 -4 -8l-73 -63q-4 -4 -9 -4q-4 0 -8 4l-61 61q-2 3 -7 1q-47 -26 -103 -26q-53 0 -99 23q-4 2 -7 -1l-59 -58q-4 -4 -8 -4q-5 0 -9 4l-73 63q-4 4 -4 8q0 5 4 9l62 61q3 3 1 7q-29 49 -29 108q0 56 26 103
q2 5 -1 7l-65 64q-4 4 -4 9q0 4 4 8l73 64q4 4 9 4t8 -4l61 -61q3 -2 7 -1q46 26 103 26q59 0 107 -28q4 -2 7 1l64 63q4 4 8 4q5 0 9 -4l72 -64q4 -4 4 -8q0 -5 -4 -9l-69 -69q-2 -2 -1 -7q23 -44 23 -98zM184 304q0 -41 29.5 -70.5t70.5 -29.5t70.5 29t29.5 71
q0 41 -29.5 70.5t-70.5 29.5t-70.5 -29.5t-29.5 -70.5z" />
    <glyph glyph-name="yen" unicode="&#xa5;" horiz-adv-x="686" 
d="M615 700q7 0 9.5 -3.5t-0.5 -10.5l-173 -346q-1 -3 0 -4.5t4 -1.5h89q5 0 8.5 -3.5t3.5 -8.5v-54q0 -5 -3.5 -8.5t-8.5 -3.5h-123q-5 0 -5 -5v-49q0 -5 5 -5h123q5 0 8.5 -3.5t3.5 -8.5v-55q0 -5 -3.5 -8.5t-8.5 -3.5h-123q-5 0 -5 -5v-100q0 -5 -3.5 -8.5t-8.5 -3.5
h-117q-5 0 -8.5 3.5t-3.5 8.5v100q0 5 -5 5h-124q-5 0 -8.5 3.5t-3.5 8.5v55q0 5 3.5 8.5t8.5 3.5h124q5 0 5 5v49q0 5 -5 5h-124q-5 0 -8.5 3.5t-3.5 8.5v54q0 5 3.5 8.5t8.5 3.5h90q3 0 4 1.5t0 4.5l-172 346q-2 4 -2 6q0 8 11 8h127q10 0 14 -9l125 -266q3 -6 6 0
l125 266q4 9 14 9h127z" />
    <glyph glyph-name="brokenbar" unicode="&#xa6;" horiz-adv-x="203" 
d="M43 402q-5 0 -8.5 3.5t-3.5 8.5v334q0 5 3.5 8.5t8.5 3.5h117q5 0 8.5 -3.5t3.5 -8.5v-334q0 -5 -3.5 -8.5t-8.5 -3.5h-117zM43 -80q-5 0 -8.5 3.5t-3.5 8.5v334q0 5 3.5 8.5t8.5 3.5h117q5 0 8.5 -3.5t3.5 -8.5v-334q0 -5 -3.5 -8.5t-8.5 -3.5h-117z" />
    <glyph glyph-name="section" unicode="&#xa7;" horiz-adv-x="494" 
d="M241 -208q-91 0 -143 45.5t-55 123.5l-2 37q0 12 12 12h117q5 0 8.5 -3.5t3.5 -8.5v-14q0 -32 18 -51.5t48 -19.5q28 0 46.5 17.5t18.5 44.5q0 23 -14.5 37.5t-35 24t-74.5 30.5q-50 19 -79 37t-48 46q-26 38 -26 91q0 55 29 99q25 33 63 48q6 3 0 6q-39 20 -63.5 56
t-24.5 85q0 47 26.5 87t73.5 63t107 23q58 0 104.5 -22t72.5 -62t26 -91v-23q0 -5 -3.5 -8.5t-8.5 -3.5h-117q-5 0 -8.5 3.5t-3.5 8.5v8q0 31 -18 50t-46 19t-46 -18t-18 -46q0 -33 27 -51t82 -37q40 -12 71 -27t53 -39q42 -42 42 -110q0 -52 -27 -96q-25 -42 -65 -53
q-3 -1 -3 -2.5t3 -3.5q45 -26 67.5 -60.5t22.5 -81.5q0 -52 -28 -90.5t-76.5 -59t-108.5 -20.5zM246 182q39 0 57 26q12 17 12 42q0 27 -12 43q-22 25 -57 25q-18 0 -33.5 -8t-24.5 -22q-11 -17 -11 -40t12 -40q21 -26 57 -26z" />
    <glyph glyph-name="dieresis" unicode="&#xa8;" horiz-adv-x="394" 
d="M297 578q-34 0 -56.5 22.5t-22.5 56.5q0 35 22 57t57 22t57 -22t22 -57q0 -34 -22.5 -56.5t-56.5 -22.5zM98 578q-34 0 -56.5 22.5t-22.5 56.5q0 35 22 57t57 22t57 -22t22 -57q0 -34 -22.5 -56.5t-56.5 -22.5z" />
    <glyph glyph-name="copyright" unicode="&#xa9;" horiz-adv-x="817" 
d="M408 -8q-103 0 -185 47t-129 129t-47 185q0 100 47 181t129.5 127.5t184.5 46.5q103 0 185.5 -46.5t129.5 -127.5t47 -181q0 -103 -47 -185t-129.5 -129t-185.5 -47zM408 86q75 0 135.5 34.5t95 95.5t34.5 137q0 74 -34.5 133.5t-95 93.5t-135.5 34t-135.5 -34
t-94.5 -93.5t-34 -133.5q0 -76 34 -137t94.5 -95.5t135.5 -34.5zM410 174q-55 0 -89 31.5t-34 83.5v125q0 52 33.5 83t89.5 31t89 -29t33 -79q0 -3 -3.5 -5t-8.5 -2l-51 -2q-12 0 -12 8q0 21 -13 33.5t-34 12.5q-22 0 -34.5 -12.5t-12.5 -33.5v-136q0 -20 12.5 -32.5
t34.5 -12.5q21 0 34 12.5t13 32.5q0 4 3.5 6.5t8.5 2.5l51 -2q12 0 12 -8q0 -49 -33.5 -78.5t-88.5 -29.5z" />
    <glyph glyph-name="ordfeminine" unicode="&#xaa;" horiz-adv-x="330" 
d="M217 567q5 0 5 5v11q0 26 -17.5 42.5t-46.5 16.5q-21 0 -37.5 -9t-21.5 -23q-3 -11 -13 -10l-52 4q-12 2 -11 13q5 39 42.5 65t91.5 26q62 0 101.5 -32.5t39.5 -80.5v-219q0 -5 -3.5 -8.5t-8.5 -3.5h-52q-5 0 -8.5 3.5t-3.5 8.5v9q0 3 -2 4t-4 -2q-29 -29 -86 -29
q-54 0 -85.5 25t-31.5 72q0 51 38 81.5t102 30.5h64zM144 419q34 0 56 18t22 42v24q0 5 -5 5h-53q-73 0 -73 -46q0 -22 14 -32.5t39 -10.5zM13 298q0 5 3.5 8.5t8.5 3.5h270q5 0 8.5 -3.5t3.5 -8.5v-53q0 -5 -3.5 -8.5t-8.5 -3.5h-270q-5 0 -8.5 3.5t-3.5 8.5v53z" />
    <glyph glyph-name="guillemotleft" unicode="&#xab;" horiz-adv-x="509" 
d="M274 121q2 -6 2 -7q0 -7 -10 -7h-101q-10 0 -14 8l-94 158l-2 8q0 2 2 8l94 158q4 8 14 8h101q7 0 9.5 -3.5t-1.5 -10.5l-97 -157q-1 -3 0 -6zM446 121q2 -6 2 -7q0 -7 -10 -7h-101q-10 0 -14 8l-95 158l-2 8q0 2 2 8l95 158q4 8 14 8h101q7 0 9.5 -3.5t-1.5 -10.5
l-97 -157q-1 -3 0 -6z" />
    <glyph glyph-name="logicalnot" unicode="&#xac;" horiz-adv-x="486" 
d="M29 349q0 5 3.5 8.5t8.5 3.5h404q5 0 8.5 -3.5t3.5 -8.5v-209q0 -5 -3.5 -8.5t-8.5 -3.5h-97q-5 0 -8.5 3.5t-3.5 8.5v95q0 5 -5 5h-290q-5 0 -8.5 3.5t-3.5 8.5v97z" />
    <glyph glyph-name="uni00AD" unicode="&#xad;" horiz-adv-x="409" 
d="M41 235q-5 0 -8.5 3.5t-3.5 8.5v97q0 5 3.5 8.5t8.5 3.5h327q5 0 8.5 -3.5t3.5 -8.5v-97q0 -5 -3.5 -8.5t-8.5 -3.5h-327z" />
    <glyph glyph-name="registered" unicode="&#xae;" horiz-adv-x="445" 
d="M222 710q57 0 104 -26t73.5 -71t26.5 -101q0 -58 -26.5 -105t-73.5 -73.5t-104 -26.5t-103.5 26.5t-73 73.5t-26.5 105q0 56 26.5 101t73 71t103.5 26zM222 366q62 0 103 41.5t41 104.5q0 39 -19 71t-52 50.5t-73 18.5t-73 -18.5t-51.5 -50.5t-18.5 -71q0 -64 40.5 -105
t102.5 -41zM293 544q0 -33 -24 -47q-4 -1 -2 -6l21 -59q1 -2 1 -5q0 -9 -11 -9h-25q-10 0 -13 10l-19 56q-2 4 -5 4h-2q-5 0 -5 -5v-53q0 -5 -3.5 -8.5t-8.5 -3.5h-22q-5 0 -8.5 3.5t-3.5 8.5v161q0 5 3.5 8.5t8.5 3.5h59q26 0 42.5 -17t16.5 -42zM214 563q-5 0 -5 -5v-30
q0 -5 5 -5h13q9 0 14.5 6t5.5 14q0 9 -5.5 14.5t-14.5 5.5h-13z" />
    <glyph glyph-name="macron" unicode="&#xaf;" horiz-adv-x="294" 
d="M12 578q-5 0 -8.5 3.5t-3.5 8.5v71q0 5 3.5 8.5t8.5 3.5h270q5 0 8.5 -3.5t3.5 -8.5v-71q0 -5 -3.5 -8.5t-8.5 -3.5h-270z" />
    <glyph glyph-name="degree" unicode="&#xb0;" horiz-adv-x="376" 
d="M188 471q-46 0 -85 22.5t-61.5 61t-22.5 85.5q0 46 22.5 84.5t61.5 61t85 22.5q47 0 85.5 -22.5t61 -61t22.5 -84.5q0 -47 -22.5 -85.5t-61 -61t-85.5 -22.5zM188 562q33 0 55.5 22.5t22.5 55.5q0 34 -22.5 56.5t-55.5 22.5q-32 0 -55 -22.5t-23 -56.5q0 -33 23 -55.5
t55 -22.5z" />
    <glyph glyph-name="plusminus" unicode="&#xb1;" horiz-adv-x="486" 
d="M445 456q5 0 8.5 -3.5t3.5 -8.5v-97q0 -5 -3.5 -8.5t-8.5 -3.5h-137q-5 0 -5 -5v-135q0 -5 -3.5 -8.5t-8.5 -3.5h-96q-5 0 -8.5 3.5t-3.5 8.5v135q0 5 -5 5h-137q-5 0 -8.5 3.5t-3.5 8.5v97q0 5 3.5 8.5t8.5 3.5h137q5 0 5 5v138q0 5 3.5 8.5t8.5 3.5h96q5 0 8.5 -3.5
t3.5 -8.5v-138q0 -5 5 -5h137zM41 0q-5 0 -8.5 3.5t-3.5 8.5v97q0 5 3.5 8.5t8.5 3.5h404q5 0 8.5 -3.5t3.5 -8.5v-97q0 -5 -3.5 -8.5t-8.5 -3.5h-404z" />
    <glyph glyph-name="twosuperior" unicode="&#xb2;" horiz-adv-x="343" 
d="M43 416q-5 0 -8.5 3.5t-3.5 8.5v56q0 9 6 15q52 50 129 133q55 58 55 86q0 20 -14 32.5t-36 12.5q-23 0 -37 -13t-14 -33v-10q0 -5 -3.5 -8.5t-8.5 -3.5h-68q-5 0 -8.5 3.5t-3.5 8.5v24q4 50 44 80t99 30q64 0 103 -35t39 -86q0 -25 -12 -50.5t-37 -55.5
q-33 -41 -106 -114q-2 -2 -1 -4t4 -2h147q5 0 8.5 -3.5t3.5 -8.5v-54q0 -5 -3.5 -8.5t-8.5 -3.5h-265z" />
    <glyph glyph-name="threesuperior" unicode="&#xb3;" horiz-adv-x="324" 
d="M291 620q12 -30 12 -67t-13 -66q-15 -36 -49 -56.5t-79 -20.5q-46 0 -81 23t-51 63q-8 19 -10 46q0 12 12 12h67q12 0 13 -12q2 -16 6 -24q5 -14 16.5 -21.5t27.5 -7.5q27 0 40 22q10 17 10 44q0 30 -11 48q-12 23 -40 23q-13 0 -25 -8q-6 -2 -7 -2q-5 0 -10 5l-33 40
q-4 6 -4 8q0 4 5 9l89 73q2 2 1.5 4t-3.5 2h-133q-5 0 -8.5 3.5t-3.5 8.5v54q0 5 3.5 8.5t8.5 3.5h245q5 0 8.5 -3.5t3.5 -8.5v-57q0 -8 -7 -15l-74 -66q-2 -2 -1.5 -4t4.5 -3q47 -11 71 -58z" />
    <glyph glyph-name="acute" unicode="&#xb4;" horiz-adv-x="233" 
d="M35 576q-7 0 -9 4t1 10l53 101q4 9 15 9h101q7 0 9.5 -4.5t-1.5 -10.5l-71 -101q-5 -8 -14 -8h-84z" />
    <glyph glyph-name="uni00B5" unicode="&#xb5;" horiz-adv-x="551" 
d="M357 502q0 5 3.5 8.5t8.5 3.5h117q5 0 8.5 -3.5t3.5 -8.5v-490q0 -5 -3.5 -8.5t-8.5 -3.5h-117q-5 0 -8.5 3.5t-3.5 8.5v34q0 3 -2 3.5t-4 -2.5q-40 -54 -124 -54q-9 0 -29 2q-5 2 -5 -4v-179q0 -5 -3.5 -8.5t-8.5 -3.5h-117q-5 0 -8.5 3.5t-3.5 8.5v690q0 5 3.5 8.5
t8.5 3.5h117q5 0 8.5 -3.5t3.5 -8.5v-299q0 -40 21.5 -65t58.5 -25q34 0 56.5 20.5t27.5 54.5v314z" />
    <glyph glyph-name="paragraph" unicode="&#xb6;" horiz-adv-x="625" 
d="M558 700q5 0 8.5 -3.5t3.5 -8.5v-876q0 -5 -3.5 -8.5t-8.5 -3.5h-79q-5 0 -8.5 3.5t-3.5 8.5v783q0 5 -5 5h-97q-5 0 -5 -5v-783q0 -5 -3.5 -8.5t-8.5 -3.5h-80q-5 0 -8.5 3.5t-3.5 8.5v434q0 5 -5 5q-67 5 -118 34.5t-79.5 78.5t-28.5 111q0 65 30 116t86.5 80t131.5 29
h285z" />
    <glyph glyph-name="periodcentered" unicode="&#xb7;" horiz-adv-x="235" 
d="M118 211q-34 0 -56.5 22.5t-22.5 56.5q0 35 22 57t57 22t57 -22t22 -57q0 -34 -22.5 -56.5t-56.5 -22.5z" />
    <glyph glyph-name="cedilla" unicode="&#xb8;" horiz-adv-x="169" 
d="M10 -182q-11 3 -9 14l7 50q1 12 15 9q10 -3 20 -3q15 0 24 8t9 23q0 30 -47 66q-6 4 -6 9q0 6 10 6h65q9 0 15 -5q56 -47 56 -99q0 -13 -3 -25q-9 -34 -35 -49t-60 -15q-32 0 -61 11z" />
    <glyph glyph-name="onesuperior" unicode="&#xb9;" horiz-adv-x="194" 
d="M65 833q8 3 15 3h71q5 0 8.5 -3.5t3.5 -8.5v-396q0 -5 -3.5 -8.5t-8.5 -3.5h-67q-5 0 -8.5 3.5t-3.5 8.5v323q0 5 -5 5l-32 -3h-2q-10 0 -10 12v43q0 10 10 13z" />
    <glyph glyph-name="ordmasculine" unicode="&#xba;" horiz-adv-x="356" 
d="M179 362q-50 0 -86.5 25.5t-54.5 71.5q-13 32 -13 77q0 46 12 77q16 46 53.5 70.5t89.5 24.5q47 0 83 -24.5t53 -69.5q14 -36 14 -77q0 -42 -14 -78q-17 -46 -53.5 -71.5t-83.5 -25.5zM179 439q17 0 31 10.5t21 30.5q8 21 8 56q0 37 -7 54q-8 20 -22.5 31t-32.5 11
q-36 0 -53 -42q-8 -19 -8 -54q0 -36 8 -56q7 -20 21 -30.5t34 -10.5zM38 232q-5 0 -8.5 3.5t-3.5 8.5v56q0 5 3.5 8.5t8.5 3.5h284q5 0 8.5 -3.5t3.5 -8.5v-56q0 -5 -3.5 -8.5t-8.5 -3.5h-284z" />
    <glyph glyph-name="guillemotright" unicode="&#xbb;" horiz-adv-x="509" 
d="M78 107q-7 0 -9.5 3.5t1.5 10.5l96 157q2 3 0 6l-96 157q-2 6 -2 7q0 7 10 7h100q10 0 14 -8l95 -158q2 -3 2 -8t-2 -8l-95 -158q-4 -8 -14 -8h-100zM250 107q-7 0 -9.5 3.5t1.5 10.5l96 157q2 3 0 6l-96 157q-2 6 -2 7q0 7 10 7h100q10 0 14 -8l95 -158q2 -3 2 -8t-2 -8
l-95 -158q-4 -8 -14 -8h-100z" />
    <glyph glyph-name="onequarter" unicode="&#xbc;" horiz-adv-x="826" 
d="M65 697q8 3 15 3h71q5 0 8.5 -3.5t3.5 -8.5v-396q0 -5 -3.5 -8.5t-8.5 -3.5h-67q-5 0 -8.5 3.5t-3.5 8.5v323q0 5 -5 5l-32 -3h-2q-10 0 -10 12v43q0 10 10 13zM114 0q-7 0 -10 4t1 10l396 678q4 8 15 8h75q7 0 10 -4t-1 -10l-396 -678q-4 -8 -15 -8h-75zM783 187
q5 0 8.5 -3.5t3.5 -8.5v-58q0 -5 -3.5 -8.5t-8.5 -3.5h-18q-5 0 -5 -5v-88q0 -5 -3.5 -8.5t-8.5 -3.5h-67q-5 0 -8.5 3.5t-3.5 8.5v88q0 5 -5 5h-180q-5 0 -8.5 3.5t-3.5 8.5v46q0 6 3 15l104 233q4 9 14 9h70q7 0 9 -4t0 -10l-92 -213q-1 -2 0 -4t3 -2h81q5 0 5 5v65
q0 5 3.5 8.5t8.5 3.5h67q5 0 8.5 -3.5t3.5 -8.5v-65q0 -5 5 -5h18z" />
    <glyph glyph-name="onehalf" unicode="&#xbd;" horiz-adv-x="802" 
d="M65 697q8 3 15 3h71q5 0 8.5 -3.5t3.5 -8.5v-396q0 -5 -3.5 -8.5t-8.5 -3.5h-67q-5 0 -8.5 3.5t-3.5 8.5v323q0 5 -5 5l-32 -3h-2q-10 0 -10 12v43q0 10 10 13zM114 0q-7 0 -10 4t1 10l396 678q4 8 15 8h75q7 0 10 -4t-1 -10l-396 -678q-4 -8 -15 -8h-75zM497 0
q-5 0 -8.5 3.5t-3.5 8.5v56q0 9 6 15q52 50 129 133q55 58 55 86q0 20 -14 32.5t-36 12.5q-23 0 -37 -13t-14 -33v-10q0 -5 -3.5 -8.5t-8.5 -3.5h-68q-5 0 -8.5 3.5t-3.5 8.5v24q4 50 44 80t99 30q64 0 103 -35t39 -86q0 -25 -12 -50.5t-37 -55.5q-33 -41 -106 -114
q-2 -2 -1 -4t4 -2h147q5 0 8.5 -3.5t3.5 -8.5v-54q0 -5 -3.5 -8.5t-8.5 -3.5h-265z" />
    <glyph glyph-name="threequarters" unicode="&#xbe;" horiz-adv-x="916" 
d="M291 487q12 -30 12 -67t-13 -66q-15 -36 -49 -56.5t-79 -20.5q-46 0 -81 23t-51 63q-8 19 -10 46q0 12 12 12h67q12 0 13 -12q2 -16 6 -24q5 -14 16.5 -21.5t27.5 -7.5q27 0 40 22q10 17 10 44q0 30 -11 48q-12 23 -40 23q-13 0 -25 -8q-6 -2 -7 -2q-5 0 -10 5l-33 40
q-4 6 -4 8q0 4 5 9l89 73q2 2 1.5 4t-3.5 2h-133q-5 0 -8.5 3.5t-3.5 8.5v54q0 5 3.5 8.5t8.5 3.5h245q5 0 8.5 -3.5t3.5 -8.5v-57q0 -8 -7 -15l-74 -66q-2 -2 -1.5 -4t4.5 -3q47 -11 71 -58zM206 0q-7 0 -10 4t1 10l396 678q4 8 15 8h75q7 0 10 -4t-1 -10l-396 -678
q-4 -8 -15 -8h-75zM874 187q5 0 8.5 -3.5t3.5 -8.5v-58q0 -5 -3.5 -8.5t-8.5 -3.5h-18q-5 0 -5 -5v-88q0 -5 -3.5 -8.5t-8.5 -3.5h-67q-5 0 -8.5 3.5t-3.5 8.5v88q0 5 -5 5h-180q-5 0 -8.5 3.5t-3.5 8.5v46q0 6 3 15l104 233q4 9 14 9h70q7 0 9 -4t0 -10l-92 -213
q-1 -2 0 -4t3 -2h81q5 0 5 5v65q0 5 3.5 8.5t8.5 3.5h67q5 0 8.5 -3.5t3.5 -8.5v-65q0 -5 5 -5h18z" />
    <glyph glyph-name="questiondown" unicode="&#xbf;" horiz-adv-x="521" 
d="M283 502q34 0 56 -22t22 -57q0 -34 -21.5 -56t-56.5 -22t-57 22t-22 56q0 35 22.5 57t56.5 22zM337 278q5 0 8.5 -3.5t3.5 -8.5v-32q0 -50 -26 -81t-74 -64q-39 -27 -58 -48t-19 -51q0 -32 24 -51.5t63 -19.5q42 0 67.5 21t25.5 54v16q0 11 12 11l117 -5q5 0 8.5 -3.5
t3.5 -8.5v-10q0 -60 -30 -106.5t-83.5 -72t-123.5 -25.5q-68 0 -119.5 24.5t-79.5 68.5t-28 102q0 44 15.5 75.5t37.5 51.5t56 44q36 25 53 43t17 44v23q0 5 3.5 8.5t8.5 3.5h117z" />
    <glyph glyph-name="Agrave" unicode="&#xc0;" horiz-adv-x="671" 
d="M506 0q-10 0 -13 10l-30 98q-2 4 -5 4h-246q-3 0 -5 -4l-29 -98q-3 -10 -13 -10h-127q-6 0 -9 3.5t-1 10.5l216 676q3 10 13 10h157q10 0 13 -10l216 -676q1 -2 1 -5q0 -9 -11 -9h-127zM243 227q-1 -6 4 -6h176q6 0 4 6l-90 297q-1 4 -3 3.5t-3 -3.5zM385 776q2 -4 2 -6
q0 -8 -10 -8h-84q-9 0 -14 8l-71 101q-2 3 -2 7q0 8 10 8h101q10 0 15 -9z" />
    <glyph glyph-name="Aacute" unicode="&#xc1;" horiz-adv-x="671" 
d="M506 0q-10 0 -13 10l-30 98q-2 4 -5 4h-246q-3 0 -5 -4l-29 -98q-3 -10 -13 -10h-127q-6 0 -9 3.5t-1 10.5l216 676q3 10 13 10h157q10 0 13 -10l216 -676q1 -2 1 -5q0 -9 -11 -9h-127zM243 227q-1 -6 4 -6h176q6 0 4 6l-90 297q-1 4 -3 3.5t-3 -3.5zM278 762q-7 0 -9 4
t1 10l53 101q4 9 15 9h101q7 0 9.5 -4.5t-1.5 -10.5l-71 -101q-5 -8 -14 -8h-84z" />
    <glyph glyph-name="Acircumflex" unicode="&#xc2;" horiz-adv-x="671" 
d="M506 0q-10 0 -13 10l-30 98q-2 4 -5 4h-246q-3 0 -5 -4l-29 -98q-3 -10 -13 -10h-127q-6 0 -9 3.5t-1 10.5l216 676q3 10 13 10h157q10 0 13 -10l216 -676q1 -2 1 -5q0 -9 -11 -9h-127zM243 227q-1 -6 4 -6h176q6 0 4 6l-90 297q-1 4 -3 3.5t-3 -3.5zM187 758
q-7 0 -9.5 4.5t1.5 10.5l73 105q5 8 14 8h133q9 0 14 -8l76 -105q3 -4 3 -7q0 -8 -11 -8h-90q-9 0 -14 8l-40 61q-3 6 -6 0l-40 -61q-5 -8 -14 -8h-90z" />
    <glyph glyph-name="Atilde" unicode="&#xc3;" horiz-adv-x="671" 
d="M506 0q-10 0 -13 10l-30 98q-2 4 -5 4h-246q-3 0 -5 -4l-29 -98q-3 -10 -13 -10h-127q-6 0 -9 3.5t-1 10.5l216 676q3 10 13 10h157q10 0 13 -10l216 -676q1 -2 1 -5q0 -9 -11 -9h-127zM243 227q-1 -6 4 -6h176q6 0 4 6l-90 297q-1 4 -3 3.5t-3 -3.5zM398 759
q-21 0 -35 4.5t-32 13.5q-21 10 -30.5 13.5t-20.5 3.5q-31 0 -53 -22q-5 -5 -9 -5q-5 0 -8 4l-41 44q-7 9 -2 17q16 28 44 45t62 17q19 0 33.5 -5t26 -10.5t15.5 -7.5q19 -10 29 -14t21 -4q31 0 48 24q4 5 9 5t8 -4l37 -45q6 -7 3 -14q-13 -27 -40.5 -43.5t-64.5 -16.5z" />
    <glyph glyph-name="Adieresis" unicode="&#xc4;" horiz-adv-x="671" 
d="M506 0q-10 0 -13 10l-30 98q-2 4 -5 4h-246q-3 0 -5 -4l-29 -98q-3 -10 -13 -10h-127q-6 0 -9 3.5t-1 10.5l216 676q3 10 13 10h157q10 0 13 -10l216 -676q1 -2 1 -5q0 -9 -11 -9h-127zM243 227q-1 -6 4 -6h176q6 0 4 6l-90 297q-1 4 -3 3.5t-3 -3.5zM433 764
q-34 0 -56.5 22.5t-22.5 56.5q0 35 22 57t57 22t57 -22t22 -57q0 -34 -22.5 -56.5t-56.5 -22.5zM234 764q-34 0 -56.5 22.5t-22.5 56.5q0 35 22 57t57 22t57 -22t22 -57q0 -34 -22.5 -56.5t-56.5 -22.5z" />
    <glyph glyph-name="Aring" unicode="&#xc5;" horiz-adv-x="671" 
d="M506 0q-10 0 -13 10l-30 98q-2 4 -5 4h-246q-3 0 -5 -4l-29 -98q-3 -10 -13 -10h-127q-6 0 -9 3.5t-1 10.5l216 676q3 10 13 10h157q10 0 13 -10l216 -676q1 -2 1 -5q0 -9 -11 -9h-127zM243 227q-1 -6 4 -6h176q6 0 4 6l-90 297q-1 4 -3 3.5t-3 -3.5zM334 749
q-53 0 -89 35.5t-36 88.5t36 88.5t89 35.5q52 0 88 -35.5t36 -88.5q0 -52 -36 -88t-88 -36zM334 823q20 0 35 14.5t15 35.5q0 22 -15 36.5t-35 14.5q-21 0 -36 -14.5t-15 -36.5q0 -21 15 -35.5t36 -14.5z" />
    <glyph glyph-name="AE" unicode="&#xc6;" horiz-adv-x="960" 
d="M922 591q0 -5 -3.5 -8.5t-8.5 -3.5h-318q-5 0 -5 -5v-155q0 -5 5 -5h206q5 0 8.5 -3.5t3.5 -8.5v-97q0 -5 -3.5 -8.5t-8.5 -3.5h-206q-5 0 -5 -5v-162q0 -5 5 -5h318q5 0 8.5 -3.5t3.5 -8.5v-97q0 -5 -3.5 -8.5t-8.5 -3.5h-452q-5 0 -8.5 3.5t-3.5 8.5v95q0 5 -5 5h-203
q-4 0 -6 -4l-49 -99q-4 -9 -14 -9h-129q-7 0 -9.5 3.5t0.5 10.5l343 677q5 9 14 9h522q5 0 8.5 -3.5t3.5 -8.5v-97zM291 227q-1 -3 0 -4.5t4 -1.5h146q5 0 5 5v301q0 4 -2 4t-4 -3z" />
    <glyph glyph-name="Ccedilla" unicode="&#xc7;" horiz-adv-x="608" 
d="M566 472q0 -4 -12 -6l-117 -7h-2q-10 0 -10 11q0 53 -32.5 85t-85.5 32q-54 0 -86.5 -32t-32.5 -85v-241q0 -52 32.5 -84t86.5 -32q53 0 85.5 32t32.5 84q0 11 12 11l117 -5q5 0 8.5 -3t3.5 -7q0 -96 -61 -158.5t-162 -72.5q-6 -2 -2 -7q41 -40 41 -85q0 -12 -3 -24
q-9 -34 -35 -49t-60 -15q-32 0 -61 11q-11 3 -9 14l7 50q1 13 15 8q11 -3 19 -3q15 0 24.5 7.5t9.5 23.5q0 33 -54 73q-2 2 -3.5 2.5t-2.5 0.5q-85 20 -133.5 82.5t-48.5 151.5v231q0 72 32 127t91 85t137 30q77 0 135.5 -28.5t91 -81t32.5 -121.5v-5z" />
    <glyph glyph-name="Egrave" unicode="&#xc8;" horiz-adv-x="584" 
d="M547 591q0 -5 -3.5 -8.5t-8.5 -3.5h-328q-5 0 -5 -5v-155q0 -5 5 -5h215q5 0 8.5 -3.5t3.5 -8.5v-97q0 -5 -3.5 -8.5t-8.5 -3.5h-215q-5 0 -5 -5v-162q0 -5 5 -5h328q5 0 8.5 -3.5t3.5 -8.5v-97q0 -5 -3.5 -8.5t-8.5 -3.5h-462q-5 0 -8.5 3.5t-3.5 8.5v676q0 5 3.5 8.5
t8.5 3.5h462q5 0 8.5 -3.5t3.5 -8.5v-97zM352 776q2 -4 2 -6q0 -8 -10 -8h-84q-9 0 -14 8l-71 101q-2 3 -2 7q0 8 10 8h101q10 0 15 -9z" />
    <glyph glyph-name="Eacute" unicode="&#xc9;" horiz-adv-x="584" 
d="M547 591q0 -5 -3.5 -8.5t-8.5 -3.5h-328q-5 0 -5 -5v-155q0 -5 5 -5h215q5 0 8.5 -3.5t3.5 -8.5v-97q0 -5 -3.5 -8.5t-8.5 -3.5h-215q-5 0 -5 -5v-162q0 -5 5 -5h328q5 0 8.5 -3.5t3.5 -8.5v-97q0 -5 -3.5 -8.5t-8.5 -3.5h-462q-5 0 -8.5 3.5t-3.5 8.5v676q0 5 3.5 8.5
t8.5 3.5h462q5 0 8.5 -3.5t3.5 -8.5v-97zM246 762q-7 0 -9 4t1 10l53 101q4 9 15 9h101q7 0 9.5 -4.5t-1.5 -10.5l-71 -101q-5 -8 -14 -8h-84z" />
    <glyph glyph-name="Ecircumflex" unicode="&#xca;" horiz-adv-x="584" 
d="M547 591q0 -5 -3.5 -8.5t-8.5 -3.5h-328q-5 0 -5 -5v-155q0 -5 5 -5h215q5 0 8.5 -3.5t3.5 -8.5v-97q0 -5 -3.5 -8.5t-8.5 -3.5h-215q-5 0 -5 -5v-162q0 -5 5 -5h328q5 0 8.5 -3.5t3.5 -8.5v-97q0 -5 -3.5 -8.5t-8.5 -3.5h-462q-5 0 -8.5 3.5t-3.5 8.5v676q0 5 3.5 8.5
t8.5 3.5h462q5 0 8.5 -3.5t3.5 -8.5v-97zM154 758q-7 0 -9.5 4.5t1.5 10.5l73 105q5 8 14 8h133q9 0 14 -8l76 -105q3 -4 3 -7q0 -8 -11 -8h-90q-9 0 -14 8l-40 61q-3 6 -6 0l-40 -61q-5 -8 -14 -8h-90z" />
    <glyph glyph-name="Edieresis" unicode="&#xcb;" horiz-adv-x="584" 
d="M547 591q0 -5 -3.5 -8.5t-8.5 -3.5h-328q-5 0 -5 -5v-155q0 -5 5 -5h215q5 0 8.5 -3.5t3.5 -8.5v-97q0 -5 -3.5 -8.5t-8.5 -3.5h-215q-5 0 -5 -5v-162q0 -5 5 -5h328q5 0 8.5 -3.5t3.5 -8.5v-97q0 -5 -3.5 -8.5t-8.5 -3.5h-462q-5 0 -8.5 3.5t-3.5 8.5v676q0 5 3.5 8.5
t8.5 3.5h462q5 0 8.5 -3.5t3.5 -8.5v-97zM401 764q-34 0 -56.5 22.5t-22.5 56.5q0 35 22 57t57 22t57 -22t22 -57q0 -34 -22.5 -56.5t-56.5 -22.5zM202 764q-34 0 -56.5 22.5t-22.5 56.5q0 35 22 57t57 22t57 -22t22 -57q0 -34 -22.5 -56.5t-56.5 -22.5z" />
    <glyph glyph-name="Igrave" unicode="&#xcc;" horiz-adv-x="263" 
d="M73 0q-5 0 -8.5 3.5t-3.5 8.5v676q0 5 3.5 8.5t8.5 3.5h117q5 0 8.5 -3.5t3.5 -8.5v-676q0 -5 -3.5 -8.5t-8.5 -3.5h-117zM183 776q2 -4 2 -6q0 -8 -10 -8h-84q-9 0 -14 8l-71 101q-2 3 -2 7q0 8 10 8h101q10 0 15 -9z" />
    <glyph glyph-name="Iacute" unicode="&#xcd;" horiz-adv-x="263" 
d="M73 0q-5 0 -8.5 3.5t-3.5 8.5v676q0 5 3.5 8.5t8.5 3.5h117q5 0 8.5 -3.5t3.5 -8.5v-676q0 -5 -3.5 -8.5t-8.5 -3.5h-117zM76 762q-7 0 -9 4t1 10l53 101q4 9 15 9h101q7 0 9.5 -4.5t-1.5 -10.5l-71 -101q-5 -8 -14 -8h-84z" />
    <glyph glyph-name="Icircumflex" unicode="&#xce;" horiz-adv-x="263" 
d="M73 0q-5 0 -8.5 3.5t-3.5 8.5v676q0 5 3.5 8.5t8.5 3.5h117q5 0 8.5 -3.5t3.5 -8.5v-676q0 -5 -3.5 -8.5t-8.5 -3.5h-117zM-16 758q-7 0 -9.5 4.5t1.5 10.5l73 105q5 8 14 8h133q9 0 14 -8l76 -105q3 -4 3 -7q0 -8 -11 -8h-90q-9 0 -14 8l-40 61q-3 6 -6 0l-40 -61
q-5 -8 -14 -8h-90z" />
    <glyph glyph-name="Idieresis" unicode="&#xcf;" horiz-adv-x="263" 
d="M73 0q-5 0 -8.5 3.5t-3.5 8.5v676q0 5 3.5 8.5t8.5 3.5h117q5 0 8.5 -3.5t3.5 -8.5v-676q0 -5 -3.5 -8.5t-8.5 -3.5h-117zM231 764q-34 0 -56.5 22.5t-22.5 56.5q0 35 22 57t57 22t57 -22t22 -57q0 -34 -22.5 -56.5t-56.5 -22.5zM32 764q-34 0 -56.5 22.5t-22.5 56.5
q0 35 22 57t57 22t57 -22t22 -57q0 -34 -22.5 -56.5t-56.5 -22.5z" />
    <glyph glyph-name="Eth" unicode="&#xd0;" horiz-adv-x="669" 
d="M374 700q75 0 132 -26.5t88 -74.5t31 -111v-276q0 -63 -31 -111t-88 -74.5t-132 -26.5h-250q-5 0 -8.5 3.5t-3.5 8.5v296q0 5 -5 5h-34q-5 0 -8.5 3.5t-3.5 8.5v72q0 5 3.5 8.5t8.5 3.5h34q5 0 5 5v274q0 5 3.5 8.5t8.5 3.5h250zM484 465q0 52 -28.5 83t-76.5 31h-121
q-5 0 -5 -5v-160q0 -5 5 -5h80q5 0 8.5 -3.5t3.5 -8.5v-72q0 -5 -3.5 -8.5t-8.5 -3.5h-80q-5 0 -5 -5v-182q0 -5 5 -5h122q46 0 74 31t30 83v230z" />
    <glyph glyph-name="Ntilde" unicode="&#xd1;" horiz-adv-x="665" 
d="M463 688q0 5 3.5 8.5t8.5 3.5h117q5 0 8.5 -3.5t3.5 -8.5v-676q0 -5 -3.5 -8.5t-8.5 -3.5h-113q-10 0 -14 8l-259 428q-2 3 -4 2.5t-2 -4.5l2 -422q0 -5 -3.5 -8.5t-8.5 -3.5h-117q-5 0 -8.5 3.5t-3.5 8.5v676q0 5 3.5 8.5t8.5 3.5h113q10 0 14 -8l258 -426q2 -3 4 -2.5
t2 4.5zM389 759q-21 0 -35 4.5t-32 13.5q-21 10 -30.5 13.5t-20.5 3.5q-31 0 -53 -22q-5 -5 -9 -5q-5 0 -8 4l-41 44q-7 9 -2 17q16 28 44 45t62 17q19 0 33.5 -5t26 -10.5t15.5 -7.5q19 -10 29 -14t21 -4q31 0 48 24q4 5 9 5t8 -4l37 -45q6 -7 3 -14q-13 -27 -40.5 -43.5
t-64.5 -16.5z" />
    <glyph glyph-name="Ograve" unicode="&#xd2;" horiz-adv-x="621" 
d="M310 -11q-78 0 -137.5 32t-92.5 89.5t-33 132.5v214q0 74 33 131t92.5 88.5t137.5 31.5q79 0 138.5 -31.5t92.5 -88.5t33 -131v-214q0 -75 -33 -133t-92.5 -89.5t-138.5 -31.5zM310 110q55 0 89 35t34 93v220q0 58 -33.5 93.5t-89.5 35.5q-55 0 -88.5 -35.5t-33.5 -93.5
v-220q0 -58 33.5 -93t88.5 -35zM361 776q2 -4 2 -6q0 -8 -10 -8h-84q-9 0 -14 8l-71 101q-2 3 -2 7q0 8 10 8h101q10 0 15 -9z" />
    <glyph glyph-name="Oacute" unicode="&#xd3;" horiz-adv-x="621" 
d="M310 -11q-78 0 -137.5 32t-92.5 89.5t-33 132.5v214q0 74 33 131t92.5 88.5t137.5 31.5q79 0 138.5 -31.5t92.5 -88.5t33 -131v-214q0 -75 -33 -133t-92.5 -89.5t-138.5 -31.5zM310 110q55 0 89 35t34 93v220q0 58 -33.5 93.5t-89.5 35.5q-55 0 -88.5 -35.5t-33.5 -93.5
v-220q0 -58 33.5 -93t88.5 -35zM255 762q-7 0 -9 4t1 10l53 101q4 9 15 9h101q7 0 9.5 -4.5t-1.5 -10.5l-71 -101q-5 -8 -14 -8h-84z" />
    <glyph glyph-name="Ocircumflex" unicode="&#xd4;" horiz-adv-x="621" 
d="M310 -11q-78 0 -137.5 32t-92.5 89.5t-33 132.5v214q0 74 33 131t92.5 88.5t137.5 31.5q79 0 138.5 -31.5t92.5 -88.5t33 -131v-214q0 -75 -33 -133t-92.5 -89.5t-138.5 -31.5zM310 110q55 0 89 35t34 93v220q0 58 -33.5 93.5t-89.5 35.5q-55 0 -88.5 -35.5t-33.5 -93.5
v-220q0 -58 33.5 -93t88.5 -35zM163 758q-7 0 -9.5 4.5t1.5 10.5l73 105q5 8 14 8h133q9 0 14 -8l76 -105q3 -4 3 -7q0 -8 -11 -8h-90q-9 0 -14 8l-40 61q-3 6 -6 0l-40 -61q-5 -8 -14 -8h-90z" />
    <glyph glyph-name="Otilde" unicode="&#xd5;" horiz-adv-x="621" 
d="M310 -11q-78 0 -137.5 32t-92.5 89.5t-33 132.5v214q0 74 33 131t92.5 88.5t137.5 31.5q79 0 138.5 -31.5t92.5 -88.5t33 -131v-214q0 -75 -33 -133t-92.5 -89.5t-138.5 -31.5zM310 110q55 0 89 35t34 93v220q0 58 -33.5 93.5t-89.5 35.5q-55 0 -88.5 -35.5t-33.5 -93.5
v-220q0 -58 33.5 -93t88.5 -35zM374 759q-21 0 -35 4.5t-32 13.5q-21 10 -30.5 13.5t-20.5 3.5q-31 0 -53 -22q-5 -5 -9 -5q-5 0 -8 4l-41 44q-7 9 -2 17q16 28 44 45t62 17q19 0 33.5 -5t26 -10.5t15.5 -7.5q19 -10 29 -14t21 -4q31 0 48 24q4 5 9 5t8 -4l37 -45
q6 -7 3 -14q-13 -27 -40.5 -43.5t-64.5 -16.5z" />
    <glyph glyph-name="Odieresis" unicode="&#xd6;" horiz-adv-x="621" 
d="M310 -11q-78 0 -137.5 32t-92.5 89.5t-33 132.5v214q0 74 33 131t92.5 88.5t137.5 31.5q79 0 138.5 -31.5t92.5 -88.5t33 -131v-214q0 -75 -33 -133t-92.5 -89.5t-138.5 -31.5zM310 110q55 0 89 35t34 93v220q0 58 -33.5 93.5t-89.5 35.5q-55 0 -88.5 -35.5t-33.5 -93.5
v-220q0 -58 33.5 -93t88.5 -35zM409 764q-34 0 -56.5 22.5t-22.5 56.5q0 35 22 57t57 22t57 -22t22 -57q0 -34 -22.5 -56.5t-56.5 -22.5zM210 764q-34 0 -56.5 22.5t-22.5 56.5q0 35 22 57t57 22t57 -22t22 -57q0 -34 -22.5 -56.5t-56.5 -22.5z" />
    <glyph glyph-name="multiply" unicode="&#xd7;" horiz-adv-x="446" 
d="M409 431q4 -3 4 -8q0 -4 -4 -8l-97 -97q-2 -2 -2 -4t2 -4l96 -96q4 -3 4 -8q0 -4 -4 -8l-69 -69q-4 -4 -8 -4q-2 0 -8 4l-96 96q-2 2 -4 2t-4 -2l-96 -96q-3 -4 -8 -4t-9 4l-68 68q-4 6 -4 8q0 4 4 8l97 97q2 2 2 4t-2 4l-98 98q-4 6 -4 8q0 4 4 8l68 68q4 4 9 4t8 -4
l97 -97q4 -4 8 0l97 97q4 4 8 4q5 0 8 -4z" />
    <glyph glyph-name="Oslash" unicode="&#xd8;" horiz-adv-x="614" 
d="M588 676q5 -3 5 -8q0 -4 -3 -9l-50 -75q-1 -3 0 -7q27 -51 27 -120v-214q0 -75 -33 -133t-92.5 -89.5t-138.5 -31.5q-80 0 -139 33q-4 1 -7 -2l-37 -56q-3 -6 -9 -6q-5 0 -8 3l-83 63q-5 3 -5 9q0 4 3 8l49 73q1 3 0 7q-27 53 -27 122v214q0 74 33 131t92.5 88.5
t137.5 31.5q80 0 139 -32q4 -1 7 2l38 58q3 6 9 6q5 0 8 -3zM426 458q0 58 -33.5 93.5t-89.5 35.5q-55 0 -88.5 -35.5t-33.5 -93.5v-220q0 -58 33.5 -93t88.5 -35t89 35t34 93v220z" />
    <glyph glyph-name="Ugrave" unicode="&#xd9;" horiz-adv-x="629" 
d="M315 -8q-77 0 -135.5 30t-91 84.5t-32.5 125.5v456q0 5 3.5 8.5t8.5 3.5h117q5 0 8.5 -3.5t3.5 -8.5v-457q0 -53 32.5 -85.5t85.5 -32.5t85.5 32.5t32.5 85.5v457q0 5 3.5 8.5t8.5 3.5h117q5 0 8.5 -3.5t3.5 -8.5v-456q0 -71 -32.5 -125.5t-91 -84.5t-135.5 -30zM366 776
q2 -4 2 -6q0 -8 -10 -8h-84q-9 0 -14 8l-71 101q-2 3 -2 7q0 8 10 8h101q10 0 15 -9z" />
    <glyph glyph-name="Uacute" unicode="&#xda;" horiz-adv-x="629" 
d="M315 -8q-77 0 -135.5 30t-91 84.5t-32.5 125.5v456q0 5 3.5 8.5t8.5 3.5h117q5 0 8.5 -3.5t3.5 -8.5v-457q0 -53 32.5 -85.5t85.5 -32.5t85.5 32.5t32.5 85.5v457q0 5 3.5 8.5t8.5 3.5h117q5 0 8.5 -3.5t3.5 -8.5v-456q0 -71 -32.5 -125.5t-91 -84.5t-135.5 -30zM259 762
q-7 0 -9 4t1 10l53 101q4 9 15 9h101q7 0 9.5 -4.5t-1.5 -10.5l-71 -101q-5 -8 -14 -8h-84z" />
    <glyph glyph-name="Ucircumflex" unicode="&#xdb;" horiz-adv-x="629" 
d="M315 -8q-77 0 -135.5 30t-91 84.5t-32.5 125.5v456q0 5 3.5 8.5t8.5 3.5h117q5 0 8.5 -3.5t3.5 -8.5v-457q0 -53 32.5 -85.5t85.5 -32.5t85.5 32.5t32.5 85.5v457q0 5 3.5 8.5t8.5 3.5h117q5 0 8.5 -3.5t3.5 -8.5v-456q0 -71 -32.5 -125.5t-91 -84.5t-135.5 -30zM168 758
q-7 0 -9.5 4.5t1.5 10.5l73 105q5 8 14 8h133q9 0 14 -8l76 -105q3 -4 3 -7q0 -8 -11 -8h-90q-9 0 -14 8l-40 61q-3 6 -6 0l-40 -61q-5 -8 -14 -8h-90z" />
    <glyph glyph-name="Udieresis" unicode="&#xdc;" horiz-adv-x="629" 
d="M315 -8q-77 0 -135.5 30t-91 84.5t-32.5 125.5v456q0 5 3.5 8.5t8.5 3.5h117q5 0 8.5 -3.5t3.5 -8.5v-457q0 -53 32.5 -85.5t85.5 -32.5t85.5 32.5t32.5 85.5v457q0 5 3.5 8.5t8.5 3.5h117q5 0 8.5 -3.5t3.5 -8.5v-456q0 -71 -32.5 -125.5t-91 -84.5t-135.5 -30zM414 764
q-34 0 -56.5 22.5t-22.5 56.5q0 35 22 57t57 22t57 -22t22 -57q0 -34 -22.5 -56.5t-56.5 -22.5zM215 764q-34 0 -56.5 22.5t-22.5 56.5q0 35 22 57t57 22t57 -22t22 -57q0 -34 -22.5 -56.5t-56.5 -22.5z" />
    <glyph glyph-name="Yacute" unicode="&#xdd;" horiz-adv-x="617" 
d="M250 1q-5 0 -8.5 3.5t-3.5 8.5v253q0 4 -1 6l-206 414q-2 4 -2 6q0 8 11 8h126q10 0 14 -9l125 -266q3 -6 6 0l125 266q4 9 14 9h128q7 0 9.5 -3.5t-0.5 -10.5l-208 -414q-1 -2 -1 -6v-253q0 -5 -3.5 -8.5t-8.5 -3.5h-116zM253 761q-7 0 -9 4t1 10l53 101q4 9 15 9h101
q7 0 9.5 -4.5t-1.5 -10.5l-71 -101q-5 -8 -14 -8h-84z" />
    <glyph glyph-name="Thorn" unicode="&#xde;" horiz-adv-x="581" 
d="M335 561q65 0 115.5 -27t78 -75.5t27.5 -110.5t-30 -109.5t-82 -73.5t-116 -26h-126q-5 0 -5 -5v-122q0 -5 -3.5 -8.5t-8.5 -3.5h-117q-5 0 -8.5 3.5t-3.5 8.5v676q0 5 3.5 8.5t8.5 3.5h117q5 0 8.5 -3.5t3.5 -8.5v-122q0 -5 5 -5h133zM313 253q46 0 74 24.5t28 67.5
q0 45 -28 70t-74 25h-111q-5 0 -5 -5v-177q0 -5 5 -5h111z" />
    <glyph glyph-name="germandbls" unicode="&#xdf;" horiz-adv-x="574" 
d="M66 1q-5 0 -8.5 3.5t-3.5 8.5v471q0 106 60.5 165t171.5 59q70 0 124 -23.5t84 -67.5t30 -103q2 -90 -72 -131q-5 -3 0 -6q38 -22 61 -67t23 -104q0 -98 -66 -152t-188 -54h-33q-5 0 -8.5 3.5t-3.5 8.5v96q0 5 3.5 8.5t8.5 3.5h47q43 0 71 27t28 74q0 46 -26.5 73
t-66.5 27h-44q-5 0 -8.5 3.5t-3.5 8.5v87q0 5 3.5 8.5t8.5 3.5h42q36 0 59.5 21.5t23.5 54.5q0 34 -22 57t-65 23t-72 -24t-29 -67v-485q0 -5 -3.5 -8.5t-8.5 -3.5z" />
    <glyph glyph-name="agrave" unicode="&#xe0;" horiz-adv-x="528" 
d="M257 522q65 0 116 -22.5t79.5 -61.5t28.5 -87v-339q0 -5 -3.5 -8.5t-8.5 -3.5h-117q-5 0 -8.5 3.5t-3.5 8.5v33q0 3 -2 4t-4 -2q-42 -55 -135 -55q-78 0 -126 38t-48 112q0 77 54 119.5t154 42.5h102q5 0 5 5v22q0 33 -20 51.5t-60 18.5q-31 0 -51.5 -11t-26.5 -31
q-3 -11 -13 -10l-121 16q-12 2 -11 9q4 42 33.5 76t78 53t108.5 19zM237 97q43 0 73 23t30 59v36q0 5 -5 5h-72q-45 0 -70.5 -17t-25.5 -48q0 -27 19 -42.5t51 -15.5zM315 590q2 -4 2 -6q0 -8 -10 -8h-84q-9 0 -14 8l-71 101q-2 3 -2 7q0 8 10 8h101q10 0 15 -9z" />
    <glyph glyph-name="aacute" unicode="&#xe1;" horiz-adv-x="528" 
d="M257 522q65 0 116 -22.5t79.5 -61.5t28.5 -87v-339q0 -5 -3.5 -8.5t-8.5 -3.5h-117q-5 0 -8.5 3.5t-3.5 8.5v33q0 3 -2 4t-4 -2q-42 -55 -135 -55q-78 0 -126 38t-48 112q0 77 54 119.5t154 42.5h102q5 0 5 5v22q0 33 -20 51.5t-60 18.5q-31 0 -51.5 -11t-26.5 -31
q-3 -11 -13 -10l-121 16q-12 2 -11 9q4 42 33.5 76t78 53t108.5 19zM237 97q43 0 73 23t30 59v36q0 5 -5 5h-72q-45 0 -70.5 -17t-25.5 -48q0 -27 19 -42.5t51 -15.5zM209 576q-7 0 -9 4t1 10l53 101q4 9 15 9h101q7 0 9.5 -4.5t-1.5 -10.5l-71 -101q-5 -8 -14 -8h-84z" />
    <glyph glyph-name="acircumflex" unicode="&#xe2;" horiz-adv-x="528" 
d="M257 522q65 0 116 -22.5t79.5 -61.5t28.5 -87v-339q0 -5 -3.5 -8.5t-8.5 -3.5h-117q-5 0 -8.5 3.5t-3.5 8.5v33q0 3 -2 4t-4 -2q-42 -55 -135 -55q-78 0 -126 38t-48 112q0 77 54 119.5t154 42.5h102q5 0 5 5v22q0 33 -20 51.5t-60 18.5q-31 0 -51.5 -11t-26.5 -31
q-3 -11 -13 -10l-121 16q-12 2 -11 9q4 42 33.5 76t78 53t108.5 19zM237 97q43 0 73 23t30 59v36q0 5 -5 5h-72q-45 0 -70.5 -17t-25.5 -48q0 -27 19 -42.5t51 -15.5zM117 572q-7 0 -9.5 4.5t1.5 10.5l73 105q5 8 14 8h133q9 0 14 -8l76 -105q3 -4 3 -7q0 -8 -11 -8h-90
q-9 0 -14 8l-40 61q-3 6 -6 0l-40 -61q-5 -8 -14 -8h-90z" />
    <glyph glyph-name="atilde" unicode="&#xe3;" horiz-adv-x="528" 
d="M257 522q65 0 116 -22.5t79.5 -61.5t28.5 -87v-339q0 -5 -3.5 -8.5t-8.5 -3.5h-117q-5 0 -8.5 3.5t-3.5 8.5v33q0 3 -2 4t-4 -2q-42 -55 -135 -55q-78 0 -126 38t-48 112q0 77 54 119.5t154 42.5h102q5 0 5 5v22q0 33 -20 51.5t-60 18.5q-31 0 -51.5 -11t-26.5 -31
q-3 -11 -13 -10l-121 16q-12 2 -11 9q4 42 33.5 76t78 53t108.5 19zM237 97q43 0 73 23t30 59v36q0 5 -5 5h-72q-45 0 -70.5 -17t-25.5 -48q0 -27 19 -42.5t51 -15.5zM328 573q-21 0 -35 4.5t-32 13.5q-21 10 -30.5 13.5t-20.5 3.5q-31 0 -53 -22q-5 -5 -9 -5q-5 0 -8 4
l-41 44q-7 9 -2 17q16 28 44 45t62 17q19 0 33.5 -5t26 -10.5t15.5 -7.5q19 -10 29 -14t21 -4q31 0 48 24q4 5 9 5t8 -4l37 -45q6 -7 3 -14q-13 -27 -40.5 -43.5t-64.5 -16.5z" />
    <glyph glyph-name="adieresis" unicode="&#xe4;" horiz-adv-x="528" 
d="M257 522q65 0 116 -22.5t79.5 -61.5t28.5 -87v-339q0 -5 -3.5 -8.5t-8.5 -3.5h-117q-5 0 -8.5 3.5t-3.5 8.5v33q0 3 -2 4t-4 -2q-42 -55 -135 -55q-78 0 -126 38t-48 112q0 77 54 119.5t154 42.5h102q5 0 5 5v22q0 33 -20 51.5t-60 18.5q-31 0 -51.5 -11t-26.5 -31
q-3 -11 -13 -10l-121 16q-12 2 -11 9q4 42 33.5 76t78 53t108.5 19zM237 97q43 0 73 23t30 59v36q0 5 -5 5h-72q-45 0 -70.5 -17t-25.5 -48q0 -27 19 -42.5t51 -15.5zM363 578q-34 0 -56.5 22.5t-22.5 56.5q0 35 22 57t57 22t57 -22t22 -57q0 -34 -22.5 -56.5t-56.5 -22.5z
M164 578q-34 0 -56.5 22.5t-22.5 56.5q0 35 22 57t57 22t57 -22t22 -57q0 -34 -22.5 -56.5t-56.5 -22.5z" />
    <glyph glyph-name="aring" unicode="&#xe5;" horiz-adv-x="528" 
d="M257 522q65 0 116 -22.5t79.5 -61.5t28.5 -87v-339q0 -5 -3.5 -8.5t-8.5 -3.5h-117q-5 0 -8.5 3.5t-3.5 8.5v33q0 3 -2 4t-4 -2q-42 -55 -135 -55q-78 0 -126 38t-48 112q0 77 54 119.5t154 42.5h102q5 0 5 5v22q0 33 -20 51.5t-60 18.5q-31 0 -51.5 -11t-26.5 -31
q-3 -11 -13 -10l-121 16q-12 2 -11 9q4 42 33.5 76t78 53t108.5 19zM237 97q43 0 73 23t30 59v36q0 5 -5 5h-72q-45 0 -70.5 -17t-25.5 -48q0 -27 19 -42.5t51 -15.5zM265 563q-53 0 -89 35.5t-36 88.5t36 88.5t89 35.5q52 0 88 -35.5t36 -88.5q0 -52 -36 -88t-88 -36z
M265 637q20 0 35 14.5t15 35.5q0 22 -15 36.5t-35 14.5q-21 0 -36 -14.5t-15 -36.5q0 -21 15 -35.5t36 -14.5z" />
    <glyph glyph-name="ae" unicode="&#xe6;" horiz-adv-x="839" 
d="M218 -8q-87 0 -140 38t-53 112q0 73 54 116.5t154 43.5h102q5 0 5 5v20q0 34 -21 54t-62 20q-30 0 -51 -11.5t-27 -30.5q-3 -12 -14 -10l-117 15q-5 1 -8.5 4.5t-2.5 9.5q4 41 34 74t76.5 51.5t100.5 18.5q56 0 101 -22.5t67 -55.5q3 -4 6 0q20 31 62.5 54.5t92.5 23.5
q70 0 130 -40.5t82 -107.5q14 -41 15 -149q0 -13 -12 -13h-302q-5 0 -5 -5t3 -23q6 -34 36.5 -51.5t74.5 -17.5q70 0 105 44q5 6 8 6q2 0 8 -4l61 -56q8 -8 2 -17q-32 -43 -83 -69.5t-114 -26.5q-58 0 -104 22.5t-67 57.5q-3 7 -5 2q-23 -36 -74.5 -59t-117.5 -23zM483 307
q0 -5 5 -5h168q5 0 5 5q-2 22 -5 31q-8 29 -30.5 46t-53.5 17t-53 -17.5t-30 -45.5q-2 -6 -6 -31zM241 94q40 0 69.5 22.5t29.5 60.5v30q0 5 -5 5h-73q-45 0 -70.5 -15t-25.5 -44q0 -26 20 -42.5t55 -16.5z" />
    <glyph glyph-name="ccedilla" unicode="&#xe7;" horiz-adv-x="537" 
d="M364 175q1 2 1 6q1 1 1 3q1 12 14 10l115 -18q10 -2 10 -11q0 -8 -6 -30q-18 -55 -63 -91.5t-107 -47.5q-3 0 -3 -2t2 -4q43 -42 43 -88q0 -12 -3 -24q-9 -34 -34.5 -49t-59.5 -15q-33 0 -62 11q-11 3 -9 15l7 49q1 12 15 9q10 -3 20 -3q26 0 32 22q1 3 1 9
q0 16 -13 33.5t-37 35.5l-6 3q-60 12 -103 49.5t-63 94.5q-17 50 -17 118q0 67 17 116q24 68 83 107t139 39t140.5 -40t80.5 -101q8 -24 8 -36v-2q0 -9 -10 -11l-115 -17h-2q-9 0 -12 10l-3 16q-7 26 -31 43t-57 17q-32 0 -54 -16t-31 -44q-11 -30 -11 -82t10 -82
q9 -30 31.5 -47t54.5 -17q31 0 54.5 16.5t32.5 45.5z" />
    <glyph glyph-name="egrave" unicode="&#xe8;" horiz-adv-x="544" 
d="M507 310q6 -38 4 -85q-1 -12 -13 -12h-309q-6 0 -4 -5q3 -20 11 -40q26 -56 106 -56q64 1 101 52q4 6 9 6q3 0 7 -4l72 -71q5 -5 5 -9q0 -2 -4 -8q-33 -41 -85 -63.5t-114 -22.5q-86 0 -145.5 39t-85.5 109q-21 50 -21 131q0 55 15 97q23 71 80.5 113t136.5 42
q100 0 160.5 -58t73.5 -155zM274 401q-63 0 -83 -59q-4 -13 -7 -32q0 -5 5 -5h173q6 0 4 5q-5 29 -5 28q-9 30 -31.5 46.5t-55.5 16.5zM322 590q2 -4 2 -6q0 -8 -10 -8h-84q-9 0 -14 8l-71 101q-2 3 -2 7q0 8 10 8h101q10 0 15 -9z" />
    <glyph glyph-name="eacute" unicode="&#xe9;" horiz-adv-x="544" 
d="M507 310q6 -38 4 -85q-1 -12 -13 -12h-309q-6 0 -4 -5q3 -20 11 -40q26 -56 106 -56q64 1 101 52q4 6 9 6q3 0 7 -4l72 -71q5 -5 5 -9q0 -2 -4 -8q-33 -41 -85 -63.5t-114 -22.5q-86 0 -145.5 39t-85.5 109q-21 50 -21 131q0 55 15 97q23 71 80.5 113t136.5 42
q100 0 160.5 -58t73.5 -155zM274 401q-63 0 -83 -59q-4 -13 -7 -32q0 -5 5 -5h173q6 0 4 5q-5 29 -5 28q-9 30 -31.5 46.5t-55.5 16.5zM216 576q-7 0 -9 4t1 10l53 101q4 9 15 9h101q7 0 9.5 -4.5t-1.5 -10.5l-71 -101q-5 -8 -14 -8h-84z" />
    <glyph glyph-name="ecircumflex" unicode="&#xea;" horiz-adv-x="544" 
d="M507 310q6 -38 4 -85q-1 -12 -13 -12h-309q-6 0 -4 -5q3 -20 11 -40q26 -56 106 -56q64 1 101 52q4 6 9 6q3 0 7 -4l72 -71q5 -5 5 -9q0 -2 -4 -8q-33 -41 -85 -63.5t-114 -22.5q-86 0 -145.5 39t-85.5 109q-21 50 -21 131q0 55 15 97q23 71 80.5 113t136.5 42
q100 0 160.5 -58t73.5 -155zM274 401q-63 0 -83 -59q-4 -13 -7 -32q0 -5 5 -5h173q6 0 4 5q-5 29 -5 28q-9 30 -31.5 46.5t-55.5 16.5zM124 572q-7 0 -9.5 4.5t1.5 10.5l73 105q5 8 14 8h133q9 0 14 -8l76 -105q3 -4 3 -7q0 -8 -11 -8h-90q-9 0 -14 8l-40 61q-3 6 -6 0
l-40 -61q-5 -8 -14 -8h-90z" />
    <glyph glyph-name="edieresis" unicode="&#xeb;" horiz-adv-x="544" 
d="M507 310q6 -38 4 -85q-1 -12 -13 -12h-309q-6 0 -4 -5q3 -20 11 -40q26 -56 106 -56q64 1 101 52q4 6 9 6q3 0 7 -4l72 -71q5 -5 5 -9q0 -2 -4 -8q-33 -41 -85 -63.5t-114 -22.5q-86 0 -145.5 39t-85.5 109q-21 50 -21 131q0 55 15 97q23 71 80.5 113t136.5 42
q100 0 160.5 -58t73.5 -155zM274 401q-63 0 -83 -59q-4 -13 -7 -32q0 -5 5 -5h173q6 0 4 5q-5 29 -5 28q-9 30 -31.5 46.5t-55.5 16.5zM371 578q-34 0 -56.5 22.5t-22.5 56.5q0 35 22 57t57 22t57 -22t22 -57q0 -34 -22.5 -56.5t-56.5 -22.5zM172 578q-34 0 -56.5 22.5
t-22.5 56.5q0 35 22 57t57 22t57 -22t22 -57q0 -34 -22.5 -56.5t-56.5 -22.5z" />
    <glyph glyph-name="igrave" unicode="&#xec;" horiz-adv-x="237" 
d="M60 0q-5 0 -8.5 3.5t-3.5 8.5v490q0 5 3.5 8.5t8.5 3.5h117q5 0 8.5 -3.5t3.5 -8.5v-490q0 -5 -3.5 -8.5t-8.5 -3.5h-117zM170 590q2 -4 2 -6q0 -8 -10 -8h-84q-9 0 -14 8l-71 101q-2 3 -2 7q0 8 10 8h101q10 0 15 -9z" />
    <glyph glyph-name="iacute" unicode="&#xed;" horiz-adv-x="237" 
d="M60 0q-5 0 -8.5 3.5t-3.5 8.5v490q0 5 3.5 8.5t8.5 3.5h117q5 0 8.5 -3.5t3.5 -8.5v-490q0 -5 -3.5 -8.5t-8.5 -3.5h-117zM63 576q-7 0 -9 4t1 10l53 101q4 9 15 9h101q7 0 9.5 -4.5t-1.5 -10.5l-71 -101q-5 -8 -14 -8h-84z" />
    <glyph glyph-name="icircumflex" unicode="&#xee;" horiz-adv-x="237" 
d="M60 0q-5 0 -8.5 3.5t-3.5 8.5v490q0 5 3.5 8.5t8.5 3.5h117q5 0 8.5 -3.5t3.5 -8.5v-490q0 -5 -3.5 -8.5t-8.5 -3.5h-117zM-29 572q-7 0 -9.5 4.5t1.5 10.5l73 105q5 8 14 8h133q9 0 14 -8l76 -105q3 -4 3 -7q0 -8 -11 -8h-90q-9 0 -14 8l-40 61q-3 6 -6 0l-40 -61
q-5 -8 -14 -8h-90z" />
    <glyph glyph-name="idieresis" unicode="&#xef;" horiz-adv-x="237" 
d="M60 0q-5 0 -8.5 3.5t-3.5 8.5v490q0 5 3.5 8.5t8.5 3.5h117q5 0 8.5 -3.5t3.5 -8.5v-490q0 -5 -3.5 -8.5t-8.5 -3.5h-117zM218 578q-34 0 -56.5 22.5t-22.5 56.5q0 35 22 57t57 22t57 -22t22 -57q0 -34 -22.5 -56.5t-56.5 -22.5zM19 578q-34 0 -56.5 22.5t-22.5 56.5
q0 35 22 57t57 22t57 -22t22 -57q0 -34 -22.5 -56.5t-56.5 -22.5z" />
    <glyph glyph-name="eth" unicode="&#xf0;" horiz-adv-x="550" 
d="M490 366q13 -58 13 -132q0 -65 -15 -107q-25 -61 -83 -98t-134 -37q-77 0 -134.5 36.5t-81.5 98.5q-16 43 -16 107q0 66 16 106q13 36 40.5 63t64.5 38q38 16 96 16q45 0 70 -11q3 -2 4 -1t0 4q-12 34 -42 80q-1 2 -2.5 3t-3.5 0l-100 -27l-4 -1q-8 0 -11 10l-13 51l-1 4
q0 8 9 11l68 18q5 2 2 7q-29 34 -75 80q-4 4 -4 8q0 7 10 7h123q9 0 15 -7l48 -60q3 -4 7 -2l85 23l4 1q8 0 11 -10l13 -51l1 -4q0 -8 -10 -11l-51 -13q-2 -1 -3 -3t1 -4q33 -48 53.5 -94.5t29.5 -98.5zM351 158q10 24 10 72q0 46 -10 70q-9 27 -30 42.5t-50 15.5
t-50.5 -15.5t-29.5 -42.5q-10 -26 -10 -70q0 -45 11 -72q8 -27 29 -43.5t50 -16.5t50 16t30 44z" />
    <glyph glyph-name="ntilde" unicode="&#xf1;" 
d="M320 522q80 0 129 -49t49 -133v-328q0 -5 -3.5 -8.5t-8.5 -3.5h-117q-5 0 -8.5 3.5t-3.5 8.5v299q0 40 -22.5 65t-59.5 25t-59.5 -25t-22.5 -65v-299q0 -5 -3.5 -8.5t-8.5 -3.5h-117q-5 0 -8.5 3.5t-3.5 8.5v490q0 5 3.5 8.5t8.5 3.5h117q5 0 8.5 -3.5t3.5 -8.5v-35
q0 -3 2 -4t3 1q41 58 122 58zM343 573q-21 0 -35 4.5t-32 13.5q-21 10 -30.5 13.5t-20.5 3.5q-31 0 -53 -22q-5 -5 -9 -5q-5 0 -8 4l-41 44q-7 9 -2 17q16 28 44 45t62 17q19 0 33.5 -5t26 -10.5t15.5 -7.5q19 -10 29 -14t21 -4q31 0 48 24q4 5 9 5t8 -4l37 -45q6 -7 3 -14
q-13 -27 -40.5 -43.5t-64.5 -16.5z" />
    <glyph glyph-name="ograve" unicode="&#xf2;" horiz-adv-x="549" 
d="M279 -8q-84 0 -144 44t-82 120q-14 47 -14 102q0 59 14 106q23 74 83 116t144 42q82 0 140 -41.5t82 -115.5q16 -50 16 -105q0 -54 -14 -101q-22 -78 -81.5 -122.5t-143.5 -44.5zM279 113q33 0 56 20t33 55q8 32 8 70q0 42 -8 71q-11 34 -34 53t-56 19q-34 0 -56.5 -19
t-32.5 -53q-8 -24 -8 -71q0 -45 7 -70q10 -35 33.5 -55t57.5 -20zM326 590q2 -4 2 -6q0 -8 -10 -8h-84q-9 0 -14 8l-71 101q-2 3 -2 7q0 8 10 8h101q10 0 15 -9z" />
    <glyph glyph-name="oacute" unicode="&#xf3;" horiz-adv-x="549" 
d="M279 -8q-84 0 -144 44t-82 120q-14 47 -14 102q0 59 14 106q23 74 83 116t144 42q82 0 140 -41.5t82 -115.5q16 -50 16 -105q0 -54 -14 -101q-22 -78 -81.5 -122.5t-143.5 -44.5zM279 113q33 0 56 20t33 55q8 32 8 70q0 42 -8 71q-11 34 -34 53t-56 19q-34 0 -56.5 -19
t-32.5 -53q-8 -24 -8 -71q0 -45 7 -70q10 -35 33.5 -55t57.5 -20zM219 576q-7 0 -9 4t1 10l53 101q4 9 15 9h101q7 0 9.5 -4.5t-1.5 -10.5l-71 -101q-5 -8 -14 -8h-84z" />
    <glyph glyph-name="ocircumflex" unicode="&#xf4;" horiz-adv-x="549" 
d="M279 -8q-84 0 -144 44t-82 120q-14 47 -14 102q0 59 14 106q23 74 83 116t144 42q82 0 140 -41.5t82 -115.5q16 -50 16 -105q0 -54 -14 -101q-22 -78 -81.5 -122.5t-143.5 -44.5zM279 113q33 0 56 20t33 55q8 32 8 70q0 42 -8 71q-11 34 -34 53t-56 19q-34 0 -56.5 -19
t-32.5 -53q-8 -24 -8 -71q0 -45 7 -70q10 -35 33.5 -55t57.5 -20zM127 572q-7 0 -9.5 4.5t1.5 10.5l73 105q5 8 14 8h133q9 0 14 -8l76 -105q3 -4 3 -7q0 -8 -11 -8h-90q-9 0 -14 8l-40 61q-3 6 -6 0l-40 -61q-5 -8 -14 -8h-90z" />
    <glyph glyph-name="otilde" unicode="&#xf5;" horiz-adv-x="549" 
d="M279 -8q-84 0 -144 44t-82 120q-14 47 -14 102q0 59 14 106q23 74 83 116t144 42q82 0 140 -41.5t82 -115.5q16 -50 16 -105q0 -54 -14 -101q-22 -78 -81.5 -122.5t-143.5 -44.5zM279 113q33 0 56 20t33 55q8 32 8 70q0 42 -8 71q-11 34 -34 53t-56 19q-34 0 -56.5 -19
t-32.5 -53q-8 -24 -8 -71q0 -45 7 -70q10 -35 33.5 -55t57.5 -20zM338 573q-21 0 -35 4.5t-32 13.5q-21 10 -30.5 13.5t-20.5 3.5q-31 0 -53 -22q-5 -5 -9 -5q-5 0 -8 4l-41 44q-7 9 -2 17q16 28 44 45t62 17q19 0 33.5 -5t26 -10.5t15.5 -7.5q19 -10 29 -14t21 -4
q31 0 48 24q4 5 9 5t8 -4l37 -45q6 -7 3 -14q-13 -27 -40.5 -43.5t-64.5 -16.5z" />
    <glyph glyph-name="odieresis" unicode="&#xf6;" horiz-adv-x="549" 
d="M279 -8q-84 0 -144 44t-82 120q-14 47 -14 102q0 59 14 106q23 74 83 116t144 42q82 0 140 -41.5t82 -115.5q16 -50 16 -105q0 -54 -14 -101q-22 -78 -81.5 -122.5t-143.5 -44.5zM279 113q33 0 56 20t33 55q8 32 8 70q0 42 -8 71q-11 34 -34 53t-56 19q-34 0 -56.5 -19
t-32.5 -53q-8 -24 -8 -71q0 -45 7 -70q10 -35 33.5 -55t57.5 -20zM374 578q-34 0 -56.5 22.5t-22.5 56.5q0 35 22 57t57 22t57 -22t22 -57q0 -34 -22.5 -56.5t-56.5 -22.5zM175 578q-34 0 -56.5 22.5t-22.5 56.5q0 35 22 57t57 22t57 -22t22 -57q0 -34 -22.5 -56.5
t-56.5 -22.5z" />
    <glyph glyph-name="divide" unicode="&#xf7;" horiz-adv-x="486" 
d="M243 417q-29 0 -49 20t-20 49q0 28 20.5 48t48.5 20t48 -20t20 -48t-20 -48.5t-48 -20.5zM41 251q-5 0 -8.5 3.5t-3.5 8.5v97q0 5 3.5 8.5t8.5 3.5h404q5 0 8.5 -3.5t3.5 -8.5v-97q0 -5 -3.5 -8.5t-8.5 -3.5h-404zM243 78q-29 0 -49 20t-20 49q0 28 20.5 48t48.5 20
t48 -20t20 -48t-20 -48.5t-48 -20.5z" />
    <glyph glyph-name="oslash" unicode="&#xf8;" horiz-adv-x="551" 
d="M481 424q-1 -3 0 -7q12 -18 24 -52q16 -50 16 -105q0 -54 -14 -101q-22 -78 -81.5 -122.5t-143.5 -44.5q-50 0 -92 15q-5 2 -7 -2l-37 -54q-3 -5 -9 -5q-3 0 -8 3l-81 65q-5 3 -5 9q0 4 3 8l38 56q2 3 0 6q-17 27 -28 63q-14 47 -14 102q0 59 14 106q23 74 83 116t144 42
q54 0 93 -16q5 -2 7 2l40 57q3 5 9 5q3 0 8 -3l81 -65q5 -5 5 -9q0 -3 -3 -8zM371 188q8 32 8 70q0 42 -8 71q-11 34 -34 53t-56 19q-34 0 -56.5 -19t-32.5 -53q-8 -24 -8 -71q0 -45 7 -70q10 -35 33.5 -55t57.5 -20q33 0 56 20t33 55z" />
    <glyph glyph-name="ugrave" unicode="&#xf9;" 
d="M352 502q0 5 3.5 8.5t8.5 3.5h117q5 0 8.5 -3.5t3.5 -8.5v-490q0 -5 -3.5 -8.5t-8.5 -3.5h-117q-5 0 -8.5 3.5t-3.5 8.5v34q0 3 -2 3.5t-4 -2.5q-40 -54 -124 -54q-76 0 -125 46t-49 129v334q0 5 3.5 8.5t8.5 3.5h116q5 0 8.5 -3.5t3.5 -8.5v-299q0 -40 21.5 -65
t59.5 -25q34 0 56 20.5t27 53.5v315zM323 590q2 -4 2 -6q0 -8 -10 -8h-84q-9 0 -14 8l-71 101q-2 3 -2 7q0 8 10 8h101q10 0 15 -9z" />
    <glyph glyph-name="uacute" unicode="&#xfa;" 
d="M352 502q0 5 3.5 8.5t8.5 3.5h117q5 0 8.5 -3.5t3.5 -8.5v-490q0 -5 -3.5 -8.5t-8.5 -3.5h-117q-5 0 -8.5 3.5t-3.5 8.5v34q0 3 -2 3.5t-4 -2.5q-40 -54 -124 -54q-76 0 -125 46t-49 129v334q0 5 3.5 8.5t8.5 3.5h116q5 0 8.5 -3.5t3.5 -8.5v-299q0 -40 21.5 -65
t59.5 -25q34 0 56 20.5t27 53.5v315zM217 576q-7 0 -9 4t1 10l53 101q4 9 15 9h101q7 0 9.5 -4.5t-1.5 -10.5l-71 -101q-5 -8 -14 -8h-84z" />
    <glyph glyph-name="ucircumflex" unicode="&#xfb;" 
d="M352 502q0 5 3.5 8.5t8.5 3.5h117q5 0 8.5 -3.5t3.5 -8.5v-490q0 -5 -3.5 -8.5t-8.5 -3.5h-117q-5 0 -8.5 3.5t-3.5 8.5v34q0 3 -2 3.5t-4 -2.5q-40 -54 -124 -54q-76 0 -125 46t-49 129v334q0 5 3.5 8.5t8.5 3.5h116q5 0 8.5 -3.5t3.5 -8.5v-299q0 -40 21.5 -65
t59.5 -25q34 0 56 20.5t27 53.5v315zM125 572q-7 0 -9.5 4.5t1.5 10.5l73 105q5 8 14 8h133q9 0 14 -8l76 -105q3 -4 3 -7q0 -8 -11 -8h-90q-9 0 -14 8l-40 61q-3 6 -6 0l-40 -61q-5 -8 -14 -8h-90z" />
    <glyph glyph-name="udieresis" unicode="&#xfc;" 
d="M352 502q0 5 3.5 8.5t8.5 3.5h117q5 0 8.5 -3.5t3.5 -8.5v-490q0 -5 -3.5 -8.5t-8.5 -3.5h-117q-5 0 -8.5 3.5t-3.5 8.5v34q0 3 -2 3.5t-4 -2.5q-40 -54 -124 -54q-76 0 -125 46t-49 129v334q0 5 3.5 8.5t8.5 3.5h116q5 0 8.5 -3.5t3.5 -8.5v-299q0 -40 21.5 -65
t59.5 -25q34 0 56 20.5t27 53.5v315zM371 578q-34 0 -56.5 22.5t-22.5 56.5q0 35 22 57t57 22t57 -22t22 -57q0 -34 -22.5 -56.5t-56.5 -22.5zM172 578q-34 0 -56.5 22.5t-22.5 56.5q0 35 22 57t57 22t57 -22t22 -57q0 -34 -22.5 -56.5t-56.5 -22.5z" />
    <glyph glyph-name="yacute" unicode="&#xfd;" horiz-adv-x="505" 
d="M49 -199q-3 0 -5 3.5t-2 8.5v92q0 5 3.5 8.5t8.5 3.5q42 1 66.5 7t39 23t22.5 50q1 2 0 6l-164 498q-1 2 -1 5q0 9 11 9h125q11 0 14 -10l84 -324q1 -3 3 -3t3 3l84 324q3 10 14 10h122q6 0 8.5 -3.5t0.5 -10.5l-173 -520q-25 -73 -51 -109.5t-73 -53.5t-133 -17h-7z
M196 585q-7 0 -9 4t1 10l53 101q4 9 15 9h101q7 0 9.5 -4.5t-1.5 -10.5l-71 -101q-5 -8 -14 -8h-84z" />
    <glyph glyph-name="thorn" unicode="&#xfe;" horiz-adv-x="551" 
d="M494 386q18 -49 18 -128q0 -69 -13 -116q-19 -69 -70.5 -109.5t-118.5 -40.5q-70 0 -111 47q-2 2 -4 1t-2 -4v-224q0 -5 -3.5 -8.5t-8.5 -3.5h-117q-5 0 -8.5 3.5t-3.5 8.5v876q0 5 3.5 8.5t8.5 3.5h117q5 0 8.5 -3.5t3.5 -8.5v-205q0 -3 2 -3.5t4 1.5q38 41 106 41
q69 0 119 -38t70 -98zM353 172q6 14 8.5 33t2.5 52t-2.5 52.5t-8.5 33.5q-9 26 -30.5 42t-51.5 16q-28 0 -47.5 -14t-29.5 -37q-1 -2 -1 -6v-172q0 -4 1 -6q23 -53 77 -53q30 0 52 16t30 43z" />
    <glyph glyph-name="ydieresis" unicode="&#xff;" horiz-adv-x="505" 
d="M49 -199q-3 0 -5 3.5t-2 8.5v92q0 5 3.5 8.5t8.5 3.5q42 1 66.5 7t39 23t22.5 50q1 2 0 6l-164 498q-1 2 -1 5q0 9 11 9h125q11 0 14 -10l84 -324q1 -3 3 -3t3 3l84 324q3 10 14 10h122q6 0 8.5 -3.5t0.5 -10.5l-173 -520q-25 -73 -51 -109.5t-73 -53.5t-133 -17h-7z
M351 587q-34 0 -56.5 22.5t-22.5 56.5q0 35 22 57t57 22t57 -22t22 -57q0 -34 -22.5 -56.5t-56.5 -22.5zM152 587q-34 0 -56.5 22.5t-22.5 56.5q0 35 22 57t57 22t57 -22t22 -57q0 -34 -22.5 -56.5t-56.5 -22.5z" />
    <glyph glyph-name="Amacron" unicode="&#x100;" horiz-adv-x="671" 
d="M506 0q-10 0 -13 10l-30 98q-2 4 -5 4h-246q-3 0 -5 -4l-29 -98q-3 -10 -13 -10h-127q-6 0 -9 3.5t-1 10.5l216 676q3 10 13 10h157q10 0 13 -10l216 -676q1 -2 1 -5q0 -9 -11 -9h-127zM243 227q-1 -6 4 -6h176q6 0 4 6l-90 297q-1 4 -3 3.5t-3 -3.5zM199 764
q-5 0 -8.5 3.5t-3.5 8.5v71q0 5 3.5 8.5t8.5 3.5h270q5 0 8.5 -3.5t3.5 -8.5v-71q0 -5 -3.5 -8.5t-8.5 -3.5h-270z" />
    <glyph glyph-name="amacron" unicode="&#x101;" horiz-adv-x="528" 
d="M257 522q65 0 116 -22.5t79.5 -61.5t28.5 -87v-339q0 -5 -3.5 -8.5t-8.5 -3.5h-117q-5 0 -8.5 3.5t-3.5 8.5v33q0 3 -2 4t-4 -2q-42 -55 -135 -55q-78 0 -126 38t-48 112q0 77 54 119.5t154 42.5h102q5 0 5 5v22q0 33 -20 51.5t-60 18.5q-31 0 -51.5 -11t-26.5 -31
q-3 -11 -13 -10l-121 16q-12 2 -11 9q4 42 33.5 76t78 53t108.5 19zM237 97q43 0 73 23t30 59v36q0 5 -5 5h-72q-45 0 -70.5 -17t-25.5 -48q0 -27 19 -42.5t51 -15.5zM130 578q-5 0 -8.5 3.5t-3.5 8.5v71q0 5 3.5 8.5t8.5 3.5h270q5 0 8.5 -3.5t3.5 -8.5v-71q0 -5 -3.5 -8.5
t-8.5 -3.5h-270z" />
    <glyph glyph-name="Abreve" unicode="&#x102;" horiz-adv-x="671" 
d="M506 0q-10 0 -13 10l-30 98q-2 4 -5 4h-246q-3 0 -5 -4l-29 -98q-3 -10 -13 -10h-127q-6 0 -9 3.5t-1 10.5l216 676q3 10 13 10h157q10 0 13 -10l216 -676q1 -2 1 -5q0 -9 -11 -9h-127zM243 227q-1 -6 4 -6h176q6 0 4 6l-90 297q-1 4 -3 3.5t-3 -3.5zM333 743
q-65 0 -109 33.5t-48 85.5v2q0 10 11 10h67q10 0 12 -11q5 -21 23 -34t44 -13t44.5 13t23.5 34q2 11 12 11h66q12 0 12 -10q-5 -53 -49 -87t-109 -34z" />
    <glyph glyph-name="abreve" unicode="&#x103;" horiz-adv-x="528" 
d="M257 522q65 0 116 -22.5t79.5 -61.5t28.5 -87v-339q0 -5 -3.5 -8.5t-8.5 -3.5h-117q-5 0 -8.5 3.5t-3.5 8.5v33q0 3 -2 4t-4 -2q-42 -55 -135 -55q-78 0 -126 38t-48 112q0 77 54 119.5t154 42.5h102q5 0 5 5v22q0 33 -20 51.5t-60 18.5q-31 0 -51.5 -11t-26.5 -31
q-3 -11 -13 -10l-121 16q-12 2 -11 9q4 42 33.5 76t78 53t108.5 19zM237 97q43 0 73 23t30 59v36q0 5 -5 5h-72q-45 0 -70.5 -17t-25.5 -48q0 -27 19 -42.5t51 -15.5zM264 557q-65 0 -109 33.5t-48 85.5v2q0 10 11 10h67q10 0 12 -11q5 -21 23 -34t44 -13t44.5 13t23.5 34
q2 11 12 11h66q12 0 12 -10q-5 -53 -49 -87t-109 -34z" />
    <glyph glyph-name="Aogonek" unicode="&#x104;" horiz-adv-x="671" 
d="M506 0q-10 0 -13 10l-30 98q-2 4 -5 4h-246q-3 0 -5 -4l-29 -98q-3 -10 -13 -10h-127q-6 0 -9 3.5t-1 10.5l216 676q3 10 13 10h157q10 0 13 -10l216 -676q1 -2 1 -5q0 -9 -11 -9h-127zM243 227q-1 -6 4 -6h176q6 0 4 6l-90 297q-1 4 -3 3.5t-3 -3.5zM655 -171
q0 -8 -9 -11q-29 -11 -61 -11q-34 0 -60 15t-35 49q-3 12 -3 24q0 53 57 100q6 5 15 5h64q10 0 10 -6q0 -5 -6 -9q-47 -36 -47 -66q0 -16 9.5 -24t25.5 -8q9 0 18 3q2 1 6 1q8 0 9 -9l7 -50v-3z" />
    <glyph glyph-name="aogonek" unicode="&#x105;" horiz-adv-x="528" 
d="M472 -108q9 0 10 -10l7 -49v-4q0 -8 -8 -11q-29 -11 -62 -11q-34 0 -59.5 15t-34.5 49q-3 12 -3 25q0 52 55 98q3 2 2 4t-4 2h-23q-5 0 -8.5 3.5t-3.5 8.5v33q0 3 -2 4t-4 -2q-42 -55 -135 -55q-78 0 -126 38t-48 112q0 77 54 119.5t154 42.5h102q5 0 5 5v22
q0 33 -20 51.5t-60 18.5q-31 0 -51.5 -11t-26.5 -31q-3 -11 -13 -10l-121 16q-12 2 -11 13q5 41 35 74t78 51.5t107 18.5q65 0 116 -22.5t79.5 -61.5t28.5 -87v-351l-7 -5q-60 -44 -60 -76q0 -15 9.5 -23t23.5 -8q10 0 20 3zM237 97q43 0 73 23t30 59v36q0 5 -5 5h-72
q-45 0 -70.5 -17t-25.5 -48q0 -27 19 -42.5t51 -15.5z" />
    <glyph glyph-name="Cacute" unicode="&#x106;" horiz-adv-x="608" 
d="M307 -8q-78 0 -137 30.5t-91 85.5t-32 127v231q0 72 32 127t91 85t137 30q77 0 135.5 -28.5t91 -81t32.5 -121.5q0 -9 -12 -11l-117 -7h-2q-10 0 -10 11q0 53 -32.5 85t-85.5 32q-54 0 -86.5 -32t-32.5 -85v-241q0 -52 32.5 -84t86.5 -32q53 0 85.5 32t32.5 84
q0 11 12 11l117 -5q5 0 8.5 -3t3.5 -7q0 -69 -32.5 -122t-91 -82t-135.5 -29zM251 762q-7 0 -9 4t1 10l53 101q4 9 15 9h101q7 0 9.5 -4.5t-1.5 -10.5l-71 -101q-5 -8 -14 -8h-84z" />
    <glyph glyph-name="cacute" unicode="&#x107;" horiz-adv-x="537" 
d="M278 -8q-80 0 -138.5 40t-83.5 110q-17 50 -17 118q0 67 17 116q24 68 83 107t139 39t140.5 -40t80.5 -101q8 -24 8 -36v-2q0 -9 -10 -11l-115 -17h-2q-9 0 -12 10l-3 16q-7 26 -31 43t-57 17q-32 0 -54 -16t-31 -44q-11 -30 -11 -82t10 -82q9 -30 31.5 -47t54.5 -17
q31 0 54.5 16.5t32.5 45.5q1 2 1 6q1 1 1 3q1 12 14 10l115 -18q10 -2 10 -11q0 -8 -6 -30q-21 -67 -81.5 -105t-139.5 -38zM219 576q-7 0 -9 4t1 10l53 101q4 9 15 9h101q7 0 9.5 -4.5t-1.5 -10.5l-71 -101q-5 -8 -14 -8h-84z" />
    <glyph glyph-name="Ccircumflex" unicode="&#x108;" horiz-adv-x="608" 
d="M307 -8q-78 0 -137 30.5t-91 85.5t-32 127v231q0 72 32 127t91 85t137 30q77 0 135.5 -28.5t91 -81t32.5 -121.5q0 -9 -12 -11l-117 -7h-2q-10 0 -10 11q0 53 -32.5 85t-85.5 32q-54 0 -86.5 -32t-32.5 -85v-241q0 -52 32.5 -84t86.5 -32q53 0 85.5 32t32.5 84
q0 11 12 11l117 -5q5 0 8.5 -3t3.5 -7q0 -69 -32.5 -122t-91 -82t-135.5 -29zM159 758q-7 0 -9.5 4.5t1.5 10.5l73 105q5 8 14 8h133q9 0 14 -8l76 -105q3 -4 3 -7q0 -8 -11 -8h-90q-9 0 -14 8l-40 61q-3 6 -6 0l-40 -61q-5 -8 -14 -8h-90z" />
    <glyph glyph-name="ccircumflex" unicode="&#x109;" horiz-adv-x="537" 
d="M278 -8q-80 0 -138.5 40t-83.5 110q-17 50 -17 118q0 67 17 116q24 68 83 107t139 39t140.5 -40t80.5 -101q8 -24 8 -36v-2q0 -9 -10 -11l-115 -17h-2q-9 0 -12 10l-3 16q-7 26 -31 43t-57 17q-32 0 -54 -16t-31 -44q-11 -30 -11 -82t10 -82q9 -30 31.5 -47t54.5 -17
q31 0 54.5 16.5t32.5 45.5q1 2 1 6q1 1 1 3q1 12 14 10l115 -18q10 -2 10 -11q0 -8 -6 -30q-21 -67 -81.5 -105t-139.5 -38zM128 572q-7 0 -9.5 4.5t1.5 10.5l73 105q5 8 14 8h133q9 0 14 -8l76 -105q3 -4 3 -7q0 -8 -11 -8h-90q-9 0 -14 8l-40 61q-3 6 -6 0l-40 -61
q-5 -8 -14 -8h-90z" />
    <glyph glyph-name="Cdotaccent" unicode="&#x10a;" horiz-adv-x="608" 
d="M307 -8q-78 0 -137 30.5t-91 85.5t-32 127v231q0 72 32 127t91 85t137 30q77 0 135.5 -28.5t91 -81t32.5 -121.5q0 -9 -12 -11l-117 -7h-2q-10 0 -10 11q0 53 -32.5 85t-85.5 32q-54 0 -86.5 -32t-32.5 -85v-241q0 -52 32.5 -84t86.5 -32q53 0 85.5 32t32.5 84
q0 11 12 11l117 -5q5 0 8.5 -3t3.5 -7q0 -69 -32.5 -122t-91 -82t-135.5 -29zM306 758q-34 0 -56.5 22.5t-22.5 56.5q0 35 22 57t57 22t57 -22t22 -57q0 -34 -22.5 -56.5t-56.5 -22.5z" />
    <glyph glyph-name="cdotaccent" unicode="&#x10b;" horiz-adv-x="537" 
d="M278 -8q-80 0 -138.5 40t-83.5 110q-17 50 -17 118q0 67 17 116q24 68 83 107t139 39t140.5 -40t80.5 -101q8 -24 8 -36v-2q0 -9 -10 -11l-115 -17h-2q-9 0 -12 10l-3 16q-7 26 -31 43t-57 17q-32 0 -54 -16t-31 -44q-11 -30 -11 -82t10 -82q9 -30 31.5 -47t54.5 -17
q31 0 54.5 16.5t32.5 45.5q1 2 1 6q1 1 1 3q1 12 14 10l115 -18q10 -2 10 -11q0 -8 -6 -30q-21 -67 -81.5 -105t-139.5 -38zM275 572q-34 0 -56.5 22.5t-22.5 56.5q0 35 22 57t57 22t57 -22t22 -57q0 -34 -22.5 -56.5t-56.5 -22.5z" />
    <glyph glyph-name="Ccaron" unicode="&#x10c;" horiz-adv-x="608" 
d="M307 -8q-78 0 -137 30.5t-91 85.5t-32 127v231q0 72 32 127t91 85t137 30q77 0 135.5 -28.5t91 -81t32.5 -121.5q0 -9 -12 -11l-117 -7h-2q-10 0 -10 11q0 53 -32.5 85t-85.5 32q-54 0 -86.5 -32t-32.5 -85v-241q0 -52 32.5 -84t86.5 -32q53 0 85.5 32t32.5 84
q0 11 12 11l117 -5q5 0 8.5 -3t3.5 -7q0 -69 -32.5 -122t-91 -82t-135.5 -29zM158 871q-2 3 -2 7q0 8 10 8h90q9 0 14 -8l40 -61q3 -6 6 0l40 61q5 8 14 8h90q8 0 10 -4.5t-2 -10.5l-76 -106q-5 -7 -14 -7h-133q-9 0 -14 8z" />
    <glyph glyph-name="ccaron" unicode="&#x10d;" horiz-adv-x="537" 
d="M278 -8q-80 0 -138.5 40t-83.5 110q-17 50 -17 118q0 67 17 116q24 68 83 107t139 39t140.5 -40t80.5 -101q8 -24 8 -36v-2q0 -9 -10 -11l-115 -17h-2q-9 0 -12 10l-3 16q-7 26 -31 43t-57 17q-32 0 -54 -16t-31 -44q-11 -30 -11 -82t10 -82q9 -30 31.5 -47t54.5 -17
q31 0 54.5 16.5t32.5 45.5q1 2 1 6q1 1 1 3q1 12 14 10l115 -18q10 -2 10 -11q0 -8 -6 -30q-21 -67 -81.5 -105t-139.5 -38zM127 685q-2 3 -2 7q0 8 10 8h90q9 0 14 -8l40 -61q3 -6 6 0l40 61q5 8 14 8h90q8 0 10 -4.5t-2 -10.5l-76 -106q-5 -7 -14 -7h-133q-9 0 -14 8z" />
    <glyph glyph-name="Dcaron" unicode="&#x10e;" horiz-adv-x="618" 
d="M73 0q-5 0 -8.5 3.5t-3.5 8.5v676q0 5 3.5 8.5t8.5 3.5h250q75 0 131.5 -26.5t87.5 -74.5t31 -111v-276q0 -63 -31 -111t-87.5 -74.5t-131.5 -26.5h-250zM202 126q0 -5 5 -5h121q46 0 74.5 31t29.5 83v230q0 52 -28.5 83t-76.5 31h-120q-5 0 -5 -5v-448zM151 870
q-2 3 -2 7q0 8 10 8h90q9 0 14 -8l40 -61q3 -6 6 0l40 61q5 8 14 8h90q8 0 10 -4.5t-2 -10.5l-76 -106q-5 -7 -14 -7h-133q-9 0 -14 8z" />
    <glyph glyph-name="dcaron" unicode="&#x10f;" horiz-adv-x="566" 
d="M371 688q0 5 3.5 8.5t8.5 3.5h117q5 0 8.5 -3.5t3.5 -8.5v-676q0 -5 -3.5 -8.5t-8.5 -3.5h-117q-5 0 -8.5 3.5t-3.5 8.5v33q0 3 -2 3.5t-4 -1.5q-42 -55 -115 -55q-70 0 -120.5 39t-72.5 107q-17 52 -17 121q0 71 18 124q23 64 72.5 101.5t122.5 37.5q72 0 112 -50
q2 -3 4 -2t2 4v214zM350 156q20 37 20 101q0 67 -22 105q-23 39 -67 39q-47 0 -71 -39q-25 -39 -25 -106q0 -60 21 -100q25 -43 74 -43q45 0 70 43zM542 576q-7 0 -9 4t1 10l53 101q4 9 15 9h101q7 0 9.5 -4.5t-1.5 -10.5l-71 -101q-5 -8 -14 -8h-84z" />
    <glyph glyph-name="Dcroat" unicode="&#x110;" horiz-adv-x="669" 
d="M374 700q75 0 132 -26.5t88 -74.5t31 -111v-276q0 -63 -31 -111t-88 -74.5t-132 -26.5h-250q-5 0 -8.5 3.5t-3.5 8.5v296q0 5 -5 5h-34q-5 0 -8.5 3.5t-3.5 8.5v72q0 5 3.5 8.5t8.5 3.5h34q5 0 5 5v274q0 5 3.5 8.5t8.5 3.5h250zM484 465q0 52 -28.5 83t-76.5 31h-121
q-5 0 -5 -5v-160q0 -5 5 -5h80q5 0 8.5 -3.5t3.5 -8.5v-72q0 -5 -3.5 -8.5t-8.5 -3.5h-80q-5 0 -5 -5v-182q0 -5 5 -5h122q46 0 74 31t30 83v230z" />
    <glyph glyph-name="dcroat" unicode="&#x111;" horiz-adv-x="566" 
d="M550 643q5 0 8.5 -3.5t3.5 -8.5v-61q0 -5 -3.5 -8.5t-8.5 -3.5h-33q-5 0 -5 -5v-541q0 -5 -3.5 -8.5t-8.5 -3.5h-117q-5 0 -8.5 3.5t-3.5 8.5v33q0 3 -2 3.5t-4 -1.5q-42 -55 -115 -55q-70 0 -120.5 39t-72.5 107q-17 52 -17 121q0 71 18 124q23 64 72.5 101.5
t122.5 37.5q72 0 112 -50q2 -3 4 -2t2 4v79q0 5 -5 5h-146q-5 0 -8.5 3.5t-3.5 8.5v61q0 5 3.5 8.5t8.5 3.5h146q5 0 5 5v40q0 5 3.5 8.5t8.5 3.5h117q5 0 8.5 -3.5t3.5 -8.5v-40q0 -5 5 -5h33zM350 156q20 37 20 101q0 67 -22 105q-23 39 -67 39q-47 0 -71 -39
q-25 -39 -25 -106q0 -60 21 -100q25 -43 74 -43q45 0 70 43z" />
    <glyph glyph-name="Emacron" unicode="&#x112;" horiz-adv-x="584" 
d="M547 591q0 -5 -3.5 -8.5t-8.5 -3.5h-328q-5 0 -5 -5v-155q0 -5 5 -5h215q5 0 8.5 -3.5t3.5 -8.5v-97q0 -5 -3.5 -8.5t-8.5 -3.5h-215q-5 0 -5 -5v-162q0 -5 5 -5h328q5 0 8.5 -3.5t3.5 -8.5v-97q0 -5 -3.5 -8.5t-8.5 -3.5h-462q-5 0 -8.5 3.5t-3.5 8.5v676q0 5 3.5 8.5
t8.5 3.5h462q5 0 8.5 -3.5t3.5 -8.5v-97zM167 764q-5 0 -8.5 3.5t-3.5 8.5v71q0 5 3.5 8.5t8.5 3.5h270q5 0 8.5 -3.5t3.5 -8.5v-71q0 -5 -3.5 -8.5t-8.5 -3.5h-270z" />
    <glyph glyph-name="emacron" unicode="&#x113;" horiz-adv-x="544" 
d="M507 310q6 -38 4 -85q-1 -12 -13 -12h-309q-6 0 -4 -5q3 -20 11 -40q26 -56 106 -56q64 1 101 52q4 6 9 6q3 0 7 -4l72 -71q5 -5 5 -9q0 -2 -4 -8q-33 -41 -85 -63.5t-114 -22.5q-86 0 -145.5 39t-85.5 109q-21 50 -21 131q0 55 15 97q23 71 80.5 113t136.5 42
q100 0 160.5 -58t73.5 -155zM274 401q-63 0 -83 -59q-4 -13 -7 -32q0 -5 5 -5h173q6 0 4 5q-5 29 -5 28q-9 30 -31.5 46.5t-55.5 16.5zM137 593q-5 0 -8.5 3.5t-3.5 8.5v72q0 5 3.5 8.5t8.5 3.5h270q5 0 8.5 -3.5t3.5 -8.5v-72q0 -5 -3.5 -8.5t-8.5 -3.5h-270z" />
    <glyph glyph-name="Edotaccent" unicode="&#x116;" horiz-adv-x="584" 
d="M547 591q0 -5 -3.5 -8.5t-8.5 -3.5h-328q-5 0 -5 -5v-155q0 -5 5 -5h215q5 0 8.5 -3.5t3.5 -8.5v-97q0 -5 -3.5 -8.5t-8.5 -3.5h-215q-5 0 -5 -5v-162q0 -5 5 -5h328q5 0 8.5 -3.5t3.5 -8.5v-97q0 -5 -3.5 -8.5t-8.5 -3.5h-462q-5 0 -8.5 3.5t-3.5 8.5v676q0 5 3.5 8.5
t8.5 3.5h462q5 0 8.5 -3.5t3.5 -8.5v-97zM301 758q-34 0 -56.5 22.5t-22.5 56.5q0 35 22 57t57 22t57 -22t22 -57q0 -34 -22.5 -56.5t-56.5 -22.5z" />
    <glyph glyph-name="edotaccent" unicode="&#x117;" horiz-adv-x="544" 
d="M507 310q6 -38 4 -85q-1 -12 -13 -12h-309q-6 0 -4 -5q3 -20 11 -40q26 -56 106 -56q64 1 101 52q4 6 9 6q3 0 7 -4l72 -71q5 -5 5 -9q0 -2 -4 -8q-33 -41 -85 -63.5t-114 -22.5q-86 0 -145.5 39t-85.5 109q-21 50 -21 131q0 55 15 97q23 71 80.5 113t136.5 42
q100 0 160.5 -58t73.5 -155zM274 401q-63 0 -83 -59q-4 -13 -7 -32q0 -5 5 -5h173q6 0 4 5q-5 29 -5 28q-9 30 -31.5 46.5t-55.5 16.5zM271 572q-34 0 -56.5 22.5t-22.5 56.5q0 35 22 57t57 22t57 -22t22 -57q0 -34 -22.5 -56.5t-56.5 -22.5z" />
    <glyph glyph-name="Eogonek" unicode="&#x118;" horiz-adv-x="584" 
d="M547 591q0 -5 -3.5 -8.5t-8.5 -3.5h-328q-5 0 -5 -5v-155q0 -5 5 -5h215q5 0 8.5 -3.5t3.5 -8.5v-97q0 -5 -3.5 -8.5t-8.5 -3.5h-215q-5 0 -5 -5v-162q0 -5 5 -5h328q5 0 8.5 -3.5t3.5 -8.5v-97q0 -5 -3.5 -8.5t-8.5 -3.5h-181q-2 0 -6 -2q-45 -35 -45 -65q0 -16 9.5 -24
t25.5 -8q9 0 18 3q2 1 6 1q8 0 9 -9l7 -50v-3q0 -8 -9 -11q-29 -11 -61 -11q-34 0 -60 15t-35 49q-3 12 -3 24q0 45 40 85q3 2 2 4t-4 2h-175q-5 0 -8.5 3.5t-3.5 8.5v676q0 5 3.5 8.5t8.5 3.5h462q5 0 8.5 -3.5t3.5 -8.5v-97z" />
    <glyph glyph-name="eogonek" unicode="&#x119;" horiz-adv-x="544" 
d="M507 310q6 -38 4 -85q-1 -12 -13 -12h-309q-6 0 -4 -5q3 -20 11 -40q26 -56 106 -56q64 1 101 52q4 6 9 6q3 0 7 -4l72 -71q5 -5 5 -9q0 -2 -4 -8q-27 -34 -67.5 -55.5t-89.5 -28.5q-2 0 -6 -2q-49 -36 -49 -68q0 -16 9.5 -24.5t25.5 -8.5q9 0 18 3q2 1 6 1q8 0 9 -9
l7 -49v-3q0 -8 -8 -11q-29 -11 -62 -11q-34 0 -60 15t-35 49q-3 12 -3 23q0 46 47 92q2 2 2 4t-3 2q-62 12 -106 49t-65 94q-21 50 -21 131q0 55 15 97q23 71 80.5 113t136.5 42q100 0 160.5 -58t73.5 -155zM274 401q-63 0 -83 -59q-4 -13 -7 -32q0 -5 5 -5h173q6 0 4 5
q-5 29 -5 28q-9 30 -31.5 46.5t-55.5 16.5z" />
    <glyph glyph-name="Ecaron" unicode="&#x11a;" horiz-adv-x="584" 
d="M547 591q0 -5 -3.5 -8.5t-8.5 -3.5h-328q-5 0 -5 -5v-155q0 -5 5 -5h215q5 0 8.5 -3.5t3.5 -8.5v-97q0 -5 -3.5 -8.5t-8.5 -3.5h-215q-5 0 -5 -5v-162q0 -5 5 -5h328q5 0 8.5 -3.5t3.5 -8.5v-97q0 -5 -3.5 -8.5t-8.5 -3.5h-462q-5 0 -8.5 3.5t-3.5 8.5v676q0 5 3.5 8.5
t8.5 3.5h462q5 0 8.5 -3.5t3.5 -8.5v-97zM153 871q-2 3 -2 7q0 8 10 8h90q9 0 14 -8l40 -61q3 -6 6 0l40 61q5 8 14 8h90q8 0 10 -4.5t-2 -10.5l-76 -106q-5 -7 -14 -7h-133q-9 0 -14 8z" />
    <glyph glyph-name="ecaron" unicode="&#x11b;" horiz-adv-x="544" 
d="M507 310q6 -38 4 -85q-1 -12 -13 -12h-309q-6 0 -4 -5q3 -20 11 -40q26 -56 106 -56q64 1 101 52q4 6 9 6q3 0 7 -4l72 -71q5 -5 5 -9q0 -2 -4 -8q-33 -41 -85 -63.5t-114 -22.5q-86 0 -145.5 39t-85.5 109q-21 50 -21 131q0 55 15 97q23 71 80.5 113t136.5 42
q100 0 160.5 -58t73.5 -155zM274 401q-63 0 -83 -59q-4 -13 -7 -32q0 -5 5 -5h173q6 0 4 5q-5 29 -5 28q-9 30 -31.5 46.5t-55.5 16.5zM123 684q-2 3 -2 7q0 8 10 8h90q9 0 14 -8l40 -61q3 -6 6 0l40 61q5 8 14 8h90q8 0 10 -4.5t-2 -10.5l-76 -106q-5 -7 -14 -7h-133
q-9 0 -14 8z" />
    <glyph glyph-name="Gcircumflex" unicode="&#x11c;" horiz-adv-x="612" 
d="M307 -8q-77 0 -136 31t-91.5 86.5t-32.5 128.5v224q0 73 32.5 129t91.5 86.5t136 30.5q76 0 134.5 -30t91 -81.5t32.5 -114.5v-7q0 -5 -3.5 -8.5t-8.5 -3.5h-117q-5 0 -8.5 3.5t-3.5 8.5v3q0 46 -32 77.5t-85 31.5q-54 0 -86.5 -33.5t-32.5 -87.5v-232q0 -54 35 -87.5
t89 -33.5q52 0 83 27.5t31 76.5v45q0 5 -5 5h-112q-5 0 -8.5 3.5t-3.5 8.5v92q0 5 3.5 8.5t8.5 3.5h244q5 0 8.5 -3.5t3.5 -8.5v-132q0 -76 -32 -132t-90.5 -85.5t-135.5 -29.5zM159 763q-7 0 -9.5 4.5t1.5 10.5l73 105q5 8 14 8h133q9 0 14 -8l76 -105q3 -4 3 -7
q0 -8 -11 -8h-90q-9 0 -14 8l-40 61q-3 6 -6 0l-40 -61q-5 -8 -14 -8h-90z" />
    <glyph glyph-name="gcircumflex" unicode="&#x11d;" horiz-adv-x="555" 
d="M366 502q0 5 3.5 8.5t8.5 3.5h117q5 0 8.5 -3.5t3.5 -8.5v-456q0 -131 -75.5 -187t-194.5 -56q-35 0 -78 5q-10 1 -10 13l4 103q0 13 14 11q36 -6 66 -6q64 0 98.5 28t34.5 90q0 3 -2 3.5t-4 -1.5q-38 -41 -111 -41q-65 0 -119.5 31.5t-77.5 101.5q-15 46 -15 119
q0 78 18 127q21 61 71 98t116 37q77 0 118 -46q2 -2 4 -1.5t2 3.5v24zM358 179q8 30 8 82q0 31 -2 48t-7 32q-9 27 -30 43.5t-52 16.5q-30 0 -51 -16.5t-31 -43.5q-14 -30 -14 -81q0 -56 12 -80q9 -27 31.5 -43.5t53.5 -16.5q32 0 53 16.5t29 42.5zM143 572q-7 0 -9.5 4.5
t1.5 10.5l73 105q5 8 14 8h133q9 0 14 -8l76 -105q3 -4 3 -7q0 -8 -11 -8h-90q-9 0 -14 8l-40 61q-3 6 -6 0l-40 -61q-5 -8 -14 -8h-90z" />
    <glyph glyph-name="Gbreve" unicode="&#x11e;" horiz-adv-x="612" 
d="M307 -8q-77 0 -136 31t-91.5 86.5t-32.5 128.5v224q0 73 32.5 129t91.5 86.5t136 30.5q76 0 134.5 -30t91 -81.5t32.5 -114.5v-7q0 -5 -3.5 -8.5t-8.5 -3.5h-117q-5 0 -8.5 3.5t-3.5 8.5v3q0 46 -32 77.5t-85 31.5q-54 0 -86.5 -33.5t-32.5 -87.5v-232q0 -54 35 -87.5
t89 -33.5q52 0 83 27.5t31 76.5v45q0 5 -5 5h-112q-5 0 -8.5 3.5t-3.5 8.5v92q0 5 3.5 8.5t8.5 3.5h244q5 0 8.5 -3.5t3.5 -8.5v-132q0 -76 -32 -132t-90.5 -85.5t-135.5 -29.5zM306 749q-65 0 -109 33.5t-48 85.5v2q0 10 11 10h67q10 0 12 -11q5 -21 23 -34t44 -13t44.5 13
t23.5 34q2 11 12 11h66q12 0 12 -10q-5 -53 -49 -87t-109 -34z" />
    <glyph glyph-name="gbreve" unicode="&#x11f;" horiz-adv-x="555" 
d="M366 502q0 5 3.5 8.5t8.5 3.5h117q5 0 8.5 -3.5t3.5 -8.5v-456q0 -131 -75.5 -187t-194.5 -56q-35 0 -78 5q-10 1 -10 13l4 103q0 13 14 11q36 -6 66 -6q64 0 98.5 28t34.5 90q0 3 -2 3.5t-4 -1.5q-38 -41 -111 -41q-65 0 -119.5 31.5t-77.5 101.5q-15 46 -15 119
q0 78 18 127q21 61 71 98t116 37q77 0 118 -46q2 -2 4 -1.5t2 3.5v24zM358 179q8 30 8 82q0 31 -2 48t-7 32q-9 27 -30 43.5t-52 16.5q-30 0 -51 -16.5t-31 -43.5q-14 -30 -14 -81q0 -56 12 -80q9 -27 31.5 -43.5t53.5 -16.5q32 0 53 16.5t29 42.5zM289 557q-65 0 -109 33.5
t-48 85.5v2q0 10 11 10h67q10 0 12 -11q5 -21 23 -34t44 -13t44.5 13t23.5 34q2 11 12 11h66q12 0 12 -10q-5 -53 -49 -87t-109 -34z" />
    <glyph glyph-name="Gdotaccent" unicode="&#x120;" horiz-adv-x="612" 
d="M307 -8q-77 0 -136 31t-91.5 86.5t-32.5 128.5v224q0 73 32.5 129t91.5 86.5t136 30.5q76 0 134.5 -30t91 -81.5t32.5 -114.5v-7q0 -5 -3.5 -8.5t-8.5 -3.5h-117q-5 0 -8.5 3.5t-3.5 8.5v3q0 46 -32 77.5t-85 31.5q-54 0 -86.5 -33.5t-32.5 -87.5v-232q0 -54 35 -87.5
t89 -33.5q52 0 83 27.5t31 76.5v45q0 5 -5 5h-112q-5 0 -8.5 3.5t-3.5 8.5v92q0 5 3.5 8.5t8.5 3.5h244q5 0 8.5 -3.5t3.5 -8.5v-132q0 -76 -32 -132t-90.5 -85.5t-135.5 -29.5zM306 763q-34 0 -56.5 22.5t-22.5 56.5q0 35 22 57t57 22t57 -22t22 -57q0 -34 -22.5 -56.5
t-56.5 -22.5z" />
    <glyph glyph-name="gdotaccent" unicode="&#x121;" horiz-adv-x="555" 
d="M366 502q0 5 3.5 8.5t8.5 3.5h117q5 0 8.5 -3.5t3.5 -8.5v-456q0 -131 -75.5 -187t-194.5 -56q-35 0 -78 5q-10 1 -10 13l4 103q0 13 14 11q36 -6 66 -6q64 0 98.5 28t34.5 90q0 3 -2 3.5t-4 -1.5q-38 -41 -111 -41q-65 0 -119.5 31.5t-77.5 101.5q-15 46 -15 119
q0 78 18 127q21 61 71 98t116 37q77 0 118 -46q2 -2 4 -1.5t2 3.5v24zM358 179q8 30 8 82q0 31 -2 48t-7 32q-9 27 -30 43.5t-52 16.5q-30 0 -51 -16.5t-31 -43.5q-14 -30 -14 -81q0 -56 12 -80q9 -27 31.5 -43.5t53.5 -16.5q32 0 53 16.5t29 42.5zM290 572
q-34 0 -56.5 22.5t-22.5 56.5q0 35 22 57t57 22t57 -22t22 -57q0 -34 -22.5 -56.5t-56.5 -22.5z" />
    <glyph glyph-name="uni0122" unicode="&#x122;" horiz-adv-x="612" 
d="M307 -8q-77 0 -136 31t-91.5 86.5t-32.5 128.5v224q0 73 32.5 129t91.5 86.5t136 30.5q76 0 134.5 -30t91 -81.5t32.5 -114.5v-7q0 -5 -3.5 -8.5t-8.5 -3.5h-117q-5 0 -8.5 3.5t-3.5 8.5v3q0 46 -32 77.5t-85 31.5q-54 0 -86.5 -33.5t-32.5 -87.5v-232q0 -54 35 -87.5
t89 -33.5q52 0 83 27.5t31 76.5v45q0 5 -5 5h-112q-5 0 -8.5 3.5t-3.5 8.5v92q0 5 3.5 8.5t8.5 3.5h244q5 0 8.5 -3.5t3.5 -8.5v-132q0 -76 -32 -132t-90.5 -85.5t-135.5 -29.5zM209 -182q-7 0 -9 4t1 10l53 101q4 9 15 9h101q7 0 9.5 -4.5t-1.5 -10.5l-71 -101
q-5 -8 -14 -8h-84z" />
    <glyph glyph-name="uni0123" unicode="&#x123;" horiz-adv-x="555" 
d="M387 688q7 0 9 -4t-1 -10l-53 -100q-4 -9 -15 -9h-101q-8 0 -10 4.5t2 10.5l72 101q5 7 14 7h83zM366 502q0 5 3.5 8.5t8.5 3.5h117q5 0 8.5 -3.5t3.5 -8.5v-456q0 -131 -75.5 -187t-194.5 -56q-35 0 -78 5q-10 1 -10 13l4 103q0 13 14 11q36 -6 66 -6q64 0 98.5 28
t34.5 90q0 3 -2 3.5t-4 -1.5q-38 -41 -111 -41q-65 0 -119.5 31.5t-77.5 101.5q-15 46 -15 119q0 78 18 127q21 61 71 98t116 37q77 0 118 -46q2 -2 4 -1.5t2 3.5v24zM358 179q8 30 8 82q0 31 -2 48t-7 32q-9 27 -30 43.5t-52 16.5q-30 0 -51 -16.5t-31 -43.5
q-14 -30 -14 -81q0 -56 12 -80q9 -27 31.5 -43.5t53.5 -16.5q32 0 53 16.5t29 42.5z" />
    <glyph glyph-name="Hcircumflex" unicode="&#x124;" horiz-adv-x="628" 
d="M433 688q0 5 3.5 8.5t8.5 3.5h117q5 0 8.5 -3.5t3.5 -8.5v-676q0 -5 -3.5 -8.5t-8.5 -3.5h-117q-5 0 -8.5 3.5t-3.5 8.5v276q0 5 -5 5h-221q-5 0 -5 -5v-276q0 -5 -3.5 -8.5t-8.5 -3.5h-117q-5 0 -8.5 3.5t-3.5 8.5v676q0 5 3.5 8.5t8.5 3.5h117q5 0 8.5 -3.5t3.5 -8.5
v-269q0 -5 5 -5h221q5 0 5 5v269zM172 759q-7 0 -9.5 4.5t1.5 10.5l73 105q5 8 14 8h133q9 0 14 -8l76 -105q3 -4 3 -7q0 -8 -11 -8h-90q-9 0 -14 8l-40 61q-3 6 -6 0l-40 -61q-5 -8 -14 -8h-90z" />
    <glyph glyph-name="hcircumflex" unicode="&#x125;" 
d="M320 522q80 0 129 -49t49 -133v-328q0 -5 -3.5 -8.5t-8.5 -3.5h-117q-5 0 -8.5 3.5t-3.5 8.5v299q0 40 -22.5 65t-59.5 25t-59.5 -25t-22.5 -65v-299q0 -5 -3.5 -8.5t-8.5 -3.5h-117q-5 0 -8.5 3.5t-3.5 8.5v676q0 5 3.5 8.5t8.5 3.5h117q5 0 8.5 -3.5t3.5 -8.5v-221
q0 -3 2 -4t3 1q41 58 122 58zM130 751q-7 0 -9.5 4.5t1.5 10.5l73 105q5 8 14 8h133q9 0 14 -8l76 -105q3 -4 3 -7q0 -8 -11 -8h-90q-9 0 -14 8l-40 61q-3 6 -6 0l-40 -61q-5 -8 -14 -8h-90z" />
    <glyph glyph-name="Hbar" unicode="&#x126;" horiz-adv-x="628" 
d="M620 602q5 0 8.5 -3.5t3.5 -8.5v-71q0 -5 -3.5 -8.5t-8.5 -3.5h-41q-5 0 -5 -5v-490q0 -5 -3.5 -8.5t-8.5 -3.5h-117q-5 0 -8.5 3.5t-3.5 8.5v276q0 5 -5 5h-221q-5 0 -5 -5v-276q0 -5 -3.5 -8.5t-8.5 -3.5h-117q-5 0 -8.5 3.5t-3.5 8.5v490q0 5 -5 5h-41q-5 0 -8.5 3.5
t-3.5 8.5v71q0 5 3.5 8.5t8.5 3.5h41q5 0 5 5v81q0 5 3.5 8.5t8.5 3.5h117q5 0 8.5 -3.5t3.5 -8.5v-81q0 -5 5 -5h221q5 0 5 5v81q0 5 3.5 8.5t8.5 3.5h117q5 0 8.5 -3.5t3.5 -8.5v-81q0 -5 5 -5h41zM428 414q5 0 5 5v83q0 5 -5 5h-221q-5 0 -5 -5v-83q0 -5 5 -5h221z" />
    <glyph glyph-name="hbar" unicode="&#x127;" 
d="M320 522q80 0 129 -49t49 -133v-328q0 -5 -3.5 -8.5t-8.5 -3.5h-117q-5 0 -8.5 3.5t-3.5 8.5v299q0 40 -22.5 65t-59.5 25t-59.5 -25t-22.5 -65v-299q0 -5 -3.5 -8.5t-8.5 -3.5h-117q-5 0 -8.5 3.5t-3.5 8.5v532q0 5 -5 5h-46q-5 0 -8.5 3.5t-3.5 8.5v61q0 5 3.5 8.5
t8.5 3.5h46q5 0 5 5v49q0 5 3.5 8.5t8.5 3.5h117q5 0 8.5 -3.5t3.5 -8.5v-49q0 -5 5 -5h133q5 0 8.5 -3.5t3.5 -8.5v-61q0 -5 -3.5 -8.5t-8.5 -3.5h-133q-5 0 -5 -5v-77q0 -3 2 -4t3 1q41 58 122 58z" />
    <glyph glyph-name="Itilde" unicode="&#x128;" horiz-adv-x="263" 
d="M73 0q-5 0 -8.5 3.5t-3.5 8.5v676q0 5 3.5 8.5t8.5 3.5h117q5 0 8.5 -3.5t3.5 -8.5v-676q0 -5 -3.5 -8.5t-8.5 -3.5h-117zM195 759q-21 0 -35 4.5t-32 13.5q-21 10 -30.5 13.5t-20.5 3.5q-31 0 -53 -22q-5 -5 -9 -5q-5 0 -8 4l-41 44q-7 9 -2 17q16 28 44 45t62 17
q19 0 33.5 -5t26 -10.5t15.5 -7.5q19 -10 29 -14t21 -4q31 0 48 24q4 5 9 5t8 -4l37 -45q6 -7 3 -14q-13 -27 -40.5 -43.5t-64.5 -16.5z" />
    <glyph glyph-name="itilde" unicode="&#x129;" horiz-adv-x="237" 
d="M60 0q-5 0 -8.5 3.5t-3.5 8.5v490q0 5 3.5 8.5t8.5 3.5h117q5 0 8.5 -3.5t3.5 -8.5v-490q0 -5 -3.5 -8.5t-8.5 -3.5h-117zM182 573q-21 0 -35 4.5t-32 13.5q-21 10 -30.5 13.5t-20.5 3.5q-31 0 -53 -22q-5 -5 -9 -5q-5 0 -8 4l-41 44q-7 9 -2 17q16 28 44 45t62 17
q19 0 33.5 -5t26 -10.5t15.5 -7.5q19 -10 29 -14t21 -4q31 0 48 24q4 5 9 5t8 -4l37 -45q6 -7 3 -14q-13 -27 -40.5 -43.5t-64.5 -16.5z" />
    <glyph glyph-name="Imacron" unicode="&#x12a;" horiz-adv-x="263" 
d="M73 0q-5 0 -8.5 3.5t-3.5 8.5v676q0 5 3.5 8.5t8.5 3.5h117q5 0 8.5 -3.5t3.5 -8.5v-676q0 -5 -3.5 -8.5t-8.5 -3.5h-117zM-3 764q-5 0 -8.5 3.5t-3.5 8.5v71q0 5 3.5 8.5t8.5 3.5h270q5 0 8.5 -3.5t3.5 -8.5v-71q0 -5 -3.5 -8.5t-8.5 -3.5h-270z" />
    <glyph glyph-name="imacron" unicode="&#x12b;" horiz-adv-x="237" 
d="M60 0q-5 0 -8.5 3.5t-3.5 8.5v490q0 5 3.5 8.5t8.5 3.5h117q5 0 8.5 -3.5t3.5 -8.5v-490q0 -5 -3.5 -8.5t-8.5 -3.5h-117zM-16 578q-5 0 -8.5 3.5t-3.5 8.5v71q0 5 3.5 8.5t8.5 3.5h270q5 0 8.5 -3.5t3.5 -8.5v-71q0 -5 -3.5 -8.5t-8.5 -3.5h-270z" />
    <glyph glyph-name="ibreve" unicode="&#x12d;" horiz-adv-x="237" 
d="M60 0q-5 0 -8.5 3.5t-3.5 8.5v490q0 5 3.5 8.5t8.5 3.5h117q5 0 8.5 -3.5t3.5 -8.5v-490q0 -5 -3.5 -8.5t-8.5 -3.5h-117zM118 566q-64 0 -108 32t-49 82v2q0 10 11 10l60 -1q10 0 12 -11q5 -21 25.5 -34t48.5 -13q29 0 50.5 13t25.5 35q2 11 12 11h58q12 0 12 -10
q-5 -50 -49 -83t-109 -33z" />
    <glyph glyph-name="Iogonek" unicode="&#x12e;" horiz-adv-x="254" 
d="M68 0q-5 0 -8.5 3.5t-3.5 8.5v676q0 5 3.5 8.5t8.5 3.5h117q5 0 8.5 -3.5t3.5 -8.5v-676q0 -5 -3.5 -8.5t-8.5 -3.5h-117zM205 -171q0 -8 -9 -11q-29 -11 -62 -11q-34 0 -59.5 15t-34.5 49q-3 12 -3 25q0 52 57 99q6 5 15 5h64q9 0 9 -6q0 -3 -6 -9q-46 -36 -46 -66
q0 -16 9.5 -24t25.5 -8q9 0 18 3q2 1 6 1q7 0 9 -9l7 -50v-3z" />
    <glyph glyph-name="iogonek" unicode="&#x12f;" horiz-adv-x="266" 
d="M80 0q-5 0 -8.5 3.5t-3.5 8.5v490q0 5 3.5 8.5t8.5 3.5h117q5 0 8.5 -3.5t3.5 -8.5v-490q0 -5 -3.5 -8.5t-8.5 -3.5h-117zM139 572q-34 0 -56.5 22.5t-22.5 56.5q0 35 22 57t57 22t57 -22t22 -57q0 -34 -22.5 -56.5t-56.5 -22.5zM217 -171q0 -8 -9 -11q-29 -11 -62 -11
q-34 0 -59.5 15t-34.5 49q-3 12 -3 25q0 52 57 99q6 5 15 5h64q9 0 9 -6q0 -3 -6 -9q-46 -36 -46 -66q0 -16 9.5 -24t25.5 -8q9 0 18 3q2 1 6 1q7 0 9 -9l7 -50v-3z" />
    <glyph glyph-name="Idotaccent" unicode="&#x130;" horiz-adv-x="263" 
d="M73 0q-5 0 -8.5 3.5t-3.5 8.5v676q0 5 3.5 8.5t8.5 3.5h117q5 0 8.5 -3.5t3.5 -8.5v-676q0 -5 -3.5 -8.5t-8.5 -3.5h-117zM131 758q-34 0 -56.5 22.5t-22.5 56.5q0 35 22 57t57 22t57 -22t22 -57q0 -34 -22.5 -56.5t-56.5 -22.5z" />
    <glyph glyph-name="dotlessi" unicode="&#x131;" horiz-adv-x="237" 
d="M60 0q-5 0 -8.5 3.5t-3.5 8.5v490q0 5 3.5 8.5t8.5 3.5h117q5 0 8.5 -3.5t3.5 -8.5v-490q0 -5 -3.5 -8.5t-8.5 -3.5h-117z" />
    <glyph glyph-name="ij" unicode="&#x133;" horiz-adv-x="495" 
d="M128 572q-34 0 -56.5 22.5t-22.5 56.5q0 35 22 57t57 22t57 -22t22 -57q0 -34 -22.5 -56.5t-56.5 -22.5zM68 0q-5 0 -8.5 3.5t-3.5 8.5v491q0 5 3.5 8.5t8.5 3.5h117q5 0 8.5 -3.5t3.5 -8.5v-491q0 -5 -3.5 -8.5t-8.5 -3.5h-117zM368 572q-34 0 -56 22.5t-22 56.5
q0 35 22 57t56 22q35 0 57 -22t22 -57q0 -34 -22.5 -56.5t-56.5 -22.5zM193 -204q-12 0 -12 12v95q0 13 13 11q59 -2 82.5 17t23.5 67l-2 504q0 5 3.5 8.5t8.5 3.5h117q5 0 8.5 -3.5t3.5 -8.5v-502q0 -81 -22 -125.5t-74.5 -62.5t-149.5 -16z" />
    <glyph glyph-name="Jcircumflex" unicode="&#x134;" horiz-adv-x="583" 
d="M270 -8q-76 0 -132.5 28.5t-87.5 80t-31 119.5v63q0 5 3.5 8.5t8.5 3.5h117q5 0 8.5 -3.5t3.5 -8.5v-63q0 -48 29.5 -77.5t80.5 -29.5q49 0 80.5 29.5t31.5 77.5v468q0 5 3.5 8.5t8.5 3.5h116q5 0 8.5 -3.5t3.5 -8.5v-468q0 -68 -32 -119.5t-89 -80t-131 -28.5zM306 759
q-7 0 -9.5 4.5t1.5 10.5l73 105q5 8 14 8h133q9 0 14 -8l76 -105q3 -4 3 -7q0 -8 -11 -8h-90q-9 0 -14 8l-40 61q-3 6 -6 0l-40 -61q-5 -8 -14 -8h-90z" />
    <glyph glyph-name="jcircumflex" unicode="&#x135;" horiz-adv-x="257" 
d="M-48 -204q-12 0 -12 12v95q0 13 13 11q59 -2 82.5 17t23.5 67l-2 504q0 5 3.5 8.5t8.5 3.5h119q5 0 8.5 -3.5t3.5 -8.5v-502q0 -81 -22.5 -125.5t-75.5 -62.5t-150 -16zM-18 572q-7 0 -9.5 4.5t1.5 10.5l73 105q5 8 14 8h133q9 0 14 -8l76 -105q3 -4 3 -7q0 -8 -11 -8
h-90q-9 0 -14 8l-40 61q-3 6 -6 0l-40 -61q-5 -8 -14 -8h-90z" />
    <glyph glyph-name="uni0136" unicode="&#x136;" horiz-adv-x="626" 
d="M73 0q-5 0 -8.5 3.5t-3.5 8.5v676q0 5 3.5 8.5t8.5 3.5h117q5 0 8.5 -3.5t3.5 -8.5v-280q0 -3 2 -3.5t4 1.5l231 287q6 7 15 7h132q8 0 10 -4.5t-2 -10.5l-223 -285q-3 -4 -1 -7l236 -379q2 -6 2 -7q0 -7 -10 -7h-132q-10 0 -14 8l-178 288q-1 2 -3 2t-4 -2l-63 -79
q-2 -4 -2 -6v-199q0 -5 -3.5 -8.5t-8.5 -3.5h-117zM214 -174q-7 0 -9 4t1 10l53 101q4 9 15 9h101q7 0 9.5 -4.5t-1.5 -10.5l-71 -101q-5 -8 -14 -8h-84z" />
    <glyph glyph-name="uni0137" unicode="&#x137;" horiz-adv-x="533" 
d="M64 0q-5 0 -8.5 3.5t-3.5 8.5v676q0 5 3.5 8.5t8.5 3.5h117q5 0 8.5 -3.5t3.5 -8.5v-337q0 -3 2 -3.5t4 1.5l136 158q7 7 15 7h133q10 0 10 -7q0 -3 -3 -8l-127 -161q-2 -4 -1 -7l149 -317q2 -4 2 -6q0 -8 -11 -8h-123q-10 0 -14 9l-99 234q-1 2 -3.5 2.5t-3.5 -1.5
l-64 -80q-2 -4 -2 -6v-146q0 -5 -3.5 -8.5t-8.5 -3.5h-117zM179 -174q-7 0 -9 4t1 10l53 101q4 9 15 9h101q7 0 9.5 -4.5t-1.5 -10.5l-71 -101q-5 -8 -14 -8h-84z" />
    <glyph glyph-name="Lacute" unicode="&#x139;" horiz-adv-x="572" 
d="M73 0q-5 0 -8.5 3.5t-3.5 8.5v676q0 5 3.5 8.5t8.5 3.5h117q5 0 8.5 -3.5t3.5 -8.5v-562q0 -5 5 -5h327q5 0 8.5 -3.5t3.5 -8.5v-97q0 -5 -3.5 -8.5t-8.5 -3.5h-461zM75 762q-7 0 -9 4t1 10l53 101q4 9 15 9h101q7 0 9.5 -4.5t-1.5 -10.5l-71 -101q-5 -8 -14 -8h-84z" />
    <glyph glyph-name="lacute" unicode="&#x13a;" horiz-adv-x="244" 
d="M64 0q-5 0 -8.5 3.5t-3.5 8.5v676q0 5 3.5 8.5t8.5 3.5h117q5 0 8.5 -3.5t3.5 -8.5v-676q0 -5 -3.5 -8.5t-8.5 -3.5h-117zM68 762q-7 0 -9 4t1 10l53 101q4 9 15 9h101q7 0 9.5 -4.5t-1.5 -10.5l-71 -101q-5 -8 -14 -8h-84z" />
    <glyph glyph-name="uni013B" unicode="&#x13b;" horiz-adv-x="572" 
d="M73 0q-5 0 -8.5 3.5t-3.5 8.5v676q0 5 3.5 8.5t8.5 3.5h117q5 0 8.5 -3.5t3.5 -8.5v-562q0 -5 5 -5h327q5 0 8.5 -3.5t3.5 -8.5v-97q0 -5 -3.5 -8.5t-8.5 -3.5h-461zM182 -174q-7 0 -9 4t1 10l53 101q4 9 15 9h101q7 0 9.5 -4.5t-1.5 -10.5l-71 -101q-5 -8 -14 -8h-84z
" />
    <glyph glyph-name="uni013C" unicode="&#x13c;" horiz-adv-x="244" 
d="M64 0q-5 0 -8.5 3.5t-3.5 8.5v676q0 5 3.5 8.5t8.5 3.5h117q5 0 8.5 -3.5t3.5 -8.5v-676q0 -5 -3.5 -8.5t-8.5 -3.5h-117zM7 -174q-7 0 -9 4t1 10l53 101q4 9 15 9h101q7 0 9.5 -4.5t-1.5 -10.5l-71 -101q-5 -8 -14 -8h-84z" />
    <glyph glyph-name="Lcaron" unicode="&#x13d;" horiz-adv-x="572" 
d="M73 0q-5 0 -8.5 3.5t-3.5 8.5v676q0 5 3.5 8.5t8.5 3.5h117q5 0 8.5 -3.5t3.5 -8.5v-562q0 -5 5 -5h327q5 0 8.5 -3.5t3.5 -8.5v-97q0 -5 -3.5 -8.5t-8.5 -3.5h-461zM276 576q-7 0 -9 4t1 10l53 101q4 9 15 9h101q7 0 9.5 -4.5t-1.5 -10.5l-71 -101q-5 -8 -14 -8h-84z
" />
    <glyph glyph-name="lcaron" unicode="&#x13e;" horiz-adv-x="435" 
d="M64 0q-5 0 -8.5 3.5t-3.5 8.5v676q0 5 3.5 8.5t8.5 3.5h117q5 0 8.5 -3.5t3.5 -8.5v-676q0 -5 -3.5 -8.5t-8.5 -3.5h-117zM233 576q-7 0 -9 4t1 10l53 101q4 9 15 9h101q7 0 9.5 -4.5t-1.5 -10.5l-71 -101q-5 -8 -14 -8h-84z" />
    <glyph glyph-name="ldot" unicode="&#x140;" horiz-adv-x="262" 
d="M72 0q-5 0 -8.5 3.5t-3.5 8.5v676q0 5 3.5 8.5t8.5 3.5h117q5 0 8.5 -3.5t3.5 -8.5v-676q0 -5 -3.5 -8.5t-8.5 -3.5h-117zM132 758q-34 0 -56.5 22.5t-22.5 56.5q0 35 22 57t57 22t57 -22t22 -57q0 -34 -22.5 -56.5t-56.5 -22.5z" />
    <glyph glyph-name="Lslash" unicode="&#x141;" horiz-adv-x="646" 
d="M277 126q0 -5 5 -5h327q5 0 8.5 -3.5t3.5 -8.5v-97q0 -5 -3.5 -8.5t-8.5 -3.5h-461q-5 0 -8.5 3.5t-3.5 8.5v181q0 3 -2 4t-4 -1l-75 -62q-6 -4 -8 -4q-4 0 -9 5l-53 63q-4 6 -4 8q0 4 5 9l147 123q3 2 3 6v344q0 5 3.5 8.5t8.5 3.5h117q5 0 8.5 -3.5t3.5 -8.5v-222
q0 -3 2 -4t4 1l183 152q6 4 8 4q4 0 9 -5l53 -63q4 -6 4 -8q0 -4 -5 -9l-255 -213q-3 -1 -3 -6v-189z" />
    <glyph glyph-name="lslash" unicode="&#x142;" horiz-adv-x="435" 
d="M415 414q2 -4 2 -6q0 -7 -7 -11l-126 -69q-4 -3 -4 -6v-310q0 -5 -3.5 -8.5t-8.5 -3.5h-117q-5 0 -8.5 3.5t-3.5 8.5v229q0 3 -2 4t-4 0l-60 -33q-4 -2 -7 -2q-7 0 -10 7l-36 69q-2 4 -2 6q0 6 6 10l112 62q3 2 3 6v318q0 5 3.5 8.5t8.5 3.5h117q5 0 8.5 -3.5t3.5 -8.5
v-236q0 -3 2 -4.5t4 0.5l74 41q4 2 6 2q5 0 10 -6z" />
    <glyph glyph-name="Nacute" unicode="&#x143;" horiz-adv-x="665" 
d="M463 688q0 5 3.5 8.5t8.5 3.5h117q5 0 8.5 -3.5t3.5 -8.5v-676q0 -5 -3.5 -8.5t-8.5 -3.5h-113q-10 0 -14 8l-259 428q-2 3 -4 2.5t-2 -4.5l2 -422q0 -5 -3.5 -8.5t-8.5 -3.5h-117q-5 0 -8.5 3.5t-3.5 8.5v676q0 5 3.5 8.5t8.5 3.5h113q10 0 14 -8l258 -426q2 -3 4 -2.5
t2 4.5zM270 762q-7 0 -9 4t1 10l53 101q4 9 15 9h101q7 0 9.5 -4.5t-1.5 -10.5l-71 -101q-5 -8 -14 -8h-84z" />
    <glyph glyph-name="nacute" unicode="&#x144;" 
d="M320 522q80 0 129 -49t49 -133v-328q0 -5 -3.5 -8.5t-8.5 -3.5h-117q-5 0 -8.5 3.5t-3.5 8.5v299q0 40 -22.5 65t-59.5 25t-59.5 -25t-22.5 -65v-299q0 -5 -3.5 -8.5t-8.5 -3.5h-117q-5 0 -8.5 3.5t-3.5 8.5v490q0 5 3.5 8.5t8.5 3.5h117q5 0 8.5 -3.5t3.5 -8.5v-35
q0 -3 2 -4t3 1q41 58 122 58zM223 576q-7 0 -9 4t1 10l53 101q4 9 15 9h101q7 0 9.5 -4.5t-1.5 -10.5l-71 -101q-5 -8 -14 -8h-84z" />
    <glyph glyph-name="uni0145" unicode="&#x145;" horiz-adv-x="665" 
d="M463 688q0 5 3.5 8.5t8.5 3.5h117q5 0 8.5 -3.5t3.5 -8.5v-676q0 -5 -3.5 -8.5t-8.5 -3.5h-113q-10 0 -14 8l-259 428q-2 3 -4 2.5t-2 -4.5l2 -422q0 -5 -3.5 -8.5t-8.5 -3.5h-117q-5 0 -8.5 3.5t-3.5 8.5v676q0 5 3.5 8.5t8.5 3.5h113q10 0 14 -8l258 -426q2 -3 4 -2.5
t2 4.5zM236 -174q-7 0 -9 4t1 10l53 101q4 9 15 9h101q7 0 9.5 -4.5t-1.5 -10.5l-71 -101q-5 -8 -14 -8h-84z" />
    <glyph glyph-name="uni0146" unicode="&#x146;" 
d="M320 522q80 0 129 -49t49 -133v-328q0 -5 -3.5 -8.5t-8.5 -3.5h-117q-5 0 -8.5 3.5t-3.5 8.5v299q0 40 -22.5 65t-59.5 25t-59.5 -25t-22.5 -65v-299q0 -5 -3.5 -8.5t-8.5 -3.5h-117q-5 0 -8.5 3.5t-3.5 8.5v490q0 5 3.5 8.5t8.5 3.5h117q5 0 8.5 -3.5t3.5 -8.5v-35
q0 -3 2 -4t3 1q41 58 122 58zM181 -174q-7 0 -9 4t1 10l53 101q4 9 15 9h101q7 0 9.5 -4.5t-1.5 -10.5l-71 -101q-5 -8 -14 -8h-84z" />
    <glyph glyph-name="Ncaron" unicode="&#x147;" horiz-adv-x="665" 
d="M463 688q0 5 3.5 8.5t8.5 3.5h117q5 0 8.5 -3.5t3.5 -8.5v-676q0 -5 -3.5 -8.5t-8.5 -3.5h-113q-10 0 -14 8l-259 428q-2 3 -4 2.5t-2 -4.5l2 -422q0 -5 -3.5 -8.5t-8.5 -3.5h-117q-5 0 -8.5 3.5t-3.5 8.5v676q0 5 3.5 8.5t8.5 3.5h113q10 0 14 -8l258 -426q2 -3 4 -2.5
t2 4.5zM177 871q-2 3 -2 7q0 8 10 8h90q9 0 14 -8l40 -61q3 -6 6 0l40 61q5 8 14 8h90q8 0 10 -4.5t-2 -10.5l-76 -106q-5 -7 -14 -7h-133q-9 0 -14 8z" />
    <glyph glyph-name="ncaron" unicode="&#x148;" 
d="M320 522q80 0 129 -49t49 -133v-328q0 -5 -3.5 -8.5t-8.5 -3.5h-117q-5 0 -8.5 3.5t-3.5 8.5v299q0 40 -22.5 65t-59.5 25t-59.5 -25t-22.5 -65v-299q0 -5 -3.5 -8.5t-8.5 -3.5h-117q-5 0 -8.5 3.5t-3.5 8.5v490q0 5 3.5 8.5t8.5 3.5h117q5 0 8.5 -3.5t3.5 -8.5v-35
q0 -3 2 -4t3 1q41 58 122 58zM131 685q-2 3 -2 7q0 8 10 8h90q9 0 14 -8l40 -61q3 -6 6 0l40 61q5 8 14 8h90q8 0 10 -4.5t-2 -10.5l-76 -106q-5 -7 -14 -7h-133q-9 0 -14 8z" />
    <glyph glyph-name="Eng" unicode="&#x14a;" horiz-adv-x="665" 
d="M463 688q0 5 3.5 8.5t8.5 3.5h117q5 0 8.5 -3.5t3.5 -8.5v-688q-3 -73 -25.5 -112.5t-73 -56t-142.5 -14.5q-12 0 -12 12v94q0 13 13 11q54 -2 75.5 15t23.5 60q0 2 -2 6l-255 421q-2 3 -4 2.5t-2 -4.5l2 -422q0 -5 -3.5 -8.5t-8.5 -3.5h-117q-5 0 -8.5 3.5t-3.5 8.5v676
q0 5 3.5 8.5t8.5 3.5h113q10 0 14 -8l257 -425q2 -3 4 -2.5t2 4.5v419z" />
    <glyph glyph-name="eng" unicode="&#x14b;" horiz-adv-x="548" 
d="M498 217q0 -1 2 -5q1 -3 1 -10v-188q0 -76 -17.5 -119t-65.5 -63.5t-140 -21.5q-12 0 -12 12v89q0 12 12 12q43 3 61 19.5t21 54.5q0 1 -2 5q-1 3 -1 10v299q0 40 -22.5 65t-59.5 25t-59.5 -25t-22.5 -65v-299q0 -5 -3.5 -8.5t-8.5 -3.5h-117q-5 0 -8.5 3.5t-3.5 8.5v490
q0 5 3.5 8.5t8.5 3.5h117q5 0 8.5 -3.5t3.5 -8.5v-35q0 -3 2 -4t4 2q39 57 121 57q80 0 129 -49t49 -133v-123z" />
    <glyph glyph-name="Omacron" unicode="&#x14c;" horiz-adv-x="621" 
d="M310 -11q-78 0 -137.5 32t-92.5 89.5t-33 132.5v214q0 74 33 131t92.5 88.5t137.5 31.5q79 0 138.5 -31.5t92.5 -88.5t33 -131v-214q0 -75 -33 -133t-92.5 -89.5t-138.5 -31.5zM310 110q55 0 89 35t34 93v220q0 58 -33.5 93.5t-89.5 35.5q-55 0 -88.5 -35.5t-33.5 -93.5
v-220q0 -58 33.5 -93t88.5 -35zM175 764q-5 0 -8.5 3.5t-3.5 8.5v71q0 5 3.5 8.5t8.5 3.5h270q5 0 8.5 -3.5t3.5 -8.5v-71q0 -5 -3.5 -8.5t-8.5 -3.5h-270z" />
    <glyph glyph-name="omacron" unicode="&#x14d;" horiz-adv-x="549" 
d="M279 -8q-84 0 -144 44t-82 120q-14 47 -14 102q0 59 14 106q23 74 83 116t144 42q82 0 140 -41.5t82 -115.5q16 -50 16 -105q0 -54 -14 -101q-22 -78 -81.5 -122.5t-143.5 -44.5zM279 113q33 0 56 20t33 55q8 32 8 70q0 42 -8 71q-11 34 -34 53t-56 19q-34 0 -56.5 -19
t-32.5 -53q-8 -24 -8 -71q0 -45 7 -70q10 -35 33.5 -55t57.5 -20zM140 578q-5 0 -8.5 3.5t-3.5 8.5v71q0 5 3.5 8.5t8.5 3.5h270q5 0 8.5 -3.5t3.5 -8.5v-71q0 -5 -3.5 -8.5t-8.5 -3.5h-270z" />
    <glyph glyph-name="obreve" unicode="&#x14f;" horiz-adv-x="549" 
d="M279 -8q-84 0 -144 44t-82 120q-14 47 -14 102q0 59 14 106q23 74 83 116t144 42q82 0 140 -41.5t82 -115.5q16 -50 16 -105q0 -54 -14 -101q-22 -78 -81.5 -122.5t-143.5 -44.5zM279 113q33 0 56 20t33 55q8 32 8 70q0 42 -8 71q-11 34 -34 53t-56 19q-34 0 -56.5 -19
t-32.5 -53q-8 -24 -8 -71q0 -45 7 -70q10 -35 33.5 -55t57.5 -20zM274 566q-64 0 -108 32t-49 82v2q0 10 11 10l60 -1q10 0 12 -11q5 -21 25.5 -34t48.5 -13q29 0 50.5 13t25.5 35q2 11 12 11h58q12 0 12 -10q-5 -50 -49 -83t-109 -33z" />
    <glyph glyph-name="Ohungarumlaut" unicode="&#x150;" horiz-adv-x="621" 
d="M310 -11q-78 0 -137.5 32t-92.5 89.5t-33 132.5v214q0 74 33 131t92.5 88.5t137.5 31.5q79 0 138.5 -31.5t92.5 -88.5t33 -131v-214q0 -75 -33 -133t-92.5 -89.5t-138.5 -31.5zM310 110q55 0 89 35t34 93v220q0 58 -33.5 93.5t-89.5 35.5q-55 0 -88.5 -35.5t-33.5 -93.5
v-220q0 -58 33.5 -93t88.5 -35zM178 762q-7 0 -10 3.5t0 10.5l47 101q4 9 14 9h103q7 0 9.5 -4t-0.5 -10l-53 -101q-5 -9 -15 -9h-95zM356 762q-7 0 -9.5 4t0.5 10l53 101q4 9 15 9h96q7 0 9 -4t-1 -10l-53 -101q-5 -9 -15 -9h-95z" />
    <glyph glyph-name="ohungarumlaut" unicode="&#x151;" horiz-adv-x="549" 
d="M279 -8q-84 0 -144 44t-82 120q-14 47 -14 102q0 59 14 106q23 74 83 116t144 42q82 0 140 -41.5t82 -115.5q16 -50 16 -105q0 -54 -14 -101q-22 -78 -81.5 -122.5t-143.5 -44.5zM279 113q33 0 56 20t33 55q8 32 8 70q0 42 -8 71q-11 34 -34 53t-56 19q-34 0 -56.5 -19
t-32.5 -53q-8 -24 -8 -71q0 -45 7 -70q10 -35 33.5 -55t57.5 -20zM143 576q-7 0 -10 3.5t0 10.5l47 101q4 9 14 9h103q7 0 9.5 -4t-0.5 -10l-53 -101q-5 -9 -15 -9h-95zM321 576q-7 0 -9.5 4t0.5 10l53 101q4 9 15 9h96q7 0 9 -4t-1 -10l-53 -101q-5 -9 -15 -9h-95z" />
    <glyph glyph-name="OE" unicode="&#x152;" horiz-adv-x="930" 
d="M893 591q0 -5 -3.5 -8.5t-8.5 -3.5h-313q-5 0 -5 -5v-155q0 -5 5 -5h200q5 0 8.5 -3.5t3.5 -8.5v-97q0 -5 -3.5 -8.5t-8.5 -3.5h-200q-5 0 -5 -5v-162q0 -5 5 -5h313q5 0 8.5 -3.5t3.5 -8.5v-97q0 -5 -3.5 -8.5t-8.5 -3.5h-447q-5 0 -8.5 3.5t-3.5 8.5v21q0 3 -2 4t-4 -1
q-32 -23 -70 -35t-78 -12q-60 0 -111 31.5t-80.5 88t-29.5 128.5v225q0 71 29.5 127t80.5 87.5t111 31.5q40 0 78.5 -12t69.5 -35q2 -1 4 0t2 4v23q0 5 3.5 8.5t8.5 3.5h447q5 0 8.5 -3.5t3.5 -8.5v-97zM304 110q53 0 85.5 34.5t32.5 88.5v231q0 54 -32.5 88.5t-85.5 34.5
q-52 0 -84 -34.5t-32 -88.5v-231q0 -54 32 -88.5t84 -34.5z" />
    <glyph glyph-name="oe" unicode="&#x153;" horiz-adv-x="872" 
d="M631 110q24 0 49.5 12.5t41.5 33.5q5 7 10 7q3 0 7 -4l69 -59q9 -9 2 -17q-33 -44 -83 -67.5t-114 -23.5q-53 0 -97 19t-76 54q-3 4 -7 0q-31 -34 -73 -53.5t-89 -19.5q-77 0 -134.5 40t-81.5 109q-16 48 -16 118t16 117q23 67 81 106.5t135 39.5q47 0 89 -19t73 -53
q4 -4 8 0q31 34 72.5 53t88.5 19q79 0 138.5 -41t80.5 -107q16 -44 17 -154q0 -12 -12 -12h-306q-4 0 -4 -4q0 -12 6 -28q20 -66 109 -66zM350 176q11 30 11 83q0 52 -11 80q-8 29 -29 45.5t-50 16.5t-50 -16.5t-30 -45.5q-10 -27 -10 -80q0 -52 11 -83q8 -29 29 -46t50 -17
t50 17.5t29 45.5zM604 401q-31 0 -52 -17t-30 -46q-1 -4 -6 -29q-2 -5 4 -5h169q5 0 5 5q-5 25 -6 29q-8 29 -30.5 46t-53.5 17z" />
    <glyph glyph-name="Racute" unicode="&#x154;" horiz-adv-x="614" 
d="M445 0q-10 0 -14 9l-125 277q-2 4 -6 4h-93q-5 0 -5 -5v-273q0 -5 -3.5 -8.5t-8.5 -3.5h-117q-5 0 -8.5 3.5t-3.5 8.5v676q0 5 3.5 8.5t8.5 3.5h286q64 0 112.5 -26t75 -74t26.5 -111q0 -68 -34 -116.5t-95 -68.5q-5 -2 -3 -7l136 -283q2 -4 2 -6q0 -8 -11 -8h-123z
M207 579q-5 0 -5 -5v-171q0 -5 5 -5h131q42 0 68.5 25t26.5 65t-26.5 65.5t-68.5 25.5h-131zM231 762q-7 0 -9 4t1 10l53 101q4 9 15 9h101q7 0 9.5 -4.5t-1.5 -10.5l-71 -101q-5 -8 -14 -8h-84z" />
    <glyph glyph-name="racute" unicode="&#x155;" horiz-adv-x="383" 
d="M308 521q36 0 57 -14q8 -4 6 -15l-21 -114q-1 -12 -14 -7q-15 5 -35 5q-8 0 -22 -2q-36 -3 -61 -26.5t-25 -62.5v-273q0 -5 -3.5 -8.5t-8.5 -3.5h-117q-5 0 -8.5 3.5t-3.5 8.5v490q0 5 3.5 8.5t8.5 3.5h117q5 0 8.5 -3.5t3.5 -8.5v-38q0 -3 2 -4t3 1q41 60 110 60z
M159 576q-7 0 -9 4t1 10l53 101q4 9 15 9h101q7 0 9.5 -4.5t-1.5 -10.5l-71 -101q-5 -8 -14 -8h-84z" />
    <glyph glyph-name="uni0156" unicode="&#x156;" horiz-adv-x="614" 
d="M445 0q-10 0 -14 9l-125 277q-2 4 -6 4h-93q-5 0 -5 -5v-273q0 -5 -3.5 -8.5t-8.5 -3.5h-117q-5 0 -8.5 3.5t-3.5 8.5v676q0 5 3.5 8.5t8.5 3.5h286q64 0 112.5 -26t75 -74t26.5 -111q0 -68 -34 -116.5t-95 -68.5q-5 -2 -3 -7l136 -283q2 -4 2 -6q0 -8 -11 -8h-123z
M207 579q-5 0 -5 -5v-171q0 -5 5 -5h131q42 0 68.5 25t26.5 65t-26.5 65.5t-68.5 25.5h-131zM203 -174q-7 0 -9 4t1 10l53 101q4 9 15 9h101q7 0 9.5 -4.5t-1.5 -10.5l-71 -101q-5 -8 -14 -8h-84z" />
    <glyph glyph-name="uni0157" unicode="&#x157;" horiz-adv-x="383" 
d="M308 521q36 0 57 -14q8 -4 6 -15l-21 -114q-1 -12 -14 -7q-15 5 -35 5q-8 0 -22 -2q-36 -3 -61 -26.5t-25 -62.5v-273q0 -5 -3.5 -8.5t-8.5 -3.5h-117q-5 0 -8.5 3.5t-3.5 8.5v490q0 5 3.5 8.5t8.5 3.5h117q5 0 8.5 -3.5t3.5 -8.5v-38q0 -3 2 -4t3 1q41 60 110 60z
M1 -174q-7 0 -9 4t1 10l53 101q4 9 15 9h101q7 0 9.5 -4.5t-1.5 -10.5l-71 -101q-5 -8 -14 -8h-84z" />
    <glyph glyph-name="Rcaron" unicode="&#x158;" horiz-adv-x="614" 
d="M445 0q-10 0 -14 9l-125 277q-2 4 -6 4h-93q-5 0 -5 -5v-273q0 -5 -3.5 -8.5t-8.5 -3.5h-117q-5 0 -8.5 3.5t-3.5 8.5v676q0 5 3.5 8.5t8.5 3.5h286q64 0 112.5 -26t75 -74t26.5 -111q0 -68 -34 -116.5t-95 -68.5q-5 -2 -3 -7l136 -283q2 -4 2 -6q0 -8 -11 -8h-123z
M207 579q-5 0 -5 -5v-171q0 -5 5 -5h131q42 0 68.5 25t26.5 65t-26.5 65.5t-68.5 25.5h-131zM138 871q-2 3 -2 7q0 8 10 8h90q9 0 14 -8l40 -61q3 -6 6 0l40 61q5 8 14 8h90q8 0 10 -4.5t-2 -10.5l-76 -106q-5 -7 -14 -7h-133q-9 0 -14 8z" />
    <glyph glyph-name="rcaron" unicode="&#x159;" horiz-adv-x="383" 
d="M308 521q36 0 57 -14q8 -4 6 -15l-21 -114q-1 -12 -14 -7q-15 5 -35 5q-8 0 -22 -2q-36 -3 -61 -26.5t-25 -62.5v-273q0 -5 -3.5 -8.5t-8.5 -3.5h-117q-5 0 -8.5 3.5t-3.5 8.5v490q0 5 3.5 8.5t8.5 3.5h117q5 0 8.5 -3.5t3.5 -8.5v-38q0 -3 2 -4t3 1q41 60 110 60z
M66 685q-2 3 -2 7q0 8 10 8h90q9 0 14 -8l40 -61q3 -6 6 0l40 61q5 8 14 8h90q8 0 10 -4.5t-2 -10.5l-76 -106q-5 -7 -14 -7h-133q-9 0 -14 8z" />
    <glyph glyph-name="Sacute" unicode="&#x15a;" horiz-adv-x="595" 
d="M301 -8q-80 0 -140 25.5t-92.5 73t-32.5 110.5v22q0 5 3.5 8.5t8.5 3.5h114q5 0 8.5 -3.5t3.5 -8.5v-15q0 -40 37 -67.5t100 -27.5q53 0 79 22.5t26 55.5q0 24 -16 40.5t-43.5 29t-87.5 34.5q-67 23 -113.5 47t-78 65.5t-31.5 102.5q0 60 31 105t86 69t127 24
q76 0 135.5 -27t93 -75.5t33.5 -112.5v-15q0 -5 -3.5 -8.5t-8.5 -3.5h-115q-5 0 -8.5 3.5t-3.5 8.5v8q0 42 -34.5 71.5t-94.5 29.5q-47 0 -73.5 -20t-26.5 -55q0 -25 15.5 -42t46 -30.5t94.5 -36.5q71 -26 111.5 -46t73 -59.5t32.5 -102.5q0 -94 -69 -148.5t-187 -54.5z
M239 762q-7 0 -9 4t1 10l53 101q4 9 15 9h101q7 0 9.5 -4.5t-1.5 -10.5l-71 -101q-5 -8 -14 -8h-84z" />
    <glyph glyph-name="sacute" unicode="&#x15b;" horiz-adv-x="504" 
d="M257 -7q-67 0 -117 19t-77.5 53t-27.5 77v10q0 5 3.5 8.5t8.5 3.5h111q5 0 8.5 -3.5t3.5 -8.5v-1q0 -22 24.5 -37.5t61.5 -15.5q34 0 55 13.5t21 33.5q0 18 -18 27t-59 19q-47 12 -74 23q-64 22 -102 54t-38 92q0 74 57.5 117.5t152.5 43.5q64 0 112 -20.5t74.5 -57.5
t26.5 -84q0 -5 -3.5 -8.5t-8.5 -3.5h-107q-5 0 -8.5 3.5t-3.5 8.5q0 22 -22.5 37t-59.5 15q-33 0 -54 -12t-21 -33q0 -20 20.5 -30t68.5 -21q11 -3 25 -6.5t30 -8.5q71 -21 112 -54t41 -96q0 -74 -58.5 -115.5t-157.5 -41.5zM196 576q-7 0 -9 4t1 10l53 101q4 9 15 9h101
q7 0 9.5 -4.5t-1.5 -10.5l-71 -101q-5 -8 -14 -8h-84z" />
    <glyph glyph-name="Scircumflex" unicode="&#x15c;" horiz-adv-x="595" 
d="M301 -8q-80 0 -140 25.5t-92.5 73t-32.5 110.5v22q0 5 3.5 8.5t8.5 3.5h114q5 0 8.5 -3.5t3.5 -8.5v-15q0 -40 37 -67.5t100 -27.5q53 0 79 22.5t26 55.5q0 24 -16 40.5t-43.5 29t-87.5 34.5q-67 23 -113.5 47t-78 65.5t-31.5 102.5q0 60 31 105t86 69t127 24
q76 0 135.5 -27t93 -75.5t33.5 -112.5v-15q0 -5 -3.5 -8.5t-8.5 -3.5h-115q-5 0 -8.5 3.5t-3.5 8.5v8q0 42 -34.5 71.5t-94.5 29.5q-47 0 -73.5 -20t-26.5 -55q0 -25 15.5 -42t46 -30.5t94.5 -36.5q71 -26 111.5 -46t73 -59.5t32.5 -102.5q0 -94 -69 -148.5t-187 -54.5z
M147 758q-7 0 -9.5 4.5t1.5 10.5l73 105q5 8 14 8h133q9 0 14 -8l76 -105q3 -4 3 -7q0 -8 -11 -8h-90q-9 0 -14 8l-40 61q-3 6 -6 0l-40 -61q-5 -8 -14 -8h-90z" />
    <glyph glyph-name="scircumflex" unicode="&#x15d;" horiz-adv-x="504" 
d="M257 -7q-67 0 -117 19t-77.5 53t-27.5 77v10q0 5 3.5 8.5t8.5 3.5h111q5 0 8.5 -3.5t3.5 -8.5v-1q0 -22 24.5 -37.5t61.5 -15.5q34 0 55 13.5t21 33.5q0 18 -18 27t-59 19q-47 12 -74 23q-64 22 -102 54t-38 92q0 74 57.5 117.5t152.5 43.5q64 0 112 -20.5t74.5 -57.5
t26.5 -84q0 -5 -3.5 -8.5t-8.5 -3.5h-107q-5 0 -8.5 3.5t-3.5 8.5q0 22 -22.5 37t-59.5 15q-33 0 -54 -12t-21 -33q0 -20 20.5 -30t68.5 -21q11 -3 25 -6.5t30 -8.5q71 -21 112 -54t41 -96q0 -74 -58.5 -115.5t-157.5 -41.5zM104 572q-7 0 -9.5 4.5t1.5 10.5l73 105
q5 8 14 8h133q9 0 14 -8l76 -105q3 -4 3 -7q0 -8 -11 -8h-90q-9 0 -14 8l-40 61q-3 6 -6 0l-40 -61q-5 -8 -14 -8h-90z" />
    <glyph glyph-name="Scedilla" unicode="&#x15e;" horiz-adv-x="595" 
d="M557 195q0 -82 -53.5 -134.5t-146.5 -64.5q-6 -2 -2 -6q43 -43 43 -88q0 -12 -3 -24q-9 -34 -35 -49t-60 -15q-32 0 -61 11q-11 3 -9 14l7 50q1 13 15 8q9 -3 18 -3q15 0 25 8.5t10 23.5q0 30 -46 66q-4 2 -6 2q-101 11 -159 66.5t-58 140.5v22q0 5 3.5 8.5t8.5 3.5h114
q5 0 8.5 -3.5t3.5 -8.5v-15q0 -40 37 -67.5t100 -27.5q53 0 79 22.5t26 55.5q0 24 -16 40.5t-43.5 29t-87.5 34.5q-67 23 -113.5 47t-78 65.5t-31.5 102.5q0 60 31 105t86 69t127 24q76 0 135.5 -27t93 -75.5t33.5 -112.5v-15q0 -5 -3.5 -8.5t-8.5 -3.5h-115q-5 0 -8.5 3.5
t-3.5 8.5v8q0 42 -34.5 71.5t-94.5 29.5q-47 0 -73.5 -20t-26.5 -55q0 -25 15.5 -42t46 -30.5t94.5 -36.5q71 -26 111.5 -46t73 -59.5t32.5 -102.5z" />
    <glyph glyph-name="scedilla" unicode="&#x15f;" horiz-adv-x="504" 
d="M473 150q0 -63 -42 -102.5t-115 -50.5q-6 -2 -2 -6q44 -43 44 -88q0 -12 -3 -24q-9 -34 -35 -49t-60 -15q-32 0 -61 11q-11 3 -9 14l7 50q1 13 15 8q9 -3 18 -3q15 0 25 8.5t10 23.5q0 29 -45 66q-4 2 -6 2q-83 9 -131 49t-48 98v10q0 5 3.5 8.5t8.5 3.5h111
q5 0 8.5 -3.5t3.5 -8.5v-1q0 -22 24.5 -37.5t61.5 -15.5q34 0 55 13.5t21 33.5q0 18 -18 27t-59 19q-47 12 -74 23q-64 22 -102 54t-38 92q0 74 57.5 117.5t152.5 43.5q64 0 112 -20.5t74.5 -57.5t26.5 -84q0 -5 -3.5 -8.5t-8.5 -3.5h-107q-5 0 -8.5 3.5t-3.5 8.5
q0 22 -22.5 37t-59.5 15q-33 0 -54 -12t-21 -33q0 -20 20.5 -30t68.5 -21q11 -3 25 -6.5t30 -8.5q71 -21 112 -54t41 -96z" />
    <glyph glyph-name="Scaron" unicode="&#x160;" horiz-adv-x="595" 
d="M301 -8q-80 0 -140 25.5t-92.5 73t-32.5 110.5v22q0 5 3.5 8.5t8.5 3.5h114q5 0 8.5 -3.5t3.5 -8.5v-15q0 -40 37 -67.5t100 -27.5q53 0 79 22.5t26 55.5q0 24 -16 40.5t-43.5 29t-87.5 34.5q-67 23 -113.5 47t-78 65.5t-31.5 102.5q0 60 31 105t86 69t127 24
q76 0 135.5 -27t93 -75.5t33.5 -112.5v-15q0 -5 -3.5 -8.5t-8.5 -3.5h-115q-5 0 -8.5 3.5t-3.5 8.5v8q0 42 -34.5 71.5t-94.5 29.5q-47 0 -73.5 -20t-26.5 -55q0 -25 15.5 -42t46 -30.5t94.5 -36.5q71 -26 111.5 -46t73 -59.5t32.5 -102.5q0 -94 -69 -148.5t-187 -54.5z
M146 871q-2 3 -2 7q0 8 10 8h90q9 0 14 -8l40 -61q3 -6 6 0l40 61q5 8 14 8h90q8 0 10 -4.5t-2 -10.5l-76 -106q-5 -7 -14 -7h-133q-9 0 -14 8z" />
    <glyph glyph-name="scaron" unicode="&#x161;" horiz-adv-x="504" 
d="M257 -7q-67 0 -117 19t-77.5 53t-27.5 77v10q0 5 3.5 8.5t8.5 3.5h111q5 0 8.5 -3.5t3.5 -8.5v-1q0 -22 24.5 -37.5t61.5 -15.5q34 0 55 13.5t21 33.5q0 18 -18 27t-59 19q-47 12 -74 23q-64 22 -102 54t-38 92q0 74 57.5 117.5t152.5 43.5q64 0 112 -20.5t74.5 -57.5
t26.5 -84q0 -5 -3.5 -8.5t-8.5 -3.5h-107q-5 0 -8.5 3.5t-3.5 8.5q0 22 -22.5 37t-59.5 15q-33 0 -54 -12t-21 -33q0 -20 20.5 -30t68.5 -21q11 -3 25 -6.5t30 -8.5q71 -21 112 -54t41 -96q0 -74 -58.5 -115.5t-157.5 -41.5zM103 685q-2 3 -2 7q0 8 10 8h90q9 0 14 -8
l40 -61q3 -6 6 0l40 61q5 8 14 8h90q8 0 10 -4.5t-2 -10.5l-76 -106q-5 -7 -14 -7h-133q-9 0 -14 8z" />
    <glyph glyph-name="uni0162" unicode="&#x162;" horiz-adv-x="585" 
d="M544 700q5 0 8.5 -3.5t3.5 -8.5v-98q0 -5 -3.5 -8.5t-8.5 -3.5h-179q-5 0 -5 -5v-561q0 -5 -3.5 -8.5t-8.5 -3.5h-117q-5 0 -8.5 3.5t-3.5 8.5v561q0 5 -5 5h-174q-5 0 -8.5 3.5t-3.5 8.5v98q0 5 3.5 8.5t8.5 3.5h504zM264 -182q-11 3 -9 14l7 50q1 13 14 9q10 -3 20 -3
q15 0 24.5 7.5t9.5 22.5q0 30 -47 67q-6 4 -6 9q0 6 10 6h65q9 0 14 -5q57 -47 57 -100q0 -12 -3 -24q-10 -34 -35.5 -49t-59.5 -15q-32 0 -61 11z" />
    <glyph glyph-name="uni0163" unicode="&#x163;" horiz-adv-x="380" 
d="M347 413q0 -5 -3.5 -8.5t-8.5 -3.5h-96q-5 0 -5 -5v-212q0 -33 13.5 -49t43.5 -16h33q5 0 8.5 -3.5t3.5 -8.5v-95q0 -10 -9 -12h-6q-3 -1 -8 -1q-6 0 -3 -7q36 -36 36 -79q0 -11 -3 -23q-9 -34 -35 -49t-60 -15q-33 0 -62 11q-10 3 -8 14l7 49q1 12 15 9q11 -3 19 -3
q15 0 24.5 8t9.5 24q0 13 -10 29t-28 31q-4 2 -6 2q-55 8 -82.5 37t-28.5 91v268q0 5 -5 5h-57q-5 0 -8.5 3.5t-3.5 8.5v89q0 5 3.5 8.5t8.5 3.5h57q5 0 5 5v119q0 5 3.5 8.5t8.5 3.5h112q5 0 8.5 -3.5t3.5 -8.5v-119q0 -5 5 -5h96q5 0 8.5 -3.5t3.5 -8.5v-89z" />
    <glyph glyph-name="Tcaron" unicode="&#x164;" horiz-adv-x="585" 
d="M544 700q5 0 8.5 -3.5t3.5 -8.5v-98q0 -5 -3.5 -8.5t-8.5 -3.5h-179q-5 0 -5 -5v-561q0 -5 -3.5 -8.5t-8.5 -3.5h-117q-5 0 -8.5 3.5t-3.5 8.5v561q0 5 -5 5h-174q-5 0 -8.5 3.5t-3.5 8.5v98q0 5 3.5 8.5t8.5 3.5h504zM140 870q-2 3 -2 7q0 8 10 8h90q9 0 14 -8l40 -61
q3 -6 6 0l40 61q5 8 14 8h90q8 0 10 -4.5t-2 -10.5l-76 -106q-5 -7 -14 -7h-133q-9 0 -14 8z" />
    <glyph glyph-name="tcaron" unicode="&#x165;" horiz-adv-x="380" 
d="M347 413q0 -5 -3.5 -8.5t-8.5 -3.5h-96q-5 0 -5 -5v-212q0 -33 13.5 -49t43.5 -16h33q5 0 8.5 -3.5t3.5 -8.5v-95q0 -11 -12 -13q-42 -2 -60 -2q-83 0 -124 27.5t-42 103.5v268q0 5 -5 5h-57q-5 0 -8.5 3.5t-3.5 8.5v89q0 5 3.5 8.5t8.5 3.5h57q5 0 5 5v119q0 5 3.5 8.5
t8.5 3.5h112q5 0 8.5 -3.5t3.5 -8.5v-119q0 -5 5 -5h96q5 0 8.5 -3.5t3.5 -8.5v-89zM271 576q-7 0 -9 4t1 10l53 101q4 9 15 9h101q7 0 9.5 -4.5t-1.5 -10.5l-71 -101q-5 -8 -14 -8h-84z" />
    <glyph glyph-name="Tbar" unicode="&#x166;" horiz-adv-x="585" 
d="M556 590q0 -5 -3.5 -8.5t-8.5 -3.5h-179q-5 0 -5 -5v-159q0 -5 5 -5h95q5 0 8.5 -3.5t3.5 -8.5v-61q0 -5 -3.5 -8.5t-8.5 -3.5h-95q-5 0 -5 -5v-307q0 -5 -3.5 -8.5t-8.5 -3.5h-117q-5 0 -8.5 3.5t-3.5 8.5v307q0 5 -5 5h-84q-5 0 -8.5 3.5t-3.5 8.5v61q0 5 3.5 8.5
t8.5 3.5h84q5 0 5 5v159q0 5 -5 5h-174q-5 0 -8.5 3.5t-3.5 8.5v98q0 5 3.5 8.5t8.5 3.5h504q5 0 8.5 -3.5t3.5 -8.5v-98z" />
    <glyph glyph-name="tbar" unicode="&#x167;" horiz-adv-x="380" 
d="M347 413q0 -5 -3.5 -8.5t-8.5 -3.5h-96q-5 0 -5 -5v-45q0 -5 5 -5h93q5 0 8.5 -3.5t3.5 -8.5v-61q0 -5 -3.5 -8.5t-8.5 -3.5h-93q-5 0 -5 -5v-72q0 -33 13.5 -49t43.5 -16h33q5 0 8.5 -3.5t3.5 -8.5v-95q0 -11 -12 -13q-42 -2 -60 -2q-83 0 -124 27.5t-42 103.5v128
q0 5 -5 5h-55q-5 0 -8.5 3.5t-3.5 8.5v61q0 5 3.5 8.5t8.5 3.5h55q5 0 5 5v45q0 5 -5 5h-57q-5 0 -8.5 3.5t-3.5 8.5v89q0 5 3.5 8.5t8.5 3.5h57q5 0 5 5v119q0 5 3.5 8.5t8.5 3.5h112q5 0 8.5 -3.5t3.5 -8.5v-119q0 -5 5 -5h96q5 0 8.5 -3.5t3.5 -8.5v-89z" />
    <glyph glyph-name="Utilde" unicode="&#x168;" horiz-adv-x="629" 
d="M315 -8q-77 0 -135.5 30t-91 84.5t-32.5 125.5v456q0 5 3.5 8.5t8.5 3.5h117q5 0 8.5 -3.5t3.5 -8.5v-457q0 -53 32.5 -85.5t85.5 -32.5t85.5 32.5t32.5 85.5v457q0 5 3.5 8.5t8.5 3.5h117q5 0 8.5 -3.5t3.5 -8.5v-456q0 -71 -32.5 -125.5t-91 -84.5t-135.5 -30zM379 759
q-21 0 -35 4.5t-32 13.5q-21 10 -30.5 13.5t-20.5 3.5q-31 0 -53 -22q-5 -5 -9 -5q-5 0 -8 4l-41 44q-7 9 -2 17q16 28 44 45t62 17q19 0 33.5 -5t26 -10.5t15.5 -7.5q19 -10 29 -14t21 -4q31 0 48 24q4 5 9 5t8 -4l37 -45q6 -7 3 -14q-13 -27 -40.5 -43.5t-64.5 -16.5z" />
    <glyph glyph-name="utilde" unicode="&#x169;" 
d="M352 502q0 5 3.5 8.5t8.5 3.5h117q5 0 8.5 -3.5t3.5 -8.5v-490q0 -5 -3.5 -8.5t-8.5 -3.5h-117q-5 0 -8.5 3.5t-3.5 8.5v34q0 3 -2 3.5t-4 -2.5q-40 -54 -124 -54q-76 0 -125 46t-49 129v334q0 5 3.5 8.5t8.5 3.5h116q5 0 8.5 -3.5t3.5 -8.5v-299q0 -40 21.5 -65
t59.5 -25q34 0 56 20.5t27 53.5v315zM336 573q-21 0 -35 4.5t-32 13.5q-21 10 -30.5 13.5t-20.5 3.5q-31 0 -53 -22q-5 -5 -9 -5q-5 0 -8 4l-41 44q-7 9 -2 17q16 28 44 45t62 17q19 0 33.5 -5t26 -10.5t15.5 -7.5q19 -10 29 -14t21 -4q31 0 48 24q4 5 9 5t8 -4l37 -45
q6 -7 3 -14q-13 -27 -40.5 -43.5t-64.5 -16.5z" />
    <glyph glyph-name="Umacron" unicode="&#x16a;" horiz-adv-x="629" 
d="M315 -8q-77 0 -135.5 30t-91 84.5t-32.5 125.5v456q0 5 3.5 8.5t8.5 3.5h117q5 0 8.5 -3.5t3.5 -8.5v-457q0 -53 32.5 -85.5t85.5 -32.5t85.5 32.5t32.5 85.5v457q0 5 3.5 8.5t8.5 3.5h117q5 0 8.5 -3.5t3.5 -8.5v-456q0 -71 -32.5 -125.5t-91 -84.5t-135.5 -30zM180 764
q-5 0 -8.5 3.5t-3.5 8.5v71q0 5 3.5 8.5t8.5 3.5h270q5 0 8.5 -3.5t3.5 -8.5v-71q0 -5 -3.5 -8.5t-8.5 -3.5h-270z" />
    <glyph glyph-name="umacron" unicode="&#x16b;" 
d="M352 502q0 5 3.5 8.5t8.5 3.5h117q5 0 8.5 -3.5t3.5 -8.5v-490q0 -5 -3.5 -8.5t-8.5 -3.5h-117q-5 0 -8.5 3.5t-3.5 8.5v34q0 3 -2 3.5t-4 -2.5q-40 -54 -124 -54q-76 0 -125 46t-49 129v334q0 5 3.5 8.5t8.5 3.5h116q5 0 8.5 -3.5t3.5 -8.5v-299q0 -40 21.5 -65
t59.5 -25q34 0 56 20.5t27 53.5v315zM138 578q-5 0 -8.5 3.5t-3.5 8.5v71q0 5 3.5 8.5t8.5 3.5h270q5 0 8.5 -3.5t3.5 -8.5v-71q0 -5 -3.5 -8.5t-8.5 -3.5h-270z" />
    <glyph glyph-name="Ubreve" unicode="&#x16c;" horiz-adv-x="629" 
d="M315 -8q-77 0 -135.5 30t-91 84.5t-32.5 125.5v456q0 5 3.5 8.5t8.5 3.5h117q5 0 8.5 -3.5t3.5 -8.5v-457q0 -53 32.5 -85.5t85.5 -32.5t85.5 32.5t32.5 85.5v457q0 5 3.5 8.5t8.5 3.5h117q5 0 8.5 -3.5t3.5 -8.5v-456q0 -71 -32.5 -125.5t-91 -84.5t-135.5 -30zM315 751
q-64 0 -108 32t-49 82v2q0 10 11 10l60 -1q10 0 12 -11q5 -21 25.5 -34t48.5 -13q29 0 50.5 13t25.5 35q2 11 12 11h58q12 0 12 -10q-5 -50 -49 -83t-109 -33z" />
    <glyph glyph-name="ubreve" unicode="&#x16d;" 
d="M352 502q0 5 3.5 8.5t8.5 3.5h117q5 0 8.5 -3.5t3.5 -8.5v-490q0 -5 -3.5 -8.5t-8.5 -3.5h-117q-5 0 -8.5 3.5t-3.5 8.5v34q0 3 -2 3.5t-4 -2.5q-40 -54 -124 -54q-76 0 -125 46t-49 129v334q0 5 3.5 8.5t8.5 3.5h116q5 0 8.5 -3.5t3.5 -8.5v-299q0 -40 21.5 -65
t59.5 -25q34 0 56 20.5t27 53.5v315zM272 566q-64 0 -108 32t-49 82v2q0 10 11 10l60 -1q10 0 12 -11q5 -21 25.5 -34t48.5 -13q29 0 50.5 13t25.5 35q2 11 12 11h58q12 0 12 -10q-5 -50 -49 -83t-109 -33z" />
    <glyph glyph-name="Uring" unicode="&#x16e;" horiz-adv-x="629" 
d="M315 -8q-77 0 -135.5 30t-91 84.5t-32.5 125.5v456q0 5 3.5 8.5t8.5 3.5h117q5 0 8.5 -3.5t3.5 -8.5v-457q0 -53 32.5 -85.5t85.5 -32.5t85.5 32.5t32.5 85.5v457q0 5 3.5 8.5t8.5 3.5h117q5 0 8.5 -3.5t3.5 -8.5v-456q0 -71 -32.5 -125.5t-91 -84.5t-135.5 -30zM316 749
q-53 0 -89 35.5t-36 88.5t36 88.5t89 35.5q52 0 88 -35.5t36 -88.5q0 -52 -36 -88t-88 -36zM316 823q20 0 35 14.5t15 35.5q0 22 -15 36.5t-35 14.5q-21 0 -36 -14.5t-15 -36.5q0 -21 15 -35.5t36 -14.5z" />
    <glyph glyph-name="uring" unicode="&#x16f;" 
d="M352 502q0 5 3.5 8.5t8.5 3.5h117q5 0 8.5 -3.5t3.5 -8.5v-490q0 -5 -3.5 -8.5t-8.5 -3.5h-117q-5 0 -8.5 3.5t-3.5 8.5v34q0 3 -2 3.5t-4 -2.5q-40 -54 -124 -54q-76 0 -125 46t-49 129v334q0 5 3.5 8.5t8.5 3.5h116q5 0 8.5 -3.5t3.5 -8.5v-299q0 -40 21.5 -65
t59.5 -25q34 0 56 20.5t27 53.5v315zM273 563q-53 0 -89 35.5t-36 88.5t36 88.5t89 35.5q52 0 88 -35.5t36 -88.5q0 -52 -36 -88t-88 -36zM273 637q20 0 35 14.5t15 35.5q0 22 -15 36.5t-35 14.5q-21 0 -36 -14.5t-15 -36.5q0 -21 15 -35.5t36 -14.5z" />
    <glyph glyph-name="Uhungarumlaut" unicode="&#x170;" horiz-adv-x="629" 
d="M315 -8q-77 0 -135.5 30t-91 84.5t-32.5 125.5v456q0 5 3.5 8.5t8.5 3.5h117q5 0 8.5 -3.5t3.5 -8.5v-457q0 -53 32.5 -85.5t85.5 -32.5t85.5 32.5t32.5 85.5v457q0 5 3.5 8.5t8.5 3.5h117q5 0 8.5 -3.5t3.5 -8.5v-456q0 -71 -32.5 -125.5t-91 -84.5t-135.5 -30zM183 762
q-7 0 -10 3.5t0 10.5l47 101q4 9 14 9h103q7 0 9.5 -4t-0.5 -10l-53 -101q-5 -9 -15 -9h-95zM361 762q-7 0 -9.5 4t0.5 10l53 101q4 9 15 9h96q7 0 9 -4t-1 -10l-53 -101q-5 -9 -15 -9h-95z" />
    <glyph glyph-name="uhungarumlaut" unicode="&#x171;" 
d="M352 502q0 5 3.5 8.5t8.5 3.5h117q5 0 8.5 -3.5t3.5 -8.5v-490q0 -5 -3.5 -8.5t-8.5 -3.5h-117q-5 0 -8.5 3.5t-3.5 8.5v34q0 3 -2 3.5t-4 -2.5q-40 -54 -124 -54q-76 0 -125 46t-49 129v334q0 5 3.5 8.5t8.5 3.5h116q5 0 8.5 -3.5t3.5 -8.5v-299q0 -40 21.5 -65
t59.5 -25q34 0 56 20.5t27 53.5v315zM140 576q-7 0 -10 3.5t0 10.5l47 101q4 9 14 9h103q7 0 9.5 -4t-0.5 -10l-53 -101q-5 -9 -15 -9h-95zM318 576q-7 0 -9.5 4t0.5 10l53 101q4 9 15 9h96q7 0 9 -4t-1 -10l-53 -101q-5 -9 -15 -9h-95z" />
    <glyph glyph-name="Uogonek" unicode="&#x172;" horiz-adv-x="629" 
d="M433 688q0 5 3.5 8.5t8.5 3.5h117q5 0 8.5 -3.5t3.5 -8.5v-456q0 -98 -59.5 -162t-160.5 -76q-2 0 -6 -2q-37 -34 -37 -60q0 -14 9.5 -22t23.5 -8q10 0 20 3l5 1q9 0 10 -10l7 -50v-3q0 -8 -9 -11q-29 -11 -61 -11q-34 0 -60 15t-35 49q-4 16 -4 25q0 40 38 81q4 4 -2 6
q-91 17 -144 80t-53 155v456q0 5 3.5 8.5t8.5 3.5h117q5 0 8.5 -3.5t3.5 -8.5v-457q0 -53 32.5 -85.5t85.5 -32.5t85.5 32.5t32.5 85.5v457z" />
    <glyph glyph-name="uogonek" unicode="&#x173;" 
d="M481 -110q3 1 7 1q7 0 8 -9l7 -49v-4q0 -8 -8 -11q-29 -11 -62 -11q-34 0 -59.5 15t-34.5 49q-3 12 -3 25q0 52 55 98q3 2 2 4t-4 2h-25q-5 0 -8.5 3.5t-3.5 8.5v34q0 3 -2 3.5t-4 -2.5q-40 -54 -124 -54q-76 0 -125 46t-49 129v334q0 5 3.5 8.5t8.5 3.5h116
q5 0 8.5 -3.5t3.5 -8.5v-299q0 -40 21.5 -65t59.5 -25q34 0 56 20.5t27 53.5v315q0 5 3.5 8.5t8.5 3.5h117q5 0 8.5 -3.5t3.5 -8.5v-498q0 -5 -2 -6l-15 -13q-47 -34 -47 -65q0 -7 1 -10q3 -11 12 -17t21 -6q9 0 18 3z" />
    <glyph glyph-name="Wcircumflex" unicode="&#x174;" horiz-adv-x="921" 
d="M216 0q-11 0 -14 10l-177 677l-1 4q0 9 11 9h124q10 0 13 -10l95 -407q1 -4 3 -4t3 4l92 406q3 11 13 11h121q11 0 14 -10l100 -407q1 -3 3 -3.5t3 3.5l92 406q3 11 13 11h118q14 0 11 -13l-164 -677q-3 -10 -14 -10h-119q-10 0 -13 10l-102 433q-1 4 -3 4t-3 -4
l-95 -432q-2 -11 -13 -11h-111zM313 758q-7 0 -9.5 4.5t1.5 10.5l73 105q5 8 14 8h133q9 0 14 -8l76 -105q3 -4 3 -7q0 -8 -11 -8h-90q-9 0 -14 8l-40 61q-3 6 -6 0l-40 -61q-5 -8 -14 -8h-90z" />
    <glyph glyph-name="wcircumflex" unicode="&#x175;" horiz-adv-x="783" 
d="M180 0q-11 0 -14 10l-144 491l-1 4q0 10 11 10h121q11 0 14 -10l72 -302q1 -3 3 -3t3 3l75 302q3 10 14 10h105q11 0 14 -10l79 -303q1 -3 3 -3t3 3l78 303q3 10 14 10l120 -2q6 0 8.5 -3.5t1.5 -9.5l-146 -490q-3 -10 -13 -10h-121q-11 0 -14 10l-77 268q-1 3 -3 3
t-3 -3l-68 -268q-3 -10 -14 -10h-121zM239 572q-7 0 -9.5 4.5t1.5 10.5l73 105q5 8 14 8h133q9 0 14 -8l76 -105q3 -4 3 -7q0 -8 -11 -8h-90q-9 0 -14 8l-40 61q-3 6 -6 0l-40 -61q-5 -8 -14 -8h-90z" />
    <glyph glyph-name="Ycircumflex" unicode="&#x176;" horiz-adv-x="617" 
d="M250 1q-5 0 -8.5 3.5t-3.5 8.5v253q0 4 -1 6l-206 414q-2 4 -2 6q0 8 11 8h126q10 0 14 -9l125 -266q3 -6 6 0l125 266q4 9 14 9h128q7 0 9.5 -3.5t-0.5 -10.5l-208 -414q-1 -2 -1 -6v-253q0 -5 -3.5 -8.5t-8.5 -3.5h-116zM161 757q-7 0 -9.5 4.5t1.5 10.5l73 105
q5 8 14 8h133q9 0 14 -8l76 -105q3 -4 3 -7q0 -8 -11 -8h-90q-9 0 -14 8l-40 61q-3 6 -6 0l-40 -61q-5 -8 -14 -8h-90z" />
    <glyph glyph-name="ycircumflex" unicode="&#x177;" horiz-adv-x="505" 
d="M49 -199q-3 0 -5 3.5t-2 8.5v92q0 5 3.5 8.5t8.5 3.5q42 1 66.5 7t39 23t22.5 50q1 2 0 6l-164 498q-1 2 -1 5q0 9 11 9h125q11 0 14 -10l84 -324q1 -3 3 -3t3 3l84 324q3 10 14 10h122q6 0 8.5 -3.5t0.5 -10.5l-173 -520q-25 -73 -51 -109.5t-73 -53.5t-133 -17h-7z
M104 581q-7 0 -9.5 4.5t1.5 10.5l73 105q5 8 14 8h133q9 0 14 -8l76 -105q3 -4 3 -7q0 -8 -11 -8h-90q-9 0 -14 8l-40 61q-3 6 -6 0l-40 -61q-5 -8 -14 -8h-90z" />
    <glyph glyph-name="Ydieresis" unicode="&#x178;" horiz-adv-x="617" 
d="M250 1q-5 0 -8.5 3.5t-3.5 8.5v253q0 4 -1 6l-206 414q-2 4 -2 6q0 8 11 8h126q10 0 14 -9l125 -266q3 -6 6 0l125 266q4 9 14 9h128q7 0 9.5 -3.5t-0.5 -10.5l-208 -414q-1 -2 -1 -6v-253q0 -5 -3.5 -8.5t-8.5 -3.5h-116zM408 763q-34 0 -56.5 22.5t-22.5 56.5
q0 35 22 57t57 22t57 -22t22 -57q0 -34 -22.5 -56.5t-56.5 -22.5zM209 763q-34 0 -56.5 22.5t-22.5 56.5q0 35 22 57t57 22t57 -22t22 -57q0 -34 -22.5 -56.5t-56.5 -22.5z" />
    <glyph glyph-name="Zacute" unicode="&#x179;" horiz-adv-x="557" 
d="M44 0q-5 0 -8.5 3.5t-3.5 8.5v108q0 8 5 15l323 438q2 2 0.5 4t-4.5 2h-312q-5 0 -8.5 3.5t-3.5 8.5v97q0 5 3.5 8.5t8.5 3.5h463q5 0 8.5 -3.5t3.5 -8.5v-108q0 -8 -5 -15l-323 -438q-1 -2 0 -4t4 -2h312q5 0 8.5 -3.5t3.5 -8.5v-97q0 -5 -3.5 -8.5t-8.5 -3.5h-463z
M222 762q-7 0 -9 4t1 10l53 101q4 9 15 9h101q7 0 9.5 -4.5t-1.5 -10.5l-71 -101q-5 -8 -14 -8h-84z" />
    <glyph glyph-name="zacute" unicode="&#x17a;" horiz-adv-x="460" 
d="M36 0q-5 0 -8.5 3.5t-3.5 8.5v107q0 8 6 15l225 247q5 6 -2 6h-211q-5 0 -8.5 3.5t-3.5 8.5v103q0 5 3.5 8.5t8.5 3.5h374q5 0 8.5 -3.5t3.5 -8.5v-106q0 -7 -6 -15l-232 -247q-4 -6 2 -6h229q5 0 8.5 -3.5t3.5 -8.5v-104q0 -5 -3.5 -8.5t-8.5 -3.5h-385zM172 576
q-7 0 -9 4t1 10l53 101q4 9 15 9h101q7 0 9.5 -4.5t-1.5 -10.5l-71 -101q-5 -8 -14 -8h-84z" />
    <glyph glyph-name="Zdotaccent" unicode="&#x17b;" horiz-adv-x="557" 
d="M44 0q-5 0 -8.5 3.5t-3.5 8.5v108q0 8 5 15l323 438q2 2 0.5 4t-4.5 2h-312q-5 0 -8.5 3.5t-3.5 8.5v97q0 5 3.5 8.5t8.5 3.5h463q5 0 8.5 -3.5t3.5 -8.5v-108q0 -8 -5 -15l-323 -438q-1 -2 0 -4t4 -2h312q5 0 8.5 -3.5t3.5 -8.5v-97q0 -5 -3.5 -8.5t-8.5 -3.5h-463z
M277 758q-34 0 -56.5 22.5t-22.5 56.5q0 35 22 57t57 22t57 -22t22 -57q0 -34 -22.5 -56.5t-56.5 -22.5z" />
    <glyph glyph-name="zdotaccent" unicode="&#x17c;" horiz-adv-x="460" 
d="M36 0q-5 0 -8.5 3.5t-3.5 8.5v107q0 8 6 15l225 247q5 6 -2 6h-211q-5 0 -8.5 3.5t-3.5 8.5v103q0 5 3.5 8.5t8.5 3.5h374q5 0 8.5 -3.5t3.5 -8.5v-106q0 -7 -6 -15l-232 -247q-4 -6 2 -6h229q5 0 8.5 -3.5t3.5 -8.5v-104q0 -5 -3.5 -8.5t-8.5 -3.5h-385zM227 572
q-34 0 -56.5 22.5t-22.5 56.5q0 35 22 57t57 22t57 -22t22 -57q0 -34 -22.5 -56.5t-56.5 -22.5z" />
    <glyph glyph-name="Zcaron" unicode="&#x17d;" horiz-adv-x="557" 
d="M44 0q-5 0 -8.5 3.5t-3.5 8.5v108q0 8 5 15l323 438q2 2 0.5 4t-4.5 2h-312q-5 0 -8.5 3.5t-3.5 8.5v97q0 5 3.5 8.5t8.5 3.5h463q5 0 8.5 -3.5t3.5 -8.5v-108q0 -8 -5 -15l-323 -438q-1 -2 0 -4t4 -2h312q5 0 8.5 -3.5t3.5 -8.5v-97q0 -5 -3.5 -8.5t-8.5 -3.5h-463z
M129 871q-2 3 -2 7q0 8 10 8h90q9 0 14 -8l40 -61q3 -6 6 0l40 61q5 8 14 8h90q8 0 10 -4.5t-2 -10.5l-76 -106q-5 -7 -14 -7h-133q-9 0 -14 8z" />
    <glyph glyph-name="zcaron" unicode="&#x17e;" horiz-adv-x="460" 
d="M36 0q-5 0 -8.5 3.5t-3.5 8.5v107q0 8 6 15l225 247q5 6 -2 6h-211q-5 0 -8.5 3.5t-3.5 8.5v103q0 5 3.5 8.5t8.5 3.5h374q5 0 8.5 -3.5t3.5 -8.5v-106q0 -7 -6 -15l-232 -247q-4 -6 2 -6h229q5 0 8.5 -3.5t3.5 -8.5v-104q0 -5 -3.5 -8.5t-8.5 -3.5h-385zM79 685
q-2 3 -2 7q0 8 10 8h90q9 0 14 -8l40 -61q3 -6 6 0l40 61q5 8 14 8h90q8 0 10 -4.5t-2 -10.5l-76 -106q-5 -7 -14 -7h-133q-9 0 -14 8z" />
    <glyph glyph-name="uni018F" unicode="&#x18f;" horiz-adv-x="658" 
d="M587 486q13 -34 18.5 -72.5t5.5 -89.5q0 -89 -16 -142q-27 -88 -97 -140.5t-168 -52.5q-121 0 -193.5 67.5t-89.5 182.5q-5 31 -5 81q0 33 1 50q0 12 12 12h410q5 0 5 5q-5 41 -14 64q-16 45 -54.5 70.5t-98.5 25.5q-51 -1 -87.5 -22.5t-58.5 -59.5q-4 -7 -9 -7
q-4 0 -8 4l-76 67q-8 8 -2 16q38 59 102 90.5t150 31.5q101 0 171.5 -47.5t101.5 -133.5zM329 111q51 0 84.5 26t46.5 72q5 15 9 48q0 5 -5 5h-273q-5 0 -5 -5q4 -30 7 -44q12 -47 47.5 -74.5t88.5 -27.5z" />
    <glyph glyph-name="florin" unicode="&#x192;" horiz-adv-x="554" 
d="M462 595q-35 -1 -51 -16.5t-21 -52.5l-15 -93q0 -5 4 -5h72q5 0 8.5 -3.5t3.5 -8.5v-95q0 -5 -3.5 -8.5t-8.5 -3.5h-91q-6 0 -6 -5l-55 -346q-10 -63 -32.5 -97t-65.5 -48t-119 -14q-28 0 -44 1q-12 0 -12 12v81q0 5 3.5 8.5t8.5 3.5h48q32 0 50 15.5t24 53.5l53 330
q0 5 -4 5h-65q-5 0 -8.5 3.5t-3.5 8.5v95q0 5 3.5 8.5t8.5 3.5h84q6 0 6 5l17 109q10 64 32 97.5t64 47.5t117 14q31 0 48 -1q12 0 12 -12v-81q0 -5 -3.5 -8.5t-8.5 -3.5h-50z" />
    <glyph glyph-name="Ohorn" unicode="&#x1a0;" horiz-adv-x="621" 
d="M505 643q-3 -1 -3 -2.5t2 -3.5q34 -33 52 -79t18 -101v-214q0 -75 -33 -133t-92.5 -89.5t-138.5 -31.5q-78 0 -137.5 32t-92.5 89.5t-33 132.5v214q0 74 33 131t92.5 88.5t137.5 31.5q62 0 113 -20q6 -1 6 0q0 12 12 13q65 7 71 74q0 12 12 12h62q5 0 8.5 -4.5t2.5 -12.5
q-4 -48 -29 -80t-63 -47zM433 458q0 58 -33.5 93.5t-89.5 35.5q-55 0 -88.5 -35.5t-33.5 -93.5v-220q0 -58 33.5 -93t88.5 -35t89 35t34 93v220z" />
    <glyph glyph-name="ohorn" unicode="&#x1a1;" horiz-adv-x="549" 
d="M502 365q16 -50 16 -105q0 -54 -14 -101q-22 -78 -81.5 -122.5t-143.5 -44.5t-144 44t-82 120q-14 47 -14 102q0 59 14 106q23 74 83 116t144 42q29 0 62 -7q2 -1 6 -1q27 4 47 21t23 55q0 12 12 12h62q12 0 12 -12q-6 -78 -64 -118q-4 -3 -1 -7q42 -37 63 -100zM368 188
q8 32 8 70q0 42 -8 71q-11 34 -34 53t-56 19q-34 0 -56.5 -19t-32.5 -53q-8 -24 -8 -71q0 -45 7 -70q10 -35 33.5 -55t57.5 -20q33 0 56 20t33 55z" />
    <glyph glyph-name="Uhorn" unicode="&#x1af;" horiz-adv-x="629" 
d="M682 787q12 0 12 -12q-4 -59 -36 -93.5t-80 -45.5q-4 -1 -4 -5v-399q0 -71 -32.5 -125.5t-91 -84.5t-135.5 -30t-135.5 30t-91 84.5t-32.5 125.5v456q0 5 3.5 8.5t8.5 3.5h117q5 0 8.5 -3.5t3.5 -8.5v-457q0 -53 32.5 -85.5t85.5 -32.5t85.5 32.5t32.5 85.5v457
q0 5 3.5 8.5t8.5 3.5h80q29 0 54 16t29 59q0 12 12 12h62z" />
    <glyph glyph-name="uhorn" unicode="&#x1b0;" 
d="M587 602q12 0 12 -12q-4 -54 -31.5 -87.5t-70.5 -48.5q-4 -1 -4 -5v-437q0 -5 -3.5 -8.5t-8.5 -3.5h-117q-5 0 -8.5 3.5t-3.5 8.5v34q0 3 -2 3.5t-4 -2.5q-40 -54 -124 -54q-76 0 -125 46t-49 129v334q0 5 3.5 8.5t8.5 3.5h116q5 0 8.5 -3.5t3.5 -8.5v-299
q0 -40 21.5 -65t59.5 -25q34 0 56 20.5t27 53.5v315q0 5 3.5 8.5t8.5 3.5h66q29 0 54 16.5t29 59.5q0 12 12 12h62z" />
    <glyph glyph-name="uni01CD" unicode="&#x1cd;" horiz-adv-x="671" 
d="M506 0q-10 0 -13 10l-30 98q-2 4 -5 4h-246q-3 0 -5 -4l-29 -98q-3 -10 -13 -10h-127q-6 0 -9 3.5t-1 10.5l216 676q3 10 13 10h157q10 0 13 -10l216 -676q1 -2 1 -5q0 -9 -11 -9h-127zM243 227q-1 -6 4 -6h176q6 0 4 6l-90 297q-1 4 -3 3.5t-3 -3.5zM185 870q-2 3 -2 7
q0 8 10 8h90q9 0 14 -8l40 -61q3 -6 6 0l40 61q5 8 14 8h90q8 0 10 -4.5t-2 -10.5l-76 -106q-5 -7 -14 -7h-133q-9 0 -14 8z" />
    <glyph glyph-name="uni01CE" unicode="&#x1ce;" horiz-adv-x="528" 
d="M257 522q65 0 116 -22.5t79.5 -61.5t28.5 -87v-339q0 -5 -3.5 -8.5t-8.5 -3.5h-117q-5 0 -8.5 3.5t-3.5 8.5v33q0 3 -2 4t-4 -2q-42 -55 -135 -55q-78 0 -126 38t-48 112q0 77 54 119.5t154 42.5h102q5 0 5 5v22q0 33 -20 51.5t-60 18.5q-31 0 -51.5 -11t-26.5 -31
q-3 -11 -13 -10l-121 16q-12 2 -11 9q4 42 33.5 76t78 53t108.5 19zM237 97q43 0 73 23t30 59v36q0 5 -5 5h-72q-45 0 -70.5 -17t-25.5 -48q0 -27 19 -42.5t51 -15.5zM115 684q-2 3 -2 7q0 8 10 8h90q9 0 14 -8l40 -61q3 -6 6 0l40 61q5 8 14 8h90q8 0 10 -4.5t-2 -10.5
l-76 -106q-5 -7 -14 -7h-133q-9 0 -14 8z" />
    <glyph glyph-name="uni01D4" unicode="&#x1d4;" 
d="M352 502q0 5 3.5 8.5t8.5 3.5h117q5 0 8.5 -3.5t3.5 -8.5v-490q0 -5 -3.5 -8.5t-8.5 -3.5h-117q-5 0 -8.5 3.5t-3.5 8.5v34q0 3 -2 3.5t-4 -2.5q-40 -54 -124 -54q-76 0 -125 46t-49 129v334q0 5 3.5 8.5t8.5 3.5h116q5 0 8.5 -3.5t3.5 -8.5v-299q0 -40 21.5 -65
t59.5 -25q34 0 56 20.5t27 53.5v315zM123 684q-2 3 -2 7q0 8 10 8h90q9 0 14 -8l40 -61q3 -6 6 0l40 61q5 8 14 8h90q8 0 10 -4.5t-2 -10.5l-76 -106q-5 -7 -14 -7h-133q-9 0 -14 8z" />
    <glyph glyph-name="uni01E5" unicode="&#x1e5;" horiz-adv-x="579" 
d="M569 303q5 0 8.5 -3.5t3.5 -8.5v-61q0 -5 -3.5 -8.5t-8.5 -3.5h-57q-5 0 -5 -5v-167q0 -131 -75.5 -187t-194.5 -56q-35 0 -78 5q-10 1 -10 13l4 103q0 13 14 11q36 -6 66 -6q64 0 98.5 28t34.5 90q0 3 -2 3.5t-4 -1.5q-38 -41 -111 -41q-65 0 -119.5 31.5t-77.5 101.5
q-15 46 -15 119q0 78 18 127q21 61 71 98t116 37q77 0 118 -46q2 -2 4 -1.5t2 3.5v24q0 5 3.5 8.5t8.5 3.5h117q5 0 8.5 -3.5t3.5 -8.5v-194q0 -5 5 -5h57zM276 120q32 0 53 16.5t29 42.5q5 16 6 34q2 5 -4 5h-95q-5 0 -8.5 3.5t-3.5 8.5v61q0 5 3.5 8.5t8.5 3.5h95q4 0 4 4
q0 17 -7 34q-9 27 -30 43.5t-52 16.5q-30 0 -51 -16.5t-31 -43.5q-14 -30 -14 -81q0 -56 12 -80q9 -27 31.5 -43.5t53.5 -16.5z" />
    <glyph glyph-name="gcaron" unicode="&#x1e7;" horiz-adv-x="555" 
d="M366 502q0 5 3.5 8.5t8.5 3.5h117q5 0 8.5 -3.5t3.5 -8.5v-456q0 -131 -75.5 -187t-194.5 -56q-35 0 -78 5q-10 1 -10 13l4 103q0 13 14 11q36 -6 66 -6q64 0 98.5 28t34.5 90q0 3 -2 3.5t-4 -1.5q-38 -41 -111 -41q-65 0 -119.5 31.5t-77.5 101.5q-15 46 -15 119
q0 78 18 127q21 61 71 98t116 37q77 0 118 -46q2 -2 4 -1.5t2 3.5v24zM358 179q8 30 8 82q0 31 -2 48t-7 32q-9 27 -30 43.5t-52 16.5q-30 0 -51 -16.5t-31 -43.5q-14 -30 -14 -81q0 -56 12 -80q9 -27 31.5 -43.5t53.5 -16.5q32 0 53 16.5t29 42.5zM141 684q-2 3 -2 7
q0 8 10 8h90q9 0 14 -8l40 -61q3 -6 6 0l40 61q5 8 14 8h90q8 0 10 -4.5t-2 -10.5l-76 -106q-5 -7 -14 -7h-133q-9 0 -14 8z" />
    <glyph glyph-name="uni01E9" unicode="&#x1e9;" horiz-adv-x="533" 
d="M64 0q-5 0 -8.5 3.5t-3.5 8.5v676q0 5 3.5 8.5t8.5 3.5h117q5 0 8.5 -3.5t3.5 -8.5v-337q0 -3 2 -3.5t4 1.5l136 158q7 7 15 7h133q10 0 10 -7q0 -3 -3 -8l-127 -161q-2 -4 -1 -7l149 -317q2 -4 2 -6q0 -8 -11 -8h-123q-10 0 -14 9l-99 234q-1 2 -3.5 2.5t-3.5 -1.5
l-64 -80q-2 -4 -2 -6v-146q0 -5 -3.5 -8.5t-8.5 -3.5h-117zM106 870q-2 3 -2 7q0 8 10 8h90q9 0 14 -8l40 -61q3 -6 6 0l40 61q5 8 14 8h90q8 0 10 -4.5t-2 -10.5l-76 -106q-5 -7 -14 -7h-133q-9 0 -14 8z" />
    <glyph glyph-name="uni01EF" unicode="&#x1ef;" horiz-adv-x="497" 
d="M264 266q-2 -2 -1.5 -4t3.5 -2q101 -17 146.5 -80t45.5 -143q0 -73 -36.5 -127.5t-100.5 -83.5t-142 -29q-67 0 -131 20q-9 3 -9 14l4 100q0 6 4 8.5t11 1.5q57 -17 111 -17q68 0 108 31t40 89q0 53 -33.5 91t-89.5 38q-36 0 -80 -19q-6 -2 -7 -2q-6 0 -9 6l-41 61
q-2 3 -2 8q0 7 5 9l177 144q2 2 1.5 4t-3.5 2h-184q-5 0 -8.5 3.5t-3.5 8.5v104q0 5 3.5 8.5t8.5 3.5h355q5 0 8.5 -3.5t3.5 -8.5v-99q0 -9 -7 -15zM83 684q-2 3 -2 7q0 8 10 8h90q9 0 14 -8l40 -61q3 -6 6 0l40 61q5 8 14 8h90q8 0 10 -4.5t-2 -10.5l-76 -106q-5 -7 -14 -7
h-133q-9 0 -14 8z" />
    <glyph glyph-name="oslashacute" unicode="&#x1ff;" horiz-adv-x="534" 
d="M481 424q-1 -3 0 -7q12 -18 24 -52q16 -50 16 -105q0 -54 -14 -101q-22 -78 -81.5 -122.5t-143.5 -44.5q-50 0 -92 15q-5 2 -7 -2l-37 -54q-3 -5 -9 -5q-3 0 -8 3l-81 65q-5 3 -5 9q0 4 3 8l38 56q2 3 0 6q-17 27 -28 63q-14 47 -14 102q0 59 14 106q23 74 83 116t144 42
q54 0 93 -16q5 -2 7 2l40 57q3 5 9 5q3 0 8 -3l81 -65q5 -5 5 -9q0 -3 -3 -8zM371 188q8 32 8 70q0 42 -8 71q-11 34 -34 53t-56 19q-34 0 -56.5 -19t-32.5 -53q-8 -24 -8 -71q0 -45 7 -70q10 -35 33.5 -55t57.5 -20q33 0 56 20t33 55zM212 576q-7 0 -9 4t1 10l53 101
q4 9 15 9h101q7 0 9.5 -4.5t-1.5 -10.5l-71 -101q-5 -8 -14 -8h-84z" />
    <glyph glyph-name="uni0218" unicode="&#x218;" horiz-adv-x="595" 
d="M301 -8q-80 0 -140 25.5t-92.5 73t-32.5 110.5v22q0 5 3.5 8.5t8.5 3.5h114q5 0 8.5 -3.5t3.5 -8.5v-15q0 -40 37 -67.5t100 -27.5q53 0 79 22.5t26 55.5q0 24 -16 40.5t-43.5 29t-87.5 34.5q-67 23 -113.5 47t-78 65.5t-31.5 102.5q0 60 31 105t86 69t127 24
q76 0 135.5 -27t93 -75.5t33.5 -112.5v-15q0 -5 -3.5 -8.5t-8.5 -3.5h-115q-5 0 -8.5 3.5t-3.5 8.5v8q0 42 -34.5 71.5t-94.5 29.5q-47 0 -73.5 -20t-26.5 -55q0 -25 15.5 -42t46 -30.5t94.5 -36.5q71 -26 111.5 -46t73 -59.5t32.5 -102.5q0 -94 -69 -148.5t-187 -54.5z
M201 -182q-7 0 -9 4t1 10l53 101q4 9 15 9h101q7 0 9.5 -4.5t-1.5 -10.5l-71 -101q-5 -8 -14 -8h-84z" />
    <glyph glyph-name="uni0219" unicode="&#x219;" horiz-adv-x="504" 
d="M257 -7q-67 0 -117 19t-77.5 53t-27.5 77v10q0 5 3.5 8.5t8.5 3.5h111q5 0 8.5 -3.5t3.5 -8.5v-1q0 -22 24.5 -37.5t61.5 -15.5q34 0 55 13.5t21 33.5q0 18 -18 27t-59 19q-47 12 -74 23q-64 22 -102 54t-38 92q0 74 57.5 117.5t152.5 43.5q64 0 112 -20.5t74.5 -57.5
t26.5 -84q0 -5 -3.5 -8.5t-8.5 -3.5h-107q-5 0 -8.5 3.5t-3.5 8.5q0 22 -22.5 37t-59.5 15q-33 0 -54 -12t-21 -33q0 -20 20.5 -30t68.5 -21q11 -3 25 -6.5t30 -8.5q71 -21 112 -54t41 -96q0 -74 -58.5 -115.5t-157.5 -41.5zM161 -181q-7 0 -9 4t1 10l53 101q4 9 15 9h101
q7 0 9.5 -4.5t-1.5 -10.5l-71 -101q-5 -8 -14 -8h-84z" />
    <glyph glyph-name="uni021A" unicode="&#x21a;" horiz-adv-x="585" 
d="M544 700q5 0 8.5 -3.5t3.5 -8.5v-98q0 -5 -3.5 -8.5t-8.5 -3.5h-179q-5 0 -5 -5v-561q0 -5 -3.5 -8.5t-8.5 -3.5h-117q-5 0 -8.5 3.5t-3.5 8.5v561q0 5 -5 5h-174q-5 0 -8.5 3.5t-3.5 8.5v98q0 5 3.5 8.5t8.5 3.5h504zM174 -174q-7 0 -9 4t1 10l53 101q4 9 15 9h101
q7 0 9.5 -4.5t-1.5 -10.5l-71 -101q-5 -8 -14 -8h-84z" />
    <glyph glyph-name="uni021B" unicode="&#x21b;" horiz-adv-x="380" 
d="M347 413q0 -5 -3.5 -8.5t-8.5 -3.5h-96q-5 0 -5 -5v-212q0 -33 13.5 -49t43.5 -16h33q5 0 8.5 -3.5t3.5 -8.5v-95q0 -11 -12 -13q-42 -2 -60 -2q-83 0 -124 27.5t-42 103.5v268q0 5 -5 5h-57q-5 0 -8.5 3.5t-3.5 8.5v89q0 5 3.5 8.5t8.5 3.5h57q5 0 5 5v119q0 5 3.5 8.5
t8.5 3.5h112q5 0 8.5 -3.5t3.5 -8.5v-119q0 -5 5 -5h96q5 0 8.5 -3.5t3.5 -8.5v-89zM149 -173q-7 0 -9 4t1 10l53 101q4 9 15 9h101q7 0 9.5 -4.5t-1.5 -10.5l-71 -101q-5 -8 -14 -8h-84z" />
    <glyph glyph-name="uni021F" unicode="&#x21f;" 
d="M320 522q80 0 129 -49t49 -133v-328q0 -5 -3.5 -8.5t-8.5 -3.5h-117q-5 0 -8.5 3.5t-3.5 8.5v299q0 40 -22.5 65t-59.5 25t-59.5 -25t-22.5 -65v-299q0 -5 -3.5 -8.5t-8.5 -3.5h-117q-5 0 -8.5 3.5t-3.5 8.5v676q0 5 3.5 8.5t8.5 3.5h117q5 0 8.5 -3.5t3.5 -8.5v-221
q0 -3 2 -4t3 1q41 58 122 58zM111 870q-2 3 -2 7q0 8 10 8h90q9 0 14 -8l40 -61q3 -6 6 0l40 61q5 8 14 8h90q8 0 10 -4.5t-2 -10.5l-76 -106q-5 -7 -14 -7h-133q-9 0 -14 8z" />
    <glyph glyph-name="uni0228" unicode="&#x228;" horiz-adv-x="584" 
d="M547 591q0 -5 -3.5 -8.5t-8.5 -3.5h-328q-5 0 -5 -5v-155q0 -5 5 -5h215q5 0 8.5 -3.5t3.5 -8.5v-97q0 -5 -3.5 -8.5t-8.5 -3.5h-215q-5 0 -5 -5v-162q0 -5 5 -5h328q5 0 8.5 -3.5t3.5 -8.5v-97q0 -5 -3.5 -8.5t-8.5 -3.5h-163q-3 0 -4 -2t1 -4q39 -41 39 -83
q0 -13 -3 -25q-9 -34 -34.5 -49t-59.5 -15q-33 0 -62 11q-11 3 -9 15l7 49q1 12 15 9q11 -3 20 -3q26 0 32 22q2 6 2 10q0 29 -44 63q-4 2 -6 2h-193q-5 0 -8.5 3.5t-3.5 8.5v676q0 5 3.5 8.5t8.5 3.5h462q5 0 8.5 -3.5t3.5 -8.5v-97z" />
    <glyph glyph-name="uni0229" unicode="&#x229;" horiz-adv-x="544" 
d="M507 310q6 -38 4 -85q-1 -12 -13 -12h-309q-6 0 -4 -5q3 -20 11 -40q26 -56 106 -56q64 1 101 52q4 6 9 6q3 0 7 -4l72 -71q5 -5 5 -9q0 -2 -4 -8q-26 -33 -64.5 -54t-84.5 -28q-7 -1 -2 -6q45 -45 45 -89q0 -8 -4 -24q-9 -34 -34.5 -49t-59.5 -15q-33 0 -62 11
q-11 3 -9 15l7 49q1 6 5 8t10 0q10 -3 20 -3q26 0 32 23q1 3 1 9q0 31 -49 69l-6 3q-64 10 -108.5 47.5t-66.5 95.5q-21 50 -21 131q0 55 15 97q23 71 80.5 113t136.5 42q100 0 160.5 -58t73.5 -155zM274 401q-63 0 -83 -59q-4 -13 -7 -32q0 -5 5 -5h173q6 0 4 5
q-5 29 -5 28q-9 30 -31.5 46.5t-55.5 16.5z" />
    <glyph glyph-name="uni0237" unicode="&#x237;" horiz-adv-x="257" 
d="M-48 -204q-12 0 -12 12v95q0 13 13 11q59 -2 82.5 17t23.5 67l-2 504q0 5 3.5 8.5t8.5 3.5h119q5 0 8.5 -3.5t3.5 -8.5v-502q0 -81 -22.5 -125.5t-75.5 -62.5t-150 -16z" />
    <glyph glyph-name="uni0259" unicode="&#x259;" horiz-adv-x="544" 
d="M503 253q2 -59 -14 -107q-24 -71 -81.5 -112.5t-135.5 -41.5q-100 0 -160.5 57.5t-74.5 154.5q-6 38 -4 85q2 12 13 12h309q2 0 4 1.5t1 3.5q-4 22 -12 40q-27 56 -101 56q-68 0 -105 -52q-4 -6 -9 -6q-3 0 -7 4l-72 72q-4 4 -4 9q0 4 3 8q32 40 84 62.5t114 22.5
q86 0 145.5 -39t85.5 -109q21 -51 21 -121zM271 113q61 0 82 59q4 13 7 32q0 5 -5 5h-173q-6 0 -4 -5q1 -6 2 -13t3 -14q9 -31 31.5 -47.5t56.5 -16.5z" />
    <glyph glyph-name="uni0292" unicode="&#x292;" horiz-adv-x="497" 
d="M264 266q-2 -2 -1.5 -4t3.5 -2q101 -17 146.5 -80t45.5 -143q0 -73 -36.5 -127.5t-100.5 -83.5t-142 -29q-67 0 -131 20q-9 3 -9 14l4 100q0 6 4 8.5t11 1.5q57 -17 111 -17q68 0 108 31t40 89q0 53 -33.5 91t-89.5 38q-36 0 -80 -19q-6 -2 -7 -2q-6 0 -9 6l-41 61
q-2 3 -2 8q0 7 5 9l177 144q2 2 1.5 4t-3.5 2h-184q-5 0 -8.5 3.5t-3.5 8.5v104q0 5 3.5 8.5t8.5 3.5h355q5 0 8.5 -3.5t3.5 -8.5v-99q0 -9 -7 -15z" />
    <glyph glyph-name="uni02BB" unicode="&#x2bb;" horiz-adv-x="204" 
d="M6 686q-1 2 -1 6q0 8 10 8h117q11 0 14 -10l54 -203l1 -4q0 -9 -11 -9h-88q-11 0 -14 9z" />
    <glyph glyph-name="uni02BC" unicode="&#x2bc;" horiz-adv-x="204" 
d="M189 700q7 0 9 -4t0 -10l-82 -203q-3 -9 -14 -9h-88q-13 0 -10 13l54 203q3 10 14 10h117z" />
    <glyph glyph-name="circumflex" unicode="&#x2c6;" horiz-adv-x="322" 
d="M37 572q-7 0 -9.5 4.5t1.5 10.5l73 105q5 8 14 8h133q9 0 14 -8l76 -105q3 -4 3 -7q0 -8 -11 -8h-90q-9 0 -14 8l-40 61q-3 6 -6 0l-40 -61q-5 -8 -14 -8h-90z" />
    <glyph glyph-name="caron" unicode="&#x2c7;" horiz-adv-x="368" 
d="M29 685q-2 3 -2 7q0 8 10 8h90q9 0 14 -8l40 -61q3 -6 6 0l40 61q5 8 14 8h90q8 0 10 -4.5t-2 -10.5l-76 -106q-5 -7 -14 -7h-133q-9 0 -14 8z" />
    <glyph glyph-name="uni02C9" unicode="&#x2c9;" horiz-adv-x="294" 
d="M12 603q-5 0 -8.5 3.5t-3.5 8.5v72q0 5 3.5 8.5t8.5 3.5h270q5 0 8.5 -3.5t3.5 -8.5v-72q0 -5 -3.5 -8.5t-8.5 -3.5h-270z" />
    <glyph glyph-name="breve" unicode="&#x2d8;" horiz-adv-x="354" 
d="M177 558q-65 0 -109 33.5t-48 85.5v2q0 10 11 10h67q10 0 12 -11q5 -21 23 -34t44 -13t44.5 13t23.5 34q2 11 12 11h66q12 0 12 -10q-5 -53 -49 -87t-109 -34z" />
    <glyph glyph-name="dotaccent" unicode="&#x2d9;" horiz-adv-x="195" 
d="M98 572q-34 0 -56.5 22.5t-22.5 56.5q0 35 22 57t57 22t57 -22t22 -57q0 -34 -22.5 -56.5t-56.5 -22.5z" />
    <glyph glyph-name="ring" unicode="&#x2da;" horiz-adv-x="287" 
d="M144 563q-53 0 -89 35.5t-36 88.5t36 88.5t89 35.5q52 0 88 -35.5t36 -88.5q0 -52 -36 -88t-88 -36zM144 637q20 0 35 14.5t15 35.5q0 22 -15 36.5t-35 14.5q-21 0 -36 -14.5t-15 -36.5q0 -21 15 -35.5t36 -14.5z" />
    <glyph glyph-name="ogonek" unicode="&#x2db;" horiz-adv-x="169" 
d="M168 -171q0 -8 -9 -11q-29 -11 -61 -11q-34 0 -60 15t-35 49q-3 12 -3 24q0 53 57 100q6 5 15 5h64q10 0 10 -6q0 -5 -6 -9q-47 -36 -47 -66q0 -16 9.5 -24t25.5 -8q9 0 18 3q2 1 6 1q8 0 9 -9l7 -50v-3z" />
    <glyph glyph-name="tilde" unicode="&#x2dc;" horiz-adv-x="382" 
d="M254 573q-21 0 -35 4.5t-32 13.5q-21 10 -30.5 13.5t-20.5 3.5q-31 0 -53 -22q-5 -5 -9 -5q-5 0 -8 4l-41 44q-7 9 -2 17q16 28 44 45t62 17q19 0 33.5 -5t26 -10.5t15.5 -7.5q19 -10 29 -14t21 -4q31 0 48 24q4 5 9 5t8 -4l37 -45q6 -7 3 -14q-13 -27 -40.5 -43.5
t-64.5 -16.5z" />
    <glyph glyph-name="hungarumlaut" unicode="&#x2dd;" horiz-adv-x="422" 
d="M34 584q-7 0 -9 4t1 10l53 101q5 9 15 9h99q7 0 9.5 -4.5t-1.5 -10.5l-70 -101q-5 -8 -14 -8h-83zM227 584q-7 0 -9 4t1 10l53 101q5 9 15 9h99q7 0 9.5 -4.5t-1.5 -10.5l-71 -101q-5 -8 -14 -8h-82z" />
    <glyph glyph-name="gravecomb" unicode="&#x300;" horiz-adv-x="0" 
d="M-13 590q2 -4 2 -6q0 -8 -10 -8h-84q-9 0 -14 8l-71 101q-2 3 -2 7q0 8 10 8h101q10 0 15 -9z" />
    <glyph glyph-name="acutecomb" unicode="&#x301;" horiz-adv-x="0" 
d="M-218 576q-7 0 -9 4t1 10l53 101q4 9 15 9h101q7 0 9.5 -4.5t-1.5 -10.5l-71 -101q-5 -8 -14 -8h-84z" />
    <glyph glyph-name="uni0302" unicode="&#x302;" horiz-adv-x="0" 
d="M-331 572q-7 0 -9.5 4.5t1.5 10.5l73 105q5 8 14 8h133q9 0 14 -8l76 -105q3 -4 3 -7q0 -8 -11 -8h-90q-9 0 -14 8l-40 61q-3 6 -6 0l-40 -61q-5 -8 -14 -8h-90z" />
    <glyph glyph-name="tildecomb" unicode="&#x303;" horiz-adv-x="0" 
d="M-111 573q-21 0 -35 4.5t-32 13.5q-21 10 -30.5 13.5t-20.5 3.5q-31 0 -53 -22q-5 -5 -9 -5q-5 0 -8 4l-41 44q-7 9 -2 17q16 28 44 45t62 17q19 0 33.5 -5t26 -10.5t15.5 -7.5q19 -10 29 -14t21 -4q31 0 48 24q4 5 9 5t8 -4l37 -45q6 -7 3 -14q-13 -27 -40.5 -43.5
t-64.5 -16.5z" />
    <glyph glyph-name="uni0304" unicode="&#x304;" horiz-adv-x="0" 
d="M-282 593q-5 0 -8.5 3.5t-3.5 8.5v72q0 5 3.5 8.5t8.5 3.5h270q5 0 8.5 -3.5t3.5 -8.5v-72q0 -5 -3.5 -8.5t-8.5 -3.5h-270z" />
    <glyph glyph-name="uni0306" unicode="&#x306;" horiz-adv-x="0" 
d="M-177 562q-64 0 -108 32t-49 82v2q0 10 11 10l60 -1q10 0 12 -11q5 -21 25.5 -34t48.5 -13q29 0 50.5 13t25.5 35q2 11 12 11h58q12 0 12 -10q-5 -50 -49 -83t-109 -33z" />
    <glyph glyph-name="uni0307" unicode="&#x307;" horiz-adv-x="0" 
d="M-87 572q-34 0 -56.5 22.5t-22.5 56.5q0 35 22 57t57 22t57 -22t22 -57q0 -34 -22.5 -56.5t-56.5 -22.5z" />
    <glyph glyph-name="uni0308" unicode="&#x308;" horiz-adv-x="0" 
d="M-79 578q-34 0 -56.5 22.5t-22.5 56.5q0 35 22 57t57 22t57 -22t22 -57q0 -34 -22.5 -56.5t-56.5 -22.5zM-278 578q-34 0 -56.5 22.5t-22.5 56.5q0 35 22 57t57 22t57 -22t22 -57q0 -34 -22.5 -56.5t-56.5 -22.5z" />
    <glyph glyph-name="hookabovecomb" unicode="&#x309;" horiz-adv-x="0" 
d="M-339 561q-14 3 -8 15q7 17 14 27.5t18 22.5q11 11 15 19t4 21q0 10 -8.5 17t-19.5 7q-13 0 -22 -6t-23 -24q-5 -6 -10 -6t-8 3l-34 25q-5 3 -5 9q0 5 2 8q22 32 45.5 45.5t58.5 13.5q45 0 72 -24.5t27 -67.5q0 -23 -9.5 -38.5t-28.5 -34.5q-21 -23 -26 -32
q-6 -11 -15 -8z" />
    <glyph glyph-name="uni030A" unicode="&#x30a;" horiz-adv-x="0" 
d="M-107 563q-53 0 -89 35.5t-36 88.5t36 88.5t89 35.5q52 0 88 -35.5t36 -88.5q0 -52 -36 -88t-88 -36zM-107 637q20 0 35 14.5t15 35.5q0 22 -15 36.5t-35 14.5q-21 0 -36 -14.5t-15 -36.5q0 -21 15 -35.5t36 -14.5z" />
    <glyph glyph-name="uni030B" unicode="&#x30b;" horiz-adv-x="0" 
d="M-368 576q-7 0 -10 3.5t0 10.5l47 101q4 9 14 9h103q7 0 9.5 -4t-0.5 -10l-53 -101q-5 -9 -15 -9h-95zM-190 576q-7 0 -9.5 4t0.5 10l53 101q4 9 15 9h96q7 0 9 -4t-1 -10l-53 -101q-5 -9 -15 -9h-95z" />
    <glyph glyph-name="uni030C" unicode="&#x30c;" horiz-adv-x="0" 
d="M-339 685q-2 3 -2 7q0 8 10 8h90q9 0 14 -8l40 -61q3 -6 6 0l40 61q5 8 14 8h90q8 0 10 -4.5t-2 -10.5l-76 -106q-5 -7 -14 -7h-133q-9 0 -14 8z" />
    <glyph glyph-name="uni0312" unicode="&#x312;" horiz-adv-x="0" 
d="M-35 700q7 0 9 -4t-1 -10l-54 -101q-5 -9 -15 -9h-100q-7 0 -9.5 4.5t1.5 10.5l71 101q5 8 14 8h84z" />
    <glyph glyph-name="uni0313" unicode="&#x313;" horiz-adv-x="0" 
d="M-183 576q-7 0 -9 4t1 10l53 101q4 9 15 9h101q7 0 9.5 -4.5t-1.5 -10.5l-71 -101q-5 -8 -14 -8h-84z" />
    <glyph glyph-name="uni031B" unicode="&#x31b;" horiz-adv-x="0" 
d="M-146 443q-12 0 -12 12v47q0 11 11 13q27 3 47.5 20t23.5 55q0 12 12 12h62q5 0 8.5 -4.5t2.5 -12.5q-6 -68 -50.5 -103t-104.5 -39z" />
    <glyph glyph-name="dotbelowcomb" unicode="&#x323;" horiz-adv-x="0" 
d="M-92 -216q-33 0 -54 21.5t-21 53.5q0 34 21 54.5t54 20.5t54 -20.5t21 -54.5q0 -32 -21.5 -53.5t-53.5 -21.5z" />
    <glyph glyph-name="uni0326" unicode="&#x326;" horiz-adv-x="0" 
d="M-209 -174q-7 0 -9 4t1 10l53 101q4 9 15 9h101q7 0 9.5 -4.5t-1.5 -10.5l-71 -101q-5 -8 -14 -8h-84z" />
    <glyph glyph-name="uni0327" unicode="&#x327;" horiz-adv-x="0" 
d="M-159 -182q-11 3 -9 14l7 50q1 13 14 9q10 -3 20 -3q15 0 24.5 7.5t9.5 22.5q0 30 -47 67q-6 4 -6 9q0 6 10 6h65q9 0 14 -5q57 -47 57 -100q0 -12 -3 -24q-10 -34 -35.5 -49t-59.5 -15q-32 0 -61 11z" />
    <glyph glyph-name="uni0328" unicode="&#x328;" horiz-adv-x="0" 
d="M-1 -171q0 -8 -9 -11q-29 -11 -62 -11q-34 0 -59.5 15t-34.5 49q-3 12 -3 25q0 52 57 99q6 5 15 5h64q9 0 9 -6q0 -3 -6 -9q-46 -36 -46 -66q0 -16 9.5 -24t25.5 -8q9 0 18 3q2 1 6 1q7 0 9 -9l7 -50v-3z" />
    <glyph glyph-name="uni0335" unicode="&#x335;" horiz-adv-x="0" 
d="M-354 631q0 5 3.5 8.5t8.5 3.5h330q5 0 8.5 -3.5t3.5 -8.5v-61q0 -5 -3.5 -8.5t-8.5 -3.5h-330q-5 0 -8.5 3.5t-3.5 8.5v61z" />
    <glyph glyph-name="uni0336" unicode="&#x336;" horiz-adv-x="0" 
d="M-617 509q-5 0 -8.5 3.5t-3.5 8.5v72q0 5 3.5 8.5t8.5 3.5h605q5 0 8.5 -3.5t3.5 -8.5v-72q0 -5 -3.5 -8.5t-8.5 -3.5h-605z" />
    <glyph glyph-name="uni0337" unicode="&#x337;" horiz-adv-x="0" 
d="M-418 -32q-6 -4 -8 -4q-4 0 -9 5l-53 63q-4 6 -4 8q0 4 5 9l480 400q6 4 8 4q4 0 9 -5l54 -64q4 -6 4 -8q0 -4 -5 -9z" />
    <glyph glyph-name="uni0338" unicode="&#x338;" horiz-adv-x="0" 
d="M-459 -37q-7 0 -9.5 3.5t0.5 10.5l381 754q4 9 14 9h57q7 0 9.5 -3.5t-0.5 -10.5l-381 -754q-5 -9 -14 -9h-57z" />
    <glyph glyph-name="uni0394" unicode="&#x394;" horiz-adv-x="661" 
d="M36 0q-5 0 -8.5 3.5t-3.5 8.5v101q0 6 3 15l248 563q4 9 14 9h82q10 0 14 -9l249 -564q3 -9 3 -15v-100q0 -5 -3.5 -8.5t-8.5 -3.5h-589zM163 128q-1 -2 0.5 -4t3.5 -2h327q2 0 3.5 2t0.5 4l-165 384q-3 6 -6 0z" />
    <glyph glyph-name="uni03A9" unicode="&#x3a9;" horiz-adv-x="635" 
d="M59 0q-5 0 -8.5 3.5t-3.5 8.5v97q0 5 3.5 8.5t8.5 3.5h44q3 0 3.5 2t-1.5 4q-51 59 -51 147v183q0 74 33 131t92.5 88.5t137.5 31.5q79 0 138.5 -31.5t92.5 -88.5t33 -131v-183q0 -88 -51 -147q-2 -2 -1.5 -4t3.5 -2h44q5 0 8.5 -3.5t3.5 -8.5v-97q0 -5 -3.5 -8.5
t-8.5 -3.5h-219q-5 0 -8.5 3.5t-3.5 8.5v101q0 10 11 13q36 9 60 43t24 81v210q0 58 -34 93t-89 35t-88.5 -35t-33.5 -93v-210q0 -48 24 -81.5t60 -43.5q11 -3 11 -13v-100q0 -5 -3.5 -8.5t-8.5 -3.5h-219z" />
    <glyph glyph-name="uni03BC" unicode="&#x3bc;" horiz-adv-x="551" 
d="M357 502q0 5 3.5 8.5t8.5 3.5h117q5 0 8.5 -3.5t3.5 -8.5v-490q0 -5 -3.5 -8.5t-8.5 -3.5h-117q-5 0 -8.5 3.5t-3.5 8.5v34q0 3 -2 3.5t-4 -2.5q-40 -54 -124 -54q-9 0 -29 2q-5 2 -5 -4v-179q0 -5 -3.5 -8.5t-8.5 -3.5h-117q-5 0 -8.5 3.5t-3.5 8.5v690q0 5 3.5 8.5
t8.5 3.5h117q5 0 8.5 -3.5t3.5 -8.5v-299q0 -40 21.5 -65t58.5 -25q34 0 56.5 20.5t27.5 54.5v314z" />
    <glyph glyph-name="pi" unicode="&#x3c0;" horiz-adv-x="662" 
d="M633 406q0 -5 -3.5 -8.5t-8.5 -3.5h-59q-5 0 -5 -5v-194q0 -34 6.5 -50.5t17.5 -21t30 -3.5q12 0 12 -12v-96q0 -12 -12 -12l-43 -1q-70 0 -111.5 23.5t-40.5 96.5v270q0 5 -5 5h-157q-5 0 -5 -5v-377q0 -5 -3.5 -8.5t-8.5 -3.5h-117q-5 0 -8.5 3.5t-3.5 8.5v377
q0 5 -5 5h-62q-5 0 -8.5 3.5t-3.5 8.5v96q0 5 3.5 8.5t8.5 3.5h580q5 0 8.5 -3.5t3.5 -8.5v-96z" />
    <glyph glyph-name="Wgrave" unicode="&#x1e80;" horiz-adv-x="921" 
d="M216 0q-11 0 -14 10l-177 677l-1 4q0 9 11 9h124q10 0 13 -10l95 -407q1 -4 3 -4t3 4l92 406q3 11 13 11h121q11 0 14 -10l100 -407q1 -3 3 -3.5t3 3.5l92 406q3 11 13 11h118q14 0 11 -13l-164 -677q-3 -10 -14 -10h-119q-10 0 -13 10l-102 433q-1 4 -3 4t-3 -4
l-95 -432q-2 -11 -13 -11h-111zM511 776q2 -4 2 -6q0 -8 -10 -8h-84q-9 0 -14 8l-71 101q-2 3 -2 7q0 8 10 8h101q10 0 15 -9z" />
    <glyph glyph-name="wgrave" unicode="&#x1e81;" horiz-adv-x="783" 
d="M180 0q-11 0 -14 10l-144 491l-1 4q0 10 11 10h121q11 0 14 -10l72 -302q1 -3 3 -3t3 3l75 302q3 10 14 10h105q11 0 14 -10l79 -303q1 -3 3 -3t3 3l78 303q3 10 14 10l120 -2q6 0 8.5 -3.5t1.5 -9.5l-146 -490q-3 -10 -13 -10h-121q-11 0 -14 10l-77 268q-1 3 -3 3
t-3 -3l-68 -268q-3 -10 -14 -10h-121zM437 590q2 -4 2 -6q0 -8 -10 -8h-84q-9 0 -14 8l-71 101q-2 3 -2 7q0 8 10 8h101q10 0 15 -9z" />
    <glyph glyph-name="Wacute" unicode="&#x1e82;" horiz-adv-x="921" 
d="M216 0q-11 0 -14 10l-177 677l-1 4q0 9 11 9h124q10 0 13 -10l95 -407q1 -4 3 -4t3 4l92 406q3 11 13 11h121q11 0 14 -10l100 -407q1 -3 3 -3.5t3 3.5l92 406q3 11 13 11h118q14 0 11 -13l-164 -677q-3 -10 -14 -10h-119q-10 0 -13 10l-102 433q-1 4 -3 4t-3 -4
l-95 -432q-2 -11 -13 -11h-111zM405 762q-7 0 -9 4t1 10l53 101q4 9 15 9h101q7 0 9.5 -4.5t-1.5 -10.5l-71 -101q-5 -8 -14 -8h-84z" />
    <glyph glyph-name="wacute" unicode="&#x1e83;" horiz-adv-x="783" 
d="M180 0q-11 0 -14 10l-144 491l-1 4q0 10 11 10h121q11 0 14 -10l72 -302q1 -3 3 -3t3 3l75 302q3 10 14 10h105q11 0 14 -10l79 -303q1 -3 3 -3t3 3l78 303q3 10 14 10l120 -2q6 0 8.5 -3.5t1.5 -9.5l-146 -490q-3 -10 -13 -10h-121q-11 0 -14 10l-77 268q-1 3 -3 3
t-3 -3l-68 -268q-3 -10 -14 -10h-121zM331 576q-7 0 -9 4t1 10l53 101q4 9 15 9h101q7 0 9.5 -4.5t-1.5 -10.5l-71 -101q-5 -8 -14 -8h-84z" />
    <glyph glyph-name="Wdieresis" unicode="&#x1e84;" horiz-adv-x="921" 
d="M216 0q-11 0 -14 10l-177 677l-1 4q0 9 11 9h124q10 0 13 -10l95 -407q1 -4 3 -4t3 4l92 406q3 11 13 11h121q11 0 14 -10l100 -407q1 -3 3 -3.5t3 3.5l92 406q3 11 13 11h118q14 0 11 -13l-164 -677q-3 -10 -14 -10h-119q-10 0 -13 10l-102 433q-1 4 -3 4t-3 -4
l-95 -432q-2 -11 -13 -11h-111zM560 764q-34 0 -56.5 22.5t-22.5 56.5q0 35 22 57t57 22t57 -22t22 -57q0 -34 -22.5 -56.5t-56.5 -22.5zM361 764q-34 0 -56.5 22.5t-22.5 56.5q0 35 22 57t57 22t57 -22t22 -57q0 -34 -22.5 -56.5t-56.5 -22.5z" />
    <glyph glyph-name="wdieresis" unicode="&#x1e85;" horiz-adv-x="783" 
d="M180 0q-11 0 -14 10l-144 491l-1 4q0 10 11 10h121q11 0 14 -10l72 -302q1 -3 3 -3t3 3l75 302q3 10 14 10h105q11 0 14 -10l79 -303q1 -3 3 -3t3 3l78 303q3 10 14 10l120 -2q6 0 8.5 -3.5t1.5 -9.5l-146 -490q-3 -10 -13 -10h-121q-11 0 -14 10l-77 268q-1 3 -3 3
t-3 -3l-68 -268q-3 -10 -14 -10h-121zM485 578q-34 0 -56.5 22.5t-22.5 56.5q0 35 22 57t57 22t57 -22t22 -57q0 -34 -22.5 -56.5t-56.5 -22.5zM286 578q-34 0 -56.5 22.5t-22.5 56.5q0 35 22 57t57 22t57 -22t22 -57q0 -34 -22.5 -56.5t-56.5 -22.5z" />
    <glyph glyph-name="uni1EA0" unicode="&#x1ea0;" horiz-adv-x="671" 
d="M506 0q-10 0 -13 10l-30 98q-2 4 -5 4h-246q-3 0 -5 -4l-29 -98q-3 -10 -13 -10h-127q-6 0 -9 3.5t-1 10.5l216 676q3 10 13 10h157q10 0 13 -10l216 -676q1 -2 1 -5q0 -9 -11 -9h-127zM243 227q-1 -6 4 -6h176q6 0 4 6l-90 297q-1 4 -3 3.5t-3 -3.5zM336 -216
q-33 0 -54 21.5t-21 53.5q0 34 21 54.5t54 20.5t54 -20.5t21 -54.5q0 -32 -21.5 -53.5t-53.5 -21.5z" />
    <glyph glyph-name="uni1EA1" unicode="&#x1ea1;" horiz-adv-x="528" 
d="M257 522q65 0 116 -22.5t79.5 -61.5t28.5 -87v-339q0 -5 -3.5 -8.5t-8.5 -3.5h-117q-5 0 -8.5 3.5t-3.5 8.5v33q0 3 -2 4t-4 -2q-42 -55 -135 -55q-78 0 -126 38t-48 112q0 77 54 119.5t154 42.5h102q5 0 5 5v22q0 33 -20 51.5t-60 18.5q-31 0 -51.5 -11t-26.5 -31
q-3 -11 -13 -10l-121 16q-12 2 -11 9q4 42 33.5 76t78 53t108.5 19zM237 97q43 0 73 23t30 59v36q0 5 -5 5h-72q-45 0 -70.5 -17t-25.5 -48q0 -27 19 -42.5t51 -15.5zM264 -216q-33 0 -54 21.5t-21 53.5q0 34 21 54.5t54 20.5t54 -20.5t21 -54.5q0 -32 -21.5 -53.5
t-53.5 -21.5z" />
    <glyph glyph-name="uni1EA2" unicode="&#x1ea2;" horiz-adv-x="671" 
d="M506 0q-10 0 -13 10l-30 98q-2 4 -5 4h-246q-3 0 -5 -4l-29 -98q-3 -10 -13 -10h-127q-6 0 -9 3.5t-1 10.5l216 676q3 10 13 10h157q10 0 13 -10l216 -676q1 -2 1 -5q0 -9 -11 -9h-127zM243 227q-1 -6 4 -6h176q6 0 4 6l-90 297q-1 4 -3 3.5t-3 -3.5zM320 747
q-14 3 -8 15q7 17 14 27.5t18 22.5q11 11 15 19t4 21q0 10 -8.5 17t-19.5 7q-13 0 -22 -6t-23 -24q-5 -6 -10 -6t-8 3l-34 25q-5 3 -5 9q0 5 2 8q22 32 45.5 45.5t58.5 13.5q45 0 72 -24.5t27 -67.5q0 -23 -9.5 -38.5t-28.5 -34.5q-21 -23 -26 -32q-6 -11 -15 -8z" />
    <glyph glyph-name="uni1EA3" unicode="&#x1ea3;" horiz-adv-x="528" 
d="M257 522q65 0 116 -22.5t79.5 -61.5t28.5 -87v-339q0 -5 -3.5 -8.5t-8.5 -3.5h-117q-5 0 -8.5 3.5t-3.5 8.5v33q0 3 -2 4t-4 -2q-42 -55 -135 -55q-78 0 -126 38t-48 112q0 77 54 119.5t154 42.5h102q5 0 5 5v22q0 33 -20 51.5t-60 18.5q-31 0 -51.5 -11t-26.5 -31
q-3 -11 -13 -10l-121 16q-12 2 -11 9q4 42 33.5 76t78 53t108.5 19zM237 97q43 0 73 23t30 59v36q0 5 -5 5h-72q-45 0 -70.5 -17t-25.5 -48q0 -27 19 -42.5t51 -15.5zM251 561q-14 3 -8 15q7 17 14 27.5t18 22.5q11 11 15 19t4 21q0 10 -8.5 17t-19.5 7q-13 0 -22 -6
t-23 -24q-5 -6 -10 -6t-8 3l-34 25q-5 3 -5 9q0 5 2 8q22 32 45.5 45.5t58.5 13.5q45 0 72 -24.5t27 -67.5q0 -23 -9.5 -38.5t-28.5 -34.5q-21 -23 -26 -32q-6 -11 -15 -8z" />
    <glyph glyph-name="uni1EA4" unicode="&#x1ea4;" horiz-adv-x="671" 
d="M506 0q-10 0 -13 10l-30 98q-2 4 -5 4h-246q-3 0 -5 -4l-29 -98q-3 -10 -13 -10h-127q-6 0 -9 3.5t-1 10.5l216 676q3 10 13 10h157q10 0 13 -10l216 -676q1 -2 1 -5q0 -9 -11 -9h-127zM243 227q-1 -6 4 -6h176q6 0 4 6l-90 297q-1 4 -3 3.5t-3 -3.5zM187 758
q-7 0 -9.5 4.5t1.5 10.5l73 105q5 8 14 8h133q9 0 14 -8l76 -105q3 -4 3 -7q0 -8 -11 -8h-90q-9 0 -14 8l-40 61q-3 6 -6 0l-40 -61q-5 -8 -14 -8h-90zM494 837q-7 0 -9 4t1 10l53 101q4 9 15 9h101q7 0 9.5 -4.5t-1.5 -10.5l-71 -101q-5 -8 -14 -8h-84z" />
    <glyph glyph-name="uni1EA5" unicode="&#x1ea5;" horiz-adv-x="528" 
d="M257 522q65 0 116 -22.5t79.5 -61.5t28.5 -87v-339q0 -5 -3.5 -8.5t-8.5 -3.5h-117q-5 0 -8.5 3.5t-3.5 8.5v33q0 3 -2 4t-4 -2q-42 -55 -135 -55q-78 0 -126 38t-48 112q0 77 54 119.5t154 42.5h102q5 0 5 5v22q0 33 -20 51.5t-60 18.5q-31 0 -51.5 -11t-26.5 -31
q-3 -11 -13 -10l-121 16q-12 2 -11 9q4 42 33.5 76t78 53t108.5 19zM237 97q43 0 73 23t30 59v36q0 5 -5 5h-72q-45 0 -70.5 -17t-25.5 -48q0 -27 19 -42.5t51 -15.5zM117 572q-7 0 -9.5 4.5t1.5 10.5l73 105q5 8 14 8h133q9 0 14 -8l76 -105q3 -4 3 -7q0 -8 -11 -8h-90
q-9 0 -14 8l-40 61q-3 6 -6 0l-40 -61q-5 -8 -14 -8h-90zM424 651q-7 0 -9 4t1 10l53 101q4 9 15 9h101q7 0 9.5 -4.5t-1.5 -10.5l-71 -101q-5 -8 -14 -8h-84z" />
    <glyph glyph-name="uni1EA6" unicode="&#x1ea6;" horiz-adv-x="671" 
d="M506 0q-10 0 -13 10l-30 98q-2 4 -5 4h-246q-3 0 -5 -4l-29 -98q-3 -10 -13 -10h-127q-6 0 -9 3.5t-1 10.5l216 676q3 10 13 10h157q10 0 13 -10l216 -676q1 -2 1 -5q0 -9 -11 -9h-127zM243 227q-1 -6 4 -6h176q6 0 4 6l-90 297q-1 4 -3 3.5t-3 -3.5zM187 758
q-7 0 -9.5 4.5t1.5 10.5l73 105q5 8 14 8h133q9 0 14 -8l76 -105q3 -4 3 -7q0 -8 -11 -8h-90q-9 0 -14 8l-40 61q-3 6 -6 0l-40 -61q-5 -8 -14 -8h-90zM570 894q2 -4 2 -6q0 -8 -10 -8h-84q-9 0 -14 8l-71 101q-2 3 -2 7q0 8 10 8h101q10 0 15 -9z" />
    <glyph glyph-name="uni1EA7" unicode="&#x1ea7;" horiz-adv-x="528" 
d="M257 522q65 0 116 -22.5t79.5 -61.5t28.5 -87v-339q0 -5 -3.5 -8.5t-8.5 -3.5h-117q-5 0 -8.5 3.5t-3.5 8.5v33q0 3 -2 4t-4 -2q-42 -55 -135 -55q-78 0 -126 38t-48 112q0 77 54 119.5t154 42.5h102q5 0 5 5v22q0 33 -20 51.5t-60 18.5q-31 0 -51.5 -11t-26.5 -31
q-3 -11 -13 -10l-121 16q-12 2 -11 9q4 42 33.5 76t78 53t108.5 19zM237 97q43 0 73 23t30 59v36q0 5 -5 5h-72q-45 0 -70.5 -17t-25.5 -48q0 -27 19 -42.5t51 -15.5zM117 572q-7 0 -9.5 4.5t1.5 10.5l73 105q5 8 14 8h133q9 0 14 -8l76 -105q3 -4 3 -7q0 -8 -11 -8h-90
q-9 0 -14 8l-40 61q-3 6 -6 0l-40 -61q-5 -8 -14 -8h-90zM500 708q2 -4 2 -6q0 -8 -10 -8h-84q-9 0 -14 8l-71 101q-2 3 -2 7q0 8 10 8h101q10 0 15 -9z" />
    <glyph glyph-name="uni1EA8" unicode="&#x1ea8;" horiz-adv-x="671" 
d="M506 0q-10 0 -13 10l-30 98q-2 4 -5 4h-246q-3 0 -5 -4l-29 -98q-3 -10 -13 -10h-127q-6 0 -9 3.5t-1 10.5l216 676q3 10 13 10h157q10 0 13 -10l216 -676q1 -2 1 -5q0 -9 -11 -9h-127zM243 227q-1 -6 4 -6h176q6 0 4 6l-90 297q-1 4 -3 3.5t-3 -3.5zM187 758
q-7 0 -9.5 4.5t1.5 10.5l73 105q5 8 14 8h133q9 0 14 -8l76 -105q3 -4 3 -7q0 -8 -11 -8h-90q-9 0 -14 8l-40 61q-3 6 -6 0l-40 -61q-5 -8 -14 -8h-90zM474 868q-14 3 -8 15q7 17 14 27.5t18 22.5q11 11 15 19t4 21q0 10 -8.5 17t-19.5 7q-13 0 -22 -6t-23 -24q-5 -6 -10 -6
t-8 3l-34 25q-5 3 -5 9q0 5 2 8q22 32 45.5 45.5t58.5 13.5q45 0 72 -24.5t27 -67.5q0 -23 -9.5 -38.5t-28.5 -34.5q-21 -23 -26 -32q-6 -11 -15 -8z" />
    <glyph glyph-name="uni1EA9" unicode="&#x1ea9;" horiz-adv-x="528" 
d="M257 522q65 0 116 -22.5t79.5 -61.5t28.5 -87v-339q0 -5 -3.5 -8.5t-8.5 -3.5h-117q-5 0 -8.5 3.5t-3.5 8.5v33q0 3 -2 4t-4 -2q-42 -55 -135 -55q-78 0 -126 38t-48 112q0 77 54 119.5t154 42.5h102q5 0 5 5v22q0 33 -20 51.5t-60 18.5q-31 0 -51.5 -11t-26.5 -31
q-3 -11 -13 -10l-121 16q-12 2 -11 9q4 42 33.5 76t78 53t108.5 19zM237 97q43 0 73 23t30 59v36q0 5 -5 5h-72q-45 0 -70.5 -17t-25.5 -48q0 -27 19 -42.5t51 -15.5zM117 572q-7 0 -9.5 4.5t1.5 10.5l73 105q5 8 14 8h133q9 0 14 -8l76 -105q3 -4 3 -7q0 -8 -11 -8h-90
q-9 0 -14 8l-40 61q-3 6 -6 0l-40 -61q-5 -8 -14 -8h-90zM404 682q-14 3 -8 15q7 17 14 27.5t18 22.5q11 11 15 19t4 21q0 10 -8.5 17t-19.5 7q-13 0 -22 -6t-23 -24q-5 -6 -10 -6t-8 3l-34 25q-5 3 -5 9q0 5 2 8q22 32 45.5 45.5t58.5 13.5q45 0 72 -24.5t27 -67.5
q0 -23 -9.5 -38.5t-28.5 -34.5q-21 -23 -26 -32q-6 -11 -15 -8z" />
    <glyph glyph-name="uni1EAA" unicode="&#x1eaa;" horiz-adv-x="671" 
d="M506 0q-10 0 -13 10l-30 98q-2 4 -5 4h-246q-3 0 -5 -4l-29 -98q-3 -10 -13 -10h-127q-6 0 -9 3.5t-1 10.5l216 676q3 10 13 10h157q10 0 13 -10l216 -676q1 -2 1 -5q0 -9 -11 -9h-127zM243 227q-1 -6 4 -6h176q6 0 4 6l-90 297q-1 4 -3 3.5t-3 -3.5zM187 758
q-7 0 -9.5 4.5t1.5 10.5l73 105q5 8 14 8h133q9 0 14 -8l76 -105q3 -4 3 -7q0 -8 -11 -8h-90q-9 0 -14 8l-40 61q-3 6 -6 0l-40 -61q-5 -8 -14 -8h-90zM398 918q-21 0 -35 4.5t-32 13.5q-21 10 -30.5 13.5t-20.5 3.5q-31 0 -53 -22q-5 -5 -9 -5q-5 0 -8 4l-41 44q-7 9 -2 17
q16 28 44 45t62 17q19 0 33.5 -5t26 -10.5t15.5 -7.5q19 -10 29 -14t21 -4q31 0 48 24q4 5 9 5t8 -4l37 -45q6 -7 3 -14q-13 -27 -40.5 -43.5t-64.5 -16.5z" />
    <glyph glyph-name="uni1EAB" unicode="&#x1eab;" horiz-adv-x="528" 
d="M257 522q65 0 116 -22.5t79.5 -61.5t28.5 -87v-339q0 -5 -3.5 -8.5t-8.5 -3.5h-117q-5 0 -8.5 3.5t-3.5 8.5v33q0 3 -2 4t-4 -2q-42 -55 -135 -55q-78 0 -126 38t-48 112q0 77 54 119.5t154 42.5h102q5 0 5 5v22q0 33 -20 51.5t-60 18.5q-31 0 -51.5 -11t-26.5 -31
q-3 -11 -13 -10l-121 16q-12 2 -11 9q4 42 33.5 76t78 53t108.5 19zM237 97q43 0 73 23t30 59v36q0 5 -5 5h-72q-45 0 -70.5 -17t-25.5 -48q0 -27 19 -42.5t51 -15.5zM117 572q-7 0 -9.5 4.5t1.5 10.5l73 105q5 8 14 8h133q9 0 14 -8l76 -105q3 -4 3 -7q0 -8 -11 -8h-90
q-9 0 -14 8l-40 61q-3 6 -6 0l-40 -61q-5 -8 -14 -8h-90zM328 732q-21 0 -35 4.5t-32 13.5q-21 10 -30.5 13.5t-20.5 3.5q-31 0 -53 -22q-5 -5 -9 -5q-5 0 -8 4l-41 44q-7 9 -2 17q16 28 44 45t62 17q19 0 33.5 -5t26 -10.5t15.5 -7.5q19 -10 29 -14t21 -4q31 0 48 24
q4 5 9 5t8 -4l37 -45q6 -7 3 -14q-13 -27 -40.5 -43.5t-64.5 -16.5z" />
    <glyph glyph-name="uni1EAC" unicode="&#x1eac;" horiz-adv-x="671" 
d="M506 0q-10 0 -13 10l-30 98q-2 4 -5 4h-246q-3 0 -5 -4l-29 -98q-3 -10 -13 -10h-127q-6 0 -9 3.5t-1 10.5l216 676q3 10 13 10h157q10 0 13 -10l216 -676q1 -2 1 -5q0 -9 -11 -9h-127zM243 227q-1 -6 4 -6h176q6 0 4 6l-90 297q-1 4 -3 3.5t-3 -3.5zM336 -216
q-33 0 -54 21.5t-21 53.5q0 34 21 54.5t54 20.5t54 -20.5t21 -54.5q0 -32 -21.5 -53.5t-53.5 -21.5zM187 758q-7 0 -9.5 4.5t1.5 10.5l73 105q5 8 14 8h133q9 0 14 -8l76 -105q3 -4 3 -7q0 -8 -11 -8h-90q-9 0 -14 8l-40 61q-3 6 -6 0l-40 -61q-5 -8 -14 -8h-90z" />
    <glyph glyph-name="uni1EAD" unicode="&#x1ead;" horiz-adv-x="528" 
d="M257 522q65 0 116 -22.5t79.5 -61.5t28.5 -87v-339q0 -5 -3.5 -8.5t-8.5 -3.5h-117q-5 0 -8.5 3.5t-3.5 8.5v33q0 3 -2 4t-4 -2q-42 -55 -135 -55q-78 0 -126 38t-48 112q0 77 54 119.5t154 42.5h102q5 0 5 5v22q0 33 -20 51.5t-60 18.5q-31 0 -51.5 -11t-26.5 -31
q-3 -11 -13 -10l-121 16q-12 2 -11 9q4 42 33.5 76t78 53t108.5 19zM237 97q43 0 73 23t30 59v36q0 5 -5 5h-72q-45 0 -70.5 -17t-25.5 -48q0 -27 19 -42.5t51 -15.5zM264 -216q-33 0 -54 21.5t-21 53.5q0 34 21 54.5t54 20.5t54 -20.5t21 -54.5q0 -32 -21.5 -53.5
t-53.5 -21.5zM117 572q-7 0 -9.5 4.5t1.5 10.5l73 105q5 8 14 8h133q9 0 14 -8l76 -105q3 -4 3 -7q0 -8 -11 -8h-90q-9 0 -14 8l-40 61q-3 6 -6 0l-40 -61q-5 -8 -14 -8h-90z" />
    <glyph glyph-name="uni1EAE" unicode="&#x1eae;" horiz-adv-x="671" 
d="M506 0q-10 0 -13 10l-30 98q-2 4 -5 4h-246q-3 0 -5 -4l-29 -98q-3 -10 -13 -10h-127q-6 0 -9 3.5t-1 10.5l216 676q3 10 13 10h157q10 0 13 -10l216 -676q1 -2 1 -5q0 -9 -11 -9h-127zM243 227q-1 -6 4 -6h176q6 0 4 6l-90 297q-1 4 -3 3.5t-3 -3.5zM333 751
q-64 0 -108 32t-49 82v2q0 10 11 10l60 -1q10 0 12 -11q5 -21 25.5 -34t48.5 -13q29 0 50.5 13t25.5 35q2 11 12 11h58q12 0 12 -10q-5 -50 -49 -83t-109 -33zM283 916q-7 0 -9 4t1 10l53 101q4 9 15 9h101q7 0 9.5 -4.5t-1.5 -10.5l-71 -101q-5 -8 -14 -8h-84z" />
    <glyph glyph-name="uni1EAF" unicode="&#x1eaf;" horiz-adv-x="528" 
d="M257 522q65 0 116 -22.5t79.5 -61.5t28.5 -87v-339q0 -5 -3.5 -8.5t-8.5 -3.5h-117q-5 0 -8.5 3.5t-3.5 8.5v33q0 3 -2 4t-4 -2q-42 -55 -135 -55q-78 0 -126 38t-48 112q0 77 54 119.5t154 42.5h102q5 0 5 5v22q0 33 -20 51.5t-60 18.5q-31 0 -51.5 -11t-26.5 -31
q-3 -11 -13 -10l-121 16q-12 2 -11 9q4 42 33.5 76t78 53t108.5 19zM237 97q43 0 73 23t30 59v36q0 5 -5 5h-72q-45 0 -70.5 -17t-25.5 -48q0 -27 19 -42.5t51 -15.5zM264 566q-64 0 -108 32t-49 82v2q0 10 11 10l60 -1q10 0 12 -11q5 -21 25.5 -34t48.5 -13q29 0 50.5 13
t25.5 35q2 11 12 11h58q12 0 12 -10q-5 -50 -49 -83t-109 -33zM214 731q-7 0 -9 4t1 10l53 101q4 9 15 9h101q7 0 9.5 -4.5t-1.5 -10.5l-71 -101q-5 -8 -14 -8h-84z" />
    <glyph glyph-name="uni1EB0" unicode="&#x1eb0;" horiz-adv-x="671" 
d="M506 0q-10 0 -13 10l-30 98q-2 4 -5 4h-246q-3 0 -5 -4l-29 -98q-3 -10 -13 -10h-127q-6 0 -9 3.5t-1 10.5l216 676q3 10 13 10h157q10 0 13 -10l216 -676q1 -2 1 -5q0 -9 -11 -9h-127zM243 227q-1 -6 4 -6h176q6 0 4 6l-90 297q-1 4 -3 3.5t-3 -3.5zM333 751
q-64 0 -108 32t-49 82v2q0 10 11 10l60 -1q10 0 12 -11q5 -21 25.5 -34t48.5 -13q29 0 50.5 13t25.5 35q2 11 12 11h58q12 0 12 -10q-5 -50 -49 -83t-109 -33zM385 930q2 -4 2 -6q0 -8 -10 -8h-84q-9 0 -14 8l-71 101q-2 3 -2 7q0 8 10 8h101q10 0 15 -9z" />
    <glyph glyph-name="uni1EB1" unicode="&#x1eb1;" horiz-adv-x="528" 
d="M257 522q65 0 116 -22.5t79.5 -61.5t28.5 -87v-339q0 -5 -3.5 -8.5t-8.5 -3.5h-117q-5 0 -8.5 3.5t-3.5 8.5v33q0 3 -2 4t-4 -2q-42 -55 -135 -55q-78 0 -126 38t-48 112q0 77 54 119.5t154 42.5h102q5 0 5 5v22q0 33 -20 51.5t-60 18.5q-31 0 -51.5 -11t-26.5 -31
q-3 -11 -13 -10l-121 16q-12 2 -11 9q4 42 33.5 76t78 53t108.5 19zM237 97q43 0 73 23t30 59v36q0 5 -5 5h-72q-45 0 -70.5 -17t-25.5 -48q0 -27 19 -42.5t51 -15.5zM264 566q-64 0 -108 32t-49 82v2q0 10 11 10l60 -1q10 0 12 -11q5 -21 25.5 -34t48.5 -13q29 0 50.5 13
t25.5 35q2 11 12 11h58q12 0 12 -10q-5 -50 -49 -83t-109 -33zM316 745q2 -4 2 -6q0 -8 -10 -8h-84q-9 0 -14 8l-71 101q-2 3 -2 7q0 8 10 8h101q10 0 15 -9z" />
    <glyph glyph-name="uni1EB2" unicode="&#x1eb2;" horiz-adv-x="671" 
d="M506 0q-10 0 -13 10l-30 98q-2 4 -5 4h-246q-3 0 -5 -4l-29 -98q-3 -10 -13 -10h-127q-6 0 -9 3.5t-1 10.5l216 676q3 10 13 10h157q10 0 13 -10l216 -676q1 -2 1 -5q0 -9 -11 -9h-127zM243 227q-1 -6 4 -6h176q6 0 4 6l-90 297q-1 4 -3 3.5t-3 -3.5zM333 751
q-64 0 -108 32t-49 82v2q0 10 11 10l60 -1q10 0 12 -11q5 -21 25.5 -34t48.5 -13q29 0 50.5 13t25.5 35q2 11 12 11h58q12 0 12 -10q-5 -50 -49 -83t-109 -33zM320 903q-14 3 -8 15q7 17 14 27.5t18 22.5q11 11 15 19t4 21q0 10 -8.5 17t-19.5 7q-13 0 -22 -6t-23 -24
q-5 -6 -10 -6t-8 3l-34 25q-5 3 -5 9q0 5 2 8q22 32 45.5 45.5t58.5 13.5q45 0 72 -24.5t27 -67.5q0 -23 -9.5 -38.5t-28.5 -34.5q-21 -23 -26 -32q-6 -11 -15 -8z" />
    <glyph glyph-name="uni1EB3" unicode="&#x1eb3;" horiz-adv-x="528" 
d="M257 522q65 0 116 -22.5t79.5 -61.5t28.5 -87v-339q0 -5 -3.5 -8.5t-8.5 -3.5h-117q-5 0 -8.5 3.5t-3.5 8.5v33q0 3 -2 4t-4 -2q-42 -55 -135 -55q-78 0 -126 38t-48 112q0 77 54 119.5t154 42.5h102q5 0 5 5v22q0 33 -20 51.5t-60 18.5q-31 0 -51.5 -11t-26.5 -31
q-3 -11 -13 -10l-121 16q-12 2 -11 9q4 42 33.5 76t78 53t108.5 19zM237 97q43 0 73 23t30 59v36q0 5 -5 5h-72q-45 0 -70.5 -17t-25.5 -48q0 -27 19 -42.5t51 -15.5zM264 566q-64 0 -108 32t-49 82v2q0 10 11 10l60 -1q10 0 12 -11q5 -21 25.5 -34t48.5 -13q29 0 50.5 13
t25.5 35q2 11 12 11h58q12 0 12 -10q-5 -50 -49 -83t-109 -33zM251 718q-14 3 -8 15q7 17 14 27.5t18 22.5q11 11 15 19t4 21q0 10 -8.5 17t-19.5 7q-13 0 -22 -6t-23 -24q-5 -6 -10 -6t-8 3l-34 25q-5 3 -5 9q0 5 2 8q22 32 45.5 45.5t58.5 13.5q45 0 72 -24.5t27 -67.5
q0 -23 -9.5 -38.5t-28.5 -34.5q-21 -23 -26 -32q-6 -11 -15 -8z" />
    <glyph glyph-name="uni1EB4" unicode="&#x1eb4;" horiz-adv-x="671" 
d="M506 0q-10 0 -13 10l-30 98q-2 4 -5 4h-246q-3 0 -5 -4l-29 -98q-3 -10 -13 -10h-127q-6 0 -9 3.5t-1 10.5l216 676q3 10 13 10h157q10 0 13 -10l216 -676q1 -2 1 -5q0 -9 -11 -9h-127zM243 227q-1 -6 4 -6h176q6 0 4 6l-90 297q-1 4 -3 3.5t-3 -3.5zM391 899
q-18 0 -30 4t-28 12q-28 14 -44 14q-27 0 -46 -17q-5 -5 -10 -5q-4 0 -7 4l-34 36q-8 8 -2 17q15 24 39 38.5t53 14.5q15 0 27.5 -4t23.5 -9t15 -7q15 -8 24 -11.5t19 -3.5q26 0 42 19q5 5 10 5q4 0 7 -4l31 -37q6 -7 3 -14q-12 -23 -36 -37.5t-57 -14.5zM333 751
q-64 0 -108 32t-49 82v2q0 10 11 10l60 -1q10 0 12 -11q5 -21 25.5 -34t48.5 -13q29 0 50.5 13t25.5 35q2 11 12 11h58q12 0 12 -10q-5 -50 -49 -83t-109 -33z" />
    <glyph glyph-name="uni1EB5" unicode="&#x1eb5;" horiz-adv-x="528" 
d="M257 522q65 0 116 -22.5t79.5 -61.5t28.5 -87v-339q0 -5 -3.5 -8.5t-8.5 -3.5h-117q-5 0 -8.5 3.5t-3.5 8.5v33q0 3 -2 4t-4 -2q-42 -55 -135 -55q-78 0 -126 38t-48 112q0 77 54 119.5t154 42.5h102q5 0 5 5v22q0 33 -20 51.5t-60 18.5q-31 0 -51.5 -11t-26.5 -31
q-3 -11 -13 -10l-121 16q-12 2 -11 9q4 42 33.5 76t78 53t108.5 19zM237 97q43 0 73 23t30 59v36q0 5 -5 5h-72q-45 0 -70.5 -17t-25.5 -48q0 -27 19 -42.5t51 -15.5zM322 714q-18 0 -30 4t-28 12q-28 14 -44 14q-27 0 -46 -17q-5 -5 -10 -5q-4 0 -7 4l-34 36q-8 8 -2 17
q15 24 39 38.5t53 14.5q15 0 27.5 -4t23.5 -9t15 -7q15 -8 24 -11.5t19 -3.5q26 0 42 19q5 5 10 5q4 0 7 -4l31 -37q6 -7 3 -14q-12 -23 -36 -37.5t-57 -14.5zM264 566q-64 0 -108 32t-49 82v2q0 10 11 10l60 -1q10 0 12 -11q5 -21 25.5 -34t48.5 -13q29 0 50.5 13t25.5 35
q2 11 12 11h58q12 0 12 -10q-5 -50 -49 -83t-109 -33z" />
    <glyph glyph-name="uni1EB6" unicode="&#x1eb6;" horiz-adv-x="671" 
d="M506 0q-10 0 -13 10l-30 98q-2 4 -5 4h-246q-3 0 -5 -4l-29 -98q-3 -10 -13 -10h-127q-6 0 -9 3.5t-1 10.5l216 676q3 10 13 10h157q10 0 13 -10l216 -676q1 -2 1 -5q0 -9 -11 -9h-127zM243 227q-1 -6 4 -6h176q6 0 4 6l-90 297q-1 4 -3 3.5t-3 -3.5zM336 -216
q-33 0 -54 21.5t-21 53.5q0 34 21 54.5t54 20.5t54 -20.5t21 -54.5q0 -32 -21.5 -53.5t-53.5 -21.5zM333 751q-64 0 -108 32t-49 82v2q0 10 11 10l60 -1q10 0 12 -11q5 -21 25.5 -34t48.5 -13q29 0 50.5 13t25.5 35q2 11 12 11h58q12 0 12 -10q-5 -50 -49 -83t-109 -33z" />
    <glyph glyph-name="uni1EB7" unicode="&#x1eb7;" horiz-adv-x="528" 
d="M257 522q65 0 116 -22.5t79.5 -61.5t28.5 -87v-339q0 -5 -3.5 -8.5t-8.5 -3.5h-117q-5 0 -8.5 3.5t-3.5 8.5v33q0 3 -2 4t-4 -2q-42 -55 -135 -55q-78 0 -126 38t-48 112q0 77 54 119.5t154 42.5h102q5 0 5 5v22q0 33 -20 51.5t-60 18.5q-31 0 -51.5 -11t-26.5 -31
q-3 -11 -13 -10l-121 16q-12 2 -11 9q4 42 33.5 76t78 53t108.5 19zM237 97q43 0 73 23t30 59v36q0 5 -5 5h-72q-45 0 -70.5 -17t-25.5 -48q0 -27 19 -42.5t51 -15.5zM264 -216q-33 0 -54 21.5t-21 53.5q0 34 21 54.5t54 20.5t54 -20.5t21 -54.5q0 -32 -21.5 -53.5
t-53.5 -21.5zM264 566q-64 0 -108 32t-49 82v2q0 10 11 10l60 -1q10 0 12 -11q5 -21 25.5 -34t48.5 -13q29 0 50.5 13t25.5 35q2 11 12 11h58q12 0 12 -10q-5 -50 -49 -83t-109 -33z" />
    <glyph glyph-name="uni1EB8" unicode="&#x1eb8;" horiz-adv-x="584" 
d="M547 591q0 -5 -3.5 -8.5t-8.5 -3.5h-328q-5 0 -5 -5v-155q0 -5 5 -5h215q5 0 8.5 -3.5t3.5 -8.5v-97q0 -5 -3.5 -8.5t-8.5 -3.5h-215q-5 0 -5 -5v-162q0 -5 5 -5h328q5 0 8.5 -3.5t3.5 -8.5v-97q0 -5 -3.5 -8.5t-8.5 -3.5h-462q-5 0 -8.5 3.5t-3.5 8.5v676q0 5 3.5 8.5
t8.5 3.5h462q5 0 8.5 -3.5t3.5 -8.5v-97zM309 -216q-33 0 -54 21.5t-21 53.5q0 34 21 54.5t54 20.5t54 -20.5t21 -54.5q0 -32 -21.5 -53.5t-53.5 -21.5z" />
    <glyph glyph-name="uni1EB9" unicode="&#x1eb9;" horiz-adv-x="544" 
d="M507 310q6 -38 4 -85q-1 -12 -13 -12h-309q-6 0 -4 -5q3 -20 11 -40q26 -56 106 -56q64 1 101 52q4 6 9 6q3 0 7 -4l72 -71q5 -5 5 -9q0 -2 -4 -8q-33 -41 -85 -63.5t-114 -22.5q-86 0 -145.5 39t-85.5 109q-21 50 -21 131q0 55 15 97q23 71 80.5 113t136.5 42
q100 0 160.5 -58t73.5 -155zM274 401q-63 0 -83 -59q-4 -13 -7 -32q0 -5 5 -5h173q6 0 4 5q-5 29 -5 28q-9 30 -31.5 46.5t-55.5 16.5zM286 -225q-33 0 -54 21.5t-21 53.5q0 34 21 54.5t54 20.5t54 -20.5t21 -54.5q0 -32 -21.5 -53.5t-53.5 -21.5z" />
    <glyph glyph-name="uni1EBA" unicode="&#x1eba;" horiz-adv-x="584" 
d="M547 591q0 -5 -3.5 -8.5t-8.5 -3.5h-328q-5 0 -5 -5v-155q0 -5 5 -5h215q5 0 8.5 -3.5t3.5 -8.5v-97q0 -5 -3.5 -8.5t-8.5 -3.5h-215q-5 0 -5 -5v-162q0 -5 5 -5h328q5 0 8.5 -3.5t3.5 -8.5v-97q0 -5 -3.5 -8.5t-8.5 -3.5h-462q-5 0 -8.5 3.5t-3.5 8.5v676q0 5 3.5 8.5
t8.5 3.5h462q5 0 8.5 -3.5t3.5 -8.5v-97zM288 747q-14 3 -8 15q7 17 14 27.5t18 22.5q11 11 15 19t4 21q0 10 -8.5 17t-19.5 7q-13 0 -22 -6t-23 -24q-5 -6 -10 -6t-8 3l-34 25q-5 3 -5 9q0 5 2 8q22 32 45.5 45.5t58.5 13.5q45 0 72 -24.5t27 -67.5q0 -23 -9.5 -38.5
t-28.5 -34.5q-21 -23 -26 -32q-6 -11 -15 -8z" />
    <glyph glyph-name="uni1EBB" unicode="&#x1ebb;" horiz-adv-x="544" 
d="M507 310q6 -38 4 -85q-1 -12 -13 -12h-309q-6 0 -4 -5q3 -20 11 -40q26 -56 106 -56q64 1 101 52q4 6 9 6q3 0 7 -4l72 -71q5 -5 5 -9q0 -2 -4 -8q-33 -41 -85 -63.5t-114 -22.5q-86 0 -145.5 39t-85.5 109q-21 50 -21 131q0 55 15 97q23 71 80.5 113t136.5 42
q100 0 160.5 -58t73.5 -155zM274 401q-63 0 -83 -59q-4 -13 -7 -32q0 -5 5 -5h173q6 0 4 5q-5 29 -5 28q-9 30 -31.5 46.5t-55.5 16.5zM258 561q-14 3 -8 15q7 17 14 27.5t18 22.5q11 11 15 19t4 21q0 10 -8.5 17t-19.5 7q-13 0 -22 -6t-23 -24q-5 -6 -10 -6t-8 3l-34 25
q-5 3 -5 9q0 5 2 8q22 32 45.5 45.5t58.5 13.5q45 0 72 -24.5t27 -67.5q0 -23 -9.5 -38.5t-28.5 -34.5q-21 -23 -26 -32q-6 -11 -15 -8z" />
    <glyph glyph-name="uni1EBC" unicode="&#x1ebc;" horiz-adv-x="584" 
d="M547 591q0 -5 -3.5 -8.5t-8.5 -3.5h-328q-5 0 -5 -5v-155q0 -5 5 -5h215q5 0 8.5 -3.5t3.5 -8.5v-97q0 -5 -3.5 -8.5t-8.5 -3.5h-215q-5 0 -5 -5v-162q0 -5 5 -5h328q5 0 8.5 -3.5t3.5 -8.5v-97q0 -5 -3.5 -8.5t-8.5 -3.5h-462q-5 0 -8.5 3.5t-3.5 8.5v676q0 5 3.5 8.5
t8.5 3.5h462q5 0 8.5 -3.5t3.5 -8.5v-97zM365 759q-21 0 -35 4.5t-32 13.5q-21 10 -30.5 13.5t-20.5 3.5q-31 0 -53 -22q-5 -5 -9 -5q-5 0 -8 4l-41 44q-7 9 -2 17q16 28 44 45t62 17q19 0 33.5 -5t26 -10.5t15.5 -7.5q19 -10 29 -14t21 -4q31 0 48 24q4 5 9 5t8 -4l37 -45
q6 -7 3 -14q-13 -27 -40.5 -43.5t-64.5 -16.5z" />
    <glyph glyph-name="uni1EBD" unicode="&#x1ebd;" horiz-adv-x="544" 
d="M507 310q6 -38 4 -85q-1 -12 -13 -12h-309q-6 0 -4 -5q3 -20 11 -40q26 -56 106 -56q64 1 101 52q4 6 9 6q3 0 7 -4l72 -71q5 -5 5 -9q0 -2 -4 -8q-33 -41 -85 -63.5t-114 -22.5q-86 0 -145.5 39t-85.5 109q-21 50 -21 131q0 55 15 97q23 71 80.5 113t136.5 42
q100 0 160.5 -58t73.5 -155zM274 401q-63 0 -83 -59q-4 -13 -7 -32q0 -5 5 -5h173q6 0 4 5q-5 29 -5 28q-9 30 -31.5 46.5t-55.5 16.5zM335 573q-21 0 -35 4.5t-32 13.5q-21 10 -30.5 13.5t-20.5 3.5q-31 0 -53 -22q-5 -5 -9 -5q-5 0 -8 4l-41 44q-7 9 -2 17q16 28 44 45
t62 17q19 0 33.5 -5t26 -10.5t15.5 -7.5q19 -10 29 -14t21 -4q31 0 48 24q4 5 9 5t8 -4l37 -45q6 -7 3 -14q-13 -27 -40.5 -43.5t-64.5 -16.5z" />
    <glyph glyph-name="uni1EBE" unicode="&#x1ebe;" horiz-adv-x="584" 
d="M547 591q0 -5 -3.5 -8.5t-8.5 -3.5h-328q-5 0 -5 -5v-155q0 -5 5 -5h215q5 0 8.5 -3.5t3.5 -8.5v-97q0 -5 -3.5 -8.5t-8.5 -3.5h-215q-5 0 -5 -5v-162q0 -5 5 -5h328q5 0 8.5 -3.5t3.5 -8.5v-97q0 -5 -3.5 -8.5t-8.5 -3.5h-462q-5 0 -8.5 3.5t-3.5 8.5v676q0 5 3.5 8.5
t8.5 3.5h462q5 0 8.5 -3.5t3.5 -8.5v-97zM154 758q-7 0 -9.5 4.5t1.5 10.5l73 105q5 8 14 8h133q9 0 14 -8l76 -105q3 -4 3 -7q0 -8 -11 -8h-90q-9 0 -14 8l-40 61q-3 6 -6 0l-40 -61q-5 -8 -14 -8h-90zM461 837q-7 0 -9 4t1 10l53 101q4 9 15 9h101q7 0 9.5 -4.5
t-1.5 -10.5l-71 -101q-5 -8 -14 -8h-84z" />
    <glyph glyph-name="uni1EBF" unicode="&#x1ebf;" horiz-adv-x="544" 
d="M507 310q6 -38 4 -85q-1 -12 -13 -12h-309q-6 0 -4 -5q3 -20 11 -40q26 -56 106 -56q64 1 101 52q4 6 9 6q3 0 7 -4l72 -71q5 -5 5 -9q0 -2 -4 -8q-33 -41 -85 -63.5t-114 -22.5q-86 0 -145.5 39t-85.5 109q-21 50 -21 131q0 55 15 97q23 71 80.5 113t136.5 42
q100 0 160.5 -58t73.5 -155zM274 401q-63 0 -83 -59q-4 -13 -7 -32q0 -5 5 -5h173q6 0 4 5q-5 29 -5 28q-9 30 -31.5 46.5t-55.5 16.5zM124 572q-7 0 -9.5 4.5t1.5 10.5l73 105q5 8 14 8h133q9 0 14 -8l76 -105q3 -4 3 -7q0 -8 -11 -8h-90q-9 0 -14 8l-40 61q-3 6 -6 0
l-40 -61q-5 -8 -14 -8h-90zM431 651q-7 0 -9 4t1 10l53 101q4 9 15 9h101q7 0 9.5 -4.5t-1.5 -10.5l-71 -101q-5 -8 -14 -8h-84z" />
    <glyph glyph-name="uni1EC0" unicode="&#x1ec0;" horiz-adv-x="584" 
d="M547 591q0 -5 -3.5 -8.5t-8.5 -3.5h-328q-5 0 -5 -5v-155q0 -5 5 -5h215q5 0 8.5 -3.5t3.5 -8.5v-97q0 -5 -3.5 -8.5t-8.5 -3.5h-215q-5 0 -5 -5v-162q0 -5 5 -5h328q5 0 8.5 -3.5t3.5 -8.5v-97q0 -5 -3.5 -8.5t-8.5 -3.5h-462q-5 0 -8.5 3.5t-3.5 8.5v676q0 5 3.5 8.5
t8.5 3.5h462q5 0 8.5 -3.5t3.5 -8.5v-97zM154 758q-7 0 -9.5 4.5t1.5 10.5l73 105q5 8 14 8h133q9 0 14 -8l76 -105q3 -4 3 -7q0 -8 -11 -8h-90q-9 0 -14 8l-40 61q-3 6 -6 0l-40 -61q-5 -8 -14 -8h-90zM537 894q2 -4 2 -6q0 -8 -10 -8h-84q-9 0 -14 8l-71 101q-2 3 -2 7
q0 8 10 8h101q10 0 15 -9z" />
    <glyph glyph-name="uni1EC1" unicode="&#x1ec1;" horiz-adv-x="544" 
d="M507 310q6 -38 4 -85q-1 -12 -13 -12h-309q-6 0 -4 -5q3 -20 11 -40q26 -56 106 -56q64 1 101 52q4 6 9 6q3 0 7 -4l72 -71q5 -5 5 -9q0 -2 -4 -8q-33 -41 -85 -63.5t-114 -22.5q-86 0 -145.5 39t-85.5 109q-21 50 -21 131q0 55 15 97q23 71 80.5 113t136.5 42
q100 0 160.5 -58t73.5 -155zM274 401q-63 0 -83 -59q-4 -13 -7 -32q0 -5 5 -5h173q6 0 4 5q-5 29 -5 28q-9 30 -31.5 46.5t-55.5 16.5zM125 572q-7 0 -9.5 4.5t1.5 10.5l73 105q5 8 14 8h133q9 0 14 -8l76 -105q3 -4 3 -7q0 -8 -11 -8h-90q-9 0 -14 8l-40 61q-3 6 -6 0
l-40 -61q-5 -8 -14 -8h-90zM508 708q2 -4 2 -6q0 -8 -10 -8h-84q-9 0 -14 8l-71 101q-2 3 -2 7q0 8 10 8h101q10 0 15 -9z" />
    <glyph glyph-name="uni1EC2" unicode="&#x1ec2;" horiz-adv-x="584" 
d="M547 591q0 -5 -3.5 -8.5t-8.5 -3.5h-328q-5 0 -5 -5v-155q0 -5 5 -5h215q5 0 8.5 -3.5t3.5 -8.5v-97q0 -5 -3.5 -8.5t-8.5 -3.5h-215q-5 0 -5 -5v-162q0 -5 5 -5h328q5 0 8.5 -3.5t3.5 -8.5v-97q0 -5 -3.5 -8.5t-8.5 -3.5h-462q-5 0 -8.5 3.5t-3.5 8.5v676q0 5 3.5 8.5
t8.5 3.5h462q5 0 8.5 -3.5t3.5 -8.5v-97zM154 758q-7 0 -9.5 4.5t1.5 10.5l73 105q5 8 14 8h133q9 0 14 -8l76 -105q3 -4 3 -7q0 -8 -11 -8h-90q-9 0 -14 8l-40 61q-3 6 -6 0l-40 -61q-5 -8 -14 -8h-90zM441 868q-14 3 -8 15q7 17 14 27.5t18 22.5q11 11 15 19t4 21
q0 10 -8.5 17t-19.5 7q-13 0 -22 -6t-23 -24q-5 -6 -10 -6t-8 3l-34 25q-5 3 -5 9q0 5 2 8q22 32 45.5 45.5t58.5 13.5q45 0 72 -24.5t27 -67.5q0 -23 -9.5 -38.5t-28.5 -34.5q-21 -23 -26 -32q-6 -11 -15 -8z" />
    <glyph glyph-name="uni1EC3" unicode="&#x1ec3;" horiz-adv-x="544" 
d="M507 310q6 -38 4 -85q-1 -12 -13 -12h-309q-6 0 -4 -5q3 -20 11 -40q26 -56 106 -56q64 1 101 52q4 6 9 6q3 0 7 -4l72 -71q5 -5 5 -9q0 -2 -4 -8q-33 -41 -85 -63.5t-114 -22.5q-86 0 -145.5 39t-85.5 109q-21 50 -21 131q0 55 15 97q23 71 80.5 113t136.5 42
q100 0 160.5 -58t73.5 -155zM274 401q-63 0 -83 -59q-4 -13 -7 -32q0 -5 5 -5h173q6 0 4 5q-5 29 -5 28q-9 30 -31.5 46.5t-55.5 16.5zM125 572q-7 0 -9.5 4.5t1.5 10.5l73 105q5 8 14 8h133q9 0 14 -8l76 -105q3 -4 3 -7q0 -8 -11 -8h-90q-9 0 -14 8l-40 61q-3 6 -6 0
l-40 -61q-5 -8 -14 -8h-90zM412 682q-14 3 -8 15q7 17 14 27.5t18 22.5q11 11 15 19t4 21q0 10 -8.5 17t-19.5 7q-13 0 -22 -6t-23 -24q-5 -6 -10 -6t-8 3l-34 25q-5 3 -5 9q0 5 2 8q22 32 45.5 45.5t58.5 13.5q45 0 72 -24.5t27 -67.5q0 -23 -9.5 -38.5t-28.5 -34.5
q-21 -23 -26 -32q-6 -11 -15 -8z" />
    <glyph glyph-name="uni1EC4" unicode="&#x1ec4;" horiz-adv-x="584" 
d="M547 591q0 -5 -3.5 -8.5t-8.5 -3.5h-328q-5 0 -5 -5v-155q0 -5 5 -5h215q5 0 8.5 -3.5t3.5 -8.5v-97q0 -5 -3.5 -8.5t-8.5 -3.5h-215q-5 0 -5 -5v-162q0 -5 5 -5h328q5 0 8.5 -3.5t3.5 -8.5v-97q0 -5 -3.5 -8.5t-8.5 -3.5h-462q-5 0 -8.5 3.5t-3.5 8.5v676q0 5 3.5 8.5
t8.5 3.5h462q5 0 8.5 -3.5t3.5 -8.5v-97zM154 758q-7 0 -9.5 4.5t1.5 10.5l73 105q5 8 14 8h133q9 0 14 -8l76 -105q3 -4 3 -7q0 -8 -11 -8h-90q-9 0 -14 8l-40 61q-3 6 -6 0l-40 -61q-5 -8 -14 -8h-90zM365 918q-21 0 -35 4.5t-32 13.5q-21 10 -30.5 13.5t-20.5 3.5
q-31 0 -53 -22q-5 -5 -9 -5q-5 0 -8 4l-41 44q-7 9 -2 17q16 28 44 45t62 17q19 0 33.5 -5t26 -10.5t15.5 -7.5q19 -10 29 -14t21 -4q31 0 48 24q4 5 9 5t8 -4l37 -45q6 -7 3 -14q-13 -27 -40.5 -43.5t-64.5 -16.5z" />
    <glyph glyph-name="uni1EC5" unicode="&#x1ec5;" horiz-adv-x="544" 
d="M507 310q6 -38 4 -85q-1 -12 -13 -12h-309q-6 0 -4 -5q3 -20 11 -40q26 -56 106 -56q64 1 101 52q4 6 9 6q3 0 7 -4l72 -71q5 -5 5 -9q0 -2 -4 -8q-33 -41 -85 -63.5t-114 -22.5q-86 0 -145.5 39t-85.5 109q-21 50 -21 131q0 55 15 97q23 71 80.5 113t136.5 42
q100 0 160.5 -58t73.5 -155zM274 401q-63 0 -83 -59q-4 -13 -7 -32q0 -5 5 -5h173q6 0 4 5q-5 29 -5 28q-9 30 -31.5 46.5t-55.5 16.5zM125 572q-7 0 -9.5 4.5t1.5 10.5l73 105q5 8 14 8h133q9 0 14 -8l76 -105q3 -4 3 -7q0 -8 -11 -8h-90q-9 0 -14 8l-40 61q-3 6 -6 0
l-40 -61q-5 -8 -14 -8h-90zM336 732q-21 0 -35 4.5t-32 13.5q-21 10 -30.5 13.5t-20.5 3.5q-31 0 -53 -22q-5 -5 -9 -5q-5 0 -8 4l-41 44q-7 9 -2 17q16 28 44 45t62 17q19 0 33.5 -5t26 -10.5t15.5 -7.5q19 -10 29 -14t21 -4q31 0 48 24q4 5 9 5t8 -4l37 -45q6 -7 3 -14
q-13 -27 -40.5 -43.5t-64.5 -16.5z" />
    <glyph glyph-name="uni1EC6" unicode="&#x1ec6;" horiz-adv-x="584" 
d="M547 591q0 -5 -3.5 -8.5t-8.5 -3.5h-328q-5 0 -5 -5v-155q0 -5 5 -5h215q5 0 8.5 -3.5t3.5 -8.5v-97q0 -5 -3.5 -8.5t-8.5 -3.5h-215q-5 0 -5 -5v-162q0 -5 5 -5h328q5 0 8.5 -3.5t3.5 -8.5v-97q0 -5 -3.5 -8.5t-8.5 -3.5h-462q-5 0 -8.5 3.5t-3.5 8.5v676q0 5 3.5 8.5
t8.5 3.5h462q5 0 8.5 -3.5t3.5 -8.5v-97zM309 -216q-33 0 -54 21.5t-21 53.5q0 34 21 54.5t54 20.5t54 -20.5t21 -54.5q0 -32 -21.5 -53.5t-53.5 -21.5zM154 758q-7 0 -9.5 4.5t1.5 10.5l73 105q5 8 14 8h133q9 0 14 -8l76 -105q3 -4 3 -7q0 -8 -11 -8h-90q-9 0 -14 8
l-40 61q-3 6 -6 0l-40 -61q-5 -8 -14 -8h-90z" />
    <glyph glyph-name="uni1EC7" unicode="&#x1ec7;" horiz-adv-x="544" 
d="M507 310q6 -38 4 -85q-1 -12 -13 -12h-309q-6 0 -4 -5q3 -20 11 -40q26 -56 106 -56q64 1 101 52q4 6 9 6q3 0 7 -4l72 -71q5 -5 5 -9q0 -2 -4 -8q-33 -41 -85 -63.5t-114 -22.5q-86 0 -145.5 39t-85.5 109q-21 50 -21 131q0 55 15 97q23 71 80.5 113t136.5 42
q100 0 160.5 -58t73.5 -155zM274 401q-63 0 -83 -59q-4 -13 -7 -32q0 -5 5 -5h173q6 0 4 5q-5 29 -5 28q-9 30 -31.5 46.5t-55.5 16.5zM286 -225q-33 0 -54 21.5t-21 53.5q0 34 21 54.5t54 20.5t54 -20.5t21 -54.5q0 -32 -21.5 -53.5t-53.5 -21.5zM124 572q-7 0 -9.5 4.5
t1.5 10.5l73 105q5 8 14 8h133q9 0 14 -8l76 -105q3 -4 3 -7q0 -8 -11 -8h-90q-9 0 -14 8l-40 61q-3 6 -6 0l-40 -61q-5 -8 -14 -8h-90z" />
    <glyph glyph-name="uni1EC8" unicode="&#x1ec8;" horiz-adv-x="263" 
d="M73 0q-5 0 -8.5 3.5t-3.5 8.5v676q0 5 3.5 8.5t8.5 3.5h117q5 0 8.5 -3.5t3.5 -8.5v-676q0 -5 -3.5 -8.5t-8.5 -3.5h-117zM118 747q-14 3 -8 15q7 17 14 27.5t18 22.5q11 11 15 19t4 21q0 10 -8.5 17t-19.5 7q-13 0 -22 -6t-23 -24q-5 -6 -10 -6t-8 3l-34 25q-5 3 -5 9
q0 5 2 8q22 32 45.5 45.5t58.5 13.5q45 0 72 -24.5t27 -67.5q0 -23 -9.5 -38.5t-28.5 -34.5q-21 -23 -26 -32q-6 -11 -15 -8z" />
    <glyph glyph-name="uni1EC9" unicode="&#x1ec9;" horiz-adv-x="237" 
d="M60 0q-5 0 -8.5 3.5t-3.5 8.5v490q0 5 3.5 8.5t8.5 3.5h117q5 0 8.5 -3.5t3.5 -8.5v-490q0 -5 -3.5 -8.5t-8.5 -3.5h-117zM105 561q-14 3 -8 15q7 17 14 27.5t18 22.5q11 11 15 19t4 21q0 10 -8.5 17t-19.5 7q-13 0 -22 -6t-23 -24q-5 -6 -10 -6t-8 3l-34 25q-5 3 -5 9
q0 5 2 8q22 32 45.5 45.5t58.5 13.5q45 0 72 -24.5t27 -67.5q0 -23 -9.5 -38.5t-28.5 -34.5q-21 -23 -26 -32q-6 -11 -15 -8z" />
    <glyph glyph-name="uni1ECA" unicode="&#x1eca;" horiz-adv-x="263" 
d="M73 0q-5 0 -8.5 3.5t-3.5 8.5v676q0 5 3.5 8.5t8.5 3.5h117q5 0 8.5 -3.5t3.5 -8.5v-676q0 -5 -3.5 -8.5t-8.5 -3.5h-117zM132 -216q-33 0 -54 21.5t-21 53.5q0 34 21 54.5t54 20.5t54 -20.5t21 -54.5q0 -32 -21.5 -53.5t-53.5 -21.5z" />
    <glyph glyph-name="uni1ECB" unicode="&#x1ecb;" horiz-adv-x="255" 
d="M128 572q-34 0 -56.5 22.5t-22.5 56.5q0 35 22 57t57 22t57 -22t22 -57q0 -34 -22.5 -56.5t-56.5 -22.5zM68 0q-5 0 -8.5 3.5t-3.5 8.5v491q0 5 3.5 8.5t8.5 3.5h117q5 0 8.5 -3.5t3.5 -8.5v-491q0 -5 -3.5 -8.5t-8.5 -3.5h-117zM127 -216q-33 0 -54 21.5t-21 53.5
q0 34 21 54.5t54 20.5t54 -20.5t21 -54.5q0 -32 -21.5 -53.5t-53.5 -21.5z" />
    <glyph glyph-name="uni1ECC" unicode="&#x1ecc;" horiz-adv-x="621" 
d="M310 -11q-78 0 -137.5 32t-92.5 89.5t-33 132.5v214q0 74 33 131t92.5 88.5t137.5 31.5q79 0 138.5 -31.5t92.5 -88.5t33 -131v-214q0 -75 -33 -133t-92.5 -89.5t-138.5 -31.5zM310 110q55 0 89 35t34 93v220q0 58 -33.5 93.5t-89.5 35.5q-55 0 -88.5 -35.5t-33.5 -93.5
v-220q0 -58 33.5 -93t88.5 -35zM311 -216q-33 0 -54 21.5t-21 53.5q0 34 21 54.5t54 20.5t54 -20.5t21 -54.5q0 -32 -21.5 -53.5t-53.5 -21.5z" />
    <glyph glyph-name="uni1ECD" unicode="&#x1ecd;" horiz-adv-x="549" 
d="M279 -8q-84 0 -144 44t-82 120q-14 47 -14 102q0 59 14 106q23 74 83 116t144 42q82 0 140 -41.5t82 -115.5q16 -50 16 -105q0 -54 -14 -101q-22 -78 -81.5 -122.5t-143.5 -44.5zM279 113q33 0 56 20t33 55q8 32 8 70q0 42 -8 71q-11 34 -34 53t-56 19q-34 0 -56.5 -19
t-32.5 -53q-8 -24 -8 -71q0 -45 7 -70q10 -35 33.5 -55t57.5 -20zM275 -216q-33 0 -54 21.5t-21 53.5q0 34 21 54.5t54 20.5t54 -20.5t21 -54.5q0 -32 -21.5 -53.5t-53.5 -21.5z" />
    </font>
</defs>
</svg>
