<?xml version="1.0" standalone="no"?>
<!DOCTYPE svg PUBLIC "-//W3C//DTD SVG 1.1//EN" "http://www.w3.org/Graphics/SVG/1.1/DTD/svg11.dtd" >
<svg xmlns="http://www.w3.org/2000/svg" xmlns:xlink="http://www.w3.org/1999/xlink" version="1.1">
<metadata>
Created by FontForge 20201107 at Mon Sep 15 10:31:58 2025
 By 
Copyright 2017 The Barlow Project Authors (https://github.com/jpt/barlow)
</metadata>
<defs>
<font id="INNOQ-Medium" horiz-adv-x="541" >
  <font-face 
    font-family="INNO-Q Med"
    font-weight="500"
    font-stretch="normal"
    units-per-em="1000"
    panose-1="0 0 0 0 0 0 0 0 0 0"
    ascent="800"
    descent="-200"
    x-height="509"
    cap-height="700"
    bbox="-604 -209 1129 1089"
    underline-thickness="50"
    underline-position="-100"
    unicode-range="U+000D-FB02"
  />
<missing-glyph horiz-adv-x="438" 
d="M0 696q0 4 4 4h430q4 0 4 -4v-692q0 -4 -4 -4h-430q-4 0 -4 4v692zM236 239q10 0 10 10v29q0 19 11 32t37 33q36 25 55.5 51.5t19.5 72.5q0 59 -39.5 94.5t-103.5 35.5q-67 0 -108 -37t-41 -97v-13q0 -10 10 -10l49 -2q10 0 10 10v15q0 32 21.5 51.5t56.5 19.5t55.5 -19
t20.5 -50q0 -27 -14.5 -45t-44.5 -41q-32 -24 -48 -44t-16 -53v-33q0 -10 10 -10h49zM209 91q20 0 33 12.5t13 32.5t-13 33t-33 13t-32.5 -13t-12.5 -33q0 -19 13 -32t32 -13z" />
    <glyph glyph-name="fi" unicode="fi" horiz-adv-x="622" 
d="M294 616q-50 0 -68 -19t-18 -72v-12q0 -4 4 -4h105q10 0 10 -10v-68q0 -10 -10 -10h-105q-4 0 -4 -4v-407q0 -10 -10 -10h-76q-10 0 -10 10v407q0 4 -4 4h-67q-10 0 -10 10v68q0 10 10 10h67q4 0 4 4v18q0 66 15.5 102t52.5 51.5t104 15.5h34q10 0 10 -10v-64
q0 -10 -10 -10h-24zM495 589q-28 0 -46 18t-18 46t18 46t46 18t46 -18t18 -46t-18 -46t-46 -18zM455 1q-10 0 -10 10v488q0 10 10 10h76q10 0 10 -10v-488q0 -10 -10 -10h-76z" />
    <glyph glyph-name="fl" unicode="fl" horiz-adv-x="602" 
d="M294 616q-50 0 -68 -19t-18 -72v-12q0 -4 4 -4h105q10 0 10 -10v-68q0 -10 -10 -10h-105q-4 0 -4 -4v-407q0 -10 -10 -10h-76q-10 0 -10 10v407q0 4 -4 4h-67q-10 0 -10 10v68q0 10 10 10h67q4 0 4 4v18q0 66 15.5 102t52.5 51.5t104 15.5h34q10 0 10 -10v-64
q0 -10 -10 -10h-24zM447 0q-10 0 -10 10v680q0 10 10 10h76q10 0 10 -10v-680q0 -10 -10 -10h-76z" />
    <glyph glyph-name="hyphen_hyphen.liga" unicode="&#x2d;&#x2d;" horiz-adv-x="676" 
d="M45 259q-10 0 -10 10v63q0 10 10 10h586q10 0 10 -10v-63q0 -10 -10 -10h-586z" />
    <glyph glyph-name="IJ.liga" unicode="IJ" horiz-adv-x="840" 
d="M92 0q-10 0 -10 10v680q0 10 10 10h76q10 0 10 -10v-680q0 -10 -10 -10h-76zM521 -8q-71 0 -124.5 27t-82.5 76t-29 113v71q0 10 10 10h76q10 0 10 -10v-71q0 -60 38 -96.5t102 -36.5q62 0 101 36.5t39 96.5v482q0 10 10 10h76q10 0 10 -10v-482q0 -64 -29.5 -113
t-83.5 -76t-123 -27z" />
    <glyph glyph-name="f_f_i" unicode="ffi" horiz-adv-x="951" 
d="M824 589q-28 0 -46 18t-18 46q0 29 18 46.5t46 17.5t46 -18t18 -46t-18.5 -46t-45.5 -18zM538 513q0 -4 4 -4h112q10 0 10 -10v-59q0 -10 -10 -10h-112q-4 0 -4 -4v-416q0 -10 -10 -10h-76q-10 0 -10 10v416q0 4 -4 4h-232q-4 0 -4 -4v-416q0 -10 -10 -10h-75
q-10 0 -10 10v416q0 4 -4 4h-62q-10 0 -10 10v59q0 10 10 10h62q4 0 4 4v34q0 82 39.5 119t135.5 34h32q10 0 10 -10v-47q0 -10 -10 -10h-32q-46 -1 -63 -23.5t-17 -69.5v-27q0 -4 4 -4h232q4 0 4 4v34q0 82 39.5 119t136.5 34h32q10 0 10 -10v-47q0 -10 -10 -10h-32
q-46 -1 -63 -23.5t-17 -69.5v-27zM784 1q-10 0 -10 10v488q0 10 10 10h76q10 0 10 -10v-488q0 -10 -10 -10h-76z" />
    <glyph glyph-name="f_f_l" unicode="ffl" horiz-adv-x="933" 
d="M538 513q0 -4 4 -4h112q10 0 10 -10v-59q0 -10 -10 -10h-112q-4 0 -4 -4v-416q0 -10 -10 -10h-76q-10 0 -10 10v416q0 4 -4 4h-232q-4 0 -4 -4v-416q0 -10 -10 -10h-75q-10 0 -10 10v416q0 4 -4 4h-62q-10 0 -10 10v59q0 10 10 10h62q4 0 4 4v34q0 82 39.5 119t135.5 34
h32q10 0 10 -10v-47q0 -10 -10 -10h-32q-46 -1 -63 -23.5t-17 -69.5v-27q0 -4 4 -4h232q4 0 4 4v34q0 82 39.5 119t136.5 34h32q10 0 10 -10v-47q0 -10 -10 -10h-32q-46 -1 -63 -23.5t-17 -69.5v-27zM768 690q0 10 10 10h76q10 0 10 -10v-680q0 -10 -10 -10h-76
q-10 0 -10 10v680z" />
    <glyph glyph-name="g_j.liga" unicode="gj" horiz-adv-x="787" 
d="M659 589q-28 0 -46 18t-18 46t18 46t46 18q29 0 47 -18t18 -46t-18.5 -46t-46.5 -18zM378 467q2 -2 3.5 -1.5t1.5 2.5v31q0 10 10 10h76q10 0 10 -10v-473q0 -121 -68.5 -173t-183.5 -52q-16 0 -50 2q-10 1 -10 11l3 69q0 4 3 7t8 2q14 -1 41 -1q85 0 123 31.5t38 106.5
v18q0 2 -1.5 3t-3.5 -1q-42 -49 -123 -49q-65 0 -117.5 34t-72.5 100q-13 44 -13 122q0 83 15 128q19 60 67.5 96.5t114.5 36.5q82 0 129 -50zM612 499q0 10 10 10h76q10 0 10 -10v-527q0 -96 -49.5 -138t-152.5 -40q-10 0 -10 10v61q0 10 10 10q48 0 77 24.5t29 71.5v528z
M377 163q3 16 4.5 34t1.5 60t-1.5 59.5t-5.5 33.5q-8 37 -36 60.5t-70 23.5t-70 -23.5t-40 -60.5q-11 -30 -11 -93q0 -69 10 -94q10 -37 39.5 -60.5t71.5 -23.5q44 0 71.5 23.5t35.5 60.5z" />
    <glyph glyph-name="ij.liga" unicode="ij" horiz-adv-x="503" 
d="M128 589q-28 0 -46.5 18t-18.5 46t18 46t47 18q28 0 46 -18t18 -46t-18.5 -46t-45.5 -18zM372 589q-28 0 -46 18t-18 46t18 46t46 18q29 0 46.5 -17.5t17.5 -46.5q0 -28 -18 -46t-46 -18zM93 0q-10 0 -10 10v489q0 10 10 10h76q10 0 10 -10v-489q0 -10 -10 -10h-76z
M219 -207q-10 0 -10 10v62q0 10 10 10q57 0 82.5 23t25.5 73v528q0 10 10 10h76q10 0 10 -10v-527q0 -66 -20 -105t-64.5 -57t-119.5 -17z" />
    <glyph glyph-name=".notdef" horiz-adv-x="438" 
d="M0 696q0 4 4 4h430q4 0 4 -4v-692q0 -4 -4 -4h-430q-4 0 -4 4v692zM236 239q10 0 10 10v29q0 19 11 32t37 33q36 25 55.5 51.5t19.5 72.5q0 59 -39.5 94.5t-103.5 35.5q-67 0 -108 -37t-41 -97v-13q0 -10 10 -10l49 -2q10 0 10 10v15q0 32 21.5 51.5t56.5 19.5t55.5 -19
t20.5 -50q0 -27 -14.5 -45t-44.5 -41q-32 -24 -48 -44t-16 -53v-33q0 -10 10 -10h49zM209 91q20 0 33 12.5t13 32.5t-13 33t-33 13t-32.5 -13t-12.5 -33q0 -19 13 -32t32 -13z" />
    <glyph glyph-name=".null" horiz-adv-x="0" 
 />
    <glyph glyph-name=".null" horiz-adv-x="0" 
 />
    <glyph glyph-name="uni000D" unicode="&#xd;" horiz-adv-x="200" 
 />
    <glyph glyph-name="space" unicode=" " horiz-adv-x="200" 
 />
    <glyph glyph-name="exclam" unicode="!" horiz-adv-x="328" 
d="M136 232q-10 0 -10 10l-9 448q0 10 10 10h76q10 0 10 -10l-8 -448q0 -10 -10 -10h-59zM161 3q-28 0 -46 18t-18 46t18 46t46 18t46 -18t18 -46t-18 -46t-46 -18z" />
    <glyph glyph-name="quotedbl" unicode="&#x22;" horiz-adv-x="297" 
d="M45 482q-11 0 -11 10l-9 194q0 10 9 10h74q10 0 10 -10l-10 -194q0 -10 -10 -10h-53zM201 482q-10 0 -10 10l-9 194q0 10 9 10h74q9 0 9 -10l-10 -194q0 -10 -10 -10h-53z" />
    <glyph glyph-name="numbersign" unicode="#" horiz-adv-x="669" 
d="M605 430q0 -10 -10 -10h-77q-5 0 -5 -4l-20 -138q0 -4 3 -4h63q10 0 10 -10v-63q0 -10 -10 -10h-76q-5 0 -5 -4l-25 -158q-1 -9 -10 -9l-76 1q-4 0 -7 3t-2 8l24 155q0 4 -3 4h-139q-5 0 -5 -4l-25 -158q-1 -9 -10 -9l-76 1q-4 0 -7 3t-2 8l24 155q0 4 -3 4h-63
q-10 0 -10 10l1 63q0 10 10 10h74q5 0 5 4l21 138q0 4 -3 4h-61q-10 0 -10 10v64q0 10 10 10h74q5 0 5 4l25 158q1 9 10 9l76 -1q4 0 7 -3t2 -8l-24 -155q0 -4 3 -4h139q5 0 5 4l25 158q1 9 10 9l76 -1q4 0 7 -3t2 -8l-24 -155q0 -4 3 -4h65q10 0 10 -10zM391 274q5 0 5 4
l21 138q0 4 -3 4h-139q-5 0 -5 -4l-20 -138q0 -4 3 -4h138z" />
    <glyph glyph-name="dollar" unicode="$" horiz-adv-x="563" 
d="M515 183q0 -78 -49.5 -128.5t-137.5 -60.5q-4 0 -4 -4l1 -70q0 -10 -10 -10h-66q-10 0 -10 10l1 71q0 4 -4 4q-89 12 -139 62.5t-50 129.5v29q0 10 10 10h69q10 0 10 -10v-24q0 -51 42 -84t114 -33q65 0 98.5 29t33.5 76q0 31 -17 53t-50 40.5t-96 44.5q-70 28 -110 51
t-66.5 60.5t-26.5 94.5q0 76 47 123.5t128 58.5q4 0 4 4l-1 77q0 10 10 10h65q10 0 10 -10l-1 -78q0 -4 4 -5q86 -12 135.5 -64t49.5 -131v-20q0 -10 -10 -10h-70q-10 0 -10 10v15q0 52 -39 86.5t-109 34.5q-59 0 -91 -25.5t-32 -73.5q0 -33 16.5 -54t48 -37.5t96.5 -42.5
q68 -28 109.5 -51.5t69 -62t27.5 -95.5z" />
    <glyph glyph-name="percent" unicode="%" horiz-adv-x="839" 
d="M232 413q-41 0 -75.5 20t-54.5 54t-20 75q0 40 20 74t54.5 53.5t75.5 19.5q40 0 74 -20t54 -53.5t20 -73.5q0 -41 -20 -75t-54 -54t-74 -20zM203 0q-6 0 -8 3.5t1 8.5l378 681q4 7 12 7h49q6 0 8 -3.5t-1 -8.5l-378 -681q-3 -7 -12 -7h-49zM232 472q37 0 62 26t25 64
q0 37 -25.5 62.5t-61.5 25.5q-37 0 -63 -25.5t-26 -62.5q0 -38 26 -64t63 -26zM613 -9q-41 0 -75.5 20t-54.5 54t-20 74t20 74t54.5 54t75.5 20q40 0 74 -20t54 -54t20 -74t-20 -74t-54 -54t-74 -20zM613 50q37 0 62 26t25 63t-25.5 63t-61.5 26q-37 0 -63 -26t-26 -63
t26 -63t63 -26z" />
    <glyph glyph-name="ampersand" unicode="&#x26;" horiz-adv-x="675" 
d="M615 12q3 -3 3 -6q0 -6 -8 -6h-86q-7 0 -12 6l-51 58q-2 3 -6 1q-47 -38 -97 -55.5t-106 -17.5q-90 0 -147.5 42.5t-57.5 124.5q0 69 38.5 116.5t105.5 91.5q4 2 1 5q-56 68 -74 103.5t-18 73.5q0 45 22.5 81.5t64 57t94.5 20.5q82 0 135 -45t53 -118q0 -61 -36.5 -106.5
t-100.5 -88.5q-4 -1 -1 -5q38 -46 125 -145l4 -5q1 -2 3 -2t3 1q44 55 65 85q5 8 13 3l57 -32q9 -5 3 -14q-44 -67 -83 -108v-2q0 -2 3 -7q35 -42 91 -107zM284 620q-40 0 -64 -21.5t-24 -57.5q0 -20 13.5 -43.5t57.5 -78.5q3 -3 6 -1q49 32 74.5 61t25.5 64t-25 56t-64 21z
M253 74q71 0 145 55q3 3 0 6l-34 41q-30 34 -36 40l-73 82q-1 3 -5 1q-52 -34 -79 -66t-27 -73q0 -40 29.5 -63t79.5 -23z" />
    <glyph glyph-name="quotesingle" unicode="'" horiz-adv-x="145" 
d="M45 486q-11 0 -11 10l-9 192q0 10 9 10h79q9 0 9 -10l-10 -192q0 -10 -10 -10h-57z" />
    <glyph glyph-name="parenleft" unicode="(" horiz-adv-x="291" 
d="M125 -100q-7 0 -12 6q-52 76 -84 186t-32 236q0 129 32.5 240.5t85.5 187.5q4 6 12 6h72q6 0 8 -3.5t-1 -8.5q-44 -79 -72.5 -188.5t-28.5 -232.5t28.5 -231t72.5 -186q2 -4 2 -6q0 -6 -9 -6h-74z" />
    <glyph glyph-name="parenright" unicode=")" horiz-adv-x="291" 
d="M166 762q7 0 12 -6q53 -76 85 -186t32 -236q0 -128 -32.5 -239.5t-85.5 -188.5q-4 -6 -12 -6h-73q-6 0 -8 3.5t1 8.5q45 79 73.5 188.5t28.5 232.5q0 122 -28.5 230.5t-73.5 186.5q-2 4 -2 6q0 6 9 6h74z" />
    <glyph glyph-name="asterisk" unicode="*" horiz-adv-x="398" 
d="M180 393q-10 0 -10 10v112q0 2 -1.5 3t-3.5 0l-102 -59q-2 -1 -5 -1q-6 0 -9 5l-19 34q-1 2 -1 5q0 6 5 9l103 56q2 1 2 3t-2 3l-103 56q-4 2 -5 6t1 8l19 34q2 4 6 5t8 -1l102 -58q2 -1 3.5 0t1.5 3v111q0 10 10 10h38q10 0 10 -10v-111q0 -2 1.5 -3t3.5 0l102 58
q2 1 5 1q6 0 9 -5l18 -34q1 -2 1 -5q0 -6 -5 -9l-103 -56q-2 -1 -2 -3t2 -3l103 -56q4 -2 5 -6t-1 -8l-18 -34q-2 -4 -6 -5t-8 1l-102 59q-2 1 -3.5 0t-1.5 -3v-112q0 -10 -10 -10h-38z" />
    <glyph glyph-name="plus" unicode="+" horiz-adv-x="495" 
d="M450 350q10 0 10 -10v-63q0 -10 -10 -10h-157q-4 0 -4 -4v-154q0 -10 -10 -10h-63q-10 0 -10 10v154q0 4 -4 4h-157q-10 0 -10 10v63q0 10 10 10h157q4 0 4 4v160q0 10 10 10h63q10 0 10 -10v-160q0 -4 4 -4h157z" />
    <glyph glyph-name="comma" unicode="," horiz-adv-x="264" 
d="M67 -86q-5 0 -7.5 3t-1.5 8l40 222q2 9 11 9h66q5 0 7.5 -3t1.5 -8l-59 -222q-2 -9 -11 -9h-47z" />
    <glyph glyph-name="hyphen" unicode="-" horiz-adv-x="400" 
d="M45 264q-10 0 -10 10v63q0 10 10 10h309q10 0 10 -10v-63q0 -10 -10 -10h-309z" />
    <glyph glyph-name="period" unicode="." horiz-adv-x="275" 
d="M135 0q-28 0 -46 18t-18 46t18 46t46 18t46 -18t18 -46t-18 -46t-46 -18z" />
    <glyph glyph-name="slash" unicode="/" horiz-adv-x="426" 
d="M37 0q-11 0 -8 11l235 681q3 8 12 8h75q11 0 8 -11l-235 -681q-3 -8 -12 -8h-75z" />
    <glyph glyph-name="zero" unicode="0" horiz-adv-x="566" 
d="M282 -10q-101 0 -160.5 57.5t-59.5 154.5v296q0 97 59.5 154t160.5 57t161.5 -57t60.5 -154v-296q0 -97 -60.5 -154.5t-161.5 -57.5zM282 73q58 0 92 33.5t34 89.5v306q0 56 -34 89.5t-92 33.5q-56 0 -90 -33.5t-34 -89.5v-306q0 -56 34 -89.5t90 -33.5z" />
    <glyph glyph-name="one" unicode="1" horiz-adv-x="352" 
d="M170 697q6 3 13 3h79q10 0 10 -10v-680q0 -10 -10 -10h-76q-10 0 -10 10v587q0 2 -1.5 3t-3.5 0l-105 -36q-2 -1 -5 -1q-6 0 -7 8l-4 57q0 10 6 12z" />
    <glyph glyph-name="two" unicode="2" horiz-adv-x="544" 
d="M179 88q-1 -2 0 -3.5t3 -1.5h301q10 0 10 -10v-63q0 -10 -10 -10h-419q-10 0 -10 10v61q0 7 5 12q34 39 156 183l69 83q93 111 93 172q0 47 -31.5 75.5t-83.5 28.5t-83 -29t-30 -76v-30q0 -10 -10 -10h-77q-10 0 -10 10v43q2 52 29.5 92t74.5 61.5t106 21.5q64 0 112 -24
t74 -66t26 -95q0 -83 -90 -196q-40 -51 -95 -114.5t-110 -124.5z" />
    <glyph glyph-name="three" unicode="3" horiz-adv-x="524" 
d="M447 332q20 -49 20 -113q0 -53 -16 -98q-22 -62 -73 -95.5t-123 -33.5t-124.5 37t-73.5 100q-11 28 -13 80q0 10 10 10h77q10 0 10 -10q2 -36 8 -53q10 -37 37.5 -59t68.5 -22q76 0 102 69q13 30 13 78q0 51 -16 91q-28 62 -100 62q-17 0 -43 -15q-4 -2 -6 -2q-5 0 -8 5
l-38 52q-2 4 -2 7t3 7l171 183q3 5 -2 5h-266q-10 0 -10 10v63q0 10 10 10h388q10 0 10 -10v-72q0 -5 -5 -12l-152 -166q-2 -2 -1 -3.5t4 -2.5q51 -5 86 -31.5t54 -70.5z" />
    <glyph glyph-name="four" unicode="4" horiz-adv-x="570" 
d="M504 274q10 0 10 -10v-66q0 -10 -10 -10h-43q-4 0 -4 -4v-174q0 -10 -10 -10h-76q-10 0 -10 10v174q0 4 -4 4h-304q-10 0 -10 10v54q0 5 3 12l197 429q3 7 11 7h80q5 0 7.5 -3.5t0.5 -8.5l-188 -409q-1 -2 0 -3.5t3 -1.5h200q4 0 4 4v149q0 10 10 10h76q10 0 10 -10v-149
q0 -4 4 -4h43z" />
    <glyph glyph-name="five" unicode="5" horiz-adv-x="523" 
d="M468 310q11 -44 11 -91t-12 -87q-19 -64 -72.5 -101.5t-127.5 -37.5q-73 0 -125 36t-73 98q-10 28 -11 49v2q0 8 9 8h79q9 0 10 -9q1 -7 5 -21q11 -37 38.5 -58.5t66.5 -21.5q41 0 69.5 22.5t38.5 62.5q7 21 7 58q0 33 -6 61q-7 38 -35.5 58.5t-70.5 20.5
q-39 0 -70 -17.5t-40 -46.5q-3 -9 -11 -9h-80q-10 0 -10 10v394q0 10 10 10h374q10 0 10 -10v-63q0 -10 -10 -10h-284q-4 0 -4 -4l-1 -209q0 -6 5 -3q24 21 55.5 31.5t66.5 10.5q70 0 120.5 -35t67.5 -98z" />
    <glyph glyph-name="six" unicode="6" horiz-adv-x="523" 
d="M451 345q28 -53 28 -127q0 -61 -20 -107q-23 -57 -71.5 -87.5t-117.5 -30.5q-74 0 -125.5 34t-72.5 96q-15 42 -15 97v308q0 82 57 131t149 49q59 0 104.5 -22t70.5 -61.5t25 -90.5v-20q0 -10 -10 -10h-76q-10 0 -10 10v9q0 45 -29 73t-75 28q-49 0 -79.5 -29t-30.5 -77
v-126q0 -2 1.5 -2.5t3.5 1.5q43 48 125 48q118 0 168 -94zM368 141q15 32 15 77q0 51 -18 82q-29 58 -98 58q-35 0 -60 -15.5t-38 -44.5q-16 -33 -16 -85q0 -42 13 -71q13 -32 39 -48.5t63 -16.5q73 0 100 64z" />
    <glyph glyph-name="seven" unicode="7" horiz-adv-x="481" 
d="M140 0q-5 0 -7.5 3.5t-0.5 8.5l227 600q1 2 0 3.5t-3 1.5h-241q-4 0 -4 -4v-47q0 -10 -10 -10h-60q-10 0 -10 10v124q0 10 10 10h411q10 0 10 -10v-67q0 -4 -2 -12l-226 -603q-3 -8 -11 -8h-83z" />
    <glyph glyph-name="eight" unicode="8" horiz-adv-x="527" 
d="M454 299q21 -42 21 -100q0 -64 -28 -112q-24 -45 -71.5 -70t-111.5 -25t-113 25.5t-74 73.5q-27 47 -27 109q0 55 22 101t65 69q5 2 0 5q-32 24 -48 50q-28 42 -28 96q0 59 34 108q25 38 69.5 60t99.5 22q56 0 99 -22t68 -60q33 -49 33 -108q0 -54 -28 -98
q-18 -28 -47 -48q-5 -3 0 -5q42 -23 65 -71zM170 572q-14 -26 -14 -51q0 -40 19 -67q27 -45 88 -45q60 0 89 46q17 24 17 67q0 28 -13 51q-13 25 -37 40t-57 15q-31 0 -55 -15t-37 -41zM355 121q23 32 23 86q0 48 -17 79q-28 52 -98 52q-68 0 -96 -49q-19 -32 -19 -83
q0 -50 21 -82q29 -48 95 -48q62 0 91 45z" />
    <glyph glyph-name="nine" unicode="9" horiz-adv-x="525" 
d="M453 577q15 -42 15 -97v-308q0 -82 -57 -131t-149 -49q-59 0 -104.5 22t-70.5 61.5t-25 90.5v20q0 10 10 10h76q10 0 10 -10v-9q0 -45 29 -73t75 -28q48 0 79 29t31 77v126q0 2 -1.5 3t-3.5 -1q-43 -49 -125 -49q-59 0 -101.5 24t-66.5 70q-28 53 -28 127q0 60 19 107
q23 57 72 87.5t118 30.5q74 0 125 -34t73 -96zM356 402q16 33 16 85q0 42 -13 71q-13 32 -39 48.5t-63 16.5t-62.5 -16.5t-37.5 -47.5q-15 -31 -15 -77q0 -50 17 -82q31 -58 98 -58q71 0 99 60z" />
    <glyph glyph-name="colon" unicode=":" horiz-adv-x="348" 
d="M172 344q-28 0 -46 18t-18 46t18 46t46 18t46 -18t18 -46t-18 -46t-46 -18zM172 11q-28 0 -46 18t-18 46t18 46t46 18t46 -18t18 -46t-18 -46t-46 -18z" />
    <glyph glyph-name="semicolon" unicode=";" horiz-adv-x="312" 
d="M158 335q-31 0 -51.5 20t-20.5 49q0 28 22 48.5t50 20.5q29 0 51.5 -20.5t22.5 -48.5q0 -29 -21.5 -49t-52.5 -20zM101 -83q-5 0 -8 3.5t-2 7.5l27 216q1 9 10 9h68q11 0 9 -11l-47 -216q-1 -9 -11 -9h-46z" />
    <glyph glyph-name="less" unicode="&#x3c;" horiz-adv-x="495" 
d="M460 48q0 -5 -3.5 -7.5t-8.5 -0.5l-406 186q-7 4 -7 11v69q0 7 8 11l405 186l4 1q8 0 8 -9v-73q0 -8 -8 -11l-314 -137q-6 -3 0 -6l314 -137q8 -3 8 -11v-72z" />
    <glyph glyph-name="equal" unicode="=" horiz-adv-x="495" 
d="M45 369q-10 0 -10 10v63q0 10 10 10h405q10 0 10 -10v-63q0 -10 -10 -10h-405zM45 167q-10 0 -10 10v63q0 10 10 10h405q10 0 10 -10v-63q0 -10 -10 -10h-405z" />
    <glyph glyph-name="greater" unicode="&#x3e;" horiz-adv-x="495" 
d="M43 39q-8 0 -8 9v72q0 8 8 11l313 137q6 3 0 6l-313 137q-8 3 -8 11v73q0 5 3.5 7.5t8.5 0.5l406 -186q7 -3 7 -11v-69q0 -7 -7 -11l-406 -186z" />
    <glyph glyph-name="question" unicode="?" horiz-adv-x="482" 
d="M185 208q-10 0 -10 10v50q0 45 23 74t67 62q41 31 62 56t21 64q0 45 -29.5 71.5t-77.5 26.5q-49 0 -79 -27.5t-30 -72.5v-26q0 -10 -10 -10l-76 4q-10 0 -10 10v22q0 55 26 97.5t73.5 66t108.5 23.5q91 0 146 -50t55 -132q0 -44 -15 -76t-36 -52.5t-54 -44.5
q-35 -26 -51.5 -45t-16.5 -46v-45q0 -10 -10 -10h-77zM221 1q-28 0 -46 18t-18 46t18 46t46 18t46 -18t18 -46t-18 -46t-46 -18z" />
    <glyph glyph-name="at" unicode="@" horiz-adv-x="823" 
d="M452 631q94 0 165 -37t110.5 -104.5t39.5 -156.5q0 -26 -3 -53q-13 -95 -59 -147t-118 -52q-35 0 -61.5 12t-42.5 35q-3 5 -6 0q-19 -21 -46 -33t-55 -12q-56 0 -91.5 27t-41.5 70q-2 18 -2 28q0 23 5 58q6 52 19 85q16 47 54.5 73t85.5 26q54 0 81 -33q2 -2 3.5 -1
t1.5 3l2 17q1 9 10 9h47q5 0 8 -3.5t2 -7.5l-27 -201q-1 -6 -1 -17q0 -32 16.5 -52.5t45.5 -20.5q38 0 64.5 35t35.5 99q4 36 4 52q0 112 -68.5 176t-181.5 64q-86 0 -161 -40t-120.5 -117t-45.5 -184q0 -75 29.5 -133.5t85 -91t130.5 -32.5q50 0 95.5 11.5t69.5 28.5
q3 2 7 2t7 -4l25 -30q2 -2 2 -6q0 -5 -4 -8q-35 -26 -93 -42t-118 -16q-91 0 -159.5 40t-106 113.5t-37.5 169.5q0 23 1 35q8 111 65.5 194t145.5 127.5t186 44.5zM377 141q28 0 48 16t30 42q7 15 10 35l6 46q3 27 3 38l-1 17q-2 25 -19.5 41t-44.5 16q-28 0 -50 -16
t-32 -40q-8 -20 -15 -72q-5 -29 -5 -47q0 -8 2 -18q2 -26 20.5 -42t47.5 -16z" />
    <glyph glyph-name="A" unicode="A" horiz-adv-x="630" 
d="M507 0q-9 0 -12 8l-36 117q-1 3 -4 3h-281q-3 0 -4 -3l-36 -117q-3 -8 -12 -8h-81q-11 0 -8 11l219 681q3 8 12 8h100q9 0 12 -8l221 -681l1 -4q0 -7 -9 -7h-82zM195 209q-1 -2 0.5 -3.5t3.5 -1.5h230q2 0 3.5 1.5t0.5 3.5l-116 371q-1 2 -3 2t-3 -2z" />
    <glyph glyph-name="B" unicode="B" horiz-adv-x="624" 
d="M455 365q-5 -3 0 -6q106 -45 106 -167q0 -92 -61 -142t-159 -50h-249q-10 0 -10 10v680q0 10 10 10h241q104 0 161.5 -47.5t57.5 -138.5q0 -108 -97 -149zM182 617q-4 0 -4 -4v-211q0 -4 4 -4h151q58 0 91.5 29t33.5 79q0 51 -33.5 81t-91.5 30h-151zM341 84
q57 0 90.5 31.5t33.5 85.5t-34 85.5t-93 31.5h-156q-4 0 -4 -4v-226q0 -4 4 -4h159z" />
    <glyph glyph-name="C" unicode="C" horiz-adv-x="607" 
d="M307 -9q-72 0 -127.5 28.5t-86 81t-30.5 120.5v259q0 68 30.5 119.5t86 80t127.5 28.5t127 -27.5t85.5 -77.5t30.5 -116v-1q0 -5 -3 -8t-7 -3l-76 -4q-10 0 -10 9v3q0 64 -40 103t-107 39t-107.5 -39t-40.5 -103v-266q0 -64 40.5 -103t107.5 -39t107 39t40 103v2
q0 9 10 9l76 -4q10 0 10 -10q0 -66 -30.5 -116.5t-85.5 -78.5t-127 -28z" />
    <glyph glyph-name="D" unicode="D" horiz-adv-x="618" 
d="M92 0q-10 0 -10 10v680q0 10 10 10h242q104 0 166 -54.5t62 -145.5v-300q0 -91 -62 -145.5t-166 -54.5h-242zM178 87q0 -4 4 -4h156q58 0 92.5 35.5t35.5 95.5v272q0 60 -34.5 95.5t-93.5 35.5h-156q-4 0 -4 -4v-526z" />
    <glyph glyph-name="E" unicode="E" horiz-adv-x="598" 
d="M547 627q0 -10 -10 -10h-355q-4 0 -4 -4v-215q0 -4 4 -4h244q10 0 10 -10v-63q0 -10 -10 -10h-244q-4 0 -4 -4v-220q0 -4 4 -4h355q10 0 10 -10v-63q0 -10 -10 -10h-445q-10 0 -10 10v680q0 10 10 10h445q10 0 10 -10v-63z" />
    <glyph glyph-name="F" unicode="F" horiz-adv-x="565" 
d="M546 627q0 -10 -10 -10h-354q-4 0 -4 -4v-215q0 -4 4 -4h243q10 0 10 -10v-63q0 -10 -10 -10h-243q-4 0 -4 -4v-297q0 -10 -10 -10h-76q-10 0 -10 10v680q0 10 10 10h444q10 0 10 -10v-63z" />
    <glyph glyph-name="G" unicode="G" horiz-adv-x="613" 
d="M307 -8q-72 0 -127.5 28.5t-86 81t-30.5 120.5v256q0 69 30.5 121t86 80.5t127.5 28.5t127 -28t85.5 -77.5t30.5 -111.5v-11q0 -10 -10 -10h-76q-10 0 -10 10v9q0 60 -40.5 97.5t-106.5 37.5q-67 0 -107.5 -39t-40.5 -104v-262q0 -65 42 -104t110 -39q66 0 104.5 34.5
t38.5 94.5v77q0 4 -4 4h-135q-10 0 -10 10v62q0 10 10 10h225q10 0 10 -10v-127q0 -115 -65.5 -177t-177.5 -62z" />
    <glyph glyph-name="H" unicode="H" horiz-adv-x="645" 
d="M471 690q0 10 10 10h76q10 0 10 -10v-680q0 -10 -10 -10h-76q-10 0 -10 10v297q0 4 -4 4h-285q-4 0 -4 -4v-297q0 -10 -10 -10h-76q-10 0 -10 10v680q0 10 10 10h76q10 0 10 -10v-292q0 -4 4 -4h285q4 0 4 4v292z" />
    <glyph glyph-name="I" unicode="I" horiz-adv-x="260" 
d="M92 0q-10 0 -10 10v680q0 10 10 10h76q10 0 10 -10v-680q0 -10 -10 -10h-76z" />
    <glyph glyph-name="J" unicode="J" horiz-adv-x="579" 
d="M261 -8q-71 0 -124.5 27t-82.5 76t-29 113v71q0 10 10 10h76q10 0 10 -10v-71q0 -60 38 -96.5t102 -36.5q62 0 101 36.5t39 96.5v482q0 10 10 10h76q10 0 10 -10v-482q0 -64 -29.5 -113t-83.5 -76t-123 -27z" />
    <glyph glyph-name="K" unicode="K" horiz-adv-x="616" 
d="M92 0q-10 0 -10 10v680q0 10 10 10h76q10 0 10 -10v-319q0 -2 2 -2.5t3 1.5l286 324q4 6 12 6h87q6 0 8 -3.5t-2 -8.5l-238 -281q-1 -3 0 -6l255 -389q2 -4 2 -6q0 -6 -8 -6h-87q-7 0 -12 6l-216 327q-1 2 -3 2t-3 -1l-84 -94q-2 -4 -2 -5v-225q0 -10 -10 -10h-76z" />
    <glyph glyph-name="L" unicode="L" horiz-adv-x="570" 
d="M92 0q-10 0 -10 10v680q0 10 10 10h76q10 0 10 -10v-603q0 -4 4 -4h345q10 0 10 -10v-63q0 -10 -10 -10h-435z" />
    <glyph glyph-name="M" unicode="M" horiz-adv-x="715" 
d="M535 694q5 6 12 6h76q10 0 10 -10v-680q0 -10 -10 -10h-76q-10 0 -10 10v512q0 3 -2 4t-3 -2l-143 -218q-4 -6 -12 -6h-38q-7 0 -12 6l-144 216q-1 3 -3 2t-2 -4v-510q0 -10 -10 -10h-76q-10 0 -10 10v680q0 10 10 10h76q8 0 12 -6l175 -262q1 -1 3 -1t3 1z" />
    <glyph glyph-name="N" unicode="N" horiz-adv-x="673" 
d="M494 690q0 10 10 10h76q10 0 10 -10v-680q0 -10 -10 -10h-73q-7 0 -12 7l-313 511q-1 3 -3 2.5t-2 -3.5l1 -507q0 -10 -10 -10h-76q-10 0 -10 10v680q0 10 10 10h74q7 0 12 -7l312 -511q1 -3 3 -2.5t2 3.5z" />
    <glyph glyph-name="O" unicode="O" horiz-adv-x="622" 
d="M310 -9q-73 0 -129 30t-87 84.5t-31 125.5v238q0 71 31 125t87 84t129 30q74 0 130 -30t87 -84t31 -125v-238q0 -71 -31 -125.5t-87 -84.5t-130 -30zM310 74q68 0 110 42t42 111v243q0 70 -42 112.5t-110 42.5t-109.5 -42.5t-41.5 -112.5v-243q0 -69 41.5 -111t109.5 -42
z" />
    <glyph glyph-name="P" unicode="P" horiz-adv-x="593" 
d="M356 701q61 0 107.5 -25.5t72 -71.5t25.5 -106t-26 -105t-73.5 -70t-109.5 -25h-176q-4 0 -4 -4v-284q0 -10 -10 -10h-76q-10 0 -10 10v681q0 10 10 10h270zM343 376q55 0 88.5 33t33.5 87q0 55 -33.5 88.5t-88.5 33.5h-167q-4 0 -4 -4v-234q0 -4 4 -4h167z" />
    <glyph glyph-name="Q" unicode="Q" horiz-adv-x="582" 
d="M209 182q32 21 70 21q31 0 60 -13.5t49 -38.5q5 -5 8.5 -10t7.5 -10q33 39 33 102v240q0 33 -10 61.5t-29 49t-46 32t-62 11.5q-34 0 -61 -12t-46 -32.5t-29 -48.5t-10 -61v-240q0 -33 10.5 -60.5t29.5 -48t46 -32t60 -11.5q31 0 56 9q-11 18 -22 32.5t-26 26t-36 19.5
t-53 14zM454 55q26 -32 57 -45.5t70 -23.5q-33 -20 -73 -20q-32 0 -62 13.5t-53 38.5q-46 -18 -103 -18q-54 0 -98 17.5t-75 48.5t-48 75t-17 96v235q0 54 17.5 97.5t49 74.5t75.5 48t96 17q54 0 98.5 -17t76 -48.5t48.5 -75t17 -96.5v-235q0 -52 -18.5 -99.5t-57.5 -82.5z
" />
    <glyph glyph-name="R" unicode="R" horiz-adv-x="613" 
d="M481 0q-8 0 -11 7l-140 299q-1 3 -4 3h-144q-4 0 -4 -4v-295q0 -10 -10 -10h-76q-10 0 -10 10v680q0 10 10 10h269q60 0 105.5 -25t70.5 -70t25 -104q0 -70 -36.5 -118.5t-101.5 -65.5q-4 -2 -2 -5l145 -300q1 -2 1 -5q0 -7 -8 -7h-79zM182 617q-4 0 -4 -4v-224
q0 -4 4 -4h167q53 0 85 31.5t32 83.5q0 53 -32 85t-85 32h-167z" />
    <glyph glyph-name="S" unicode="S" horiz-adv-x="588" 
d="M298 -8q-77 0 -133.5 24t-87 68t-30.5 103v29q0 10 10 10h73q10 0 10 -10v-24q0 -51 44 -84t121 -33q69 0 104 29t35 76q0 31 -18 53t-52.5 40.5t-100.5 44.5q-73 28 -115.5 51t-70.5 60.5t-28 94.5q0 86 61.5 135t166.5 49q74 0 130 -25t86.5 -70t30.5 -104v-20
q0 -10 -10 -10h-75q-10 0 -10 10v15q0 52 -41.5 86.5t-114.5 34.5q-62 0 -96 -25.5t-34 -73.5q0 -33 17 -54t50.5 -37.5t102.5 -42.5q71 -28 115 -51.5t73 -62t29 -95.5q0 -88 -64.5 -139.5t-177.5 -51.5z" />
    <glyph glyph-name="T" unicode="T" horiz-adv-x="574" 
d="M527 700q10 0 10 -10v-64q0 -10 -10 -10h-192q-4 0 -4 -4v-602q0 -10 -10 -10h-76q-10 0 -10 10v602q0 4 -4 4h-183q-10 0 -10 10v64q0 10 10 10h479z" />
    <glyph glyph-name="U" unicode="U" horiz-adv-x="641" 
d="M321 -8q-73 0 -128.5 28.5t-86.5 81t-31 120.5v468q0 10 10 10h76q10 0 10 -10v-470q0 -65 41.5 -105t108.5 -40t108 40t41 105v470q0 10 10 10h76q10 0 10 -10v-468q0 -68 -30.5 -120.5t-86 -81t-128.5 -28.5z" />
    <glyph glyph-name="V" unicode="V" horiz-adv-x="601" 
d="M259 0q-9 0 -12 8l-214 681l-1 4q0 7 9 7h81q9 0 12 -8l165 -553q1 -2 3 -2t3 2l165 553q3 8 11 8h79q11 0 8 -11l-216 -681q-3 -8 -12 -8h-81z" />
    <glyph glyph-name="W" unicode="W" horiz-adv-x="878" 
d="M225 0q-9 0 -11 8l-188 681l-1 3q0 8 10 8h81q9 0 11 -9l131 -498q1 -2 2.5 -2t2.5 2l124 498q2 9 11 9h79q9 0 11 -9l131 -499q1 -2 2 -2t2 2l132 499q2 9 11 9h76q5 0 7.5 -3t1.5 -8l-181 -680q-2 -9 -11 -9h-77q-9 0 -11 9l-131 516q-1 3 -2 3t-2 -3l-127 -516
q-1 -9 -11 -9h-73z" />
    <glyph glyph-name="X" unicode="X" horiz-adv-x="604" 
d="M43 0q-6 0 -8 3.5t1 8.5l206 335q2 3 0 6l-206 335q-2 4 -2 6q0 6 9 6h83q7 0 12 -7l161 -265q1 -1 3 -1t3 1l161 265q5 7 12 7h82q6 0 8 -3.5t-1 -8.5l-205 -336q-1 -3 0 -6l205 -334q2 -4 2 -6q0 -6 -9 -6h-82q-7 0 -12 7l-161 264q-1 2 -3 2t-3 -2l-161 -264
q-5 -7 -12 -7h-83z" />
    <glyph glyph-name="Y" unicode="Y" horiz-adv-x="585" 
d="M254 1q-10 0 -10 10v281q0 4 -1 5l-208 391q-1 2 -1 5q0 7 8 7h82q9 0 12 -7l153 -293q1 -2 3 -2t3 2l153 293q3 7 12 7h83q5 0 7.5 -3.5t-0.5 -8.5l-209 -391q-1 -1 -1 -5v-281q0 -10 -10 -10h-76z" />
    <glyph glyph-name="Z" unicode="Z" horiz-adv-x="551" 
d="M51 0q-10 0 -10 10v70q0 8 4 13l350 519q1 1 0 3t-3 2h-341q-10 0 -10 10v63q0 10 10 10h444q10 0 10 -10v-70q0 -8 -4 -13l-352 -519q-1 -1 0 -3t3 -2h343q10 0 10 -10v-63q0 -10 -10 -10h-444z" />
    <glyph glyph-name="bracketleft" unicode="[" horiz-adv-x="393" 
d="M43 -130q-10 0 -10 10v894q0 10 10 10h210q10 0 10 -10v-64q0 -10 -10 -10h-120q-4 0 -4 -4v-739q0 -4 4 -4h121q10 0 10 -10v-63q0 -10 -10 -10h-211z" />
    <glyph glyph-name="backslash" unicode="\" horiz-adv-x="426" 
d="M398 7q0 -7 -9 -7h-75q-9 0 -12 8l-235 681l-1 4q0 7 9 7h75q9 0 12 -8l235 -681z" />
    <glyph glyph-name="bracketright" unicode="]" horiz-adv-x="393" 
d="M360 -120q0 -10 -10 -10h-211q-10 0 -10 10v63q0 10 10 10h121q4 0 4 4v739q0 4 -4 4h-121q-10 0 -10 10v64q0 10 10 10h211q10 0 10 -10v-894z" />
    <glyph glyph-name="asciicircum" unicode="^" horiz-adv-x="458" 
d="M47 304q-5 0 -7.5 3.5t-0.5 8.5l145 376q3 8 11 8h67q8 0 11 -8l146 -376l1 -4q0 -8 -9 -8h-62q-9 0 -12 8l-105 286q-1 3 -3 3t-3 -3l-105 -286q-3 -8 -12 -8h-62z" />
    <glyph glyph-name="underscore" unicode="_" horiz-adv-x="498" 
d="M35 0q-10 0 -10 10v55q0 10 10 10h428q10 0 10 -10v-55q0 -10 -10 -10h-428z" />
    <glyph glyph-name="grave" unicode="`" horiz-adv-x="209" 
d="M178 585q1 -2 1 -5t-2.5 -5t-6.5 -2h-54q-7 0 -12 7l-70 108q-2 4 -2 6q0 6 8 6h67q9 0 12 -7z" />
    <glyph glyph-name="a" unicode="a" horiz-adv-x="517" 
d="M256 517q61 0 106.5 -21.5t70 -60t24.5 -87.5v-338q0 -10 -10 -10h-76q-10 0 -10 10v36q0 5 -5 2q-26 -27 -63.5 -41.5t-83.5 -14.5q-74 0 -122.5 37.5t-48.5 113.5q0 78 54.5 122.5t152.5 44.5h112q4 0 4 4v27q0 44 -25.5 68.5t-77.5 24.5q-42 0 -68.5 -16.5
t-32.5 -44.5q-3 -10 -12 -9l-81 11q-10 2 -9 8q8 59 63 96.5t138 37.5zM230 73q53 0 92 28t39 71v59q0 4 -4 4h-94q-59 0 -94 -23t-35 -64q0 -37 26.5 -56t69.5 -19z" />
    <glyph glyph-name="b" unicode="b" horiz-adv-x="553" 
d="M481 377q16 -51 16 -121q0 -75 -19 -128q-22 -65 -69.5 -100.5t-119.5 -35.5q-35 0 -65 14t-52 39q-2 2 -3.5 1t-1.5 -3v-33q0 -10 -10 -10h-76q-10 0 -10 10v680q0 10 10 10h76q10 0 10 -10v-223q0 -2 1.5 -3t3.5 1q22 25 52.5 38.5t64.5 13.5q75 0 123 -37t69 -103z
M375 130q25 47 25 124q0 82 -32 132q-29 48 -89 48q-56 0 -85 -51q-26 -46 -26 -128t24 -126q30 -54 88 -54q66 0 95 55z" />
    <glyph glyph-name="c" unicode="c" horiz-adv-x="526" 
d="M274 -8q-76 0 -130 38.5t-74 104.5q-15 46 -15 121q0 69 15 121q20 64 74.5 102t129.5 38t131 -38t73 -96q6 -16 8 -33q0 -8 -9 -10l-75 -11h-2q-7 0 -10 9l-3 16q-8 34 -39 57t-75 23q-43 0 -73 -23t-39 -61q-9 -36 -9 -95q0 -58 9 -94q10 -40 39.5 -63t72.5 -23
q44 0 75.5 23t39.5 60q1 1 0.5 2.5t0.5 2.5v4q3 8 11 6l75 -12q8 -2 8 -8v-4q0 -9 -5 -22q-17 -61 -73 -98t-131 -37z" />
    <glyph glyph-name="d" unicode="d" horiz-adv-x="553" 
d="M386 690q0 10 10 10h76q10 0 10 -10v-680q0 -10 -10 -10h-76q-10 0 -10 10v33q0 2 -1.5 3t-3.5 -1q-22 -25 -52 -39t-65 -14q-72 0 -119.5 35.5t-69.5 100.5q-19 53 -19 128q0 70 16 121q21 66 69 103t123 37q34 0 64.5 -13.5t52.5 -38.5q2 -2 3.5 -1t1.5 3v223zM361 129
q23 42 23 126t-25 128q-29 51 -85 51q-60 0 -89 -48q-32 -50 -32 -132q0 -77 25 -124q29 -55 95 -55q58 0 88 54z" />
    <glyph glyph-name="e" unicode="e" horiz-adv-x="536" 
d="M482 318q4 -41 3 -92q0 -10 -10 -10h-319q-4 0 -4 -4q0 -34 6 -52q11 -40 44.5 -62.5t84.5 -22.5q74 0 114 61q5 10 13 3l57 -38q7 -6 3 -13q-28 -45 -79.5 -71t-116.5 -26q-73 0 -123 32t-75 91q-24 59 -24 143q0 73 11 111q18 69 72 109t131 40q101 0 151 -50.5
t61 -148.5zM270 434q-43 0 -71 -21.5t-38 -57.5q-7 -22 -9 -56q0 -4 4 -4h229q4 0 4 4q-2 33 -6 49q-10 39 -39.5 62.5t-73.5 23.5z" />
    <glyph glyph-name="f" unicode="f" horiz-adv-x="367" 
d="M294 616q-50 0 -68 -19t-18 -72v-12q0 -4 4 -4h105q10 0 10 -10v-68q0 -10 -10 -10h-105q-4 0 -4 -4v-407q0 -10 -10 -10h-76q-10 0 -10 10v407q0 4 -4 4h-67q-10 0 -10 10v68q0 10 10 10h67q4 0 4 4v18q0 66 15.5 102t52.5 51.5t104 15.5h34q10 0 10 -10v-64
q0 -10 -10 -10h-24z" />
    <glyph glyph-name="g" unicode="g" horiz-adv-x="543" 
d="M383 499q0 10 10 10h76q10 0 10 -10v-473q0 -121 -68.5 -173t-183.5 -52q-16 0 -50 2q-10 1 -10 11l3 69q0 4 3 7t8 2q14 -1 41 -1q85 0 123 31.5t38 106.5v18q0 2 -1.5 3t-3.5 -1q-42 -49 -123 -49q-65 0 -117.5 34t-72.5 100q-13 44 -13 122q0 83 15 128
q19 60 67.5 96.5t114.5 36.5q82 0 129 -50q2 -2 3.5 -1.5t1.5 2.5v31zM377 163q3 16 4.5 34t1.5 60t-1.5 59.5t-5.5 33.5q-8 37 -36 60.5t-70 23.5t-70 -23.5t-40 -60.5q-11 -30 -11 -93q0 -69 10 -94q10 -37 39.5 -60.5t71.5 -23.5q44 0 71.5 23.5t35.5 60.5z" />
    <glyph glyph-name="h" unicode="h" horiz-adv-x="542" 
d="M297 516q82 0 130 -47.5t48 -128.5v-330q0 -10 -10 -10h-76q-10 0 -10 10v311q0 50 -29 81t-77 31q-47 0 -77 -31t-30 -80v-312q0 -10 -10 -10h-76q-10 0 -10 10v680q0 10 10 10h76q10 0 10 -10v-227q0 -2 1.5 -3t2.5 1q43 55 127 55z" />
    <glyph glyph-name="i" unicode="i" horiz-adv-x="255" 
d="M128 589q-28 0 -46 18t-18 46t18 46t46 18t46 -18t18 -46t-18 -46t-46 -18zM88 1q-10 0 -10 10v488q0 10 10 10h76q10 0 10 -10v-488q0 -10 -10 -10h-76z" />
    <glyph glyph-name="j" unicode="j" horiz-adv-x="248" 
d="M121 589q-28 0 -46 18t-18 46t18 46t46 18q29 0 46.5 -17.5t17.5 -46.5q0 -28 -18 -46t-46 -18zM-34 -207q-10 0 -10 10v62q0 10 10 10q57 0 82.5 23t25.5 73l-1 528q0 10 10 10h76q10 0 10 -10v-527q0 -66 -20 -105t-64 -57t-119 -17z" />
    <glyph glyph-name="k" unicode="k" horiz-adv-x="512" 
d="M80 0q-10 0 -10 10v680q0 10 10 10h76q10 0 10 -10v-385q0 -2 2 -3t3 1l185 201q4 5 12 5h89q6 0 7.5 -3.5t-2.5 -8.5l-129 -149q-2 -4 -1 -6l153 -330l1 -4q0 -8 -9 -8h-80q-8 0 -11 8l-119 272q-2 5 -5 1l-94 -104q-2 -4 -2 -5v-162q0 -10 -10 -10h-76z" />
    <glyph glyph-name="l" unicode="l" horiz-adv-x="235" 
d="M80 0q-10 0 -10 10v680q0 10 10 10h76q10 0 10 -10v-680q0 -10 -10 -10h-76z" />
    <glyph glyph-name="m" unicode="m" horiz-adv-x="826" 
d="M599 516q76 0 120 -45.5t44 -126.5v-334q0 -10 -10 -10h-75q-10 0 -10 10v314q0 50 -27.5 79.5t-73.5 29.5t-75 -29t-29 -78v-316q0 -10 -10 -10h-75q-10 0 -10 10v314q0 50 -27.5 79.5t-73.5 29.5t-73.5 -29t-27.5 -78v-316q0 -10 -10 -10h-76q-10 0 -10 10v489
q0 10 10 10h76q10 0 10 -10v-34q0 -2 1.5 -3t3.5 1q44 53 128 53q51 0 87 -19.5t56 -57.5q3 -4 6 0q24 39 63.5 58t87.5 19z" />
    <glyph glyph-name="n" unicode="n" horiz-adv-x="542" 
d="M297 516q82 0 130 -47.5t48 -128.5v-330q0 -10 -10 -10h-76q-10 0 -10 10v311q0 50 -29 81t-77 31q-47 0 -77 -31t-30 -80v-312q0 -10 -10 -10h-76q-10 0 -10 10v489q0 10 10 10h76q10 0 10 -10v-36q0 -2 1.5 -3t2.5 1q43 55 127 55z" />
    <glyph glyph-name="o" unicode="o" horiz-adv-x="555" 
d="M278 -8q-74 0 -129 37.5t-77 104.5q-18 54 -18 122q0 71 17 120q22 66 77 103.5t131 37.5q72 0 125.5 -37.5t76.5 -102.5q18 -51 18 -120q0 -70 -18 -123q-22 -67 -76 -104.5t-127 -37.5zM278 75q40 0 70 22.5t43 63.5q11 38 11 94t-10 93q-13 41 -43 63.5t-73 22.5
q-41 0 -71 -22.5t-43 -63.5q-11 -35 -11 -93t11 -94q12 -41 42.5 -63.5t73.5 -22.5z" />
    <glyph glyph-name="p" unicode="p" horiz-adv-x="558" 
d="M483 381q19 -54 19 -128q0 -70 -16 -121q-21 -67 -69 -103.5t-123 -36.5q-34 0 -64.5 13.5t-52.5 38.5q-2 2 -3.5 1t-1.5 -3v-223q0 -10 -10 -10h-76q-10 0 -10 10v680q0 10 10 10h76q10 0 10 -10v-33q0 -2 1.5 -3t3.5 1q22 25 52 39t65 14q72 0 119.5 -35.5t69.5 -100.5
zM373 123q32 48 32 132q0 77 -25 124q-29 55 -95 55q-58 0 -88 -54q-24 -43 -24 -126q0 -84 26 -128q29 -51 85 -51q60 0 89 48z" />
    <glyph glyph-name="q" unicode="q" horiz-adv-x="558" 
d="M386 499q0 10 10 10h76q10 0 10 -10v-680q0 -10 -10 -10h-76q-10 0 -10 10v223q0 2 -1.5 3t-3.5 -1q-22 -25 -52.5 -38.5t-64.5 -13.5q-75 0 -123 36.5t-69 103.5q-16 51 -16 121q0 74 19 128q22 65 69.5 100.5t119.5 35.5q35 0 65 -14t52 -39q2 -2 3.5 -1t1.5 3v33z
M359 126q25 43 25 128q0 84 -23 126q-30 54 -88 54q-66 0 -95 -55q-25 -47 -25 -124q0 -84 32 -132q29 -48 89 -48q56 0 85 51z" />
    <glyph glyph-name="r" unicode="r" horiz-adv-x="371" 
d="M293 514q32 0 58 -13q7 -3 5 -12l-16 -75q-1 -9 -12 -6q-17 7 -40 7l-14 -1q-47 -2 -77.5 -32.5t-30.5 -79.5v-292q0 -10 -10 -10h-76q-10 0 -10 10v489q0 10 10 10h76q10 0 10 -10v-53q0 -3 1.5 -3.5t2.5 1.5q45 70 123 70z" />
    <glyph glyph-name="s" unicode="s" horiz-adv-x="487" 
d="M249 -6q-60 0 -105.5 18t-70.5 49.5t-25 69.5v11q0 10 10 10h72q10 0 10 -10v-5q0 -28 30.5 -49t77.5 -21q45 0 73 19.5t28 49.5q0 29 -26 43.5t-84 30.5q-57 16 -95.5 32.5t-65 47t-26.5 78.5q0 67 52.5 106.5t139.5 39.5q58 0 102.5 -18.5t68.5 -51.5t24 -74v-3
q0 -10 -10 -10h-70q-10 0 -10 10v3q0 29 -28.5 48.5t-77.5 19.5q-44 0 -71.5 -17t-27.5 -46t26.5 -44t85.5 -32q58 -16 96.5 -31.5t65.5 -46t27 -79.5q0 -68 -53.5 -108t-142.5 -40z" />
    <glyph glyph-name="t" unicode="t" horiz-adv-x="369" 
d="M321 440q0 -10 -10 -10h-108q-4 0 -4 -4v-265q0 -42 19 -60.5t59 -18.5h29q10 0 10 -10v-62q0 -10 -10 -10q-32 -2 -46 -2q-76 0 -114.5 27.5t-38.5 101.5v299q0 4 -4 4h-61q-10 0 -10 10v59q0 10 10 10h61q4 0 4 4v118q0 10 10 10h72q10 0 10 -10v-118q0 -4 4 -4h108
q10 0 10 -10v-59z" />
    <glyph glyph-name="u" unicode="u" horiz-adv-x="538" 
d="M373 499q0 10 10 10h75q10 0 10 -10v-489q0 -10 -10 -10h-75q-10 0 -10 10v37q0 2 -1.5 2.5t-3.5 -1.5q-40 -55 -123 -55q-49 0 -90.5 19t-66.5 56t-25 90v341q0 10 10 10h75q10 0 10 -10v-311q0 -52 27.5 -82t77.5 -30t80 30.5t30 81.5v311z" />
    <glyph glyph-name="v" unicode="v" horiz-adv-x="491" 
d="M204 0q-9 0 -12 8l-163 490l-1 4q0 7 9 7h84q9 0 12 -8l110 -362q1 -2 3 -2t3 2l109 362q3 8 12 8l84 -1q11 0 8 -11l-162 -489q-3 -8 -12 -8h-84z" />
    <glyph glyph-name="w" unicode="w" horiz-adv-x="743" 
d="M183 0q-8 0 -11 8l-144 490l-1 3q0 8 10 8h78q9 0 11 -9l95 -363q1 -2 2.5 -2t2.5 2l97 363q2 9 11 9h69q9 0 11 -9l99 -362q1 -2 2.5 -2t2.5 2l99 362q2 9 11 9l77 -1q5 0 7.5 -3t1.5 -8l-145 -489q-3 -8 -11 -8h-78q-8 0 -11 8l-98 338q-1 2 -2.5 2t-2.5 -2l-93 -337
q-2 -9 -11 -9h-79z" />
    <glyph glyph-name="x" unicode="x" horiz-adv-x="499" 
d="M34 0q-6 0 -8 3.5t1 8.5l166 239q2 3 0 6l-166 240l-2 5q0 7 9 7h81q8 0 12 -6l117 -171q1 -1 3 -1t3 1l116 171q4 6 12 6h87q6 0 8 -3.5t-1 -8.5l-166 -240q-1 -3 0 -6l166 -239l2 -5q0 -7 -9 -7h-82q-8 0 -12 6l-116 171q-1 2 -3 2t-3 -2l-117 -171q-4 -6 -12 -6h-86z
" />
    <glyph glyph-name="y" unicode="y" horiz-adv-x="476" 
d="M55 -199q-7 0 -7 10v59q0 10 10 10h2q40 1 63 10t38 33.5t29 73.5q1 1 0.5 3.5l-0.5 2.5l-167 495l-1 4q0 7 9 7h81q9 0 12 -8l113 -377q1 -2 3 -2t3 2l112 377q3 8 12 8h79q11 0 8 -11l-182 -533q-23 -69 -46 -102.5t-60 -47.5t-104 -14h-7z" />
    <glyph glyph-name="z" unicode="z" horiz-adv-x="451" 
d="M40 0q-10 0 -10 10v70q0 7 4 12l265 324q2 2 1 3.5t-3 1.5h-252q-10 0 -10 10v68q0 10 10 10h361q10 0 10 -10v-71q0 -7 -4 -12l-269 -324q-2 -2 -1 -3.5t3 -1.5h262q10 0 10 -10v-67q0 -10 -10 -10h-367z" />
    <glyph glyph-name="braceleft" unicode="{" horiz-adv-x="329" 
d="M212 -130q-58 0 -85.5 28.5t-27.5 88.5v213q0 43 -13.5 64.5t-42.5 25.5q-10 1 -10 11v57q0 10 10 11q29 4 42.5 25.5t13.5 63.5v208q0 60 27.5 89t85.5 29h73q10 0 10 -10v-64q0 -10 -10 -10h-34q-56 0 -56 -70v-182q0 -47 -12.5 -74.5t-40.5 -41.5q-5 -2 0 -5
q28 -13 40.5 -41t12.5 -75v-187q0 -71 56 -71h34q10 0 10 -10v-63q0 -10 -10 -10h-73z" />
    <glyph glyph-name="bar" unicode="|" horiz-adv-x="179" 
d="M52 -80q-10 0 -10 10v820q0 10 10 10h76q10 0 10 -10v-820q0 -10 -10 -10h-76z" />
    <glyph glyph-name="braceright" unicode="}" horiz-adv-x="329" 
d="M43 -130q-10 0 -10 10v63q0 10 10 10h35q27 0 41.5 18t14.5 53v187q0 47 12.5 75t40.5 41q5 3 0 5q-28 14 -40.5 41.5t-12.5 74.5v182q0 70 -56 70h-35q-10 0 -10 10v64q0 10 10 10h74q57 0 85 -29t28 -89v-208q0 -43 13 -64t42 -25q10 -1 10 -11v-57q0 -10 -10 -11
q-28 -4 -41.5 -25.5t-13.5 -64.5v-213q0 -60 -28 -88.5t-85 -28.5h-74z" />
    <glyph glyph-name="asciitilde" unicode="~" horiz-adv-x="513" 
d="M349 220q-28 0 -49 8t-48 24q-24 13 -42 20t-39 7q-44 0 -71 -37l-2 -4q-5 -6 -12 -1l-43 28q-8 6 -5 13q17 38 52 61.5t78 23.5q25 0 44.5 -6.5t41.5 -19.5q5 -3 22.5 -13t33.5 -15t33 -5q20 0 34 10t30 29q6 8 14 3l48 -32q8 -6 4 -13q-18 -36 -51 -58.5t-73 -22.5z
" />
    <glyph glyph-name="uni00A0" unicode="&#xa0;" horiz-adv-x="200" 
 />
    <glyph glyph-name="exclamdown" unicode="&#xa1;" horiz-adv-x="328" 
d="M161 708q28 0 46 -18t18 -46t-18 -46t-46 -18t-46 18t-18 46t18 46t46 18zM126 468q0 10 10 10h59q10 0 10 -10l8 -447q0 -10 -10 -10h-76q-10 0 -10 10z" />
    <glyph glyph-name="cent" unicode="&#xa2;" horiz-adv-x="526" 
d="M388 248q1 1 0.5 2.5t0.5 2.5v4q3 8 11 6l75 -12q8 -2 8 -8v-4q0 -9 -5 -22q-15 -53 -60 -88.5t-108 -44.5q-4 0 -4 -4l2 -74q0 -10 -10 -10h-66q-10 0 -10 10l2 77q0 4 -4 5q-55 12 -94 48t-56 89q-15 46 -15 121q0 69 15 121q16 52 54.5 86.5t93.5 47.5q4 1 4 5l-1 75
q0 10 10 10h65q10 0 10 -10l-1 -72q0 -4 4 -4q63 -9 108.5 -45t60.5 -87q6 -16 8 -33q0 -8 -9 -10l-75 -11h-2q-7 0 -10 9l-3 16q-8 34 -39 57t-75 23q-43 0 -73 -23t-39 -61q-9 -36 -9 -95q0 -58 9 -94q10 -40 39.5 -63t72.5 -23q44 0 75.5 23t39.5 60z" />
    <glyph glyph-name="sterling" unicode="&#xa3;" horiz-adv-x="609" 
d="M224 88q-2 -2 -1 -3.5t3 -1.5h340q10 0 10 -10v-63q0 -10 -10 -10h-443q-10 0 -10 10v65q0 8 7 12q24 15 37 44.5t13 67.5v98q0 4 -4 4h-74q-10 0 -10 10v58q0 10 10 10h74q4 0 4 4v121q0 96 56.5 150t154.5 54q71 0 119 -37t71 -105l1 -4q0 -6 -8 -8l-72 -13h-3
q-6 0 -9 7q-14 40 -38.5 58.5t-60.5 18.5q-54 0 -84.5 -29.5t-30.5 -89.5v-123q0 -4 4 -4h189q10 0 10 -10v-58q0 -10 -10 -10h-189q-4 0 -4 -4v-96q0 -69 -42 -113z" />
    <glyph glyph-name="currency" unicode="&#xa4;" horiz-adv-x="540" 
d="M473 302q0 -59 -32 -110q-2 -3 1 -6l66 -65q3 -3 3 -6q0 -4 -4 -8l-48 -42q-3 -3 -6 -3q-4 0 -8 4l-62 62q-3 3 -6 1q-49 -32 -110 -32q-60 0 -106 29q-3 2 -6 -1l-60 -59q-7 -7 -14 -1l-47 42q-7 8 -1 14l61 60q3 3 1 6q-36 52 -36 115q0 61 33 111q2 3 -1 6l-65 65
q-3 3 -3 6q0 4 4 8l47 41q3 3 6 3q4 0 8 -4l62 -61q3 -3 6 -1q51 32 111 32q63 0 114 -35q3 -2 6 1l65 64q8 8 14 1l47 -41q8 -7 1 -14l-70 -69q-3 -3 -1 -6q30 -49 30 -107zM143 302q0 -33 17 -61.5t45.5 -45t61.5 -16.5t61.5 16.5t45 45t16.5 61.5t-16.5 61.5t-45 45.5
t-61.5 17t-61.5 -17t-45.5 -45.5t-17 -61.5z" />
    <glyph glyph-name="yen" unicode="&#xa5;" horiz-adv-x="687" 
d="M596 700q5 0 7.5 -3.5t-0.5 -8.5l-184 -345q-2 -5 2 -5h108q10 0 10 -10v-36q0 -10 -10 -10h-132q-4 0 -4 -4v-71q0 -4 4 -4h132q10 0 10 -10v-36q0 -10 -10 -10h-132q-4 0 -4 -4v-132q0 -10 -10 -10h-76q-10 0 -10 10v132q0 4 -4 4h-134q-10 0 -10 10v36q0 10 10 10h134
q4 0 4 4v71q0 4 -4 4h-134q-10 0 -10 10v36q0 10 10 10h110q4 0 2 5l-183 345q-1 2 -1 5q0 7 8 7h82q9 0 12 -7l153 -293q1 -2 3 -2t3 2l154 293q3 7 12 7h82z" />
    <glyph glyph-name="brokenbar" unicode="&#xa6;" horiz-adv-x="179" 
d="M52 399q-10 0 -10 10v341q0 10 10 10h76q10 0 10 -10v-341q0 -10 -10 -10h-76zM52 -80q-10 0 -10 10v341q0 10 10 10h76q10 0 10 -10v-341q0 -10 -10 -10h-76z" />
    <glyph glyph-name="section" unicode="&#xa7;" horiz-adv-x="468" 
d="M230 -207q-80 0 -126 44.5t-48 120.5l-1 28q0 10 10 10h76q10 0 10 -10v-14q0 -44 23 -70.5t61 -26.5q36 0 60 25.5t24 63.5q0 31 -16.5 50.5t-40.5 30.5t-70 27q-46 17 -75 34.5t-47 47.5q-23 38 -23 88q0 58 27 98t74 55q6 2 1 5q-42 18 -69 56t-27 88q0 44 23 81.5
t64 59.5t94 22q77 0 127 -45.5t51 -118.5v-20q0 -10 -10 -10h-76q-10 0 -10 10v11q0 40 -23.5 65.5t-59.5 25.5q-37 0 -60.5 -26t-23.5 -64q0 -41 30.5 -65t87.5 -42q39 -13 66.5 -27t48.5 -38q37 -40 37 -106q0 -55 -26 -98q-27 -47 -72 -57q-5 -1 -1 -4q95 -47 95 -143
q0 -48 -24 -84.5t-66 -57t-95 -20.5zM232 154q53 0 77 38q14 23 14 57q0 40 -18 62q-26 33 -72 33q-24 0 -44 -12t-32 -32q-14 -21 -14 -54t14 -54q27 -38 75 -38z" />
    <glyph glyph-name="dieresis" unicode="&#xa8;" horiz-adv-x="360" 
d="M271 593q-28 0 -46 18t-18 46t18 46t46 18t46 -18t18 -46t-18 -46t-46 -18zM89 593q-28 0 -46 18t-18 46t18 46t46 18t46 -18t18 -46t-18 -46t-46 -18z" />
    <glyph glyph-name="copyright" unicode="&#xa9;" horiz-adv-x="850" 
d="M424 -8q-103 0 -185 46.5t-129 128.5t-47 184q0 101 47 182.5t129.5 128t184.5 46.5q103 0 186 -46.5t130 -128t47 -182.5q0 -102 -47 -184t-130 -128.5t-186 -46.5zM424 58q84 0 151 38t105 105t38 150q0 82 -38 148.5t-105 104.5t-151 38t-150.5 -38t-104 -104.5
t-37.5 -148.5q0 -83 37.5 -150t104 -105t150.5 -38zM426 172q-52 0 -83.5 29t-31.5 78v144q0 48 31.5 77t83.5 29t83.5 -28t31.5 -75q0 -4 -3 -6.5t-7 -2.5h-35q-10 0 -10 10q0 24 -16.5 39t-43.5 15t-43 -14.5t-16 -39.5v-153q0 -24 16 -39t43 -15q26 0 43 15t17 39
q0 10 10 10h35q10 0 10 -9q0 -46 -32 -74.5t-83 -28.5z" />
    <glyph glyph-name="ordfeminine" unicode="&#xaa;" horiz-adv-x="326" 
d="M228 565q4 0 4 4v20q0 31 -19.5 51t-55.5 20q-27 0 -46 -11.5t-24 -30.5q-3 -9 -12 -8l-35 3q-11 2 -9 11q6 37 40.5 60.5t85.5 23.5q60 0 95.5 -31t35.5 -81v-219q0 -10 -10 -10h-36q-10 0 -10 10v18q0 2 -1.5 2.5t-3.5 -1.5q-32 -35 -95 -35q-50 0 -81 24.5t-31 70.5
q0 50 37 79.5t100 29.5h71zM142 407q38 0 64 19.5t26 50.5v39q0 4 -4 4h-64q-41 0 -64.5 -14.5t-23.5 -44.5q0 -27 17.5 -40.5t48.5 -13.5zM19 297q0 10 10 10h257q10 0 10 -10v-44q0 -10 -10 -10h-257q-10 0 -10 10v44z" />
    <glyph glyph-name="guillemotleft" unicode="&#xab;" horiz-adv-x="529" 
d="M279 119q2 -2 2 -6q0 -2 -2 -4t-6 -2h-75q-8 0 -12 6l-116 161q-4 7 0 14l116 161q4 6 12 6h75q6 0 8 -3.5t-2 -8.5l-116 -159q-1 -3 0 -6zM442 119q2 -2 2 -6q0 -2 -2 -4t-6 -2h-75q-8 0 -12 6l-116 161q-4 7 0 14l116 161q4 6 12 6h75q6 0 8 -3.5t-2 -8.5l-115 -159
q-1 -3 0 -6z" />
    <glyph glyph-name="logicalnot" unicode="&#xac;" horiz-adv-x="495" 
d="M35 340q0 10 10 10h405q10 0 10 -10v-180q0 -10 -10 -10h-64q-10 0 -10 10v103q0 4 -4 4h-327q-10 0 -10 10v63z" />
    <glyph glyph-name="uni00AD" unicode="&#xad;" horiz-adv-x="400" 
d="M45 264q-10 0 -10 10v63q0 10 10 10h309q10 0 10 -10v-63q0 -10 -10 -10h-309z" />
    <glyph glyph-name="registered" unicode="&#xae;" horiz-adv-x="449" 
d="M224 712q56 0 101.5 -25.5t72 -70t26.5 -98.5q0 -56 -26.5 -102t-72 -72t-101.5 -26q-55 0 -100.5 26t-72 72t-26.5 102q0 54 26.5 98.5t72 70t100.5 25.5zM224 362q43 0 78 20.5t55.5 56t20.5 79.5q0 41 -20.5 75.5t-55.5 54.5t-78 20q-42 0 -77 -20t-55.5 -54.5
t-20.5 -75.5q0 -44 20 -79.5t55.5 -56t77.5 -20.5zM290 551q0 -33 -26 -46q-3 -3 -2 -6l25 -62q1 -2 1 -5q0 -7 -8 -7h-19q-9 0 -12 8l-23 63q-1 3 -4 3h-12q-4 0 -4 -4v-60q0 -10 -10 -10h-16q-10 0 -10 10v161q0 10 10 10h56q24 0 39 -15.5t15 -39.5zM210 575q-4 0 -4 -4
v-41q0 -4 4 -4h21q10 0 16.5 6.5t6.5 17.5q0 12 -6 18.5t-17 6.5h-21z" />
    <glyph glyph-name="macron" unicode="&#xaf;" horiz-adv-x="278" 
d="M10 588q-10 0 -10 10v47q0 10 10 10h258q10 0 10 -10v-47q0 -10 -10 -10h-258z" />
    <glyph glyph-name="degree" unicode="&#xb0;" horiz-adv-x="379" 
d="M189 481q-45 0 -82.5 22t-59.5 59.5t-22 82.5t22 82.5t59.5 59t82.5 21.5q46 0 83.5 -21.5t59.5 -59t22 -82.5t-22 -82.5t-59.5 -59.5t-83.5 -22zM189 546q42 0 71 28.5t29 70.5t-29 71t-71 29q-41 0 -70 -29t-29 -71t29 -70.5t70 -28.5z" />
    <glyph glyph-name="plusminus" unicode="&#xb1;" horiz-adv-x="495" 
d="M450 409q10 0 10 -10v-63q0 -10 -10 -10h-157q-4 0 -4 -4v-154q0 -10 -10 -10h-63q-10 0 -10 10v154q0 4 -4 4h-157q-10 0 -10 10v63q0 10 10 10h157q4 0 4 4v160q0 10 10 10h63q10 0 10 -10v-160q0 -4 4 -4h157zM45 0q-10 0 -10 10v63q0 10 10 10h405q10 0 10 -10v-63
q0 -10 -10 -10h-405z" />
    <glyph glyph-name="twosuperior" unicode="&#xb2;" horiz-adv-x="332" 
d="M44 433q-10 0 -10 10v39q0 7 5 12q53 57 109 123l24 27q55 65 55 100q0 26 -18 41.5t-47 15.5t-46.5 -16t-17.5 -43v-13q0 -10 -10 -10h-46q-10 0 -10 10v23q2 48 38.5 77t91.5 29q59 0 94.5 -32t35.5 -81q0 -50 -52 -116q-48 -60 -116 -135q-1 -2 0 -3.5t3 -1.5h166
q10 0 10 -10v-36q0 -10 -10 -10h-249z" />
    <glyph glyph-name="threesuperior" unicode="&#xb3;" horiz-adv-x="323" 
d="M277 637q14 -31 14 -73q0 -39 -14 -69q-14 -33 -44.5 -51t-71.5 -18q-44 0 -76 23t-46 61q-6 17 -8 44q0 10 10 10h46q10 0 10 -10l3 -21q1 -7 4 -12q6 -17 21 -27.5t36 -10.5q38 0 53 31q12 21 12 52q0 35 -13 57q-15 30 -53 30q-10 0 -22 -6q-2 -1 -5 -1q-5 0 -9 4
l-21 27q-3 3 -3 6q0 4 4 8l97 99q2 2 1 3.5t-3 1.5h-152q-10 0 -10 10v36q0 10 10 10h230q10 0 10 -10v-39q0 -5 -5 -12l-85 -92q-3 -3 3 -5q53 -7 77 -56z" />
    <glyph glyph-name="acute" unicode="&#xb4;" horiz-adv-x="209" 
d="M39 573q-6 0 -8.5 3.5t0.5 8.5l59 108q3 7 12 7h67q6 0 7.5 -3.5t-1.5 -8.5l-71 -108q-5 -7 -12 -7h-53z" />
    <glyph glyph-name="uni00B5" unicode="&#xb5;" horiz-adv-x="548" 
d="M379 499q0 10 10 10h75q10 0 10 -10v-489q0 -10 -10 -10h-75q-10 0 -10 10v35q0 2 -1.5 2.5t-3.5 -1.5q-41 -53 -123 -53q-44 0 -80 15q-5 2 -5 -3v-195q0 -10 -10 -10h-76q-10 0 -10 10v689q0 10 10 10h76q10 0 10 -10v-330q5 -43 31.5 -68t71.5 -25q51 0 80.5 30.5
t29.5 81.5v311z" />
    <glyph glyph-name="paragraph" unicode="&#xb6;" horiz-adv-x="594" 
d="M506 700q10 0 10 -10v-880q0 -10 -10 -10h-52q-10 0 -10 10v816q0 4 -4 4h-118q-4 0 -4 -4v-816q0 -10 -10 -10h-53q-10 0 -10 10v436q0 4 -4 4q-60 4 -108 34.5t-74.5 80t-26.5 110.5q0 64 29 115t81 80.5t119 29.5h245z" />
    <glyph glyph-name="periodcentered" unicode="&#xb7;" horiz-adv-x="219" 
d="M110 219q-28 0 -46 18t-18 46t18 46t46 18t46 -18t18 -46t-18 -46t-46 -18z" />
    <glyph glyph-name="cedilla" unicode="&#xb8;" horiz-adv-x="151" 
d="M9 -181q-9 3 -7 12l5 33q1 5 4.5 6.5t7.5 0.5q11 -3 22 -3q19 0 31 10.5t12 31.5q0 38 -50 78q-4 3 -4 7q0 5 8 5h41q8 0 13 -4q59 -47 59 -100q0 -13 -3 -23q-8 -33 -33 -47t-57 -14q-24 0 -49 7z" />
    <glyph glyph-name="onesuperior" unicode="&#xb9;" horiz-adv-x="188" 
d="M76 851q5 2 12 2h49q10 0 10 -10v-400q0 -10 -10 -10h-45q-10 0 -10 10v347q0 3 -4 3l-44 -6h-2q-4 0 -6.5 2.5t-2.5 6.5v28q0 9 8 12z" />
    <glyph glyph-name="ordmasculine" unicode="&#xba;" horiz-adv-x="358" 
d="M178 367q-46 0 -79 24.5t-50 68.5q-12 32 -12 78q0 47 11 78q15 44 49 68t82 24q45 0 78 -24t49 -67q11 -30 11 -78q0 -47 -11 -79q-15 -44 -49 -68.5t-79 -24.5zM178 421q24 0 43 15t26 40q8 27 8 62q0 40 -7 61q-8 26 -27 40.5t-44 14.5t-43 -14.5t-26 -40.5
q-8 -24 -8 -61q0 -32 8 -62q7 -25 25.5 -40t44.5 -15zM38 243q-10 0 -10 10v46q0 10 10 10h283q10 0 10 -10v-46q0 -10 -10 -10h-283z" />
    <glyph glyph-name="guillemotright" unicode="&#xbb;" horiz-adv-x="529" 
d="M97 107q-6 0 -8 3.5t2 8.5l115 159q2 3 0 6l-115 159q-2 2 -2 6q0 2 2 4t6 2h75q8 0 12 -6l116 -161q4 -7 0 -14l-116 -161q-4 -6 -12 -6h-75zM260 107q-6 0 -8 3.5t2 8.5l115 159q2 3 0 6l-115 159q-2 2 -2 6q0 2 2 4t6 2h75q8 0 12 -6l116 -161q4 -7 0 -14l-116 -161
q-4 -6 -12 -6h-75z" />
    <glyph glyph-name="onequarter" unicode="&#xbc;" horiz-adv-x="813" 
d="M76 698q5 2 12 2h49q10 0 10 -10v-400q0 -10 -10 -10h-45q-10 0 -10 10v347q0 3 -4 3l-44 -6h-2q-4 0 -6.5 2.5t-2.5 6.5v28q0 9 8 12zM112 0q-6 0 -8 3.5t1 8.5l417 681q5 7 12 7h50q6 0 8 -3.5t-1 -8.5l-416 -681q-5 -7 -12 -7h-51zM763 169q10 0 10 -10v-39
q0 -10 -10 -10h-20q-4 0 -4 -4v-96q0 -10 -10 -10h-46q-10 0 -10 10v96q0 4 -4 4h-178q-10 0 -10 10v33q0 5 3 12l113 247q3 8 11 8h47q5 0 7.5 -3.5t0.5 -8.5l-106 -234q-1 -2 0 -3.5t3 -1.5h109q4 0 4 4v81q0 10 10 10h46q10 0 10 -10v-81q0 -4 4 -4h20z" />
    <glyph glyph-name="onehalf" unicode="&#xbd;" horiz-adv-x="798" 
d="M76 698q5 2 12 2h49q10 0 10 -10v-400q0 -10 -10 -10h-45q-10 0 -10 10v347q0 3 -4 3l-44 -6h-2q-4 0 -6.5 2.5t-2.5 6.5v28q0 9 8 12zM112 0q-6 0 -8 3.5t1 8.5l417 681q5 7 12 7h50q6 0 8 -3.5t-1 -8.5l-416 -681q-5 -7 -12 -7h-51zM501 0q-10 0 -10 10v39q0 7 5 12
q53 57 109 123l24 27q55 65 55 100q0 26 -18 41.5t-47 15.5t-46.5 -16t-17.5 -43v-13q0 -10 -10 -10h-46q-10 0 -10 10v23q2 48 38.5 77t91.5 29q59 0 94.5 -32t35.5 -81q0 -50 -52 -116q-48 -60 -116 -135q-1 -2 0 -3.5t3 -1.5h166q10 0 10 -10v-36q0 -10 -10 -10h-249z
" />
    <glyph glyph-name="threequarters" unicode="&#xbe;" horiz-adv-x="907" 
d="M277 491q14 -31 14 -73q0 -39 -14 -69q-14 -33 -44.5 -51t-71.5 -18q-44 0 -76 23t-46 61q-6 17 -8 44q0 10 10 10h46q10 0 10 -10l3 -21q1 -7 4 -12q6 -17 21 -27.5t36 -10.5q38 0 53 31q12 21 12 52q0 35 -13 57q-15 30 -53 30q-10 0 -22 -6q-2 -1 -5 -1q-5 0 -9 4
l-21 27q-3 3 -3 6q0 4 4 8l97 99q2 2 1 3.5t-3 1.5h-152q-10 0 -10 10v36q0 10 10 10h230q10 0 10 -10v-39q0 -5 -5 -12l-85 -92q-3 -3 3 -5q53 -7 77 -56zM209 0q-6 0 -8 3.5t1 8.5l417 681q5 7 12 7h50q6 0 8 -3.5t-1 -8.5l-416 -681q-5 -7 -12 -7h-51zM859 169
q10 0 10 -10v-39q0 -10 -10 -10h-20q-4 0 -4 -4v-96q0 -10 -10 -10h-46q-10 0 -10 10v96q0 4 -4 4h-178q-10 0 -10 10v33q0 5 3 12l113 247q3 8 11 8h47q5 0 7.5 -3.5t0.5 -8.5l-106 -234q-1 -2 0 -3.5t3 -1.5h109q4 0 4 4v81q0 10 10 10h46q10 0 10 -10v-81q0 -4 4 -4h20z
" />
    <glyph glyph-name="questiondown" unicode="&#xbf;" horiz-adv-x="482" 
d="M261 499q28 0 46 -18t18 -46t-18 -46t-46 -18t-46 18t-18 46t18 46t46 18zM297 292q10 0 10 -10v-50q0 -45 -23 -74.5t-67 -61.5q-41 -31 -61.5 -56t-20.5 -64q0 -45 29 -71.5t77 -26.5q49 0 79.5 28t30.5 72v26q0 10 10 10l76 -4q10 0 10 -10v-22q0 -55 -26.5 -97.5
t-73.5 -66t-108 -23.5q-91 0 -146 49.5t-55 132.5q0 44 15 76t36 52.5t54 44.5q35 26 51.5 45t16.5 46v45q0 10 10 10h76z" />
    <glyph glyph-name="Agrave" unicode="&#xc0;" horiz-adv-x="630" 
d="M507 0q-9 0 -12 8l-36 117q-1 3 -4 3h-281q-3 0 -4 -3l-36 -117q-3 -8 -12 -8h-81q-11 0 -8 11l219 681q3 8 12 8h100q9 0 12 -8l221 -681l1 -4q0 -7 -9 -7h-82zM195 209q-1 -2 0.5 -3.5t3.5 -1.5h230q2 0 3.5 1.5t0.5 3.5l-116 371q-1 2 -3 2t-3 -2zM351 776q1 -2 1 -5
t-2.5 -5t-6.5 -2h-54q-7 0 -12 7l-70 108q-2 4 -2 6q0 6 8 6h67q9 0 12 -7z" />
    <glyph glyph-name="Aacute" unicode="&#xc1;" horiz-adv-x="630" 
d="M507 0q-9 0 -12 8l-36 117q-1 3 -4 3h-281q-3 0 -4 -3l-36 -117q-3 -8 -12 -8h-81q-11 0 -8 11l219 681q3 8 12 8h100q9 0 12 -8l221 -681l1 -4q0 -7 -9 -7h-82zM195 209q-1 -2 0.5 -3.5t3.5 -1.5h230q2 0 3.5 1.5t0.5 3.5l-116 371q-1 2 -3 2t-3 -2zM272 764
q-6 0 -8.5 3.5t0.5 8.5l59 108q3 7 12 7h67q6 0 7.5 -3.5t-1.5 -8.5l-71 -108q-5 -7 -12 -7h-53z" />
    <glyph glyph-name="Acircumflex" unicode="&#xc2;" horiz-adv-x="630" 
d="M507 0q-9 0 -12 8l-36 117q-1 3 -4 3h-281q-3 0 -4 -3l-36 -117q-3 -8 -12 -8h-81q-11 0 -8 11l219 681q3 8 12 8h100q9 0 12 -8l221 -681l1 -4q0 -7 -9 -7h-82zM195 209q-1 -2 0.5 -3.5t3.5 -1.5h230q2 0 3.5 1.5t0.5 3.5l-116 371q-1 2 -3 2t-3 -2zM185 764
q-6 0 -8 3.5t2 8.5l79 109q4 6 13 6h85q9 0 13 -6l79 -109q2 -2 2 -6q0 -2 -2 -4t-6 -2h-59q-8 0 -12 6l-53 76q-1 2 -3 2t-3 -2l-55 -76q-4 -6 -12 -6h-60z" />
    <glyph glyph-name="Atilde" unicode="&#xc3;" horiz-adv-x="630" 
d="M507 0q-9 0 -12 8l-36 117q-1 3 -4 3h-281q-3 0 -4 -3l-36 -117q-3 -8 -12 -8h-81q-11 0 -8 11l219 681q3 8 12 8h100q9 0 12 -8l221 -681l1 -4q0 -7 -9 -7h-82zM195 209q-1 -2 0.5 -3.5t3.5 -1.5h230q2 0 3.5 1.5t0.5 3.5l-116 371q-1 2 -3 2t-3 -2zM377 784
q-19 0 -33 5t-31 15q-19 10 -28.5 14t-20.5 4q-32 0 -53 -22l-4 -4q-2 -3 -5.5 -3t-6.5 3l-28 28q-7 7 -2 14q17 26 41 40t53 14q17 0 29.5 -4.5t23.5 -10.5t15 -8t14.5 -8t19 -8.5t16.5 -2.5q31 0 52 27q6 10 14 2l25 -28q3 -4 3.5 -7t-1.5 -7q-12 -25 -37.5 -39t-55.5 -14
z" />
    <glyph glyph-name="Adieresis" unicode="&#xc4;" horiz-adv-x="630" 
d="M507 0q-9 0 -12 8l-36 117q-1 3 -4 3h-281q-3 0 -4 -3l-36 -117q-3 -8 -12 -8h-81q-11 0 -8 11l219 681q3 8 12 8h100q9 0 12 -8l221 -681l1 -4q0 -7 -9 -7h-82zM195 209q-1 -2 0.5 -3.5t3.5 -1.5h230q2 0 3.5 1.5t0.5 3.5l-116 371q-1 2 -3 2t-3 -2zM404 784
q-28 0 -46 18t-18 46t18 46t46 18t46 -18t18 -46t-18 -46t-46 -18zM222 784q-28 0 -46 18t-18 46t18 46t46 18t46 -18t18 -46t-18 -46t-46 -18z" />
    <glyph glyph-name="Aring" unicode="&#xc5;" horiz-adv-x="630" 
d="M507 0q-9 0 -12 8l-36 117q-1 3 -4 3h-281q-3 0 -4 -3l-36 -117q-3 -8 -12 -8h-81q-11 0 -8 11l219 681q3 8 12 8h100q9 0 12 -8l221 -681l1 -4q0 -7 -9 -7h-82zM195 209q-1 -2 0.5 -3.5t3.5 -1.5h230q2 0 3.5 1.5t0.5 3.5l-116 371q-1 2 -3 2t-3 -2zM313 764
q-48 0 -81.5 33t-33.5 81t33.5 80.5t81.5 32.5q49 0 82 -32.5t33 -80.5t-33 -81t-82 -33zM313 818q25 0 43 17.5t18 42.5t-18 42.5t-43 17.5t-42.5 -17.5t-17.5 -42.5t17.5 -42.5t42.5 -17.5z" />
    <glyph glyph-name="AE" unicode="&#xc6;" horiz-adv-x="935" 
d="M884 627q0 -10 -10 -10h-334q-4 0 -4 -4v-215q0 -4 4 -4h223q10 0 10 -10v-63q0 -10 -10 -10h-223q-4 0 -4 -4v-220q0 -4 4 -4h334q10 0 10 -10v-63q0 -10 -10 -10h-424q-10 0 -10 10v114q0 4 -4 4h-232q-2 0 -4 -3l-61 -118q-3 -7 -12 -7h-85q-5 0 -7 3.5t0 8.5l353 681
q3 7 12 7h474q10 0 10 -10v-63zM242 209q-2 -5 3 -5h191q4 0 4 4v376q0 3 -1.5 3t-3.5 -2z" />
    <glyph glyph-name="Ccedilla" unicode="&#xc7;" horiz-adv-x="607" 
d="M550 482q0 -2 -3 -4.5t-7 -2.5l-76 -4q-10 0 -10 9v3q0 64 -40 103t-107 39t-107.5 -39t-40.5 -103v-266q0 -64 40.5 -103t107.5 -39t107 39t40 103v2q0 9 10 9l76 -4q10 0 10 -10q0 -63 -28 -112.5t-79.5 -78.5t-119.5 -32q-5 0 -2 -5q46 -42 46 -88q0 -11 -3 -23
q-8 -33 -33 -47t-57 -14q-25 0 -49 7q-9 3 -7 12l5 33q1 5 4.5 6.5t7.5 0.5q11 -3 22 -3q19 0 31 10.5t12 32.5q0 20 -16 41.5t-43 41.5q0 1 -5 3q-79 18 -126 77.5t-47 144.5v259q0 68 30.5 119.5t86 80t127.5 28.5t127 -27.5t85.5 -77.5t30.5 -116v-5z" />
    <glyph glyph-name="Egrave" unicode="&#xc8;" horiz-adv-x="598" 
d="M547 627q0 -10 -10 -10h-355q-4 0 -4 -4v-215q0 -4 4 -4h244q10 0 10 -10v-63q0 -10 -10 -10h-244q-4 0 -4 -4v-220q0 -4 4 -4h355q10 0 10 -10v-63q0 -10 -10 -10h-445q-10 0 -10 10v680q0 10 10 10h445q10 0 10 -10v-63zM348 776q1 -2 1 -5t-2.5 -5t-6.5 -2h-54
q-7 0 -12 7l-70 108q-2 4 -2 6q0 6 8 6h67q9 0 12 -7z" />
    <glyph glyph-name="Eacute" unicode="&#xc9;" horiz-adv-x="598" 
d="M547 627q0 -10 -10 -10h-355q-4 0 -4 -4v-215q0 -4 4 -4h244q10 0 10 -10v-63q0 -10 -10 -10h-244q-4 0 -4 -4v-220q0 -4 4 -4h355q10 0 10 -10v-63q0 -10 -10 -10h-445q-10 0 -10 10v680q0 10 10 10h445q10 0 10 -10v-63zM269 764q-6 0 -8.5 3.5t0.5 8.5l59 108
q3 7 12 7h67q6 0 7.5 -3.5t-1.5 -8.5l-71 -108q-5 -7 -12 -7h-53z" />
    <glyph glyph-name="Ecircumflex" unicode="&#xca;" horiz-adv-x="598" 
d="M547 627q0 -10 -10 -10h-355q-4 0 -4 -4v-215q0 -4 4 -4h244q10 0 10 -10v-63q0 -10 -10 -10h-244q-4 0 -4 -4v-220q0 -4 4 -4h355q10 0 10 -10v-63q0 -10 -10 -10h-445q-10 0 -10 10v680q0 10 10 10h445q10 0 10 -10v-63zM182 764q-6 0 -8 3.5t2 8.5l79 109q4 6 13 6h85
q9 0 13 -6l79 -109q2 -2 2 -6q0 -2 -2 -4t-6 -2h-59q-8 0 -12 6l-53 76q-1 2 -3 2t-3 -2l-55 -76q-4 -6 -12 -6h-60z" />
    <glyph glyph-name="Edieresis" unicode="&#xcb;" horiz-adv-x="598" 
d="M547 627q0 -10 -10 -10h-355q-4 0 -4 -4v-215q0 -4 4 -4h244q10 0 10 -10v-63q0 -10 -10 -10h-244q-4 0 -4 -4v-220q0 -4 4 -4h355q10 0 10 -10v-63q0 -10 -10 -10h-445q-10 0 -10 10v680q0 10 10 10h445q10 0 10 -10v-63zM402 784q-28 0 -46 18t-18 46t18 46t46 18
t46 -18t18 -46t-18 -46t-46 -18zM220 784q-28 0 -46 18t-18 46t18 46t46 18t46 -18t18 -46t-18 -46t-46 -18z" />
    <glyph glyph-name="Igrave" unicode="&#xcc;" horiz-adv-x="260" 
d="M92 0q-10 0 -10 10v680q0 10 10 10h76q10 0 10 -10v-680q0 -10 -10 -10h-76zM167 776q1 -2 1 -5t-2.5 -5t-6.5 -2h-54q-7 0 -12 7l-70 108q-2 4 -2 6q0 6 8 6h67q9 0 12 -7z" />
    <glyph glyph-name="Iacute" unicode="&#xcd;" horiz-adv-x="260" 
d="M92 0q-10 0 -10 10v680q0 10 10 10h76q10 0 10 -10v-680q0 -10 -10 -10h-76zM89 764q-6 0 -8.5 3.5t0.5 8.5l59 108q3 7 12 7h67q6 0 7.5 -3.5t-1.5 -8.5l-71 -108q-5 -7 -12 -7h-53z" />
    <glyph glyph-name="Icircumflex" unicode="&#xce;" horiz-adv-x="260" 
d="M92 0q-10 0 -10 10v680q0 10 10 10h76q10 0 10 -10v-680q0 -10 -10 -10h-76zM2 764q-6 0 -8 3.5t2 8.5l79 109q4 6 13 6h85q9 0 13 -6l79 -109q2 -2 2 -6q0 -2 -2 -4t-6 -2h-59q-8 0 -12 6l-53 76q-1 2 -3 2t-3 -2l-55 -76q-4 -6 -12 -6h-60z" />
    <glyph glyph-name="Idieresis" unicode="&#xcf;" horiz-adv-x="260" 
d="M92 0q-10 0 -10 10v680q0 10 10 10h76q10 0 10 -10v-680q0 -10 -10 -10h-76zM221 784q-28 0 -46 18t-18 46t18 46t46 18t46 -18t18 -46t-18 -46t-46 -18zM39 784q-28 0 -46 18t-18 46t18 46t46 18t46 -18t18 -46t-18 -46t-46 -18z" />
    <glyph glyph-name="Eth" unicode="&#xd0;" horiz-adv-x="678" 
d="M394 700q104 0 166.5 -54.5t62.5 -145.5v-300q0 -91 -62.5 -145.5t-166.5 -54.5h-241q-10 0 -10 10v315q0 4 -4 4h-47q-10 0 -10 10v48q0 10 10 10h47q4 0 4 4v289q0 10 10 10h241zM527 486q0 60 -35 95.5t-94 35.5h-155q-4 0 -4 -4v-212q0 -4 4 -4h105q10 0 10 -10v-48
q0 -10 -10 -10h-105q-4 0 -4 -4v-238q0 -4 4 -4h155q58 0 93 35.5t36 95.5v272z" />
    <glyph glyph-name="Ntilde" unicode="&#xd1;" horiz-adv-x="672" 
d="M494 690q0 10 10 10h76q10 0 10 -10v-680q0 -10 -10 -10h-73q-7 0 -12 7l-313 511q-1 3 -3 2.5t-2 -3.5l1 -507q0 -10 -10 -10h-76q-10 0 -10 10v680q0 10 10 10h74q7 0 12 -7l312 -511q1 -3 3 -2.5t2 3.5zM395 784q-19 0 -33 5t-31 15q-19 10 -28.5 14t-20.5 4
q-32 0 -53 -22l-4 -4q-2 -3 -5.5 -3t-6.5 3l-28 28q-7 7 -2 14q17 26 41 40t53 14q17 0 29.5 -4.5t23.5 -10.5t15 -8t14.5 -8t19 -8.5t16.5 -2.5q31 0 52 27q6 10 14 2l25 -28q3 -4 3.5 -7t-1.5 -7q-12 -25 -37.5 -39t-55.5 -14z" />
    <glyph glyph-name="Ograve" unicode="&#xd2;" horiz-adv-x="622" 
d="M310 -9q-73 0 -129 30t-87 84.5t-31 125.5v238q0 71 31 125t87 84t129 30q74 0 130 -30t87 -84t31 -125v-238q0 -71 -31 -125.5t-87 -84.5t-130 -30zM310 74q68 0 110 42t42 111v243q0 70 -42 112.5t-110 42.5t-109.5 -42.5t-41.5 -112.5v-243q0 -69 41.5 -111t109.5 -42
zM347 776q1 -2 1 -5t-2.5 -5t-6.5 -2h-54q-7 0 -12 7l-70 108q-2 4 -2 6q0 6 8 6h67q9 0 12 -7z" />
    <glyph glyph-name="Oacute" unicode="&#xd3;" horiz-adv-x="622" 
d="M310 -9q-73 0 -129 30t-87 84.5t-31 125.5v238q0 71 31 125t87 84t129 30q74 0 130 -30t87 -84t31 -125v-238q0 -71 -31 -125.5t-87 -84.5t-130 -30zM310 74q68 0 110 42t42 111v243q0 70 -42 112.5t-110 42.5t-109.5 -42.5t-41.5 -112.5v-243q0 -69 41.5 -111t109.5 -42
zM268 764q-6 0 -8.5 3.5t0.5 8.5l59 108q3 7 12 7h67q6 0 7.5 -3.5t-1.5 -8.5l-71 -108q-5 -7 -12 -7h-53z" />
    <glyph glyph-name="Ocircumflex" unicode="&#xd4;" horiz-adv-x="622" 
d="M310 -9q-73 0 -129 30t-87 84.5t-31 125.5v238q0 71 31 125t87 84t129 30q74 0 130 -30t87 -84t31 -125v-238q0 -71 -31 -125.5t-87 -84.5t-130 -30zM310 74q68 0 110 42t42 111v243q0 70 -42 112.5t-110 42.5t-109.5 -42.5t-41.5 -112.5v-243q0 -69 41.5 -111t109.5 -42
zM181 764q-6 0 -8 3.5t2 8.5l79 109q4 6 13 6h85q9 0 13 -6l79 -109q2 -2 2 -6q0 -2 -2 -4t-6 -2h-59q-8 0 -12 6l-53 76q-1 2 -3 2t-3 -2l-55 -76q-4 -6 -12 -6h-60z" />
    <glyph glyph-name="Otilde" unicode="&#xd5;" horiz-adv-x="622" 
d="M310 -9q-73 0 -129 30t-87 84.5t-31 125.5v238q0 71 31 125t87 84t129 30q74 0 130 -30t87 -84t31 -125v-238q0 -71 -31 -125.5t-87 -84.5t-130 -30zM310 74q68 0 110 42t42 111v243q0 70 -42 112.5t-110 42.5t-109.5 -42.5t-41.5 -112.5v-243q0 -69 41.5 -111t109.5 -42
zM373 784q-19 0 -33 5t-31 15q-19 10 -28.5 14t-20.5 4q-32 0 -53 -22l-4 -4q-2 -3 -5.5 -3t-6.5 3l-28 28q-7 7 -2 14q17 26 41 40t53 14q17 0 29.5 -4.5t23.5 -10.5t15 -8t14.5 -8t19 -8.5t16.5 -2.5q31 0 52 27q6 10 14 2l25 -28q3 -4 3.5 -7t-1.5 -7q-12 -25 -37.5 -39
t-55.5 -14z" />
    <glyph glyph-name="Odieresis" unicode="&#xd6;" horiz-adv-x="622" 
d="M310 -9q-73 0 -129 30t-87 84.5t-31 125.5v238q0 71 31 125t87 84t129 30q74 0 130 -30t87 -84t31 -125v-238q0 -71 -31 -125.5t-87 -84.5t-130 -30zM310 74q68 0 110 42t42 111v243q0 70 -42 112.5t-110 42.5t-109.5 -42.5t-41.5 -112.5v-243q0 -69 41.5 -111t109.5 -42
zM401 784q-28 0 -46 18t-18 46t18 46t46 18t46 -18t18 -46t-18 -46t-46 -18zM219 784q-28 0 -46 18t-18 46t18 46t46 18t46 -18t18 -46t-18 -46t-46 -18z" />
    <glyph glyph-name="multiply" unicode="&#xd7;" horiz-adv-x="430" 
d="M388 445q3 -3 3 -7t-3 -7l-111 -111q-3 -3 0 -6l109 -109q3 -3 3 -7t-3 -7l-44 -44q-3 -3 -7 -3t-7 3l-109 109q-3 3 -6 0l-111 -111q-3 -3 -7 -3t-7 3l-44 44q-3 3 -3 7t3 7l111 111q3 3 0 6l-113 113q-3 3 -3 7t3 7l44 44q3 3 7 3t7 -3l113 -113q3 -3 6 0l111 111
q3 3 7 3t7 -3z" />
    <glyph glyph-name="Oslash" unicode="&#xd8;" horiz-adv-x="622" 
d="M575 687q8 -6 3 -14l-49 -74q-1 -3 0 -6q30 -52 30 -124v-238q0 -71 -31 -125.5t-87 -84.5t-130 -30q-88 0 -151 43q-4 2 -5 -1l-39 -59q-5 -8 -13 -3l-59 37q-8 5 -3 13l52 80q2 4 0 6q-29 53 -29 124v238q0 71 31 125t87 84t129 30q89 0 152 -43q4 -2 5 1l38 58
q2 4 6 5t8 -2zM160 212q0 -3 1.5 -3t3.5 2l249 374q2 4 -1 5q-43 35 -102 35q-68 0 -109.5 -42.5t-41.5 -112.5v-243v-15zM462 489q-2 7 -5 2l-248 -377q-2 -4 1 -5q38 -35 101 -35q68 0 110 42t42 111v243z" />
    <glyph glyph-name="Ugrave" unicode="&#xd9;" horiz-adv-x="641" 
d="M321 -8q-73 0 -128.5 28.5t-86.5 81t-31 120.5v468q0 10 10 10h76q10 0 10 -10v-470q0 -65 41.5 -105t108.5 -40t108 40t41 105v470q0 10 10 10h76q10 0 10 -10v-468q0 -68 -30.5 -120.5t-86 -81t-128.5 -28.5zM358 776q1 -2 1 -5t-2.5 -5t-6.5 -2h-54q-7 0 -12 7
l-70 108q-2 4 -2 6q0 6 8 6h67q9 0 12 -7z" />
    <glyph glyph-name="Uacute" unicode="&#xda;" horiz-adv-x="641" 
d="M321 -8q-73 0 -128.5 28.5t-86.5 81t-31 120.5v468q0 10 10 10h76q10 0 10 -10v-470q0 -65 41.5 -105t108.5 -40t108 40t41 105v470q0 10 10 10h76q10 0 10 -10v-468q0 -68 -30.5 -120.5t-86 -81t-128.5 -28.5zM279 764q-6 0 -8.5 3.5t0.5 8.5l59 108q3 7 12 7h67
q6 0 7.5 -3.5t-1.5 -8.5l-71 -108q-5 -7 -12 -7h-53z" />
    <glyph glyph-name="Ucircumflex" unicode="&#xdb;" horiz-adv-x="641" 
d="M321 -8q-73 0 -128.5 28.5t-86.5 81t-31 120.5v468q0 10 10 10h76q10 0 10 -10v-470q0 -65 41.5 -105t108.5 -40t108 40t41 105v470q0 10 10 10h76q10 0 10 -10v-468q0 -68 -30.5 -120.5t-86 -81t-128.5 -28.5zM192 764q-6 0 -8 3.5t2 8.5l79 109q4 6 13 6h85q9 0 13 -6
l79 -109q2 -2 2 -6q0 -2 -2 -4t-6 -2h-59q-8 0 -12 6l-53 76q-1 2 -3 2t-3 -2l-55 -76q-4 -6 -12 -6h-60z" />
    <glyph glyph-name="Udieresis" unicode="&#xdc;" horiz-adv-x="641" 
d="M321 -8q-73 0 -128.5 28.5t-86.5 81t-31 120.5v468q0 10 10 10h76q10 0 10 -10v-470q0 -65 41.5 -105t108.5 -40t108 40t41 105v470q0 10 10 10h76q10 0 10 -10v-468q0 -68 -30.5 -120.5t-86 -81t-128.5 -28.5zM411 784q-28 0 -46 18t-18 46t18 46t46 18t46 -18t18 -46
t-18 -46t-46 -18zM229 784q-28 0 -46 18t-18 46t18 46t46 18t46 -18t18 -46t-18 -46t-46 -18z" />
    <glyph glyph-name="Yacute" unicode="&#xdd;" horiz-adv-x="585" 
d="M254 1q-10 0 -10 10v281q0 4 -1 5l-208 391q-1 2 -1 5q0 7 8 7h82q9 0 12 -7l153 -293q1 -2 3 -2t3 2l153 293q3 7 12 7h83q5 0 7.5 -3.5t-0.5 -8.5l-209 -391q-1 -1 -1 -5v-281q0 -10 -10 -10h-76zM251 764q-6 0 -8.5 3.5t0.5 8.5l59 108q3 7 12 7h67q6 0 7.5 -3.5
t-1.5 -8.5l-71 -108q-5 -7 -12 -7h-53z" />
    <glyph glyph-name="Thorn" unicode="&#xde;" horiz-adv-x="572" 
d="M335 550q61 0 107.5 -25.5t72 -71t25.5 -104.5t-27 -104t-74.5 -70t-107.5 -25h-155q-4 0 -4 -4v-136q0 -10 -10 -10h-76q-10 0 -10 10v680q0 10 10 10h76q10 0 10 -10v-136q0 -4 4 -4h159zM322 229q55 0 88.5 32t33.5 86q0 55 -33.5 87t-88.5 32h-146q-4 0 -4 -4v-229
q0 -4 4 -4h146z" />
    <glyph glyph-name="germandbls" unicode="&#xdf;" horiz-adv-x="563" 
d="M81 0q-10 0 -10 10v491q0 97 56.5 152.5t156.5 55.5q97 0 156.5 -52t59.5 -139q0 -50 -21 -85.5t-61 -54.5q-5 -2 0 -5q42 -20 66.5 -66t24.5 -107q0 -95 -61 -147.5t-172 -52.5h-52q-10 0 -10 10v62q0 10 10 10h61q59 0 93.5 33.5t34.5 94.5q0 58 -32 91.5t-85 34.5h-53
q-10 0 -10 10v56q0 10 10 10h53q50 0 79 28.5t29 76.5q0 49 -30 79t-85 30q-54 0 -88 -31t-34 -86v-499q0 -10 -10 -10h-76z" />
    <glyph glyph-name="agrave" unicode="&#xe0;" horiz-adv-x="517" 
d="M256 517q61 0 106.5 -21.5t70 -60t24.5 -87.5v-338q0 -10 -10 -10h-76q-10 0 -10 10v36q0 5 -5 2q-26 -27 -63.5 -41.5t-83.5 -14.5q-74 0 -122.5 37.5t-48.5 113.5q0 78 54.5 122.5t152.5 44.5h112q4 0 4 4v27q0 44 -25.5 68.5t-77.5 24.5q-42 0 -68.5 -16.5
t-32.5 -44.5q-3 -10 -12 -9l-81 11q-10 2 -9 8q8 59 63 96.5t138 37.5zM230 73q53 0 92 28t39 71v59q0 4 -4 4h-94q-59 0 -94 -23t-35 -64q0 -37 26.5 -56t69.5 -19zM295 585q1 -2 1 -5t-2.5 -5t-6.5 -2h-54q-7 0 -12 7l-70 108q-2 4 -2 6q0 6 8 6h67q9 0 12 -7z" />
    <glyph glyph-name="aacute" unicode="&#xe1;" horiz-adv-x="517" 
d="M256 517q61 0 106.5 -21.5t70 -60t24.5 -87.5v-338q0 -10 -10 -10h-76q-10 0 -10 10v36q0 5 -5 2q-26 -27 -63.5 -41.5t-83.5 -14.5q-74 0 -122.5 37.5t-48.5 113.5q0 78 54.5 122.5t152.5 44.5h112q4 0 4 4v27q0 44 -25.5 68.5t-77.5 24.5q-42 0 -68.5 -16.5
t-32.5 -44.5q-3 -10 -12 -9l-81 11q-10 2 -9 8q8 59 63 96.5t138 37.5zM230 73q53 0 92 28t39 71v59q0 4 -4 4h-94q-59 0 -94 -23t-35 -64q0 -37 26.5 -56t69.5 -19zM217 573q-6 0 -8.5 3.5t0.5 8.5l59 108q3 7 12 7h67q6 0 7.5 -3.5t-1.5 -8.5l-71 -108q-5 -7 -12 -7h-53z
" />
    <glyph glyph-name="acircumflex" unicode="&#xe2;" horiz-adv-x="517" 
d="M256 517q61 0 106.5 -21.5t70 -60t24.5 -87.5v-338q0 -10 -10 -10h-76q-10 0 -10 10v36q0 5 -5 2q-26 -27 -63.5 -41.5t-83.5 -14.5q-74 0 -122.5 37.5t-48.5 113.5q0 78 54.5 122.5t152.5 44.5h112q4 0 4 4v27q0 44 -25.5 68.5t-77.5 24.5q-42 0 -68.5 -16.5
t-32.5 -44.5q-3 -10 -12 -9l-81 11q-10 2 -9 8q8 59 63 96.5t138 37.5zM230 73q53 0 92 28t39 71v59q0 4 -4 4h-94q-59 0 -94 -23t-35 -64q0 -37 26.5 -56t69.5 -19zM130 573q-6 0 -8 3.5t2 8.5l79 109q4 6 13 6h85q9 0 13 -6l79 -109q2 -2 2 -6q0 -2 -2 -4t-6 -2h-59
q-8 0 -12 6l-53 76q-1 2 -3 2t-3 -2l-55 -76q-4 -6 -12 -6h-60z" />
    <glyph glyph-name="atilde" unicode="&#xe3;" horiz-adv-x="517" 
d="M256 517q61 0 106.5 -21.5t70 -60t24.5 -87.5v-338q0 -10 -10 -10h-76q-10 0 -10 10v36q0 5 -5 2q-26 -27 -63.5 -41.5t-83.5 -14.5q-74 0 -122.5 37.5t-48.5 113.5q0 78 54.5 122.5t152.5 44.5h112q4 0 4 4v27q0 44 -25.5 68.5t-77.5 24.5q-42 0 -68.5 -16.5
t-32.5 -44.5q-3 -10 -12 -9l-81 11q-10 2 -9 8q8 59 63 96.5t138 37.5zM230 73q53 0 92 28t39 71v59q0 4 -4 4h-94q-59 0 -94 -23t-35 -64q0 -37 26.5 -56t69.5 -19zM321 593q-19 0 -33 5t-31 15q-19 10 -28.5 14t-20.5 4q-32 0 -53 -22l-4 -4q-2 -3 -5.5 -3t-6.5 3l-28 28
q-7 7 -2 14q17 26 41 40t53 14q17 0 29.5 -4.5t23.5 -10.5t15 -8t14.5 -8t19 -8.5t16.5 -2.5q31 0 52 27q6 10 14 2l25 -28q3 -4 3.5 -7t-1.5 -7q-12 -25 -37.5 -39t-55.5 -14z" />
    <glyph glyph-name="adieresis" unicode="&#xe4;" horiz-adv-x="517" 
d="M256 517q61 0 106.5 -21.5t70 -60t24.5 -87.5v-338q0 -10 -10 -10h-76q-10 0 -10 10v36q0 5 -5 2q-26 -27 -63.5 -41.5t-83.5 -14.5q-74 0 -122.5 37.5t-48.5 113.5q0 78 54.5 122.5t152.5 44.5h112q4 0 4 4v27q0 44 -25.5 68.5t-77.5 24.5q-42 0 -68.5 -16.5
t-32.5 -44.5q-3 -10 -12 -9l-81 11q-10 2 -9 8q8 59 63 96.5t138 37.5zM230 73q53 0 92 28t39 71v59q0 4 -4 4h-94q-59 0 -94 -23t-35 -64q0 -37 26.5 -56t69.5 -19zM349 593q-28 0 -46 18t-18 46t18 46t46 18t46 -18t18 -46t-18 -46t-46 -18zM167 593q-28 0 -46 18t-18 46
t18 46t46 18t46 -18t18 -46t-18 -46t-46 -18z" />
    <glyph glyph-name="aring" unicode="&#xe5;" horiz-adv-x="517" 
d="M256 517q61 0 106.5 -21.5t70 -60t24.5 -87.5v-338q0 -10 -10 -10h-76q-10 0 -10 10v36q0 5 -5 2q-26 -27 -63.5 -41.5t-83.5 -14.5q-74 0 -122.5 37.5t-48.5 113.5q0 78 54.5 122.5t152.5 44.5h112q4 0 4 4v27q0 44 -25.5 68.5t-77.5 24.5q-42 0 -68.5 -16.5
t-32.5 -44.5q-3 -10 -12 -9l-81 11q-10 2 -9 8q8 59 63 96.5t138 37.5zM230 73q53 0 92 28t39 71v59q0 4 -4 4h-94q-59 0 -94 -23t-35 -64q0 -37 26.5 -56t69.5 -19zM258 573q-48 0 -81.5 33t-33.5 81t33.5 80.5t81.5 32.5q49 0 82 -32.5t33 -80.5t-33 -81t-82 -33zM258 627
q25 0 43 17.5t18 42.5t-18 42.5t-43 17.5t-42.5 -17.5t-17.5 -42.5t17.5 -42.5t42.5 -17.5z" />
    <glyph glyph-name="ae" unicode="&#xe6;" horiz-adv-x="834" 
d="M222 -8q-82 0 -133 35t-51 108q0 75 54.5 119t152.5 44h112q4 0 4 4v32q0 45 -27 72.5t-80 27.5q-40 0 -68 -16.5t-34 -44.5q-3 -10 -12 -9l-76 11q-10 2 -9 11q8 57 63 94t133 37q56 0 100.5 -24t62.5 -59q2 -5 5 0q19 33 61.5 58t93.5 25q69 0 124 -38.5t73 -103.5
q6 -20 8.5 -53t2.5 -95q0 -10 -10 -10h-309q-4 0 -4 -4q0 -1 2 -39q4 -45 39.5 -68.5t88.5 -23.5q43 0 70.5 15.5t43.5 47.5q4 9 14 3l50 -32q8 -6 4 -13q-22 -47 -74 -79t-121 -32q-55 0 -98.5 22t-64.5 57q-4 4 -5 1q-24 -37 -74 -58.5t-112 -21.5zM458 302q0 -4 4 -4h221
q4 0 4 4q-2 35 -5 46q-8 38 -38 62t-72 24t-71.5 -24t-37.5 -62q-3 -13 -5 -46zM233 68q52 0 90 26t38 75v44q0 4 -4 4h-95q-60 0 -94 -18.5t-34 -56.5q0 -34 27 -54t72 -20z" />
    <glyph glyph-name="ccedilla" unicode="&#xe7;" horiz-adv-x="526" 
d="M388 158q1 1 0.5 2.5t0.5 2.5v4q3 8 11 6l75 -12q8 -2 8 -8v-4q0 -9 -5 -22q-15 -54 -61 -89.5t-110 -43.5q-6 -2 -1 -5q48 -44 48 -91q0 -11 -3 -23q-8 -33 -32.5 -47t-56.5 -14q-28 0 -50 8q-9 3 -7 12l5 33q1 5 4.5 6.5t7.5 0.5q11 -3 22 -3q19 0 31 10.5t12 31.5
q0 38 -54 81q-1 2 -5 2q-58 10 -99.5 47t-58.5 92q-15 46 -15 121q0 69 15 121q20 64 74.5 102t129.5 38t131 -38t73 -96q6 -16 8 -33q0 -8 -9 -10l-75 -11h-2q-7 0 -10 9l-3 16q-8 34 -39 57t-75 23q-43 0 -73 -23t-39 -61q-9 -36 -9 -95q0 -58 9 -94q10 -40 39.5 -63
t72.5 -23q44 0 75.5 23t39.5 60z" />
    <glyph glyph-name="egrave" unicode="&#xe8;" horiz-adv-x="537" 
d="M482 318q4 -41 3 -92q0 -10 -10 -10h-319q-4 0 -4 -4q0 -34 6 -52q11 -40 44.5 -62.5t84.5 -22.5q74 0 114 61q5 10 13 3l57 -38q7 -6 3 -13q-28 -45 -79.5 -71t-116.5 -26q-73 0 -123 32t-75 91q-24 59 -24 143q0 73 11 111q18 69 72 109t131 40q101 0 151 -50.5
t61 -148.5zM270 434q-43 0 -71 -21.5t-38 -57.5q-7 -22 -9 -56q0 -4 4 -4h229q4 0 4 4q-2 33 -6 49q-10 39 -39.5 62.5t-73.5 23.5zM305 585q1 -2 1 -5t-2.5 -5t-6.5 -2h-54q-7 0 -12 7l-70 108q-2 4 -2 6q0 6 8 6h67q9 0 12 -7z" />
    <glyph glyph-name="eacute" unicode="&#xe9;" horiz-adv-x="537" 
d="M482 318q4 -41 3 -92q0 -10 -10 -10h-319q-4 0 -4 -4q0 -34 6 -52q11 -40 44.5 -62.5t84.5 -22.5q74 0 114 61q5 10 13 3l57 -38q7 -6 3 -13q-28 -45 -79.5 -71t-116.5 -26q-73 0 -123 32t-75 91q-24 59 -24 143q0 73 11 111q18 69 72 109t131 40q101 0 151 -50.5
t61 -148.5zM270 434q-43 0 -71 -21.5t-38 -57.5q-7 -22 -9 -56q0 -4 4 -4h229q4 0 4 4q-2 33 -6 49q-10 39 -39.5 62.5t-73.5 23.5zM226 573q-6 0 -8.5 3.5t0.5 8.5l59 108q3 7 12 7h67q6 0 7.5 -3.5t-1.5 -8.5l-71 -108q-5 -7 -12 -7h-53z" />
    <glyph glyph-name="ecircumflex" unicode="&#xea;" horiz-adv-x="537" 
d="M482 318q4 -41 3 -92q0 -10 -10 -10h-319q-4 0 -4 -4q0 -34 6 -52q11 -40 44.5 -62.5t84.5 -22.5q74 0 114 61q5 10 13 3l57 -38q7 -6 3 -13q-28 -45 -79.5 -71t-116.5 -26q-73 0 -123 32t-75 91q-24 59 -24 143q0 73 11 111q18 69 72 109t131 40q101 0 151 -50.5
t61 -148.5zM270 434q-43 0 -71 -21.5t-38 -57.5q-7 -22 -9 -56q0 -4 4 -4h229q4 0 4 4q-2 33 -6 49q-10 39 -39.5 62.5t-73.5 23.5zM139 573q-6 0 -8 3.5t2 8.5l79 109q4 6 13 6h85q9 0 13 -6l79 -109q2 -2 2 -6q0 -2 -2 -4t-6 -2h-59q-8 0 -12 6l-53 76q-1 2 -3 2t-3 -2
l-55 -76q-4 -6 -12 -6h-60z" />
    <glyph glyph-name="edieresis" unicode="&#xeb;" horiz-adv-x="537" 
d="M482 318q4 -41 3 -92q0 -10 -10 -10h-319q-4 0 -4 -4q0 -34 6 -52q11 -40 44.5 -62.5t84.5 -22.5q74 0 114 61q5 10 13 3l57 -38q7 -6 3 -13q-28 -45 -79.5 -71t-116.5 -26q-73 0 -123 32t-75 91q-24 59 -24 143q0 73 11 111q18 69 72 109t131 40q101 0 151 -50.5
t61 -148.5zM270 434q-43 0 -71 -21.5t-38 -57.5q-7 -22 -9 -56q0 -4 4 -4h229q4 0 4 4q-2 33 -6 49q-10 39 -39.5 62.5t-73.5 23.5zM359 593q-28 0 -46 18t-18 46t18 46t46 18t46 -18t18 -46t-18 -46t-46 -18zM177 593q-28 0 -46 18t-18 46t18 46t46 18t46 -18t18 -46
t-18 -46t-46 -18z" />
    <glyph glyph-name="igrave" unicode="&#xec;" horiz-adv-x="221" 
d="M72 0q-10 0 -10 10v489q0 10 10 10h76q10 0 10 -10v-489q0 -10 -10 -10h-76zM147 585q1 -2 1 -5t-2.5 -5t-6.5 -2h-54q-7 0 -12 7l-70 108q-2 4 -2 6q0 6 8 6h67q9 0 12 -7z" />
    <glyph glyph-name="iacute" unicode="&#xed;" horiz-adv-x="221" 
d="M72 0q-10 0 -10 10v489q0 10 10 10h76q10 0 10 -10v-489q0 -10 -10 -10h-76zM69 573q-6 0 -8.5 3.5t0.5 8.5l59 108q3 7 12 7h67q6 0 7.5 -3.5t-1.5 -8.5l-71 -108q-5 -7 -12 -7h-53z" />
    <glyph glyph-name="icircumflex" unicode="&#xee;" horiz-adv-x="221" 
d="M72 0q-10 0 -10 10v489q0 10 10 10h76q10 0 10 -10v-489q0 -10 -10 -10h-76zM-18 573q-6 0 -8 3.5t2 8.5l79 109q4 6 13 6h85q9 0 13 -6l79 -109q2 -2 2 -6q0 -2 -2 -4t-6 -2h-59q-8 0 -12 6l-53 76q-1 2 -3 2t-3 -2l-55 -76q-4 -6 -12 -6h-60z" />
    <glyph glyph-name="idieresis" unicode="&#xef;" horiz-adv-x="221" 
d="M72 0q-10 0 -10 10v489q0 10 10 10h76q10 0 10 -10v-489q0 -10 -10 -10h-76zM201 593q-28 0 -46 18t-18 46t18 46t46 18t46 -18t18 -46t-18 -46t-46 -18zM19 593q-28 0 -46 18t-18 46t18 46t46 18t46 -18t18 -46t-18 -46t-46 -18z" />
    <glyph glyph-name="eth" unicode="&#xf0;" horiz-adv-x="538" 
d="M469 359q9 -45 9 -119q0 -75 -12 -114q-20 -60 -73.5 -97t-126.5 -37q-72 0 -125 36.5t-74 97.5q-12 38 -12 114q0 40 2.5 66t9.5 48q13 45 47.5 75.5t82.5 37.5q27 5 53 5q30 0 57.5 -6t44.5 -18q2 -2 3.5 -1t0.5 4q-23 58 -58 105q-2 4 -5 2l-97 -27l-4 -1q-6 0 -9 8
l-9 33v3q0 7 7 10l72 21q6 2 1 5q-40 43 -79 78q-3 3 -3 7q0 5 8 5h82q5 0 12 -5l24 -26l36 -39q2 -2 5 -1l82 23l4 1q6 0 9 -8l9 -34v-3q0 -7 -7 -10l-56 -16q-4 -1 -2 -4q38 -48 61 -100.5t30 -118.5zM374 149q7 27 7 89q0 61 -7 86q-10 38 -38.5 60.5t-69.5 22.5
t-69.5 -22.5t-37.5 -60.5q-7 -22 -7 -86t8 -89q9 -38 37.5 -60.5t68.5 -22.5t69 22.5t39 60.5z" />
    <glyph glyph-name="ntilde" unicode="&#xf1;" horiz-adv-x="542" 
d="M297 516q82 0 130 -47.5t48 -128.5v-330q0 -10 -10 -10h-76q-10 0 -10 10v311q0 50 -29 81t-77 31q-47 0 -77 -31t-30 -80v-312q0 -10 -10 -10h-76q-10 0 -10 10v489q0 10 10 10h76q10 0 10 -10v-36q0 -2 1.5 -3t2.5 1q43 55 127 55zM337 593q-19 0 -33 5t-31 15
q-19 10 -28.5 14t-20.5 4q-32 0 -53 -22l-4 -4q-2 -3 -5.5 -3t-6.5 3l-28 28q-7 7 -2 14q17 26 41 40t53 14q17 0 29.5 -4.5t23.5 -10.5t15 -8t14.5 -8t19 -8.5t16.5 -2.5q31 0 52 27q6 10 14 2l25 -28q3 -4 3.5 -7t-1.5 -7q-12 -25 -37.5 -39t-55.5 -14z" />
    <glyph glyph-name="ograve" unicode="&#xf2;" 
d="M278 -8q-74 0 -129 37.5t-77 104.5q-18 54 -18 122q0 71 17 120q22 66 77 103.5t131 37.5q72 0 125.5 -37.5t76.5 -102.5q18 -51 18 -120q0 -70 -18 -123q-22 -67 -76 -104.5t-127 -37.5zM278 75q40 0 70 22.5t43 63.5q11 38 11 94t-10 93q-13 41 -43 63.5t-73 22.5
q-41 0 -71 -22.5t-43 -63.5q-11 -35 -11 -93t11 -94q12 -41 42.5 -63.5t73.5 -22.5zM307 585q1 -2 1 -5t-2.5 -5t-6.5 -2h-54q-7 0 -12 7l-70 108q-2 4 -2 6q0 6 8 6h67q9 0 12 -7z" />
    <glyph glyph-name="oacute" unicode="&#xf3;" 
d="M278 -8q-74 0 -129 37.5t-77 104.5q-18 54 -18 122q0 71 17 120q22 66 77 103.5t131 37.5q72 0 125.5 -37.5t76.5 -102.5q18 -51 18 -120q0 -70 -18 -123q-22 -67 -76 -104.5t-127 -37.5zM278 75q40 0 70 22.5t43 63.5q11 38 11 94t-10 93q-13 41 -43 63.5t-73 22.5
q-41 0 -71 -22.5t-43 -63.5q-11 -35 -11 -93t11 -94q12 -41 42.5 -63.5t73.5 -22.5zM229 573q-6 0 -8.5 3.5t0.5 8.5l59 108q3 7 12 7h67q6 0 7.5 -3.5t-1.5 -8.5l-71 -108q-5 -7 -12 -7h-53z" />
    <glyph glyph-name="ocircumflex" unicode="&#xf4;" 
d="M278 -8q-74 0 -129 37.5t-77 104.5q-18 54 -18 122q0 71 17 120q22 66 77 103.5t131 37.5q72 0 125.5 -37.5t76.5 -102.5q18 -51 18 -120q0 -70 -18 -123q-22 -67 -76 -104.5t-127 -37.5zM278 75q40 0 70 22.5t43 63.5q11 38 11 94t-10 93q-13 41 -43 63.5t-73 22.5
q-41 0 -71 -22.5t-43 -63.5q-11 -35 -11 -93t11 -94q12 -41 42.5 -63.5t73.5 -22.5zM142 573q-6 0 -8 3.5t2 8.5l79 109q4 6 13 6h85q9 0 13 -6l79 -109q2 -2 2 -6q0 -2 -2 -4t-6 -2h-59q-8 0 -12 6l-53 76q-1 2 -3 2t-3 -2l-55 -76q-4 -6 -12 -6h-60z" />
    <glyph glyph-name="otilde" unicode="&#xf5;" 
d="M278 -8q-74 0 -129 37.5t-77 104.5q-18 54 -18 122q0 71 17 120q22 66 77 103.5t131 37.5q72 0 125.5 -37.5t76.5 -102.5q18 -51 18 -120q0 -70 -18 -123q-22 -67 -76 -104.5t-127 -37.5zM278 75q40 0 70 22.5t43 63.5q11 38 11 94t-10 93q-13 41 -43 63.5t-73 22.5
q-41 0 -71 -22.5t-43 -63.5q-11 -35 -11 -93t11 -94q12 -41 42.5 -63.5t73.5 -22.5zM333 593q-19 0 -33 5t-31 15q-19 10 -28.5 14t-20.5 4q-32 0 -53 -22l-4 -4q-2 -3 -5.5 -3t-6.5 3l-28 28q-7 7 -2 14q17 26 41 40t53 14q17 0 29.5 -4.5t23.5 -10.5t15 -8t14.5 -8
t19 -8.5t16.5 -2.5q31 0 52 27q6 10 14 2l25 -28q3 -4 3.5 -7t-1.5 -7q-12 -25 -37.5 -39t-55.5 -14z" />
    <glyph glyph-name="odieresis" unicode="&#xf6;" 
d="M278 -8q-74 0 -129 37.5t-77 104.5q-18 54 -18 122q0 71 17 120q22 66 77 103.5t131 37.5q72 0 125.5 -37.5t76.5 -102.5q18 -51 18 -120q0 -70 -18 -123q-22 -67 -76 -104.5t-127 -37.5zM278 75q40 0 70 22.5t43 63.5q11 38 11 94t-10 93q-13 41 -43 63.5t-73 22.5
q-41 0 -71 -22.5t-43 -63.5q-11 -35 -11 -93t11 -94q12 -41 42.5 -63.5t73.5 -22.5zM361 593q-28 0 -46 18t-18 46t18 46t46 18t46 -18t18 -46t-18 -46t-46 -18zM179 593q-28 0 -46 18t-18 46t18 46t46 18t46 -18t18 -46t-18 -46t-46 -18z" />
    <glyph glyph-name="divide" unicode="&#xf7;" horiz-adv-x="495" 
d="M247 432q-24 0 -41.5 17t-17.5 41t17.5 41t41.5 17q23 0 40.5 -17t17.5 -41t-17.5 -41t-40.5 -17zM45 279q-10 0 -10 10v62q0 10 10 10h405q10 0 10 -10v-62q0 -10 -10 -10h-405zM247 107q-24 0 -41.5 17t-17.5 41q0 23 17.5 40.5t41.5 17.5q23 0 40.5 -17.5t17.5 -40.5
q0 -24 -17.5 -41t-40.5 -17z" />
    <glyph glyph-name="oslash" unicode="&#xf8;" horiz-adv-x="530" 
d="M472 377q18 -51 18 -120q0 -70 -18 -123q-22 -67 -76 -104.5t-127 -37.5q-61 0 -111 26q-4 2 -5 -1l-35 -51q-6 -9 -14 -2l-54 43q-7 6 -2 14l39 57q2 3 0 6q-11 16 -24 50q-17 51 -17 122q0 73 16 120q23 66 77.5 103.5t130.5 37.5q56 0 100 -22q4 -2 5 1l35 51
q6 9 14 2l54 -42q7 -6 2 -14l-37 -54q-1 -3 0 -6q16 -21 29 -56zM143 255q0 -44 6 -79q1 -2 3 -2.5t3 1.5l167 242q2 5 -2 6q-22 11 -52 11q-42 0 -72 -22.5t-43 -63.5q-10 -31 -10 -93zM382 161q11 33 11 94q0 52 -8 87v1l-2 7h-1l-176 -255q-2 -4 2 -5q27 -15 61 -15
q40 0 70 22.5t43 63.5z" />
    <glyph glyph-name="ugrave" unicode="&#xf9;" 
d="M373 499q0 10 10 10h75q10 0 10 -10v-489q0 -10 -10 -10h-75q-10 0 -10 10v37q0 2 -1.5 2.5t-3.5 -1.5q-40 -55 -123 -55q-49 0 -90.5 19t-66.5 56t-25 90v341q0 10 10 10h75q10 0 10 -10v-311q0 -52 27.5 -82t77.5 -30t80 30.5t30 81.5v311zM307 585q1 -2 1 -5t-2.5 -5
t-6.5 -2h-54q-7 0 -12 7l-70 108q-2 4 -2 6q0 6 8 6h67q9 0 12 -7z" />
    <glyph glyph-name="uacute" unicode="&#xfa;" 
d="M373 499q0 10 10 10h75q10 0 10 -10v-489q0 -10 -10 -10h-75q-10 0 -10 10v37q0 2 -1.5 2.5t-3.5 -1.5q-40 -55 -123 -55q-49 0 -90.5 19t-66.5 56t-25 90v341q0 10 10 10h75q10 0 10 -10v-311q0 -52 27.5 -82t77.5 -30t80 30.5t30 81.5v311zM228 573q-6 0 -8.5 3.5
t0.5 8.5l59 108q3 7 12 7h67q6 0 7.5 -3.5t-1.5 -8.5l-71 -108q-5 -7 -12 -7h-53z" />
    <glyph glyph-name="ucircumflex" unicode="&#xfb;" 
d="M373 499q0 10 10 10h75q10 0 10 -10v-489q0 -10 -10 -10h-75q-10 0 -10 10v37q0 2 -1.5 2.5t-3.5 -1.5q-40 -55 -123 -55q-49 0 -90.5 19t-66.5 56t-25 90v341q0 10 10 10h75q10 0 10 -10v-311q0 -52 27.5 -82t77.5 -30t80 30.5t30 81.5v311zM142 573q-6 0 -8 3.5t2 8.5
l79 109q4 6 13 6h85q9 0 13 -6l79 -109q2 -2 2 -6q0 -2 -2 -4t-6 -2h-59q-8 0 -12 6l-53 76q-1 2 -3 2t-3 -2l-55 -76q-4 -6 -12 -6h-60z" />
    <glyph glyph-name="udieresis" unicode="&#xfc;" 
d="M373 499q0 10 10 10h75q10 0 10 -10v-489q0 -10 -10 -10h-75q-10 0 -10 10v37q0 2 -1.5 2.5t-3.5 -1.5q-40 -55 -123 -55q-49 0 -90.5 19t-66.5 56t-25 90v341q0 10 10 10h75q10 0 10 -10v-311q0 -52 27.5 -82t77.5 -30t80 30.5t30 81.5v311zM361 593q-28 0 -46 18
t-18 46t18 46t46 18t46 -18t18 -46t-18 -46t-46 -18zM179 593q-28 0 -46 18t-18 46t18 46t46 18t46 -18t18 -46t-18 -46t-46 -18z" />
    <glyph glyph-name="yacute" unicode="&#xfd;" horiz-adv-x="476" 
d="M55 -199q-7 0 -7 10v59q0 10 10 10h2q40 1 63 10t38 33.5t29 73.5q1 1 0.5 3.5l-0.5 2.5l-167 495l-1 4q0 7 9 7h81q9 0 12 -8l113 -377q1 -2 3 -2t3 2l112 377q3 8 12 8h79q11 0 8 -11l-182 -533q-23 -69 -46 -102.5t-60 -47.5t-104 -14h-7zM196 579q-6 0 -8.5 3.5
t0.5 8.5l59 108q3 7 12 7h67q6 0 7.5 -3.5t-1.5 -8.5l-71 -108q-5 -7 -12 -7h-53z" />
    <glyph glyph-name="thorn" unicode="&#xfe;" horiz-adv-x="544" 
d="M476 383q8 -26 10.5 -56t2.5 -73q0 -42 -2 -69t-8 -50q-17 -65 -67 -104t-116 -39q-82 0 -125 61q-1 2 -3 1t-2 -3v-241q0 -10 -10 -10h-76q-10 0 -10 10v880q0 10 10 10h76q10 0 10 -10v-229q0 -2 2 -3t3 1q40 58 122 58q68 0 117 -37.5t66 -96.5zM380 158q5 17 7 35.5
t2 61.5t-2 61.5t-7 34.5q-9 37 -38.5 60t-70.5 23t-68 -22.5t-35 -57.5l-1 -3l-1 -2v-189q0 -3 1 -4q9 -35 36 -58t68 -23q42 0 71.5 23t37.5 60z" />
    <glyph glyph-name="ydieresis" unicode="&#xff;" horiz-adv-x="476" 
d="M55 -199q-7 0 -7 10v59q0 10 10 10h2q40 1 63 10t38 33.5t29 73.5q1 1 0.5 3.5l-0.5 2.5l-167 495l-1 4q0 7 9 7h81q9 0 12 -8l113 -377q1 -2 3 -2t3 2l112 377q3 8 12 8h79q11 0 8 -11l-182 -533q-23 -69 -46 -102.5t-60 -47.5t-104 -14h-7zM329 599q-28 0 -46 18
t-18 46t18 46t46 18t46 -18t18 -46t-18 -46t-46 -18zM147 599q-28 0 -46 18t-18 46t18 46t46 18t46 -18t18 -46t-18 -46t-46 -18z" />
    <glyph glyph-name="Amacron" unicode="&#x100;" horiz-adv-x="630" 
d="M507 0q-9 0 -12 8l-36 117q-1 3 -4 3h-281q-3 0 -4 -3l-36 -117q-3 -8 -12 -8h-81q-11 0 -8 11l219 681q3 8 12 8h100q9 0 12 -8l221 -681l1 -4q0 -7 -9 -7h-82zM195 209q-1 -2 0.5 -3.5t3.5 -1.5h230q2 0 3.5 1.5t0.5 3.5l-116 371q-1 2 -3 2t-3 -2zM185 779
q-10 0 -10 10v47q0 10 10 10h258q10 0 10 -10v-47q0 -10 -10 -10h-258z" />
    <glyph glyph-name="amacron" unicode="&#x101;" horiz-adv-x="517" 
d="M256 517q61 0 106.5 -21.5t70 -60t24.5 -87.5v-338q0 -10 -10 -10h-76q-10 0 -10 10v36q0 5 -5 2q-26 -27 -63.5 -41.5t-83.5 -14.5q-74 0 -122.5 37.5t-48.5 113.5q0 78 54.5 122.5t152.5 44.5h112q4 0 4 4v27q0 44 -25.5 68.5t-77.5 24.5q-42 0 -68.5 -16.5
t-32.5 -44.5q-3 -10 -12 -9l-81 11q-10 2 -9 8q8 59 63 96.5t138 37.5zM230 73q53 0 92 28t39 71v59q0 4 -4 4h-94q-59 0 -94 -23t-35 -64q0 -37 26.5 -56t69.5 -19zM130 588q-10 0 -10 10v47q0 10 10 10h258q10 0 10 -10v-47q0 -10 -10 -10h-258z" />
    <glyph glyph-name="Abreve" unicode="&#x102;" horiz-adv-x="630" 
d="M507 0q-9 0 -12 8l-36 117q-1 3 -4 3h-281q-3 0 -4 -3l-36 -117q-3 -8 -12 -8h-81q-11 0 -8 11l219 681q3 8 12 8h100q9 0 12 -8l221 -681l1 -4q0 -7 -9 -7h-82zM195 209q-1 -2 0.5 -3.5t3.5 -1.5h230q2 0 3.5 1.5t0.5 3.5l-116 371q-1 2 -3 2t-3 -2zM313 751
q-55 0 -93 30.5t-43 77.5q0 10 10 10h45q10 0 11 -10q4 -24 23.5 -39t46.5 -15q28 0 47.5 15t23.5 39q1 10 11 10h44q10 0 10 -9q-4 -47 -42 -78t-94 -31z" />
    <glyph glyph-name="abreve" unicode="&#x103;" horiz-adv-x="517" 
d="M256 517q61 0 106.5 -21.5t70 -60t24.5 -87.5v-338q0 -10 -10 -10h-76q-10 0 -10 10v36q0 5 -5 2q-26 -27 -63.5 -41.5t-83.5 -14.5q-74 0 -122.5 37.5t-48.5 113.5q0 78 54.5 122.5t152.5 44.5h112q4 0 4 4v27q0 44 -25.5 68.5t-77.5 24.5q-42 0 -68.5 -16.5
t-32.5 -44.5q-3 -10 -12 -9l-81 11q-10 2 -9 8q8 59 63 96.5t138 37.5zM230 73q53 0 92 28t39 71v59q0 4 -4 4h-94q-59 0 -94 -23t-35 -64q0 -37 26.5 -56t69.5 -19zM258 560q-55 0 -93 30.5t-43 77.5q0 10 10 10h45q10 0 11 -10q4 -24 23.5 -39t46.5 -15q28 0 47.5 15
t23.5 39q1 10 11 10h44q10 0 10 -9q-4 -47 -42 -78t-94 -31z" />
    <glyph glyph-name="Aogonek" unicode="&#x104;" horiz-adv-x="630" 
d="M507 0q-9 0 -12 8l-36 117q-1 3 -4 3h-281q-3 0 -4 -3l-36 -117q-3 -8 -12 -8h-81q-11 0 -8 11l219 681q3 8 12 8h100q9 0 12 -8l221 -681l1 -4q0 -7 -9 -7h-82zM195 209q-1 -2 0.5 -3.5t3.5 -1.5h230q2 0 3.5 1.5t0.5 3.5l-116 371q-1 2 -3 2t-3 -2zM617 -172
q0 -6 -7 -9q-25 -7 -49 -7q-32 0 -57 14t-33 47q-3 12 -3 23q0 53 59 100q5 4 13 4h41q8 0 8 -5q0 -4 -4 -7q-50 -40 -50 -78q0 -21 12.5 -31.5t31.5 -10.5q11 0 21 3l4 1q6 0 8 -8l5 -33v-3z" />
    <glyph glyph-name="aogonek" unicode="&#x105;" horiz-adv-x="517" 
d="M460 -128q6 0 8 -8l5 -33v-3q0 -6 -7 -9q-25 -7 -49 -7q-32 0 -57 14t-33 47q-3 10 -3 23q0 53 59 99q2 1 1 3t-3 2h-10q-10 0 -10 10v36q0 5 -5 2q-26 -27 -63.5 -41.5t-83.5 -14.5q-74 0 -122.5 37.5t-48.5 113.5q0 78 54.5 122.5t152.5 44.5h112q4 0 4 4v27
q0 44 -25.5 68.5t-77.5 24.5q-42 0 -68.5 -16.5t-32.5 -44.5q-3 -10 -12 -9l-81 11q-10 2 -9 11q9 58 64 94.5t137 36.5q61 0 106.5 -21.5t70 -60t24.5 -87.5v-340q0 -7 -6 -13q-60 -45 -60 -84q0 -8 1 -12q3 -16 14.5 -23.5t27.5 -7.5q12 0 22 3zM230 73q53 0 92 28t39 71
v59q0 4 -4 4h-94q-59 0 -94 -23t-35 -64q0 -37 26.5 -56t69.5 -19z" />
    <glyph glyph-name="Cacute" unicode="&#x106;" horiz-adv-x="607" 
d="M307 -9q-72 0 -127.5 28.5t-86 81t-30.5 120.5v259q0 68 30.5 119.5t86 80t127.5 28.5t127 -27.5t85.5 -77.5t30.5 -116v-1q0 -5 -3 -8t-7 -3l-76 -4q-10 0 -10 9v3q0 64 -40 103t-107 39t-107.5 -39t-40.5 -103v-266q0 -64 40.5 -103t107.5 -39t107 39t40 103v2
q0 9 10 9l76 -4q10 0 10 -10q0 -66 -30.5 -116.5t-85.5 -78.5t-127 -28zM265 764q-6 0 -8.5 3.5t0.5 8.5l59 108q3 7 12 7h67q6 0 7.5 -3.5t-1.5 -8.5l-71 -108q-5 -7 -12 -7h-53z" />
    <glyph glyph-name="cacute" unicode="&#x107;" horiz-adv-x="526" 
d="M274 -8q-76 0 -130 38.5t-74 104.5q-15 46 -15 121q0 69 15 121q20 64 74.5 102t129.5 38t131 -38t73 -96q6 -16 8 -33q0 -8 -9 -10l-75 -11h-2q-7 0 -10 9l-3 16q-8 34 -39 57t-75 23q-43 0 -73 -23t-39 -61q-9 -36 -9 -95q0 -58 9 -94q10 -40 39.5 -63t72.5 -23
q44 0 75.5 23t39.5 60q1 1 0.5 2.5t0.5 2.5v4q3 8 11 6l75 -12q8 -2 8 -8v-4q0 -9 -5 -22q-17 -61 -73 -98t-131 -37zM230 573q-6 0 -8.5 3.5t0.5 8.5l59 108q3 7 12 7h67q6 0 7.5 -3.5t-1.5 -8.5l-71 -108q-5 -7 -12 -7h-53z" />
    <glyph glyph-name="Ccircumflex" unicode="&#x108;" horiz-adv-x="607" 
d="M307 -9q-72 0 -127.5 28.5t-86 81t-30.5 120.5v259q0 68 30.5 119.5t86 80t127.5 28.5t127 -27.5t85.5 -77.5t30.5 -116v-1q0 -5 -3 -8t-7 -3l-76 -4q-10 0 -10 9v3q0 64 -40 103t-107 39t-107.5 -39t-40.5 -103v-266q0 -64 40.5 -103t107.5 -39t107 39t40 103v2
q0 9 10 9l76 -4q10 0 10 -10q0 -66 -30.5 -116.5t-85.5 -78.5t-127 -28zM179 764q-6 0 -8 3.5t2 8.5l79 109q4 6 13 6h85q9 0 13 -6l79 -109q2 -2 2 -6q0 -2 -2 -4t-6 -2h-59q-8 0 -12 6l-53 76q-1 2 -3 2t-3 -2l-55 -76q-4 -6 -12 -6h-60z" />
    <glyph glyph-name="ccircumflex" unicode="&#x109;" horiz-adv-x="526" 
d="M274 -8q-76 0 -130 38.5t-74 104.5q-15 46 -15 121q0 69 15 121q20 64 74.5 102t129.5 38t131 -38t73 -96q6 -16 8 -33q0 -8 -9 -10l-75 -11h-2q-7 0 -10 9l-3 16q-8 34 -39 57t-75 23q-43 0 -73 -23t-39 -61q-9 -36 -9 -95q0 -58 9 -94q10 -40 39.5 -63t72.5 -23
q44 0 75.5 23t39.5 60q1 1 0.5 2.5t0.5 2.5v4q3 8 11 6l75 -12q8 -2 8 -8v-4q0 -9 -5 -22q-17 -61 -73 -98t-131 -37zM143 573q-6 0 -8 3.5t2 8.5l79 109q4 6 13 6h85q9 0 13 -6l79 -109q2 -2 2 -6q0 -2 -2 -4t-6 -2h-59q-8 0 -12 6l-53 76q-1 2 -3 2t-3 -2l-55 -76
q-4 -6 -12 -6h-60z" />
    <glyph glyph-name="Cdotaccent" unicode="&#x10a;" horiz-adv-x="607" 
d="M307 -9q-72 0 -127.5 28.5t-86 81t-30.5 120.5v259q0 68 30.5 119.5t86 80t127.5 28.5t127 -27.5t85.5 -77.5t30.5 -116v-1q0 -5 -3 -8t-7 -3l-76 -4q-10 0 -10 9v3q0 64 -40 103t-107 39t-107.5 -39t-40.5 -103v-266q0 -64 40.5 -103t107.5 -39t107 39t40 103v2
q0 9 10 9l76 -4q10 0 10 -10q0 -66 -30.5 -116.5t-85.5 -78.5t-127 -28zM307 780q-28 0 -46 18t-18 46t18 46t46 18t46 -18t18 -46t-18 -46t-46 -18z" />
    <glyph glyph-name="cdotaccent" unicode="&#x10b;" horiz-adv-x="526" 
d="M274 -8q-76 0 -130 38.5t-74 104.5q-15 46 -15 121q0 69 15 121q20 64 74.5 102t129.5 38t131 -38t73 -96q6 -16 8 -33q0 -8 -9 -10l-75 -11h-2q-7 0 -10 9l-3 16q-8 34 -39 57t-75 23q-43 0 -73 -23t-39 -61q-9 -36 -9 -95q0 -58 9 -94q10 -40 39.5 -63t72.5 -23
q44 0 75.5 23t39.5 60q1 1 0.5 2.5t0.5 2.5v4q3 8 11 6l75 -12q8 -2 8 -8v-4q0 -9 -5 -22q-17 -61 -73 -98t-131 -37zM271 589q-28 0 -46 18t-18 46t18 46t46 18t46 -18t18 -46t-18 -46t-46 -18z" />
    <glyph glyph-name="Ccaron" unicode="&#x10c;" horiz-adv-x="607" 
d="M307 -9q-72 0 -127.5 28.5t-86 81t-30.5 120.5v259q0 68 30.5 119.5t86 80t127.5 28.5t127 -27.5t85.5 -77.5t30.5 -116v-1q0 -5 -3 -8t-7 -3l-76 -4q-10 0 -10 9v3q0 64 -40 103t-107 39t-107.5 -39t-40.5 -103v-266q0 -64 40.5 -103t107.5 -39t107 39t40 103v2
q0 9 10 9l76 -4q10 0 10 -10q0 -66 -30.5 -116.5t-85.5 -78.5t-127 -28zM176 879q-2 2 -2 6q0 2 2 4t6 2h60q8 0 12 -6l55 -76q1 -1 3 -1t3 1l53 76q4 6 12 6h59q6 0 8 -3.5t-2 -8.5l-79 -109q-4 -6 -13 -6h-85q-9 0 -13 6z" />
    <glyph glyph-name="ccaron" unicode="&#x10d;" horiz-adv-x="526" 
d="M274 -8q-76 0 -130 38.5t-74 104.5q-15 46 -15 121q0 69 15 121q20 64 74.5 102t129.5 38t131 -38t73 -96q6 -16 8 -33q0 -8 -9 -10l-75 -11h-2q-7 0 -10 9l-3 16q-8 34 -39 57t-75 23q-43 0 -73 -23t-39 -61q-9 -36 -9 -95q0 -58 9 -94q10 -40 39.5 -63t72.5 -23
q44 0 75.5 23t39.5 60q1 1 0.5 2.5t0.5 2.5v4q3 8 11 6l75 -12q8 -2 8 -8v-4q0 -9 -5 -22q-17 -61 -73 -98t-131 -37zM141 688q-2 2 -2 6q0 2 2 4t6 2h60q8 0 12 -6l55 -76q1 -1 3 -1t3 1l53 76q4 6 12 6h59q6 0 8 -3.5t-2 -8.5l-79 -109q-4 -6 -13 -6h-85q-9 0 -13 6z" />
    <glyph glyph-name="Dcaron" unicode="&#x10e;" horiz-adv-x="618" 
d="M92 0q-10 0 -10 10v680q0 10 10 10h242q104 0 166 -54.5t62 -145.5v-300q0 -91 -62 -145.5t-166 -54.5h-242zM178 87q0 -4 4 -4h156q58 0 92.5 35.5t35.5 95.5v272q0 60 -34.5 95.5t-93.5 35.5h-156q-4 0 -4 -4v-526zM176 877q-2 2 -2 6q0 2 2 4t6 2h60q8 0 12 -6l55 -76
q1 -1 3 -1t3 1l53 76q4 6 12 6h59q6 0 8 -3.5t-2 -8.5l-79 -109q-4 -6 -13 -6h-85q-9 0 -13 6z" />
    <glyph glyph-name="dcaron" unicode="&#x10f;" horiz-adv-x="553" 
d="M386 690q0 10 10 10h76q10 0 10 -10v-680q0 -10 -10 -10h-76q-10 0 -10 10v33q0 2 -1.5 3t-3.5 -1q-22 -25 -52 -39t-65 -14q-72 0 -119.5 35.5t-69.5 100.5q-19 53 -19 128q0 70 16 121q21 66 69 103t123 37q34 0 64.5 -13.5t52.5 -38.5q2 -2 3.5 -1t1.5 3v223zM361 129
q23 42 23 126t-25 128q-29 51 -85 51q-60 0 -89 -48q-32 -50 -32 -132q0 -77 25 -124q29 -55 95 -55q58 0 88 54zM527 573q-6 0 -8.5 3.5t0.5 8.5l59 108q3 7 12 7h67q6 0 7.5 -3.5t-1.5 -8.5l-71 -108q-5 -7 -12 -7h-53z" />
    <glyph glyph-name="Dcroat" unicode="&#x110;" horiz-adv-x="678" 
d="M394 700q104 0 166.5 -54.5t62.5 -145.5v-300q0 -91 -62.5 -145.5t-166.5 -54.5h-241q-10 0 -10 10v315q0 4 -4 4h-47q-10 0 -10 10v48q0 10 10 10h47q4 0 4 4v289q0 10 10 10h241zM527 486q0 60 -35 95.5t-94 35.5h-155q-4 0 -4 -4v-212q0 -4 4 -4h105q10 0 10 -10v-48
q0 -10 -10 -10h-105q-4 0 -4 -4v-238q0 -4 4 -4h155q58 0 93 35.5t36 95.5v272z" />
    <glyph glyph-name="dcroat" unicode="&#x111;" horiz-adv-x="553" 
d="M537 628q10 0 10 -10v-41q0 -10 -10 -10h-51q-4 0 -4 -4v-553q0 -10 -10 -10h-76q-10 0 -10 10v33q0 2 -1.5 3t-3.5 -1q-22 -25 -52 -39t-65 -14q-72 0 -119.5 35.5t-69.5 100.5q-19 53 -19 128q0 70 16 121q21 66 69 103t123 37q34 0 64.5 -13.5t52.5 -38.5q2 -2 3.5 -1
t1.5 3v96q0 4 -4 4h-155q-10 0 -10 10v41q0 10 10 10h155q4 0 4 4v58q0 10 10 10h76q10 0 10 -10v-58q0 -4 4 -4h51zM361 129q23 42 23 126t-25 128q-29 51 -85 51q-60 0 -89 -48q-32 -50 -32 -132q0 -77 25 -124q29 -55 95 -55q58 0 88 54z" />
    <glyph glyph-name="Emacron" unicode="&#x112;" horiz-adv-x="598" 
d="M547 627q0 -10 -10 -10h-355q-4 0 -4 -4v-215q0 -4 4 -4h244q10 0 10 -10v-63q0 -10 -10 -10h-244q-4 0 -4 -4v-220q0 -4 4 -4h355q10 0 10 -10v-63q0 -10 -10 -10h-445q-10 0 -10 10v680q0 10 10 10h445q10 0 10 -10v-63zM183 779q-10 0 -10 10v47q0 10 10 10h258
q10 0 10 -10v-47q0 -10 -10 -10h-258z" />
    <glyph glyph-name="emacron" unicode="&#x113;" horiz-adv-x="537" 
d="M482 318q4 -41 3 -92q0 -10 -10 -10h-319q-4 0 -4 -4q0 -34 6 -52q11 -40 44.5 -62.5t84.5 -22.5q74 0 114 61q5 10 13 3l57 -38q7 -6 3 -13q-28 -45 -79.5 -71t-116.5 -26q-73 0 -123 32t-75 91q-24 59 -24 143q0 73 11 111q18 69 72 109t131 40q101 0 151 -50.5
t61 -148.5zM270 434q-43 0 -71 -21.5t-38 -57.5q-7 -22 -9 -56q0 -4 4 -4h229q4 0 4 4q-2 33 -6 49q-10 39 -39.5 62.5t-73.5 23.5zM139 611q-10 0 -10 10v47q0 10 10 10h258q10 0 10 -10v-47q0 -10 -10 -10h-258z" />
    <glyph glyph-name="Edotaccent" unicode="&#x116;" horiz-adv-x="598" 
d="M547 627q0 -10 -10 -10h-355q-4 0 -4 -4v-215q0 -4 4 -4h244q10 0 10 -10v-63q0 -10 -10 -10h-244q-4 0 -4 -4v-220q0 -4 4 -4h355q10 0 10 -10v-63q0 -10 -10 -10h-445q-10 0 -10 10v680q0 10 10 10h445q10 0 10 -10v-63zM310 780q-28 0 -46 18t-18 46t18 46t46 18
t46 -18t18 -46t-18 -46t-46 -18z" />
    <glyph glyph-name="edotaccent" unicode="&#x117;" horiz-adv-x="537" 
d="M482 318q4 -41 3 -92q0 -10 -10 -10h-319q-4 0 -4 -4q0 -34 6 -52q11 -40 44.5 -62.5t84.5 -22.5q74 0 114 61q5 10 13 3l57 -38q7 -6 3 -13q-28 -45 -79.5 -71t-116.5 -26q-73 0 -123 32t-75 91q-24 59 -24 143q0 73 11 111q18 69 72 109t131 40q101 0 151 -50.5
t61 -148.5zM270 434q-43 0 -71 -21.5t-38 -57.5q-7 -22 -9 -56q0 -4 4 -4h229q4 0 4 4q-2 33 -6 49q-10 39 -39.5 62.5t-73.5 23.5zM267 589q-28 0 -46 18t-18 46t18 46t46 18t46 -18t18 -46t-18 -46t-46 -18z" />
    <glyph glyph-name="Eogonek" unicode="&#x118;" horiz-adv-x="598" 
d="M547 627q0 -10 -10 -10h-355q-4 0 -4 -4v-215q0 -4 4 -4h244q10 0 10 -10v-63q0 -10 -10 -10h-244q-4 0 -4 -4v-220q0 -4 4 -4h355q10 0 10 -10v-63q0 -10 -10 -10h-186q-3 0 -5 -2q-23 -19 -37 -39.5t-14 -39.5q0 -6 1 -9q4 -16 15 -23.5t27 -7.5q11 0 23 3l4 1
q6 0 8 -8l6 -34v-2q0 -7 -8 -10q-24 -7 -49 -7q-32 0 -57 14t-33 47q-3 12 -3 24q0 46 45 88q2 2 1.5 3.5t-2.5 1.5h-181q-10 0 -10 10v680q0 10 10 10h445q10 0 10 -10v-63z" />
    <glyph glyph-name="eogonek" unicode="&#x119;" horiz-adv-x="537" 
d="M482 318q4 -41 3 -92q0 -10 -10 -10h-319q-4 0 -4 -4q0 -34 6 -52q11 -40 44.5 -62.5t84.5 -22.5q74 0 114 61q5 10 13 3l57 -38q7 -6 3 -13q-25 -39 -66.5 -63.5t-94.5 -31.5q-3 0 -5 -2q-54 -42 -54 -80q0 -21 12 -31t31 -10q11 0 23 3l4 1q6 0 8 -8l5 -34v-2
q0 -7 -8 -10q-24 -7 -48 -7q-32 0 -57 14t-33 47q-3 12 -3 24q0 48 49 91q5 3 -1 5q-113 18 -156 120q-24 59 -24 143q0 73 11 111q18 69 72 109t131 40q101 0 151 -50.5t61 -148.5zM270 434q-43 0 -71 -21.5t-38 -57.5q-7 -22 -9 -56q0 -4 4 -4h229q4 0 4 4q-2 33 -6 49
q-10 39 -39.5 62.5t-73.5 23.5z" />
    <glyph glyph-name="Ecaron" unicode="&#x11a;" horiz-adv-x="598" 
d="M547 627q0 -10 -10 -10h-355q-4 0 -4 -4v-215q0 -4 4 -4h244q10 0 10 -10v-63q0 -10 -10 -10h-244q-4 0 -4 -4v-220q0 -4 4 -4h355q10 0 10 -10v-63q0 -10 -10 -10h-445q-10 0 -10 10v680q0 10 10 10h445q10 0 10 -10v-63zM180 879q-2 2 -2 6q0 2 2 4t6 2h60q8 0 12 -6
l55 -76q1 -1 3 -1t3 1l53 76q4 6 12 6h59q6 0 8 -3.5t-2 -8.5l-79 -109q-4 -6 -13 -6h-85q-9 0 -13 6z" />
    <glyph glyph-name="ecaron" unicode="&#x11b;" horiz-adv-x="537" 
d="M482 318q4 -41 3 -92q0 -10 -10 -10h-319q-4 0 -4 -4q0 -34 6 -52q11 -40 44.5 -62.5t84.5 -22.5q74 0 114 61q5 10 13 3l57 -38q7 -6 3 -13q-28 -45 -79.5 -71t-116.5 -26q-73 0 -123 32t-75 91q-24 59 -24 143q0 73 11 111q18 69 72 109t131 40q101 0 151 -50.5
t61 -148.5zM270 434q-43 0 -71 -21.5t-38 -57.5q-7 -22 -9 -56q0 -4 4 -4h229q4 0 4 4q-2 33 -6 49q-10 39 -39.5 62.5t-73.5 23.5zM137 686q-2 2 -2 6q0 2 2 4t6 2h60q8 0 12 -6l55 -76q1 -1 3 -1t3 1l53 76q4 6 12 6h59q6 0 8 -3.5t-2 -8.5l-79 -109q-4 -6 -13 -6h-85
q-9 0 -13 6z" />
    <glyph glyph-name="Gcircumflex" unicode="&#x11c;" horiz-adv-x="613" 
d="M307 -8q-72 0 -127.5 28.5t-86 81t-30.5 120.5v256q0 69 30.5 121t86 80.5t127.5 28.5t127 -28t85.5 -77.5t30.5 -111.5v-11q0 -10 -10 -10h-76q-10 0 -10 10v9q0 60 -40.5 97.5t-106.5 37.5q-67 0 -107.5 -39t-40.5 -104v-262q0 -65 42 -104t110 -39q66 0 104.5 34.5
t38.5 94.5v77q0 4 -4 4h-135q-10 0 -10 10v62q0 10 10 10h225q10 0 10 -10v-127q0 -115 -65.5 -177t-177.5 -62zM177 768q-6 0 -8 3.5t2 8.5l79 109q4 6 13 6h85q9 0 13 -6l79 -109q2 -2 2 -6q0 -2 -2 -4t-6 -2h-59q-8 0 -12 6l-53 76q-1 2 -3 2t-3 -2l-55 -76q-4 -6 -12 -6
h-60z" />
    <glyph glyph-name="gcircumflex" unicode="&#x11d;" horiz-adv-x="542" 
d="M383 499q0 10 10 10h76q10 0 10 -10v-473q0 -121 -68.5 -173t-183.5 -52q-16 0 -50 2q-10 1 -10 11l3 69q0 4 3 7t8 2q14 -1 41 -1q85 0 123 31.5t38 106.5v18q0 2 -1.5 3t-3.5 -1q-42 -49 -123 -49q-65 0 -117.5 34t-72.5 100q-13 44 -13 122q0 83 15 128
q19 60 67.5 96.5t114.5 36.5q82 0 129 -50q2 -2 3.5 -1.5t1.5 2.5v31zM377 163q3 16 4.5 34t1.5 60t-1.5 59.5t-5.5 33.5q-8 37 -36 60.5t-70 23.5t-70 -23.5t-40 -60.5q-11 -30 -11 -93q0 -69 10 -94q10 -37 39.5 -60.5t71.5 -23.5q44 0 71.5 23.5t35.5 60.5zM152 573
q-6 0 -8 3.5t2 8.5l79 109q4 6 13 6h85q9 0 13 -6l79 -109q2 -2 2 -6q0 -2 -2 -4t-6 -2h-59q-8 0 -12 6l-53 76q-1 2 -3 2t-3 -2l-55 -76q-4 -6 -12 -6h-60z" />
    <glyph glyph-name="Gbreve" unicode="&#x11e;" horiz-adv-x="613" 
d="M307 -8q-72 0 -127.5 28.5t-86 81t-30.5 120.5v256q0 69 30.5 121t86 80.5t127.5 28.5t127 -28t85.5 -77.5t30.5 -111.5v-11q0 -10 -10 -10h-76q-10 0 -10 10v9q0 60 -40.5 97.5t-106.5 37.5q-67 0 -107.5 -39t-40.5 -104v-262q0 -65 42 -104t110 -39q66 0 104.5 34.5
t38.5 94.5v77q0 4 -4 4h-135q-10 0 -10 10v62q0 10 10 10h225q10 0 10 -10v-127q0 -115 -65.5 -177t-177.5 -62zM306 754q-55 0 -93 30.5t-43 77.5q0 10 10 10h45q10 0 11 -10q4 -24 23.5 -39t46.5 -15q28 0 47.5 15t23.5 39q1 10 11 10h44q10 0 10 -9q-4 -47 -42 -78
t-94 -31z" />
    <glyph glyph-name="gbreve" unicode="&#x11f;" horiz-adv-x="542" 
d="M383 499q0 10 10 10h76q10 0 10 -10v-473q0 -121 -68.5 -173t-183.5 -52q-16 0 -50 2q-10 1 -10 11l3 69q0 4 3 7t8 2q14 -1 41 -1q85 0 123 31.5t38 106.5v18q0 2 -1.5 3t-3.5 -1q-42 -49 -123 -49q-65 0 -117.5 34t-72.5 100q-13 44 -13 122q0 83 15 128
q19 60 67.5 96.5t114.5 36.5q82 0 129 -50q2 -2 3.5 -1.5t1.5 2.5v31zM377 163q3 16 4.5 34t1.5 60t-1.5 59.5t-5.5 33.5q-8 37 -36 60.5t-70 23.5t-70 -23.5t-40 -60.5q-11 -30 -11 -93q0 -69 10 -94q10 -37 39.5 -60.5t71.5 -23.5q44 0 71.5 23.5t35.5 60.5zM280 560
q-55 0 -93 30.5t-43 77.5q0 10 10 10h45q10 0 11 -10q4 -24 23.5 -39t46.5 -15q28 0 47.5 15t23.5 39q1 10 11 10h44q10 0 10 -9q-4 -47 -42 -78t-94 -31z" />
    <glyph glyph-name="Gdotaccent" unicode="&#x120;" horiz-adv-x="613" 
d="M307 -8q-72 0 -127.5 28.5t-86 81t-30.5 120.5v256q0 69 30.5 121t86 80.5t127.5 28.5t127 -28t85.5 -77.5t30.5 -111.5v-11q0 -10 -10 -10h-76q-10 0 -10 10v9q0 60 -40.5 97.5t-106.5 37.5q-67 0 -107.5 -39t-40.5 -104v-262q0 -65 42 -104t110 -39q66 0 104.5 34.5
t38.5 94.5v77q0 4 -4 4h-135q-10 0 -10 10v62q0 10 10 10h225q10 0 10 -10v-127q0 -115 -65.5 -177t-177.5 -62zM306 784q-28 0 -46 18t-18 46t18 46t46 18t46 -18t18 -46t-18 -46t-46 -18z" />
    <glyph glyph-name="gdotaccent" unicode="&#x121;" horiz-adv-x="542" 
d="M383 499q0 10 10 10h76q10 0 10 -10v-473q0 -121 -68.5 -173t-183.5 -52q-16 0 -50 2q-10 1 -10 11l3 69q0 4 3 7t8 2q14 -1 41 -1q85 0 123 31.5t38 106.5v18q0 2 -1.5 3t-3.5 -1q-42 -49 -123 -49q-65 0 -117.5 34t-72.5 100q-13 44 -13 122q0 83 15 128
q19 60 67.5 96.5t114.5 36.5q82 0 129 -50q2 -2 3.5 -1.5t1.5 2.5v31zM377 163q3 16 4.5 34t1.5 60t-1.5 59.5t-5.5 33.5q-8 37 -36 60.5t-70 23.5t-70 -23.5t-40 -60.5q-11 -30 -11 -93q0 -69 10 -94q10 -37 39.5 -60.5t71.5 -23.5q44 0 71.5 23.5t35.5 60.5zM280 589
q-28 0 -46 18t-18 46t18 46t46 18t46 -18t18 -46t-18 -46t-46 -18z" />
    <glyph glyph-name="uni0122" unicode="&#x122;" horiz-adv-x="613" 
d="M307 -8q-72 0 -127.5 28.5t-86 81t-30.5 120.5v256q0 69 30.5 121t86 80.5t127.5 28.5t127 -28t85.5 -77.5t30.5 -111.5v-11q0 -10 -10 -10h-76q-10 0 -10 10v9q0 60 -40.5 97.5t-106.5 37.5q-67 0 -107.5 -39t-40.5 -104v-262q0 -65 42 -104t110 -39q66 0 104.5 34.5
t38.5 94.5v77q0 4 -4 4h-135q-10 0 -10 10v62q0 10 10 10h225q10 0 10 -10v-127q0 -115 -65.5 -177t-177.5 -62zM230 -193q-6 0 -8.5 3.5t0.5 8.5l59 108q3 7 12 7h67q6 0 7.5 -3.5t-1.5 -8.5l-71 -108q-5 -7 -12 -7h-53z" />
    <glyph glyph-name="uni0123" unicode="&#x123;" horiz-adv-x="542" 
d="M356 694q6 0 8.5 -3.5t-0.5 -8.5l-59 -108q-3 -7 -12 -7h-67q-6 0 -7.5 3.5t1.5 8.5l70 108q5 7 12 7h54zM383 499q0 10 10 10h76q10 0 10 -10v-473q0 -121 -68.5 -173t-183.5 -52q-16 0 -50 2q-10 1 -10 11l3 69q0 4 3 7t8 2q14 -1 41 -1q85 0 123 31.5t38 106.5v18
q0 2 -1.5 3t-3.5 -1q-42 -49 -123 -49q-65 0 -117.5 34t-72.5 100q-13 44 -13 122q0 83 15 128q19 60 67.5 96.5t114.5 36.5q82 0 129 -50q2 -2 3.5 -1.5t1.5 2.5v31zM377 163q3 16 4.5 34t1.5 60t-1.5 59.5t-5.5 33.5q-8 37 -36 60.5t-70 23.5t-70 -23.5t-40 -60.5
q-11 -30 -11 -93q0 -69 10 -94q10 -37 39.5 -60.5t71.5 -23.5q44 0 71.5 23.5t35.5 60.5z" />
    <glyph glyph-name="Hcircumflex" unicode="&#x124;" horiz-adv-x="645" 
d="M471 690q0 10 10 10h76q10 0 10 -10v-680q0 -10 -10 -10h-76q-10 0 -10 10v297q0 4 -4 4h-285q-4 0 -4 -4v-297q0 -10 -10 -10h-76q-10 0 -10 10v680q0 10 10 10h76q10 0 10 -10v-292q0 -4 4 -4h285q4 0 4 4v292zM197 765q-6 0 -8 3.5t2 8.5l79 109q4 6 13 6h85
q9 0 13 -6l79 -109q2 -2 2 -6q0 -2 -2 -4t-6 -2h-59q-8 0 -12 6l-53 76q-1 2 -3 2t-3 -2l-55 -76q-4 -6 -12 -6h-60z" />
    <glyph glyph-name="hcircumflex" unicode="&#x125;" horiz-adv-x="542" 
d="M297 516q82 0 130 -47.5t48 -128.5v-330q0 -10 -10 -10h-76q-10 0 -10 10v311q0 50 -29 81t-77 31q-47 0 -77 -31t-30 -80v-312q0 -10 -10 -10h-76q-10 0 -10 10v680q0 10 10 10h76q10 0 10 -10v-227q0 -2 1.5 -3t2.5 1q43 55 127 55zM148 751q-6 0 -8 3.5t2 8.5l79 109
q4 6 13 6h85q9 0 13 -6l79 -109q2 -2 2 -6q0 -2 -2 -4t-6 -2h-59q-8 0 -12 6l-53 76q-1 2 -3 2t-3 -2l-55 -76q-4 -6 -12 -6h-60z" />
    <glyph glyph-name="Hbar" unicode="&#x126;" horiz-adv-x="645" 
d="M616 575q10 0 10 -10v-47q0 -10 -10 -10h-45q-4 0 -4 -4v-494q0 -10 -10 -10h-76q-10 0 -10 10v297q0 4 -4 4h-285q-4 0 -4 -4v-297q0 -10 -10 -10h-76q-10 0 -10 10v494q0 4 -4 4h-46q-10 0 -10 10v47q0 10 10 10h46q4 0 4 4v111q0 10 10 10h76q10 0 10 -10v-111
q0 -4 4 -4h285q4 0 4 4v111q0 10 10 10h76q10 0 10 -10v-111q0 -4 4 -4h45zM467 394q4 0 4 4v106q0 4 -4 4h-285q-4 0 -4 -4v-106q0 -4 4 -4h285z" />
    <glyph glyph-name="hbar" unicode="&#x127;" horiz-adv-x="542" 
d="M297 516q82 0 130 -47.5t48 -128.5v-330q0 -10 -10 -10h-76q-10 0 -10 10v311q0 50 -29 81t-77 31q-47 0 -77 -31t-30 -80v-312q0 -10 -10 -10h-76q-10 0 -10 10v541q0 4 -4 4h-55q-10 0 -10 10v40q0 10 10 10h55q4 0 4 4v71q0 10 10 10h76q10 0 10 -10v-71q0 -4 4 -4
h152q10 0 10 -10v-40q0 -10 -10 -10h-152q-4 0 -4 -4v-88q0 -2 1.5 -3t2.5 1q43 55 127 55z" />
    <glyph glyph-name="Itilde" unicode="&#x128;" horiz-adv-x="260" 
d="M92 0q-10 0 -10 10v680q0 10 10 10h76q10 0 10 -10v-680q0 -10 -10 -10h-76zM193 784q-19 0 -33 5t-31 15q-19 10 -28.5 14t-20.5 4q-32 0 -53 -22l-4 -4q-2 -3 -5.5 -3t-6.5 3l-28 28q-7 7 -2 14q17 26 41 40t53 14q17 0 29.5 -4.5t23.5 -10.5t15 -8t14.5 -8t19 -8.5
t16.5 -2.5q31 0 52 27q6 10 14 2l25 -28q3 -4 3.5 -7t-1.5 -7q-12 -25 -37.5 -39t-55.5 -14z" />
    <glyph glyph-name="itilde" unicode="&#x129;" horiz-adv-x="221" 
d="M72 0q-10 0 -10 10v489q0 10 10 10h76q10 0 10 -10v-489q0 -10 -10 -10h-76zM173 593q-19 0 -33 5t-31 15q-19 10 -28.5 14t-20.5 4q-32 0 -53 -22l-4 -4q-2 -3 -5.5 -3t-6.5 3l-28 28q-7 7 -2 14q17 26 41 40t53 14q17 0 29.5 -4.5t23.5 -10.5t15 -8t14.5 -8t19 -8.5
t16.5 -2.5q31 0 52 27q6 10 14 2l25 -28q3 -4 3.5 -7t-1.5 -7q-12 -25 -37.5 -39t-55.5 -14z" />
    <glyph glyph-name="Imacron" unicode="&#x12a;" horiz-adv-x="260" 
d="M92 0q-10 0 -10 10v680q0 10 10 10h76q10 0 10 -10v-680q0 -10 -10 -10h-76zM2 779q-10 0 -10 10v47q0 10 10 10h258q10 0 10 -10v-47q0 -10 -10 -10h-258z" />
    <glyph glyph-name="imacron" unicode="&#x12b;" horiz-adv-x="221" 
d="M72 0q-10 0 -10 10v489q0 10 10 10h76q10 0 10 -10v-489q0 -10 -10 -10h-76zM-18 588q-10 0 -10 10v47q0 10 10 10h258q10 0 10 -10v-47q0 -10 -10 -10h-258z" />
    <glyph glyph-name="ibreve" unicode="&#x12d;" horiz-adv-x="221" 
d="M72 0q-10 0 -10 10v489q0 10 10 10h76q10 0 10 -10v-489q0 -10 -10 -10h-76zM110 576q-55 0 -93 30t-42 75v2q0 8 9 8l40 -1q9 0 11 -9q4 -25 25 -40.5t50 -15.5t50.5 15.5t25.5 40.5q1 10 11 10h39q10 0 9 -9q-3 -45 -41.5 -75.5t-93.5 -30.5z" />
    <glyph glyph-name="Iogonek" unicode="&#x12e;" horiz-adv-x="242" 
d="M83 0q-10 0 -10 10v680q0 10 10 10h76q10 0 10 -10v-680q0 -10 -10 -10h-76zM185 -172q0 -6 -7 -9q-25 -7 -49 -7q-32 0 -57 14t-33 47q-3 10 -3 22q0 55 59 101q5 4 13 4h41q8 0 8 -5q0 -4 -4 -7q-50 -40 -50 -78q0 -21 12.5 -31.5t31.5 -10.5q10 0 21 3l4 1q6 0 8 -8
l5 -33v-3z" />
    <glyph glyph-name="iogonek" unicode="&#x12f;" horiz-adv-x="277" 
d="M110 0q-10 0 -10 10v489q0 10 10 10h76q10 0 10 -10v-489q0 -10 -10 -10h-76zM149 589q-28 0 -46 18t-18 46t18 46t46 18t46 -18t18 -46t-18 -46t-46 -18zM212 -172q0 -6 -7 -9q-25 -7 -49 -7q-32 0 -57 14t-33 47q-3 10 -3 22q0 55 59 101q5 4 13 4h41q8 0 8 -5
q0 -4 -4 -7q-50 -40 -50 -78q0 -21 12.5 -31.5t31.5 -10.5q10 0 21 3l4 1q6 0 8 -8l5 -33v-3z" />
    <glyph glyph-name="Idotaccent" unicode="&#x130;" horiz-adv-x="260" 
d="M92 0q-10 0 -10 10v680q0 10 10 10h76q10 0 10 -10v-680q0 -10 -10 -10h-76zM130 780q-28 0 -46 18t-18 46t18 46t46 18t46 -18t18 -46t-18 -46t-46 -18z" />
    <glyph glyph-name="dotlessi" unicode="&#x131;" horiz-adv-x="221" 
d="M72 0q-10 0 -10 10v489q0 10 10 10h76q10 0 10 -10v-489q0 -10 -10 -10h-76z" />
    <glyph glyph-name="ij" unicode="&#x133;" horiz-adv-x="493" 
d="M128 589q-28 0 -46 18t-18 46t18 46t46 18t46 -18t18 -46t-18 -46t-46 -18zM88 1q-10 0 -10 10v488q0 10 10 10h76q10 0 10 -10v-488q0 -10 -10 -10h-76zM366 589q-28 0 -46 18t-18 46t18 46t46 18q29 0 46.5 -17.5t17.5 -46.5q0 -28 -18 -46t-46 -18zM211 -207
q-10 0 -10 10v62q0 10 10 10q57 0 82.5 23t25.5 73l-1 528q0 10 10 10h76q10 0 10 -10v-527q0 -66 -20 -105t-64 -57t-119 -17z" />
    <glyph glyph-name="Jcircumflex" unicode="&#x134;" horiz-adv-x="579" 
d="M261 -8q-71 0 -124.5 27t-82.5 76t-29 113v71q0 10 10 10h76q10 0 10 -10v-71q0 -60 38 -96.5t102 -36.5q62 0 101 36.5t39 96.5v482q0 10 10 10h76q10 0 10 -10v-482q0 -64 -29.5 -113t-83.5 -76t-123 -27zM321 765q-6 0 -8 3.5t2 8.5l79 109q4 6 13 6h85q9 0 13 -6
l79 -109q2 -2 2 -6q0 -2 -2 -4t-6 -2h-59q-8 0 -12 6l-53 76q-1 2 -3 2t-3 -2l-55 -76q-4 -6 -12 -6h-60z" />
    <glyph glyph-name="jcircumflex" unicode="&#x135;" horiz-adv-x="247" 
d="M-34 -207q-10 0 -10 10v62q0 10 10 10q57 0 82.5 23t25.5 73l-1 528q0 10 10 10h77q10 0 10 -10v-527q0 -66 -20 -105t-64.5 -57t-119.5 -17zM-7 573q-6 0 -8 3.5t2 8.5l79 109q4 6 13 6h85q9 0 13 -6l79 -109q2 -2 2 -6q0 -2 -2 -4t-6 -2h-59q-8 0 -12 6l-53 76
q-1 2 -3 2t-3 -2l-55 -76q-4 -6 -12 -6h-60z" />
    <glyph glyph-name="uni0136" unicode="&#x136;" horiz-adv-x="616" 
d="M92 0q-10 0 -10 10v680q0 10 10 10h76q10 0 10 -10v-319q0 -2 2 -2.5t3 1.5l286 324q4 6 12 6h87q6 0 8 -3.5t-2 -8.5l-238 -281q-1 -3 0 -6l255 -389q2 -4 2 -6q0 -6 -8 -6h-87q-7 0 -12 6l-216 327q-1 2 -3 2t-3 -1l-84 -94q-2 -4 -2 -5v-225q0 -10 -10 -10h-76z
M241 -185q-6 0 -8.5 3.5t0.5 8.5l59 108q3 7 12 7h67q6 0 7.5 -3.5t-1.5 -8.5l-71 -108q-5 -7 -12 -7h-53z" />
    <glyph glyph-name="uni0137" unicode="&#x137;" horiz-adv-x="512" 
d="M80 0q-10 0 -10 10v680q0 10 10 10h76q10 0 10 -10v-385q0 -2 2 -3t3 1l185 201q4 5 12 5h89q6 0 7.5 -3.5t-2.5 -8.5l-129 -149q-2 -4 -1 -6l153 -330l1 -4q0 -8 -9 -8h-80q-8 0 -11 8l-119 272q-2 5 -5 1l-94 -104q-2 -4 -2 -5v-162q0 -10 -10 -10h-76zM195 -185
q-6 0 -8.5 3.5t0.5 8.5l59 108q3 7 12 7h67q6 0 7.5 -3.5t-1.5 -8.5l-71 -108q-5 -7 -12 -7h-53z" />
    <glyph glyph-name="Lacute" unicode="&#x139;" horiz-adv-x="570" 
d="M92 0q-10 0 -10 10v680q0 10 10 10h76q10 0 10 -10v-603q0 -4 4 -4h345q10 0 10 -10v-63q0 -10 -10 -10h-435zM88 764q-6 0 -8.5 3.5t0.5 8.5l59 108q3 7 12 7h67q6 0 7.5 -3.5t-1.5 -8.5l-71 -108q-5 -7 -12 -7h-53z" />
    <glyph glyph-name="lacute" unicode="&#x13a;" horiz-adv-x="235" 
d="M80 0q-10 0 -10 10v680q0 10 10 10h76q10 0 10 -10v-680q0 -10 -10 -10h-76zM77 764q-6 0 -8.5 3.5t0.5 8.5l59 108q3 7 12 7h67q6 0 7.5 -3.5t-1.5 -8.5l-71 -108q-5 -7 -12 -7h-53z" />
    <glyph glyph-name="uni013B" unicode="&#x13b;" horiz-adv-x="570" 
d="M92 0q-10 0 -10 10v680q0 10 10 10h76q10 0 10 -10v-603q0 -4 4 -4h345q10 0 10 -10v-63q0 -10 -10 -10h-435zM208 -185q-6 0 -8.5 3.5t0.5 8.5l59 108q3 7 12 7h67q6 0 7.5 -3.5t-1.5 -8.5l-71 -108q-5 -7 -12 -7h-53z" />
    <glyph glyph-name="uni013C" unicode="&#x13c;" horiz-adv-x="235" 
d="M80 0q-10 0 -10 10v680q0 10 10 10h76q10 0 10 -10v-680q0 -10 -10 -10h-76zM17 -185q-6 0 -8.5 3.5t0.5 8.5l59 108q3 7 12 7h67q6 0 7.5 -3.5t-1.5 -8.5l-71 -108q-5 -7 -12 -7h-53z" />
    <glyph glyph-name="Lcaron" unicode="&#x13d;" horiz-adv-x="570" 
d="M92 0q-10 0 -10 10v680q0 10 10 10h76q10 0 10 -10v-603q0 -4 4 -4h345q10 0 10 -10v-63q0 -10 -10 -10h-435zM269 573q-6 0 -8.5 3.5t0.5 8.5l59 108q3 7 12 7h67q6 0 7.5 -3.5t-1.5 -8.5l-71 -108q-5 -7 -12 -7h-53z" />
    <glyph glyph-name="lcaron" unicode="&#x13e;" horiz-adv-x="387" 
d="M80 0q-10 0 -10 10v680q0 10 10 10h76q10 0 10 -10v-680q0 -10 -10 -10h-76zM215 573q-6 0 -8.5 3.5t0.5 8.5l59 108q3 7 12 7h67q6 0 7.5 -3.5t-1.5 -8.5l-71 -108q-5 -7 -12 -7h-53z" />
    <glyph glyph-name="ldot" unicode="&#x140;" horiz-adv-x="268" 
d="M96 0q-10 0 -10 10v680q0 10 10 10h76q10 0 10 -10v-680q0 -10 -10 -10h-76zM135 780q-28 0 -46 18t-18 46t18 46t46 18t46 -18t18 -46t-18 -46t-46 -18z" />
    <glyph glyph-name="Lslash" unicode="&#x141;" horiz-adv-x="616" 
d="M225 87q0 -4 4 -4h345q10 0 10 -10v-63q0 -10 -10 -10h-435q-10 0 -10 10v219q0 2 -1.5 3t-3.5 -1l-93 -73q-2 -2 -6 -2q-5 0 -8 4l-35 41q-3 3 -3 7t4 7l144 113q2 2 2 5v357q0 10 10 10h76q10 0 10 -10v-279q0 -2 1.5 -3t3.5 1l210 165q2 2 6 2q5 0 8 -4l35 -42
q3 -3 3 -7t-4 -7l-261 -204q-2 -2 -2 -5v-220z" />
    <glyph glyph-name="lslash" unicode="&#x142;" horiz-adv-x="375" 
d="M351 414q1 -2 1 -5q0 -6 -5 -9l-115 -66q-3 -1 -3 -5v-319q0 -10 -10 -10h-76q-10 0 -10 10v261q0 2 -1.5 3t-3.5 0l-66 -38q-2 -1 -5 -1q-6 0 -9 5l-24 45q-1 2 -1 5q0 6 5 9l102 59q3 2 3 5v327q0 10 10 10h76q10 0 10 -10v-268q0 -2 1.5 -3t3.5 0l77 45q2 1 5 1
q6 0 9 -5z" />
    <glyph glyph-name="Nacute" unicode="&#x143;" horiz-adv-x="672" 
d="M494 690q0 10 10 10h76q10 0 10 -10v-680q0 -10 -10 -10h-73q-7 0 -12 7l-313 511q-1 3 -3 2.5t-2 -3.5l1 -507q0 -10 -10 -10h-76q-10 0 -10 10v680q0 10 10 10h74q7 0 12 -7l312 -511q1 -3 3 -2.5t2 3.5zM291 764q-6 0 -8.5 3.5t0.5 8.5l59 108q3 7 12 7h67
q6 0 7.5 -3.5t-1.5 -8.5l-71 -108q-5 -7 -12 -7h-53z" />
    <glyph glyph-name="nacute" unicode="&#x144;" horiz-adv-x="542" 
d="M297 516q82 0 130 -47.5t48 -128.5v-330q0 -10 -10 -10h-76q-10 0 -10 10v311q0 50 -29 81t-77 31q-47 0 -77 -31t-30 -80v-312q0 -10 -10 -10h-76q-10 0 -10 10v489q0 10 10 10h76q10 0 10 -10v-36q0 -2 1.5 -3t2.5 1q43 55 127 55zM232 573q-6 0 -8.5 3.5t0.5 8.5
l59 108q3 7 12 7h67q6 0 7.5 -3.5t-1.5 -8.5l-71 -108q-5 -7 -12 -7h-53z" />
    <glyph glyph-name="uni0145" unicode="&#x145;" horiz-adv-x="672" 
d="M494 690q0 10 10 10h76q10 0 10 -10v-680q0 -10 -10 -10h-73q-7 0 -12 7l-313 511q-1 3 -3 2.5t-2 -3.5l1 -507q0 -10 -10 -10h-76q-10 0 -10 10v680q0 10 10 10h74q7 0 12 -7l312 -511q1 -3 3 -2.5t2 3.5zM262 -185q-6 0 -8.5 3.5t0.5 8.5l59 108q3 7 12 7h67
q6 0 7.5 -3.5t-1.5 -8.5l-71 -108q-5 -7 -12 -7h-53z" />
    <glyph glyph-name="uni0146" unicode="&#x146;" horiz-adv-x="542" 
d="M297 516q82 0 130 -47.5t48 -128.5v-330q0 -10 -10 -10h-76q-10 0 -10 10v311q0 50 -29 81t-77 31q-47 0 -77 -31t-30 -80v-312q0 -10 -10 -10h-76q-10 0 -10 10v489q0 10 10 10h76q10 0 10 -10v-36q0 -2 1.5 -3t2.5 1q43 55 127 55zM202 -185q-6 0 -8.5 3.5t0.5 8.5
l59 108q3 7 12 7h67q6 0 7.5 -3.5t-1.5 -8.5l-71 -108q-5 -7 -12 -7h-53z" />
    <glyph glyph-name="Ncaron" unicode="&#x147;" horiz-adv-x="672" 
d="M494 690q0 10 10 10h76q10 0 10 -10v-680q0 -10 -10 -10h-73q-7 0 -12 7l-313 511q-1 3 -3 2.5t-2 -3.5l1 -507q0 -10 -10 -10h-76q-10 0 -10 10v680q0 10 10 10h74q7 0 12 -7l312 -511q1 -3 3 -2.5t2 3.5zM201 879q-2 2 -2 6q0 2 2 4t6 2h60q8 0 12 -6l55 -76q1 -1 3 -1
t3 1l53 76q4 6 12 6h59q6 0 8 -3.5t-2 -8.5l-79 -109q-4 -6 -13 -6h-85q-9 0 -13 6z" />
    <glyph glyph-name="ncaron" unicode="&#x148;" horiz-adv-x="542" 
d="M297 516q82 0 130 -47.5t48 -128.5v-330q0 -10 -10 -10h-76q-10 0 -10 10v311q0 50 -29 81t-77 31q-47 0 -77 -31t-30 -80v-312q0 -10 -10 -10h-76q-10 0 -10 10v489q0 10 10 10h76q10 0 10 -10v-36q0 -2 1.5 -3t2.5 1q43 55 127 55zM143 688q-2 2 -2 6q0 2 2 4t6 2h60
q8 0 12 -6l55 -76q1 -1 3 -1t3 1l53 76q4 6 12 6h59q6 0 8 -3.5t-2 -8.5l-79 -109q-4 -6 -13 -6h-85q-9 0 -13 6z" />
    <glyph glyph-name="Eng" unicode="&#x14a;" horiz-adv-x="672" 
d="M494 690q0 10 10 10h76q10 0 10 -10v-690q-2 -62 -20 -98.5t-59 -53t-114 -15.5q-10 0 -10 10v62q0 10 14 10q51 0 71.5 21.5t21.5 68.5q0 4 -1 5l-311 508q-1 3 -3 2.5t-2 -3.5l1 -507q0 -10 -10 -10h-76q-10 0 -10 10v680q0 10 10 10h74q7 0 12 -7l311 -510
q1 -3 3 -2.5t2 3.5v506z" />
    <glyph glyph-name="eng" unicode="&#x14b;" horiz-adv-x="542" 
d="M475 212q0 -1 2 -5q2 -2 2 -8v-199q0 -63 -15.5 -101t-55 -57.5t-110.5 -20.5q-10 0 -10 10v58q0 10 10 10q45 3 65 27t20 71v0q0 1 -2 5q-2 2 -2 8v311q0 50 -29 81t-77 31q-47 0 -77 -31t-30 -80v-312q0 -10 -10 -10h-76q-10 0 -10 10v489q0 10 10 10h76q10 0 10 -10
v-36q0 -2 1.5 -2.5t3.5 1.5q42 54 126 54q82 0 130 -47.5t48 -128.5v-128z" />
    <glyph glyph-name="Omacron" unicode="&#x14c;" horiz-adv-x="622" 
d="M310 -9q-73 0 -129 30t-87 84.5t-31 125.5v238q0 71 31 125t87 84t129 30q74 0 130 -30t87 -84t31 -125v-238q0 -71 -31 -125.5t-87 -84.5t-130 -30zM310 74q68 0 110 42t42 111v243q0 70 -42 112.5t-110 42.5t-109.5 -42.5t-41.5 -112.5v-243q0 -69 41.5 -111t109.5 -42
zM182 779q-10 0 -10 10v47q0 10 10 10h258q10 0 10 -10v-47q0 -10 -10 -10h-258z" />
    <glyph glyph-name="omacron" unicode="&#x14d;" 
d="M278 -8q-74 0 -129 37.5t-77 104.5q-18 54 -18 122q0 71 17 120q22 66 77 103.5t131 37.5q72 0 125.5 -37.5t76.5 -102.5q18 -51 18 -120q0 -70 -18 -123q-22 -67 -76 -104.5t-127 -37.5zM278 75q40 0 70 22.5t43 63.5q11 38 11 94t-10 93q-13 41 -43 63.5t-73 22.5
q-41 0 -71 -22.5t-43 -63.5q-11 -35 -11 -93t11 -94q12 -41 42.5 -63.5t73.5 -22.5zM142 588q-10 0 -10 10v47q0 10 10 10h258q10 0 10 -10v-47q0 -10 -10 -10h-258z" />
    <glyph glyph-name="obreve" unicode="&#x14f;" 
d="M278 -8q-74 0 -129 37.5t-77 104.5q-18 54 -18 122q0 71 17 120q22 66 77 103.5t131 37.5q72 0 125.5 -37.5t76.5 -102.5q18 -51 18 -120q0 -70 -18 -123q-22 -67 -76 -104.5t-127 -37.5zM278 75q40 0 70 22.5t43 63.5q11 38 11 94t-10 93q-13 41 -43 63.5t-73 22.5
q-41 0 -71 -22.5t-43 -63.5q-11 -35 -11 -93t11 -94q12 -41 42.5 -63.5t73.5 -22.5zM270 576q-55 0 -93 30t-42 75v2q0 8 9 8l40 -1q9 0 11 -9q4 -25 25 -40.5t50 -15.5t50.5 15.5t25.5 40.5q1 10 11 10h39q10 0 9 -9q-3 -45 -41.5 -75.5t-93.5 -30.5z" />
    <glyph glyph-name="Ohungarumlaut" unicode="&#x150;" horiz-adv-x="622" 
d="M310 -9q-73 0 -129 30t-87 84.5t-31 125.5v238q0 71 31 125t87 84t129 30q74 0 130 -30t87 -84t31 -125v-238q0 -71 -31 -125.5t-87 -84.5t-130 -30zM310 74q68 0 110 42t42 111v243q0 70 -42 112.5t-110 42.5t-109.5 -42.5t-41.5 -112.5v-243q0 -69 41.5 -111t109.5 -42
zM194 764q-5 0 -7 3.5t0 8.5l53 108q3 7 12 7h68q6 0 8.5 -3.5t-0.5 -8.5l-59 -108q-3 -7 -12 -7h-63zM363 764q-6 0 -8.5 3.5t0.5 8.5l58 108q3 7 12 7h64q6 0 8 -3.5t-1 -8.5l-59 -108q-3 -7 -12 -7h-62z" />
    <glyph glyph-name="ohungarumlaut" unicode="&#x151;" 
d="M278 -8q-74 0 -129 37.5t-77 104.5q-18 54 -18 122q0 71 17 120q22 66 77 103.5t131 37.5q72 0 125.5 -37.5t76.5 -102.5q18 -51 18 -120q0 -70 -18 -123q-22 -67 -76 -104.5t-127 -37.5zM278 75q40 0 70 22.5t43 63.5q11 38 11 94t-10 93q-13 41 -43 63.5t-73 22.5
q-41 0 -71 -22.5t-43 -63.5q-11 -35 -11 -93t11 -94q12 -41 42.5 -63.5t73.5 -22.5zM154 573q-5 0 -7 3.5t0 8.5l53 108q3 7 12 7h68q6 0 8.5 -3.5t-0.5 -8.5l-59 -108q-3 -7 -12 -7h-63zM323 573q-6 0 -8.5 3.5t0.5 8.5l58 108q3 7 12 7h64q6 0 8 -3.5t-1 -8.5l-59 -108
q-3 -7 -12 -7h-62z" />
    <glyph glyph-name="OE" unicode="&#x152;" horiz-adv-x="924" 
d="M873 627q0 -10 -10 -10h-323q-4 0 -4 -4v-215q0 -4 4 -4h212q10 0 10 -10v-63q0 -10 -10 -10h-212q-4 0 -4 -4v-220q0 -4 4 -4h323q10 0 10 -10v-63q0 -10 -10 -10h-413q-10 0 -10 10v38q0 2 -1.5 3t-3.5 -1q-31 -28 -71.5 -43.5t-86.5 -15.5q-60 0 -109 29t-77 81
t-28 118v261q0 66 28 118t77 81t109 29q46 0 86.5 -15t71.5 -44q2 -2 3.5 -1t1.5 3v39q0 10 10 10h413q10 0 10 -10v-63zM299 74q63 0 102 40t39 102v265q0 63 -39 103.5t-102 40.5q-62 0 -101 -40.5t-39 -103.5v-265q0 -62 39 -102t101 -40z" />
    <glyph glyph-name="oe" unicode="&#x153;" horiz-adv-x="863" 
d="M616 73q35 0 65.5 18t46.5 47q7 10 14 4l47 -34q4 -2 4.5 -6t-1.5 -8q-28 -48 -76 -75t-111 -27q-54 0 -97 21.5t-72 59.5q-3 5 -6 0q-29 -38 -71 -59.5t-93 -21.5q-72 0 -125 38.5t-74 103.5q-12 42 -12 122q0 42 2.5 69.5t9.5 50.5q20 64 73 102.5t126 38.5
q49 0 92 -21.5t72 -58.5q3 -4 6 0q29 37 71 58.5t91 21.5q74 0 128.5 -39t73.5 -103q6 -21 9 -53t3 -89q0 -10 -10 -10h-314q-4 0 -4 -4q2 -40 7 -58q10 -41 42 -64.5t83 -23.5zM373 161q8 27 8 95t-8 93q-8 38 -37 61.5t-70 23.5t-69.5 -23.5t-37.5 -61.5q-8 -27 -8 -93
q0 -65 9 -95q8 -40 36.5 -63t69.5 -23t70 23.5t37 62.5zM599 434q-42 0 -70.5 -23.5t-37.5 -62.5q-4 -19 -6 -54q0 -4 4 -4h222q4 0 4 4q-2 42 -6 54q-9 39 -38.5 62.5t-71.5 23.5z" />
    <glyph glyph-name="Racute" unicode="&#x154;" horiz-adv-x="613" 
d="M481 0q-8 0 -11 7l-140 299q-1 3 -4 3h-144q-4 0 -4 -4v-295q0 -10 -10 -10h-76q-10 0 -10 10v680q0 10 10 10h269q60 0 105.5 -25t70.5 -70t25 -104q0 -70 -36.5 -118.5t-101.5 -65.5q-4 -2 -2 -5l145 -300q1 -2 1 -5q0 -7 -8 -7h-79zM182 617q-4 0 -4 -4v-224
q0 -4 4 -4h167q53 0 85 31.5t32 83.5q0 53 -32 85t-85 32h-167zM252 764q-6 0 -8.5 3.5t0.5 8.5l59 108q3 7 12 7h67q6 0 7.5 -3.5t-1.5 -8.5l-71 -108q-5 -7 -12 -7h-53z" />
    <glyph glyph-name="racute" unicode="&#x155;" horiz-adv-x="371" 
d="M293 514q32 0 58 -13q7 -3 5 -12l-16 -75q-1 -9 -12 -6q-17 7 -40 7l-14 -1q-47 -2 -77.5 -32.5t-30.5 -79.5v-292q0 -10 -10 -10h-76q-10 0 -10 10v489q0 10 10 10h76q10 0 10 -10v-53q0 -3 1.5 -3.5t2.5 1.5q45 70 123 70zM174 573q-6 0 -8.5 3.5t0.5 8.5l59 108
q3 7 12 7h67q6 0 7.5 -3.5t-1.5 -8.5l-71 -108q-5 -7 -12 -7h-53z" />
    <glyph glyph-name="uni0156" unicode="&#x156;" horiz-adv-x="613" 
d="M481 0q-8 0 -11 7l-140 299q-1 3 -4 3h-144q-4 0 -4 -4v-295q0 -10 -10 -10h-76q-10 0 -10 10v680q0 10 10 10h269q60 0 105.5 -25t70.5 -70t25 -104q0 -70 -36.5 -118.5t-101.5 -65.5q-4 -2 -2 -5l145 -300q1 -2 1 -5q0 -7 -8 -7h-79zM182 617q-4 0 -4 -4v-224
q0 -4 4 -4h167q53 0 85 31.5t32 83.5q0 53 -32 85t-85 32h-167zM232 -185q-6 0 -8.5 3.5t0.5 8.5l59 108q3 7 12 7h67q6 0 7.5 -3.5t-1.5 -8.5l-71 -108q-5 -7 -12 -7h-53z" />
    <glyph glyph-name="uni0157" unicode="&#x157;" horiz-adv-x="371" 
d="M293 514q32 0 58 -13q7 -3 5 -12l-16 -75q-1 -9 -12 -6q-17 7 -40 7l-14 -1q-47 -2 -77.5 -32.5t-30.5 -79.5v-292q0 -10 -10 -10h-76q-10 0 -10 10v489q0 10 10 10h76q10 0 10 -10v-53q0 -3 1.5 -3.5t2.5 1.5q45 70 123 70zM13 -185q-6 0 -8.5 3.5t0.5 8.5l59 108
q3 7 12 7h67q6 0 7.5 -3.5t-1.5 -8.5l-71 -108q-5 -7 -12 -7h-53z" />
    <glyph glyph-name="Rcaron" unicode="&#x158;" horiz-adv-x="613" 
d="M481 0q-8 0 -11 7l-140 299q-1 3 -4 3h-144q-4 0 -4 -4v-295q0 -10 -10 -10h-76q-10 0 -10 10v680q0 10 10 10h269q60 0 105.5 -25t70.5 -70t25 -104q0 -70 -36.5 -118.5t-101.5 -65.5q-4 -2 -2 -5l145 -300q1 -2 1 -5q0 -7 -8 -7h-79zM182 617q-4 0 -4 -4v-224
q0 -4 4 -4h167q53 0 85 31.5t32 83.5q0 53 -32 85t-85 32h-167zM163 879q-2 2 -2 6q0 2 2 4t6 2h60q8 0 12 -6l55 -76q1 -1 3 -1t3 1l53 76q4 6 12 6h59q6 0 8 -3.5t-2 -8.5l-79 -109q-4 -6 -13 -6h-85q-9 0 -13 6z" />
    <glyph glyph-name="rcaron" unicode="&#x159;" horiz-adv-x="371" 
d="M293 514q32 0 58 -13q7 -3 5 -12l-16 -75q-1 -9 -12 -6q-17 7 -40 7l-14 -1q-47 -2 -77.5 -32.5t-30.5 -79.5v-292q0 -10 -10 -10h-76q-10 0 -10 10v489q0 10 10 10h76q10 0 10 -10v-53q0 -3 1.5 -3.5t2.5 1.5q45 70 123 70zM85 688q-2 2 -2 6q0 2 2 4t6 2h60q8 0 12 -6
l55 -76q1 -1 3 -1t3 1l53 76q4 6 12 6h59q6 0 8 -3.5t-2 -8.5l-79 -109q-4 -6 -13 -6h-85q-9 0 -13 6z" />
    <glyph glyph-name="Sacute" unicode="&#x15a;" horiz-adv-x="588" 
d="M298 -8q-77 0 -133.5 24t-87 68t-30.5 103v29q0 10 10 10h73q10 0 10 -10v-24q0 -51 44 -84t121 -33q69 0 104 29t35 76q0 31 -18 53t-52.5 40.5t-100.5 44.5q-73 28 -115.5 51t-70.5 60.5t-28 94.5q0 86 61.5 135t166.5 49q74 0 130 -25t86.5 -70t30.5 -104v-20
q0 -10 -10 -10h-75q-10 0 -10 10v15q0 52 -41.5 86.5t-114.5 34.5q-62 0 -96 -25.5t-34 -73.5q0 -33 17 -54t50.5 -37.5t102.5 -42.5q71 -28 115 -51.5t73 -62t29 -95.5q0 -88 -64.5 -139.5t-177.5 -51.5zM248 764q-6 0 -8.5 3.5t0.5 8.5l59 108q3 7 12 7h67q6 0 7.5 -3.5
t-1.5 -8.5l-71 -108q-5 -7 -12 -7h-53z" />
    <glyph glyph-name="sacute" unicode="&#x15b;" horiz-adv-x="491" 
d="M249 -6q-60 0 -105.5 18t-70.5 49.5t-25 69.5v11q0 10 10 10h72q10 0 10 -10v-5q0 -28 30.5 -49t77.5 -21q45 0 73 19.5t28 49.5q0 29 -26 43.5t-84 30.5q-57 16 -95.5 32.5t-65 47t-26.5 78.5q0 67 52.5 106.5t139.5 39.5q58 0 102.5 -18.5t68.5 -51.5t24 -74v-3
q0 -10 -10 -10h-70q-10 0 -10 10v3q0 29 -28.5 48.5t-77.5 19.5q-44 0 -71.5 -17t-27.5 -46t26.5 -44t85.5 -32q58 -16 96.5 -31.5t65.5 -46t27 -79.5q0 -68 -53.5 -108t-142.5 -40zM204 573q-6 0 -8.5 3.5t0.5 8.5l59 108q3 7 12 7h67q6 0 7.5 -3.5t-1.5 -8.5l-71 -108
q-5 -7 -12 -7h-53z" />
    <glyph glyph-name="Scircumflex" unicode="&#x15c;" horiz-adv-x="588" 
d="M298 -8q-77 0 -133.5 24t-87 68t-30.5 103v29q0 10 10 10h73q10 0 10 -10v-24q0 -51 44 -84t121 -33q69 0 104 29t35 76q0 31 -18 53t-52.5 40.5t-100.5 44.5q-73 28 -115.5 51t-70.5 60.5t-28 94.5q0 86 61.5 135t166.5 49q74 0 130 -25t86.5 -70t30.5 -104v-20
q0 -10 -10 -10h-75q-10 0 -10 10v15q0 52 -41.5 86.5t-114.5 34.5q-62 0 -96 -25.5t-34 -73.5q0 -33 17 -54t50.5 -37.5t102.5 -42.5q71 -28 115 -51.5t73 -62t29 -95.5q0 -88 -64.5 -139.5t-177.5 -51.5zM161 764q-6 0 -8 3.5t2 8.5l79 109q4 6 13 6h85q9 0 13 -6l79 -109
q2 -2 2 -6q0 -2 -2 -4t-6 -2h-59q-8 0 -12 6l-53 76q-1 2 -3 2t-3 -2l-55 -76q-4 -6 -12 -6h-60z" />
    <glyph glyph-name="scircumflex" unicode="&#x15d;" horiz-adv-x="491" 
d="M249 -6q-60 0 -105.5 18t-70.5 49.5t-25 69.5v11q0 10 10 10h72q10 0 10 -10v-5q0 -28 30.5 -49t77.5 -21q45 0 73 19.5t28 49.5q0 29 -26 43.5t-84 30.5q-57 16 -95.5 32.5t-65 47t-26.5 78.5q0 67 52.5 106.5t139.5 39.5q58 0 102.5 -18.5t68.5 -51.5t24 -74v-3
q0 -10 -10 -10h-70q-10 0 -10 10v3q0 29 -28.5 48.5t-77.5 19.5q-44 0 -71.5 -17t-27.5 -46t26.5 -44t85.5 -32q58 -16 96.5 -31.5t65.5 -46t27 -79.5q0 -68 -53.5 -108t-142.5 -40zM117 573q-6 0 -8 3.5t2 8.5l79 109q4 6 13 6h85q9 0 13 -6l79 -109q2 -2 2 -6q0 -2 -2 -4
t-6 -2h-59q-8 0 -12 6l-53 76q-1 2 -3 2t-3 -2l-55 -76q-4 -6 -12 -6h-60z" />
    <glyph glyph-name="Scedilla" unicode="&#x15e;" horiz-adv-x="588" 
d="M540 183q0 -80 -53.5 -130.5t-149.5 -58.5q-7 -2 -2 -5q47 -44 47 -90q0 -12 -3 -24q-8 -33 -32 -47t-56 -14q-28 0 -50 8q-9 3 -8 12l5 33q1 4 4 6.5t8 1.5q16 -4 23 -4q19 0 31 10.5t12 30.5q0 39 -52 79q-1 2 -5 2q-99 10 -155.5 62t-56.5 132v29q0 10 10 10h73
q10 0 10 -10v-24q0 -51 44 -84t121 -33q69 0 104 29t35 76q0 31 -18 53t-52.5 40.5t-100.5 44.5q-73 28 -115.5 51t-70.5 60.5t-28 94.5q0 86 61.5 135t166.5 49q74 0 130 -25t86.5 -70t30.5 -104v-20q0 -10 -10 -10h-75q-10 0 -10 10v15q0 52 -41.5 86.5t-114.5 34.5
q-62 0 -96 -25.5t-34 -73.5q0 -33 17 -54t50.5 -37.5t102.5 -42.5q71 -28 115 -51.5t73 -62t29 -95.5z" />
    <glyph glyph-name="scedilla" unicode="&#x15f;" horiz-adv-x="491" 
d="M445 142q0 -59 -41 -97.5t-112 -47.5q-6 -2 -1 -5q49 -43 49 -91q0 -11 -3 -23q-8 -33 -33 -47.5t-57 -14.5q-21 0 -49 8q-9 3 -7 12l5 33q1 5 4.5 6.5t7.5 0.5q10 -3 22 -3q19 0 31 10.5t12 31.5q0 19 -13.5 39t-37.5 39q-1 2 -5 2q-76 7 -122.5 45.5t-46.5 90.5v11
q0 10 10 10h72q10 0 10 -10v-5q0 -28 30.5 -49t77.5 -21q45 0 73 19.5t28 49.5q0 29 -26 43.5t-84 30.5q-57 16 -95.5 32.5t-65 47t-26.5 78.5q0 67 52.5 106.5t139.5 39.5q58 0 102.5 -18.5t68.5 -51.5t24 -74v-3q0 -10 -10 -10h-70q-10 0 -10 10v3q0 29 -28.5 48.5
t-77.5 19.5q-44 0 -71.5 -17t-27.5 -46t26.5 -44t85.5 -32q58 -16 96.5 -31.5t65.5 -46t27 -79.5z" />
    <glyph glyph-name="Scaron" unicode="&#x160;" horiz-adv-x="588" 
d="M298 -8q-77 0 -133.5 24t-87 68t-30.5 103v29q0 10 10 10h73q10 0 10 -10v-24q0 -51 44 -84t121 -33q69 0 104 29t35 76q0 31 -18 53t-52.5 40.5t-100.5 44.5q-73 28 -115.5 51t-70.5 60.5t-28 94.5q0 86 61.5 135t166.5 49q74 0 130 -25t86.5 -70t30.5 -104v-20
q0 -10 -10 -10h-75q-10 0 -10 10v15q0 52 -41.5 86.5t-114.5 34.5q-62 0 -96 -25.5t-34 -73.5q0 -33 17 -54t50.5 -37.5t102.5 -42.5q71 -28 115 -51.5t73 -62t29 -95.5q0 -88 -64.5 -139.5t-177.5 -51.5zM158 879q-2 2 -2 6q0 2 2 4t6 2h60q8 0 12 -6l55 -76q1 -1 3 -1t3 1
l53 76q4 6 12 6h59q6 0 8 -3.5t-2 -8.5l-79 -109q-4 -6 -13 -6h-85q-9 0 -13 6z" />
    <glyph glyph-name="scaron" unicode="&#x161;" horiz-adv-x="491" 
d="M249 -6q-60 0 -105.5 18t-70.5 49.5t-25 69.5v11q0 10 10 10h72q10 0 10 -10v-5q0 -28 30.5 -49t77.5 -21q45 0 73 19.5t28 49.5q0 29 -26 43.5t-84 30.5q-57 16 -95.5 32.5t-65 47t-26.5 78.5q0 67 52.5 106.5t139.5 39.5q58 0 102.5 -18.5t68.5 -51.5t24 -74v-3
q0 -10 -10 -10h-70q-10 0 -10 10v3q0 29 -28.5 48.5t-77.5 19.5q-44 0 -71.5 -17t-27.5 -46t26.5 -44t85.5 -32q58 -16 96.5 -31.5t65.5 -46t27 -79.5q0 -68 -53.5 -108t-142.5 -40zM115 688q-2 2 -2 6q0 2 2 4t6 2h60q8 0 12 -6l55 -76q1 -1 3 -1t3 1l53 76q4 6 12 6h59
q6 0 8 -3.5t-2 -8.5l-79 -109q-4 -6 -13 -6h-85q-9 0 -13 6z" />
    <glyph glyph-name="uni0162" unicode="&#x162;" horiz-adv-x="574" 
d="M527 700q10 0 10 -10v-64q0 -10 -10 -10h-192q-4 0 -4 -4v-602q0 -10 -10 -10h-76q-10 0 -10 10v602q0 4 -4 4h-183q-10 0 -10 10v64q0 10 10 10h479zM254 -181q-9 3 -7 12l5 33q1 5 4.5 6.5t8.5 0.5q11 -3 21 -3q19 0 31 10.5t12 31.5q0 38 -50 78q-4 3 -4 7q0 5 8 5h41
q8 0 13 -4q59 -47 59 -100q0 -13 -3 -23q-8 -33 -33 -47t-57 -14q-24 0 -49 7z" />
    <glyph glyph-name="uni0163" unicode="&#x163;" horiz-adv-x="369" 
d="M290 -1q-6 -2 -2 -6q38 -37 38 -80q0 -11 -3 -23q-8 -33 -33 -47t-57 -14q-24 0 -49 7q-9 3 -7 12l5 34q1 5 4.5 6.5t7.5 0.5q11 -3 22 -3q16 0 27.5 7.5t14.5 23.5q1 4 1 11q0 17 -11.5 35.5t-31.5 34.5q-1 2 -5 2q-51 8 -77.5 37t-26.5 90v299q0 4 -4 4h-61
q-10 0 -10 10v59q0 10 10 10h61q4 0 4 4v118q0 10 10 10h72q10 0 10 -10v-118q0 -4 4 -4h108q10 0 10 -10v-59q0 -10 -10 -10h-108q-4 0 -4 -4v-265q0 -42 19 -60.5t59 -18.5h29q10 0 10 -10v-62q0 -10 -10 -11h-16z" />
    <glyph glyph-name="Tcaron" unicode="&#x164;" horiz-adv-x="574" 
d="M527 700q10 0 10 -10v-64q0 -10 -10 -10h-192q-4 0 -4 -4v-602q0 -10 -10 -10h-76q-10 0 -10 10v602q0 4 -4 4h-183q-10 0 -10 10v64q0 10 10 10h479zM153 877q-2 2 -2 6q0 2 2 4t6 2h60q8 0 12 -6l55 -76q1 -1 3 -1t3 1l53 76q4 6 12 6h59q6 0 8 -3.5t-2 -8.5l-79 -109
q-4 -6 -13 -6h-85q-9 0 -13 6z" />
    <glyph glyph-name="tcaron" unicode="&#x165;" horiz-adv-x="369" 
d="M321 440q0 -10 -10 -10h-108q-4 0 -4 -4v-265q0 -42 19 -60.5t59 -18.5h29q10 0 10 -10v-62q0 -10 -10 -10q-32 -2 -46 -2q-76 0 -114.5 27.5t-38.5 101.5v299q0 4 -4 4h-61q-10 0 -10 10v59q0 10 10 10h61q4 0 4 4v118q0 10 10 10h72q10 0 10 -10v-118q0 -4 4 -4h108
q10 0 10 -10v-59zM254 573q-6 0 -8.5 3.5t0.5 8.5l59 108q3 7 12 7h67q6 0 7.5 -3.5t-1.5 -8.5l-71 -108q-5 -7 -12 -7h-53z" />
    <glyph glyph-name="Tbar" unicode="&#x166;" horiz-adv-x="574" 
d="M537 626q0 -10 -10 -10h-192q-4 0 -4 -4v-193q0 -4 4 -4h106q10 0 10 -10v-40q0 -10 -10 -10h-106q-4 0 -4 -4v-341q0 -10 -10 -10h-76q-10 0 -10 10v341q0 4 -4 4h-100q-10 0 -10 10v40q0 10 10 10h100q4 0 4 4v193q0 4 -4 4h-183q-10 0 -10 10v64q0 10 10 10h479
q10 0 10 -10v-64z" />
    <glyph glyph-name="tbar" unicode="&#x167;" horiz-adv-x="369" 
d="M321 440q0 -10 -10 -10h-108q-4 0 -4 -4v-75q0 -4 4 -4h104q10 0 10 -10v-40q0 -10 -10 -10h-104q-4 0 -4 -4v-122q0 -42 19 -60.5t59 -18.5h29q10 0 10 -10v-62q0 -10 -10 -10q-32 -2 -46 -2q-76 0 -114.5 27.5t-38.5 101.5v156q0 4 -4 4h-56q-10 0 -10 10v40
q0 10 10 10h56q4 0 4 4v75q0 4 -4 4h-61q-10 0 -10 10v59q0 10 10 10h61q4 0 4 4v118q0 10 10 10h72q10 0 10 -10v-118q0 -4 4 -4h108q10 0 10 -10v-59z" />
    <glyph glyph-name="Utilde" unicode="&#x168;" horiz-adv-x="641" 
d="M321 -8q-73 0 -128.5 28.5t-86.5 81t-31 120.5v468q0 10 10 10h76q10 0 10 -10v-470q0 -65 41.5 -105t108.5 -40t108 40t41 105v470q0 10 10 10h76q10 0 10 -10v-468q0 -68 -30.5 -120.5t-86 -81t-128.5 -28.5zM384 784q-19 0 -33 5t-31 15q-19 10 -28.5 14t-20.5 4
q-32 0 -53 -22l-4 -4q-2 -3 -5.5 -3t-6.5 3l-28 28q-7 7 -2 14q17 26 41 40t53 14q17 0 29.5 -4.5t23.5 -10.5t15 -8t14.5 -8t19 -8.5t16.5 -2.5q31 0 52 27q6 10 14 2l25 -28q3 -4 3.5 -7t-1.5 -7q-12 -25 -37.5 -39t-55.5 -14z" />
    <glyph glyph-name="utilde" unicode="&#x169;" 
d="M373 499q0 10 10 10h75q10 0 10 -10v-489q0 -10 -10 -10h-75q-10 0 -10 10v37q0 2 -1.5 2.5t-3.5 -1.5q-40 -55 -123 -55q-49 0 -90.5 19t-66.5 56t-25 90v341q0 10 10 10h75q10 0 10 -10v-311q0 -52 27.5 -82t77.5 -30t80 30.5t30 81.5v311zM333 593q-19 0 -33 5t-31 15
q-19 10 -28.5 14t-20.5 4q-32 0 -53 -22l-4 -4q-2 -3 -5.5 -3t-6.5 3l-28 28q-7 7 -2 14q17 26 41 40t53 14q17 0 29.5 -4.5t23.5 -10.5t15 -8t14.5 -8t19 -8.5t16.5 -2.5q31 0 52 27q6 10 14 2l25 -28q3 -4 3.5 -7t-1.5 -7q-12 -25 -37.5 -39t-55.5 -14z" />
    <glyph glyph-name="Umacron" unicode="&#x16a;" horiz-adv-x="641" 
d="M321 -8q-73 0 -128.5 28.5t-86.5 81t-31 120.5v468q0 10 10 10h76q10 0 10 -10v-470q0 -65 41.5 -105t108.5 -40t108 40t41 105v470q0 10 10 10h76q10 0 10 -10v-468q0 -68 -30.5 -120.5t-86 -81t-128.5 -28.5zM192 779q-10 0 -10 10v47q0 10 10 10h258q10 0 10 -10v-47
q0 -10 -10 -10h-258z" />
    <glyph glyph-name="umacron" unicode="&#x16b;" 
d="M373 499q0 10 10 10h75q10 0 10 -10v-489q0 -10 -10 -10h-75q-10 0 -10 10v37q0 2 -1.5 2.5t-3.5 -1.5q-40 -55 -123 -55q-49 0 -90.5 19t-66.5 56t-25 90v341q0 10 10 10h75q10 0 10 -10v-311q0 -52 27.5 -82t77.5 -30t80 30.5t30 81.5v311zM142 588q-10 0 -10 10v47
q0 10 10 10h258q10 0 10 -10v-47q0 -10 -10 -10h-258z" />
    <glyph glyph-name="Ubreve" unicode="&#x16c;" horiz-adv-x="641" 
d="M321 -8q-73 0 -128.5 28.5t-86.5 81t-31 120.5v468q0 10 10 10h76q10 0 10 -10v-470q0 -65 41.5 -105t108.5 -40t108 40t41 105v470q0 10 10 10h76q10 0 10 -10v-468q0 -68 -30.5 -120.5t-86 -81t-128.5 -28.5zM320 767q-55 0 -93 30t-42 75v2q0 8 9 8l40 -1q9 0 11 -9
q4 -25 25 -40.5t50 -15.5t50.5 15.5t25.5 40.5q1 10 11 10h39q10 0 9 -9q-3 -45 -41.5 -75.5t-93.5 -30.5z" />
    <glyph glyph-name="ubreve" unicode="&#x16d;" 
d="M373 499q0 10 10 10h75q10 0 10 -10v-489q0 -10 -10 -10h-75q-10 0 -10 10v37q0 2 -1.5 2.5t-3.5 -1.5q-40 -55 -123 -55q-49 0 -90.5 19t-66.5 56t-25 90v341q0 10 10 10h75q10 0 10 -10v-311q0 -52 27.5 -82t77.5 -30t80 30.5t30 81.5v311zM270 576q-55 0 -93 30
t-42 75v2q0 8 9 8l40 -1q9 0 11 -9q4 -25 25 -40.5t50 -15.5t50.5 15.5t25.5 40.5q1 10 11 10h39q10 0 9 -9q-3 -45 -41.5 -75.5t-93.5 -30.5z" />
    <glyph glyph-name="Uring" unicode="&#x16e;" horiz-adv-x="641" 
d="M321 -8q-73 0 -128.5 28.5t-86.5 81t-31 120.5v468q0 10 10 10h76q10 0 10 -10v-470q0 -65 41.5 -105t108.5 -40t108 40t41 105v470q0 10 10 10h76q10 0 10 -10v-468q0 -68 -30.5 -120.5t-86 -81t-128.5 -28.5zM320 764q-48 0 -81.5 33t-33.5 81t33.5 80.5t81.5 32.5
q49 0 82 -32.5t33 -80.5t-33 -81t-82 -33zM320 818q25 0 43 17.5t18 42.5t-18 42.5t-43 17.5t-42.5 -17.5t-17.5 -42.5t17.5 -42.5t42.5 -17.5z" />
    <glyph glyph-name="uring" unicode="&#x16f;" 
d="M373 499q0 10 10 10h75q10 0 10 -10v-489q0 -10 -10 -10h-75q-10 0 -10 10v37q0 2 -1.5 2.5t-3.5 -1.5q-40 -55 -123 -55q-49 0 -90.5 19t-66.5 56t-25 90v341q0 10 10 10h75q10 0 10 -10v-311q0 -52 27.5 -82t77.5 -30t80 30.5t30 81.5v311zM269 573q-48 0 -81.5 33
t-33.5 81t33.5 80.5t81.5 32.5q49 0 82 -32.5t33 -80.5t-33 -81t-82 -33zM269 627q25 0 43 17.5t18 42.5t-18 42.5t-43 17.5t-42.5 -17.5t-17.5 -42.5t17.5 -42.5t42.5 -17.5z" />
    <glyph glyph-name="Uhungarumlaut" unicode="&#x170;" horiz-adv-x="641" 
d="M321 -8q-73 0 -128.5 28.5t-86.5 81t-31 120.5v468q0 10 10 10h76q10 0 10 -10v-470q0 -65 41.5 -105t108.5 -40t108 40t41 105v470q0 10 10 10h76q10 0 10 -10v-468q0 -68 -30.5 -120.5t-86 -81t-128.5 -28.5zM205 764q-5 0 -7 3.5t0 8.5l53 108q3 7 12 7h68
q6 0 8.5 -3.5t-0.5 -8.5l-59 -108q-3 -7 -12 -7h-63zM374 764q-6 0 -8.5 3.5t0.5 8.5l58 108q3 7 12 7h64q6 0 8 -3.5t-1 -8.5l-59 -108q-3 -7 -12 -7h-62z" />
    <glyph glyph-name="uhungarumlaut" unicode="&#x171;" 
d="M373 499q0 10 10 10h75q10 0 10 -10v-489q0 -10 -10 -10h-75q-10 0 -10 10v37q0 2 -1.5 2.5t-3.5 -1.5q-40 -55 -123 -55q-49 0 -90.5 19t-66.5 56t-25 90v341q0 10 10 10h75q10 0 10 -10v-311q0 -52 27.5 -82t77.5 -30t80 30.5t30 81.5v311zM154 573q-5 0 -7 3.5t0 8.5
l53 108q3 7 12 7h68q6 0 8.5 -3.5t-0.5 -8.5l-59 -108q-3 -7 -12 -7h-63zM323 573q-6 0 -8.5 3.5t0.5 8.5l58 108q3 7 12 7h64q6 0 8 -3.5t-1 -8.5l-59 -108q-3 -7 -12 -7h-62z" />
    <glyph glyph-name="Uogonek" unicode="&#x172;" horiz-adv-x="641" 
d="M470 690q0 10 10 10h76q10 0 10 -10v-468q0 -97 -59.5 -159t-158.5 -70q-3 0 -5 -2q-19 -16 -30.5 -34.5t-11.5 -35.5q0 -7 1 -11q3 -16 14.5 -23.5t27.5 -7.5q11 0 22 3l4 1q6 0 8 -8l6 -34v-2q0 -7 -8 -10q-24 -7 -49 -7q-32 0 -57 14t-33 47q-3 12 -3 23q0 44 41 84
q5 3 -1 5q-91 14 -145 74.5t-54 152.5v468q0 10 10 10h76q10 0 10 -10v-470q0 -65 41.5 -105t108.5 -40t108 40t41 105v470z" />
    <glyph glyph-name="uogonek" unicode="&#x173;" 
d="M475 -128q6 0 8 -8l5 -33v-3q0 -6 -7 -9q-24 -7 -49 -7q-32 0 -57 14t-33 47q-3 10 -3 22q0 53 59 100q2 1 1 3t-3 2h-13q-10 0 -10 10v37q0 2 -1.5 2.5t-3.5 -1.5q-40 -55 -123 -55q-49 0 -90.5 19t-66.5 56t-25 90v341q0 10 10 10h75q10 0 10 -10v-311q0 -52 27.5 -82
t77.5 -30t80 30.5t30 81.5v311q0 10 10 10h75q10 0 10 -10v-496v-2.5t-1 -2.5l-11 -10q-50 -43 -50 -78q0 -21 12.5 -31.5t31.5 -10.5q10 0 21 3z" />
    <glyph glyph-name="Wcircumflex" unicode="&#x174;" horiz-adv-x="905" 
d="M225 0q-9 0 -11 8l-188 681l-1 3q0 8 10 8h81q9 0 11 -9l131 -498q1 -2 2.5 -2t2.5 2l124 498q2 9 11 9h79q9 0 11 -9l131 -499q1 -2 2 -2t2 2l132 499q2 9 11 9h76q5 0 7.5 -3t1.5 -8l-181 -680q-2 -9 -11 -9h-77q-9 0 -11 9l-131 516q-1 3 -2 3t-2 -3l-127 -516
q-1 -9 -11 -9h-73zM323 764q-6 0 -8 3.5t2 8.5l79 109q4 6 13 6h85q9 0 13 -6l79 -109q2 -2 2 -6q0 -2 -2 -4t-6 -2h-59q-8 0 -12 6l-53 76q-1 2 -3 2t-3 -2l-55 -76q-4 -6 -12 -6h-60z" />
    <glyph glyph-name="wcircumflex" unicode="&#x175;" horiz-adv-x="743" 
d="M183 0q-8 0 -11 8l-144 490l-1 3q0 8 10 8h78q9 0 11 -9l95 -363q1 -2 2.5 -2t2.5 2l97 363q2 9 11 9h69q9 0 11 -9l99 -362q1 -2 2.5 -2t2.5 2l99 362q2 9 11 9l77 -1q5 0 7.5 -3t1.5 -8l-145 -489q-3 -8 -11 -8h-78q-8 0 -11 8l-98 338q-1 2 -2.5 2t-2.5 -2l-93 -337
q-2 -9 -11 -9h-79zM239 573q-6 0 -8 3.5t2 8.5l79 109q4 6 13 6h85q9 0 13 -6l79 -109q2 -2 2 -6q0 -2 -2 -4t-6 -2h-59q-8 0 -12 6l-53 76q-1 2 -3 2t-3 -2l-55 -76q-4 -6 -12 -6h-60z" />
    <glyph glyph-name="Ycircumflex" unicode="&#x176;" horiz-adv-x="585" 
d="M254 1q-10 0 -10 10v281q0 4 -1 5l-208 391q-1 2 -1 5q0 7 8 7h82q9 0 12 -7l153 -293q1 -2 3 -2t3 2l153 293q3 7 12 7h83q5 0 7.5 -3.5t-0.5 -8.5l-209 -391q-1 -1 -1 -5v-281q0 -10 -10 -10h-76zM164 764q-6 0 -8 3.5t2 8.5l79 109q4 6 13 6h85q9 0 13 -6l79 -109
q2 -2 2 -6q0 -2 -2 -4t-6 -2h-59q-8 0 -12 6l-53 76q-1 2 -3 2t-3 -2l-55 -76q-4 -6 -12 -6h-60z" />
    <glyph glyph-name="ycircumflex" unicode="&#x177;" horiz-adv-x="476" 
d="M55 -199q-7 0 -7 10v59q0 10 10 10h2q40 1 63 10t38 33.5t29 73.5q1 1 0.5 3.5l-0.5 2.5l-167 495l-1 4q0 7 9 7h81q9 0 12 -8l113 -377q1 -2 3 -2t3 2l112 377q3 8 12 8h79q11 0 8 -11l-182 -533q-23 -69 -46 -102.5t-60 -47.5t-104 -14h-7zM109 579q-6 0 -8 3.5t2 8.5
l79 109q4 6 13 6h85q9 0 13 -6l79 -109q2 -2 2 -6q0 -2 -2 -4t-6 -2h-59q-8 0 -12 6l-53 76q-1 2 -3 2t-3 -2l-55 -76q-4 -6 -12 -6h-60z" />
    <glyph glyph-name="Ydieresis" unicode="&#x178;" horiz-adv-x="585" 
d="M254 1q-10 0 -10 10v281q0 4 -1 5l-208 391q-1 2 -1 5q0 7 8 7h82q9 0 12 -7l153 -293q1 -2 3 -2t3 2l153 293q3 7 12 7h83q5 0 7.5 -3.5t-0.5 -8.5l-209 -391q-1 -1 -1 -5v-281q0 -10 -10 -10h-76zM383 784q-28 0 -46 18t-18 46t18 46t46 18t46 -18t18 -46t-18 -46
t-46 -18zM201 784q-28 0 -46 18t-18 46t18 46t46 18t46 -18t18 -46t-18 -46t-46 -18z" />
    <glyph glyph-name="Zacute" unicode="&#x179;" horiz-adv-x="551" 
d="M51 0q-10 0 -10 10v70q0 8 4 13l350 519q1 1 0 3t-3 2h-341q-10 0 -10 10v63q0 10 10 10h444q10 0 10 -10v-70q0 -8 -4 -13l-352 -519q-1 -1 0 -3t3 -2h343q10 0 10 -10v-63q0 -10 -10 -10h-444zM230 764q-6 0 -8.5 3.5t0.5 8.5l59 108q3 7 12 7h67q6 0 7.5 -3.5
t-1.5 -8.5l-71 -108q-5 -7 -12 -7h-53z" />
    <glyph glyph-name="zacute" unicode="&#x17a;" horiz-adv-x="451" 
d="M40 0q-10 0 -10 10v70q0 7 4 12l265 324q2 2 1 3.5t-3 1.5h-252q-10 0 -10 10v68q0 10 10 10h361q10 0 10 -10v-71q0 -7 -4 -12l-269 -324q-2 -2 -1 -3.5t3 -1.5h262q10 0 10 -10v-67q0 -10 -10 -10h-367zM181 573q-6 0 -8.5 3.5t0.5 8.5l59 108q3 7 12 7h67
q6 0 7.5 -3.5t-1.5 -8.5l-71 -108q-5 -7 -12 -7h-53z" />
    <glyph glyph-name="Zdotaccent" unicode="&#x17b;" horiz-adv-x="551" 
d="M51 0q-10 0 -10 10v70q0 8 4 13l350 519q1 1 0 3t-3 2h-341q-10 0 -10 10v63q0 10 10 10h444q10 0 10 -10v-70q0 -8 -4 -13l-352 -519q-1 -1 0 -3t3 -2h343q10 0 10 -10v-63q0 -10 -10 -10h-444zM271 780q-28 0 -46 18t-18 46t18 46t46 18t46 -18t18 -46t-18 -46t-46 -18
z" />
    <glyph glyph-name="zdotaccent" unicode="&#x17c;" horiz-adv-x="451" 
d="M40 0q-10 0 -10 10v70q0 7 4 12l265 324q2 2 1 3.5t-3 1.5h-252q-10 0 -10 10v68q0 10 10 10h361q10 0 10 -10v-71q0 -7 -4 -12l-269 -324q-2 -2 -1 -3.5t3 -1.5h262q10 0 10 -10v-67q0 -10 -10 -10h-367zM222 589q-28 0 -46 18t-18 46t18 46t46 18t46 -18t18 -46
t-18 -46t-46 -18z" />
    <glyph glyph-name="Zcaron" unicode="&#x17d;" horiz-adv-x="551" 
d="M51 0q-10 0 -10 10v70q0 8 4 13l350 519q1 1 0 3t-3 2h-341q-10 0 -10 10v63q0 10 10 10h444q10 0 10 -10v-70q0 -8 -4 -13l-352 -519q-1 -1 0 -3t3 -2h343q10 0 10 -10v-63q0 -10 -10 -10h-444zM140 879q-2 2 -2 6q0 2 2 4t6 2h60q8 0 12 -6l55 -76q1 -1 3 -1t3 1l53 76
q4 6 12 6h59q6 0 8 -3.5t-2 -8.5l-79 -109q-4 -6 -13 -6h-85q-9 0 -13 6z" />
    <glyph glyph-name="zcaron" unicode="&#x17e;" horiz-adv-x="451" 
d="M40 0q-10 0 -10 10v70q0 7 4 12l265 324q2 2 1 3.5t-3 1.5h-252q-10 0 -10 10v68q0 10 10 10h361q10 0 10 -10v-71q0 -7 -4 -12l-269 -324q-2 -2 -1 -3.5t3 -1.5h262q10 0 10 -10v-67q0 -10 -10 -10h-367zM92 688q-2 2 -2 6q0 2 2 4t6 2h60q8 0 12 -6l55 -76q1 -1 3 -1
t3 1l53 76q4 6 12 6h59q6 0 8 -3.5t-2 -8.5l-79 -109q-4 -6 -13 -6h-85q-9 0 -13 6z" />
    <glyph glyph-name="uni018F" unicode="&#x18f;" horiz-adv-x="612" 
d="M531 444q10 -29 14 -64.5t4 -84.5q0 -46 -3 -77t-10 -59q-22 -77 -83.5 -123t-147.5 -46q-102 0 -165.5 56t-78.5 149q-5 31 -5 83v45q0 10 10 10h383q4 0 4 4q-2 55 -11 81q-14 49 -52.5 77.5t-98.5 28.5q-48 0 -85 -23t-59 -63q-2 -5 -6 -6t-8 2l-58 40q-9 5 -4 13
q32 56 89 88t134 32q89 0 150.5 -43t86.5 -120zM304 74q55 0 92 29t49 78q7 22 7 65q0 4 -4 4h-291q-4 0 -4 -4q2 -43 7 -63q11 -50 49 -79.5t95 -29.5z" />
    <glyph glyph-name="florin" unicode="&#x192;" horiz-adv-x="549" 
d="M267 531q11 73 33.5 108t67 47.5t131.5 13.5q10 0 10 -10v-64q0 -10 -10 -10h-37q-50 0 -71 -19t-29 -72l-15 -98q0 -4 3 -4h84q10 0 10 -10v-68q0 -10 -10 -10h-98q-5 0 -5 -4l-57 -362q-12 -73 -34.5 -108t-67 -47.5t-131.5 -13.5q-10 0 -10 10v64q0 10 10 10h38
q49 0 70.5 19t29.5 72l56 356q0 4 -3 4h-74q-10 0 -10 10v68q0 10 10 10h88q5 0 5 4z" />
    <glyph glyph-name="Ohorn" unicode="&#x1a0;" horiz-adv-x="622" 
d="M608 783q10 0 10 -10q-4 -56 -41 -88t-88 -37q-2 0 -2.5 -1.5t1.5 -2.5q34 -32 52 -76.5t18 -98.5v-238q0 -71 -31 -125.5t-87 -84.5t-130 -30q-73 0 -129 30t-87 84.5t-31 125.5v238q0 71 31 125t87 84t129 30q97 0 161 -50q5 -3 5 2v30q0 10 10 11q26 3 46.5 20.5
t23.5 51.5q0 10 10 10h42zM462 470q0 70 -42 112.5t-110 42.5t-109.5 -42.5t-41.5 -112.5v-243q0 -69 41.5 -111t109.5 -42t110 42t42 111v243z" />
    <glyph glyph-name="ohorn" unicode="&#x1a1;" 
d="M481 377q18 -51 18 -120q0 -70 -18 -123q-22 -67 -76 -104.5t-127 -37.5q-74 0 -129 37.5t-77 104.5q-18 54 -18 122q0 71 17 120q22 66 77 103.5t131 37.5q20 0 58 -6q1 -1 4 -1q27 3 46.5 20.5t22.5 51.5q0 10 10 10h42q10 0 10 -10q-4 -68 -59 -102q-4 -4 0 -6
q49 -39 68 -97zM391 161q11 38 11 94t-10 93q-13 41 -43 63.5t-73 22.5q-41 0 -71 -22.5t-43 -63.5q-11 -35 -11 -93t11 -94q12 -41 42.5 -63.5t73.5 -22.5q40 0 70 22.5t43 63.5z" />
    <glyph glyph-name="Uhorn" unicode="&#x1af;" horiz-adv-x="641" 
d="M682 783q10 0 10 -10q-4 -54 -38.5 -85.5t-83.5 -38.5q-4 0 -4 -4v-423q0 -68 -30.5 -120.5t-86 -81t-128.5 -28.5t-128.5 28.5t-86.5 81t-31 120.5v468q0 10 10 10h76q10 0 10 -10v-470q0 -65 41.5 -105t108.5 -40t108 40t41 105v470q0 10 10 10h70q29 0 53.5 18
t27.5 55q0 10 10 10h41z" />
    <glyph glyph-name="uhorn" unicode="&#x1b0;" 
d="M559 592q10 0 10 -10q-3 -47 -30 -77.5t-68 -41.5q-3 -1 -3 -5v-448q0 -10 -10 -10h-75q-10 0 -10 10v37q0 2 -1.5 2.5t-3.5 -1.5q-40 -55 -123 -55q-49 0 -90.5 19t-66.5 56t-25 90v341q0 10 10 10h75q10 0 10 -10v-311q0 -52 27.5 -82t77.5 -30t80 30.5t30 81.5v311
q0 10 10 10h44q29 0 53 17.5t27 55.5q0 10 10 10h42z" />
    <glyph glyph-name="uni01CD" unicode="&#x1cd;" horiz-adv-x="630" 
d="M507 0q-9 0 -12 8l-36 117q-1 3 -4 3h-281q-3 0 -4 -3l-36 -117q-3 -8 -12 -8h-81q-11 0 -8 11l219 681q3 8 12 8h100q9 0 12 -8l221 -681l1 -4q0 -7 -9 -7h-82zM195 209q-1 -2 0.5 -3.5t3.5 -1.5h230q2 0 3.5 1.5t0.5 3.5l-116 371q-1 2 -3 2t-3 -2zM183 877q-2 2 -2 6
q0 2 2 4t6 2h60q8 0 12 -6l55 -76q1 -1 3 -1t3 1l53 76q4 6 12 6h59q6 0 8 -3.5t-2 -8.5l-79 -109q-4 -6 -13 -6h-85q-9 0 -13 6z" />
    <glyph glyph-name="uni01CE" unicode="&#x1ce;" horiz-adv-x="517" 
d="M256 517q61 0 106.5 -21.5t70 -60t24.5 -87.5v-338q0 -10 -10 -10h-76q-10 0 -10 10v36q0 5 -5 2q-26 -27 -63.5 -41.5t-83.5 -14.5q-74 0 -122.5 37.5t-48.5 113.5q0 78 54.5 122.5t152.5 44.5h112q4 0 4 4v27q0 44 -25.5 68.5t-77.5 24.5q-42 0 -68.5 -16.5
t-32.5 -44.5q-3 -10 -12 -9l-81 11q-10 2 -9 8q8 59 63 96.5t138 37.5zM230 73q53 0 92 28t39 71v59q0 4 -4 4h-94q-59 0 -94 -23t-35 -64q0 -37 26.5 -56t69.5 -19zM128 686q-2 2 -2 6q0 2 2 4t6 2h60q8 0 12 -6l55 -76q1 -1 3 -1t3 1l53 76q4 6 12 6h59q6 0 8 -3.5
t-2 -8.5l-79 -109q-4 -6 -13 -6h-85q-9 0 -13 6z" />
    <glyph glyph-name="uni01D4" unicode="&#x1d4;" 
d="M373 499q0 10 10 10h75q10 0 10 -10v-489q0 -10 -10 -10h-75q-10 0 -10 10v37q0 2 -1.5 2.5t-3.5 -1.5q-40 -55 -123 -55q-49 0 -90.5 19t-66.5 56t-25 90v341q0 10 10 10h75q10 0 10 -10v-311q0 -52 27.5 -82t77.5 -30t80 30.5t30 81.5v311zM140 686q-2 2 -2 6q0 2 2 4
t6 2h60q8 0 12 -6l55 -76q1 -1 3 -1t3 1l53 76q4 6 12 6h59q6 0 8 -3.5t-2 -8.5l-79 -109q-4 -6 -13 -6h-85q-9 0 -13 6z" />
    <glyph glyph-name="uni01E5" unicode="&#x1e5;" horiz-adv-x="566" 
d="M559 288q10 0 10 -10v-41q0 -10 -10 -10h-76q-4 0 -4 -4v-197q0 -121 -68.5 -173t-183.5 -52q-16 0 -50 2q-10 1 -10 11l3 69q0 4 3 7t8 2q14 -1 41 -1q85 0 123 31.5t38 106.5v18q0 2 -1.5 3t-3.5 -1q-42 -49 -123 -49q-65 0 -117.5 34t-72.5 100q-13 44 -13 122
q0 83 15 128q19 60 67.5 96.5t114.5 36.5q82 0 129 -50q2 -2 3.5 -1.5t1.5 2.5v31q0 10 10 10h76q10 0 10 -10v-207q0 -4 4 -4h76zM270 79q44 0 71.5 23.5t35.5 60.5q5 23 6 60q0 4 -4 4h-116q-10 0 -10 10v41q0 10 10 10h116q4 0 4 4q-1 36 -7 58q-8 37 -36 60.5t-70 23.5
t-70 -23.5t-40 -60.5q-11 -30 -11 -93q0 -69 10 -94q10 -37 39.5 -60.5t71.5 -23.5z" />
    <glyph glyph-name="gcaron" unicode="&#x1e7;" horiz-adv-x="542" 
d="M383 499q0 10 10 10h76q10 0 10 -10v-473q0 -121 -68.5 -173t-183.5 -52q-16 0 -50 2q-10 1 -10 11l3 69q0 4 3 7t8 2q14 -1 41 -1q85 0 123 31.5t38 106.5v18q0 2 -1.5 3t-3.5 -1q-42 -49 -123 -49q-65 0 -117.5 34t-72.5 100q-13 44 -13 122q0 83 15 128
q19 60 67.5 96.5t114.5 36.5q82 0 129 -50q2 -2 3.5 -1.5t1.5 2.5v31zM377 163q3 16 4.5 34t1.5 60t-1.5 59.5t-5.5 33.5q-8 37 -36 60.5t-70 23.5t-70 -23.5t-40 -60.5q-11 -30 -11 -93q0 -69 10 -94q10 -37 39.5 -60.5t71.5 -23.5q44 0 71.5 23.5t35.5 60.5zM150 686
q-2 2 -2 6q0 2 2 4t6 2h60q8 0 12 -6l55 -76q1 -1 3 -1t3 1l53 76q4 6 12 6h59q6 0 8 -3.5t-2 -8.5l-79 -109q-4 -6 -13 -6h-85q-9 0 -13 6z" />
    <glyph glyph-name="uni01E9" unicode="&#x1e9;" horiz-adv-x="512" 
d="M80 0q-10 0 -10 10v680q0 10 10 10h76q10 0 10 -10v-385q0 -2 2 -3t3 1l185 201q4 5 12 5h89q6 0 7.5 -3.5t-2.5 -8.5l-129 -149q-2 -4 -1 -6l153 -330l1 -4q0 -8 -9 -8h-80q-8 0 -11 8l-119 272q-2 5 -5 1l-94 -104q-2 -4 -2 -5v-162q0 -10 -10 -10h-76zM123 877
q-2 2 -2 6q0 2 2 4t6 2h60q8 0 12 -6l55 -76q1 -1 3 -1t3 1l53 76q4 6 12 6h59q6 0 8 -3.5t-2 -8.5l-79 -109q-4 -6 -13 -6h-85q-9 0 -13 6z" />
    <glyph glyph-name="uni01EF" unicode="&#x1ef;" horiz-adv-x="522" 
d="M247 276q-4 -4 2 -5q114 -11 166.5 -75t52.5 -153q0 -77 -37 -131.5t-100 -82.5t-140 -28q-64 0 -130 20q-8 3 -8 12l3 66q0 5 3.5 7.5t8.5 0.5q68 -19 123 -19q82 0 131.5 38t49.5 112q0 67 -41.5 113.5t-120.5 46.5q-48 0 -100 -17q-2 -1 -5 -1q-6 0 -9 6l-23 39
q-2 4 -2 6q0 4 4 8l210 177q2 2 1 3.5t-3 1.5h-217q-10 0 -10 10v68q0 10 10 10h348q10 0 10 -10v-66q0 -6 -6 -12zM120 686q-2 2 -2 6q0 2 2 4t6 2h60q8 0 12 -6l55 -76q1 -1 3 -1t3 1l53 76q4 6 12 6h59q6 0 8 -3.5t-2 -8.5l-79 -109q-4 -6 -13 -6h-85q-9 0 -13 6z" />
    <glyph glyph-name="oslashacute" unicode="&#x1ff;" horiz-adv-x="530" 
d="M472 377q18 -51 18 -120q0 -70 -18 -123q-22 -67 -76 -104.5t-127 -37.5q-61 0 -111 26q-4 2 -5 -1l-35 -51q-6 -9 -14 -2l-54 43q-7 6 -2 14l39 57q2 3 0 6q-11 16 -24 50q-17 51 -17 122q0 73 16 120q23 66 77.5 103.5t130.5 37.5q56 0 100 -22q4 -2 5 1l35 51
q6 9 14 2l54 -42q7 -6 2 -14l-37 -54q-1 -3 0 -6q16 -21 29 -56zM143 255q0 -44 6 -79q1 -2 3 -2.5t3 1.5l167 242q2 5 -2 6q-22 11 -52 11q-42 0 -72 -22.5t-43 -63.5q-10 -31 -10 -93zM382 161q11 33 11 94q0 52 -8 87v1l-2 7h-1l-176 -255q-2 -4 2 -5q27 -15 61 -15
q40 0 70 22.5t43 63.5zM224 573q-6 0 -8.5 3.5t0.5 8.5l59 108q3 7 12 7h67q6 0 7.5 -3.5t-1.5 -8.5l-71 -108q-5 -7 -12 -7h-53z" />
    <glyph glyph-name="uni0218" unicode="&#x218;" horiz-adv-x="588" 
d="M298 -8q-77 0 -133.5 24t-87 68t-30.5 103v29q0 10 10 10h73q10 0 10 -10v-24q0 -51 44 -84t121 -33q69 0 104 29t35 76q0 31 -18 53t-52.5 40.5t-100.5 44.5q-73 28 -115.5 51t-70.5 60.5t-28 94.5q0 86 61.5 135t166.5 49q74 0 130 -25t86.5 -70t30.5 -104v-20
q0 -10 -10 -10h-75q-10 0 -10 10v15q0 52 -41.5 86.5t-114.5 34.5q-62 0 -96 -25.5t-34 -73.5q0 -33 17 -54t50.5 -37.5t102.5 -42.5q71 -28 115 -51.5t73 -62t29 -95.5q0 -88 -64.5 -139.5t-177.5 -51.5zM217 -193q-6 0 -8.5 3.5t0.5 8.5l59 108q3 7 12 7h67q6 0 7.5 -3.5
t-1.5 -8.5l-71 -108q-5 -7 -12 -7h-53z" />
    <glyph glyph-name="uni0219" unicode="&#x219;" horiz-adv-x="491" 
d="M249 -6q-60 0 -105.5 18t-70.5 49.5t-25 69.5v11q0 10 10 10h72q10 0 10 -10v-5q0 -28 30.5 -49t77.5 -21q45 0 73 19.5t28 49.5q0 29 -26 43.5t-84 30.5q-57 16 -95.5 32.5t-65 47t-26.5 78.5q0 67 52.5 106.5t139.5 39.5q58 0 102.5 -18.5t68.5 -51.5t24 -74v-3
q0 -10 -10 -10h-70q-10 0 -10 10v3q0 29 -28.5 48.5t-77.5 19.5q-44 0 -71.5 -17t-27.5 -46t26.5 -44t85.5 -32q58 -16 96.5 -31.5t65.5 -46t27 -79.5q0 -68 -53.5 -108t-142.5 -40zM175 -191q-6 0 -8.5 3.5t0.5 8.5l59 108q3 7 12 7h67q6 0 7.5 -3.5t-1.5 -8.5l-71 -108
q-5 -7 -12 -7h-53z" />
    <glyph glyph-name="uni021A" unicode="&#x21a;" horiz-adv-x="574" 
d="M527 700q10 0 10 -10v-64q0 -10 -10 -10h-192q-4 0 -4 -4v-602q0 -10 -10 -10h-76q-10 0 -10 10v602q0 4 -4 4h-183q-10 0 -10 10v64q0 10 10 10h479zM183 -185q-6 0 -8.5 3.5t0.5 8.5l59 108q3 7 12 7h67q6 0 7.5 -3.5t-1.5 -8.5l-71 -108q-5 -7 -12 -7h-53z" />
    <glyph glyph-name="uni021B" unicode="&#x21b;" horiz-adv-x="369" 
d="M321 440q0 -10 -10 -10h-108q-4 0 -4 -4v-265q0 -42 19 -60.5t59 -18.5h29q10 0 10 -10v-62q0 -10 -10 -10q-32 -2 -46 -2q-76 0 -114.5 27.5t-38.5 101.5v299q0 4 -4 4h-61q-10 0 -10 10v59q0 10 10 10h61q4 0 4 4v118q0 10 10 10h72q10 0 10 -10v-118q0 -4 4 -4h108
q10 0 10 -10v-59zM161 -180q-6 0 -8.5 3.5t0.5 8.5l59 108q3 7 12 7h67q6 0 7.5 -3.5t-1.5 -8.5l-71 -108q-5 -7 -12 -7h-53z" />
    <glyph glyph-name="uni021F" unicode="&#x21f;" horiz-adv-x="542" 
d="M297 516q82 0 130 -47.5t48 -128.5v-330q0 -10 -10 -10h-76q-10 0 -10 10v311q0 50 -29 81t-77 31q-47 0 -77 -31t-30 -80v-312q0 -10 -10 -10h-76q-10 0 -10 10v680q0 10 10 10h76q10 0 10 -10v-227q0 -2 1.5 -3t2.5 1q43 55 127 55zM133 877q-2 2 -2 6q0 2 2 4t6 2h60
q8 0 12 -6l55 -76q1 -1 3 -1t3 1l53 76q4 6 12 6h59q6 0 8 -3.5t-2 -8.5l-79 -109q-4 -6 -13 -6h-85q-9 0 -13 6z" />
    <glyph glyph-name="uni0228" unicode="&#x228;" horiz-adv-x="598" 
d="M547 627q0 -10 -10 -10h-355q-4 0 -4 -4v-215q0 -4 4 -4h244q10 0 10 -10v-63q0 -10 -10 -10h-244q-4 0 -4 -4v-220q0 -4 4 -4h355q10 0 10 -10v-63q0 -10 -10 -10h-176q-2 0 -2.5 -1.5t1.5 -3.5q45 -42 45 -88q0 -12 -3 -24q-8 -33 -32 -47t-56 -14q-28 0 -50 8
q-9 3 -8 12l5 33q1 4 4 6.5t8 1.5q16 -4 23 -4q19 0 31 10.5t12 30.5q0 37 -51 78q-1 2 -5 2h-191q-10 0 -10 10v680q0 10 10 10h445q10 0 10 -10v-63z" />
    <glyph glyph-name="uni0229" unicode="&#x229;" horiz-adv-x="537" 
d="M482 318q4 -41 3 -92q0 -10 -10 -10h-319q-4 0 -4 -4q0 -34 6 -52q11 -40 44.5 -62.5t84.5 -22.5q74 0 114 61q5 10 13 3l57 -38q7 -6 3 -13q-24 -38 -64.5 -62.5t-92.5 -31.5q-6 -2 -1 -5q48 -44 48 -90q0 -12 -3 -24q-8 -33 -33 -47.5t-57 -14.5q-21 0 -49 8
q-9 3 -7 12l5 33q1 4 4 6.5t8 1.5q16 -4 23 -4q16 0 27 8t15 23q1 3 1 10q0 38 -54 80q-1 2 -5 2q-114 18 -159 121q-24 59 -24 143q0 73 11 111q18 69 72 109t131 40q101 0 151 -50.5t61 -148.5zM270 434q-43 0 -71 -21.5t-38 -57.5q-7 -22 -9 -56q0 -4 4 -4h229q4 0 4 4
q-2 33 -6 49q-10 39 -39.5 62.5t-73.5 23.5z" />
    <glyph glyph-name="uni0237" unicode="&#x237;" horiz-adv-x="247" 
d="M-34 -207q-10 0 -10 10v62q0 10 10 10q57 0 82.5 23t25.5 73l-1 528q0 10 10 10h77q10 0 10 -10v-527q0 -66 -20 -105t-64.5 -57t-119.5 -17z" />
    <glyph glyph-name="uni0259" unicode="&#x259;" horiz-adv-x="537" 
d="M457 395q24 -58 24 -143q0 -73 -11 -112q-18 -68 -72 -108t-131 -40q-101 0 -151 50.5t-61 148.5q-4 41 -3 92q0 10 10 10h319q4 0 4 4q0 34 -6 52q-11 40 -44.5 62.5t-84.5 22.5q-74 0 -114 -62q-5 -10 -13 -3l-57 39q-7 6 -3 13q28 45 79.5 71t116.5 26q72 0 122.5 -32
t75.5 -91zM267 75q43 0 71 21.5t38 57.5q7 22 9 55q0 4 -4 4h-229q-4 0 -4 -4q2 -32 6 -48q10 -39 39.5 -62.5t73.5 -23.5z" />
    <glyph glyph-name="uni0292" unicode="&#x292;" horiz-adv-x="522" 
d="M247 276q-4 -4 2 -5q114 -11 166.5 -75t52.5 -153q0 -77 -37 -131.5t-100 -82.5t-140 -28q-64 0 -130 20q-8 3 -8 12l3 66q0 5 3.5 7.5t8.5 0.5q68 -19 123 -19q82 0 131.5 38t49.5 112q0 67 -41.5 113.5t-120.5 46.5q-48 0 -100 -17q-2 -1 -5 -1q-6 0 -9 6l-23 39
q-2 4 -2 6q0 4 4 8l210 177q2 2 1 3.5t-3 1.5h-217q-10 0 -10 10v68q0 10 10 10h348q10 0 10 -10v-66q0 -6 -6 -12z" />
    <glyph glyph-name="uni02BB" unicode="&#x2bb;" horiz-adv-x="163" 
d="M4 692q0 8 9 8h77q9 0 12 -8l58 -193l1 -3q0 -8 -10 -8h-57q-8 0 -11 8l-78 192z" />
    <glyph glyph-name="uni02BC" unicode="&#x2bc;" horiz-adv-x="163" 
d="M150 700q5 0 7.5 -3.5t0.5 -8.5l-78 -192q-3 -8 -11 -8h-57q-5 0 -7.5 3t-1.5 8l58 193q3 8 12 8h77z" />
    <glyph glyph-name="circumflex" unicode="&#x2c6;" horiz-adv-x="282" 
d="M40 573q-6 0 -8 3.5t2 8.5l79 109q4 6 13 6h85q9 0 13 -6l79 -109q2 -2 2 -6q0 -2 -2 -4t-6 -2h-59q-8 0 -12 6l-53 76q-1 2 -3 2t-3 -2l-55 -76q-4 -6 -12 -6h-60z" />
    <glyph glyph-name="caron" unicode="&#x2c7;" horiz-adv-x="337" 
d="M34 688q-2 2 -2 6q0 2 2 4t6 2h60q8 0 12 -6l55 -76q1 -1 3 -1t3 1l53 76q4 6 12 6h59q6 0 8 -3.5t-2 -8.5l-79 -109q-4 -6 -13 -6h-85q-9 0 -13 6z" />
    <glyph glyph-name="uni02C9" unicode="&#x2c9;" horiz-adv-x="278" 
d="M10 632q-10 0 -10 10v47q0 10 10 10h258q10 0 10 -10v-47q0 -10 -10 -10h-258z" />
    <glyph glyph-name="breve" unicode="&#x2d8;" horiz-adv-x="322" 
d="M161 560q-55 0 -93 30.5t-43 77.5q0 10 10 10h45q10 0 11 -10q4 -24 23.5 -39t46.5 -15q28 0 47.5 15t23.5 39q1 10 11 10h44q10 0 10 -9q-4 -47 -42 -78t-94 -31z" />
    <glyph glyph-name="dotaccent" unicode="&#x2d9;" horiz-adv-x="179" 
d="M89 589q-28 0 -46 18t-18 46t18 46t46 18t46 -18t18 -46t-18 -46t-46 -18z" />
    <glyph glyph-name="ring" unicode="&#x2da;" horiz-adv-x="281" 
d="M140 573q-48 0 -81.5 33t-33.5 81t33.5 80.5t81.5 32.5q49 0 82 -32.5t33 -80.5t-33 -81t-82 -33zM140 627q25 0 43 17.5t18 42.5t-18 42.5t-43 17.5t-42.5 -17.5t-17.5 -42.5t17.5 -42.5t42.5 -17.5z" />
    <glyph glyph-name="ogonek" unicode="&#x2db;" horiz-adv-x="151" 
d="M149 -172q0 -6 -7 -9q-25 -7 -49 -7q-32 0 -57 14t-33 47q-3 12 -3 23q0 53 59 100q5 4 13 4h41q8 0 8 -5q0 -4 -4 -7q-50 -40 -50 -78q0 -21 12.5 -31.5t31.5 -10.5q11 0 21 3l4 1q6 0 8 -8l5 -33v-3z" />
    <glyph glyph-name="tilde" unicode="&#x2dc;" horiz-adv-x="365" 
d="M242 593q-19 0 -33 5t-31 15q-19 10 -28.5 14t-20.5 4q-32 0 -53 -22l-4 -4q-2 -3 -5.5 -3t-6.5 3l-28 28q-7 7 -2 14q17 26 41 40t53 14q17 0 29.5 -4.5t23.5 -10.5t15 -8t14.5 -8t19 -8.5t16.5 -2.5q31 0 52 27q6 10 14 2l25 -28q3 -4 3.5 -7t-1.5 -7
q-12 -25 -37.5 -39t-55.5 -14z" />
    <glyph glyph-name="hungarumlaut" unicode="&#x2dd;" horiz-adv-x="384" 
d="M39 581q-6 0 -8.5 3.5t0.5 8.5l58 108q3 7 12 7h66q6 0 7.5 -3.5t-1.5 -8.5l-69 -108q-5 -7 -12 -7h-53zM216 581q-6 0 -8.5 3.5t0.5 8.5l59 108q3 7 12 7h66q6 0 7.5 -3.5t-1.5 -8.5l-70 -108q-5 -7 -12 -7h-53z" />
    <glyph glyph-name="gravecomb" unicode="&#x300;" horiz-adv-x="0" 
d="M-5 585q1 -2 1 -5t-2.5 -5t-6.5 -2h-54q-7 0 -12 7l-70 108q-2 4 -2 6q0 6 8 6h67q9 0 12 -7z" />
    <glyph glyph-name="acutecomb" unicode="&#x301;" horiz-adv-x="0" 
d="M-196 573q-6 0 -8.5 3.5t0.5 8.5l59 108q3 7 12 7h67q6 0 7.5 -3.5t-1.5 -8.5l-71 -108q-5 -7 -12 -7h-53z" />
    <glyph glyph-name="uni0302" unicode="&#x302;" horiz-adv-x="0" 
d="M-297 573q-6 0 -8 3.5t2 8.5l79 109q4 6 13 6h85q9 0 13 -6l79 -109q2 -2 2 -6q0 -2 -2 -4t-6 -2h-59q-8 0 -12 6l-53 76q-1 2 -3 2t-3 -2l-55 -76q-4 -6 -12 -6h-60z" />
    <glyph glyph-name="tildecomb" unicode="&#x303;" horiz-adv-x="0" 
d="M-99 593q-19 0 -33 5t-31 15q-19 10 -28.5 14t-20.5 4q-32 0 -53 -22l-4 -4q-2 -3 -5.5 -3t-6.5 3l-28 28q-7 7 -2 14q17 26 41 40t53 14q17 0 29.5 -4.5t23.5 -10.5t15 -8t14.5 -8t19 -8.5t16.5 -2.5q31 0 52 27q6 10 14 2l25 -28q3 -4 3.5 -7t-1.5 -7
q-12 -25 -37.5 -39t-55.5 -14z" />
    <glyph glyph-name="uni0304" unicode="&#x304;" horiz-adv-x="0" 
d="M-268 611q-10 0 -10 10v47q0 10 10 10h258q10 0 10 -10v-47q0 -10 -10 -10h-258z" />
    <glyph glyph-name="uni0306" unicode="&#x306;" horiz-adv-x="0" 
d="M-161 574q-55 0 -93 30t-42 75v2q0 8 9 8l40 -1q9 0 11 -9q4 -25 25 -40.5t50 -15.5t50.5 15.5t25.5 40.5q1 10 11 10h39q10 0 9 -9q-3 -45 -41.5 -75.5t-93.5 -30.5z" />
    <glyph glyph-name="uni0307" unicode="&#x307;" horiz-adv-x="0" 
d="M-70 589q-28 0 -46 18t-18 46t18 46t46 18t46 -18t18 -46t-18 -46t-46 -18z" />
    <glyph glyph-name="uni0308" unicode="&#x308;" horiz-adv-x="0" 
d="M-64 593q-28 0 -46 18t-18 46t18 46t46 18t46 -18t18 -46t-18 -46t-46 -18zM-246 593q-28 0 -46 18t-18 46t18 46t46 18t46 -18t18 -46t-18 -46t-46 -18z" />
    <glyph glyph-name="hookabovecomb" unicode="&#x309;" horiz-adv-x="0" 
d="M-334 557q-11 3 -6 12q9 20 20 33t13 16q12 12 17.5 21.5t5.5 23.5q0 13 -10.5 22t-25.5 9q-17 0 -27 -7t-25 -27q-6 -8 -14 -2l-24 16q-8 6 -3 14q20 31 40.5 43.5t54.5 12.5q40 0 64.5 -22t24.5 -59q0 -23 -10 -39t-28 -33q-3 -3 -12.5 -13.5t-14.5 -20.5q-4 -7 -13 -6
z" />
    <glyph glyph-name="uni030A" unicode="&#x30a;" horiz-adv-x="0" 
d="M-105 573q-48 0 -81.5 33t-33.5 81t33.5 80.5t81.5 32.5q49 0 82 -32.5t33 -80.5t-33 -81t-82 -33zM-105 627q25 0 43 17.5t18 42.5t-18 42.5t-43 17.5t-42.5 -17.5t-17.5 -42.5t17.5 -42.5t42.5 -17.5z" />
    <glyph glyph-name="uni030B" unicode="&#x30b;" horiz-adv-x="0" 
d="M-334 573q-5 0 -7 3.5t0 8.5l53 108q3 7 12 7h68q6 0 8.5 -3.5t-0.5 -8.5l-59 -108q-3 -7 -12 -7h-63zM-165 573q-6 0 -8.5 3.5t0.5 8.5l58 108q3 7 12 7h64q6 0 8 -3.5t-1 -8.5l-59 -108q-3 -7 -12 -7h-62z" />
    <glyph glyph-name="uni030C" unicode="&#x30c;" horiz-adv-x="0" 
d="M-303 688q-2 2 -2 6q0 2 2 4t6 2h60q8 0 12 -6l55 -76q1 -1 3 -1t3 1l53 76q4 6 12 6h59q6 0 8 -3.5t-2 -8.5l-79 -109q-4 -6 -13 -6h-85q-9 0 -13 6z" />
    <glyph glyph-name="uni0312" unicode="&#x312;" horiz-adv-x="0" 
d="M-40 700q6 0 8.5 -3.5t-0.5 -8.5l-59 -108q-3 -7 -12 -7h-67q-6 0 -7.5 3.5t1.5 8.5l70 108q5 7 12 7h54z" />
    <glyph glyph-name="uni0313" unicode="&#x313;" horiz-adv-x="0" 
d="M-146 573q-6 0 -8.5 3.5t0.5 8.5l59 108q3 7 12 7h67q6 0 7.5 -3.5t-1.5 -8.5l-71 -108q-5 -7 -12 -7h-53z" />
    <glyph glyph-name="uni031B" unicode="&#x31b;" horiz-adv-x="0" 
d="M-139 457q-10 0 -10 10v32q0 10 9 11q27 3 47.5 20.5t23.5 51.5q0 10 10 10h42q5 0 7.5 -3.5t1.5 -9.5q-4 -56 -42 -87.5t-89 -34.5z" />
    <glyph glyph-name="dotbelowcomb" unicode="&#x323;" horiz-adv-x="0" 
d="M-73 -195q-26 0 -43.5 17.5t-17.5 43.5q0 27 17.5 44t43.5 17q27 0 44 -17t17 -44q0 -26 -17.5 -43.5t-43.5 -17.5z" />
    <glyph glyph-name="uni0326" unicode="&#x326;" horiz-adv-x="0" 
d="M-177 -185q-6 0 -8.5 3.5t0.5 8.5l59 108q3 7 12 7h67q6 0 7.5 -3.5t-1.5 -8.5l-71 -108q-5 -7 -12 -7h-53z" />
    <glyph glyph-name="uni0327" unicode="&#x327;" horiz-adv-x="0" 
d="M-142 -181q-9 3 -7 12l5 33q1 5 4.5 6.5t8.5 0.5q11 -3 21 -3q19 0 31 10.5t12 31.5q0 38 -50 78q-4 3 -4 7q0 5 8 5h41q8 0 13 -4q59 -47 59 -100q0 -13 -3 -23q-8 -33 -33 -47t-57 -14q-24 0 -49 7z" />
    <glyph glyph-name="uni0328" unicode="&#x328;" horiz-adv-x="0" 
d="M-2 -172q0 -6 -7 -9q-25 -7 -49 -7q-32 0 -57 14t-33 47q-3 10 -3 22q0 55 59 101q5 4 13 4h41q8 0 8 -5q0 -4 -4 -7q-50 -40 -50 -78q0 -21 12.5 -31.5t31.5 -10.5q10 0 21 3l4 1q6 0 8 -8l5 -33v-3z" />
    <glyph glyph-name="uni0335" unicode="&#x335;" horiz-adv-x="0" 
d="M-330 618q0 10 10 10h310q10 0 10 -10v-41q0 -10 -10 -10h-310q-10 0 -10 10v41z" />
    <glyph glyph-name="uni0336" unicode="&#x336;" horiz-adv-x="0" 
d="M-594 513q-10 0 -10 10v48q0 10 10 10h584q10 0 10 -10v-48q0 -10 -10 -10h-584z" />
    <glyph glyph-name="uni0337" unicode="&#x337;" horiz-adv-x="0" 
d="M-398 12q-2 -2 -6 -2q-5 0 -8 4l-35 42q-3 3 -3 7t4 7l457 359q2 2 6 2q5 0 8 -4l35 -42q3 -3 3 -7t-4 -7z" />
    <glyph glyph-name="uni0338" unicode="&#x338;" horiz-adv-x="0" 
d="M-455 -43q-5 0 -7 3.5t0 8.5l383 772q3 7 12 7h54q5 0 7 -3.5t0 -8.5l-384 -772q-3 -7 -12 -7h-53z" />
    <glyph glyph-name="uni0394" unicode="&#x394;" horiz-adv-x="646" 
d="M39 0q-10 0 -10 10v67q0 7 2 12l253 603q3 8 11 8h56q8 0 11 -8l253 -604q2 -5 2 -12v-66q0 -10 -10 -10h-568zM125 88q-1 -2 0 -3.5t3 -1.5h390q2 0 3 1.5t0 3.5l-195 483q-1 2 -3 2t-3 -2z" />
    <glyph glyph-name="uni03A9" unicode="&#x3a9;" horiz-adv-x="639" 
d="M73 0q-10 0 -10 10v63q0 10 10 10h71q2 0 3 1.5t-1 3.5q-36 27 -55 69t-19 95v217q0 71 31 125t87 84t129 30q74 0 130 -30t87 -84t31 -125v-217q0 -53 -19 -95t-55 -69q-2 -2 -1 -3.5t3 -1.5h71q10 0 10 -10v-63q0 -10 -10 -10h-200q-10 0 -10 10v66q0 8 9 11
q44 10 75 51t31 99v234q0 70 -42 112t-110 42t-109.5 -42t-41.5 -112v-234q0 -59 31 -100t74 -51q9 -3 9 -11v-65q0 -10 -10 -10h-199z" />
    <glyph glyph-name="uni03BC" unicode="&#x3bc;" horiz-adv-x="548" 
d="M379 499q0 10 10 10h75q10 0 10 -10v-489q0 -10 -10 -10h-75q-10 0 -10 10v35q0 2 -1.5 2.5t-3.5 -1.5q-41 -53 -123 -53q-44 0 -80 15q-5 2 -5 -3v-195q0 -10 -10 -10h-76q-10 0 -10 10v689q0 10 10 10h76q10 0 10 -10v-330q5 -43 31.5 -68t71.5 -25q51 0 80.5 30.5
t29.5 81.5v311z" />
    <glyph glyph-name="pi" unicode="&#x3c0;" horiz-adv-x="651" 
d="M616 437q0 -10 -10 -10h-69q-4 0 -4 -4v-255q0 -36 6.5 -54.5t19.5 -24.5t36 -6q10 0 10 -10v-62q0 -10 -10 -10q-48 -1 -80.5 5.5t-55 33t-22.5 81.5v302q0 4 -4 4h-209q-4 0 -4 -4v-413q0 -10 -10 -10h-76q-10 0 -10 10v413q0 4 -4 4h-75q-10 0 -10 10v62q0 10 10 10
h561q10 0 10 -10v-62z" />
    <glyph glyph-name="Wgrave" unicode="&#x1e80;" horiz-adv-x="905" 
d="M225 0q-9 0 -11 8l-188 681l-1 3q0 8 10 8h81q9 0 11 -9l131 -498q1 -2 2.5 -2t2.5 2l124 498q2 9 11 9h79q9 0 11 -9l131 -499q1 -2 2 -2t2 2l132 499q2 9 11 9h76q5 0 7.5 -3t1.5 -8l-181 -680q-2 -9 -11 -9h-77q-9 0 -11 9l-131 516q-1 3 -2 3t-2 -3l-127 -516
q-1 -9 -11 -9h-73zM489 776q1 -2 1 -5t-2.5 -5t-6.5 -2h-54q-7 0 -12 7l-70 108q-2 4 -2 6q0 6 8 6h67q9 0 12 -7z" />
    <glyph glyph-name="wgrave" unicode="&#x1e81;" horiz-adv-x="743" 
d="M183 0q-8 0 -11 8l-144 490l-1 3q0 8 10 8h78q9 0 11 -9l95 -363q1 -2 2.5 -2t2.5 2l97 363q2 9 11 9h69q9 0 11 -9l99 -362q1 -2 2.5 -2t2.5 2l99 362q2 9 11 9l77 -1q5 0 7.5 -3t1.5 -8l-145 -489q-3 -8 -11 -8h-78q-8 0 -11 8l-98 338q-1 2 -2.5 2t-2.5 -2l-93 -337
q-2 -9 -11 -9h-79zM405 585q1 -2 1 -5t-2.5 -5t-6.5 -2h-54q-7 0 -12 7l-70 108q-2 4 -2 6q0 6 8 6h67q9 0 12 -7z" />
    <glyph glyph-name="Wacute" unicode="&#x1e82;" horiz-adv-x="905" 
d="M225 0q-9 0 -11 8l-188 681l-1 3q0 8 10 8h81q9 0 11 -9l131 -498q1 -2 2.5 -2t2.5 2l124 498q2 9 11 9h79q9 0 11 -9l131 -499q1 -2 2 -2t2 2l132 499q2 9 11 9h76q5 0 7.5 -3t1.5 -8l-181 -680q-2 -9 -11 -9h-77q-9 0 -11 9l-131 516q-1 3 -2 3t-2 -3l-127 -516
q-1 -9 -11 -9h-73zM410 764q-6 0 -8.5 3.5t0.5 8.5l59 108q3 7 12 7h67q6 0 7.5 -3.5t-1.5 -8.5l-71 -108q-5 -7 -12 -7h-53z" />
    <glyph glyph-name="wacute" unicode="&#x1e83;" horiz-adv-x="743" 
d="M183 0q-8 0 -11 8l-144 490l-1 3q0 8 10 8h78q9 0 11 -9l95 -363q1 -2 2.5 -2t2.5 2l97 363q2 9 11 9h69q9 0 11 -9l99 -362q1 -2 2.5 -2t2.5 2l99 362q2 9 11 9l77 -1q5 0 7.5 -3t1.5 -8l-145 -489q-3 -8 -11 -8h-78q-8 0 -11 8l-98 338q-1 2 -2.5 2t-2.5 -2l-93 -337
q-2 -9 -11 -9h-79zM326 573q-6 0 -8.5 3.5t0.5 8.5l59 108q3 7 12 7h67q6 0 7.5 -3.5t-1.5 -8.5l-71 -108q-5 -7 -12 -7h-53z" />
    <glyph glyph-name="Wdieresis" unicode="&#x1e84;" horiz-adv-x="905" 
d="M225 0q-9 0 -11 8l-188 681l-1 3q0 8 10 8h81q9 0 11 -9l131 -498q1 -2 2.5 -2t2.5 2l124 498q2 9 11 9h79q9 0 11 -9l131 -499q1 -2 2 -2t2 2l132 499q2 9 11 9h76q5 0 7.5 -3t1.5 -8l-181 -680q-2 -9 -11 -9h-77q-9 0 -11 9l-131 516q-1 3 -2 3t-2 -3l-127 -516
q-1 -9 -11 -9h-73zM543 784q-28 0 -46 18t-18 46t18 46t46 18t46 -18t18 -46t-18 -46t-46 -18zM361 784q-28 0 -46 18t-18 46t18 46t46 18t46 -18t18 -46t-18 -46t-46 -18z" />
    <glyph glyph-name="wdieresis" unicode="&#x1e85;" horiz-adv-x="743" 
d="M183 0q-8 0 -11 8l-144 490l-1 3q0 8 10 8h78q9 0 11 -9l95 -363q1 -2 2.5 -2t2.5 2l97 363q2 9 11 9h69q9 0 11 -9l99 -362q1 -2 2.5 -2t2.5 2l99 362q2 9 11 9l77 -1q5 0 7.5 -3t1.5 -8l-145 -489q-3 -8 -11 -8h-78q-8 0 -11 8l-98 338q-1 2 -2.5 2t-2.5 -2l-93 -337
q-2 -9 -11 -9h-79zM459 593q-28 0 -46 18t-18 46t18 46t46 18t46 -18t18 -46t-18 -46t-46 -18zM277 593q-28 0 -46 18t-18 46t18 46t46 18t46 -18t18 -46t-18 -46t-46 -18z" />
    <glyph glyph-name="uni1EA0" unicode="&#x1ea0;" horiz-adv-x="630" 
d="M507 0q-9 0 -12 8l-36 117q-1 3 -4 3h-281q-3 0 -4 -3l-36 -117q-3 -8 -12 -8h-81q-11 0 -8 11l219 681q3 8 12 8h100q9 0 12 -8l221 -681l1 -4q0 -7 -9 -7h-82zM195 209q-1 -2 0.5 -3.5t3.5 -1.5h230q2 0 3.5 1.5t0.5 3.5l-116 371q-1 2 -3 2t-3 -2zM315 -195
q-26 0 -43.5 17.5t-17.5 43.5q0 27 17.5 44t43.5 17q27 0 44 -17t17 -44q0 -26 -17.5 -43.5t-43.5 -17.5z" />
    <glyph glyph-name="uni1EA1" unicode="&#x1ea1;" horiz-adv-x="517" 
d="M256 517q61 0 106.5 -21.5t70 -60t24.5 -87.5v-338q0 -10 -10 -10h-76q-10 0 -10 10v36q0 5 -5 2q-26 -27 -63.5 -41.5t-83.5 -14.5q-74 0 -122.5 37.5t-48.5 113.5q0 78 54.5 122.5t152.5 44.5h112q4 0 4 4v27q0 44 -25.5 68.5t-77.5 24.5q-42 0 -68.5 -16.5
t-32.5 -44.5q-3 -10 -12 -9l-81 11q-10 2 -9 8q8 59 63 96.5t138 37.5zM230 73q53 0 92 28t39 71v59q0 4 -4 4h-94q-59 0 -94 -23t-35 -64q0 -37 26.5 -56t69.5 -19zM259 -195q-26 0 -43.5 17.5t-17.5 43.5q0 27 17.5 44t43.5 17q27 0 44 -17t17 -44q0 -26 -17.5 -43.5
t-43.5 -17.5z" />
    <glyph glyph-name="uni1EA2" unicode="&#x1ea2;" horiz-adv-x="630" 
d="M507 0q-9 0 -12 8l-36 117q-1 3 -4 3h-281q-3 0 -4 -3l-36 -117q-3 -8 -12 -8h-81q-11 0 -8 11l219 681q3 8 12 8h100q9 0 12 -8l221 -681l1 -4q0 -7 -9 -7h-82zM195 209q-1 -2 0.5 -3.5t3.5 -1.5h230q2 0 3.5 1.5t0.5 3.5l-116 371q-1 2 -3 2t-3 -2zM302 748
q-11 3 -6 12q9 20 20 33t13 16q12 12 17.5 21.5t5.5 23.5q0 13 -10.5 22t-25.5 9q-17 0 -27 -7t-25 -27q-6 -8 -14 -2l-24 16q-8 6 -3 14q20 31 40.5 43.5t54.5 12.5q40 0 64.5 -22t24.5 -59q0 -23 -10 -39t-28 -33q-3 -3 -12.5 -13.5t-14.5 -20.5q-4 -7 -13 -6z" />
    <glyph glyph-name="uni1EA3" unicode="&#x1ea3;" horiz-adv-x="517" 
d="M256 517q61 0 106.5 -21.5t70 -60t24.5 -87.5v-338q0 -10 -10 -10h-76q-10 0 -10 10v36q0 5 -5 2q-26 -27 -63.5 -41.5t-83.5 -14.5q-74 0 -122.5 37.5t-48.5 113.5q0 78 54.5 122.5t152.5 44.5h112q4 0 4 4v27q0 44 -25.5 68.5t-77.5 24.5q-42 0 -68.5 -16.5
t-32.5 -44.5q-3 -10 -12 -9l-81 11q-10 2 -9 8q8 59 63 96.5t138 37.5zM230 73q53 0 92 28t39 71v59q0 4 -4 4h-94q-59 0 -94 -23t-35 -64q0 -37 26.5 -56t69.5 -19zM247 557q-11 3 -6 12q9 20 20 33t13 16q12 12 17.5 21.5t5.5 23.5q0 13 -10.5 22t-25.5 9q-17 0 -27 -7
t-25 -27q-6 -8 -14 -2l-24 16q-8 6 -3 14q20 31 40.5 43.5t54.5 12.5q40 0 64.5 -22t24.5 -59q0 -23 -10 -39t-28 -33q-3 -3 -12.5 -13.5t-14.5 -20.5q-4 -7 -13 -6z" />
    <glyph glyph-name="uni1EA4" unicode="&#x1ea4;" horiz-adv-x="630" 
d="M507 0q-9 0 -12 8l-36 117q-1 3 -4 3h-281q-3 0 -4 -3l-36 -117q-3 -8 -12 -8h-81q-11 0 -8 11l219 681q3 8 12 8h100q9 0 12 -8l221 -681l1 -4q0 -7 -9 -7h-82zM195 209q-1 -2 0.5 -3.5t3.5 -1.5h230q2 0 3.5 1.5t0.5 3.5l-116 371q-1 2 -3 2t-3 -2zM185 764
q-6 0 -8 3.5t2 8.5l79 109q4 6 13 6h85q9 0 13 -6l79 -109q2 -2 2 -6q0 -2 -2 -4t-6 -2h-59q-8 0 -12 6l-53 76q-1 2 -3 2t-3 -2l-55 -76q-4 -6 -12 -6h-60zM456 840q-6 0 -8.5 3.5t0.5 8.5l59 108q3 7 12 7h67q6 0 7.5 -3.5t-1.5 -8.5l-71 -108q-5 -7 -12 -7h-53z" />
    <glyph glyph-name="uni1EA5" unicode="&#x1ea5;" horiz-adv-x="517" 
d="M256 517q61 0 106.5 -21.5t70 -60t24.5 -87.5v-338q0 -10 -10 -10h-76q-10 0 -10 10v36q0 5 -5 2q-26 -27 -63.5 -41.5t-83.5 -14.5q-74 0 -122.5 37.5t-48.5 113.5q0 78 54.5 122.5t152.5 44.5h112q4 0 4 4v27q0 44 -25.5 68.5t-77.5 24.5q-42 0 -68.5 -16.5
t-32.5 -44.5q-3 -10 -12 -9l-81 11q-10 2 -9 8q8 59 63 96.5t138 37.5zM230 73q53 0 92 28t39 71v59q0 4 -4 4h-94q-59 0 -94 -23t-35 -64q0 -37 26.5 -56t69.5 -19zM130 573q-6 0 -8 3.5t2 8.5l79 109q4 6 13 6h85q9 0 13 -6l79 -109q2 -2 2 -6q0 -2 -2 -4t-6 -2h-59
q-8 0 -12 6l-53 76q-1 2 -3 2t-3 -2l-55 -76q-4 -6 -12 -6h-60zM401 649q-6 0 -8.5 3.5t0.5 8.5l59 108q3 7 12 7h67q6 0 7.5 -3.5t-1.5 -8.5l-71 -108q-5 -7 -12 -7h-53z" />
    <glyph glyph-name="uni1EA6" unicode="&#x1ea6;" horiz-adv-x="630" 
d="M507 0q-9 0 -12 8l-36 117q-1 3 -4 3h-281q-3 0 -4 -3l-36 -117q-3 -8 -12 -8h-81q-11 0 -8 11l219 681q3 8 12 8h100q9 0 12 -8l221 -681l1 -4q0 -7 -9 -7h-82zM195 209q-1 -2 0.5 -3.5t3.5 -1.5h230q2 0 3.5 1.5t0.5 3.5l-116 371q-1 2 -3 2t-3 -2zM184 764
q-6 0 -8 3.5t2 8.5l79 109q4 6 13 6h85q9 0 13 -6l79 -109q2 -2 2 -6q0 -2 -2 -4t-6 -2h-59q-8 0 -12 6l-53 76q-1 2 -3 2t-3 -2l-55 -76q-4 -6 -12 -6h-60zM504 893q1 -2 1 -5t-2.5 -5t-6.5 -2h-54q-7 0 -12 7l-70 108q-2 4 -2 6q0 6 8 6h67q9 0 12 -7z" />
    <glyph glyph-name="uni1EA7" unicode="&#x1ea7;" horiz-adv-x="517" 
d="M256 517q61 0 106.5 -21.5t70 -60t24.5 -87.5v-338q0 -10 -10 -10h-76q-10 0 -10 10v36q0 5 -5 2q-26 -27 -63.5 -41.5t-83.5 -14.5q-74 0 -122.5 37.5t-48.5 113.5q0 78 54.5 122.5t152.5 44.5h112q4 0 4 4v27q0 44 -25.5 68.5t-77.5 24.5q-42 0 -68.5 -16.5
t-32.5 -44.5q-3 -10 -12 -9l-81 11q-10 2 -9 8q8 59 63 96.5t138 37.5zM230 73q53 0 92 28t39 71v59q0 4 -4 4h-94q-59 0 -94 -23t-35 -64q0 -37 26.5 -56t69.5 -19zM129 573q-6 0 -8 3.5t2 8.5l79 109q4 6 13 6h85q9 0 13 -6l79 -109q2 -2 2 -6q0 -2 -2 -4t-6 -2h-59
q-8 0 -12 6l-53 76q-1 2 -3 2t-3 -2l-55 -76q-4 -6 -12 -6h-60zM449 702q1 -2 1 -5t-2.5 -5t-6.5 -2h-54q-7 0 -12 7l-70 108q-2 4 -2 6q0 6 8 6h67q9 0 12 -7z" />
    <glyph glyph-name="uni1EA8" unicode="&#x1ea8;" horiz-adv-x="630" 
d="M507 0q-9 0 -12 8l-36 117q-1 3 -4 3h-281q-3 0 -4 -3l-36 -117q-3 -8 -12 -8h-81q-11 0 -8 11l219 681q3 8 12 8h100q9 0 12 -8l221 -681l1 -4q0 -7 -9 -7h-82zM195 209q-1 -2 0.5 -3.5t3.5 -1.5h230q2 0 3.5 1.5t0.5 3.5l-116 371q-1 2 -3 2t-3 -2zM184 764
q-6 0 -8 3.5t2 8.5l79 109q4 6 13 6h85q9 0 13 -6l79 -109q2 -2 2 -6q0 -2 -2 -4t-6 -2h-59q-8 0 -12 6l-53 76q-1 2 -3 2t-3 -2l-55 -76q-4 -6 -12 -6h-60zM432 868q-11 3 -6 12q9 20 20 33t13 16q12 12 17.5 21.5t5.5 23.5q0 13 -10.5 22t-25.5 9q-17 0 -27 -7t-25 -27
q-6 -8 -14 -2l-24 16q-8 6 -3 14q20 31 40.5 43.5t54.5 12.5q40 0 64.5 -22t24.5 -59q0 -23 -10 -39t-28 -33q-3 -3 -12.5 -13.5t-14.5 -20.5q-4 -7 -13 -6z" />
    <glyph glyph-name="uni1EA9" unicode="&#x1ea9;" horiz-adv-x="517" 
d="M256 517q61 0 106.5 -21.5t70 -60t24.5 -87.5v-338q0 -10 -10 -10h-76q-10 0 -10 10v36q0 5 -5 2q-26 -27 -63.5 -41.5t-83.5 -14.5q-74 0 -122.5 37.5t-48.5 113.5q0 78 54.5 122.5t152.5 44.5h112q4 0 4 4v27q0 44 -25.5 68.5t-77.5 24.5q-42 0 -68.5 -16.5
t-32.5 -44.5q-3 -10 -12 -9l-81 11q-10 2 -9 8q8 59 63 96.5t138 37.5zM230 73q53 0 92 28t39 71v59q0 4 -4 4h-94q-59 0 -94 -23t-35 -64q0 -37 26.5 -56t69.5 -19zM129 573q-6 0 -8 3.5t2 8.5l79 109q4 6 13 6h85q9 0 13 -6l79 -109q2 -2 2 -6q0 -2 -2 -4t-6 -2h-59
q-8 0 -12 6l-53 76q-1 2 -3 2t-3 -2l-55 -76q-4 -6 -12 -6h-60zM377 677q-11 3 -6 12q9 20 20 33t13 16q12 12 17.5 21.5t5.5 23.5q0 13 -10.5 22t-25.5 9q-17 0 -27 -7t-25 -27q-6 -8 -14 -2l-24 16q-8 6 -3 14q20 31 40.5 43.5t54.5 12.5q40 0 64.5 -22t24.5 -59
q0 -23 -10 -39t-28 -33q-3 -3 -12.5 -13.5t-14.5 -20.5q-4 -7 -13 -6z" />
    <glyph glyph-name="uni1EAA" unicode="&#x1eaa;" horiz-adv-x="630" 
d="M507 0q-9 0 -12 8l-36 117q-1 3 -4 3h-281q-3 0 -4 -3l-36 -117q-3 -8 -12 -8h-81q-11 0 -8 11l219 681q3 8 12 8h100q9 0 12 -8l221 -681l1 -4q0 -7 -9 -7h-82zM195 209q-1 -2 0.5 -3.5t3.5 -1.5h230q2 0 3.5 1.5t0.5 3.5l-116 371q-1 2 -3 2t-3 -2zM184 764
q-6 0 -8 3.5t2 8.5l79 109q4 6 13 6h85q9 0 13 -6l79 -109q2 -2 2 -6q0 -2 -2 -4t-6 -2h-59q-8 0 -12 6l-53 76q-1 2 -3 2t-3 -2l-55 -76q-4 -6 -12 -6h-60zM376 923q-19 0 -33 5t-31 15q-19 10 -28.5 14t-20.5 4q-32 0 -53 -22l-4 -4q-2 -3 -5.5 -3t-6.5 3l-28 28
q-7 7 -2 14q17 26 41 40t53 14q17 0 29.5 -4.5t23.5 -10.5t15 -8t14.5 -8t19 -8.5t16.5 -2.5q31 0 52 27q6 10 14 2l25 -28q3 -4 3.5 -7t-1.5 -7q-12 -25 -37.5 -39t-55.5 -14z" />
    <glyph glyph-name="uni1EAB" unicode="&#x1eab;" horiz-adv-x="517" 
d="M256 517q61 0 106.5 -21.5t70 -60t24.5 -87.5v-338q0 -10 -10 -10h-76q-10 0 -10 10v36q0 5 -5 2q-26 -27 -63.5 -41.5t-83.5 -14.5q-74 0 -122.5 37.5t-48.5 113.5q0 78 54.5 122.5t152.5 44.5h112q4 0 4 4v27q0 44 -25.5 68.5t-77.5 24.5q-42 0 -68.5 -16.5
t-32.5 -44.5q-3 -10 -12 -9l-81 11q-10 2 -9 8q8 59 63 96.5t138 37.5zM230 73q53 0 92 28t39 71v59q0 4 -4 4h-94q-59 0 -94 -23t-35 -64q0 -37 26.5 -56t69.5 -19zM129 573q-6 0 -8 3.5t2 8.5l79 109q4 6 13 6h85q9 0 13 -6l79 -109q2 -2 2 -6q0 -2 -2 -4t-6 -2h-59
q-8 0 -12 6l-53 76q-1 2 -3 2t-3 -2l-55 -76q-4 -6 -12 -6h-60zM321 732q-19 0 -33 5t-31 15q-19 10 -28.5 14t-20.5 4q-32 0 -53 -22l-4 -4q-2 -3 -5.5 -3t-6.5 3l-28 28q-7 7 -2 14q17 26 41 40t53 14q17 0 29.5 -4.5t23.5 -10.5t15 -8t14.5 -8t19 -8.5t16.5 -2.5
q31 0 52 27q6 10 14 2l25 -28q3 -4 3.5 -7t-1.5 -7q-12 -25 -37.5 -39t-55.5 -14z" />
    <glyph glyph-name="uni1EAC" unicode="&#x1eac;" horiz-adv-x="630" 
d="M507 0q-9 0 -12 8l-36 117q-1 3 -4 3h-281q-3 0 -4 -3l-36 -117q-3 -8 -12 -8h-81q-11 0 -8 11l219 681q3 8 12 8h100q9 0 12 -8l221 -681l1 -4q0 -7 -9 -7h-82zM195 209q-1 -2 0.5 -3.5t3.5 -1.5h230q2 0 3.5 1.5t0.5 3.5l-116 371q-1 2 -3 2t-3 -2zM315 -195
q-26 0 -43.5 17.5t-17.5 43.5q0 27 17.5 44t43.5 17q27 0 44 -17t17 -44q0 -26 -17.5 -43.5t-43.5 -17.5zM185 764q-6 0 -8 3.5t2 8.5l79 109q4 6 13 6h85q9 0 13 -6l79 -109q2 -2 2 -6q0 -2 -2 -4t-6 -2h-59q-8 0 -12 6l-53 76q-1 2 -3 2t-3 -2l-55 -76q-4 -6 -12 -6h-60z
" />
    <glyph glyph-name="uni1EAD" unicode="&#x1ead;" horiz-adv-x="517" 
d="M256 517q61 0 106.5 -21.5t70 -60t24.5 -87.5v-338q0 -10 -10 -10h-76q-10 0 -10 10v36q0 5 -5 2q-26 -27 -63.5 -41.5t-83.5 -14.5q-74 0 -122.5 37.5t-48.5 113.5q0 78 54.5 122.5t152.5 44.5h112q4 0 4 4v27q0 44 -25.5 68.5t-77.5 24.5q-42 0 -68.5 -16.5
t-32.5 -44.5q-3 -10 -12 -9l-81 11q-10 2 -9 8q8 59 63 96.5t138 37.5zM230 73q53 0 92 28t39 71v59q0 4 -4 4h-94q-59 0 -94 -23t-35 -64q0 -37 26.5 -56t69.5 -19zM259 -195q-26 0 -43.5 17.5t-17.5 43.5q0 27 17.5 44t43.5 17q27 0 44 -17t17 -44q0 -26 -17.5 -43.5
t-43.5 -17.5zM130 573q-6 0 -8 3.5t2 8.5l79 109q4 6 13 6h85q9 0 13 -6l79 -109q2 -2 2 -6q0 -2 -2 -4t-6 -2h-59q-8 0 -12 6l-53 76q-1 2 -3 2t-3 -2l-55 -76q-4 -6 -12 -6h-60z" />
    <glyph glyph-name="uni1EAE" unicode="&#x1eae;" horiz-adv-x="630" 
d="M507 0q-9 0 -12 8l-36 117q-1 3 -4 3h-281q-3 0 -4 -3l-36 -117q-3 -8 -12 -8h-81q-11 0 -8 11l219 681q3 8 12 8h100q9 0 12 -8l221 -681l1 -4q0 -7 -9 -7h-82zM195 209q-1 -2 0.5 -3.5t3.5 -1.5h230q2 0 3.5 1.5t0.5 3.5l-116 371q-1 2 -3 2t-3 -2zM313 767
q-55 0 -93 30t-42 75v2q0 8 9 8l40 -1q9 0 11 -9q4 -25 25 -40.5t50 -15.5t50.5 15.5t25.5 40.5q1 10 11 10h39q10 0 9 -9q-3 -45 -41.5 -75.5t-93.5 -30.5zM282 913q-6 0 -8.5 3.5t0.5 8.5l59 108q3 7 12 7h67q6 0 7.5 -3.5t-1.5 -8.5l-71 -108q-5 -7 -12 -7h-53z" />
    <glyph glyph-name="uni1EAF" unicode="&#x1eaf;" horiz-adv-x="517" 
d="M256 517q61 0 106.5 -21.5t70 -60t24.5 -87.5v-338q0 -10 -10 -10h-76q-10 0 -10 10v36q0 5 -5 2q-26 -27 -63.5 -41.5t-83.5 -14.5q-74 0 -122.5 37.5t-48.5 113.5q0 78 54.5 122.5t152.5 44.5h112q4 0 4 4v27q0 44 -25.5 68.5t-77.5 24.5q-42 0 -68.5 -16.5
t-32.5 -44.5q-3 -10 -12 -9l-81 11q-10 2 -9 8q8 59 63 96.5t138 37.5zM230 73q53 0 92 28t39 71v59q0 4 -4 4h-94q-59 0 -94 -23t-35 -64q0 -37 26.5 -56t69.5 -19zM258 576q-55 0 -93 30t-42 75v2q0 8 9 8l40 -1q9 0 11 -9q4 -25 25 -40.5t50 -15.5t50.5 15.5t25.5 40.5
q1 10 11 10h39q10 0 9 -9q-3 -45 -41.5 -75.5t-93.5 -30.5zM227 722q-6 0 -8.5 3.5t0.5 8.5l59 108q3 7 12 7h67q6 0 7.5 -3.5t-1.5 -8.5l-71 -108q-5 -7 -12 -7h-53z" />
    <glyph glyph-name="uni1EB0" unicode="&#x1eb0;" horiz-adv-x="630" 
d="M507 0q-9 0 -12 8l-36 117q-1 3 -4 3h-281q-3 0 -4 -3l-36 -117q-3 -8 -12 -8h-81q-11 0 -8 11l219 681q3 8 12 8h100q9 0 12 -8l221 -681l1 -4q0 -7 -9 -7h-82zM195 209q-1 -2 0.5 -3.5t3.5 -1.5h230q2 0 3.5 1.5t0.5 3.5l-116 371q-1 2 -3 2t-3 -2zM313 767
q-55 0 -93 30t-42 75v2q0 8 9 8l40 -1q9 0 11 -9q4 -25 25 -40.5t50 -15.5t50.5 15.5t25.5 40.5q1 10 11 10h39q10 0 9 -9q-3 -45 -41.5 -75.5t-93.5 -30.5zM350 925q1 -2 1 -5t-2.5 -5t-6.5 -2h-54q-7 0 -12 7l-70 108q-2 4 -2 6q0 6 8 6h67q9 0 12 -7z" />
    <glyph glyph-name="uni1EB1" unicode="&#x1eb1;" horiz-adv-x="517" 
d="M256 517q61 0 106.5 -21.5t70 -60t24.5 -87.5v-338q0 -10 -10 -10h-76q-10 0 -10 10v36q0 5 -5 2q-26 -27 -63.5 -41.5t-83.5 -14.5q-74 0 -122.5 37.5t-48.5 113.5q0 78 54.5 122.5t152.5 44.5h112q4 0 4 4v27q0 44 -25.5 68.5t-77.5 24.5q-42 0 -68.5 -16.5
t-32.5 -44.5q-3 -10 -12 -9l-81 11q-10 2 -9 8q8 59 63 96.5t138 37.5zM230 73q53 0 92 28t39 71v59q0 4 -4 4h-94q-59 0 -94 -23t-35 -64q0 -37 26.5 -56t69.5 -19zM258 576q-55 0 -93 30t-42 75v2q0 8 9 8l40 -1q9 0 11 -9q4 -25 25 -40.5t50 -15.5t50.5 15.5t25.5 40.5
q1 10 11 10h39q10 0 9 -9q-3 -45 -41.5 -75.5t-93.5 -30.5zM295 734q1 -2 1 -5t-2.5 -5t-6.5 -2h-54q-7 0 -12 7l-70 108q-2 4 -2 6q0 6 8 6h67q9 0 12 -7z" />
    <glyph glyph-name="uni1EB2" unicode="&#x1eb2;" horiz-adv-x="630" 
d="M507 0q-9 0 -12 8l-36 117q-1 3 -4 3h-281q-3 0 -4 -3l-36 -117q-3 -8 -12 -8h-81q-11 0 -8 11l219 681q3 8 12 8h100q9 0 12 -8l221 -681l1 -4q0 -7 -9 -7h-82zM195 209q-1 -2 0.5 -3.5t3.5 -1.5h230q2 0 3.5 1.5t0.5 3.5l-116 371q-1 2 -3 2t-3 -2zM313 767
q-55 0 -93 30t-42 75v2q0 8 9 8l40 -1q9 0 11 -9q4 -25 25 -40.5t50 -15.5t50.5 15.5t25.5 40.5q1 10 11 10h39q10 0 9 -9q-3 -45 -41.5 -75.5t-93.5 -30.5zM302 902q-11 3 -6 12q9 20 20 33t13 16q12 12 17.5 21.5t5.5 23.5q0 13 -10.5 22t-25.5 9q-17 0 -27 -7t-25 -27
q-6 -8 -14 -2l-24 16q-8 6 -3 14q20 31 40.5 43.5t54.5 12.5q40 0 64.5 -22t24.5 -59q0 -23 -10 -39t-28 -33q-3 -3 -12.5 -13.5t-14.5 -20.5q-4 -7 -13 -6z" />
    <glyph glyph-name="uni1EB3" unicode="&#x1eb3;" horiz-adv-x="517" 
d="M256 517q61 0 106.5 -21.5t70 -60t24.5 -87.5v-338q0 -10 -10 -10h-76q-10 0 -10 10v36q0 5 -5 2q-26 -27 -63.5 -41.5t-83.5 -14.5q-74 0 -122.5 37.5t-48.5 113.5q0 78 54.5 122.5t152.5 44.5h112q4 0 4 4v27q0 44 -25.5 68.5t-77.5 24.5q-42 0 -68.5 -16.5
t-32.5 -44.5q-3 -10 -12 -9l-81 11q-10 2 -9 8q8 59 63 96.5t138 37.5zM230 73q53 0 92 28t39 71v59q0 4 -4 4h-94q-59 0 -94 -23t-35 -64q0 -37 26.5 -56t69.5 -19zM258 576q-55 0 -93 30t-42 75v2q0 8 9 8l40 -1q9 0 11 -9q4 -25 25 -40.5t50 -15.5t50.5 15.5t25.5 40.5
q1 10 11 10h39q10 0 9 -9q-3 -45 -41.5 -75.5t-93.5 -30.5zM247 711q-11 3 -6 12q9 20 20 33t13 16q12 12 17.5 21.5t5.5 23.5q0 13 -10.5 22t-25.5 9q-17 0 -27 -7t-25 -27q-6 -8 -14 -2l-24 16q-8 6 -3 14q20 31 40.5 43.5t54.5 12.5q40 0 64.5 -22t24.5 -59
q0 -23 -10 -39t-28 -33q-3 -3 -12.5 -13.5t-14.5 -20.5q-4 -7 -13 -6z" />
    <glyph glyph-name="uni1EB4" unicode="&#x1eb4;" horiz-adv-x="630" 
d="M507 0q-9 0 -12 8l-36 117q-1 3 -4 3h-281q-3 0 -4 -3l-36 -117q-3 -8 -12 -8h-81q-11 0 -8 11l219 681q3 8 12 8h100q9 0 12 -8l221 -681l1 -4q0 -7 -9 -7h-82zM195 209q-1 -2 0.5 -3.5t3.5 -1.5h230q2 0 3.5 1.5t0.5 3.5l-116 371q-1 2 -3 2t-3 -2zM375 913
q-18 0 -31.5 4.5t-27.5 13.5q-16 10 -25.5 13.5t-20.5 3.5q-16 0 -27.5 -5.5t-21.5 -16.5q-7 -7 -15 -1l-25 25q-7 7 -1 14q32 49 85 49q16 0 27.5 -4t22 -9.5t14.5 -7.5t13.5 -7.5t17.5 -8t15 -2.5q29 0 47 25q7 10 14 2l22 -25q3 -4 3.5 -7t-1.5 -7q-12 -23 -35 -36
t-50 -13zM313 767q-55 0 -93 30t-42 75v2q0 8 9 8l40 -1q9 0 11 -9q4 -25 25 -40.5t50 -15.5t50.5 15.5t25.5 40.5q1 10 11 10h39q10 0 10 -9q-4 -45 -42 -75.5t-94 -30.5z" />
    <glyph glyph-name="uni1EB5" unicode="&#x1eb5;" horiz-adv-x="517" 
d="M256 517q61 0 106.5 -21.5t70 -60t24.5 -87.5v-338q0 -10 -10 -10h-76q-10 0 -10 10v36q0 5 -5 2q-26 -27 -63.5 -41.5t-83.5 -14.5q-74 0 -122.5 37.5t-48.5 113.5q0 78 54.5 122.5t152.5 44.5h112q4 0 4 4v27q0 44 -25.5 68.5t-77.5 24.5q-42 0 -68.5 -16.5
t-32.5 -44.5q-3 -10 -12 -9l-81 11q-10 2 -9 8q8 59 63 96.5t138 37.5zM230 73q53 0 92 28t39 71v59q0 4 -4 4h-94q-59 0 -94 -23t-35 -64q0 -37 26.5 -56t69.5 -19zM320 722q-18 0 -31.5 4.5t-27.5 13.5q-16 10 -25.5 13.5t-20.5 3.5q-16 0 -27.5 -5.5t-21.5 -16.5
q-7 -7 -15 -1l-25 25q-7 7 -1 14q32 49 85 49q16 0 27.5 -4t22 -9.5t14.5 -7.5t13.5 -7.5t17.5 -8t15 -2.5q29 0 47 25q7 10 14 2l22 -25q3 -4 3.5 -7t-1.5 -7q-12 -23 -35 -36t-50 -13zM258 576q-55 0 -93 30t-42 75v2q0 8 9 8l40 -1q9 0 11 -9q4 -25 25 -40.5t50 -15.5
t50.5 15.5t25.5 40.5q1 10 11 10h39q10 0 10 -9q-4 -45 -42 -75.5t-94 -30.5z" />
    <glyph glyph-name="uni1EB6" unicode="&#x1eb6;" horiz-adv-x="630" 
d="M507 0q-9 0 -12 8l-36 117q-1 3 -4 3h-281q-3 0 -4 -3l-36 -117q-3 -8 -12 -8h-81q-11 0 -8 11l219 681q3 8 12 8h100q9 0 12 -8l221 -681l1 -4q0 -7 -9 -7h-82zM195 209q-1 -2 0.5 -3.5t3.5 -1.5h230q2 0 3.5 1.5t0.5 3.5l-116 371q-1 2 -3 2t-3 -2zM315 -195
q-26 0 -43.5 17.5t-17.5 43.5q0 27 17.5 44t43.5 17q27 0 44 -17t17 -44q0 -26 -17.5 -43.5t-43.5 -17.5zM313 767q-55 0 -93 30t-42 75v2q0 8 9 8l40 -1q9 0 11 -9q4 -25 25 -40.5t50 -15.5t50.5 15.5t25.5 40.5q1 10 11 10h39q10 0 9 -9q-3 -45 -41.5 -75.5t-93.5 -30.5z
" />
    <glyph glyph-name="uni1EB7" unicode="&#x1eb7;" horiz-adv-x="517" 
d="M256 517q61 0 106.5 -21.5t70 -60t24.5 -87.5v-338q0 -10 -10 -10h-76q-10 0 -10 10v36q0 5 -5 2q-26 -27 -63.5 -41.5t-83.5 -14.5q-74 0 -122.5 37.5t-48.5 113.5q0 78 54.5 122.5t152.5 44.5h112q4 0 4 4v27q0 44 -25.5 68.5t-77.5 24.5q-42 0 -68.5 -16.5
t-32.5 -44.5q-3 -10 -12 -9l-81 11q-10 2 -9 8q8 59 63 96.5t138 37.5zM230 73q53 0 92 28t39 71v59q0 4 -4 4h-94q-59 0 -94 -23t-35 -64q0 -37 26.5 -56t69.5 -19zM259 -195q-26 0 -43.5 17.5t-17.5 43.5q0 27 17.5 44t43.5 17q27 0 44 -17t17 -44q0 -26 -17.5 -43.5
t-43.5 -17.5zM258 576q-55 0 -93 30t-42 75v2q0 8 9 8l40 -1q9 0 11 -9q4 -25 25 -40.5t50 -15.5t50.5 15.5t25.5 40.5q1 10 11 10h39q10 0 9 -9q-3 -45 -41.5 -75.5t-93.5 -30.5z" />
    <glyph glyph-name="uni1EB8" unicode="&#x1eb8;" horiz-adv-x="598" 
d="M547 627q0 -10 -10 -10h-355q-4 0 -4 -4v-215q0 -4 4 -4h244q10 0 10 -10v-63q0 -10 -10 -10h-244q-4 0 -4 -4v-220q0 -4 4 -4h355q10 0 10 -10v-63q0 -10 -10 -10h-445q-10 0 -10 10v680q0 10 10 10h445q10 0 10 -10v-63zM317 -195q-26 0 -43.5 17.5t-17.5 43.5
q0 27 17.5 44t43.5 17q27 0 44 -17t17 -44q0 -26 -17.5 -43.5t-43.5 -17.5z" />
    <glyph glyph-name="uni1EB9" unicode="&#x1eb9;" horiz-adv-x="537" 
d="M482 318q4 -41 3 -92q0 -10 -10 -10h-319q-4 0 -4 -4q0 -34 6 -52q11 -40 44.5 -62.5t84.5 -22.5q74 0 114 61q5 10 13 3l57 -38q7 -6 3 -13q-28 -45 -79.5 -71t-116.5 -26q-73 0 -123 32t-75 91q-24 59 -24 143q0 73 11 111q18 69 72 109t131 40q101 0 151 -50.5
t61 -148.5zM270 434q-43 0 -71 -21.5t-38 -57.5q-7 -22 -9 -56q0 -4 4 -4h229q4 0 4 4q-2 33 -6 49q-10 39 -39.5 62.5t-73.5 23.5zM276 -204q-26 0 -43.5 17.5t-17.5 43.5q0 27 17.5 44t43.5 17q27 0 44 -17t17 -44q0 -26 -17.5 -43.5t-43.5 -17.5z" />
    <glyph glyph-name="uni1EBA" unicode="&#x1eba;" horiz-adv-x="598" 
d="M547 627q0 -10 -10 -10h-355q-4 0 -4 -4v-215q0 -4 4 -4h244q10 0 10 -10v-63q0 -10 -10 -10h-244q-4 0 -4 -4v-220q0 -4 4 -4h355q10 0 10 -10v-63q0 -10 -10 -10h-445q-10 0 -10 10v680q0 10 10 10h445q10 0 10 -10v-63zM300 748q-11 3 -6 12q9 20 20 33t13 16
q12 12 17.5 21.5t5.5 23.5q0 13 -10.5 22t-25.5 9q-17 0 -27 -7t-25 -27q-6 -8 -14 -2l-24 16q-8 6 -3 14q20 31 40.5 43.5t54.5 12.5q40 0 64.5 -22t24.5 -59q0 -23 -10 -39t-28 -33q-3 -3 -12.5 -13.5t-14.5 -20.5q-4 -7 -13 -6z" />
    <glyph glyph-name="uni1EBB" unicode="&#x1ebb;" horiz-adv-x="537" 
d="M482 318q4 -41 3 -92q0 -10 -10 -10h-319q-4 0 -4 -4q0 -34 6 -52q11 -40 44.5 -62.5t84.5 -22.5q74 0 114 61q5 10 13 3l57 -38q7 -6 3 -13q-28 -45 -79.5 -71t-116.5 -26q-73 0 -123 32t-75 91q-24 59 -24 143q0 73 11 111q18 69 72 109t131 40q101 0 151 -50.5
t61 -148.5zM270 434q-43 0 -71 -21.5t-38 -57.5q-7 -22 -9 -56q0 -4 4 -4h229q4 0 4 4q-2 33 -6 49q-10 39 -39.5 62.5t-73.5 23.5zM257 557q-11 3 -6 12q9 20 20 33t13 16q12 12 17.5 21.5t5.5 23.5q0 13 -10.5 22t-25.5 9q-17 0 -27 -7t-25 -27q-6 -8 -14 -2l-24 16
q-8 6 -3 14q20 31 40.5 43.5t54.5 12.5q40 0 64.5 -22t24.5 -59q0 -23 -10 -39t-28 -33q-3 -3 -12.5 -13.5t-14.5 -20.5q-4 -7 -13 -6z" />
    <glyph glyph-name="uni1EBC" unicode="&#x1ebc;" horiz-adv-x="598" 
d="M547 627q0 -10 -10 -10h-355q-4 0 -4 -4v-215q0 -4 4 -4h244q10 0 10 -10v-63q0 -10 -10 -10h-244q-4 0 -4 -4v-220q0 -4 4 -4h355q10 0 10 -10v-63q0 -10 -10 -10h-445q-10 0 -10 10v680q0 10 10 10h445q10 0 10 -10v-63zM374 784q-19 0 -33 5t-31 15q-19 10 -28.5 14
t-20.5 4q-32 0 -53 -22l-4 -4q-2 -3 -5.5 -3t-6.5 3l-28 28q-7 7 -2 14q17 26 41 40t53 14q17 0 29.5 -4.5t23.5 -10.5t15 -8t14.5 -8t19 -8.5t16.5 -2.5q31 0 52 27q6 10 14 2l25 -28q3 -4 3.5 -7t-1.5 -7q-12 -25 -37.5 -39t-55.5 -14z" />
    <glyph glyph-name="uni1EBD" unicode="&#x1ebd;" horiz-adv-x="537" 
d="M482 318q4 -41 3 -92q0 -10 -10 -10h-319q-4 0 -4 -4q0 -34 6 -52q11 -40 44.5 -62.5t84.5 -22.5q74 0 114 61q5 10 13 3l57 -38q7 -6 3 -13q-28 -45 -79.5 -71t-116.5 -26q-73 0 -123 32t-75 91q-24 59 -24 143q0 73 11 111q18 69 72 109t131 40q101 0 151 -50.5
t61 -148.5zM270 434q-43 0 -71 -21.5t-38 -57.5q-7 -22 -9 -56q0 -4 4 -4h229q4 0 4 4q-2 33 -6 49q-10 39 -39.5 62.5t-73.5 23.5zM331 593q-19 0 -33 5t-31 15q-19 10 -28.5 14t-20.5 4q-32 0 -53 -22l-4 -4q-2 -3 -5.5 -3t-6.5 3l-28 28q-7 7 -2 14q17 26 41 40t53 14
q17 0 29.5 -4.5t23.5 -10.5t15 -8t14.5 -8t19 -8.5t16.5 -2.5q31 0 52 27q6 10 14 2l25 -28q3 -4 3.5 -7t-1.5 -7q-12 -25 -37.5 -39t-55.5 -14z" />
    <glyph glyph-name="uni1EBE" unicode="&#x1ebe;" horiz-adv-x="598" 
d="M547 627q0 -10 -10 -10h-355q-4 0 -4 -4v-215q0 -4 4 -4h244q10 0 10 -10v-63q0 -10 -10 -10h-244q-4 0 -4 -4v-220q0 -4 4 -4h355q10 0 10 -10v-63q0 -10 -10 -10h-445q-10 0 -10 10v680q0 10 10 10h445q10 0 10 -10v-63zM182 764q-6 0 -8 3.5t2 8.5l79 109q4 6 13 6h85
q9 0 13 -6l79 -109q2 -2 2 -6q0 -2 -2 -4t-6 -2h-59q-8 0 -12 6l-53 76q-1 2 -3 2t-3 -2l-55 -76q-4 -6 -12 -6h-60zM453 840q-6 0 -8.5 3.5t0.5 8.5l59 108q3 7 12 7h67q6 0 7.5 -3.5t-1.5 -8.5l-71 -108q-5 -7 -12 -7h-53z" />
    <glyph glyph-name="uni1EBF" unicode="&#x1ebf;" horiz-adv-x="537" 
d="M482 318q4 -41 3 -92q0 -10 -10 -10h-319q-4 0 -4 -4q0 -34 6 -52q11 -40 44.5 -62.5t84.5 -22.5q74 0 114 61q5 10 13 3l57 -38q7 -6 3 -13q-28 -45 -79.5 -71t-116.5 -26q-73 0 -123 32t-75 91q-24 59 -24 143q0 73 11 111q18 69 72 109t131 40q101 0 151 -50.5
t61 -148.5zM270 434q-43 0 -71 -21.5t-38 -57.5q-7 -22 -9 -56q0 -4 4 -4h229q4 0 4 4q-2 33 -6 49q-10 39 -39.5 62.5t-73.5 23.5zM139 573q-6 0 -8 3.5t2 8.5l79 109q4 6 13 6h85q9 0 13 -6l79 -109q2 -2 2 -6q0 -2 -2 -4t-6 -2h-59q-8 0 -12 6l-53 76q-1 2 -3 2t-3 -2
l-55 -76q-4 -6 -12 -6h-60zM410 649q-6 0 -8.5 3.5t0.5 8.5l59 108q3 7 12 7h67q6 0 7.5 -3.5t-1.5 -8.5l-71 -108q-5 -7 -12 -7h-53z" />
    <glyph glyph-name="uni1EC0" unicode="&#x1ec0;" horiz-adv-x="598" 
d="M547 627q0 -10 -10 -10h-355q-4 0 -4 -4v-215q0 -4 4 -4h244q10 0 10 -10v-63q0 -10 -10 -10h-244q-4 0 -4 -4v-220q0 -4 4 -4h355q10 0 10 -10v-63q0 -10 -10 -10h-445q-10 0 -10 10v680q0 10 10 10h445q10 0 10 -10v-63zM182 764q-6 0 -8 3.5t2 8.5l79 109q4 6 13 6h85
q9 0 13 -6l79 -109q2 -2 2 -6q0 -2 -2 -4t-6 -2h-59q-8 0 -12 6l-53 76q-1 2 -3 2t-3 -2l-55 -76q-4 -6 -12 -6h-60zM502 893q1 -2 1 -5t-2.5 -5t-6.5 -2h-54q-7 0 -12 7l-70 108q-2 4 -2 6q0 6 8 6h67q9 0 12 -7z" />
    <glyph glyph-name="uni1EC1" unicode="&#x1ec1;" horiz-adv-x="537" 
d="M482 318q4 -41 3 -92q0 -10 -10 -10h-319q-4 0 -4 -4q0 -34 6 -52q11 -40 44.5 -62.5t84.5 -22.5q74 0 114 61q5 10 13 3l57 -38q7 -6 3 -13q-28 -45 -79.5 -71t-116.5 -26q-73 0 -123 32t-75 91q-24 59 -24 143q0 73 11 111q18 69 72 109t131 40q101 0 151 -50.5
t61 -148.5zM270 434q-43 0 -71 -21.5t-38 -57.5q-7 -22 -9 -56q0 -4 4 -4h229q4 0 4 4q-2 33 -6 49q-10 39 -39.5 62.5t-73.5 23.5zM139 573q-6 0 -8 3.5t2 8.5l79 109q4 6 13 6h85q9 0 13 -6l79 -109q2 -2 2 -6q0 -2 -2 -4t-6 -2h-59q-8 0 -12 6l-53 76q-1 2 -3 2t-3 -2
l-55 -76q-4 -6 -12 -6h-60zM459 702q1 -2 1 -5t-2.5 -5t-6.5 -2h-54q-7 0 -12 7l-70 108q-2 4 -2 6q0 6 8 6h67q9 0 12 -7z" />
    <glyph glyph-name="uni1EC2" unicode="&#x1ec2;" horiz-adv-x="598" 
d="M547 627q0 -10 -10 -10h-355q-4 0 -4 -4v-215q0 -4 4 -4h244q10 0 10 -10v-63q0 -10 -10 -10h-244q-4 0 -4 -4v-220q0 -4 4 -4h355q10 0 10 -10v-63q0 -10 -10 -10h-445q-10 0 -10 10v680q0 10 10 10h445q10 0 10 -10v-63zM182 764q-6 0 -8 3.5t2 8.5l79 109q4 6 13 6h85
q9 0 13 -6l79 -109q2 -2 2 -6q0 -2 -2 -4t-6 -2h-59q-8 0 -12 6l-53 76q-1 2 -3 2t-3 -2l-55 -76q-4 -6 -12 -6h-60zM430 868q-11 3 -6 12q9 20 20 33t13 16q12 12 17.5 21.5t5.5 23.5q0 13 -10.5 22t-25.5 9q-17 0 -27 -7t-25 -27q-6 -8 -14 -2l-24 16q-8 6 -3 14
q20 31 40.5 43.5t54.5 12.5q40 0 64.5 -22t24.5 -59q0 -23 -10 -39t-28 -33q-3 -3 -12.5 -13.5t-14.5 -20.5q-4 -7 -13 -6z" />
    <glyph glyph-name="uni1EC3" unicode="&#x1ec3;" horiz-adv-x="537" 
d="M482 318q4 -41 3 -92q0 -10 -10 -10h-319q-4 0 -4 -4q0 -34 6 -52q11 -40 44.5 -62.5t84.5 -22.5q74 0 114 61q5 10 13 3l57 -38q7 -6 3 -13q-28 -45 -79.5 -71t-116.5 -26q-73 0 -123 32t-75 91q-24 59 -24 143q0 73 11 111q18 69 72 109t131 40q101 0 151 -50.5
t61 -148.5zM270 434q-43 0 -71 -21.5t-38 -57.5q-7 -22 -9 -56q0 -4 4 -4h229q4 0 4 4q-2 33 -6 49q-10 39 -39.5 62.5t-73.5 23.5zM139 573q-6 0 -8 3.5t2 8.5l79 109q4 6 13 6h85q9 0 13 -6l79 -109q2 -2 2 -6q0 -2 -2 -4t-6 -2h-59q-8 0 -12 6l-53 76q-1 2 -3 2t-3 -2
l-55 -76q-4 -6 -12 -6h-60zM387 677q-11 3 -6 12q9 20 20 33t13 16q12 12 17.5 21.5t5.5 23.5q0 13 -10.5 22t-25.5 9q-17 0 -27 -7t-25 -27q-6 -8 -14 -2l-24 16q-8 6 -3 14q20 31 40.5 43.5t54.5 12.5q40 0 64.5 -22t24.5 -59q0 -23 -10 -39t-28 -33q-3 -3 -12.5 -13.5
t-14.5 -20.5q-4 -7 -13 -6z" />
    <glyph glyph-name="uni1EC4" unicode="&#x1ec4;" horiz-adv-x="598" 
d="M547 627q0 -10 -10 -10h-355q-4 0 -4 -4v-215q0 -4 4 -4h244q10 0 10 -10v-63q0 -10 -10 -10h-244q-4 0 -4 -4v-220q0 -4 4 -4h355q10 0 10 -10v-63q0 -10 -10 -10h-445q-10 0 -10 10v680q0 10 10 10h445q10 0 10 -10v-63zM182 764q-6 0 -8 3.5t2 8.5l79 109q4 6 13 6h85
q9 0 13 -6l79 -109q2 -2 2 -6q0 -2 -2 -4t-6 -2h-59q-8 0 -12 6l-53 76q-1 2 -3 2t-3 -2l-55 -76q-4 -6 -12 -6h-60zM374 923q-19 0 -33 5t-31 15q-19 10 -28.5 14t-20.5 4q-32 0 -53 -22l-4 -4q-2 -3 -5.5 -3t-6.5 3l-28 28q-7 7 -2 14q17 26 41 40t53 14q17 0 29.5 -4.5
t23.5 -10.5t15 -8t14.5 -8t19 -8.5t16.5 -2.5q31 0 52 27q6 10 14 2l25 -28q3 -4 3.5 -7t-1.5 -7q-12 -25 -37.5 -39t-55.5 -14z" />
    <glyph glyph-name="uni1EC5" unicode="&#x1ec5;" horiz-adv-x="537" 
d="M482 318q4 -41 3 -92q0 -10 -10 -10h-319q-4 0 -4 -4q0 -34 6 -52q11 -40 44.5 -62.5t84.5 -22.5q74 0 114 61q5 10 13 3l57 -38q7 -6 3 -13q-28 -45 -79.5 -71t-116.5 -26q-73 0 -123 32t-75 91q-24 59 -24 143q0 73 11 111q18 69 72 109t131 40q101 0 151 -50.5
t61 -148.5zM270 434q-43 0 -71 -21.5t-38 -57.5q-7 -22 -9 -56q0 -4 4 -4h229q4 0 4 4q-2 33 -6 49q-10 39 -39.5 62.5t-73.5 23.5zM139 573q-6 0 -8 3.5t2 8.5l79 109q4 6 13 6h85q9 0 13 -6l79 -109q2 -2 2 -6q0 -2 -2 -4t-6 -2h-59q-8 0 -12 6l-53 76q-1 2 -3 2t-3 -2
l-55 -76q-4 -6 -12 -6h-60zM331 732q-19 0 -33 5t-31 15q-19 10 -28.5 14t-20.5 4q-32 0 -53 -22l-4 -4q-2 -3 -5.5 -3t-6.5 3l-28 28q-7 7 -2 14q17 26 41 40t53 14q17 0 29.5 -4.5t23.5 -10.5t15 -8t14.5 -8t19 -8.5t16.5 -2.5q31 0 52 27q6 10 14 2l25 -28q3 -4 3.5 -7
t-1.5 -7q-12 -25 -37.5 -39t-55.5 -14z" />
    <glyph glyph-name="uni1EC6" unicode="&#x1ec6;" horiz-adv-x="598" 
d="M547 627q0 -10 -10 -10h-355q-4 0 -4 -4v-215q0 -4 4 -4h244q10 0 10 -10v-63q0 -10 -10 -10h-244q-4 0 -4 -4v-220q0 -4 4 -4h355q10 0 10 -10v-63q0 -10 -10 -10h-445q-10 0 -10 10v680q0 10 10 10h445q10 0 10 -10v-63zM317 -195q-26 0 -43.5 17.5t-17.5 43.5
q0 27 17.5 44t43.5 17q27 0 44 -17t17 -44q0 -26 -17.5 -43.5t-43.5 -17.5zM182 764q-6 0 -8 3.5t2 8.5l79 109q4 6 13 6h85q9 0 13 -6l79 -109q2 -2 2 -6q0 -2 -2 -4t-6 -2h-59q-8 0 -12 6l-53 76q-1 2 -3 2t-3 -2l-55 -76q-4 -6 -12 -6h-60z" />
    <glyph glyph-name="uni1EC7" unicode="&#x1ec7;" horiz-adv-x="537" 
d="M482 318q4 -41 3 -92q0 -10 -10 -10h-319q-4 0 -4 -4q0 -34 6 -52q11 -40 44.5 -62.5t84.5 -22.5q74 0 114 61q5 10 13 3l57 -38q7 -6 3 -13q-28 -45 -79.5 -71t-116.5 -26q-73 0 -123 32t-75 91q-24 59 -24 143q0 73 11 111q18 69 72 109t131 40q101 0 151 -50.5
t61 -148.5zM270 434q-43 0 -71 -21.5t-38 -57.5q-7 -22 -9 -56q0 -4 4 -4h229q4 0 4 4q-2 33 -6 49q-10 39 -39.5 62.5t-73.5 23.5zM276 -204q-26 0 -43.5 17.5t-17.5 43.5q0 27 17.5 44t43.5 17q27 0 44 -17t17 -44q0 -26 -17.5 -43.5t-43.5 -17.5zM139 573q-6 0 -8 3.5
t2 8.5l79 109q4 6 13 6h85q9 0 13 -6l79 -109q2 -2 2 -6q0 -2 -2 -4t-6 -2h-59q-8 0 -12 6l-53 76q-1 2 -3 2t-3 -2l-55 -76q-4 -6 -12 -6h-60z" />
    <glyph glyph-name="uni1EC8" unicode="&#x1ec8;" horiz-adv-x="260" 
d="M92 0q-10 0 -10 10v680q0 10 10 10h76q10 0 10 -10v-680q0 -10 -10 -10h-76zM119 748q-11 3 -6 12q9 20 20 33t13 16q12 12 17.5 21.5t5.5 23.5q0 13 -10.5 22t-25.5 9q-17 0 -27 -7t-25 -27q-6 -8 -14 -2l-24 16q-8 6 -3 14q20 31 40.5 43.5t54.5 12.5q40 0 64.5 -22
t24.5 -59q0 -23 -10 -39t-28 -33q-3 -3 -12.5 -13.5t-14.5 -20.5q-4 -7 -13 -6z" />
    <glyph glyph-name="uni1EC9" unicode="&#x1ec9;" horiz-adv-x="221" 
d="M72 0q-10 0 -10 10v489q0 10 10 10h76q10 0 10 -10v-489q0 -10 -10 -10h-76zM99 557q-11 3 -6 12q9 20 20 33t13 16q12 12 17.5 21.5t5.5 23.5q0 13 -10.5 22t-25.5 9q-17 0 -27 -7t-25 -27q-6 -8 -14 -2l-24 16q-8 6 -3 14q20 31 40.5 43.5t54.5 12.5q40 0 64.5 -22
t24.5 -59q0 -23 -10 -39t-28 -33q-3 -3 -12.5 -13.5t-14.5 -20.5q-4 -7 -13 -6z" />
    <glyph glyph-name="uni1ECA" unicode="&#x1eca;" horiz-adv-x="260" 
d="M92 0q-10 0 -10 10v680q0 10 10 10h76q10 0 10 -10v-680q0 -10 -10 -10h-76zM130 -195q-26 0 -43.5 17.5t-17.5 43.5q0 27 17.5 44t43.5 17q27 0 44 -17t17 -44q0 -26 -17.5 -43.5t-43.5 -17.5z" />
    <glyph glyph-name="uni1ECB" unicode="&#x1ecb;" horiz-adv-x="255" 
d="M128 589q-28 0 -46 18t-18 46t18 46t46 18t46 -18t18 -46t-18 -46t-46 -18zM88 1q-10 0 -10 10v488q0 10 10 10h76q10 0 10 -10v-488q0 -10 -10 -10h-76zM128 -195q-26 0 -43.5 17.5t-17.5 43.5q0 27 17.5 44t43.5 17q27 0 44 -17t17 -44q0 -26 -17.5 -43.5t-43.5 -17.5z
" />
    <glyph glyph-name="uni1ECC" unicode="&#x1ecc;" horiz-adv-x="622" 
d="M310 -9q-73 0 -129 30t-87 84.5t-31 125.5v238q0 71 31 125t87 84t129 30q74 0 130 -30t87 -84t31 -125v-238q0 -71 -31 -125.5t-87 -84.5t-130 -30zM310 74q68 0 110 42t42 111v243q0 70 -42 112.5t-110 42.5t-109.5 -42.5t-41.5 -112.5v-243q0 -69 41.5 -111t109.5 -42
zM311 -195q-26 0 -43.5 17.5t-17.5 43.5q0 27 17.5 44t43.5 17q27 0 44 -17t17 -44q0 -26 -17.5 -43.5t-43.5 -17.5z" />
    <glyph glyph-name="uni1ECD" unicode="&#x1ecd;" 
d="M278 -8q-74 0 -129 37.5t-77 104.5q-18 54 -18 122q0 71 17 120q22 66 77 103.5t131 37.5q72 0 125.5 -37.5t76.5 -102.5q18 -51 18 -120q0 -70 -18 -123q-22 -67 -76 -104.5t-127 -37.5zM278 75q40 0 70 22.5t43 63.5q11 38 11 94t-10 93q-13 41 -43 63.5t-73 22.5
q-41 0 -71 -22.5t-43 -63.5q-11 -35 -11 -93t11 -94q12 -41 42.5 -63.5t73.5 -22.5zM271 -195q-26 0 -43.5 17.5t-17.5 43.5q0 27 17.5 44t43.5 17q27 0 44 -17t17 -44q0 -26 -17.5 -43.5t-43.5 -17.5z" />
    <glyph glyph-name="uni1ECE" unicode="&#x1ece;" horiz-adv-x="622" 
d="M310 -9q-73 0 -129 30t-87 84.5t-31 125.5v238q0 71 31 125t87 84t129 30q74 0 130 -30t87 -84t31 -125v-238q0 -71 -31 -125.5t-87 -84.5t-130 -30zM310 74q68 0 110 42t42 111v243q0 70 -42 112.5t-110 42.5t-109.5 -42.5t-41.5 -112.5v-243q0 -69 41.5 -111t109.5 -42
zM299 748q-11 3 -6 12q9 20 20 33t13 16q12 12 17.5 21.5t5.5 23.5q0 13 -10.5 22t-25.5 9q-17 0 -27 -7t-25 -27q-6 -8 -14 -2l-24 16q-8 6 -3 14q20 31 40.5 43.5t54.5 12.5q40 0 64.5 -22t24.5 -59q0 -23 -10 -39t-28 -33q-3 -3 -12.5 -13.5t-14.5 -20.5q-4 -7 -13 -6z
" />
    <glyph glyph-name="uni1ECF" unicode="&#x1ecf;" 
d="M278 -8q-74 0 -129 37.5t-77 104.5q-18 54 -18 122q0 71 17 120q22 66 77 103.5t131 37.5q72 0 125.5 -37.5t76.5 -102.5q18 -51 18 -120q0 -70 -18 -123q-22 -67 -76 -104.5t-127 -37.5zM278 75q40 0 70 22.5t43 63.5q11 38 11 94t-10 93q-13 41 -43 63.5t-73 22.5
q-41 0 -71 -22.5t-43 -63.5q-11 -35 -11 -93t11 -94q12 -41 42.5 -63.5t73.5 -22.5zM259 557q-11 3 -6 12q9 20 20 33t13 16q12 12 17.5 21.5t5.5 23.5q0 13 -10.5 22t-25.5 9q-17 0 -27 -7t-25 -27q-6 -8 -14 -2l-24 16q-8 6 -3 14q20 31 40.5 43.5t54.5 12.5
q40 0 64.5 -22t24.5 -59q0 -23 -10 -39t-28 -33q-3 -3 -12.5 -13.5t-14.5 -20.5q-4 -7 -13 -6z" />
    <glyph glyph-name="uni1ED0" unicode="&#x1ed0;" horiz-adv-x="622" 
d="M310 -9q-73 0 -129 30t-87 84.5t-31 125.5v238q0 71 31 125t87 84t129 30q74 0 130 -30t87 -84t31 -125v-238q0 -71 -31 -125.5t-87 -84.5t-130 -30zM310 74q68 0 110 42t42 111v243q0 70 -42 112.5t-110 42.5t-109.5 -42.5t-41.5 -112.5v-243q0 -69 41.5 -111t109.5 -42
zM181 764q-6 0 -8 3.5t2 8.5l79 109q4 6 13 6h85q9 0 13 -6l79 -109q2 -2 2 -6q0 -2 -2 -4t-6 -2h-59q-8 0 -12 6l-53 76q-1 2 -3 2t-3 -2l-55 -76q-4 -6 -12 -6h-60zM452 840q-6 0 -8.5 3.5t0.5 8.5l59 108q3 7 12 7h67q6 0 7.5 -3.5t-1.5 -8.5l-71 -108q-5 -7 -12 -7h-53z
" />
    <glyph glyph-name="uni1ED1" unicode="&#x1ed1;" 
d="M278 -8q-74 0 -129 37.5t-77 104.5q-18 54 -18 122q0 71 17 120q22 66 77 103.5t131 37.5q72 0 125.5 -37.5t76.5 -102.5q18 -51 18 -120q0 -70 -18 -123q-22 -67 -76 -104.5t-127 -37.5zM278 75q40 0 70 22.5t43 63.5q11 38 11 94t-10 93q-13 41 -43 63.5t-73 22.5
q-41 0 -71 -22.5t-43 -63.5q-11 -35 -11 -93t11 -94q12 -41 42.5 -63.5t73.5 -22.5zM141 573q-6 0 -8 3.5t2 8.5l79 109q4 6 13 6h85q9 0 13 -6l79 -109q2 -2 2 -6q0 -2 -2 -4t-6 -2h-59q-8 0 -12 6l-53 76q-1 2 -3 2t-3 -2l-55 -76q-4 -6 -12 -6h-60zM412 649
q-6 0 -8.5 3.5t0.5 8.5l59 108q3 7 12 7h67q6 0 7.5 -3.5t-1.5 -8.5l-71 -108q-5 -7 -12 -7h-53z" />
    <glyph glyph-name="uni1ED2" unicode="&#x1ed2;" horiz-adv-x="622" 
d="M310 -9q-73 0 -129 30t-87 84.5t-31 125.5v238q0 71 31 125t87 84t129 30q74 0 130 -30t87 -84t31 -125v-238q0 -71 -31 -125.5t-87 -84.5t-130 -30zM310 74q68 0 110 42t42 111v243q0 70 -42 112.5t-110 42.5t-109.5 -42.5t-41.5 -112.5v-243q0 -69 41.5 -111t109.5 -42
zM181 764q-6 0 -8 3.5t2 8.5l79 109q4 6 13 6h85q9 0 13 -6l79 -109q2 -2 2 -6q0 -2 -2 -4t-6 -2h-59q-8 0 -12 6l-53 76q-1 2 -3 2t-3 -2l-55 -76q-4 -6 -12 -6h-60zM501 893q1 -2 1 -5t-2.5 -5t-6.5 -2h-54q-7 0 -12 7l-70 108q-2 4 -2 6q0 6 8 6h67q9 0 12 -7z" />
    <glyph glyph-name="uni1ED3" unicode="&#x1ed3;" 
d="M278 -8q-74 0 -129 37.5t-77 104.5q-18 54 -18 122q0 71 17 120q22 66 77 103.5t131 37.5q72 0 125.5 -37.5t76.5 -102.5q18 -51 18 -120q0 -70 -18 -123q-22 -67 -76 -104.5t-127 -37.5zM278 75q40 0 70 22.5t43 63.5q11 38 11 94t-10 93q-13 41 -43 63.5t-73 22.5
q-41 0 -71 -22.5t-43 -63.5q-11 -35 -11 -93t11 -94q12 -41 42.5 -63.5t73.5 -22.5zM141 573q-6 0 -8 3.5t2 8.5l79 109q4 6 13 6h85q9 0 13 -6l79 -109q2 -2 2 -6q0 -2 -2 -4t-6 -2h-59q-8 0 -12 6l-53 76q-1 2 -3 2t-3 -2l-55 -76q-4 -6 -12 -6h-60zM461 702q1 -2 1 -5
t-2.5 -5t-6.5 -2h-54q-7 0 -12 7l-70 108q-2 4 -2 6q0 6 8 6h67q9 0 12 -7z" />
    <glyph glyph-name="uni1ED4" unicode="&#x1ed4;" horiz-adv-x="622" 
d="M310 -9q-73 0 -129 30t-87 84.5t-31 125.5v238q0 71 31 125t87 84t129 30q74 0 130 -30t87 -84t31 -125v-238q0 -71 -31 -125.5t-87 -84.5t-130 -30zM310 74q68 0 110 42t42 111v243q0 70 -42 112.5t-110 42.5t-109.5 -42.5t-41.5 -112.5v-243q0 -69 41.5 -111t109.5 -42
zM181 764q-6 0 -8 3.5t2 8.5l79 109q4 6 13 6h85q9 0 13 -6l79 -109q2 -2 2 -6q0 -2 -2 -4t-6 -2h-59q-8 0 -12 6l-53 76q-1 2 -3 2t-3 -2l-55 -76q-4 -6 -12 -6h-60zM429 868q-11 3 -6 12q9 20 20 33t13 16q12 12 17.5 21.5t5.5 23.5q0 13 -10.5 22t-25.5 9q-17 0 -27 -7
t-25 -27q-6 -8 -14 -2l-24 16q-8 6 -3 14q20 31 40.5 43.5t54.5 12.5q40 0 64.5 -22t24.5 -59q0 -23 -10 -39t-28 -33q-3 -3 -12.5 -13.5t-14.5 -20.5q-4 -7 -13 -6z" />
    <glyph glyph-name="uni1ED5" unicode="&#x1ed5;" 
d="M278 -8q-74 0 -129 37.5t-77 104.5q-18 54 -18 122q0 71 17 120q22 66 77 103.5t131 37.5q72 0 125.5 -37.5t76.5 -102.5q18 -51 18 -120q0 -70 -18 -123q-22 -67 -76 -104.5t-127 -37.5zM278 75q40 0 70 22.5t43 63.5q11 38 11 94t-10 93q-13 41 -43 63.5t-73 22.5
q-41 0 -71 -22.5t-43 -63.5q-11 -35 -11 -93t11 -94q12 -41 42.5 -63.5t73.5 -22.5zM141 573q-6 0 -8 3.5t2 8.5l79 109q4 6 13 6h85q9 0 13 -6l79 -109q2 -2 2 -6q0 -2 -2 -4t-6 -2h-59q-8 0 -12 6l-53 76q-1 2 -3 2t-3 -2l-55 -76q-4 -6 -12 -6h-60zM389 677q-11 3 -6 12
q9 20 20 33t13 16q12 12 17.5 21.5t5.5 23.5q0 13 -10.5 22t-25.5 9q-17 0 -27 -7t-25 -27q-6 -8 -14 -2l-24 16q-8 6 -3 14q20 31 40.5 43.5t54.5 12.5q40 0 64.5 -22t24.5 -59q0 -23 -10 -39t-28 -33q-3 -3 -12.5 -13.5t-14.5 -20.5q-4 -7 -13 -6z" />
    <glyph glyph-name="uni1ED6" unicode="&#x1ed6;" horiz-adv-x="622" 
d="M310 -9q-73 0 -129 30t-87 84.5t-31 125.5v238q0 71 31 125t87 84t129 30q74 0 130 -30t87 -84t31 -125v-238q0 -71 -31 -125.5t-87 -84.5t-130 -30zM310 74q68 0 110 42t42 111v243q0 70 -42 112.5t-110 42.5t-109.5 -42.5t-41.5 -112.5v-243q0 -69 41.5 -111t109.5 -42
zM181 764q-6 0 -8 3.5t2 8.5l79 109q4 6 13 6h85q9 0 13 -6l79 -109q2 -2 2 -6q0 -2 -2 -4t-6 -2h-59q-8 0 -12 6l-53 76q-1 2 -3 2t-3 -2l-55 -76q-4 -6 -12 -6h-60zM373 923q-19 0 -33 5t-31 15q-19 10 -28.5 14t-20.5 4q-32 0 -53 -22l-4 -4q-2 -3 -5.5 -3t-6.5 3l-28 28
q-7 7 -2 14q17 26 41 40t53 14q17 0 29.5 -4.5t23.5 -10.5t15 -8t14.5 -8t19 -8.5t16.5 -2.5q31 0 52 27q6 10 14 2l25 -28q3 -4 3.5 -7t-1.5 -7q-12 -25 -37.5 -39t-55.5 -14z" />
    <glyph glyph-name="uni1ED7" unicode="&#x1ed7;" 
d="M278 -8q-74 0 -129 37.5t-77 104.5q-18 54 -18 122q0 71 17 120q22 66 77 103.5t131 37.5q72 0 125.5 -37.5t76.5 -102.5q18 -51 18 -120q0 -70 -18 -123q-22 -67 -76 -104.5t-127 -37.5zM278 75q40 0 70 22.5t43 63.5q11 38 11 94t-10 93q-13 41 -43 63.5t-73 22.5
q-41 0 -71 -22.5t-43 -63.5q-11 -35 -11 -93t11 -94q12 -41 42.5 -63.5t73.5 -22.5zM141 573q-6 0 -8 3.5t2 8.5l79 109q4 6 13 6h85q9 0 13 -6l79 -109q2 -2 2 -6q0 -2 -2 -4t-6 -2h-59q-8 0 -12 6l-53 76q-1 2 -3 2t-3 -2l-55 -76q-4 -6 -12 -6h-60zM333 732q-19 0 -33 5
t-31 15q-19 10 -28.5 14t-20.5 4q-32 0 -53 -22l-4 -4q-2 -3 -5.5 -3t-6.5 3l-28 28q-7 7 -2 14q17 26 41 40t53 14q17 0 29.5 -4.5t23.5 -10.5t15 -8t14.5 -8t19 -8.5t16.5 -2.5q31 0 52 27q6 10 14 2l25 -28q3 -4 3.5 -7t-1.5 -7q-12 -25 -37.5 -39t-55.5 -14z" />
    <glyph glyph-name="uni1ED8" unicode="&#x1ed8;" horiz-adv-x="622" 
d="M310 -9q-73 0 -129 30t-87 84.5t-31 125.5v238q0 71 31 125t87 84t129 30q74 0 130 -30t87 -84t31 -125v-238q0 -71 -31 -125.5t-87 -84.5t-130 -30zM310 74q68 0 110 42t42 111v243q0 70 -42 112.5t-110 42.5t-109.5 -42.5t-41.5 -112.5v-243q0 -69 41.5 -111t109.5 -42
zM311 -195q-26 0 -43.5 17.5t-17.5 43.5q0 27 17.5 44t43.5 17q27 0 44 -17t17 -44q0 -26 -17.5 -43.5t-43.5 -17.5zM181 764q-6 0 -8 3.5t2 8.5l79 109q4 6 13 6h85q9 0 13 -6l79 -109q2 -2 2 -6q0 -2 -2 -4t-6 -2h-59q-8 0 -12 6l-53 76q-1 2 -3 2t-3 -2l-55 -76
q-4 -6 -12 -6h-60z" />
    <glyph glyph-name="uni1ED9" unicode="&#x1ed9;" 
d="M278 -8q-74 0 -129 37.5t-77 104.5q-18 54 -18 122q0 71 17 120q22 66 77 103.5t131 37.5q72 0 125.5 -37.5t76.5 -102.5q18 -51 18 -120q0 -70 -18 -123q-22 -67 -76 -104.5t-127 -37.5zM278 75q40 0 70 22.5t43 63.5q11 38 11 94t-10 93q-13 41 -43 63.5t-73 22.5
q-41 0 -71 -22.5t-43 -63.5q-11 -35 -11 -93t11 -94q12 -41 42.5 -63.5t73.5 -22.5zM271 -195q-26 0 -43.5 17.5t-17.5 43.5q0 27 17.5 44t43.5 17q27 0 44 -17t17 -44q0 -26 -17.5 -43.5t-43.5 -17.5zM142 573q-6 0 -8 3.5t2 8.5l79 109q4 6 13 6h85q9 0 13 -6l79 -109
q2 -2 2 -6q0 -2 -2 -4t-6 -2h-59q-8 0 -12 6l-53 76q-1 2 -3 2t-3 -2l-55 -76q-4 -6 -12 -6h-60z" />
    <glyph glyph-name="uni1EDA" unicode="&#x1eda;" horiz-adv-x="622" 
d="M608 783q10 0 10 -10q-4 -56 -41 -88t-88 -37q-2 0 -2.5 -1.5t1.5 -2.5q34 -32 52 -76.5t18 -98.5v-238q0 -71 -31 -125.5t-87 -84.5t-130 -30q-73 0 -129 30t-87 84.5t-31 125.5v238q0 71 31 125t87 84t129 30q97 0 161 -50q5 -3 5 2v30q0 10 10 11q26 3 46.5 20.5
t23.5 51.5q0 10 10 10h42zM462 470q0 70 -42 112.5t-110 42.5t-109.5 -42.5t-41.5 -112.5v-243q0 -69 41.5 -111t109.5 -42t110 42t42 111v243zM268 764q-6 0 -8.5 3.5t0.5 8.5l59 108q3 7 12 7h67q6 0 7.5 -3.5t-1.5 -8.5l-71 -108q-5 -7 -12 -7h-53z" />
    <glyph glyph-name="uni1EDB" unicode="&#x1edb;" 
d="M481 377q18 -51 18 -120q0 -70 -18 -123q-22 -67 -76 -104.5t-127 -37.5q-74 0 -129 37.5t-77 104.5q-18 54 -18 122q0 71 17 120q22 66 77 103.5t131 37.5q20 0 58 -6q1 -1 4 -1q27 3 46.5 20.5t22.5 51.5q0 10 10 10h42q10 0 10 -10q-4 -68 -59 -102q-4 -4 0 -6
q49 -39 68 -97zM391 161q11 38 11 94t-10 93q-13 41 -43 63.5t-73 22.5q-41 0 -71 -22.5t-43 -63.5q-11 -35 -11 -93t11 -94q12 -41 42.5 -63.5t73.5 -22.5q40 0 70 22.5t43 63.5zM229 573q-6 0 -8.5 3.5t0.5 8.5l59 108q3 7 12 7h67q6 0 7.5 -3.5t-1.5 -8.5l-71 -108
q-5 -7 -12 -7h-53z" />
    <glyph glyph-name="uni1EDC" unicode="&#x1edc;" horiz-adv-x="622" 
d="M608 783q10 0 10 -10q-4 -56 -41 -88t-88 -37q-2 0 -2.5 -1.5t1.5 -2.5q34 -32 52 -76.5t18 -98.5v-238q0 -71 -31 -125.5t-87 -84.5t-130 -30q-73 0 -129 30t-87 84.5t-31 125.5v238q0 71 31 125t87 84t129 30q97 0 161 -50q5 -3 5 2v30q0 10 10 11q26 3 46.5 20.5
t23.5 51.5q0 10 10 10h42zM462 470q0 70 -42 112.5t-110 42.5t-109.5 -42.5t-41.5 -112.5v-243q0 -69 41.5 -111t109.5 -42t110 42t42 111v243zM347 776q1 -2 1 -5t-2.5 -5t-6.5 -2h-54q-7 0 -12 7l-70 108q-2 4 -2 6q0 6 8 6h67q9 0 12 -7z" />
    <glyph glyph-name="uni1EDD" unicode="&#x1edd;" 
d="M481 377q18 -51 18 -120q0 -70 -18 -123q-22 -67 -76 -104.5t-127 -37.5q-74 0 -129 37.5t-77 104.5q-18 54 -18 122q0 71 17 120q22 66 77 103.5t131 37.5q20 0 58 -6q1 -1 4 -1q27 3 46.5 20.5t22.5 51.5q0 10 10 10h42q10 0 10 -10q-4 -68 -59 -102q-4 -4 0 -6
q49 -39 68 -97zM391 161q11 38 11 94t-10 93q-13 41 -43 63.5t-73 22.5q-41 0 -71 -22.5t-43 -63.5q-11 -35 -11 -93t11 -94q12 -41 42.5 -63.5t73.5 -22.5q40 0 70 22.5t43 63.5zM307 585q1 -2 1 -5t-2.5 -5t-6.5 -2h-54q-7 0 -12 7l-70 108q-2 4 -2 6q0 6 8 6h67
q9 0 12 -7z" />
    <glyph glyph-name="uni1EDE" unicode="&#x1ede;" horiz-adv-x="622" 
d="M608 783q10 0 10 -10q-4 -56 -41 -88t-88 -37q-2 0 -2.5 -1.5t1.5 -2.5q34 -32 52 -76.5t18 -98.5v-238q0 -71 -31 -125.5t-87 -84.5t-130 -30q-73 0 -129 30t-87 84.5t-31 125.5v238q0 71 31 125t87 84t129 30q97 0 161 -50q5 -3 5 2v30q0 10 10 11q26 3 46.5 20.5
t23.5 51.5q0 10 10 10h42zM462 470q0 70 -42 112.5t-110 42.5t-109.5 -42.5t-41.5 -112.5v-243q0 -69 41.5 -111t109.5 -42t110 42t42 111v243zM299 748q-11 3 -6 12q9 20 20 33t13 16q12 12 17.5 21.5t5.5 23.5q0 13 -10.5 22t-25.5 9q-17 0 -27 -7t-25 -27q-6 -8 -14 -2
l-24 16q-8 6 -3 14q20 31 40.5 43.5t54.5 12.5q40 0 64.5 -22t24.5 -59q0 -23 -10 -39t-28 -33q-3 -3 -12.5 -13.5t-14.5 -20.5q-4 -7 -13 -6z" />
    <glyph glyph-name="uni1EDF" unicode="&#x1edf;" 
d="M481 377q18 -51 18 -120q0 -70 -18 -123q-22 -67 -76 -104.5t-127 -37.5q-74 0 -129 37.5t-77 104.5q-18 54 -18 122q0 71 17 120q22 66 77 103.5t131 37.5q20 0 58 -6q1 -1 4 -1q27 3 46.5 20.5t22.5 51.5q0 10 10 10h42q10 0 10 -10q-4 -68 -59 -102q-4 -4 0 -6
q49 -39 68 -97zM391 161q11 38 11 94t-10 93q-13 41 -43 63.5t-73 22.5q-41 0 -71 -22.5t-43 -63.5q-11 -35 -11 -93t11 -94q12 -41 42.5 -63.5t73.5 -22.5q40 0 70 22.5t43 63.5zM259 557q-11 3 -6 12q9 20 20 33t13 16q12 12 17.5 21.5t5.5 23.5q0 13 -10.5 22t-25.5 9
q-17 0 -27 -7t-25 -27q-6 -8 -14 -2l-24 16q-8 6 -3 14q20 31 40.5 43.5t54.5 12.5q40 0 64.5 -22t24.5 -59q0 -23 -10 -39t-28 -33q-3 -3 -12.5 -13.5t-14.5 -20.5q-4 -7 -13 -6z" />
    <glyph glyph-name="uni1EE0" unicode="&#x1ee0;" horiz-adv-x="622" 
d="M608 783q10 0 10 -10q-4 -56 -41 -88t-88 -37q-2 0 -2.5 -1.5t1.5 -2.5q34 -32 52 -76.5t18 -98.5v-238q0 -71 -31 -125.5t-87 -84.5t-130 -30q-73 0 -129 30t-87 84.5t-31 125.5v238q0 71 31 125t87 84t129 30q97 0 161 -50q5 -3 5 2v30q0 10 10 11q26 3 46.5 20.5
t23.5 51.5q0 10 10 10h42zM462 470q0 70 -42 112.5t-110 42.5t-109.5 -42.5t-41.5 -112.5v-243q0 -69 41.5 -111t109.5 -42t110 42t42 111v243zM360 797q-19 0 -33 5t-31 15q-19 10 -28.5 14t-20.5 4q-32 0 -53 -22l-4 -4q-2 -3 -5.5 -3t-6.5 3l-28 28q-7 7 -2 14
q17 26 41 40t53 14q17 0 29.5 -4.5t23.5 -10.5t15 -8t14.5 -8t19 -8.5t16.5 -2.5q31 0 52 27q6 10 14 2l25 -28q3 -4 3.5 -7t-1.5 -7q-12 -25 -37.5 -39t-55.5 -14z" />
    <glyph glyph-name="uni1EE1" unicode="&#x1ee1;" 
d="M481 377q18 -51 18 -120q0 -70 -18 -123q-22 -67 -76 -104.5t-127 -37.5q-74 0 -129 37.5t-77 104.5q-18 54 -18 122q0 71 17 120q22 66 77 103.5t131 37.5q20 0 58 -6q1 -1 4 -1q27 3 46.5 20.5t22.5 51.5q0 10 10 10h42q10 0 10 -10q-4 -68 -59 -102q-4 -4 0 -6
q49 -39 68 -97zM391 161q11 38 11 94t-10 93q-13 41 -43 63.5t-73 22.5q-41 0 -71 -22.5t-43 -63.5q-11 -35 -11 -93t11 -94q12 -41 42.5 -63.5t73.5 -22.5q40 0 70 22.5t43 63.5zM314 598q-19 0 -33 5t-31 15q-19 10 -28.5 14t-20.5 4q-32 0 -53 -22l-4 -4q-2 -3 -5.5 -3
t-6.5 3l-28 28q-7 7 -2 14q17 26 41 40t53 14q17 0 29.5 -4.5t23.5 -10.5t15 -8t14.5 -8t19 -8.5t16.5 -2.5q31 0 52 27q6 10 14 2l25 -28q3 -4 3.5 -7t-1.5 -7q-12 -25 -37.5 -39t-55.5 -14z" />
    <glyph glyph-name="uni1EE2" unicode="&#x1ee2;" horiz-adv-x="622" 
d="M608 783q10 0 10 -10q-4 -56 -41 -88t-88 -37q-2 0 -2.5 -1.5t1.5 -2.5q34 -32 52 -76.5t18 -98.5v-238q0 -71 -31 -125.5t-87 -84.5t-130 -30q-73 0 -129 30t-87 84.5t-31 125.5v238q0 71 31 125t87 84t129 30q97 0 161 -50q5 -3 5 2v30q0 10 10 11q26 3 46.5 20.5
t23.5 51.5q0 10 10 10h42zM462 470q0 70 -42 112.5t-110 42.5t-109.5 -42.5t-41.5 -112.5v-243q0 -69 41.5 -111t109.5 -42t110 42t42 111v243zM311 -195q-26 0 -43.5 17.5t-17.5 43.5q0 27 17.5 44t43.5 17q27 0 44 -17t17 -44q0 -26 -17.5 -43.5t-43.5 -17.5z" />
    <glyph glyph-name="uni1EE3" unicode="&#x1ee3;" 
d="M481 377q18 -51 18 -120q0 -70 -18 -123q-22 -67 -76 -104.5t-127 -37.5q-74 0 -129 37.5t-77 104.5q-18 54 -18 122q0 71 17 120q22 66 77 103.5t131 37.5q20 0 58 -6q1 -1 4 -1q27 3 46.5 20.5t22.5 51.5q0 10 10 10h42q10 0 10 -10q-4 -68 -59 -102q-4 -4 0 -6
q49 -39 68 -97zM391 161q11 38 11 94t-10 93q-13 41 -43 63.5t-73 22.5q-41 0 -71 -22.5t-43 -63.5q-11 -35 -11 -93t11 -94q12 -41 42.5 -63.5t73.5 -22.5q40 0 70 22.5t43 63.5zM271 -195q-26 0 -43.5 17.5t-17.5 43.5q0 27 17.5 44t43.5 17q27 0 44 -17t17 -44
q0 -26 -17.5 -43.5t-43.5 -17.5z" />
    <glyph glyph-name="uni1EE4" unicode="&#x1ee4;" horiz-adv-x="641" 
d="M321 -8q-73 0 -128.5 28.5t-86.5 81t-31 120.5v468q0 10 10 10h76q10 0 10 -10v-470q0 -65 41.5 -105t108.5 -40t108 40t41 105v470q0 10 10 10h76q10 0 10 -10v-468q0 -68 -30.5 -120.5t-86 -81t-128.5 -28.5zM322 -195q-26 0 -43.5 17.5t-17.5 43.5q0 27 17.5 44
t43.5 17q27 0 44 -17t17 -44q0 -26 -17.5 -43.5t-43.5 -17.5z" />
    <glyph glyph-name="uni1EE5" unicode="&#x1ee5;" 
d="M373 499q0 10 10 10h75q10 0 10 -10v-489q0 -10 -10 -10h-75q-10 0 -10 10v37q0 2 -1.5 2.5t-3.5 -1.5q-40 -55 -123 -55q-49 0 -90.5 19t-66.5 56t-25 90v341q0 10 10 10h75q10 0 10 -10v-311q0 -52 27.5 -82t77.5 -30t80 30.5t30 81.5v311zM265 -195q-26 0 -43.5 17.5
t-17.5 43.5q0 27 17.5 44t43.5 17q27 0 44 -17t17 -44q0 -26 -17.5 -43.5t-43.5 -17.5z" />
    </font>
</defs>
</svg>
