<?xml version="1.0" standalone="no"?>
<!DOCTYPE svg PUBLIC "-//W3C//DTD SVG 1.1//EN" "http://www.w3.org/Graphics/SVG/1.1/DTD/svg11.dtd" >
<svg xmlns="http://www.w3.org/2000/svg" xmlns:xlink="http://www.w3.org/1999/xlink" version="1.1">
<metadata>
Created by FontForge 20201107 at Mon Sep 15 10:59:20 2025
 By 
Copyright 2017 The Barlow Project Authors (https://github.com/jpt/barlow)
</metadata>
<defs>
<font id="INNOQ-MediumItalic" horiz-adv-x="525" >
  <font-face 
    font-family="INNO-Q Med"
    font-weight="500"
    font-style="italic"
    font-stretch="normal"
    units-per-em="1000"
    panose-1="0 0 0 0 0 0 0 0 0 0"
    ascent="800"
    descent="-200"
    x-height="509"
    cap-height="700"
    bbox="-541.333 -209 1113 1089"
    underline-thickness="50"
    underline-position="-100"
    slope="-7"
    unicode-range="U+000D-FB02"
  />
<missing-glyph horiz-adv-x="425" 
d="M66 696q0 4 4 4h418q1 0 2 -1t1 -3l-85 -692q0 -4 -4 -4h-418q-1 0 -2 1t-1 3zM239 239q9 0 11 10l3 29q3 19 15.5 32t39.5 32q38 27 60 53t28 72q1 6 1 18q0 51 -33.5 81.5t-90.5 30.5q-65 0 -109.5 -37t-51.5 -97l-1 -13q-2 -10 8 -10l47 -2q9 0 11 10l2 15
q4 32 27 51.5t57 19.5t52 -19t14 -50q-3 -27 -19.5 -45t-48.5 -41q-34 -25 -52 -45t-22 -52l-4 -33q-1 -4 1.5 -7t6.5 -3h48zM195 91q21 0 35.5 14.5t14.5 36.5q0 18 -10.5 29t-28.5 11q-21 0 -35.5 -15t-14.5 -37q0 -17 10.5 -28t28.5 -11z" />
    <glyph glyph-name="fi" unicode="fi" horiz-adv-x="604" 
d="M341 616q-49 0 -68.5 -19t-25.5 -72l-2 -12q0 -4 4 -4h102q4 0 6.5 -3t1.5 -7l-8 -68q-2 -10 -11 -10h-102q-4 0 -4 -4l-50 -407q-1 -4 -4 -7t-7 -3h-74q-9 0 -9 10l50 407q1 1 0 2.5t-3 1.5h-65q-10 0 -8 10l8 68q2 10 11 10h65q4 0 4 4l2 18q8 66 28 102t57.5 51.5
t102.5 15.5h33q10 0 8 -10l-7 -64q-2 -10 -11 -10h-24zM533 589q-25 0 -40 15t-15 39q0 32 20.5 53t50.5 21q25 0 40 -14.5t15 -39.5q0 -31 -21 -52.5t-50 -21.5zM422 1q-10 0 -8 10l60 488q0 4 3 7t7 3h74q9 0 9 -10l-60 -488q-2 -10 -11 -10h-74z" />
    <glyph glyph-name="fl" unicode="fl" horiz-adv-x="584" 
d="M341 616q-49 0 -68.5 -19t-25.5 -72l-2 -12q0 -4 4 -4h102q4 0 6.5 -3t1.5 -7l-8 -68q-2 -10 -11 -10h-102q-4 0 -4 -4l-50 -407q-1 -4 -4 -7t-7 -3h-74q-9 0 -9 10l50 407q1 1 0 2.5t-3 1.5h-65q-10 0 -8 10l8 68q2 10 11 10h65q4 0 4 4l2 18q8 66 28 102t57.5 51.5
t102.5 15.5h33q10 0 8 -10l-7 -64q-2 -10 -11 -10h-24zM414 0q-10 0 -8 10l83 680q2 10 11 10h74q10 0 8 -10l-83 -680q-2 -10 -11 -10h-74z" />
    <glyph glyph-name="hyphen_hyphen.liga" unicode="&#x2d;&#x2d;" horiz-adv-x="656" 
d="M56 259q-9 0 -9 10l8 63q2 10 11 10h569q4 0 6.5 -3t1.5 -7l-8 -63q0 -4 -3 -7t-8 -3h-568z" />
    <glyph glyph-name="IJ.liga" unicode="IJ" horiz-adv-x="815" 
d="M70 0q-9 0 -9 10l84 680q2 10 11 10h74q4 0 6.5 -3t1.5 -7l-84 -680q0 -4 -3 -7t-7 -3h-74zM486 -8q-95 0 -150 50t-55 134q0 10 2 32l9 71q2 10 11 10h74q10 0 8 -10l-8 -71q-1 -7 -1 -21q0 -51 32 -81.5t88 -30.5q60 0 102.5 36.5t49.5 96.5l59 482q2 10 11 10h74
q10 0 8 -10l-59 -482q-8 -64 -42.5 -113t-90 -76t-122.5 -27z" />
    <glyph glyph-name="f_f_i" unicode="ffi" horiz-adv-x="922" 
d="M852 589q-25 0 -40 15t-15 39q0 32 20.5 53t50.5 21q25 0 40 -14.5t15 -39.5q0 -31 -21 -52.5t-50 -21.5zM565 513q0 -4 4 -4h108q5 0 7.5 -3t1.5 -7l-7 -59q-2 -10 -11 -10h-109q-4 0 -4 -4l-51 -416q-2 -10 -11 -10h-74q-10 0 -8 10l51 416q0 4 -4 4h-225q-4 0 -4 -4
l-51 -416q-2 -10 -11 -10h-73q-10 0 -8 10l51 416q0 4 -4 4h-60q-10 0 -8 10l7 59q2 10 11 10h60q4 0 4 4l5 34q9 81 52 118.5t136 34.5h31q9 0 9 -10l-6 -47q-2 -10 -11 -10h-31q-45 -1 -64 -23.5t-25 -69.5l-3 -27q-1 -1 0 -2.5t3 -1.5h225q4 0 4 4l5 34q9 82 52 119
t137 34h31q9 0 9 -10l-6 -47q-2 -10 -11 -10h-31q-45 -1 -64 -23.5t-25 -69.5zM741 1q-10 0 -8 10l60 488q0 4 3 7t8 3h73q5 0 7.5 -3t1.5 -7l-60 -488q-2 -10 -11 -10h-74z" />
    <glyph glyph-name="f_f_l" unicode="ffl" horiz-adv-x="905" 
d="M565 513q0 -4 4 -4h108q5 0 7.5 -3t1.5 -7l-7 -59q-2 -10 -11 -10h-109q-4 0 -4 -4l-51 -416q-2 -10 -11 -10h-74q-10 0 -8 10l51 416q0 4 -4 4h-225q-4 0 -4 -4l-51 -416q-2 -10 -11 -10h-73q-10 0 -8 10l51 416q0 4 -4 4h-60q-10 0 -8 10l7 59q2 10 11 10h60q4 0 4 4
l5 34q9 81 52 118.5t136 34.5h31q9 0 9 -10l-6 -47q-2 -10 -11 -10h-31q-45 -1 -64 -23.5t-25 -69.5l-3 -27q-1 -1 0 -2.5t3 -1.5h225q4 0 4 4l5 34q9 82 52 119t137 34h31q9 0 9 -10l-6 -47q-2 -10 -11 -10h-31q-45 -1 -64 -23.5t-25 -69.5zM810 690q2 10 11 10h74
q10 0 8 -10l-83 -680q-2 -10 -11 -10h-74q-10 0 -8 10z" />
    <glyph glyph-name="g_j.liga" unicode="gj" horiz-adv-x="763" 
d="M692 589q-25 0 -40 15t-15 39q0 32 20.5 53t50.5 21q26 0 41 -14.5t15 -39.5q0 -31 -21 -52.5t-51 -21.5zM405 467q3 -5 5 1l3 31q2 10 11 10h74q10 0 8 -10l-58 -473q-15 -121 -87.5 -173t-184.5 -52q-16 0 -48 2q-9 1 -8 11l11 69q1 5 4.5 7.5t7.5 1.5q14 -1 40 -1
q82 0 122.5 31.5t50.5 106.5l2 18q0 6 -5 2q-46 -49 -125 -49q-63 0 -110 34t-58 100q-3 21 -3 45q0 32 5 77q10 80 31 128q26 60 77.5 96.5t115.5 36.5q79 0 119 -50zM636 499q0 4 3 7t7 3h74q9 0 9 -10l-65 -527q-12 -96 -65 -138t-153 -40q-10 0 -8 10l7 61q2 10 11 10
q47 0 78 24.5t37 71.5zM366 163q5 15 8.5 32t9.5 62q6 54 6 69q0 8 -2 24q-3 37 -27 60.5t-65 23.5q-40 0 -70.5 -23.5t-46.5 -60.5q-16 -33 -22 -93q-5 -45 -5 -64t3 -30q5 -37 31 -60.5t66 -23.5q42 0 72 23.5t42 60.5z" />
    <glyph glyph-name="ij.liga" unicode="ij" horiz-adv-x="488" 
d="M177 589q-25 0 -40.5 15t-15.5 39q0 33 21 53.5t51 20.5q25 0 40 -14.5t15 -39.5q0 -31 -21 -52.5t-50 -21.5zM414 589q-25 0 -40 15t-15 39q0 32 20.5 53t49.5 21q25 0 40 -15t15 -40q0 -31 -20.5 -52t-49.5 -21zM71 0q-9 0 -9 10l60 489q2 10 11 10h74q10 0 8 -10
l-60 -489q0 -4 -3 -7t-7 -3h-74zM168 -207q-5 0 -7.5 3t-1.5 7l8 62q0 4 3 7t8 3q55 0 82.5 23t33.5 73l65 528q2 10 11 10h74q10 0 8 -10l-65 -527q-8 -66 -32 -105t-69 -57t-118 -17z" />
    <glyph glyph-name=".notdef" horiz-adv-x="425" 
d="M66 696q0 4 4 4h418q1 0 2 -1t1 -3l-85 -692q0 -4 -4 -4h-418q-1 0 -2 1t-1 3zM239 239q9 0 11 10l3 29q3 19 15.5 32t39.5 32q38 27 60 53t28 72q1 6 1 18q0 51 -33.5 81.5t-90.5 30.5q-65 0 -109.5 -37t-51.5 -97l-1 -13q-2 -10 8 -10l47 -2q9 0 11 10l2 15
q4 32 27 51.5t57 19.5t52 -19t14 -50q-3 -27 -19.5 -45t-48.5 -41q-34 -25 -52 -45t-22 -52l-4 -33q-1 -4 1.5 -7t6.5 -3h48zM195 91q21 0 35.5 14.5t14.5 36.5q0 18 -10.5 29t-28.5 11q-21 0 -35.5 -15t-14.5 -37q0 -17 10.5 -28t28.5 -11z" />
    <glyph glyph-name=".null" horiz-adv-x="0" 
 />
    <glyph glyph-name=".null" horiz-adv-x="0" 
 />
    <glyph glyph-name="uni000D" unicode="&#xd;" horiz-adv-x="194" 
 />
    <glyph glyph-name="space" unicode=" " horiz-adv-x="194" 
 />
    <glyph glyph-name="exclam" unicode="!" horiz-adv-x="318" 
d="M141 232q-9 0 -8 10l46 448q2 10 11 10h73q5 0 7.5 -3t1.5 -7l-63 -448q-1 -10 -11 -10h-57zM137 3q-25 0 -40 15t-15 39q0 32 20.5 53t50.5 21q25 0 40 -14.5t15 -39.5q0 -31 -21 -52.5t-50 -21.5z" />
    <glyph glyph-name="quotedbl" unicode="&#x22;" horiz-adv-x="288" 
d="M83 482q-4 0 -7 2.5t-2 7.5l15 194q2 10 10 10h72q10 0 8 -10l-33 -194q-1 -10 -11 -10h-52zM235 482q-10 0 -9 10l15 194q2 10 10 10h72q8 0 8 -10l-34 -194q-1 -10 -11 -10h-51z" />
    <glyph glyph-name="numbersign" unicode="#" horiz-adv-x="649" 
d="M620 430q-1 -10 -11 -10h-74q-5 0 -6 -4l-36 -138q0 -4 2 -4h61q5 0 7.5 -3t1.5 -7l-8 -63q-2 -10 -11 -10h-73q-5 0 -6 -4l-43 -158q-3 -9 -11 -9l-74 1q-4 0 -6.5 3t-0.5 8l42 155q0 4 -2 4h-135q-5 0 -5 -4l-44 -158q-3 -9 -11 -9l-74 1q-4 0 -6 3.5t-1 7.5l42 155
q1 1 0 2.5t-2 1.5h-61q-9 0 -9 10l9 63q1 10 11 10h72q5 0 5 4l37 138q1 1 0 2.5t-2 1.5h-59q-9 0 -9 10l8 64q2 10 11 10h72q5 0 5 4l44 158q3 9 11 9l73 -1q4 0 6.5 -3t1.5 -8l-43 -155q0 -4 3 -4h135q5 0 5 4l44 158q1 9 10 9l74 -1q4 0 6.5 -3t0.5 -8l-42 -155
q0 -4 3 -4h63q4 0 6.5 -3t1.5 -7zM394 274q4 0 5 4l37 138q0 4 -2 4h-135q-5 0 -5 -4l-37 -138q0 -4 3 -4h134z" />
    <glyph glyph-name="dollar" unicode="$" horiz-adv-x="546" 
d="M503 183q-10 -78 -64 -128.5t-141 -60.5q-4 0 -4 -4l-8 -70q-2 -10 -11 -10h-64q-10 0 -8 10l9 71q2 4 -3 4q-77 11 -119.5 54.5t-42.5 110.5q0 9 2 27l4 29q0 4 3 7t8 3h67q4 0 6.5 -3t1.5 -7l-3 -24q-1 -5 -1 -14q0 -46 36.5 -74.5t101.5 -28.5q67 0 104.5 33t37.5 85
q0 38 -31.5 63t-110.5 62q-60 27 -94.5 47.5t-57 52.5t-22.5 80q0 8 2 26q10 76 61 123.5t131 58.5q3 0 5 4l8 77q2 10 11 10h63q9 0 9 -10l-11 -78q0 -3 3 -5q75 -11 116.5 -55t41.5 -112q0 -8 -2 -28l-3 -20q0 -4 -3 -7t-8 -3h-67q-5 0 -7.5 3t-1.5 7l2 15q1 5 1 15
q0 47 -34 76.5t-96 29.5q-57 0 -91 -25.5t-40 -73.5q-1 -5 -1 -15q0 -27 14.5 -45.5t41.5 -33.5t84 -40q58 -26 93.5 -47.5t59.5 -55t24 -81.5q0 -7 -2 -25z" />
    <glyph glyph-name="percent" unicode="%" horiz-adv-x="814" 
d="M256 413q-55 0 -91.5 37t-36.5 93q0 44 23 82.5t61 61t81 22.5q54 0 90 -37t36 -91q0 -45 -22.5 -83.5t-60.5 -61.5t-80 -23zM178 0q-6 0 -8 3.5t2 8.5l450 681q5 7 13 7h47q6 0 8 -3.5t-2 -8.5l-450 -681q-5 -7 -13 -7h-47zM264 472q38 0 67 30t29 71q0 33 -21.5 55
t-53.5 22q-39 0 -68.5 -29.5t-29.5 -70.5q0 -33 22 -55.5t55 -22.5zM574 -9q-55 0 -91.5 37t-36.5 92q0 44 23 82.5t61 61.5t80 23q55 0 91 -37t36 -92q0 -44 -22.5 -82.5t-60.5 -61.5t-80 -23zM581 50q39 0 68 30t29 70q0 33 -21.5 55.5t-53.5 22.5q-39 0 -68.5 -30
t-29.5 -71q0 -33 21.5 -55t54.5 -22z" />
    <glyph glyph-name="ampersand" unicode="&#x26;" horiz-adv-x="655" 
d="M579 12q2 -2 2 -5q0 -7 -9 -7h-83q-8 0 -11 6l-42 58q-2 3 -6 1q-50 -38 -100.5 -55.5t-105.5 -17.5q-81 0 -130.5 36t-49.5 106q0 79 44.5 132t122.5 101q4 1 2 5q-39 59 -54 92.5t-15 62.5q0 51 25.5 92t70 65t100.5 24q74 0 118.5 -38.5t44.5 -102.5q0 -70 -41.5 -120
t-115.5 -97q-5 -2 -2 -5l66 -93q11 -14 20 -27.5t17 -24.5l4 -5q0 -2 2 -2t3 1q49 54 74 85q5 8 13 3l51 -32q8 -5 2 -14q-51 -65 -94 -108q-3 -3 2 -9q40 -59 75 -107zM332 620q-39 0 -65 -21.5t-30 -57.5q-2 -20 8 -43.5t46 -78.5q3 -3 6 -1q56 36 84.5 66.5t28.5 69.5
q0 31 -21 48.5t-57 17.5zM237 74q70 0 145 55q4 3 1 6l-28 40q-9 14 -30 41l-60 82q-1 3 -5 1q-58 -36 -89.5 -71t-31.5 -80q0 -35 26 -54.5t72 -19.5z" />
    <glyph glyph-name="quotesingle" unicode="'" horiz-adv-x="140" 
d="M84 486q-10 0 -10 10l15 192q2 10 10 10h77q9 0 7 -10l-33 -192q-1 -10 -11 -10h-55z" />
    <glyph glyph-name="parenleft" unicode="(" horiz-adv-x="283" 
d="M90 -100q-7 0 -12 6q-31 58 -49 136.5t-18 170.5q0 59 7 115q16 129 61 240.5t106 187.5q4 6 12 6h70q6 0 7.5 -3.5t-1.5 -8.5q-53 -78 -94 -187.5t-56 -233.5q-7 -59 -7 -120q0 -87 14.5 -163.5t39.5 -133.5l1 -4q0 -8 -10 -8h-71z" />
    <glyph glyph-name="parenright" unicode=")" horiz-adv-x="283" 
d="M235 762q8 0 11 -6q32 -59 50.5 -138.5t18.5 -171.5q0 -57 -7 -112q-16 -128 -61 -239.5t-106 -188.5q-6 -6 -13 -6h-70q-6 0 -7.5 3.5t1.5 8.5q53 78 94 187.5t57 233.5q7 57 7 118q0 87 -15 163.5t-40 135.5l-1 4q0 8 9 8h72z" />
    <glyph glyph-name="asterisk" unicode="*" horiz-adv-x="386" 
d="M203 393q-4 0 -6.5 3t-1.5 7l14 112q0 2 -1.5 3t-3.5 0l-106 -59q-2 -1 -5 -1q-6 0 -8 5l-14 34q-1 1 -1 4q0 7 6 10l107 56q2 1 2.5 3t-1.5 3l-93 56q-4 2 -4.5 6t2.5 8l22 34q3 4 7 5t7 -1l92 -58q2 -1 3.5 0t1.5 3l14 111q2 10 11 10h37q10 0 8 -10l-13 -111
q-1 -2 0.5 -3t3.5 0l106 58q2 1 5 1q6 0 8 -5l14 -34l1 -3q0 -7 -7 -11l-107 -56q-2 -1 -2.5 -3t1.5 -3l93 -56q4 -2 4.5 -6t-1.5 -8l-22 -34q-3 -4 -7 -5t-7 1l-92 59q-2 1 -3.5 0t-1.5 -3l-14 -112q0 -4 -3 -7t-8 -3h-37z" />
    <glyph glyph-name="plus" unicode="+" horiz-adv-x="480" 
d="M460 350q9 0 9 -10l-8 -63q-2 -10 -11 -10h-152q-2 0 -3.5 -1t-1.5 -3l-19 -154q0 -4 -3 -7t-8 -3h-61q-10 0 -8 10l19 154q0 4 -4 4h-152q-10 0 -8 10l7 63q2 10 11 10h153q1 0 2.5 1t1.5 3l20 160q0 4 3 7t7 3h62q4 0 6.5 -3t1.5 -7l-20 -160q0 -4 4 -4h152z" />
    <glyph glyph-name="comma" unicode="," horiz-adv-x="257" 
d="M35 -86q-5 0 -7 3t0 8l66 222q2 9 11 9h65q5 0 7 -3t0 -8l-85 -222q-1 -4 -4 -6.5t-7 -2.5h-46z" />
    <glyph glyph-name="hyphen" unicode="-" horiz-adv-x="388" 
d="M57 264q-5 0 -7.5 3t-1.5 7l8 63q2 10 11 10h300q4 0 6.5 -3t1.5 -7l-8 -63q0 -4 -3 -7t-8 -3h-299z" />
    <glyph glyph-name="period" unicode="." horiz-adv-x="267" 
d="M111 0q-25 0 -40 15t-15 39q0 32 20.5 53t50.5 21q24 0 39 -15.5t15 -40.5q0 -31 -20.5 -51.5t-49.5 -20.5z" />
    <glyph glyph-name="slash" unicode="/" horiz-adv-x="413" 
d="M16 0q-5 0 -6.5 3t0.5 8l312 681q3 8 12 8h73q11 0 6 -11l-311 -681q-5 -8 -13 -8h-73z" />
    <glyph glyph-name="zero" unicode="0" horiz-adv-x="549" 
d="M253 -10q-88 0 -138.5 47.5t-50.5 130.5q0 10 2 34l36 296q12 97 76.5 154t162.5 57q90 0 141 -48t51 -131q0 -10 -2 -32l-37 -296q-12 -97 -77.5 -154.5t-163.5 -57.5zM263 73q56 0 93 33.5t44 89.5l38 306q1 7 1 20q0 48 -28.5 75.5t-79.5 27.5q-55 0 -91.5 -33.5
t-44.5 -89.5l-37 -306q-1 -7 -1 -20q0 -47 28.5 -75t77.5 -28z" />
    <glyph glyph-name="one" unicode="1" horiz-adv-x="341" 
d="M231 697q6 3 13 3h77q10 0 8 -10l-83 -680q-2 -10 -11 -10h-74q-10 0 -8 10l72 587q0 2 -1.5 3t-3.5 0l-106 -36q-2 -1 -5 -1q-6 0 -6 8l3 57q2 10 8 12z" />
    <glyph glyph-name="two" unicode="2" horiz-adv-x="528" 
d="M165 88q-3 -5 2 -5h292q5 0 7.5 -3t1.5 -7l-8 -63q-2 -10 -11 -10h-406q-5 0 -7.5 3t-1.5 7l8 61q0 6 6 12q45 46 180 190l71 76q104 110 111 172q1 5 1 15q0 41 -27 65t-73 24q-50 0 -83.5 -29t-38.5 -76l-4 -30q0 -4 -3 -7t-8 -3h-74q-5 0 -7.5 3t-1.5 7l5 43
q13 79 75.5 127t150.5 48q86 0 135 -45t49 -117q0 -48 -28 -102t-85 -117q-68 -78 -207 -217z" />
    <glyph glyph-name="three" unicode="3" horiz-adv-x="508" 
d="M455 332q8 -27 8 -65q0 -22 -3 -48q-5 -52 -27 -98q-29 -62 -82.5 -95.5t-123.5 -33.5t-116.5 37t-58.5 100q-5 25 -5 46q0 14 2 34q2 10 11 10h75q9 0 8 -10l-1 -28q0 -11 2 -25q5 -37 29.5 -59t63.5 -22q74 0 108 69q15 29 22 78q2 24 2 35q0 34 -7 56q-19 62 -89 62
q-9 0 -20.5 -4.5t-23.5 -10.5q-4 -2 -6 -2q-4 0 -7 5l-30 52q-2 4 -2 6t4 8l189 183q3 5 -2 5h-258q-4 0 -6.5 3t-1.5 7l8 63q0 4 3 7t8 3h376q10 0 8 -10l-8 -72q-1 -6 -7 -12l-167 -166q-2 -1 -1.5 -3t3.5 -3q96 -10 123 -102z" />
    <glyph glyph-name="four" unicode="4" horiz-adv-x="553" 
d="M503 274q9 0 9 -10l-9 -66q0 -4 -3 -7t-7 -3h-42q-3 0 -5 -4l-21 -174q-2 -10 -11 -10h-74q-4 0 -6.5 3t-1.5 7l21 174q1 1 0 2.5t-3 1.5h-295q-10 0 -8 10l6 54q2 6 5 12l243 429q4 7 12 7h78q5 0 7 -3.5t-1 -8.5l-233 -409q-1 -2 0 -3.5t3 -1.5h194q1 0 2.5 1t1.5 3
l18 149q2 10 11 10h74q10 0 8 -10l-18 -149q0 -4 3 -4h42z" />
    <glyph glyph-name="five" unicode="5" horiz-adv-x="507" 
d="M473 310q2 -14 2 -41q0 -29 -3 -50q-5 -44 -22 -87q-26 -64 -82.5 -101.5t-128.5 -37.5q-70 0 -117 36t-59 98q-5 28 -5 49q0 4 3 7t7 3h77q8 0 9 -9q0 -7 2 -21q5 -37 29.5 -58.5t62.5 -21.5q39 0 70 22.5t45 62.5q9 21 14 58q3 33 3 41q0 13 -1 20q-3 38 -28 58.5
t-65 20.5q-38 0 -70.5 -17.5t-44.5 -46.5q-4 -9 -12 -9h-77q-5 0 -7.5 3t-1.5 7l49 394q0 4 3 7t8 3h362q9 0 9 -10l-8 -63q-2 -10 -11 -10h-275q-2 0 -3.5 -1t-1.5 -3l-26 -209q-1 -3 0.5 -4t3.5 1q53 42 124 42q68 0 112.5 -35t53.5 -98z" />
    <glyph glyph-name="six" unicode="6" horiz-adv-x="507" 
d="M460 345q15 -36 15 -84q0 -20 -3 -43q-8 -62 -33 -107q-29 -57 -79.5 -87.5t-117.5 -30.5q-72 0 -117.5 34t-58.5 96q-6 24 -6 53q0 22 3 44l38 308q10 82 71.5 131t150.5 49q79 0 126.5 -41t47.5 -109q0 -8 -2 -24l-2 -20q-2 -10 -11 -10h-74q-10 0 -8 10l1 9q1 5 1 14
q0 39 -25 63t-65 24q-47 0 -80 -29t-39 -77l-16 -126q0 -2 1.5 -2.5t3.5 1.5q48 48 127 48q58 0 95.5 -24t55.5 -70zM355 141q18 31 24 77q2 20 2 29q0 33 -10 53q-21 58 -87 58q-34 0 -60.5 -15.5t-42.5 -44.5q-19 -34 -26 -85q-2 -20 -2 -28q0 -23 6 -43q8 -32 31.5 -48.5
t59.5 -16.5q70 0 105 64z" />
    <glyph glyph-name="seven" unicode="7" horiz-adv-x="467" 
d="M116 0q-5 0 -6.5 3.5t0.5 8.5l294 600q1 2 0.5 3.5t-2.5 1.5h-234q-4 0 -4 -4l-6 -47q-2 -10 -11 -10h-58q-5 0 -7.5 3t-1.5 7l15 124q2 10 11 10h399q10 0 8 -10l-8 -67q0 -4 -1 -7t-2 -5l-293 -603q-4 -8 -12 -8h-81z" />
    <glyph glyph-name="eight" unicode="8" horiz-adv-x="511" 
d="M458 299q10 -30 10 -67q0 -11 -2 -33q-8 -64 -41 -112q-29 -45 -78 -70t-111 -25t-106.5 25.5t-63.5 73.5q-14 34 -14 76q0 11 2 33q6 55 33 101q29 48 72 69q5 2 1 5q-28 22 -41 50q-17 32 -17 71q0 73 48 133q29 38 74.5 60t99.5 22q55 0 94 -21.5t58 -60.5
q20 -38 20 -87q0 -64 -41 -119q-21 -28 -51 -48q-5 -3 -1 -5q38 -22 55 -71zM216 572q-17 -26 -20 -51q-1 -7 -1 -19q0 -28 11 -48q21 -45 80 -45q58 0 92 46q18 22 25 67l1 13q0 19 -8 38q-9 25 -30.5 40t-53.5 15q-30 0 -55 -15t-41 -41zM340 121q26 32 33 86q2 20 2 28
q0 30 -9 51q-20 52 -89 52q-66 0 -99 -49q-14 -21 -22.5 -49t-8.5 -58q0 -32 13 -58q21 -48 86 -48q61 0 94 45z" />
    <glyph glyph-name="nine" unicode="9" horiz-adv-x="509" 
d="M491 577q5 -27 5 -53q0 -21 -3 -44l-37 -308q-10 -82 -71.5 -131t-150.5 -49q-80 0 -127.5 41t-47.5 109q0 8 2 24l3 20q0 4 3 7t8 3h73q9 0 9 -10l-1 -9q-1 -5 -1 -16q0 -38 24.5 -61.5t64.5 -23.5q47 0 80.5 29t39.5 77l15 126q1 2 -0.5 3t-3.5 -1q-26 -27 -58 -38
t-70 -11q-57 0 -95.5 24t-55.5 70q-15 40 -15 86q0 20 3 41q7 57 32 107q29 57 80.5 87.5t118.5 30.5q72 0 117 -34t59 -96zM375 402q19 31 26 85q2 10 2 30q0 23 -6 41q-8 32 -31 48.5t-60 16.5q-35 0 -62 -16.5t-42 -47.5q-19 -31 -24 -77q-2 -22 -2 -31q0 -29 8 -51
q23 -58 88 -58q68 0 103 60z" />
    <glyph glyph-name="colon" unicode=":" horiz-adv-x="337" 
d="M190 344q-25 0 -40 15t-15 39q0 32 20.5 53t50.5 21q24 0 39 -15.5t15 -40.5q0 -31 -20.5 -51.5t-49.5 -20.5zM149 11q-25 0 -40 15t-15 39q0 32 20.5 53t50.5 21q24 0 39 -15.5t15 -40.5q0 -31 -20.5 -51.5t-49.5 -20.5z" />
    <glyph glyph-name="semicolon" unicode=";" horiz-adv-x="303" 
d="M175 335q-27 0 -44.5 17t-17.5 43q0 31 24.5 54.5t54.5 23.5q26 0 45 -18t19 -43q0 -31 -24 -54t-57 -23zM68 -83q-4 0 -6.5 3.5t-1.5 7.5l53 216q3 9 11 9h66q10 0 7 -11l-72 -216q-3 -9 -12 -9h-45z" />
    <glyph glyph-name="less" unicode="&#x3c;" horiz-adv-x="480" 
d="M433 48q-1 -5 -5 -7.5t-8 -0.5l-371 186q-6 4 -5 11l8 69q1 7 9 11l416 186l4 1q7 0 7 -9l-9 -73q-2 -8 -9 -11l-322 -137q-6 -3 -1 -6l288 -137q7 -3 7 -11z" />
    <glyph glyph-name="equal" unicode="=" horiz-adv-x="480" 
d="M70 369q-10 0 -8 10l7 63q2 10 11 10h393q9 0 9 -10l-8 -63q-2 -10 -11 -10h-393zM45 167q-10 0 -8 10l7 63q2 10 11 10h393q9 0 9 -10l-8 -63q-2 -10 -11 -10h-393z" />
    <glyph glyph-name="greater" unicode="&#x3e;" horiz-adv-x="480" 
d="M27 39q-7 0 -7 9l9 72q2 8 9 11l321 137q6 3 1 6l-287 137q-7 3 -7 11l9 73q1 5 5 7.5t8 0.5l371 -186q6 -4 5 -11l-8 -69q-2 -8 -8 -11l-417 -186z" />
    <glyph glyph-name="question" unicode="?" horiz-adv-x="468" 
d="M186 208q-5 0 -7.5 3t-1.5 7l6 50q6 45 32 74t72 62q32 22 51 39t32 41t13 56q0 38 -25 60t-67 22q-48 0 -80.5 -28t-37.5 -72l-3 -26q-1 -4 -4 -7t-7 -3l-74 4q-4 0 -6.5 3t-1.5 7l3 22q10 84 72 135.5t152 51.5q81 0 128 -42.5t47 -113.5q0 -8 -2 -26q-6 -44 -24.5 -76
t-41 -52t-57.5 -45q-37 -25 -55.5 -44.5t-21.5 -46.5l-6 -45q-2 -10 -11 -10h-74zM195 1q-25 0 -40 15t-15 39q0 31 21 52.5t50 21.5q25 0 40 -15t15 -39q0 -31 -21 -52.5t-50 -21.5z" />
    <glyph glyph-name="at" unicode="@" horiz-adv-x="798" 
d="M497 631q83 0 144.5 -31.5t94.5 -88.5t33 -133q0 -49 -13 -98q-24 -95 -75 -147t-121 -52q-34 0 -58.5 12t-36.5 35q-3 5 -6 0q-21 -21 -48.5 -33t-54.5 -12q-55 0 -86.5 28.5t-31.5 73.5q0 27 14 81q13 54 29 85q21 47 62 73t86 26q51 0 74 -33q2 -2 3.5 -1t1.5 3l4 17
q3 9 11 9h46q5 0 7 -3.5t1 -7.5l-51 -201q-4 -13 -4 -30q0 -27 14 -43.5t38 -16.5q38 0 68 35t46 99q12 50 12 92q0 94 -58 147t-157 53q-80 0 -155 -36.5t-129 -108t-71 -170.5q-7 -34 -7 -70q0 -97 55 -155t154 -58q49 0 94 11.5t71 28.5q8 6 13 -2l21 -30l2 -5
q0 -5 -6 -9q-37 -26 -95 -42t-117 -16q-80 0 -138 33t-89 94t-31 142q0 43 9 89q22 111 87.5 194t156.5 127.5t187 44.5zM364 141q27 0 48.5 16.5t33.5 41.5q9 15 14 35l12 46q6 25 7.5 36t1.5 23q0 23 -15.5 38t-40.5 15q-27 0 -50 -16t-36 -40q-12 -25 -23 -72
q-12 -41 -12 -56l1 -9q-2 -26 14.5 -42t44.5 -16z" />
    <glyph glyph-name="A" unicode="A" horiz-adv-x="611" 
d="M472 0q-3 0 -6 2t-4 6l-21 117q0 3 -3 3h-273q-3 0 -4 -3l-49 -117q-5 -8 -13 -8h-79q-5 0 -6.5 3t0.5 8l296 681q5 8 13 8h97q3 0 6 -2t4 -6l131 -681v-2q0 -9 -9 -9h-80zM195 209q-1 -2 0.5 -3.5t3.5 -1.5h223q2 0 3.5 1.5t0.5 3.5l-67 371q0 2 -2 2t-4 -2z" />
    <glyph glyph-name="B" unicode="B" horiz-adv-x="606" 
d="M467 365q-5 -3 -1 -6q84 -39 84 -137q0 -8 -2 -30q-11 -92 -76 -142t-161 -50h-241q-9 0 -9 10l84 680q2 10 11 10h234q91 0 141 -39.5t50 -115.5q0 -9 -2 -31q-13 -108 -112 -149zM233 617q-4 0 -4 -4l-26 -211q-1 -1 0 -2.5t3 -1.5h146q61 0 98.5 34t37.5 90
q0 44 -28.5 69.5t-80.5 25.5h-146zM322 84q60 0 97.5 37t37.5 99q0 46 -29 72t-80 26h-152q-4 0 -4 -4l-28 -226q0 -2 1 -3t2 -1h155z" />
    <glyph glyph-name="C" unicode="C" horiz-adv-x="589" 
d="M277 -9q-96 0 -153 53t-57 143q0 10 2 34l32 259q8 68 44 119.5t93 80t127 28.5q97 0 154 -51t57 -138q0 -10 -2 -32v-1q-2 -11 -11 -11l-74 -4q-10 0 -9 9v3q2 16 2 23q0 54 -34.5 86.5t-92.5 32.5q-64 0 -108.5 -39t-52.5 -103l-33 -266q-1 -7 -1 -21q0 -55 34 -88
t94 -33q64 0 108 39t52 103v2q2 9 11 9l73 -4q10 0 8 -10q-8 -66 -43.5 -116.5t-92.5 -78.5t-127 -28z" />
    <glyph glyph-name="D" unicode="D" horiz-adv-x="599" 
d="M70 0q-9 0 -9 10l84 680q2 10 11 10h235q92 0 145 -46t53 -125q0 -9 -2 -29l-37 -300q-11 -91 -77.5 -145.5t-167.5 -54.5h-235zM164 87q0 -4 3 -4h152q56 0 94 35.5t46 95.5l33 272q1 8 1 23q0 51 -28.5 79.5t-80.5 28.5h-151q-4 0 -4 -4z" />
    <glyph glyph-name="E" unicode="E" horiz-adv-x="580" 
d="M588 627q-2 -10 -11 -10h-344q-4 0 -4 -4l-27 -215q0 -4 4 -4h236q9 0 9 -10l-8 -63q-2 -10 -11 -10h-237q-4 0 -4 -4l-27 -220q0 -4 3 -4h345q10 0 8 -10l-8 -63q0 -4 -3 -7t-8 -3h-431q-9 0 -9 10l84 680q2 10 11 10h431q5 0 7.5 -3t1.5 -7z" />
    <glyph glyph-name="F" unicode="F" horiz-adv-x="548" 
d="M587 627q-2 -10 -11 -10h-343q-4 0 -4 -4l-27 -215q0 -4 4 -4h235q9 0 9 -10l-8 -63q-2 -10 -11 -10h-236q-4 0 -4 -4l-37 -297q0 -4 -3 -7t-7 -3h-74q-9 0 -9 10l84 680q2 10 11 10h430q5 0 7.5 -3t1.5 -7z" />
    <glyph glyph-name="G" unicode="G" horiz-adv-x="595" 
d="M277 -8q-96 0 -153 53t-57 143q0 10 2 34l31 256q8 69 44.5 121t93.5 80.5t127 28.5q64 0 111.5 -24t73.5 -66.5t26 -96.5q0 -10 -2 -30l-1 -11q-2 -10 -11 -10h-74q-4 0 -6.5 3t-1.5 7l1 9q1 7 1 20q0 52 -34 83.5t-93 31.5q-65 0 -109 -39t-52 -104l-32 -262
q-1 -8 -1 -22q0 -55 35.5 -88t95.5 -33q63 0 105 34.5t49 94.5l10 77q0 4 -4 4h-131q-10 0 -8 10l7 62q1 4 4 7t7 3h219q4 0 6.5 -3t1.5 -7l-16 -127q-14 -115 -85 -177t-180 -62z" />
    <glyph glyph-name="H" unicode="H" horiz-adv-x="625" 
d="M522 690q2 10 11 10h74q10 0 8 -10l-83 -680q-2 -10 -11 -10h-74q-10 0 -8 10l36 297q0 4 -3 4h-277q-4 0 -4 -4l-37 -297q0 -4 -3 -7t-7 -3h-74q-9 0 -9 10l84 680q2 10 11 10h74q4 0 6.5 -3t1.5 -7l-36 -292q0 -4 4 -4h276q4 0 4 4z" />
    <glyph glyph-name="I" unicode="I" horiz-adv-x="253" 
d="M70 0q-9 0 -9 10l84 680q2 10 11 10h74q4 0 6.5 -3t1.5 -7l-84 -680q0 -4 -3 -7t-7 -3h-74z" />
    <glyph glyph-name="J" unicode="J" horiz-adv-x="562" 
d="M233 -8q-95 0 -150 50t-55 134q0 10 2 32l9 71q2 10 11 10h74q10 0 8 -10l-8 -71q-1 -7 -1 -21q0 -51 32 -81.5t88 -30.5q60 0 102.5 36.5t49.5 96.5l59 482q2 10 11 10h74q10 0 8 -10l-59 -482q-8 -64 -42.5 -113t-90 -76t-122.5 -27z" />
    <glyph glyph-name="K" unicode="K" horiz-adv-x="598" 
d="M70 0q-9 0 -9 10l84 680q2 10 11 10h74q4 0 6.5 -3t1.5 -7l-39 -319q-1 -2 1 -2.5t4 1.5l317 324q5 6 12 6h85q5 0 6.5 -3.5t-2.5 -8.5l-266 -281q-1 -3 0 -6l199 -389q1 -2 1 -6q0 -6 -8 -6h-84q-8 0 -11 6l-170 327q0 2 -2 2t-3 -1l-93 -94q-3 -3 -3 -5l-28 -225
q0 -4 -3 -7t-7 -3h-74z" />
    <glyph glyph-name="L" unicode="L" horiz-adv-x="552" 
d="M70 0q-9 0 -9 10l84 680q2 10 11 10h74q4 0 6.5 -3t1.5 -7l-74 -603q0 -4 3 -4h335q10 0 8 -10l-7 -63q-2 -10 -11 -10h-422z" />
    <glyph glyph-name="M" unicode="M" horiz-adv-x="694" 
d="M585 694q5 6 12 6h74q10 0 8 -10l-83 -680q-2 -10 -11 -10h-74q-10 0 -8 10l63 512q0 3 -2 4t-3 -2l-165 -218q-6 -6 -13 -6h-37q-6 0 -11 6l-113 216q-1 3 -2.5 2t-2.5 -4l-63 -510q0 -4 -3 -7t-7 -3h-74q-9 0 -9 10l84 680q2 10 11 10h74q8 0 10 -6l138 -262q1 -1 3 -1
t3 1z" />
    <glyph glyph-name="N" unicode="N" horiz-adv-x="652" 
d="M545 690q0 4 3 7t7 3h74q9 0 9 -10l-84 -680q-2 -10 -11 -10h-71q-6 0 -10 7l-241 511q-1 3 -3 2.5t-2 -3.5l-62 -507q0 -4 -3 -7t-7 -3h-74q-9 0 -9 10l84 680q2 10 11 10h72q7 0 10 -7l240 -511q1 -3 3 -2.5t2 3.5z" />
    <glyph glyph-name="O" unicode="O" horiz-adv-x="603" 
d="M280 -9q-97 0 -154.5 55t-57.5 148q0 24 2 37l29 238q9 71 45.5 125t94.5 84t129 30q98 0 155.5 -55t57.5 -147q0 -24 -2 -37l-29 -238q-8 -71 -45 -125.5t-95 -84.5t-130 -30zM290 74q67 0 112.5 42t54.5 111l29 243q2 18 2 26q0 59 -35 94t-95 35q-65 0 -111 -42.5
t-54 -112.5l-30 -243q-2 -18 -2 -26q0 -58 35 -92.5t94 -34.5z" />
    <glyph glyph-name="P" unicode="P" horiz-adv-x="576" 
d="M412 701q81 0 128.5 -46.5t47.5 -124.5q0 -10 -2 -32q-11 -91 -73.5 -145.5t-153.5 -54.5h-171q-4 0 -4 -4l-35 -284q-2 -10 -11 -10h-74q-10 0 -8 10l83 681q2 10 11 10h262zM359 376q58 0 96.5 39t38.5 100q0 47 -28.5 75t-76.5 28h-162q-4 0 -4 -4l-29 -234q0 -2 1 -3
t2 -1h162z" />
    <glyph glyph-name="Q" unicode="Q" horiz-adv-x="565" 
d="M201 183q33 21 70 21q30 0 56.5 -13.5t43.5 -38.5q5 -6 8 -12t7 -12q41 41 48 106l30 239q8 72 -26 111q-35 43 -98 43q-34 0 -61.5 -12t-48.5 -33t-34 -49t-17 -60l-29 -239q-9 -68 25 -111q35 -41 98 -41q28 0 50 7q-9 19 -17.5 33.5t-22 26t-33 20t-49.5 14.5zM424 53
q24 -31 50.5 -43.5t63.5 -22.5q-18 -11 -37 -15.5t-38 -4.5q-30 0 -57 13t-46 37q-46 -17 -97 -17q-30 0 -59 6.5t-53.5 20.5t-44 35.5t-31.5 51.5q-23 53 -14 124l29 234q6 53 27.5 96t56 74.5t79.5 48.5t97 17q63 0 113 -26t76 -86q23 -52 14 -124l-29 -234
q-7 -55 -31 -102.5t-69 -82.5z" />
    <glyph glyph-name="R" unicode="R" horiz-adv-x="594" 
d="M447 0q-7 0 -10 7l-99 299q0 3 -3 3h-140q-4 0 -4 -4l-37 -295q0 -4 -3 -7t-7 -3h-74q-9 0 -9 10l84 680q2 10 11 10h261q79 0 125.5 -45.5t46.5 -121.5q0 -10 -2 -32q-8 -70 -49.5 -118.5t-106.5 -65.5q-3 -1 -3 -5l104 -300l1 -4q0 -8 -9 -8h-77zM233 617q-4 0 -4 -4
l-28 -224q0 -4 3 -4h162q56 0 92.5 37.5t36.5 96.5q0 45 -27 71.5t-73 26.5h-162z" />
    <glyph glyph-name="S" unicode="S" horiz-adv-x="571" 
d="M269 -8q-104 0 -163 45.5t-59 124.5q0 7 2 25l4 29q0 4 3 7t8 3h70q5 0 7.5 -3t1.5 -7l-3 -24q-1 -4 -1 -13q0 -46 39 -75t108 -29q71 0 109.5 33t38.5 85q0 38 -33 63t-117 62q-63 27 -99.5 47.5t-60.5 53t-24 80.5q0 64 31 111.5t86.5 72.5t128.5 25q100 0 158.5 -47
t58.5 -126q0 -8 -2 -26l-2 -20q-2 -10 -11 -10h-73q-9 0 -9 10l2 15q1 5 1 16q0 46 -36 75.5t-101 29.5q-66 0 -102.5 -30t-36.5 -84q0 -27 15.5 -46t45 -34t88.5 -39q61 -26 99 -47.5t63 -55t25 -82.5q0 -8 -2 -24q-11 -87 -80 -139t-178 -52z" />
    <glyph glyph-name="T" unicode="T" horiz-adv-x="557" 
d="M578 700q10 0 8 -10l-8 -64q0 -4 -3 -7t-8 -3h-186q-4 0 -4 -4l-74 -602q-2 -10 -11 -10h-74q-10 0 -8 10l74 602q0 4 -4 4h-177q-9 0 -9 10l8 64q2 10 11 10h465z" />
    <glyph glyph-name="U" unicode="U" horiz-adv-x="622" 
d="M291 -8q-98 0 -155 53t-57 143q0 10 2 34l57 468q2 10 11 10h74q10 0 8 -10l-58 -470q-1 -7 -1 -21q0 -56 35 -90t94 -34q65 0 110 40t53 105l57 470q2 10 11 10h74q10 0 8 -10l-57 -468q-8 -68 -44 -120.5t-93.5 -81t-128.5 -28.5z" />
    <glyph glyph-name="V" unicode="V" horiz-adv-x="583" 
d="M232 0q-4 0 -7 2t-4 6l-124 681v2q0 9 9 9h79q8 0 11 -8l92 -553q0 -2 2.5 -2t3.5 2l227 553q5 8 12 8h77q11 0 6 -11l-293 -681q-5 -8 -13 -8h-78z" />
    <glyph glyph-name="W" unicode="W" horiz-adv-x="852" 
d="M199 0q-8 0 -10 8l-99 681v2q0 4 3 6.5t7 2.5h79q8 0 10 -9l66 -498q0 -2 1.5 -2t2.5 2l182 498q3 9 12 9h76q8 0 10 -9l66 -499q0 -2 1 -2t2 2l190 499q1 4 4.5 6.5t7.5 2.5h73q11 0 8 -11l-259 -680q-4 -9 -12 -9h-75q-9 0 -9 9l-64 516q-1 3 -2 3t-2 -3l-187 -516
q-1 -9 -11 -9h-71z" />
    <glyph glyph-name="X" unicode="X" horiz-adv-x="585" 
d="M22 0q-5 0 -7 3.5t2 8.5l241 335q1 2 1 6l-159 335q-1 2 -1 5q0 7 9 7h81q6 0 11 -7l123 -265q1 -1 3 -1t3 1l189 265q5 7 12 7h80q6 0 7.5 -3.5t-2.5 -8.5l-240 -336q-2 -4 -1 -6l158 -334q1 -2 1 -5q0 -7 -9 -7h-80q-6 0 -11 7l-123 264q-1 2 -3 2t-3 -2l-189 -264
q-5 -7 -12 -7h-81z" />
    <glyph glyph-name="Y" unicode="Y" horiz-adv-x="567" 
d="M227 1q-10 0 -8 10l34 281q0 1 0.5 2.5t-0.5 2.5l-154 391l-1 4q0 8 9 8h80q8 0 11 -7l112 -293q1 -2 3 -2t3 2l184 293q4 7 13 7h80q5 0 7 -3.5t-1 -8.5l-251 -391q-2 -2 -2 -5l-34 -281q-2 -10 -11 -10h-74z" />
    <glyph glyph-name="Z" unicode="Z" horiz-adv-x="535" 
d="M30 0q-10 0 -8 10l8 70q2 9 6 13l403 519q2 2 1 3.5t-3 1.5h-331q-9 0 -9 10l8 63q2 10 11 10h431q10 0 8 -10l-8 -70q-2 -9 -6 -13l-405 -519q-2 -2 -1 -3.5t3 -1.5h333q10 0 8 -10l-7 -63q-2 -10 -11 -10h-431z" />
    <glyph glyph-name="bracketleft" unicode="[" horiz-adv-x="381" 
d="M6 -130q-4 0 -6.5 3t-1.5 7l110 894q0 4 3 7t8 3h203q9 0 9 -10l-8 -64q-2 -10 -11 -10h-116q-2 0 -3.5 -1t-1.5 -3l-91 -739q0 -4 4 -4h117q9 0 9 -10l-8 -63q-2 -10 -11 -10h-205z" />
    <glyph glyph-name="backslash" unicode="\" horiz-adv-x="413" 
d="M367 9q0 -9 -9 -9h-73q-8 0 -10 8l-145 681v2q0 9 9 9h73q8 0 11 -8l144 -681v-2z" />
    <glyph glyph-name="bracketright" unicode="]" horiz-adv-x="381" 
d="M315 -120q-2 -10 -11 -10h-205q-4 0 -6.5 3t-1.5 7l8 63q0 4 3 7t8 3h117q4 0 4 4l91 739q0 4 -3 4h-118q-4 0 -6.5 3t-1.5 7l8 64q2 10 11 10h204q5 0 7.5 -3t1.5 -7z" />
    <glyph glyph-name="asciicircum" unicode="^" horiz-adv-x="444" 
d="M64 304q-5 0 -7.5 3.5t0.5 8.5l187 376q4 8 12 8h65q8 0 9 -8l96 -376v-3q0 -4 -2.5 -6.5t-6.5 -2.5h-61q-9 0 -10 8l-67 286q0 3 -2 3t-4 -3l-137 -286q-3 -8 -12 -8h-60z" />
    <glyph glyph-name="underscore" unicode="_" horiz-adv-x="483" 
d="M15 0q-5 0 -7.5 3t-1.5 7l7 55q2 10 11 10h415q10 0 8 -10l-6 -55q-2 -10 -11 -10h-415z" />
    <glyph glyph-name="grave" unicode="`" horiz-adv-x="202" 
d="M225 585q1 -1 1 -4q0 -4 -3 -6t-8 -2h-52q-6 0 -11 7l-54 108q-1 2 -1 6q0 6 8 6h65q8 0 11 -7z" />
    <glyph glyph-name="a" unicode="a" horiz-adv-x="535" 
d="M416 499q2 10 11 10h74q10 0 8 -10l-60 -489q0 -4 -3 -7t-8 -3h-73q-9 0 -9 10l7 56q1 3 -1 3.5t-3 -2.5q-52 -75 -140 -75q-64 0 -107 39t-52 104q-2 22 -2 33q0 28 7 86q5 43 11.5 73t17.5 56q23 59 75 96.5t119 37.5q88 0 117 -71q1 -3 2.5 -2.5t2.5 3.5zM366 158
q7 16 11 34.5t9 60.5q6 42 6 71q0 10 -2 28q-5 36 -28.5 59t-62.5 23q-41 0 -72.5 -23t-43.5 -60q-7 -15 -11 -33t-10 -63q-6 -52 -6 -69q0 -14 3 -28q3 -37 29 -60t67 -23q40 0 68.5 23.5t42.5 59.5z" />
    <glyph glyph-name="b" unicode="b" horiz-adv-x="536" 
d="M493 377q5 -22 5 -59q0 -33 -4 -62q-9 -76 -34 -128q-28 -65 -79 -100.5t-121 -35.5q-34 0 -61.5 13.5t-45.5 39.5q-2 2 -3.5 1t-1.5 -3l-4 -33q-2 -10 -11 -10h-74q-10 0 -8 10l83 680q2 10 11 10h74q10 0 8 -10l-27 -223q0 -6 4 -2q25 25 56 38.5t64 13.5
q72 0 114.5 -37t54.5 -103zM360 130q30 45 40 124q3 24 3 45q0 54 -18 87q-11 23 -31.5 35.5t-48.5 12.5q-55 0 -89 -51q-31 -46 -41 -128q-4 -40 -4 -54q0 -43 12 -72q22 -54 78 -54q64 0 99 55z" />
    <glyph glyph-name="c" unicode="c" horiz-adv-x="510" 
d="M245 -8q-73 0 -120.5 38.5t-59.5 104.5q-4 23 -4 55q0 34 4 66q9 72 30 121q26 64 84 102t131 38t122.5 -38t58.5 -96q4 -17 4 -33q-1 -9 -10 -10l-74 -11h-2q-8 0 -8 9l-2 16q-3 34 -30 57t-70 23t-74 -23t-45 -61q-12 -29 -21 -95q-4 -33 -4 -62q0 -14 2 -32
q5 -40 30 -63t68 -23q42 0 75.5 23.5t45.5 59.5l2 5q0 3 1 4q1 4 4 5.5t7 0.5l71 -12q8 -2 7 -8q0 -3 -1 -4q-1 -5 -7 -22q-25 -61 -83.5 -98t-131.5 -37z" />
    <glyph glyph-name="d" unicode="d" horiz-adv-x="536" 
d="M440 690q0 4 3 7t8 3h73q5 0 7.5 -3t1.5 -7l-84 -680q0 -4 -3 -7t-8 -3h-73q-9 0 -9 10l4 33q1 2 -0.5 3t-3.5 -1q-24 -26 -55 -39.5t-65 -13.5q-70 0 -112 35.5t-55 100.5q-7 29 -7 68q0 32 4 60q9 71 31 121q28 66 79.5 103t123.5 37q34 0 61.5 -13.5t45.5 -38.5
q2 -2 3.5 -1t1.5 3zM347 129q28 43 37 126q4 28 4 57q0 43 -12 71q-23 51 -76 51q-57 0 -93 -48q-37 -50 -47 -132q-3 -27 -3 -49q0 -45 12 -75q10 -27 32 -41t54 -14q55 0 92 54z" />
    <glyph glyph-name="e" unicode="e" horiz-adv-x="520" 
d="M487 325q0 -35 -8 -99q-1 -10 -11 -10h-310q-4 0 -4 -4q-2 -24 -2 -32q0 -10 2 -20q5 -40 34.5 -62.5t79.5 -22.5q71 0 118 61q6 10 13 3l51 -38q6 -6 1 -13q-33 -46 -86 -71.5t-116 -25.5q-71 0 -115 31.5t-62 91.5q-10 34 -10 80q0 19 4 63q5 38 10.5 64t14.5 47
q26 69 83 109t132 40q96 0 138.5 -49t42.5 -143zM296 434q-42 0 -71.5 -21.5t-44.5 -57.5q-9 -22 -15 -56q-1 -4 3 -4h222q4 0 4 4q2 24 2 32q0 46 -26.5 74.5t-73.5 28.5z" />
    <glyph glyph-name="f" unicode="f" horiz-adv-x="356" 
d="M341 616q-49 0 -68.5 -19t-25.5 -72l-2 -12q0 -4 4 -4h102q4 0 6.5 -3t1.5 -7l-8 -68q-2 -10 -11 -10h-102q-4 0 -4 -4l-50 -407q-1 -4 -4 -7t-7 -3h-74q-9 0 -9 10l50 407q1 1 0 2.5t-3 1.5h-65q-10 0 -8 10l8 68q2 10 11 10h65q4 0 4 4l2 18q8 66 28 102t57.5 51.5
t102.5 15.5h33q10 0 8 -10l-7 -64q-2 -10 -11 -10h-24z" />
    <glyph glyph-name="g" unicode="g" horiz-adv-x="527" 
d="M413 499q2 10 11 10h74q10 0 8 -10l-58 -473q-15 -121 -87.5 -173t-184.5 -52q-16 0 -48 2q-9 1 -8 11l11 69q1 5 4.5 7.5t7.5 1.5q14 -1 40 -1q82 0 122.5 31.5t50.5 106.5l2 18q0 6 -5 2q-46 -49 -125 -49q-63 0 -110 34t-58 100q-3 21 -3 45q0 32 5 77q10 80 31 128
q26 60 77.5 96.5t115.5 36.5q79 0 119 -50q3 -5 5 1zM366 163q5 15 8.5 32t9.5 62q6 54 6 69q0 8 -2 24q-3 37 -27 60.5t-65 23.5q-40 0 -70.5 -23.5t-46.5 -60.5q-16 -33 -22 -93q-5 -45 -5 -64t3 -30q5 -37 31 -60.5t66 -23.5q42 0 72 23.5t42 60.5z" />
    <glyph glyph-name="h" unicode="h" horiz-adv-x="526" 
d="M332 516q72 0 112.5 -39.5t40.5 -107.5q0 -9 -2 -29l-40 -330q-1 -4 -4 -7t-7 -3h-74q-9 0 -9 10l39 311q1 6 1 18q0 42 -24 68t-66 26q-47 0 -79.5 -31t-38.5 -80l-38 -312q-2 -10 -11 -10h-74q-10 0 -8 10l83 680q2 10 11 10h74q10 0 8 -10l-28 -227q0 -2 1.5 -3t2.5 1
q48 55 130 55z" />
    <glyph glyph-name="i" unicode="i" horiz-adv-x="247" 
d="M177 589q-25 0 -40 15t-15 39q0 32 20.5 53t50.5 21q25 0 40 -14.5t15 -39.5q0 -31 -21 -52.5t-50 -21.5zM66 1q-10 0 -8 10l60 488q0 4 3 7t7 3h74q9 0 9 -10l-60 -488q-2 -10 -11 -10h-74z" />
    <glyph glyph-name="j" unicode="j" horiz-adv-x="241" 
d="M170 589q-24 0 -39 15.5t-15 39.5q0 32 20 52.5t50 20.5q25 0 40 -14.5t15 -39.5q0 -31 -21 -52.5t-50 -21.5zM-78 -207q-10 0 -8 10l7 62q2 10 12 10q55 0 82.5 23t33.5 73l64 528q0 4 3 7t8 3h73q5 0 7.5 -3t1.5 -7l-65 -527q-8 -66 -32 -105t-69 -57t-118 -17z" />
    <glyph glyph-name="k" unicode="k" horiz-adv-x="497" 
d="M58 0q-10 0 -8 10l83 680q2 10 11 10h74q10 0 8 -10l-47 -385q0 -2 1.5 -3t3.5 1l204 201q4 5 12 5h86q6 0 7 -3.5t-3 -8.5l-144 -149q-2 -4 -1 -6l108 -330v-3q0 -4 -3 -6.5t-7 -2.5h-77q-9 0 -10 8l-82 272q-2 4 -5 1l-104 -104q-2 -4 -2 -5l-20 -162q-2 -10 -11 -10
h-74z" />
    <glyph glyph-name="l" unicode="l" horiz-adv-x="228" 
d="M58 0q-10 0 -8 10l83 680q2 10 11 10h74q10 0 8 -10l-83 -680q-2 -10 -11 -10h-74z" />
    <glyph glyph-name="m" unicode="m" horiz-adv-x="801" 
d="M625 516q66 0 103 -37t37 -104q0 -9 -2 -31l-41 -334q-2 -10 -11 -10h-73q-10 0 -8 10l38 314q1 7 1 21q0 41 -22.5 64.5t-62.5 23.5q-45 0 -76.5 -29t-37.5 -78l-39 -316q-2 -10 -11 -10h-73q-10 0 -8 10l38 314q1 7 1 21q0 41 -22.5 64.5t-62.5 23.5q-45 0 -75 -29
t-36 -78l-39 -316q-2 -10 -11 -10h-74q-10 0 -8 10l60 489q2 10 11 10h73q5 0 7.5 -3t1.5 -7l-4 -34q-1 -2 0.5 -3t3.5 1q50 53 131 53q49 0 82 -19.5t47 -57.5q3 -4 6 0q27 39 68 58t88 19z" />
    <glyph glyph-name="n" unicode="n" horiz-adv-x="526" 
d="M332 516q72 0 112.5 -39.5t40.5 -107.5q0 -9 -2 -29l-40 -330q-1 -4 -4 -7t-7 -3h-74q-9 0 -9 10l39 311q1 6 1 18q0 42 -24 68t-66 26q-47 0 -79.5 -31t-38.5 -80l-38 -312q-2 -10 -11 -10h-74q-10 0 -8 10l60 489q2 10 11 10h73q5 0 7.5 -3t1.5 -7l-5 -36q0 -2 1.5 -3
t2.5 1q48 55 130 55z" />
    <glyph glyph-name="o" unicode="o" horiz-adv-x="538" 
d="M249 -8q-72 0 -120.5 37.5t-61.5 104.5q-6 29 -6 67q0 28 3 55q10 73 32 120q29 66 87 103.5t132 37.5q70 0 117 -37.5t61 -102.5q6 -28 6 -64q0 -27 -3 -56q-8 -70 -32 -123q-30 -67 -87 -104.5t-128 -37.5zM259 75q40 0 72 22.5t49 63.5q16 43 22 94q4 44 4 62
q0 13 -2 31q-8 41 -34.5 63.5t-67.5 22.5q-40 0 -72 -22.5t-50 -63.5q-14 -34 -22 -93q-3 -27 -3 -52q0 -24 3 -42q6 -40 33 -63t68 -23z" />
    <glyph glyph-name="p" unicode="p" horiz-adv-x="541" 
d="M496 381q7 -29 7 -69q0 -31 -4 -59q-9 -71 -31 -121q-29 -67 -80 -103.5t-123 -36.5q-34 0 -61.5 13.5t-45.5 38.5q-2 2 -3.5 1t-1.5 -3l-28 -223q-2 -10 -11 -10h-73q-5 0 -7.5 3t-1.5 7l84 680q0 4 3 7t8 3h73q9 0 9 -10l-4 -33q-1 -2 0.5 -3t3.5 1q24 26 55 39.5
t65 13.5q70 0 112 -35.5t55 -100.5zM358 123q37 48 47 132q3 27 3 49q0 45 -12 75q-10 27 -32 41t-54 14q-55 0 -92 -54q-29 -44 -38 -126q-4 -40 -4 -54q0 -43 13 -74q22 -51 76 -51q57 0 93 48z" />
    <glyph glyph-name="q" unicode="q" horiz-adv-x="541" 
d="M416 499q2 10 11 10h74q10 0 8 -10l-83 -680q-2 -10 -11 -10h-74q-10 0 -8 10l27 223q1 2 -0.5 3t-3.5 -1q-24 -25 -55 -38.5t-65 -13.5q-73 0 -115 36.5t-54 103.5q-5 23 -5 59q0 33 4 62q9 74 34 128q29 65 79.5 100.5t120.5 35.5q34 0 61.5 -13.5t45.5 -39.5
q2 -2 3.5 -1t1.5 3zM344 126q30 43 40 128q4 28 4 57q0 41 -11 69q-22 54 -78 54q-64 0 -99 -55q-30 -48 -40 -124q-3 -24 -3 -46q0 -53 18 -86q23 -48 81 -48q54 0 88 51z" />
    <glyph glyph-name="r" unicode="r" horiz-adv-x="360" 
d="M328 514q31 0 55 -13q7 -3 3 -12l-25 -75q-3 -9 -12 -6q-16 7 -38 7l-14 -1q-45 -2 -78.5 -32.5t-39.5 -79.5l-36 -292q-2 -10 -11 -10h-74q-10 0 -8 10l60 489q2 10 11 10h73q5 0 7.5 -3t1.5 -7l-7 -53q0 -3 1.5 -3.5t2.5 1.5q52 70 128 70z" />
    <glyph glyph-name="s" unicode="s" horiz-adv-x="472" 
d="M221 -6q-82 0 -130.5 35t-48.5 89q0 9 1 13l2 11q0 4 3 7t8 3h69q5 0 7.5 -3t1.5 -7l-1 -5q-3 -28 24 -49t72 -21q47 0 77 21.5t30 53.5q0 26 -23.5 39.5t-74.5 28.5t-84 30t-56 42t-23 68q0 75 57.5 119.5t147.5 44.5q79 0 126 -35.5t47 -92.5q0 -11 -1 -16l-1 -3
q0 -4 -3 -7t-7 -3h-68q-5 0 -7.5 3t-1.5 7l1 3q3 29 -22.5 48.5t-72.5 19.5q-46 0 -75 -18.5t-29 -50.5q0 -26 24 -40t76 -30q52 -15 85 -29t56.5 -41t23.5 -69q0 -50 -26.5 -87.5t-74.5 -58t-109 -20.5z" />
    <glyph glyph-name="t" unicode="t" horiz-adv-x="358" 
d="M346 440q-2 -10 -11 -10h-105q-4 0 -4 -4l-33 -265q-1 -7 -1 -19q0 -32 16.5 -46t50.5 -14h28q5 0 7.5 -3t1.5 -7l-8 -62q0 -10 -10 -10q-32 -2 -45 -2q-67 0 -101 21.5t-34 78.5q0 9 2 29l37 299q0 4 -4 4h-59q-10 0 -8 10l7 59q2 10 11 10h59q4 0 4 4l15 118
q2 10 11 10h70q4 0 6.5 -3t1.5 -7l-14 -118q-1 -1 0 -2.5t3 -1.5h105q10 0 8 -10z" />
    <glyph glyph-name="u" unicode="u" horiz-adv-x="522" 
d="M404 499q0 4 3 7t8 3h72q5 0 7.5 -3t1.5 -7l-60 -489q-2 -10 -11 -10h-73q-10 0 -8 10l4 37q1 2 -0.5 2.5t-3.5 -1.5q-46 -55 -127 -55q-67 0 -112 37t-45 104q0 16 1 24l42 341q2 10 11 10h73q4 0 6.5 -3t1.5 -7l-38 -311q-1 -7 -1 -20q0 -43 23 -67.5t66 -24.5
q49 0 81.5 30.5t38.5 81.5z" />
    <glyph glyph-name="v" unicode="v" horiz-adv-x="477" 
d="M178 0q-3 0 -6 2t-4 6l-98 490v2q0 9 9 9h81q4 0 7 -2t4 -6l62 -362q1 -2 3 -2t3 2l150 362q5 8 13 8l81 -1q12 0 7 -11l-217 -489q-5 -8 -13 -8h-82z" />
    <glyph glyph-name="w" unicode="w" horiz-adv-x="721" 
d="M158 0q-7 0 -10 8l-79 490v2q0 9 10 9h76q4 0 6.5 -2.5t2.5 -6.5l48 -363q0 -2 2 -2t3 2l138 363q4 9 12 9h67q8 0 10 -9l51 -362q1 -2 2.5 -2t2.5 2l140 362q4 9 12 9l75 -1q12 0 7 -11l-200 -489q-5 -8 -12 -8h-76q-7 0 -9 8l-54 338q-1 2 -2.5 2t-2.5 -2l-131 -337
q-4 -9 -12 -9h-77z" />
    <glyph glyph-name="x" unicode="x" horiz-adv-x="484" 
d="M14 0q-6 0 -7.5 3.5t1.5 8.5l191 239q2 3 0 6l-131 240l-1 4q0 8 9 8h79q7 0 11 -6l92 -171q1 -1 3 -1t3 1l133 171q5 6 13 6h84q6 0 7.5 -3.5t-2.5 -8.5l-190 -240q-1 -2 -1 -6l132 -239q1 -1 1 -4t-2.5 -5.5t-6.5 -2.5h-80q-7 0 -11 6l-91 171q-1 2 -3 2t-3 -2
l-135 -171q-4 -6 -12 -6h-83z" />
    <glyph glyph-name="y" unicode="y" horiz-adv-x="462" 
d="M10 -199q-3 0 -5 3t-1 7l7 59q2 10 11 10h2q39 1 62.5 10t41 33.5t37.5 73.5q1 1 0.5 3.5l-0.5 2.5l-101 495v2q0 9 9 9h79q8 0 10 -8l64 -377q0 -2 2.5 -2t3.5 2l154 377q5 8 13 8h77q11 0 6 -11l-242 -533q-31 -68 -57 -102t-64 -48t-103 -14h-6z" />
    <glyph glyph-name="z" unicode="z" horiz-adv-x="437" 
d="M19 0q-4 0 -6.5 3t-1.5 7l9 70q0 7 5 12l297 324q2 2 1 3.5t-3 1.5h-244q-9 0 -9 10l9 68q2 10 11 10h350q10 0 8 -10l-8 -71q-1 -7 -6 -12l-300 -324q-2 -1 -1.5 -3t2.5 -2h254q9 0 9 -10l-9 -67q0 -4 -3 -7t-8 -3h-356z" />
    <glyph glyph-name="braceleft" unicode="{" horiz-adv-x="319" 
d="M170 -130q-97 0 -97 90q0 7 2 27l26 213q2 18 2 26q0 58 -45 64q-10 1 -8 11l7 57q0 9 10 11q29 4 45 25.5t21 63.5l25 208q8 60 38.5 89t86.5 29h70q5 0 7.5 -3t1.5 -7l-8 -64q-2 -10 -11 -10h-33q-54 0 -63 -70l-22 -182q-6 -47 -21.5 -74.5t-44.5 -41.5q-5 -2 0 -5
q20 -11 29.5 -31t9.5 -52q0 -9 -2 -33l-23 -187q-1 -7 -1 -19q0 -52 46 -52h33q9 0 9 -10l-8 -63q-2 -10 -11 -10h-71z" />
    <glyph glyph-name="bar" unicode="|" horiz-adv-x="174" 
d="M21 -80q-10 0 -8 10l100 820q1 4 4 7t7 3h74q9 0 9 -10l-101 -820q-2 -10 -11 -10h-74z" />
    <glyph glyph-name="braceright" unicode="}" horiz-adv-x="319" 
d="M6 -130q-4 0 -6.5 3t-1.5 7l8 63q0 4 3 7t8 3h33q27 0 43.5 18t20.5 53l22 187q6 47 22 75t44 41q5 4 0 5q-20 11 -29 30t-9 50q0 23 2 36l22 182q1 6 1 17q0 53 -47 53h-34q-10 0 -8 10l8 64q0 4 3 7t8 3h71q49 0 73 -22.5t24 -68.5q0 -7 -2 -27l-25 -208q-2 -20 -2 -27
q0 -29 10.5 -44t33.5 -18q9 -1 9 -11l-7 -57q-2 -10 -11 -11q-28 -4 -44 -25.5t-21 -64.5l-26 -213q-7 -60 -37.5 -88.5t-86.5 -28.5h-72z" />
    <glyph glyph-name="asciitilde" unicode="~" horiz-adv-x="497" 
d="M346 220q-27 0 -46.5 8t-43.5 24q-22 13 -38.5 20t-36.5 7q-42 0 -74 -37l-2 -4q-6 -6 -12 -1l-38 28q-7 6 -3 13q20 38 57.5 61.5t78.5 23.5q25 0 43 -7t37 -19q5 -3 21 -13t31 -15t31 -5q20 0 35 10t32 29q7 8 13 3l43 -32q7 -7 3 -13q-22 -36 -57 -58.5t-74 -22.5z
" />
    <glyph glyph-name="uni00A0" unicode="&#xa0;" horiz-adv-x="194" 
 />
    <glyph glyph-name="exclamdown" unicode="&#xa1;" horiz-adv-x="318" 
d="M224 708q24 0 39 -15.5t15 -39.5q0 -32 -20 -52.5t-50 -20.5q-25 0 -40 14.5t-15 39.5q0 31 21 52.5t50 21.5zM160 468q1 10 11 10h57q10 0 9 -10l-47 -447q-2 -10 -11 -10h-74q-10 0 -8 10z" />
    <glyph glyph-name="cent" unicode="&#xa2;" horiz-adv-x="510" 
d="M389 253q0 3 1 4q3 8 11 6l71 -12q8 -2 7 -8q0 -3 -1 -4q-1 -5 -7 -22q-21 -53 -69 -88.5t-110 -44.5q-5 0 -5 -4l-7 -74q-2 -10 -11 -10h-64q-10 0 -8 10l11 77q0 4 -3 5q-52 12 -86 48t-43 89q-4 21 -4 53q0 35 4 68q9 72 30 121q21 51 63 86t97 48q4 1 4 5l9 75
q0 4 3 7t8 3h63q4 0 6.5 -3t1.5 -7l-10 -72q0 -4 3 -4q60 -9 100 -45t48 -87q4 -17 4 -33q-1 -9 -10 -10l-74 -11h-2q-6 0 -8 9l-1 16q-4 34 -31 57t-70 23q-42 0 -73.5 -23t-45.5 -61q-12 -29 -21 -95q-4 -33 -4 -62q0 -14 2 -32q5 -40 30 -63t68 -23q42 0 75.5 23.5
t45.5 59.5z" />
    <glyph glyph-name="sterling" unicode="&#xa3;" horiz-adv-x="590" 
d="M209 88q-3 -2 -2.5 -3.5t3.5 -1.5h330q10 0 8 -10l-7 -63q-1 -4 -4 -7t-7 -3h-430q-9 0 -9 10l8 65q2 8 9 12q25 15 41 44t21 68l12 98q0 4 -3 4h-72q-9 0 -9 10l7 58q1 4 4 7t7 3h72q3 0 5 4l14 121q12 96 74 150t156 54q70 0 111.5 -37t55.5 -105v-2q0 -8 -8 -10
l-72 -13h-3q-6 0 -7 7q-9 40 -30.5 58.5t-56.5 18.5q-53 0 -86 -29.5t-40 -89.5l-15 -123q-1 -1 0 -2.5t3 -1.5h183q5 0 7.5 -3t1.5 -7l-7 -58q-2 -10 -11 -10h-184q-1 0 -2.5 -1t-1.5 -3l-12 -96q-8 -69 -54 -113z" />
    <glyph glyph-name="currency" unicode="&#xa4;" horiz-adv-x="524" 
d="M478 329q0 -73 -46 -137q-2 -4 0 -6l56 -65q2 -2 2 -5q0 -5 -4 -9l-52 -42q-3 -3 -7 -3q-3 0 -7 4l-52 62q-3 3 -6 1q-52 -32 -110 -32q-59 0 -100 29q-3 2 -6 -1l-65 -59q-8 -7 -14 -1l-40 42q-7 7 0 14l67 60q2 2 2 6q-22 42 -22 90q0 76 47 136q2 3 -1 6l-55 65
q-2 4 -2 5q0 5 5 9l51 41q7 7 13 -1l53 -61q2 -2 5 -1q54 32 112 32q60 0 106 -35q3 -2 6 1l71 64q8 7 14 1l40 -41q7 -7 0 -14l-77 -69q-2 -2 -2 -6q18 -36 18 -80zM155 287q0 -45 31 -76.5t76 -31.5q35 0 66 19t50 50.5t19 68.5q0 46 -30 77.5t-75 31.5q-35 0 -66.5 -19
t-51 -51t-19.5 -69z" />
    <glyph glyph-name="yen" unicode="&#xa5;" horiz-adv-x="667" 
d="M645 700q5 0 7 -3.5t-2 -8.5l-221 -345q-2 -5 1 -5h105q9 0 9 -10l-5 -36q0 -4 -3 -7t-8 -3h-128q-4 0 -4 -4l-9 -71q0 -4 4 -4h128q4 0 6.5 -3t1.5 -7l-4 -36q-2 -10 -11 -10h-128q-3 0 -5 -4l-16 -132q-2 -10 -11 -10h-73q-5 0 -7.5 3t-1.5 7l16 132q0 4 -3 4h-130
q-9 0 -9 10l5 36q2 10 11 10h130q4 0 4 4l9 71q0 4 -4 4h-130q-4 0 -6.5 3t-1.5 7l4 36q1 4 4 7t7 3h107q3 0 3 5l-136 345l-1 3q0 9 10 9h79q10 0 11 -7l112 -293q1 -2 3 -2t3 2l186 293q3 7 12 7h80z" />
    <glyph glyph-name="brokenbar" unicode="&#xa6;" horiz-adv-x="174" 
d="M80 399q-10 0 -8 10l41 341q1 4 4 7t7 3h74q9 0 9 -10l-42 -341q-2 -10 -11 -10h-74zM21 -80q-10 0 -8 10l42 341q0 4 3 7t8 3h73q9 0 9 -10l-42 -341q-2 -10 -11 -10h-74z" />
    <glyph glyph-name="section" unicode="&#xa7;" horiz-adv-x="454" 
d="M178 -207q-71 0 -110 37.5t-39 102.5q0 16 1 25l2 28q2 10 11 10h74q10 0 8 -10l-1 -14q-1 -7 -1 -19q0 -36 19 -57t51 -21q36 0 62 25.5t31 63.5q1 4 1 12q0 26 -14.5 43t-35 27t-61.5 26q-43 17 -69 34.5t-40 47.5q-12 27 -12 64q0 36 10.5 67.5t28.5 54.5q32 40 79 55
q6 2 1 5q-34 16 -55 48t-21 75q0 48 25.5 90.5t70.5 68t100 25.5q70 0 112 -39t42 -104q0 -14 -1 -21l-3 -20q0 -4 -3 -7t-7 -3h-74q-9 0 -9 10l2 11q1 5 1 14q0 34 -19.5 55.5t-51.5 21.5q-38 0 -65.5 -30.5t-27.5 -70.5q0 -36 26 -57.5t76 -38.5q36 -13 61 -27t43 -38
q24 -32 24 -83q0 -32 -10.5 -63.5t-28.5 -57.5q-32 -47 -77 -57q-5 -1 -1 -4q76 -41 76 -121q0 -53 -27 -95t-73 -65.5t-101 -23.5zM225 154q50 0 79 38q10 15 16 35t6 41q0 26 -11 43q-21 33 -66 33q-24 0 -45 -12t-34 -32q-21 -27 -21 -72q0 -22 7 -36q22 -38 69 -38z" />
    <glyph glyph-name="dieresis" unicode="&#xa8;" horiz-adv-x="349" 
d="M317 593q-25 0 -40 15t-15 39q0 32 20.5 53t50.5 21q24 0 39 -15.5t15 -40.5q0 -31 -20.5 -51.5t-49.5 -20.5zM141 593q-25 0 -40 15t-15 39q0 32 20.5 53t50.5 21q24 0 39 -15.5t15 -40.5q0 -31 -20.5 -51.5t-49.5 -20.5z" />
    <glyph glyph-name="copyright" unicode="&#xa9;" horiz-adv-x="825" 
d="M391 -8q-91 0 -161.5 39.5t-109 110t-38.5 159.5q0 25 3 50q12 101 67.5 182.5t141 128t185.5 46.5q92 0 162.5 -39.5t109.5 -109.5t39 -158q0 -24 -3 -50q-12 -102 -67.5 -184t-141.5 -128.5t-187 -46.5zM399 58q82 0 151.5 38t114.5 105t55 150q3 21 3 42
q0 72 -31.5 128.5t-88.5 88.5t-132 32q-81 0 -150.5 -38t-114 -104.5t-54.5 -148.5q-3 -22 -3 -43q0 -73 31 -129.5t88 -88.5t131 -32zM415 172q-46 0 -72.5 24.5t-26.5 66.5q0 10 1 16l17 144q6 48 40.5 77t84.5 29q46 0 73 -24t27 -65q0 -9 -1 -14q-2 -9 -11 -9h-34
q-9 0 -9 10l1 9q0 21 -14.5 33t-37.5 12q-26 0 -43.5 -14.5t-20.5 -39.5l-19 -153q-3 -24 11 -39t40 -15t44 15t21 39q0 4 3 7t8 3h34q10 0 8 -9q-5 -46 -39.5 -74.5t-84.5 -28.5z" />
    <glyph glyph-name="ordfeminine" unicode="&#xaa;" horiz-adv-x="316" 
d="M271 565q3 0 5 4l2 20l1 11q0 27 -17 43.5t-48 16.5q-26 0 -46 -11.5t-27 -30.5q-5 -9 -13 -8l-33 3q-10 2 -8 11q11 37 47.5 60.5t85.5 23.5q53 0 83.5 -26.5t30.5 -70.5q0 -10 -1 -15l-27 -219q0 -4 -3 -7t-8 -3h-35q-4 0 -6.5 3t-1.5 7l2 18q1 2 -0.5 2.5t-3.5 -1.5
q-37 -35 -97 -35q-44 0 -71 20.5t-27 59.5q0 57 40.5 90.5t106.5 33.5h69zM168 407q37 0 64.5 19.5t31.5 50.5l5 39q0 4 -3 4h-62q-43 0 -68.5 -17t-25.5 -52q0 -44 58 -44zM35 297q1 4 4 7t7 3h250q10 0 8 -10l-5 -44q-2 -10 -11 -10h-249q-5 0 -7.5 3t-1.5 7z" />
    <glyph glyph-name="guillemotleft" unicode="&#xab;" horiz-adv-x="513" 
d="M266 119q2 -4 2 -5q0 -3 -2.5 -5t-6.5 -2h-73q-9 0 -11 6l-93 161q-1 2 -1 6t3 8l132 161q5 6 13 6h72q6 0 7.5 -3.5t-2.5 -8.5l-132 -159q-3 -3 -1 -6zM424 119q2 -4 2 -5q0 -3 -2.5 -5t-6.5 -2h-73q-9 0 -11 6l-93 161q-1 2 -1 6t3 8l132 161q5 6 13 6h72q6 0 7.5 -3.5
t-2.5 -8.5l-131 -159q-3 -3 -1 -6z" />
    <glyph glyph-name="logicalnot" unicode="&#xac;" horiz-adv-x="480" 
d="M56 340q2 10 11 10h393q9 0 9 -10l-23 -180q0 -4 -3 -7t-7 -3h-63q-4 0 -6.5 3t-1.5 7l13 103q0 4 -4 4h-317q-10 0 -8 10z" />
    <glyph glyph-name="uni00AD" unicode="&#xad;" horiz-adv-x="388" 
d="M57 264q-5 0 -7.5 3t-1.5 7l8 63q2 10 11 10h300q4 0 6.5 -3t1.5 -7l-8 -63q0 -4 -3 -7t-8 -3h-299z" />
    <glyph glyph-name="registered" unicode="&#xae;" horiz-adv-x="435" 
d="M285 712q50 0 89 -22t61 -60t22 -86q0 -62 -30 -114t-80.5 -82t-109.5 -30q-49 0 -88 22.5t-61 62t-22 88.5q0 59 30 110t80.5 81t108.5 30zM242 362q42 0 78.5 20.5t61 56t29.5 79.5q1 6 1 19q0 57 -37 94t-95 37q-45 0 -83.5 -23t-61.5 -62.5t-23 -86.5
q0 -59 36.5 -96.5t93.5 -37.5zM330 558q0 -38 -31 -53q-4 -4 -3 -6l17 -62l1 -3q0 -9 -10 -9h-18q-10 0 -11 8l-14 63q-1 3 -4 3h-11q-2 0 -3.5 -1t-1.5 -3l-7 -60q-2 -10 -11 -10h-16q-4 0 -6.5 3t-1.5 7l20 161q0 4 3 7t8 3h54q22 0 34 -13t12 -35zM255 575q-4 0 -4 -4
l-6 -41q0 -4 4 -4h20q10 0 17 6.5t9 17.5v3q0 22 -20 22h-20z" />
    <glyph glyph-name="macron" unicode="&#xaf;" horiz-adv-x="269" 
d="M62 588q-4 0 -6.5 3t-1.5 7l6 47q2 10 11 10h250q10 0 8 -10l-5 -47q-2 -10 -11 -10h-251z" />
    <glyph glyph-name="degree" unicode="&#xb0;" horiz-adv-x="368" 
d="M223 481q-61 0 -100.5 40.5t-39.5 102.5q0 49 25 91.5t66.5 67.5t88.5 25q62 0 101.5 -40.5t39.5 -101.5q0 -50 -25 -92.5t-66.5 -67.5t-89.5 -25zM231 546q44 0 77 33t33 79q0 38 -24 62.5t-62 24.5q-28 0 -53 -15.5t-40.5 -41.5t-15.5 -56q0 -37 24 -61.5t61 -24.5z
" />
    <glyph glyph-name="plusminus" unicode="&#xb1;" horiz-adv-x="480" 
d="M467 409q9 0 9 -10l-8 -63q-2 -10 -11 -10h-152q-2 0 -3.5 -1t-1.5 -3l-19 -154q0 -4 -3 -7t-8 -3h-61q-10 0 -8 10l19 154q0 4 -4 4h-152q-10 0 -8 10l7 63q2 10 11 10h153q1 0 2.5 1t1.5 3l20 160q0 4 3 7t7 3h62q4 0 6.5 -3t1.5 -7l-20 -160q0 -4 4 -4h152zM24 0
q-10 0 -8 10l7 63q2 10 11 10h393q9 0 9 -10l-8 -63q-2 -10 -11 -10h-393z" />
    <glyph glyph-name="twosuperior" unicode="&#xb2;" horiz-adv-x="322" 
d="M76 433q-10 0 -8 10l5 39q0 6 6 12q54 53 147 150q66 69 66 108q0 22 -15 35.5t-41 13.5q-28 0 -47 -16t-22 -43l-2 -13q-2 -10 -11 -10h-45q-4 0 -6.5 3t-1.5 7l3 23q8 48 46.5 77t92.5 29q53 0 83 -27.5t30 -70.5q0 -30 -16 -62t-50 -69q-57 -65 -129 -135
q-1 -2 0 -3.5t3 -1.5h161q10 0 8 -10l-4 -36q-2 -10 -11 -10h-242z" />
    <glyph glyph-name="threesuperior" unicode="&#xb3;" horiz-adv-x="313" 
d="M327 637q7 -18 7 -45q0 -8 -2 -28q-4 -38 -22 -69q-18 -32 -50 -50.5t-71 -18.5q-43 0 -71.5 23t-36.5 61q-4 18 -2 44q0 4 3 7t7 3h45q9 0 9 -10v-21q0 -4 2 -12q4 -17 17.5 -27.5t33.5 -10.5q36 0 55 31q15 21 18 52q1 7 1 20q0 22 -6 37q-12 30 -48 30q-10 0 -22 -6
q-2 -1 -5 -1q-5 0 -8 4l-18 27q-1 2 -1 5q0 5 4 9l106 99q2 1 1.5 3t-2.5 2h-147q-5 0 -7.5 3t-1.5 7l5 36q0 4 3 7t8 3h223q4 0 6.5 -3t1.5 -7l-5 -39q0 -4 -6 -12l-94 -92q-3 -3 2 -5q50 -7 68 -56z" />
    <glyph glyph-name="acute" unicode="&#xb4;" horiz-adv-x="202" 
d="M90 573q-6 0 -8 3.5t2 8.5l70 108q4 7 13 7h65q5 0 6.5 -3.5t-2.5 -8.5l-82 -108q-7 -7 -13 -7h-51z" />
    <glyph glyph-name="uni00B5" unicode="&#xb5;" horiz-adv-x="531" 
d="M409 499q1 4 4 7t7 3h73q9 0 9 -10l-60 -489q-2 -10 -11 -10h-73q-9 0 -9 10l5 35q0 2 -1.5 2.5t-3.5 -1.5q-45 -53 -126 -53q-41 0 -76 15q-3 2 -5 -3l-24 -195q0 -4 -3 -7t-8 -3h-73q-5 0 -7.5 3t-1.5 7l85 689q2 10 11 10h73q5 0 7.5 -3t1.5 -7l-41 -330
q-1 -43 22 -68t67 -25q49 0 81.5 30.5t38.5 81.5z" />
    <glyph glyph-name="paragraph" unicode="&#xb6;" horiz-adv-x="576" 
d="M557 700q5 0 7.5 -3t1.5 -7l-108 -880q-2 -10 -11 -10h-51q-4 0 -6.5 3t-1.5 7l100 816q0 4 -3 4h-115q-4 0 -4 -4l-100 -816q-2 -10 -11 -10h-52q-4 0 -6.5 3t-1.5 7l53 436q2 4 -3 4q-80 6 -128.5 59t-48.5 134q0 10 2 32q8 64 42.5 115t88.5 80.5t119 29.5h237z" />
    <glyph glyph-name="periodcentered" unicode="&#xb7;" horiz-adv-x="212" 
d="M114 219q-25 0 -40 15t-15 39q0 32 20.5 53t50.5 21q24 0 39 -15.5t15 -40.5q0 -31 -20.5 -51.5t-49.5 -20.5z" />
    <glyph glyph-name="cedilla" unicode="&#xb8;" horiz-adv-x="146" 
d="M-33 -181q-8 3 -5 12l9 33q1 4 4.5 6.5t8.5 0.5q10 -3 20 -3q21 0 34.5 12t13.5 37q0 33 -40 71q-3 3 -3 6q0 6 8 6h40q8 0 12 -4q46 -43 46 -90q0 -17 -6 -33q-12 -33 -38 -47t-57 -14q-24 0 -47 7z" />
    <glyph glyph-name="onesuperior" unicode="&#xb9;" horiz-adv-x="182" 
d="M159 851q5 2 12 2h47q9 0 9 -10l-50 -400q0 -4 -3 -7t-8 -3h-43q-9 0 -9 10l43 347q0 3 -4 3l-43 -6h-2q-8 0 -8 9l4 28q2 9 9 12z" />
    <glyph glyph-name="ordmasculine" unicode="&#xba;" horiz-adv-x="347" 
d="M198 367q-44 0 -73 24.5t-40 68.5q-5 20 -5 41q0 19 3 37q5 44 20 78q20 44 56 68t82 24q43 0 72.5 -24t39.5 -67q4 -16 4 -39q0 -19 -3 -39q-5 -44 -20 -79q-20 -44 -56 -68.5t-80 -24.5zM205 421q23 0 43.5 15t30.5 40t15 62q3 21 3 39q0 35 -17 56t-47 21
q-24 0 -43.5 -14.5t-30.5 -40.5q-12 -26 -15 -61q-2 -22 -2 -31q0 -15 2 -31q3 -25 19.5 -40t41.5 -15zM47 243q-10 0 -8 10l5 46q1 4 4 7t7 3h275q10 0 8 -10l-5 -46q-2 -10 -11 -10h-275z" />
    <glyph glyph-name="guillemotright" unicode="&#xbb;" horiz-adv-x="513" 
d="M88 107q-6 0 -7.5 3.5t2.5 8.5l132 159q2 3 0 6l-92 159q-2 4 -2 5q0 7 10 7h72q9 0 11 -6l93 -161q1 -2 1 -6q0 -3 -3 -8l-132 -161q-5 -6 -12 -6h-73zM246 107q-6 0 -7.5 3.5t2.5 8.5l132 159q2 3 0 6l-92 159q-2 4 -2 5q0 7 10 7h72q9 0 11 -6l93 -161q1 -2 1 -6
q0 -3 -3 -8l-132 -161q-5 -6 -12 -6h-73z" />
    <glyph glyph-name="onequarter" unicode="&#xbc;" horiz-adv-x="789" 
d="M140 698q5 2 12 2h47q9 0 9 -10l-50 -400q0 -4 -3 -7t-8 -3h-43q-9 0 -9 10l43 347q0 3 -4 3l-43 -6h-2q-8 0 -8 9l4 28q2 9 9 12zM89 0q-6 0 -7.5 3.5t2.5 8.5l488 681q5 7 12 7h49q6 0 7.5 -3.5t-2.5 -8.5l-487 -681q-5 -7 -13 -7h-49zM741 169q9 0 9 -10l-5 -39
q-2 -10 -11 -10h-19q-2 0 -3.5 -1t-1.5 -3l-12 -96q0 -4 -3 -7t-8 -3h-44q-9 0 -9 10l12 96q0 4 -3 4h-173q-10 0 -8 10l4 33q0 5 4 12l140 247q5 8 12 8h45q5 0 7 -3.5t0 -8.5l-132 -234q-1 -2 -0.5 -3.5t2.5 -1.5h106q4 0 4 4l10 81q2 10 11 10h45q10 0 8 -10l-10 -81
q0 -4 4 -4h19z" />
    <glyph glyph-name="onehalf" unicode="&#xbd;" horiz-adv-x="774" 
d="M140 698q5 2 12 2h47q9 0 9 -10l-50 -400q0 -4 -3 -7t-8 -3h-43q-9 0 -9 10l43 347q0 3 -4 3l-43 -6h-2q-8 0 -8 9l4 28q2 9 9 12zM89 0q-6 0 -7.5 3.5t2.5 8.5l488 681q5 7 12 7h49q6 0 7.5 -3.5t-2.5 -8.5l-487 -681q-5 -7 -13 -7h-49zM466 0q-10 0 -8 10l5 39
q0 6 6 12q54 53 147 150q66 69 66 108q0 22 -15 35.5t-41 13.5q-28 0 -47 -16t-22 -43l-2 -13q-2 -10 -11 -10h-45q-4 0 -6.5 3t-1.5 7l3 23q8 48 46.5 77t92.5 29q53 0 83 -27.5t30 -70.5q0 -30 -16 -62t-50 -69q-57 -65 -129 -135q-1 -2 0 -3.5t3 -1.5h161q10 0 8 -10
l-4 -36q-2 -10 -11 -10h-242z" />
    <glyph glyph-name="threequarters" unicode="&#xbe;" horiz-adv-x="879" 
d="M309 491q7 -18 7 -45q0 -8 -2 -28q-4 -38 -22 -69q-18 -32 -50 -50.5t-71 -18.5q-43 0 -71.5 23t-36.5 61q-4 18 -2 44q0 4 3 7t7 3h45q9 0 9 -10v-21q0 -4 2 -12q4 -17 17.5 -27.5t33.5 -10.5q36 0 55 31q15 21 18 52q1 7 1 20q0 22 -6 37q-12 30 -48 30q-10 0 -22 -6
q-2 -1 -5 -1q-5 0 -8 4l-18 27q-1 2 -1 5q0 5 4 9l106 99q2 1 1.5 3t-2.5 2h-147q-5 0 -7.5 3t-1.5 7l5 36q0 4 3 7t8 3h223q4 0 6.5 -3t1.5 -7l-5 -39q0 -4 -6 -12l-94 -92q-3 -3 2 -5q50 -7 68 -56zM183 0q-6 0 -7.5 3.5t2.5 8.5l488 681q5 7 12 7h49q6 0 7.5 -3.5
t-2.5 -8.5l-487 -681q-5 -7 -13 -7h-49zM834 169q9 0 9 -10l-5 -39q-2 -10 -11 -10h-19q-2 0 -3.5 -1t-1.5 -3l-12 -96q0 -4 -3 -7t-8 -3h-44q-9 0 -9 10l12 96q0 4 -3 4h-173q-10 0 -8 10l4 33q0 5 4 12l140 247q5 8 12 8h45q5 0 7 -3.5t0 -8.5l-132 -234q-1 -2 -0.5 -3.5
t2.5 -1.5h106q4 0 4 4l10 81q2 10 11 10h45q10 0 8 -10l-10 -81q0 -4 4 -4h19z" />
    <glyph glyph-name="questiondown" unicode="&#xbf;" horiz-adv-x="468" 
d="M295 499q25 0 40 -15t15 -39q0 -31 -21 -52.5t-50 -21.5q-24 0 -39 15.5t-15 39.5q0 31 20.5 52t49.5 21zM305 292q4 0 6.5 -3t1.5 -7l-6 -50q-5 -45 -31 -74t-73 -62q-32 -23 -50.5 -39.5t-31.5 -40.5t-13 -56q0 -38 24.5 -60t66.5 -22q48 0 81 28t38 72l4 26q0 4 3 7
t7 3l74 -4q10 0 8 -10l-3 -22q-6 -55 -37 -97.5t-79.5 -66t-107.5 -23.5q-81 0 -128 42t-47 114q0 8 2 26q6 44 24.5 76t41 52t57.5 45q37 25 55.5 44.5t21.5 46.5l6 45q2 10 11 10h74z" />
    <glyph glyph-name="Agrave" unicode="&#xc0;" horiz-adv-x="611" 
d="M472 0q-3 0 -6 2t-4 6l-21 117q0 3 -3 3h-273q-3 0 -4 -3l-49 -117q-5 -8 -13 -8h-79q-5 0 -6.5 3t0.5 8l296 681q5 8 13 8h97q3 0 6 -2t4 -6l131 -681v-2q0 -9 -9 -9h-80zM195 209q-1 -2 0.5 -3.5t3.5 -1.5h223q2 0 3.5 1.5t0.5 3.5l-67 371q0 2 -2 2t-4 -2zM416 776
q1 -1 1 -4q0 -4 -3 -6t-8 -2h-52q-6 0 -11 7l-54 108q-1 2 -1 6q0 6 8 6h65q8 0 11 -7z" />
    <glyph glyph-name="Aacute" unicode="&#xc1;" horiz-adv-x="611" 
d="M472 0q-3 0 -6 2t-4 6l-21 117q0 3 -3 3h-273q-3 0 -4 -3l-49 -117q-5 -8 -13 -8h-79q-5 0 -6.5 3t0.5 8l296 681q5 8 13 8h97q3 0 6 -2t4 -6l131 -681v-2q0 -9 -9 -9h-80zM195 209q-1 -2 0.5 -3.5t3.5 -1.5h223q2 0 3.5 1.5t0.5 3.5l-67 371q0 2 -2 2t-4 -2zM339 764
q-6 0 -8 3.5t2 8.5l70 108q4 7 13 7h65q5 0 6.5 -3.5t-2.5 -8.5l-82 -108q-7 -7 -13 -7h-51z" />
    <glyph glyph-name="Acircumflex" unicode="&#xc2;" horiz-adv-x="611" 
d="M472 0q-3 0 -6 2t-4 6l-21 117q0 3 -3 3h-273q-3 0 -4 -3l-49 -117q-5 -8 -13 -8h-79q-5 0 -6.5 3t0.5 8l296 681q5 8 13 8h97q3 0 6 -2t4 -6l131 -681v-2q0 -9 -9 -9h-80zM195 209q-1 -2 0.5 -3.5t3.5 -1.5h223q2 0 3.5 1.5t0.5 3.5l-67 371q0 2 -2 2t-4 -2zM253 764
q-6 0 -7.5 3.5t2.5 8.5l90 109q5 6 14 6h82q10 0 12 -6l63 -109l2 -5q0 -7 -9 -7h-57q-9 0 -11 6l-42 76q-1 2 -3 2t-3 -2l-63 -76q-4 -6 -12 -6h-58z" />
    <glyph glyph-name="Atilde" unicode="&#xc3;" horiz-adv-x="611" 
d="M472 0q-3 0 -6 2t-4 6l-21 117q0 3 -3 3h-273q-3 0 -4 -3l-49 -117q-5 -8 -13 -8h-79q-5 0 -6.5 3t0.5 8l296 681q5 8 13 8h97q3 0 6 -2t4 -6l131 -681v-2q0 -9 -9 -9h-80zM195 209q-1 -2 0.5 -3.5t3.5 -1.5h223q2 0 3.5 1.5t0.5 3.5l-67 371q0 2 -2 2t-4 -2zM442 784
q-19 0 -32.5 5t-27.5 15q-17 10 -25.5 14t-19.5 4q-32 0 -54 -22l-4 -4q-6 -6 -12 0l-24 28q-5 7 0 14q19 26 44 40t54 14q16 0 28 -4.5t21.5 -10.5t13.5 -8t13.5 -8t17 -8.5t15.5 -2.5q31 0 54 27q6 10 14 2l20 -28q3 -4 3 -6.5t-2 -7.5q-15 -25 -41.5 -39t-55.5 -14z" />
    <glyph glyph-name="Adieresis" unicode="&#xc4;" horiz-adv-x="611" 
d="M472 0q-3 0 -6 2t-4 6l-21 117q0 3 -3 3h-273q-3 0 -4 -3l-49 -117q-5 -8 -13 -8h-79q-5 0 -6.5 3t0.5 8l296 681q5 8 13 8h97q3 0 6 -2t4 -6l131 -681v-2q0 -9 -9 -9h-80zM195 209q-1 -2 0.5 -3.5t3.5 -1.5h223q2 0 3.5 1.5t0.5 3.5l-67 371q0 2 -2 2t-4 -2zM469 784
q-25 0 -40 15t-15 39q0 32 20.5 53t50.5 21q24 0 39 -15.5t15 -40.5q0 -31 -20.5 -51.5t-49.5 -20.5zM293 784q-25 0 -40 15t-15 39q0 32 20.5 53t50.5 21q24 0 39 -15.5t15 -40.5q0 -31 -20.5 -51.5t-49.5 -20.5z" />
    <glyph glyph-name="Aring" unicode="&#xc5;" horiz-adv-x="611" 
d="M472 0q-3 0 -6 2t-4 6l-21 117q0 3 -3 3h-273q-3 0 -4 -3l-49 -117q-5 -8 -13 -8h-79q-5 0 -6.5 3t0.5 8l296 681q5 8 13 8h97q3 0 6 -2t4 -6l131 -681v-2q0 -9 -9 -9h-80zM195 209q-1 -2 0.5 -3.5t3.5 -1.5h223q2 0 3.5 1.5t0.5 3.5l-67 371q0 2 -2 2t-4 -2zM378 764
q-43 0 -71 28t-28 71q0 35 17.5 64.5t47 46.5t62.5 17q43 0 70.5 -27.5t27.5 -70.5q0 -35 -17 -64.5t-46 -47t-63 -17.5zM384 818q26 0 46.5 20t20.5 47q0 23 -14.5 38t-37.5 15q-26 0 -46 -20.5t-20 -48.5q0 -22 14.5 -36.5t36.5 -14.5z" />
    <glyph glyph-name="AE" unicode="&#xc6;" horiz-adv-x="907" 
d="M915 627q-2 -10 -11 -10h-324q-4 0 -4 -4l-27 -215q0 -4 4 -4h216q9 0 9 -10l-8 -63q-2 -10 -11 -10h-216q-2 0 -3.5 -1t-1.5 -3l-27 -220q0 -4 4 -4h324q4 0 6.5 -3t1.5 -7l-8 -63q0 -4 -3 -7t-8 -3h-411q-10 0 -8 10l14 114q0 4 -4 4h-225q-2 0 -4 -3l-74 -118
q-3 -7 -12 -7h-83q-5 0 -6.5 3.5t1.5 8.5l426 681q4 7 13 7h459q5 0 7.5 -3t1.5 -7zM241 209q-2 -5 2 -5h186q4 0 4 4l46 376q1 3 -1 3t-4 -2z" />
    <glyph glyph-name="Ccedilla" unicode="&#xc7;" horiz-adv-x="589" 
d="M573 482q0 -2 -3 -4.5t-7 -2.5l-74 -4q-10 0 -9 9v3q2 16 2 23q0 54 -34.5 86.5t-92.5 32.5q-64 0 -108.5 -39t-52.5 -103l-33 -266q-1 -7 -1 -21q0 -55 34 -88t94 -33q64 0 108 39t52 103v2q2 9 11 9l73 -4q10 0 8 -10q-11 -96 -78.5 -157t-168.5 -66q-5 0 -3 -5
q34 -35 34 -76q0 -19 -6 -35q-12 -33 -37.5 -47t-56.5 -14q-24 0 -47 7q-8 3 -5 12l8 33q3 10 13 7q11 -3 20 -3q21 0 34.5 12t13.5 37q0 38 -47 77q-1 2 -2 2t-2 1q-68 17 -105.5 66t-37.5 122q0 10 2 34l32 259q8 68 44 119.5t93 80t127 28.5q97 0 154 -51t57 -138
q0 -10 -2 -32z" />
    <glyph glyph-name="Egrave" unicode="&#xc8;" horiz-adv-x="580" 
d="M588 627q-2 -10 -11 -10h-344q-4 0 -4 -4l-27 -215q0 -4 4 -4h236q9 0 9 -10l-8 -63q-2 -10 -11 -10h-237q-4 0 -4 -4l-27 -220q0 -4 3 -4h345q10 0 8 -10l-8 -63q0 -4 -3 -7t-8 -3h-431q-9 0 -9 10l84 680q2 10 11 10h431q5 0 7.5 -3t1.5 -7zM414 776q1 -1 1 -4
q0 -4 -3 -6t-8 -2h-52q-6 0 -11 7l-54 108q-1 2 -1 6q0 6 8 6h65q8 0 11 -7z" />
    <glyph glyph-name="Eacute" unicode="&#xc9;" horiz-adv-x="580" 
d="M588 627q-2 -10 -11 -10h-344q-4 0 -4 -4l-27 -215q0 -4 4 -4h236q9 0 9 -10l-8 -63q-2 -10 -11 -10h-237q-4 0 -4 -4l-27 -220q0 -4 3 -4h345q10 0 8 -10l-8 -63q0 -4 -3 -7t-8 -3h-431q-9 0 -9 10l84 680q2 10 11 10h431q5 0 7.5 -3t1.5 -7zM336 764q-6 0 -8 3.5t2 8.5
l70 108q4 7 13 7h65q5 0 6.5 -3.5t-2.5 -8.5l-82 -108q-7 -7 -13 -7h-51z" />
    <glyph glyph-name="Ecircumflex" unicode="&#xca;" horiz-adv-x="580" 
d="M588 627q-2 -10 -11 -10h-344q-4 0 -4 -4l-27 -215q0 -4 4 -4h236q9 0 9 -10l-8 -63q-2 -10 -11 -10h-237q-4 0 -4 -4l-27 -220q0 -4 3 -4h345q10 0 8 -10l-8 -63q0 -4 -3 -7t-8 -3h-431q-9 0 -9 10l84 680q2 10 11 10h431q5 0 7.5 -3t1.5 -7zM251 764q-6 0 -7.5 3.5
t2.5 8.5l90 109q5 6 14 6h82q10 0 12 -6l63 -109l2 -5q0 -7 -9 -7h-57q-9 0 -11 6l-42 76q-1 2 -3 2t-3 -2l-63 -76q-4 -6 -12 -6h-58z" />
    <glyph glyph-name="Edieresis" unicode="&#xcb;" horiz-adv-x="580" 
d="M588 627q-2 -10 -11 -10h-344q-4 0 -4 -4l-27 -215q0 -4 4 -4h236q9 0 9 -10l-8 -63q-2 -10 -11 -10h-237q-4 0 -4 -4l-27 -220q0 -4 3 -4h345q10 0 8 -10l-8 -63q0 -4 -3 -7t-8 -3h-431q-9 0 -9 10l84 680q2 10 11 10h431q5 0 7.5 -3t1.5 -7zM467 784q-25 0 -40 15
t-15 39q0 32 20.5 53t50.5 21q24 0 39 -15.5t15 -40.5q0 -31 -20.5 -51.5t-49.5 -20.5zM291 784q-25 0 -40 15t-15 39q0 32 20.5 53t50.5 21q24 0 39 -15.5t15 -40.5q0 -31 -20.5 -51.5t-49.5 -20.5z" />
    <glyph glyph-name="Igrave" unicode="&#xcc;" horiz-adv-x="253" 
d="M70 0q-9 0 -9 10l84 680q2 10 11 10h74q4 0 6.5 -3t1.5 -7l-84 -680q0 -4 -3 -7t-7 -3h-74zM238 776q1 -1 1 -4q0 -4 -3 -6t-8 -2h-52q-6 0 -11 7l-54 108q-1 2 -1 6q0 6 8 6h65q8 0 11 -7z" />
    <glyph glyph-name="Iacute" unicode="&#xcd;" horiz-adv-x="253" 
d="M70 0q-9 0 -9 10l84 680q2 10 11 10h74q4 0 6.5 -3t1.5 -7l-84 -680q0 -4 -3 -7t-7 -3h-74zM161 764q-6 0 -8 3.5t2 8.5l70 108q4 7 13 7h65q5 0 6.5 -3.5t-2.5 -8.5l-82 -108q-7 -7 -13 -7h-51z" />
    <glyph glyph-name="Icircumflex" unicode="&#xce;" horiz-adv-x="253" 
d="M70 0q-9 0 -9 10l84 680q2 10 11 10h74q4 0 6.5 -3t1.5 -7l-84 -680q0 -4 -3 -7t-7 -3h-74zM76 764q-6 0 -7.5 3.5t2.5 8.5l90 109q5 6 14 6h82q10 0 12 -6l63 -109l2 -5q0 -7 -9 -7h-57q-9 0 -11 6l-42 76q-1 2 -3 2t-3 -2l-63 -76q-4 -6 -12 -6h-58z" />
    <glyph glyph-name="Idieresis" unicode="&#xcf;" horiz-adv-x="253" 
d="M70 0q-9 0 -9 10l84 680q2 10 11 10h74q4 0 6.5 -3t1.5 -7l-84 -680q0 -4 -3 -7t-7 -3h-74zM292 784q-25 0 -40 15t-15 39q0 32 20.5 53t50.5 21q24 0 39 -15.5t15 -40.5q0 -31 -20.5 -51.5t-49.5 -20.5zM116 784q-25 0 -40 15t-15 39q0 32 20.5 53t50.5 21
q24 0 39 -15.5t15 -40.5q0 -31 -20.5 -51.5t-49.5 -20.5z" />
    <glyph glyph-name="Eth" unicode="&#xd0;" horiz-adv-x="658" 
d="M449 700q93 0 146 -46t53 -125q0 -9 -2 -29l-37 -300q-11 -91 -78 -145.5t-168 -54.5h-234q-10 0 -8 10l38 315q0 4 -3 4h-46q-10 0 -8 10l6 48q0 4 3 7t8 3h45q3 0 5 4l35 289q2 10 11 10h234zM551 486q1 8 1 23q0 50 -29.5 79t-80.5 29h-150q-4 0 -4 -4l-26 -212
q-1 -1 0 -2.5t3 -1.5h102q10 0 8 -10l-6 -48q0 -4 -3 -7t-7 -3h-102q-3 0 -5 -4l-29 -238q0 -4 4 -4h150q57 0 95 35.5t46 95.5z" />
    <glyph glyph-name="Ntilde" unicode="&#xd1;" horiz-adv-x="652" 
d="M545 690q0 4 3 7t7 3h74q9 0 9 -10l-84 -680q-2 -10 -11 -10h-71q-6 0 -10 7l-241 511q-1 3 -3 2.5t-2 -3.5l-62 -507q0 -4 -3 -7t-7 -3h-74q-9 0 -9 10l84 680q2 10 11 10h72q7 0 10 -7l240 -511q1 -3 3 -2.5t2 3.5zM461 784q-19 0 -32.5 5t-27.5 15q-17 10 -25.5 14
t-19.5 4q-32 0 -54 -22l-4 -4q-6 -6 -12 0l-24 28q-5 7 0 14q19 26 44 40t54 14q16 0 28 -4.5t21.5 -10.5t13.5 -8t13.5 -8t17 -8.5t15.5 -2.5q31 0 54 27q6 10 14 2l20 -28q3 -4 3 -6.5t-2 -7.5q-15 -25 -41.5 -39t-55.5 -14z" />
    <glyph glyph-name="Ograve" unicode="&#xd2;" horiz-adv-x="603" 
d="M280 -9q-97 0 -154.5 55t-57.5 148q0 24 2 37l29 238q9 71 45.5 125t94.5 84t129 30q98 0 155.5 -55t57.5 -147q0 -24 -2 -37l-29 -238q-8 -71 -45 -125.5t-95 -84.5t-130 -30zM290 74q67 0 112.5 42t54.5 111l29 243q2 18 2 26q0 59 -35 94t-95 35q-65 0 -111 -42.5
t-54 -112.5l-30 -243q-2 -18 -2 -26q0 -58 35 -92.5t94 -34.5zM413 776q1 -1 1 -4q0 -4 -3 -6t-8 -2h-52q-6 0 -11 7l-54 108q-1 2 -1 6q0 6 8 6h65q8 0 11 -7z" />
    <glyph glyph-name="Oacute" unicode="&#xd3;" horiz-adv-x="603" 
d="M280 -9q-97 0 -154.5 55t-57.5 148q0 24 2 37l29 238q9 71 45.5 125t94.5 84t129 30q98 0 155.5 -55t57.5 -147q0 -24 -2 -37l-29 -238q-8 -71 -45 -125.5t-95 -84.5t-130 -30zM290 74q67 0 112.5 42t54.5 111l29 243q2 18 2 26q0 59 -35 94t-95 35q-65 0 -111 -42.5
t-54 -112.5l-30 -243q-2 -18 -2 -26q0 -58 35 -92.5t94 -34.5zM335 764q-6 0 -8 3.5t2 8.5l70 108q4 7 13 7h65q5 0 6.5 -3.5t-2.5 -8.5l-82 -108q-7 -7 -13 -7h-51z" />
    <glyph glyph-name="Ocircumflex" unicode="&#xd4;" horiz-adv-x="603" 
d="M280 -9q-97 0 -154.5 55t-57.5 148q0 24 2 37l29 238q9 71 45.5 125t94.5 84t129 30q98 0 155.5 -55t57.5 -147q0 -24 -2 -37l-29 -238q-8 -71 -45 -125.5t-95 -84.5t-130 -30zM290 74q67 0 112.5 42t54.5 111l29 243q2 18 2 26q0 59 -35 94t-95 35q-65 0 -111 -42.5
t-54 -112.5l-30 -243q-2 -18 -2 -26q0 -58 35 -92.5t94 -34.5zM250 764q-6 0 -7.5 3.5t2.5 8.5l90 109q5 6 14 6h82q10 0 12 -6l63 -109l2 -5q0 -7 -9 -7h-57q-9 0 -11 6l-42 76q-1 2 -3 2t-3 -2l-63 -76q-4 -6 -12 -6h-58z" />
    <glyph glyph-name="Otilde" unicode="&#xd5;" horiz-adv-x="603" 
d="M280 -9q-97 0 -154.5 55t-57.5 148q0 24 2 37l29 238q9 71 45.5 125t94.5 84t129 30q98 0 155.5 -55t57.5 -147q0 -24 -2 -37l-29 -238q-8 -71 -45 -125.5t-95 -84.5t-130 -30zM290 74q67 0 112.5 42t54.5 111l29 243q2 18 2 26q0 59 -35 94t-95 35q-65 0 -111 -42.5
t-54 -112.5l-30 -243q-2 -18 -2 -26q0 -58 35 -92.5t94 -34.5zM439 784q-19 0 -32.5 5t-27.5 15q-17 10 -25.5 14t-19.5 4q-32 0 -54 -22l-4 -4q-6 -6 -12 0l-24 28q-5 7 0 14q19 26 44 40t54 14q16 0 28 -4.5t21.5 -10.5t13.5 -8t13.5 -8t17 -8.5t15.5 -2.5q31 0 54 27
q6 10 14 2l20 -28q3 -4 3 -6.5t-2 -7.5q-15 -25 -41.5 -39t-55.5 -14z" />
    <glyph glyph-name="Odieresis" unicode="&#xd6;" horiz-adv-x="603" 
d="M280 -9q-97 0 -154.5 55t-57.5 148q0 24 2 37l29 238q9 71 45.5 125t94.5 84t129 30q98 0 155.5 -55t57.5 -147q0 -24 -2 -37l-29 -238q-8 -71 -45 -125.5t-95 -84.5t-130 -30zM290 74q67 0 112.5 42t54.5 111l29 243q2 18 2 26q0 59 -35 94t-95 35q-65 0 -111 -42.5
t-54 -112.5l-30 -243q-2 -18 -2 -26q0 -58 35 -92.5t94 -34.5zM466 784q-25 0 -40 15t-15 39q0 32 20.5 53t50.5 21q24 0 39 -15.5t15 -40.5q0 -31 -20.5 -51.5t-49.5 -20.5zM290 784q-25 0 -40 15t-15 39q0 32 20.5 53t50.5 21q24 0 39 -15.5t15 -40.5q0 -31 -20.5 -51.5
t-49.5 -20.5z" />
    <glyph glyph-name="multiply" unicode="&#xd7;" horiz-adv-x="417" 
d="M412 445q2 -4 2 -5q0 -5 -4 -9l-121 -111q-4 -3 -1 -6l92 -109q2 -2 2 -6q0 -5 -4 -8l-48 -44q-3 -3 -7 -3t-6 3l-93 109q-2 3 -5 0l-122 -111q-3 -3 -7 -3t-6 3l-38 44q-2 4 -2 5q0 5 4 9l122 111q3 3 0 6l-95 113q-3 3 -3 6q0 4 4 8l48 44q8 6 14 0l96 -113q2 -3 5 0
l122 111q3 3 7 3t6 -3z" />
    <glyph glyph-name="Oslash" unicode="&#xd8;" horiz-adv-x="603" 
d="M623 687q6 -6 1 -14l-57 -74q-1 -2 -1 -6q16 -36 16 -86q0 -25 -2 -38l-29 -238q-8 -71 -45 -125.5t-95 -84.5t-130 -30q-86 0 -141 43q-4 2 -5 -1l-45 -59q-7 -8 -13 -3l-53 37q-7 6 -1 13l60 80q0 1 1.5 2.5t-0.5 3.5q-15 38 -15 86q0 25 2 38l29 238q9 71 45.5 125
t94.5 84t129 30q87 0 142 -43q4 -2 5 1l44 58q3 4 7 5t7 -2zM164 227q-2 -10 -2 -15q-1 -3 1 -3t4 2l287 374q2 3 0 5q-37 35 -95 35q-66 0 -111.5 -42.5t-53.5 -112.5zM487 470q2 12 2 19q-2 7 -5 2l-287 -377q-2 -3 0 -5q35 -35 94 -35q67 0 112.5 42t54.5 111z" />
    <glyph glyph-name="Ugrave" unicode="&#xd9;" horiz-adv-x="622" 
d="M291 -8q-98 0 -155 53t-57 143q0 10 2 34l57 468q2 10 11 10h74q10 0 8 -10l-58 -470q-1 -7 -1 -21q0 -56 35 -90t94 -34q65 0 110 40t53 105l57 470q2 10 11 10h74q10 0 8 -10l-57 -468q-8 -68 -44 -120.5t-93.5 -81t-128.5 -28.5zM423 776q1 -1 1 -4q0 -4 -3 -6t-8 -2
h-52q-6 0 -11 7l-54 108q-1 2 -1 6q0 6 8 6h65q8 0 11 -7z" />
    <glyph glyph-name="Uacute" unicode="&#xda;" horiz-adv-x="622" 
d="M291 -8q-98 0 -155 53t-57 143q0 10 2 34l57 468q2 10 11 10h74q10 0 8 -10l-58 -470q-1 -7 -1 -21q0 -56 35 -90t94 -34q65 0 110 40t53 105l57 470q2 10 11 10h74q10 0 8 -10l-57 -468q-8 -68 -44 -120.5t-93.5 -81t-128.5 -28.5zM346 764q-6 0 -8 3.5t2 8.5l70 108
q4 7 13 7h65q5 0 6.5 -3.5t-2.5 -8.5l-82 -108q-7 -7 -13 -7h-51z" />
    <glyph glyph-name="Ucircumflex" unicode="&#xdb;" horiz-adv-x="622" 
d="M291 -8q-98 0 -155 53t-57 143q0 10 2 34l57 468q2 10 11 10h74q10 0 8 -10l-58 -470q-1 -7 -1 -21q0 -56 35 -90t94 -34q65 0 110 40t53 105l57 470q2 10 11 10h74q10 0 8 -10l-57 -468q-8 -68 -44 -120.5t-93.5 -81t-128.5 -28.5zM260 764q-6 0 -7.5 3.5t2.5 8.5
l90 109q5 6 14 6h82q10 0 12 -6l63 -109l2 -5q0 -7 -9 -7h-57q-9 0 -11 6l-42 76q-1 2 -3 2t-3 -2l-63 -76q-4 -6 -12 -6h-58z" />
    <glyph glyph-name="Udieresis" unicode="&#xdc;" horiz-adv-x="622" 
d="M291 -8q-98 0 -155 53t-57 143q0 10 2 34l57 468q2 10 11 10h74q10 0 8 -10l-58 -470q-1 -7 -1 -21q0 -56 35 -90t94 -34q65 0 110 40t53 105l57 470q2 10 11 10h74q10 0 8 -10l-57 -468q-8 -68 -44 -120.5t-93.5 -81t-128.5 -28.5zM476 784q-25 0 -40 15t-15 39
q0 32 20.5 53t50.5 21q24 0 39 -15.5t15 -40.5q0 -31 -20.5 -51.5t-49.5 -20.5zM300 784q-25 0 -40 15t-15 39q0 32 20.5 53t50.5 21q24 0 39 -15.5t15 -40.5q0 -31 -20.5 -51.5t-49.5 -20.5z" />
    <glyph glyph-name="Yacute" unicode="&#xdd;" horiz-adv-x="567" 
d="M227 1q-10 0 -8 10l34 281q0 1 0.5 2.5t-0.5 2.5l-154 391l-1 4q0 8 9 8h80q8 0 11 -7l112 -293q1 -2 3 -2t3 2l184 293q4 7 13 7h80q5 0 7 -3.5t-1 -8.5l-251 -391q-2 -2 -2 -5l-34 -281q-2 -10 -11 -10h-74zM318 764q-6 0 -8 3.5t2 8.5l70 108q4 7 13 7h65
q5 0 6.5 -3.5t-2.5 -8.5l-82 -108q-7 -7 -13 -7h-51z" />
    <glyph glyph-name="Thorn" unicode="&#xde;" horiz-adv-x="555" 
d="M373 550q81 0 128.5 -46.5t47.5 -123.5q0 -9 -2 -31q-7 -59 -39 -104t-81 -70t-107 -25h-150q-3 0 -5 -4l-16 -136q-2 -10 -11 -10h-74q-10 0 -8 10l83 680q2 10 11 10h74q10 0 8 -10l-17 -136q0 -4 4 -4h154zM321 229q59 0 96.5 37.5t37.5 99.5q0 47 -28 73.5t-77 26.5
h-141q-2 0 -3.5 -1t-1.5 -3l-28 -229q0 -4 3 -4h142z" />
    <glyph glyph-name="germandbls" unicode="&#xdf;" horiz-adv-x="546" 
d="M59 0q-10 0 -8 10l60 491q12 98 73.5 153t158.5 55q86 0 137 -44t51 -120q0 -16 -1 -24q-6 -51 -31 -87.5t-67 -55.5q-5 -2 0 -5q32 -17 50.5 -53.5t18.5 -86.5q0 -9 -2 -33q-12 -95 -77.5 -147.5t-173.5 -52.5h-50q-9 0 -9 10l8 62q2 10 11 10h59q64 0 103 40t39 111
q0 48 -27 75t-73 28h-51q-5 0 -7.5 3t-1.5 7l7 56q2 10 11 10h51q53 0 86 33.5t33 88.5q0 42 -25.5 67t-73.5 25q-52 0 -89 -31t-44 -86l-61 -499q-2 -10 -11 -10h-74z" />
    <glyph glyph-name="agrave" unicode="&#xe0;" horiz-adv-x="501" 
d="M416 499q2 10 11 10h74q10 0 8 -10l-60 -489q0 -4 -3 -7t-8 -3h-73q-9 0 -9 10l7 56q1 3 -1 3.5t-3 -2.5q-52 -75 -140 -75q-64 0 -107 39t-52 104q-2 22 -2 33q0 28 7 86q5 43 11.5 73t17.5 56q23 59 75 96.5t119 37.5q88 0 117 -71q1 -3 2.5 -2.5t2.5 3.5zM366 158
q7 16 11 34.5t9 60.5q6 42 6 71q0 10 -2 28q-5 36 -28.5 59t-62.5 23q-41 0 -72.5 -23t-43.5 -60q-7 -15 -11 -33t-10 -63q-6 -52 -6 -69q0 -14 3 -28q3 -37 29 -60t67 -23q40 0 68.5 23.5t42.5 59.5zM339 585q1 -1 1 -4q0 -4 -3 -6t-8 -2h-52q-6 0 -11 7l-54 108q-1 2 -1 6
q0 6 8 6h65q8 0 11 -7z" />
    <glyph glyph-name="aacute" unicode="&#xe1;" horiz-adv-x="501" 
d="M416 499q2 10 11 10h74q10 0 8 -10l-60 -489q0 -4 -3 -7t-8 -3h-73q-9 0 -9 10l7 56q1 3 -1 3.5t-3 -2.5q-52 -75 -140 -75q-64 0 -107 39t-52 104q-2 22 -2 33q0 28 7 86q5 43 11.5 73t17.5 56q23 59 75 96.5t119 37.5q88 0 117 -71q1 -3 2.5 -2.5t2.5 3.5zM366 158
q7 16 11 34.5t9 60.5q6 42 6 71q0 10 -2 28q-5 36 -28.5 59t-62.5 23q-41 0 -72.5 -23t-43.5 -60q-7 -15 -11 -33t-10 -63q-6 -52 -6 -69q0 -14 3 -28q3 -37 29 -60t67 -23q40 0 68.5 23.5t42.5 59.5zM262 573q-6 0 -8 3.5t2 8.5l70 108q4 7 13 7h65q5 0 6.5 -3.5t-2.5 -8.5
l-82 -108q-7 -7 -13 -7h-51z" />
    <glyph glyph-name="acircumflex" unicode="&#xe2;" horiz-adv-x="501" 
d="M416 499q2 10 11 10h74q10 0 8 -10l-60 -489q0 -4 -3 -7t-8 -3h-73q-9 0 -9 10l7 56q1 3 -1 3.5t-3 -2.5q-52 -75 -140 -75q-64 0 -107 39t-52 104q-2 22 -2 33q0 28 7 86q5 43 11.5 73t17.5 56q23 59 75 96.5t119 37.5q88 0 117 -71q1 -3 2.5 -2.5t2.5 3.5zM366 158
q7 16 11 34.5t9 60.5q6 42 6 71q0 10 -2 28q-5 36 -28.5 59t-62.5 23q-41 0 -72.5 -23t-43.5 -60q-7 -15 -11 -33t-10 -63q-6 -52 -6 -69q0 -14 3 -28q3 -37 29 -60t67 -23q40 0 68.5 23.5t42.5 59.5zM177 573q-6 0 -7.5 3.5t2.5 8.5l90 109q5 6 14 6h82q10 0 12 -6l63 -109
l2 -5q0 -7 -9 -7h-57q-9 0 -11 6l-42 76q-1 2 -3 2t-3 -2l-63 -76q-4 -6 -12 -6h-58z" />
    <glyph glyph-name="atilde" unicode="&#xe3;" horiz-adv-x="501" 
d="M416 499q2 10 11 10h74q10 0 8 -10l-60 -489q0 -4 -3 -7t-8 -3h-73q-9 0 -9 10l7 56q1 3 -1 3.5t-3 -2.5q-52 -75 -140 -75q-64 0 -107 39t-52 104q-2 22 -2 33q0 28 7 86q5 43 11.5 73t17.5 56q23 59 75 96.5t119 37.5q88 0 117 -71q1 -3 2.5 -2.5t2.5 3.5zM366 158
q7 16 11 34.5t9 60.5q6 42 6 71q0 10 -2 28q-5 36 -28.5 59t-62.5 23q-41 0 -72.5 -23t-43.5 -60q-7 -15 -11 -33t-10 -63q-6 -52 -6 -69q0 -14 3 -28q3 -37 29 -60t67 -23q40 0 68.5 23.5t42.5 59.5zM365 593q-19 0 -32.5 5t-27.5 15q-17 10 -25.5 14t-19.5 4
q-32 0 -54 -22l-4 -4q-6 -6 -12 0l-24 28q-5 7 0 14q19 26 44 40t54 14q16 0 28 -4.5t21.5 -10.5t13.5 -8t13.5 -8t17 -8.5t15.5 -2.5q31 0 54 27q6 10 14 2l20 -28q3 -4 3 -6.5t-2 -7.5q-15 -25 -41.5 -39t-55.5 -14z" />
    <glyph glyph-name="adieresis" unicode="&#xe4;" horiz-adv-x="501" 
d="M416 499q2 10 11 10h74q10 0 8 -10l-60 -489q0 -4 -3 -7t-8 -3h-73q-9 0 -9 10l7 56q1 3 -1 3.5t-3 -2.5q-52 -75 -140 -75q-64 0 -107 39t-52 104q-2 22 -2 33q0 28 7 86q5 43 11.5 73t17.5 56q23 59 75 96.5t119 37.5q88 0 117 -71q1 -3 2.5 -2.5t2.5 3.5zM366 158
q7 16 11 34.5t9 60.5q6 42 6 71q0 10 -2 28q-5 36 -28.5 59t-62.5 23q-41 0 -72.5 -23t-43.5 -60q-7 -15 -11 -33t-10 -63q-6 -52 -6 -69q0 -14 3 -28q3 -37 29 -60t67 -23q40 0 68.5 23.5t42.5 59.5zM392 593q-25 0 -40 15t-15 39q0 32 20.5 53t50.5 21q24 0 39 -15.5
t15 -40.5q0 -31 -20.5 -51.5t-49.5 -20.5zM216 593q-25 0 -40 15t-15 39q0 32 20.5 53t50.5 21q24 0 39 -15.5t15 -40.5q0 -31 -20.5 -51.5t-49.5 -20.5z" />
    <glyph glyph-name="aring" unicode="&#xe5;" horiz-adv-x="501" 
d="M416 499q2 10 11 10h74q10 0 8 -10l-60 -489q0 -4 -3 -7t-8 -3h-73q-9 0 -9 10l7 56q1 3 -1 3.5t-3 -2.5q-52 -75 -140 -75q-64 0 -107 39t-52 104q-2 22 -2 33q0 28 7 86q5 43 11.5 73t17.5 56q23 59 75 96.5t119 37.5q88 0 117 -71q1 -3 2.5 -2.5t2.5 3.5zM366 158
q7 16 11 34.5t9 60.5q6 42 6 71q0 10 -2 28q-5 36 -28.5 59t-62.5 23q-41 0 -72.5 -23t-43.5 -60q-7 -15 -11 -33t-10 -63q-6 -52 -6 -69q0 -14 3 -28q3 -37 29 -60t67 -23q40 0 68.5 23.5t42.5 59.5zM301 573q-43 0 -71 28t-28 71q0 35 17.5 64.5t47 46.5t62.5 17
q43 0 70.5 -27.5t27.5 -70.5q0 -35 -17 -64.5t-46 -47t-63 -17.5zM307 627q26 0 46.5 20t20.5 47q0 23 -14.5 38t-37.5 15q-26 0 -46 -20.5t-20 -48.5q0 -22 14.5 -36.5t36.5 -14.5z" />
    <glyph glyph-name="ae" unicode="&#xe6;" horiz-adv-x="809" 
d="M195 -8q-73 0 -117.5 29.5t-44.5 91.5q0 83 60 134t162 51h108q2 0 3.5 1t1.5 3l4 32q1 6 1 17q0 38 -23 60.5t-70 22.5q-39 0 -67.5 -16.5t-38.5 -44.5q-4 -10 -13 -9l-72 11q-9 2 -8 11q15 57 73 94t134 37q54 0 94 -24.5t53 -58.5q2 -5 5 0q22 33 67 58t94 25
q66 0 115 -38.5t59 -103.5q2 -18 2 -30q0 -37 -10 -118q-2 -10 -11 -10h-300q-4 0 -4 -4q-1 -11 -1.5 -19.5t-1.5 -19.5q-2 -45 29.5 -68.5t83.5 -23.5q42 0 70.5 15.5t47.5 47.5q3 4 7 4.5t7 -1.5l45 -32q8 -6 2 -13q-27 -47 -81 -79t-122 -32q-52 0 -92 22t-56 57
q-4 4 -5 1q-28 -37 -79 -58.5t-111 -21.5zM462 302q0 -4 3 -4h215q4 0 4 4q1 13 1 35q0 42 -26 69.5t-70 27.5q-41 0 -72.5 -24t-44.5 -62q-5 -16 -10 -46zM215 68q51 0 91 26t46 75l5 44q0 2 -1 3t-2 1h-93q-62 0 -98 -21t-36 -64q0 -30 24 -47t64 -17z" />
    <glyph glyph-name="ccedilla" unicode="&#xe7;" horiz-adv-x="510" 
d="M378 163q0 3 1 4q1 4 4 5.5t7 0.5l71 -12q8 -2 7 -8q0 -3 -1 -4q-1 -5 -7 -22q-22 -54 -70.5 -89.5t-111.5 -43.5q-6 -2 -2 -5q36 -37 36 -79q0 -17 -6 -35q-13 -33 -38 -47t-56 -14q-27 0 -48 8q-8 3 -5 12l9 33q3 10 13 7q11 -3 20 -3q20 0 34 12t14 36q0 35 -43 75
q-1 2 -4 2q-56 10 -91.5 47t-45.5 92q-4 23 -4 55q0 34 4 66q9 72 30 121q26 64 84 102t131 38t122.5 -38t58.5 -96q4 -17 4 -33q-1 -9 -10 -10l-74 -11h-2q-8 0 -8 9l-2 16q-3 34 -30 57t-70 23t-74 -23t-45 -61q-12 -29 -21 -95q-4 -33 -4 -62q0 -14 2 -32q5 -40 30 -63
t68 -23q42 0 75.5 23.5t45.5 59.5z" />
    <glyph glyph-name="egrave" unicode="&#xe8;" horiz-adv-x="521" 
d="M487 325q0 -35 -8 -99q-1 -10 -11 -10h-310q-4 0 -4 -4q-2 -24 -2 -32q0 -10 2 -20q5 -40 34.5 -62.5t79.5 -22.5q71 0 118 61q6 10 13 3l51 -38q6 -6 1 -13q-33 -46 -86 -71.5t-116 -25.5q-71 0 -115 31.5t-62 91.5q-10 34 -10 80q0 19 4 63q5 38 10.5 64t14.5 47
q26 69 83 109t132 40q96 0 138.5 -49t42.5 -143zM296 434q-42 0 -71.5 -21.5t-44.5 -57.5q-9 -22 -15 -56q-1 -4 3 -4h222q4 0 4 4q2 24 2 32q0 46 -26.5 74.5t-73.5 28.5zM348 585q1 -1 1 -4q0 -4 -3 -6t-8 -2h-52q-6 0 -11 7l-54 108q-1 2 -1 6q0 6 8 6h65q8 0 11 -7z" />
    <glyph glyph-name="eacute" unicode="&#xe9;" horiz-adv-x="521" 
d="M487 325q0 -35 -8 -99q-1 -10 -11 -10h-310q-4 0 -4 -4q-2 -24 -2 -32q0 -10 2 -20q5 -40 34.5 -62.5t79.5 -22.5q71 0 118 61q6 10 13 3l51 -38q6 -6 1 -13q-33 -46 -86 -71.5t-116 -25.5q-71 0 -115 31.5t-62 91.5q-10 34 -10 80q0 19 4 63q5 38 10.5 64t14.5 47
q26 69 83 109t132 40q96 0 138.5 -49t42.5 -143zM296 434q-42 0 -71.5 -21.5t-44.5 -57.5q-9 -22 -15 -56q-1 -4 3 -4h222q4 0 4 4q2 24 2 32q0 46 -26.5 74.5t-73.5 28.5zM271 573q-6 0 -8 3.5t2 8.5l70 108q4 7 13 7h65q5 0 6.5 -3.5t-2.5 -8.5l-82 -108q-7 -7 -13 -7h-51
z" />
    <glyph glyph-name="ecircumflex" unicode="&#xea;" horiz-adv-x="521" 
d="M487 325q0 -35 -8 -99q-1 -10 -11 -10h-310q-4 0 -4 -4q-2 -24 -2 -32q0 -10 2 -20q5 -40 34.5 -62.5t79.5 -22.5q71 0 118 61q6 10 13 3l51 -38q6 -6 1 -13q-33 -46 -86 -71.5t-116 -25.5q-71 0 -115 31.5t-62 91.5q-10 34 -10 80q0 19 4 63q5 38 10.5 64t14.5 47
q26 69 83 109t132 40q96 0 138.5 -49t42.5 -143zM296 434q-42 0 -71.5 -21.5t-44.5 -57.5q-9 -22 -15 -56q-1 -4 3 -4h222q4 0 4 4q2 24 2 32q0 46 -26.5 74.5t-73.5 28.5zM186 573q-6 0 -7.5 3.5t2.5 8.5l90 109q5 6 14 6h82q10 0 12 -6l63 -109l2 -5q0 -7 -9 -7h-57
q-9 0 -11 6l-42 76q-1 2 -3 2t-3 -2l-63 -76q-4 -6 -12 -6h-58z" />
    <glyph glyph-name="edieresis" unicode="&#xeb;" horiz-adv-x="521" 
d="M487 325q0 -35 -8 -99q-1 -10 -11 -10h-310q-4 0 -4 -4q-2 -24 -2 -32q0 -10 2 -20q5 -40 34.5 -62.5t79.5 -22.5q71 0 118 61q6 10 13 3l51 -38q6 -6 1 -13q-33 -46 -86 -71.5t-116 -25.5q-71 0 -115 31.5t-62 91.5q-10 34 -10 80q0 19 4 63q5 38 10.5 64t14.5 47
q26 69 83 109t132 40q96 0 138.5 -49t42.5 -143zM296 434q-42 0 -71.5 -21.5t-44.5 -57.5q-9 -22 -15 -56q-1 -4 3 -4h222q4 0 4 4q2 24 2 32q0 46 -26.5 74.5t-73.5 28.5zM402 593q-25 0 -40 15t-15 39q0 32 20.5 53t50.5 21q24 0 39 -15.5t15 -40.5q0 -31 -20.5 -51.5
t-49.5 -20.5zM226 593q-25 0 -40 15t-15 39q0 32 20.5 53t50.5 21q24 0 39 -15.5t15 -40.5q0 -31 -20.5 -51.5t-49.5 -20.5z" />
    <glyph glyph-name="igrave" unicode="&#xec;" horiz-adv-x="214" 
d="M50 0q-4 0 -6.5 3t-1.5 7l60 489q2 10 11 10h74q4 0 6.5 -3t1.5 -7l-60 -489q-2 -10 -11 -10h-74zM196 585q1 -1 1 -4q0 -4 -3 -6t-8 -2h-52q-6 0 -11 7l-54 108q-1 2 -1 6q0 6 8 6h65q8 0 11 -7z" />
    <glyph glyph-name="iacute" unicode="&#xed;" horiz-adv-x="214" 
d="M50 0q-4 0 -6.5 3t-1.5 7l60 489q2 10 11 10h74q4 0 6.5 -3t1.5 -7l-60 -489q-2 -10 -11 -10h-74zM118 573q-6 0 -8 3.5t2 8.5l70 108q4 7 13 7h65q5 0 6.5 -3.5t-2.5 -8.5l-82 -108q-7 -7 -13 -7h-51z" />
    <glyph glyph-name="icircumflex" unicode="&#xee;" horiz-adv-x="214" 
d="M50 0q-4 0 -6.5 3t-1.5 7l60 489q2 10 11 10h74q4 0 6.5 -3t1.5 -7l-60 -489q-2 -10 -11 -10h-74zM33 573q-6 0 -7.5 3.5t2.5 8.5l90 109q5 6 14 6h82q10 0 12 -6l63 -109l2 -5q0 -7 -9 -7h-57q-9 0 -11 6l-42 76q-1 2 -3 2t-3 -2l-63 -76q-4 -6 -12 -6h-58z" />
    <glyph glyph-name="idieresis" unicode="&#xef;" horiz-adv-x="214" 
d="M50 0q-4 0 -6.5 3t-1.5 7l60 489q2 10 11 10h74q4 0 6.5 -3t1.5 -7l-60 -489q-2 -10 -11 -10h-74zM249 593q-25 0 -40 15t-15 39q0 32 20.5 53t50.5 21q24 0 39 -15.5t15 -40.5q0 -31 -20.5 -51.5t-49.5 -20.5zM73 593q-25 0 -40 15t-15 39q0 32 20.5 53t50.5 21
q24 0 39 -15.5t15 -40.5q0 -31 -20.5 -51.5t-49.5 -20.5z" />
    <glyph glyph-name="eth" unicode="&#xf0;" horiz-adv-x="521" 
d="M480 359q2 -43 -6 -119q-9 -72 -26 -114q-27 -60 -83 -97t-127 -37q-70 0 -117.5 36.5t-59.5 97.5q-3 20 -3 40q0 27 5 74q9 73 26 114q18 45 55.5 75.5t84.5 37.5q27 5 52 5q30 0 55.5 -6t40.5 -18q2 -2 3.5 -1t0.5 4q-13 54 -43 105q-2 4 -5 2l-97 -27l-4 -1q-6 0 -8 8
l-5 33q0 10 9 13l72 21q6 2 2 5q-34 43 -67 78q-3 3 -3 6q0 6 9 6h80q4 0 11 -5q5 -7 17 -21q6 -9 15 -19.5t18 -24.5q2 -2 5 -1l82 23l4 1q6 0 8 -8l4 -34v-2q0 -8 -8 -11l-56 -16q-4 -1 -3 -4q31 -48 47 -100.5t15 -118.5zM362 149q9 24 17 89q5 45 5 66q0 46 -25.5 74.5
t-69.5 28.5q-40 0 -70.5 -22.5t-43.5 -60.5q-6 -13 -10.5 -36t-7.5 -50q-5 -43 -5 -64q0 -11 2 -25q5 -38 29 -60.5t64 -22.5q39 0 69.5 22.5t45.5 60.5z" />
    <glyph glyph-name="ntilde" unicode="&#xf1;" horiz-adv-x="526" 
d="M332 516q72 0 112.5 -39.5t40.5 -107.5q0 -9 -2 -29l-40 -330q-1 -4 -4 -7t-7 -3h-74q-9 0 -9 10l39 311q1 6 1 18q0 42 -24 68t-66 26q-47 0 -79.5 -31t-38.5 -80l-38 -312q-2 -10 -11 -10h-74q-10 0 -8 10l60 489q2 10 11 10h73q5 0 7.5 -3t1.5 -7l-5 -36q0 -2 1.5 -3
t2.5 1q48 55 130 55zM380 593q-19 0 -32.5 5t-27.5 15q-17 10 -25.5 14t-19.5 4q-32 0 -54 -22l-4 -4q-6 -6 -12 0l-24 28q-5 7 0 14q19 26 44 40t54 14q16 0 28 -4.5t21.5 -10.5t13.5 -8t13.5 -8t17 -8.5t15.5 -2.5q31 0 54 27q6 10 14 2l20 -28q3 -4 3 -6.5t-2 -7.5
q-15 -25 -41.5 -39t-55.5 -14z" />
    <glyph glyph-name="ograve" unicode="&#xf2;" 
d="M249 -8q-72 0 -120.5 37.5t-61.5 104.5q-6 29 -6 67q0 28 3 55q10 73 32 120q29 66 87 103.5t132 37.5q70 0 117 -37.5t61 -102.5q6 -28 6 -64q0 -27 -3 -56q-8 -70 -32 -123q-30 -67 -87 -104.5t-128 -37.5zM259 75q40 0 72 22.5t49 63.5q16 43 22 94q4 44 4 62
q0 13 -2 31q-8 41 -34.5 63.5t-67.5 22.5q-40 0 -72 -22.5t-50 -63.5q-14 -34 -22 -93q-3 -27 -3 -52q0 -24 3 -42q6 -40 33 -63t68 -23zM351 585q1 -1 1 -4q0 -4 -3 -6t-8 -2h-52q-6 0 -11 7l-54 108q-1 2 -1 6q0 6 8 6h65q8 0 11 -7z" />
    <glyph glyph-name="oacute" unicode="&#xf3;" 
d="M249 -8q-72 0 -120.5 37.5t-61.5 104.5q-6 29 -6 67q0 28 3 55q10 73 32 120q29 66 87 103.5t132 37.5q70 0 117 -37.5t61 -102.5q6 -28 6 -64q0 -27 -3 -56q-8 -70 -32 -123q-30 -67 -87 -104.5t-128 -37.5zM259 75q40 0 72 22.5t49 63.5q16 43 22 94q4 44 4 62
q0 13 -2 31q-8 41 -34.5 63.5t-67.5 22.5q-40 0 -72 -22.5t-50 -63.5q-14 -34 -22 -93q-3 -27 -3 -52q0 -24 3 -42q6 -40 33 -63t68 -23zM273 573q-6 0 -8 3.5t2 8.5l70 108q4 7 13 7h65q5 0 6.5 -3.5t-2.5 -8.5l-82 -108q-7 -7 -13 -7h-51z" />
    <glyph glyph-name="ocircumflex" unicode="&#xf4;" 
d="M249 -8q-72 0 -120.5 37.5t-61.5 104.5q-6 29 -6 67q0 28 3 55q10 73 32 120q29 66 87 103.5t132 37.5q70 0 117 -37.5t61 -102.5q6 -28 6 -64q0 -27 -3 -56q-8 -70 -32 -123q-30 -67 -87 -104.5t-128 -37.5zM259 75q40 0 72 22.5t49 63.5q16 43 22 94q4 44 4 62
q0 13 -2 31q-8 41 -34.5 63.5t-67.5 22.5q-40 0 -72 -22.5t-50 -63.5q-14 -34 -22 -93q-3 -27 -3 -52q0 -24 3 -42q6 -40 33 -63t68 -23zM188 573q-6 0 -7.5 3.5t2.5 8.5l90 109q5 6 14 6h82q10 0 12 -6l63 -109l2 -5q0 -7 -9 -7h-57q-9 0 -11 6l-42 76q-1 2 -3 2t-3 -2
l-63 -76q-4 -6 -12 -6h-58z" />
    <glyph glyph-name="otilde" unicode="&#xf5;" 
d="M249 -8q-72 0 -120.5 37.5t-61.5 104.5q-6 29 -6 67q0 28 3 55q10 73 32 120q29 66 87 103.5t132 37.5q70 0 117 -37.5t61 -102.5q6 -28 6 -64q0 -27 -3 -56q-8 -70 -32 -123q-30 -67 -87 -104.5t-128 -37.5zM259 75q40 0 72 22.5t49 63.5q16 43 22 94q4 44 4 62
q0 13 -2 31q-8 41 -34.5 63.5t-67.5 22.5q-40 0 -72 -22.5t-50 -63.5q-14 -34 -22 -93q-3 -27 -3 -52q0 -24 3 -42q6 -40 33 -63t68 -23zM377 593q-19 0 -32.5 5t-27.5 15q-17 10 -25.5 14t-19.5 4q-32 0 -54 -22l-4 -4q-6 -6 -12 0l-24 28q-5 7 0 14q19 26 44 40t54 14
q16 0 28 -4.5t21.5 -10.5t13.5 -8t13.5 -8t17 -8.5t15.5 -2.5q31 0 54 27q6 10 14 2l20 -28q3 -4 3 -6.5t-2 -7.5q-15 -25 -41.5 -39t-55.5 -14z" />
    <glyph glyph-name="odieresis" unicode="&#xf6;" 
d="M249 -8q-72 0 -120.5 37.5t-61.5 104.5q-6 29 -6 67q0 28 3 55q10 73 32 120q29 66 87 103.5t132 37.5q70 0 117 -37.5t61 -102.5q6 -28 6 -64q0 -27 -3 -56q-8 -70 -32 -123q-30 -67 -87 -104.5t-128 -37.5zM259 75q40 0 72 22.5t49 63.5q16 43 22 94q4 44 4 62
q0 13 -2 31q-8 41 -34.5 63.5t-67.5 22.5q-40 0 -72 -22.5t-50 -63.5q-14 -34 -22 -93q-3 -27 -3 -52q0 -24 3 -42q6 -40 33 -63t68 -23zM404 593q-25 0 -40 15t-15 39q0 32 20.5 53t50.5 21q24 0 39 -15.5t15 -40.5q0 -31 -20.5 -51.5t-49.5 -20.5zM228 593q-25 0 -40 15
t-15 39q0 32 20.5 53t50.5 21q24 0 39 -15.5t15 -40.5q0 -31 -20.5 -51.5t-49.5 -20.5z" />
    <glyph glyph-name="divide" unicode="&#xf7;" horiz-adv-x="480" 
d="M273 432q-22 0 -36 14.5t-14 36.5q0 26 19.5 45.5t44.5 19.5q22 0 36 -14.5t14 -36.5q0 -26 -20 -45.5t-44 -19.5zM59 279q-5 0 -7.5 3t-1.5 7l8 62q0 4 3 7t8 3h392q5 0 7.5 -3t1.5 -7l-8 -62q0 -4 -3 -7t-8 -3h-392zM233 107q-22 0 -36 14.5t-14 36.5q0 25 20 45t45 20
q21 0 35 -15t14 -36q0 -26 -20 -45.5t-44 -19.5z" />
    <glyph glyph-name="oslash" unicode="&#xf8;" horiz-adv-x="514" 
d="M485 377q6 -28 6 -64q0 -31 -4 -56q-8 -70 -32 -123q-30 -67 -86.5 -104.5t-127.5 -37.5q-59 0 -105 26q-4 2 -5 -1l-40 -51q-7 -9 -14 -2l-47 43q-6 6 0 14l45 57q2 3 0 6q-11 24 -17 50q-5 30 -5 62q0 33 4 60q8 74 30 120q30 66 87.5 103.5t131.5 37.5q54 0 94 -22
q4 -2 5 1l40 51q7 9 14 2l48 -42q3 -3 3 -6t-3 -8l-43 -54q-1 -2 -1 -6q14 -22 22 -56zM151 255q-5 -33 -5 -60q0 -13 1 -19q0 -2 2 -2.5t3 1.5l192 242q2 5 -1 6q-19 11 -49 11q-40 0 -72.5 -22.5t-49.5 -63.5q-14 -32 -21 -93zM371 161q15 32 22 94q4 31 4 62q0 18 -1 25
v1l-1 7h-1l-202 -255q-2 -4 1 -5q24 -15 58 -15q39 0 71 23t49 63z" />
    <glyph glyph-name="ugrave" unicode="&#xf9;" 
d="M404 499q0 4 3 7t8 3h72q5 0 7.5 -3t1.5 -7l-60 -489q-2 -10 -11 -10h-73q-10 0 -8 10l4 37q1 2 -0.5 2.5t-3.5 -1.5q-46 -55 -127 -55q-67 0 -112 37t-45 104q0 16 1 24l42 341q2 10 11 10h73q4 0 6.5 -3t1.5 -7l-38 -311q-1 -7 -1 -20q0 -43 23 -67.5t66 -24.5
q49 0 81.5 30.5t38.5 81.5zM351 585q1 -1 1 -4q0 -4 -3 -6t-8 -2h-52q-6 0 -11 7l-54 108q-1 2 -1 6q0 6 8 6h65q8 0 11 -7z" />
    <glyph glyph-name="uacute" unicode="&#xfa;" 
d="M404 499q0 4 3 7t8 3h72q5 0 7.5 -3t1.5 -7l-60 -489q-2 -10 -11 -10h-73q-10 0 -8 10l4 37q1 2 -0.5 2.5t-3.5 -1.5q-46 -55 -127 -55q-67 0 -112 37t-45 104q0 16 1 24l42 341q2 10 11 10h73q4 0 6.5 -3t1.5 -7l-38 -311q-1 -7 -1 -20q0 -43 23 -67.5t66 -24.5
q49 0 81.5 30.5t38.5 81.5zM273 573q-6 0 -8 3.5t2 8.5l70 108q4 7 13 7h65q5 0 6.5 -3.5t-2.5 -8.5l-82 -108q-7 -7 -13 -7h-51z" />
    <glyph glyph-name="ucircumflex" unicode="&#xfb;" 
d="M404 499q0 4 3 7t8 3h72q5 0 7.5 -3t1.5 -7l-60 -489q-2 -10 -11 -10h-73q-10 0 -8 10l4 37q1 2 -0.5 2.5t-3.5 -1.5q-46 -55 -127 -55q-67 0 -112 37t-45 104q0 16 1 24l42 341q2 10 11 10h73q4 0 6.5 -3t1.5 -7l-38 -311q-1 -7 -1 -20q0 -43 23 -67.5t66 -24.5
q49 0 81.5 30.5t38.5 81.5zM188 573q-6 0 -7.5 3.5t2.5 8.5l90 109q5 6 14 6h82q10 0 12 -6l63 -109l2 -5q0 -7 -9 -7h-57q-9 0 -11 6l-42 76q-1 2 -3 2t-3 -2l-63 -76q-4 -6 -12 -6h-58z" />
    <glyph glyph-name="udieresis" unicode="&#xfc;" 
d="M404 499q0 4 3 7t8 3h72q5 0 7.5 -3t1.5 -7l-60 -489q-2 -10 -11 -10h-73q-10 0 -8 10l4 37q1 2 -0.5 2.5t-3.5 -1.5q-46 -55 -127 -55q-67 0 -112 37t-45 104q0 16 1 24l42 341q2 10 11 10h73q4 0 6.5 -3t1.5 -7l-38 -311q-1 -7 -1 -20q0 -43 23 -67.5t66 -24.5
q49 0 81.5 30.5t38.5 81.5zM404 593q-25 0 -40 15t-15 39q0 32 20.5 53t50.5 21q24 0 39 -15.5t15 -40.5q0 -31 -20.5 -51.5t-49.5 -20.5zM228 593q-25 0 -40 15t-15 39q0 32 20.5 53t50.5 21q24 0 39 -15.5t15 -40.5q0 -31 -20.5 -51.5t-49.5 -20.5z" />
    <glyph glyph-name="yacute" unicode="&#xfd;" horiz-adv-x="462" 
d="M10 -199q-3 0 -5 3t-1 7l7 59q2 10 11 10h2q39 1 62.5 10t41 33.5t37.5 73.5q1 1 0.5 3.5l-0.5 2.5l-101 495v2q0 9 9 9h79q8 0 10 -8l64 -377q0 -2 2.5 -2t3.5 2l154 377q5 8 13 8h77q11 0 6 -11l-242 -533q-31 -68 -57 -102t-64 -48t-103 -14h-6zM242 579q-6 0 -8 3.5
t2 8.5l70 108q4 7 13 7h65q5 0 6.5 -3.5t-2.5 -8.5l-82 -108q-7 -7 -13 -7h-51z" />
    <glyph glyph-name="thorn" unicode="&#xfe;" horiz-adv-x="527" 
d="M489 383q3 -21 3 -44q0 -37 -6 -85q-5 -44 -10 -70t-14 -49q-25 -65 -78 -104t-117 -39q-79 0 -114 61q-1 2 -3 1t-2 -3l-30 -241q0 -4 -3 -7t-8 -3h-73q-5 0 -7.5 3t-1.5 7l108 880q2 10 11 10h74q10 0 8 -10l-28 -229q0 -2 2 -3t3 1q45 58 125 58q66 0 109 -37.5
t52 -96.5zM369 158q7 17 11 36t9 61q6 50 6 67q0 16 -3 29q-5 37 -30 60t-65 23t-69 -22.5t-41 -57.5q-1 -1 -1 -2t-1 -1l-1 -2l-23 -189v-4q5 -35 28.5 -58t63.5 -23q41 0 72.5 23t43.5 60z" />
    <glyph glyph-name="ydieresis" unicode="&#xff;" horiz-adv-x="462" 
d="M10 -199q-3 0 -5 3t-1 7l7 59q2 10 11 10h2q39 1 62.5 10t41 33.5t37.5 73.5q1 1 0.5 3.5l-0.5 2.5l-101 495v2q0 9 9 9h79q8 0 10 -8l64 -377q0 -2 2.5 -2t3.5 2l154 377q5 8 13 8h77q11 0 6 -11l-242 -533q-31 -68 -57 -102t-64 -48t-103 -14h-6zM373 599q-25 0 -40 15
t-15 39q0 32 20.5 53t50.5 21q24 0 39 -15.5t15 -40.5q0 -31 -20.5 -51.5t-49.5 -20.5zM197 599q-25 0 -40 15t-15 39q0 32 20.5 53t50.5 21q24 0 39 -15.5t15 -40.5q0 -31 -20.5 -51.5t-49.5 -20.5z" />
    <glyph glyph-name="Amacron" unicode="&#x100;" horiz-adv-x="611" 
d="M472 0q-3 0 -6 2t-4 6l-21 117q0 3 -3 3h-273q-3 0 -4 -3l-49 -117q-5 -8 -13 -8h-79q-5 0 -6.5 3t0.5 8l296 681q5 8 13 8h97q3 0 6 -2t4 -6l131 -681v-2q0 -9 -9 -9h-80zM195 209q-1 -2 0.5 -3.5t3.5 -1.5h223q2 0 3.5 1.5t0.5 3.5l-67 371q0 2 -2 2t-4 -2zM255 779
q-4 0 -6.5 3t-1.5 7l6 47q2 10 11 10h250q10 0 8 -10l-5 -47q-2 -10 -11 -10h-251z" />
    <glyph glyph-name="amacron" unicode="&#x101;" horiz-adv-x="501" 
d="M416 499q2 10 11 10h74q10 0 8 -10l-60 -489q0 -4 -3 -7t-8 -3h-73q-9 0 -9 10l7 56q1 3 -1 3.5t-3 -2.5q-52 -75 -140 -75q-64 0 -107 39t-52 104q-2 22 -2 33q0 28 7 86q5 43 11.5 73t17.5 56q23 59 75 96.5t119 37.5q88 0 117 -71q1 -3 2.5 -2.5t2.5 3.5zM366 158
q7 16 11 34.5t9 60.5q6 42 6 71q0 10 -2 28q-5 36 -28.5 59t-62.5 23q-41 0 -72.5 -23t-43.5 -60q-7 -15 -11 -33t-10 -63q-6 -52 -6 -69q0 -14 3 -28q3 -37 29 -60t67 -23q40 0 68.5 23.5t42.5 59.5zM178 588q-4 0 -6.5 3t-1.5 7l6 47q2 10 11 10h250q10 0 8 -10l-5 -47
q-2 -10 -11 -10h-251z" />
    <glyph glyph-name="Abreve" unicode="&#x102;" horiz-adv-x="611" 
d="M472 0q-3 0 -6 2t-4 6l-21 117q0 3 -3 3h-273q-3 0 -4 -3l-49 -117q-5 -8 -13 -8h-79q-5 0 -6.5 3t0.5 8l296 681q5 8 13 8h97q3 0 6 -2t4 -6l131 -681v-2q0 -9 -9 -9h-80zM195 209q-1 -2 0.5 -3.5t3.5 -1.5h223q2 0 3.5 1.5t0.5 3.5l-67 371q0 2 -2 2t-4 -2zM377 751
q-53 0 -87 30.5t-32 77.5q2 10 11 10h43q10 0 10 -10q0 -24 17.5 -39t43.5 -15q27 0 48 15t28 39q1 10 12 10h42q11 0 9 -9q-10 -47 -50.5 -78t-94.5 -31z" />
    <glyph glyph-name="abreve" unicode="&#x103;" horiz-adv-x="501" 
d="M416 499q2 10 11 10h74q10 0 8 -10l-60 -489q0 -4 -3 -7t-8 -3h-73q-9 0 -9 10l7 56q1 3 -1 3.5t-3 -2.5q-52 -75 -140 -75q-64 0 -107 39t-52 104q-2 22 -2 33q0 28 7 86q5 43 11.5 73t17.5 56q23 59 75 96.5t119 37.5q88 0 117 -71q1 -3 2.5 -2.5t2.5 3.5zM366 158
q7 16 11 34.5t9 60.5q6 42 6 71q0 10 -2 28q-5 36 -28.5 59t-62.5 23q-41 0 -72.5 -23t-43.5 -60q-7 -15 -11 -33t-10 -63q-6 -52 -6 -69q0 -14 3 -28q3 -37 29 -60t67 -23q40 0 68.5 23.5t42.5 59.5zM300 560q-53 0 -87 30.5t-32 77.5q2 10 11 10h43q10 0 10 -10
q0 -24 17.5 -39t43.5 -15q27 0 48 15t28 39q1 10 12 10h42q11 0 9 -9q-10 -47 -50.5 -78t-94.5 -31z" />
    <glyph glyph-name="Aogonek" unicode="&#x104;" horiz-adv-x="611" 
d="M472 0q-3 0 -6 2t-4 6l-21 117q0 3 -3 3h-273q-3 0 -4 -3l-49 -117q-5 -8 -13 -8h-79q-5 0 -6.5 3t0.5 8l296 681q5 8 13 8h97q3 0 6 -2t4 -6l131 -681v-2q0 -9 -9 -9h-80zM195 209q-1 -2 0.5 -3.5t3.5 -1.5h223q2 0 3.5 1.5t0.5 3.5l-67 371q0 2 -2 2t-4 -2zM558 -171
q0 -7 -8 -10q-25 -7 -48 -7q-35 0 -58 17t-23 56q0 58 70 111q7 4 13 4h40q7 0 7 -4t-5 -8q-58 -44 -58 -84q0 -18 10.5 -27t27.5 -9q10 0 21 3l3 1q6 0 8 -8v-33v-2z" />
    <glyph glyph-name="aogonek" unicode="&#x105;" horiz-adv-x="558" 
d="M448 -128q6 0 8 -8v-33v-2q0 -7 -8 -10q-24 -7 -48 -7q-34 0 -57.5 16.5t-23.5 54.5q0 59 70 112q2 1 1.5 3t-2.5 2h-8q-10 0 -8 10l7 55q0 3 -2 3.5t-3 -2.5q-50 -74 -138 -74q-65 0 -108.5 39t-51.5 104q-2 11 -2 33q0 28 7 86q10 84 28 129q24 59 76 96.5t118 37.5
q87 0 118 -70q1 -3 2.5 -2.5t2.5 3.5l6 51q2 10 11 10h73q5 0 7.5 -3t1.5 -7l-60 -489l-2 -10h-1q-35 -23 -55.5 -48t-20.5 -49q0 -17 10.5 -26t27.5 -9q10 0 21 3zM381 158q7 16 11 34.5t10 60.5q5 43 5 70q0 11 -2 29q-4 36 -27.5 59t-63.5 23t-71.5 -23.5t-44.5 -59.5
q-7 -16 -11 -35t-9 -61q-6 -49 -6 -67q0 -16 3 -30q2 -37 28 -60t67 -23q40 0 69 23.5t42 59.5z" />
    <glyph glyph-name="Cacute" unicode="&#x106;" horiz-adv-x="589" 
d="M277 -9q-96 0 -153 53t-57 143q0 10 2 34l32 259q8 68 44 119.5t93 80t127 28.5q97 0 154 -51t57 -138q0 -10 -2 -32v-1q-2 -11 -11 -11l-74 -4q-10 0 -9 9v3q2 16 2 23q0 54 -34.5 86.5t-92.5 32.5q-64 0 -108.5 -39t-52.5 -103l-33 -266q-1 -7 -1 -21q0 -55 34 -88
t94 -33q64 0 108 39t52 103v2q2 9 11 9l73 -4q10 0 8 -10q-8 -66 -43.5 -116.5t-92.5 -78.5t-127 -28zM332 764q-6 0 -8 3.5t2 8.5l70 108q4 7 13 7h65q5 0 6.5 -3.5t-2.5 -8.5l-82 -108q-7 -7 -13 -7h-51z" />
    <glyph glyph-name="cacute" unicode="&#x107;" horiz-adv-x="510" 
d="M245 -8q-73 0 -120.5 38.5t-59.5 104.5q-4 23 -4 55q0 34 4 66q9 72 30 121q26 64 84 102t131 38t122.5 -38t58.5 -96q4 -17 4 -33q-1 -9 -10 -10l-74 -11h-2q-8 0 -8 9l-2 16q-3 34 -30 57t-70 23t-74 -23t-45 -61q-12 -29 -21 -95q-4 -33 -4 -62q0 -14 2 -32
q5 -40 30 -63t68 -23q42 0 75.5 23.5t45.5 59.5l2 5q0 3 1 4q1 4 4 5.5t7 0.5l71 -12q8 -2 7 -8q0 -3 -1 -4q-1 -5 -7 -22q-25 -61 -83.5 -98t-131.5 -37zM275 573q-6 0 -8 3.5t2 8.5l70 108q4 7 13 7h65q5 0 6.5 -3.5t-2.5 -8.5l-82 -108q-7 -7 -13 -7h-51z" />
    <glyph glyph-name="Ccircumflex" unicode="&#x108;" horiz-adv-x="589" 
d="M277 -9q-96 0 -153 53t-57 143q0 10 2 34l32 259q8 68 44 119.5t93 80t127 28.5q97 0 154 -51t57 -138q0 -10 -2 -32v-1q-2 -11 -11 -11l-74 -4q-10 0 -9 9v3q2 16 2 23q0 54 -34.5 86.5t-92.5 32.5q-64 0 -108.5 -39t-52.5 -103l-33 -266q-1 -7 -1 -21q0 -55 34 -88
t94 -33q64 0 108 39t52 103v2q2 9 11 9l73 -4q10 0 8 -10q-8 -66 -43.5 -116.5t-92.5 -78.5t-127 -28zM247 764q-6 0 -7.5 3.5t2.5 8.5l90 109q5 6 14 6h82q10 0 12 -6l63 -109l2 -5q0 -7 -9 -7h-57q-9 0 -11 6l-42 76q-1 2 -3 2t-3 -2l-63 -76q-4 -6 -12 -6h-58z" />
    <glyph glyph-name="ccircumflex" unicode="&#x109;" horiz-adv-x="510" 
d="M245 -8q-73 0 -120.5 38.5t-59.5 104.5q-4 23 -4 55q0 34 4 66q9 72 30 121q26 64 84 102t131 38t122.5 -38t58.5 -96q4 -17 4 -33q-1 -9 -10 -10l-74 -11h-2q-8 0 -8 9l-2 16q-3 34 -30 57t-70 23t-74 -23t-45 -61q-12 -29 -21 -95q-4 -33 -4 -62q0 -14 2 -32
q5 -40 30 -63t68 -23q42 0 75.5 23.5t45.5 59.5l2 5q0 3 1 4q1 4 4 5.5t7 0.5l71 -12q8 -2 7 -8q0 -3 -1 -4q-1 -5 -7 -22q-25 -61 -83.5 -98t-131.5 -37zM190 573q-6 0 -7.5 3.5t2.5 8.5l90 109q5 6 14 6h82q10 0 12 -6l63 -109l2 -5q0 -7 -9 -7h-57q-9 0 -11 6l-42 76
q-1 2 -3 2t-3 -2l-63 -76q-4 -6 -12 -6h-58z" />
    <glyph glyph-name="Cdotaccent" unicode="&#x10a;" horiz-adv-x="589" 
d="M277 -9q-96 0 -153 53t-57 143q0 10 2 34l32 259q8 68 44 119.5t93 80t127 28.5q97 0 154 -51t57 -138q0 -10 -2 -32v-1q-2 -11 -11 -11l-74 -4q-10 0 -9 9v3q2 16 2 23q0 54 -34.5 86.5t-92.5 32.5q-64 0 -108.5 -39t-52.5 -103l-33 -266q-1 -7 -1 -21q0 -55 34 -88
t94 -33q64 0 108 39t52 103v2q2 9 11 9l73 -4q10 0 8 -10q-8 -66 -43.5 -116.5t-92.5 -78.5t-127 -28zM374 780q-25 0 -40 15t-15 39q0 32 20.5 53t50.5 21q24 0 39 -15.5t15 -40.5q0 -31 -20.5 -51.5t-49.5 -20.5z" />
    <glyph glyph-name="cdotaccent" unicode="&#x10b;" horiz-adv-x="510" 
d="M245 -8q-73 0 -120.5 38.5t-59.5 104.5q-4 23 -4 55q0 34 4 66q9 72 30 121q26 64 84 102t131 38t122.5 -38t58.5 -96q4 -17 4 -33q-1 -9 -10 -10l-74 -11h-2q-8 0 -8 9l-2 16q-3 34 -30 57t-70 23t-74 -23t-45 -61q-12 -29 -21 -95q-4 -33 -4 -62q0 -14 2 -32
q5 -40 30 -63t68 -23q42 0 75.5 23.5t45.5 59.5l2 5q0 3 1 4q1 4 4 5.5t7 0.5l71 -12q8 -2 7 -8q0 -3 -1 -4q-1 -5 -7 -22q-25 -61 -83.5 -98t-131.5 -37zM316 589q-25 0 -40 15t-15 39q0 32 20.5 53t50.5 21q24 0 39 -15.5t15 -40.5q0 -31 -20.5 -51.5t-49.5 -20.5z" />
    <glyph glyph-name="Ccaron" unicode="&#x10c;" horiz-adv-x="589" 
d="M277 -9q-96 0 -153 53t-57 143q0 10 2 34l32 259q8 68 44 119.5t93 80t127 28.5q97 0 154 -51t57 -138q0 -10 -2 -32v-1q-2 -11 -11 -11l-74 -4q-10 0 -9 9v3q2 16 2 23q0 54 -34.5 86.5t-92.5 32.5q-64 0 -108.5 -39t-52.5 -103l-33 -266q-1 -7 -1 -21q0 -55 34 -88
t94 -33q64 0 108 39t52 103v2q2 9 11 9l73 -4q10 0 8 -10q-8 -66 -43.5 -116.5t-92.5 -78.5t-127 -28zM259 879q-2 4 -2 5q0 3 2.5 5t6.5 2h59q8 0 10 -6l44 -76q1 -1 3 -1t3 1l61 76q5 6 12 6h58q5 0 6.5 -4t-2.5 -8l-90 -109q-5 -6 -13 -6h-83q-8 0 -12 6z" />
    <glyph glyph-name="ccaron" unicode="&#x10d;" horiz-adv-x="510" 
d="M245 -8q-73 0 -120.5 38.5t-59.5 104.5q-4 23 -4 55q0 34 4 66q9 72 30 121q26 64 84 102t131 38t122.5 -38t58.5 -96q4 -17 4 -33q-1 -9 -10 -10l-74 -11h-2q-8 0 -8 9l-2 16q-3 34 -30 57t-70 23t-74 -23t-45 -61q-12 -29 -21 -95q-4 -33 -4 -62q0 -14 2 -32
q5 -40 30 -63t68 -23q42 0 75.5 23.5t45.5 59.5l2 5q0 3 1 4q1 4 4 5.5t7 0.5l71 -12q8 -2 7 -8q0 -3 -1 -4q-1 -5 -7 -22q-25 -61 -83.5 -98t-131.5 -37zM202 688q-2 4 -2 5q0 3 2.5 5t6.5 2h59q8 0 10 -6l44 -76q1 -1 3 -1t3 1l61 76q5 6 12 6h58q5 0 6.5 -4t-2.5 -8
l-90 -109q-5 -6 -13 -6h-83q-8 0 -12 6z" />
    <glyph glyph-name="Dcaron" unicode="&#x10e;" horiz-adv-x="599" 
d="M70 0q-9 0 -9 10l84 680q2 10 11 10h235q92 0 145 -46t53 -125q0 -9 -2 -29l-37 -300q-11 -91 -77.5 -145.5t-167.5 -54.5h-235zM164 87q0 -4 3 -4h152q56 0 94 35.5t46 95.5l33 272q1 8 1 23q0 51 -28.5 79.5t-80.5 28.5h-151q-4 0 -4 -4zM259 877q-2 4 -2 5q0 3 2.5 5
t6.5 2h59q8 0 10 -6l44 -76q1 -1 3 -1t3 1l61 76q5 6 12 6h58q5 0 6.5 -4t-2.5 -8l-90 -109q-5 -6 -13 -6h-83q-8 0 -12 6z" />
    <glyph glyph-name="dcaron" unicode="&#x10f;" horiz-adv-x="536" 
d="M440 690q0 4 3 7t8 3h73q5 0 7.5 -3t1.5 -7l-84 -680q0 -4 -3 -7t-8 -3h-73q-9 0 -9 10l4 33q1 2 -0.5 3t-3.5 -1q-24 -26 -55 -39.5t-65 -13.5q-70 0 -112 35.5t-55 100.5q-7 29 -7 68q0 32 4 60q9 71 31 121q28 66 79.5 103t123.5 37q34 0 61.5 -13.5t45.5 -38.5
q2 -2 3.5 -1t1.5 3zM347 129q28 43 37 126q4 28 4 57q0 43 -12 71q-23 51 -76 51q-57 0 -93 -48q-37 -50 -47 -132q-3 -27 -3 -49q0 -45 12 -75q10 -27 32 -41t54 -14q55 0 92 54zM562 573q-6 0 -8 3.5t2 8.5l70 108q4 7 13 7h65q5 0 6.5 -3.5t-2.5 -8.5l-82 -108
q-7 -7 -13 -7h-51z" />
    <glyph glyph-name="Dcroat" unicode="&#x110;" horiz-adv-x="658" 
d="M449 700q93 0 146 -46t53 -125q0 -9 -2 -29l-37 -300q-11 -91 -78 -145.5t-168 -54.5h-234q-10 0 -8 10l38 315q0 4 -3 4h-46q-10 0 -8 10l6 48q0 4 3 7t8 3h45q3 0 5 4l35 289q2 10 11 10h234zM551 486q1 8 1 23q0 50 -29.5 79t-80.5 29h-150q-4 0 -4 -4l-26 -212
q-1 -1 0 -2.5t3 -1.5h102q10 0 8 -10l-6 -48q0 -4 -3 -7t-7 -3h-102q-3 0 -5 -4l-29 -238q0 -4 4 -4h150q57 0 95 35.5t46 95.5z" />
    <glyph glyph-name="dcroat" unicode="&#x111;" horiz-adv-x="536" 
d="M579 628q4 0 6.5 -3t1.5 -7l-5 -41q-2 -10 -11 -10h-49q-3 0 -5 -4l-68 -553q0 -4 -3 -7t-8 -3h-73q-9 0 -9 10l4 33q1 2 -0.5 3t-3.5 -1q-24 -26 -55 -39.5t-65 -13.5q-70 0 -112 35.5t-55 100.5q-7 29 -7 68q0 32 4 60q9 71 31 121q28 66 79.5 103t123.5 37
q34 0 61.5 -13.5t45.5 -38.5q2 -2 3.5 -1t1.5 3l12 96q0 4 -3 4h-151q-4 0 -6.5 3t-1.5 7l5 41q2 10 11 10h150q3 0 5 4l7 58q0 4 3 7t8 3h73q5 0 7.5 -3t1.5 -7l-7 -58q-1 -1 0 -2.5t3 -1.5h50zM347 129q28 43 37 126q4 28 4 57q0 43 -12 71q-23 51 -76 51q-57 0 -93 -48
q-37 -50 -47 -132q-3 -27 -3 -49q0 -45 12 -75q10 -27 32 -41t54 -14q55 0 92 54z" />
    <glyph glyph-name="Emacron" unicode="&#x112;" horiz-adv-x="580" 
d="M588 627q-2 -10 -11 -10h-344q-4 0 -4 -4l-27 -215q0 -4 4 -4h236q9 0 9 -10l-8 -63q-2 -10 -11 -10h-237q-4 0 -4 -4l-27 -220q0 -4 3 -4h345q10 0 8 -10l-8 -63q0 -4 -3 -7t-8 -3h-431q-9 0 -9 10l84 680q2 10 11 10h431q5 0 7.5 -3t1.5 -7zM253 779q-4 0 -6.5 3
t-1.5 7l6 47q2 10 11 10h250q10 0 8 -10l-5 -47q-2 -10 -11 -10h-251z" />
    <glyph glyph-name="emacron" unicode="&#x113;" horiz-adv-x="521" 
d="M487 325q0 -35 -8 -99q-1 -10 -11 -10h-310q-4 0 -4 -4q-2 -24 -2 -32q0 -10 2 -20q5 -40 34.5 -62.5t79.5 -22.5q71 0 118 61q6 10 13 3l51 -38q6 -6 1 -13q-33 -46 -86 -71.5t-116 -25.5q-71 0 -115 31.5t-62 91.5q-10 34 -10 80q0 19 4 63q5 38 10.5 64t14.5 47
q26 69 83 109t132 40q96 0 138.5 -49t42.5 -143zM296 434q-42 0 -71.5 -21.5t-44.5 -57.5q-9 -22 -15 -56q-1 -4 3 -4h222q4 0 4 4q2 24 2 32q0 46 -26.5 74.5t-73.5 28.5zM191 611q-4 0 -6.5 3t-1.5 7l6 47q0 4 3 7t8 3h250q10 0 8 -10l-5 -47q-1 -4 -4 -7t-7 -3h-251z" />
    <glyph glyph-name="Edotaccent" unicode="&#x116;" horiz-adv-x="580" 
d="M588 627q-2 -10 -11 -10h-344q-4 0 -4 -4l-27 -215q0 -4 4 -4h236q9 0 9 -10l-8 -63q-2 -10 -11 -10h-237q-4 0 -4 -4l-27 -220q0 -4 3 -4h345q10 0 8 -10l-8 -63q0 -4 -3 -7t-8 -3h-431q-9 0 -9 10l84 680q2 10 11 10h431q5 0 7.5 -3t1.5 -7zM378 780q-25 0 -40 15
t-15 39q0 32 20.5 53t50.5 21q24 0 39 -15.5t15 -40.5q0 -31 -20.5 -51.5t-49.5 -20.5z" />
    <glyph glyph-name="edotaccent" unicode="&#x117;" horiz-adv-x="521" 
d="M487 325q0 -35 -8 -99q-1 -10 -11 -10h-310q-4 0 -4 -4q-2 -24 -2 -32q0 -10 2 -20q5 -40 34.5 -62.5t79.5 -22.5q71 0 118 61q6 10 13 3l51 -38q6 -6 1 -13q-33 -46 -86 -71.5t-116 -25.5q-71 0 -115 31.5t-62 91.5q-10 34 -10 80q0 19 4 63q5 38 10.5 64t14.5 47
q26 69 83 109t132 40q96 0 138.5 -49t42.5 -143zM296 434q-42 0 -71.5 -21.5t-44.5 -57.5q-9 -22 -15 -56q-1 -4 3 -4h222q4 0 4 4q2 24 2 32q0 46 -26.5 74.5t-73.5 28.5zM312 589q-25 0 -40 15t-15 39q0 32 20.5 53t50.5 21q24 0 39 -15.5t15 -40.5q0 -31 -20.5 -51.5
t-49.5 -20.5z" />
    <glyph glyph-name="Eogonek" unicode="&#x118;" horiz-adv-x="580" 
d="M588 627q-2 -10 -11 -10h-344q-4 0 -4 -4l-27 -215q0 -4 4 -4h236q9 0 9 -10l-8 -63q-2 -10 -11 -10h-237q-4 0 -4 -4l-27 -220q0 -4 3 -4h345q10 0 8 -10l-8 -63q0 -4 -3 -7t-8 -3h-180q-3 0 -5 -2q-27 -21 -43 -43t-16 -41q0 -18 10 -26.5t27 -8.5q10 0 22 3l4 1
q7 0 7 -8l2 -34q0 -9 -9 -12q-24 -7 -49 -7q-35 0 -58 17.5t-23 56.5q0 52 56 99q2 2 1.5 3.5t-2.5 1.5h-175q-9 0 -9 10l84 680q2 10 11 10h431q5 0 7.5 -3t1.5 -7z" />
    <glyph glyph-name="eogonek" unicode="&#x119;" horiz-adv-x="521" 
d="M487 325q0 -35 -8 -99q-1 -10 -11 -10h-310q-4 0 -4 -4q-2 -24 -2 -32q0 -10 2 -20q5 -40 34.5 -62.5t79.5 -22.5q71 0 118 61q6 10 13 3l51 -38q6 -6 1 -13q-28 -39 -71.5 -63.5t-96.5 -31.5q-3 0 -5 -2q-29 -21 -45.5 -43.5t-16.5 -43.5q0 -34 36 -34q11 0 23 3l4 1
q7 0 7 -8l1 -34q0 -9 -9 -12q-24 -7 -48 -7q-35 0 -58 16.5t-23 54.5q0 56 60 105q5 3 0 5q-54 9 -88.5 39.5t-48.5 80.5q-10 34 -10 80q0 19 4 63q5 38 10.5 64t14.5 47q26 69 83 109t132 40q96 0 138.5 -49t42.5 -143zM296 434q-42 0 -71.5 -21.5t-44.5 -57.5
q-9 -22 -15 -56q-1 -4 3 -4h222q4 0 4 4q2 24 2 32q0 46 -26.5 74.5t-73.5 28.5z" />
    <glyph glyph-name="Ecaron" unicode="&#x11a;" horiz-adv-x="580" 
d="M588 627q-2 -10 -11 -10h-344q-4 0 -4 -4l-27 -215q0 -4 4 -4h236q9 0 9 -10l-8 -63q-2 -10 -11 -10h-237q-4 0 -4 -4l-27 -220q0 -4 3 -4h345q10 0 8 -10l-8 -63q0 -4 -3 -7t-8 -3h-431q-9 0 -9 10l84 680q2 10 11 10h431q5 0 7.5 -3t1.5 -7zM263 879q-2 4 -2 5
q0 3 2.5 5t6.5 2h59q8 0 10 -6l44 -76q1 -1 3 -1t3 1l61 76q5 6 12 6h58q5 0 6.5 -4t-2.5 -8l-90 -109q-5 -6 -13 -6h-83q-8 0 -12 6z" />
    <glyph glyph-name="ecaron" unicode="&#x11b;" horiz-adv-x="521" 
d="M487 325q0 -35 -8 -99q-1 -10 -11 -10h-310q-4 0 -4 -4q-2 -24 -2 -32q0 -10 2 -20q5 -40 34.5 -62.5t79.5 -22.5q71 0 118 61q6 10 13 3l51 -38q6 -6 1 -13q-33 -46 -86 -71.5t-116 -25.5q-71 0 -115 31.5t-62 91.5q-10 34 -10 80q0 19 4 63q5 38 10.5 64t14.5 47
q26 69 83 109t132 40q96 0 138.5 -49t42.5 -143zM296 434q-42 0 -71.5 -21.5t-44.5 -57.5q-9 -22 -15 -56q-1 -4 3 -4h222q4 0 4 4q2 24 2 32q0 46 -26.5 74.5t-73.5 28.5zM197 686q-2 4 -2 5q0 3 2.5 5t6.5 2h59q8 0 10 -6l44 -76q1 -1 3 -1t3 1l61 76q5 6 12 6h58
q5 0 6.5 -4t-2.5 -8l-90 -109q-5 -6 -13 -6h-83q-8 0 -12 6z" />
    <glyph glyph-name="Gcircumflex" unicode="&#x11c;" horiz-adv-x="594" 
d="M277 -8q-96 0 -153 53t-57 143q0 10 2 34l31 256q8 69 44.5 121t93.5 80.5t127 28.5q64 0 111.5 -24t73.5 -66.5t26 -96.5q0 -10 -2 -30l-1 -11q-2 -10 -11 -10h-74q-4 0 -6.5 3t-1.5 7l1 9q1 7 1 20q0 52 -34 83.5t-93 31.5q-65 0 -109 -39t-52 -104l-32 -262
q-1 -8 -1 -22q0 -55 35.5 -88t95.5 -33q63 0 105 34.5t49 94.5l10 77q0 4 -4 4h-131q-10 0 -8 10l7 62q1 4 4 7t7 3h219q4 0 6.5 -3t1.5 -7l-16 -127q-14 -115 -85 -177t-180 -62zM247 768q-6 0 -7.5 3.5t2.5 8.5l90 109q5 6 14 6h82q10 0 12 -6l63 -109l2 -5q0 -7 -9 -7
h-57q-9 0 -11 6l-42 76q-1 2 -3 2t-3 -2l-63 -76q-4 -6 -12 -6h-58z" />
    <glyph glyph-name="gcircumflex" unicode="&#x11d;" horiz-adv-x="526" 
d="M413 499q2 10 11 10h74q10 0 8 -10l-58 -473q-15 -121 -87.5 -173t-184.5 -52q-16 0 -48 2q-9 1 -8 11l11 69q1 5 4.5 7.5t7.5 1.5q14 -1 40 -1q82 0 122.5 31.5t50.5 106.5l2 18q0 6 -5 2q-46 -49 -125 -49q-63 0 -110 34t-58 100q-3 21 -3 45q0 32 5 77q10 80 31 128
q26 60 77.5 96.5t115.5 36.5q79 0 119 -50q3 -5 5 1zM366 163q5 15 8.5 32t9.5 62q6 54 6 69q0 8 -2 24q-3 37 -27 60.5t-65 23.5q-40 0 -70.5 -23.5t-46.5 -60.5q-16 -33 -22 -93q-5 -45 -5 -64t3 -30q5 -37 31 -60.5t66 -23.5q42 0 72 23.5t42 60.5zM198 573
q-6 0 -7.5 3.5t2.5 8.5l90 109q5 6 14 6h82q10 0 12 -6l63 -109l2 -5q0 -7 -9 -7h-57q-9 0 -11 6l-42 76q-1 2 -3 2t-3 -2l-63 -76q-4 -6 -12 -6h-58z" />
    <glyph glyph-name="Gbreve" unicode="&#x11e;" horiz-adv-x="594" 
d="M277 -8q-96 0 -153 53t-57 143q0 10 2 34l31 256q8 69 44.5 121t93.5 80.5t127 28.5q64 0 111.5 -24t73.5 -66.5t26 -96.5q0 -10 -2 -30l-1 -11q-2 -10 -11 -10h-74q-4 0 -6.5 3t-1.5 7l1 9q1 7 1 20q0 52 -34 83.5t-93 31.5q-65 0 -109 -39t-52 -104l-32 -262
q-1 -8 -1 -22q0 -55 35.5 -88t95.5 -33q63 0 105 34.5t49 94.5l10 77q0 4 -4 4h-131q-10 0 -8 10l7 62q1 4 4 7t7 3h219q4 0 6.5 -3t1.5 -7l-16 -127q-14 -115 -85 -177t-180 -62zM370 754q-53 0 -87 30.5t-32 77.5q2 10 11 10h43q10 0 10 -10q0 -24 17.5 -39t43.5 -15
q27 0 48 15t28 39q1 10 12 10h42q11 0 9 -9q-10 -47 -50.5 -78t-94.5 -31z" />
    <glyph glyph-name="gbreve" unicode="&#x11f;" horiz-adv-x="526" 
d="M413 499q2 10 11 10h74q10 0 8 -10l-58 -473q-15 -121 -87.5 -173t-184.5 -52q-16 0 -48 2q-9 1 -8 11l11 69q1 5 4.5 7.5t7.5 1.5q14 -1 40 -1q82 0 122.5 31.5t50.5 106.5l2 18q0 6 -5 2q-46 -49 -125 -49q-63 0 -110 34t-58 100q-3 21 -3 45q0 32 5 77q10 80 31 128
q26 60 77.5 96.5t115.5 36.5q79 0 119 -50q3 -5 5 1zM366 163q5 15 8.5 32t9.5 62q6 54 6 69q0 8 -2 24q-3 37 -27 60.5t-65 23.5q-40 0 -70.5 -23.5t-46.5 -60.5q-16 -33 -22 -93q-5 -45 -5 -64t3 -30q5 -37 31 -60.5t66 -23.5q42 0 72 23.5t42 60.5zM322 560
q-53 0 -87 30.5t-32 77.5q2 10 11 10h43q10 0 10 -10q0 -24 17.5 -39t43.5 -15q27 0 48 15t28 39q1 10 12 10h42q11 0 9 -9q-10 -47 -50.5 -78t-94.5 -31z" />
    <glyph glyph-name="Gdotaccent" unicode="&#x120;" horiz-adv-x="594" 
d="M277 -8q-96 0 -153 53t-57 143q0 10 2 34l31 256q8 69 44.5 121t93.5 80.5t127 28.5q64 0 111.5 -24t73.5 -66.5t26 -96.5q0 -10 -2 -30l-1 -11q-2 -10 -11 -10h-74q-4 0 -6.5 3t-1.5 7l1 9q1 7 1 20q0 52 -34 83.5t-93 31.5q-65 0 -109 -39t-52 -104l-32 -262
q-1 -8 -1 -22q0 -55 35.5 -88t95.5 -33q63 0 105 34.5t49 94.5l10 77q0 4 -4 4h-131q-10 0 -8 10l7 62q1 4 4 7t7 3h219q4 0 6.5 -3t1.5 -7l-16 -127q-14 -115 -85 -177t-180 -62zM373 784q-25 0 -40 15t-15 39q0 32 20.5 53t50.5 21q24 0 39 -15.5t15 -40.5
q0 -31 -20.5 -51.5t-49.5 -20.5z" />
    <glyph glyph-name="gdotaccent" unicode="&#x121;" horiz-adv-x="526" 
d="M413 499q2 10 11 10h74q10 0 8 -10l-58 -473q-15 -121 -87.5 -173t-184.5 -52q-16 0 -48 2q-9 1 -8 11l11 69q1 5 4.5 7.5t7.5 1.5q14 -1 40 -1q82 0 122.5 31.5t50.5 106.5l2 18q0 6 -5 2q-46 -49 -125 -49q-63 0 -110 34t-58 100q-3 21 -3 45q0 32 5 77q10 80 31 128
q26 60 77.5 96.5t115.5 36.5q79 0 119 -50q3 -5 5 1zM366 163q5 15 8.5 32t9.5 62q6 54 6 69q0 8 -2 24q-3 37 -27 60.5t-65 23.5q-40 0 -70.5 -23.5t-46.5 -60.5q-16 -33 -22 -93q-5 -45 -5 -64t3 -30q5 -37 31 -60.5t66 -23.5q42 0 72 23.5t42 60.5zM325 589q-25 0 -40 15
t-15 39q0 32 20.5 53t50.5 21q24 0 39 -15.5t15 -40.5q0 -31 -20.5 -51.5t-49.5 -20.5z" />
    <glyph glyph-name="uni0122" unicode="&#x122;" horiz-adv-x="594" 
d="M277 -8q-96 0 -153 53t-57 143q0 10 2 34l31 256q8 69 44.5 121t93.5 80.5t127 28.5q64 0 111.5 -24t73.5 -66.5t26 -96.5q0 -10 -2 -30l-1 -11q-2 -10 -11 -10h-74q-4 0 -6.5 3t-1.5 7l1 9q1 7 1 20q0 52 -34 83.5t-93 31.5q-65 0 -109 -39t-52 -104l-32 -262
q-1 -8 -1 -22q0 -55 35.5 -88t95.5 -33q63 0 105 34.5t49 94.5l10 77q0 4 -4 4h-131q-10 0 -8 10l7 62q1 4 4 7t7 3h219q4 0 6.5 -3t1.5 -7l-16 -127q-14 -115 -85 -177t-180 -62zM181 -193q-6 0 -8 3.5t2 8.5l70 108q4 7 13 7h65q5 0 6.5 -3.5t-2.5 -8.5l-82 -108
q-7 -7 -13 -7h-51z" />
    <glyph glyph-name="uni0123" unicode="&#x123;" horiz-adv-x="526" 
d="M411 694q6 0 8 -3.5t-2 -8.5l-70 -108q-4 -7 -13 -7h-65q-5 0 -6.5 3.5t2.5 8.5l81 108q7 7 13 7h52zM413 499q2 10 11 10h74q10 0 8 -10l-58 -473q-15 -121 -87.5 -173t-184.5 -52q-16 0 -48 2q-9 1 -8 11l11 69q1 5 4.5 7.5t7.5 1.5q14 -1 40 -1q82 0 122.5 31.5
t50.5 106.5l2 18q0 6 -5 2q-46 -49 -125 -49q-63 0 -110 34t-58 100q-3 21 -3 45q0 32 5 77q10 80 31 128q26 60 77.5 96.5t115.5 36.5q79 0 119 -50q3 -5 5 1zM366 163q5 15 8.5 32t9.5 62q6 54 6 69q0 8 -2 24q-3 37 -27 60.5t-65 23.5q-40 0 -70.5 -23.5t-46.5 -60.5
q-16 -33 -22 -93q-5 -45 -5 -64t3 -30q5 -37 31 -60.5t66 -23.5q42 0 72 23.5t42 60.5z" />
    <glyph glyph-name="Hcircumflex" unicode="&#x124;" horiz-adv-x="625" 
d="M522 690q2 10 11 10h74q10 0 8 -10l-83 -680q-2 -10 -11 -10h-74q-10 0 -8 10l36 297q0 4 -3 4h-277q-4 0 -4 -4l-37 -297q0 -4 -3 -7t-7 -3h-74q-9 0 -9 10l84 680q2 10 11 10h74q4 0 6.5 -3t1.5 -7l-36 -292q0 -4 4 -4h276q4 0 4 4zM265 765q-6 0 -7.5 3.5t2.5 8.5
l90 109q5 6 14 6h82q10 0 12 -6l63 -109l2 -5q0 -7 -9 -7h-57q-9 0 -11 6l-42 76q-1 2 -3 2t-3 -2l-63 -76q-4 -6 -12 -6h-58z" />
    <glyph glyph-name="hcircumflex" unicode="&#x125;" horiz-adv-x="526" 
d="M332 516q72 0 112.5 -39.5t40.5 -107.5q0 -9 -2 -29l-40 -330q-1 -4 -4 -7t-7 -3h-74q-9 0 -9 10l39 311q1 6 1 18q0 42 -24 68t-66 26q-47 0 -79.5 -31t-38.5 -80l-38 -312q-2 -10 -11 -10h-74q-10 0 -8 10l83 680q2 10 11 10h74q10 0 8 -10l-28 -227q0 -2 1.5 -3t2.5 1
q48 55 130 55zM216 751q-6 0 -7.5 3.5t2.5 8.5l90 109q5 6 14 6h82q10 0 12 -6l63 -109l2 -5q0 -7 -9 -7h-57q-9 0 -11 6l-42 76q-1 2 -3 2t-3 -2l-63 -76q-4 -6 -12 -6h-58z" />
    <glyph glyph-name="Hbar" unicode="&#x126;" horiz-adv-x="625" 
d="M649 575q10 0 8 -10l-6 -47q0 -4 -3 -7t-8 -3h-43q-3 0 -5 -4l-60 -494q-2 -10 -11 -10h-74q-10 0 -8 10l36 297q0 4 -3 4h-277q-4 0 -4 -4l-37 -297q0 -4 -3 -7t-7 -3h-74q-9 0 -9 10l61 494q0 4 -3 4h-45q-10 0 -8 10l5 47q2 10 11 10h45q4 0 4 4l14 111q2 10 11 10h74
q4 0 6.5 -3t1.5 -7l-14 -111q0 -4 4 -4h276q3 0 5 4l13 111q2 10 11 10h74q10 0 8 -10l-13 -111q-1 -1 0 -2.5t3 -1.5h44zM482 394q4 0 4 4l13 106q1 1 0 2.5t-3 1.5h-276q-2 0 -3.5 -1t-1.5 -3l-13 -106q0 -4 4 -4h276z" />
    <glyph glyph-name="hbar" unicode="&#x127;" horiz-adv-x="526" 
d="M332 516q72 0 112.5 -39.5t40.5 -107.5q0 -9 -2 -29l-40 -330q-1 -4 -4 -7t-7 -3h-74q-9 0 -9 10l39 311q1 6 1 18q0 42 -24 68t-66 26q-47 0 -79.5 -31t-38.5 -80l-38 -312q-2 -10 -11 -10h-74q-10 0 -8 10l66 541q0 4 -3 4h-54q-4 0 -6.5 3t-1.5 7l5 40q2 10 11 10h53
q3 0 5 4l8 71q2 10 11 10h74q10 0 8 -10l-8 -71q-1 -1 0 -2.5t3 -1.5h147q5 0 7.5 -3t1.5 -7l-5 -40q-2 -10 -11 -10h-147q-3 0 -5 -4l-11 -88q0 -2 1.5 -3t2.5 1q48 55 130 55z" />
    <glyph glyph-name="Itilde" unicode="&#x128;" horiz-adv-x="253" 
d="M70 0q-9 0 -9 10l84 680q2 10 11 10h74q4 0 6.5 -3t1.5 -7l-84 -680q0 -4 -3 -7t-7 -3h-74zM264 784q-19 0 -32.5 5t-27.5 15q-17 10 -25.5 14t-19.5 4q-32 0 -54 -22l-4 -4q-6 -6 -12 0l-24 28q-5 7 0 14q19 26 44 40t54 14q16 0 28 -4.5t21.5 -10.5t13.5 -8t13.5 -8
t17 -8.5t15.5 -2.5q31 0 54 27q6 10 14 2l20 -28q3 -4 3 -6.5t-2 -7.5q-15 -25 -41.5 -39t-55.5 -14z" />
    <glyph glyph-name="itilde" unicode="&#x129;" horiz-adv-x="214" 
d="M50 0q-4 0 -6.5 3t-1.5 7l60 489q2 10 11 10h74q4 0 6.5 -3t1.5 -7l-60 -489q-2 -10 -11 -10h-74zM222 593q-19 0 -32.5 5t-27.5 15q-17 10 -25.5 14t-19.5 4q-32 0 -54 -22l-4 -4q-6 -6 -12 0l-24 28q-5 7 0 14q19 26 44 40t54 14q16 0 28 -4.5t21.5 -10.5t13.5 -8
t13.5 -8t17 -8.5t15.5 -2.5q31 0 54 27q6 10 14 2l20 -28q3 -4 3 -6.5t-2 -7.5q-15 -25 -41.5 -39t-55.5 -14z" />
    <glyph glyph-name="Imacron" unicode="&#x12a;" horiz-adv-x="253" 
d="M70 0q-9 0 -9 10l84 680q2 10 11 10h74q4 0 6.5 -3t1.5 -7l-84 -680q0 -4 -3 -7t-7 -3h-74zM78 779q-4 0 -6.5 3t-1.5 7l6 47q2 10 11 10h250q10 0 8 -10l-5 -47q-2 -10 -11 -10h-251z" />
    <glyph glyph-name="imacron" unicode="&#x12b;" horiz-adv-x="214" 
d="M50 0q-4 0 -6.5 3t-1.5 7l60 489q2 10 11 10h74q4 0 6.5 -3t1.5 -7l-60 -489q-2 -10 -11 -10h-74zM35 588q-4 0 -6.5 3t-1.5 7l6 47q2 10 11 10h250q10 0 8 -10l-5 -47q-2 -10 -11 -10h-251z" />
    <glyph glyph-name="ibreve" unicode="&#x12d;" horiz-adv-x="214" 
d="M50 0q-4 0 -6.5 3t-1.5 7l60 489q2 10 11 10h74q4 0 6.5 -3t1.5 -7l-60 -489q-2 -10 -11 -10h-74zM158 576q-52 0 -86 30t-32 75q0 10 10 10l39 -1q9 0 9 -9q1 -25 19.5 -40.5t46.5 -15.5q29 0 51.5 15.5t29.5 40.5q3 10 12 10h38q10 0 8 -9q-9 -45 -50 -75.5t-95 -30.5z
" />
    <glyph glyph-name="Iogonek" unicode="&#x12e;" horiz-adv-x="235" 
d="M61 0q-9 0 -9 10l84 680q2 10 11 10h74q4 0 6.5 -3t1.5 -7l-84 -680q0 -4 -3 -7t-7 -3h-74zM139 -171q0 -7 -8 -10q-24 -7 -48 -7q-35 0 -58 17t-23 56q0 58 70 111q7 4 13 4h40q7 0 7 -4t-5 -8q-58 -44 -58 -84q0 -18 10.5 -27t27.5 -9q11 0 21 3l3 1q6 0 8 -8v-33v-2z
" />
    <glyph glyph-name="iogonek" unicode="&#x12f;" horiz-adv-x="269" 
d="M87 0q-4 0 -6.5 3t-1.5 7l60 489q2 10 11 10h74q4 0 6.5 -3t1.5 -7l-60 -489q-2 -10 -11 -10h-74zM197 589q-25 0 -40 15t-15 39q0 32 20.5 53t50.5 21q24 0 39 -15.5t15 -40.5q0 -31 -20.5 -51.5t-49.5 -20.5zM166 -171q0 -7 -8 -10q-24 -7 -48 -7q-35 0 -58 17t-23 56
q0 58 70 111q7 4 13 4h40q7 0 7 -4t-5 -8q-58 -44 -58 -84q0 -18 10.5 -27t27.5 -9q11 0 21 3l3 1q6 0 8 -8v-33v-2z" />
    <glyph glyph-name="Idotaccent" unicode="&#x130;" horiz-adv-x="253" 
d="M70 0q-9 0 -9 10l84 680q2 10 11 10h74q4 0 6.5 -3t1.5 -7l-84 -680q0 -4 -3 -7t-7 -3h-74zM202 780q-25 0 -40 15t-15 39q0 32 20.5 53t50.5 21q24 0 39 -15.5t15 -40.5q0 -31 -20.5 -51.5t-49.5 -20.5z" />
    <glyph glyph-name="dotlessi" unicode="&#x131;" horiz-adv-x="214" 
d="M50 0q-4 0 -6.5 3t-1.5 7l60 489q2 10 11 10h74q4 0 6.5 -3t1.5 -7l-60 -489q-2 -10 -11 -10h-74z" />
    <glyph glyph-name="ij" unicode="&#x133;" horiz-adv-x="478" 
d="M177 589q-25 0 -40 15t-15 39q0 32 20.5 53t50.5 21q25 0 40 -14.5t15 -39.5q0 -31 -21 -52.5t-50 -21.5zM66 1q-10 0 -8 10l60 488q0 4 3 7t7 3h74q9 0 9 -10l-60 -488q-2 -10 -11 -10h-74zM407 589q-24 0 -39 15.5t-15 39.5q0 32 20 52.5t50 20.5q25 0 40 -14.5
t15 -39.5q0 -31 -21 -52.5t-50 -21.5zM159 -207q-10 0 -8 10l7 62q2 10 12 10q55 0 82.5 23t33.5 73l64 528q0 4 3 7t8 3h73q5 0 7.5 -3t1.5 -7l-65 -527q-8 -66 -32 -105t-69 -57t-118 -17z" />
    <glyph glyph-name="Jcircumflex" unicode="&#x134;" horiz-adv-x="562" 
d="M233 -8q-95 0 -150 50t-55 134q0 10 2 32l9 71q2 10 11 10h74q10 0 8 -10l-8 -71q-1 -7 -1 -21q0 -51 32 -81.5t88 -30.5q60 0 102.5 36.5t49.5 96.5l59 482q2 10 11 10h74q10 0 8 -10l-59 -482q-8 -64 -42.5 -113t-90 -76t-122.5 -27zM386 765q-6 0 -7.5 3.5t2.5 8.5
l90 109q5 6 14 6h82q10 0 12 -6l63 -109l2 -5q0 -7 -9 -7h-57q-9 0 -11 6l-42 76q-1 2 -3 2t-3 -2l-63 -76q-4 -6 -12 -6h-58z" />
    <glyph glyph-name="jcircumflex" unicode="&#x135;" horiz-adv-x="240" 
d="M-78 -207q-10 0 -8 10l7 62q2 10 12 10q55 0 82.5 23t33.5 73l64 528q0 4 3 7t8 3h74q5 0 7.5 -3t1.5 -7l-65 -527q-8 -66 -32 -105t-69.5 -57t-118.5 -17zM44 573q-6 0 -7.5 3.5t2.5 8.5l90 109q5 6 14 6h82q10 0 12 -6l63 -109l2 -5q0 -7 -9 -7h-57q-9 0 -11 6l-42 76
q-1 2 -3 2t-3 -2l-63 -76q-4 -6 -12 -6h-58z" />
    <glyph glyph-name="uni0136" unicode="&#x136;" horiz-adv-x="598" 
d="M70 0q-9 0 -9 10l84 680q2 10 11 10h74q4 0 6.5 -3t1.5 -7l-39 -319q-1 -2 1 -2.5t4 1.5l317 324q5 6 12 6h85q5 0 6.5 -3.5t-2.5 -8.5l-266 -281q-1 -3 0 -6l199 -389q1 -2 1 -6q0 -6 -8 -6h-84q-8 0 -11 6l-170 327q0 2 -2 2t-3 -1l-93 -94q-3 -3 -3 -5l-28 -225
q0 -4 -3 -7t-7 -3h-74zM193 -185q-6 0 -8 3.5t2 8.5l70 108q4 7 13 7h65q5 0 6.5 -3.5t-2.5 -8.5l-82 -108q-7 -7 -13 -7h-51z" />
    <glyph glyph-name="uni0137" unicode="&#x137;" horiz-adv-x="497" 
d="M58 0q-10 0 -8 10l83 680q2 10 11 10h74q10 0 8 -10l-47 -385q0 -2 1.5 -3t3.5 1l204 201q4 5 12 5h86q6 0 7 -3.5t-3 -8.5l-144 -149q-2 -4 -1 -6l108 -330v-3q0 -4 -3 -6.5t-7 -2.5h-77q-9 0 -10 8l-82 272q-2 4 -5 1l-104 -104q-2 -4 -2 -5l-20 -162q-2 -10 -11 -10
h-74zM148 -185q-6 0 -8 3.5t2 8.5l70 108q4 7 13 7h65q5 0 6.5 -3.5t-2.5 -8.5l-82 -108q-7 -7 -13 -7h-51z" />
    <glyph glyph-name="Lacute" unicode="&#x139;" horiz-adv-x="552" 
d="M70 0q-9 0 -9 10l84 680q2 10 11 10h74q4 0 6.5 -3t1.5 -7l-74 -603q0 -4 3 -4h335q10 0 8 -10l-7 -63q-2 -10 -11 -10h-422zM160 764q-6 0 -8 3.5t2 8.5l70 108q4 7 13 7h65q5 0 6.5 -3.5t-2.5 -8.5l-82 -108q-7 -7 -13 -7h-51z" />
    <glyph glyph-name="lacute" unicode="&#x13a;" horiz-adv-x="228" 
d="M58 0q-10 0 -8 10l83 680q2 10 11 10h74q10 0 8 -10l-83 -680q-2 -10 -11 -10h-74zM150 764q-6 0 -8 3.5t2 8.5l70 108q4 7 13 7h65q5 0 6.5 -3.5t-2.5 -8.5l-82 -108q-7 -7 -13 -7h-51z" />
    <glyph glyph-name="uni013B" unicode="&#x13b;" horiz-adv-x="552" 
d="M70 0q-9 0 -9 10l84 680q2 10 11 10h74q4 0 6.5 -3t1.5 -7l-74 -603q0 -4 3 -4h335q10 0 8 -10l-7 -63q-2 -10 -11 -10h-422zM161 -185q-6 0 -8 3.5t2 8.5l70 108q4 7 13 7h65q5 0 6.5 -3.5t-2.5 -8.5l-82 -108q-7 -7 -13 -7h-51z" />
    <glyph glyph-name="uni013C" unicode="&#x13c;" horiz-adv-x="228" 
d="M58 0q-10 0 -8 10l83 680q2 10 11 10h74q10 0 8 -10l-83 -680q-2 -10 -11 -10h-74zM-25 -185q-6 0 -8 3.5t2 8.5l70 108q4 7 13 7h65q5 0 6.5 -3.5t-2.5 -8.5l-82 -108q-7 -7 -13 -7h-51z" />
    <glyph glyph-name="Lcaron" unicode="&#x13d;" horiz-adv-x="552" 
d="M70 0q-9 0 -9 10l84 680q2 10 11 10h74q4 0 6.5 -3t1.5 -7l-74 -603q0 -4 3 -4h335q10 0 8 -10l-7 -63q-2 -10 -11 -10h-422zM311 573q-6 0 -8 3.5t2 8.5l70 108q4 7 13 7h65q5 0 6.5 -3.5t-2.5 -8.5l-82 -108q-7 -7 -13 -7h-51z" />
    <glyph glyph-name="lcaron" unicode="&#x13e;" horiz-adv-x="376" 
d="M58 0q-10 0 -8 10l83 680q2 10 11 10h74q10 0 8 -10l-83 -680q-2 -10 -11 -10h-74zM259 573q-6 0 -8 3.5t2 8.5l70 108q4 7 13 7h65q5 0 6.5 -3.5t-2.5 -8.5l-82 -108q-7 -7 -13 -7h-51z" />
    <glyph glyph-name="ldot" unicode="&#x140;" horiz-adv-x="260" 
d="M74 0q-10 0 -8 10l83 680q2 10 11 10h74q10 0 8 -10l-83 -680q-2 -10 -11 -10h-74zM207 780q-25 0 -40 15t-15 39q0 32 20.5 53t50.5 21q24 0 39 -15.5t15 -40.5q0 -31 -20.5 -51.5t-49.5 -20.5z" />
    <glyph glyph-name="Lslash" unicode="&#x141;" horiz-adv-x="597" 
d="M210 87q-1 -1 0 -2.5t3 -1.5h335q4 0 6.5 -3t1.5 -7l-8 -63q0 -4 -3 -7t-8 -3h-422q-4 0 -6.5 3t-1.5 7l27 219q0 2 -1.5 3t-3.5 -1l-99 -73q-2 -2 -6 -2t-7 4l-29 41q-2 4 -2 6q0 6 5 8l153 113q1 1 3 5l43 357q1 4 4 7t7 3h74q9 0 9 -10l-35 -279q0 -2 1.5 -3t3.5 1
l224 165q2 2 6 2t7 -4l29 -42q2 -4 2 -6q0 -5 -5 -8l-278 -204q-2 -2 -2 -5z" />
    <glyph glyph-name="lslash" unicode="&#x142;" horiz-adv-x="364" 
d="M372 414q1 -1 1 -4q0 -7 -7 -10l-119 -66q-4 -2 -4 -5l-39 -319q-2 -10 -11 -10h-74q-10 0 -8 10l32 261q0 2 -1.5 3t-3.5 0l-68 -38q-2 -1 -5 -1q-6 0 -8 5l-18 45q-1 1 -1 4q0 7 6 10l107 59q3 2 3 5l40 327q2 10 11 10h74q10 0 8 -10l-32 -268q-1 -2 0.5 -3t3.5 0
l80 45q2 1 5 1q6 0 8 -5z" />
    <glyph glyph-name="Nacute" unicode="&#x143;" horiz-adv-x="652" 
d="M545 690q0 4 3 7t7 3h74q9 0 9 -10l-84 -680q-2 -10 -11 -10h-71q-6 0 -10 7l-241 511q-1 3 -3 2.5t-2 -3.5l-62 -507q0 -4 -3 -7t-7 -3h-74q-9 0 -9 10l84 680q2 10 11 10h72q7 0 10 -7l240 -511q1 -3 3 -2.5t2 3.5zM357 764q-6 0 -8 3.5t2 8.5l70 108q4 7 13 7h65
q5 0 6.5 -3.5t-2.5 -8.5l-82 -108q-7 -7 -13 -7h-51z" />
    <glyph glyph-name="nacute" unicode="&#x144;" horiz-adv-x="526" 
d="M332 516q72 0 112.5 -39.5t40.5 -107.5q0 -9 -2 -29l-40 -330q-1 -4 -4 -7t-7 -3h-74q-9 0 -9 10l39 311q1 6 1 18q0 42 -24 68t-66 26q-47 0 -79.5 -31t-38.5 -80l-38 -312q-2 -10 -11 -10h-74q-10 0 -8 10l60 489q2 10 11 10h73q5 0 7.5 -3t1.5 -7l-5 -36q0 -2 1.5 -3
t2.5 1q48 55 130 55zM277 573q-6 0 -8 3.5t2 8.5l70 108q4 7 13 7h65q5 0 6.5 -3.5t-2.5 -8.5l-82 -108q-7 -7 -13 -7h-51z" />
    <glyph glyph-name="uni0145" unicode="&#x145;" horiz-adv-x="652" 
d="M545 690q0 4 3 7t7 3h74q9 0 9 -10l-84 -680q-2 -10 -11 -10h-71q-6 0 -10 7l-241 511q-1 3 -3 2.5t-2 -3.5l-62 -507q0 -4 -3 -7t-7 -3h-74q-9 0 -9 10l84 680q2 10 11 10h72q7 0 10 -7l240 -511q1 -3 3 -2.5t2 3.5zM213 -185q-6 0 -8 3.5t2 8.5l70 108q4 7 13 7h65
q5 0 6.5 -3.5t-2.5 -8.5l-82 -108q-7 -7 -13 -7h-51z" />
    <glyph glyph-name="uni0146" unicode="&#x146;" horiz-adv-x="526" 
d="M332 516q72 0 112.5 -39.5t40.5 -107.5q0 -9 -2 -29l-40 -330q-1 -4 -4 -7t-7 -3h-74q-9 0 -9 10l39 311q1 6 1 18q0 42 -24 68t-66 26q-47 0 -79.5 -31t-38.5 -80l-38 -312q-2 -10 -11 -10h-74q-10 0 -8 10l60 489q2 10 11 10h73q5 0 7.5 -3t1.5 -7l-5 -36q0 -2 1.5 -3
t2.5 1q48 55 130 55zM156 -185q-6 0 -8 3.5t2 8.5l70 108q4 7 13 7h65q5 0 6.5 -3.5t-2.5 -8.5l-82 -108q-7 -7 -13 -7h-51z" />
    <glyph glyph-name="Ncaron" unicode="&#x147;" horiz-adv-x="652" 
d="M545 690q0 4 3 7t7 3h74q9 0 9 -10l-84 -680q-2 -10 -11 -10h-71q-6 0 -10 7l-241 511q-1 3 -3 2.5t-2 -3.5l-62 -507q0 -4 -3 -7t-7 -3h-74q-9 0 -9 10l84 680q2 10 11 10h72q7 0 10 -7l240 -511q1 -3 3 -2.5t2 3.5zM284 879q-2 4 -2 5q0 3 2.5 5t6.5 2h59q8 0 10 -6
l44 -76q1 -1 3 -1t3 1l61 76q5 6 12 6h58q5 0 6.5 -4t-2.5 -8l-90 -109q-5 -6 -13 -6h-83q-8 0 -12 6z" />
    <glyph glyph-name="ncaron" unicode="&#x148;" horiz-adv-x="526" 
d="M332 516q72 0 112.5 -39.5t40.5 -107.5q0 -9 -2 -29l-40 -330q-1 -4 -4 -7t-7 -3h-74q-9 0 -9 10l39 311q1 6 1 18q0 42 -24 68t-66 26q-47 0 -79.5 -31t-38.5 -80l-38 -312q-2 -10 -11 -10h-74q-10 0 -8 10l60 489q2 10 11 10h73q5 0 7.5 -3t1.5 -7l-5 -36q0 -2 1.5 -3
t2.5 1q48 55 130 55zM204 688q-2 4 -2 5q0 3 2.5 5t6.5 2h59q8 0 10 -6l44 -76q1 -1 3 -1t3 1l61 76q5 6 12 6h58q5 0 6.5 -4t-2.5 -8l-90 -109q-5 -6 -13 -6h-83q-8 0 -12 6z" />
    <glyph glyph-name="Eng" unicode="&#x14a;" horiz-adv-x="652" 
d="M545 690q0 4 3 7t7 3h74q9 0 9 -10l-85 -690q-9 -62 -31 -98.5t-64 -53t-113 -15.5q-10 0 -8 10l7 62q1 10 15 10q50 0 72.5 21.5t28.5 68.5q2 3 0 5l-239 508q-1 3 -3 2.5t-2 -3.5l-62 -507q0 -4 -3 -7t-7 -3h-74q-9 0 -9 10l84 680q2 10 11 10h72q7 0 10 -7l239 -510
q1 -3 3 -2.5t2 3.5z" />
    <glyph glyph-name="eng" unicode="&#x14b;" horiz-adv-x="526" 
d="M467 212q0 -1 2 -5q1 -1 1 -8l-25 -199q-7 -62 -27 -100.5t-61 -58t-109 -20.5q-5 0 -7.5 3t-1.5 7l7 58q2 10 11 10q44 3 66.5 27t28.5 71v0q0 1 -2 5q-1 1 -1 8l39 311q1 6 1 18q0 42 -24 68t-66 26q-47 0 -79.5 -31t-38.5 -80l-38 -312q-2 -10 -11 -10h-74
q-10 0 -8 10l60 489q2 10 11 10h73q5 0 7.5 -3t1.5 -7l-5 -36q0 -2 1.5 -2.5t3.5 1.5q48 54 129 54q72 0 112.5 -39.5t40.5 -107.5q0 -9 -2 -29z" />
    <glyph glyph-name="Omacron" unicode="&#x14c;" horiz-adv-x="603" 
d="M280 -9q-97 0 -154.5 55t-57.5 148q0 24 2 37l29 238q9 71 45.5 125t94.5 84t129 30q98 0 155.5 -55t57.5 -147q0 -24 -2 -37l-29 -238q-8 -71 -45 -125.5t-95 -84.5t-130 -30zM290 74q67 0 112.5 42t54.5 111l29 243q2 18 2 26q0 59 -35 94t-95 35q-65 0 -111 -42.5
t-54 -112.5l-30 -243q-2 -18 -2 -26q0 -58 35 -92.5t94 -34.5zM252 779q-4 0 -6.5 3t-1.5 7l6 47q2 10 11 10h250q10 0 8 -10l-5 -47q-2 -10 -11 -10h-251z" />
    <glyph glyph-name="omacron" unicode="&#x14d;" 
d="M249 -8q-72 0 -120.5 37.5t-61.5 104.5q-6 29 -6 67q0 28 3 55q10 73 32 120q29 66 87 103.5t132 37.5q70 0 117 -37.5t61 -102.5q6 -28 6 -64q0 -27 -3 -56q-8 -70 -32 -123q-30 -67 -87 -104.5t-128 -37.5zM259 75q40 0 72 22.5t49 63.5q16 43 22 94q4 44 4 62
q0 13 -2 31q-8 41 -34.5 63.5t-67.5 22.5q-40 0 -72 -22.5t-50 -63.5q-14 -34 -22 -93q-3 -27 -3 -52q0 -24 3 -42q6 -40 33 -63t68 -23zM190 588q-4 0 -6.5 3t-1.5 7l6 47q2 10 11 10h250q10 0 8 -10l-5 -47q-2 -10 -11 -10h-251z" />
    <glyph glyph-name="obreve" unicode="&#x14f;" 
d="M249 -8q-72 0 -120.5 37.5t-61.5 104.5q-6 29 -6 67q0 28 3 55q10 73 32 120q29 66 87 103.5t132 37.5q70 0 117 -37.5t61 -102.5q6 -28 6 -64q0 -27 -3 -56q-8 -70 -32 -123q-30 -67 -87 -104.5t-128 -37.5zM259 75q40 0 72 22.5t49 63.5q16 43 22 94q4 44 4 62
q0 13 -2 31q-8 41 -34.5 63.5t-67.5 22.5q-40 0 -72 -22.5t-50 -63.5q-14 -34 -22 -93q-3 -27 -3 -52q0 -24 3 -42q6 -40 33 -63t68 -23zM313 576q-52 0 -86 30t-32 75q0 10 10 10l39 -1q9 0 9 -9q1 -25 19.5 -40.5t46.5 -15.5q29 0 51.5 15.5t29.5 40.5q3 10 12 10h38
q10 0 8 -9q-9 -45 -50 -75.5t-95 -30.5z" />
    <glyph glyph-name="Ohungarumlaut" unicode="&#x150;" horiz-adv-x="603" 
d="M280 -9q-97 0 -154.5 55t-57.5 148q0 24 2 37l29 238q9 71 45.5 125t94.5 84t129 30q98 0 155.5 -55t57.5 -147q0 -24 -2 -37l-29 -238q-8 -71 -45 -125.5t-95 -84.5t-130 -30zM290 74q67 0 112.5 42t54.5 111l29 243q2 18 2 26q0 59 -35 94t-95 35q-65 0 -111 -42.5
t-54 -112.5l-30 -243q-2 -18 -2 -26q0 -58 35 -92.5t94 -34.5zM263 764q-5 0 -6.5 3.5t0.5 8.5l65 108q4 7 13 7h66q5 0 7.5 -3.5t-1.5 -8.5l-71 -108q-3 -7 -12 -7h-61zM427 764q-5 0 -7.5 3.5t0.5 8.5l70 108q4 7 12 7h63q5 0 7 -3.5t-2 -8.5l-71 -108q-3 -7 -12 -7h-60z
" />
    <glyph glyph-name="ohungarumlaut" unicode="&#x151;" 
d="M249 -8q-72 0 -120.5 37.5t-61.5 104.5q-6 29 -6 67q0 28 3 55q10 73 32 120q29 66 87 103.5t132 37.5q70 0 117 -37.5t61 -102.5q6 -28 6 -64q0 -27 -3 -56q-8 -70 -32 -123q-30 -67 -87 -104.5t-128 -37.5zM259 75q40 0 72 22.5t49 63.5q16 43 22 94q4 44 4 62
q0 13 -2 31q-8 41 -34.5 63.5t-67.5 22.5q-40 0 -72 -22.5t-50 -63.5q-14 -34 -22 -93q-3 -27 -3 -52q0 -24 3 -42q6 -40 33 -63t68 -23zM201 573q-5 0 -6.5 3.5t0.5 8.5l65 108q4 7 13 7h66q5 0 7.5 -3.5t-1.5 -8.5l-71 -108q-3 -7 -12 -7h-61zM365 573q-5 0 -7.5 3.5
t0.5 8.5l70 108q4 7 12 7h63q5 0 7 -3.5t-2 -8.5l-71 -108q-3 -7 -12 -7h-60z" />
    <glyph glyph-name="OE" unicode="&#x152;" horiz-adv-x="896" 
d="M904 627q0 -4 -3 -7t-8 -3h-313q-4 0 -4 -4l-27 -215q0 -4 4 -4h205q5 0 7.5 -3t1.5 -7l-8 -63q-2 -10 -11 -10h-205q-2 0 -3.5 -1t-1.5 -3l-27 -220q0 -4 4 -4h313q10 0 8 -10l-7 -63q-2 -10 -11 -10h-401q-10 0 -8 10l4 38q1 2 -0.5 3t-3.5 -1q-33 -28 -75 -43.5
t-86 -15.5q-53 0 -94 24t-64 68t-23 100q0 24 2 36l32 261q8 66 41.5 118t84 81t109.5 29q45 0 83 -15.5t63 -43.5q2 -2 3.5 -1t1.5 3l5 39q2 10 11 10h401q4 0 6.5 -3t1.5 -7zM280 74q61 0 103.5 40t50.5 102l32 265q2 16 2 23q0 54 -32.5 87.5t-88.5 33.5
q-60 0 -102.5 -40.5t-50.5 -103.5l-33 -265q-1 -7 -1 -21q0 -54 32.5 -87.5t87.5 -33.5z" />
    <glyph glyph-name="oe" unicode="&#x153;" horiz-adv-x="837" 
d="M587 73q34 0 65.5 18t51.5 47q7 10 14 4l41 -34q4 -2 4 -6t-3 -8q-32 -48 -82 -75t-112 -27q-52 0 -91.5 21.5t-62.5 59.5q-2 5 -5 0q-32 -38 -76 -59.5t-93 -21.5q-70 0 -117 38.5t-59 103.5q-3 21 -3 43q0 36 6 79q6 44 11.5 71t15.5 49q26 64 82.5 102.5t127.5 38.5
q48 0 87 -21.5t62 -58.5q3 -4 6 0q32 37 75.5 58.5t91.5 21.5q72 0 120 -39.5t59 -102.5q2 -20 2 -34q0 -41 -8 -108q-2 -10 -11 -10h-305q-4 0 -4 -4q-1 -13 -1 -34q0 -17 1 -24q5 -41 33 -64.5t77 -23.5zM362 161q10 25 20 95q5 45 5 67q0 12 -2 26q-3 38 -28.5 61.5
t-64.5 23.5q-40 0 -70.5 -23.5t-43.5 -61.5q-12 -28 -19 -93q-5 -32 -5 -66q0 -21 2 -29q3 -39 27.5 -62.5t64.5 -23.5q39 0 70 23.5t44 62.5zM615 434q-40 0 -71 -24t-44 -62q-6 -16 -13 -54q0 -4 4 -4h215q4 0 4 4q2 28 2 37q0 12 -1 17q-4 38 -29.5 62t-66.5 24z" />
    <glyph glyph-name="Racute" unicode="&#x154;" horiz-adv-x="594" 
d="M447 0q-7 0 -10 7l-99 299q0 3 -3 3h-140q-4 0 -4 -4l-37 -295q0 -4 -3 -7t-7 -3h-74q-9 0 -9 10l84 680q2 10 11 10h261q79 0 125.5 -45.5t46.5 -121.5q0 -10 -2 -32q-8 -70 -49.5 -118.5t-106.5 -65.5q-3 -1 -3 -5l104 -300l1 -4q0 -8 -9 -8h-77zM233 617q-4 0 -4 -4
l-28 -224q0 -4 3 -4h162q56 0 92.5 37.5t36.5 96.5q0 45 -27 71.5t-73 26.5h-162zM320 764q-6 0 -8 3.5t2 8.5l70 108q4 7 13 7h65q5 0 6.5 -3.5t-2.5 -8.5l-82 -108q-7 -7 -13 -7h-51z" />
    <glyph glyph-name="racute" unicode="&#x155;" horiz-adv-x="360" 
d="M328 514q31 0 55 -13q7 -3 3 -12l-25 -75q-3 -9 -12 -6q-16 7 -38 7l-14 -1q-45 -2 -78.5 -32.5t-39.5 -79.5l-36 -292q-2 -10 -11 -10h-74q-10 0 -8 10l60 489q2 10 11 10h73q5 0 7.5 -3t1.5 -7l-7 -53q0 -3 1.5 -3.5t2.5 1.5q52 70 128 70zM220 573q-6 0 -8 3.5t2 8.5
l70 108q4 7 13 7h65q5 0 6.5 -3.5t-2.5 -8.5l-82 -108q-7 -7 -13 -7h-51z" />
    <glyph glyph-name="uni0156" unicode="&#x156;" horiz-adv-x="594" 
d="M447 0q-7 0 -10 7l-99 299q0 3 -3 3h-140q-4 0 -4 -4l-37 -295q0 -4 -3 -7t-7 -3h-74q-9 0 -9 10l84 680q2 10 11 10h261q79 0 125.5 -45.5t46.5 -121.5q0 -10 -2 -32q-8 -70 -49.5 -118.5t-106.5 -65.5q-3 -1 -3 -5l104 -300l1 -4q0 -8 -9 -8h-77zM233 617q-4 0 -4 -4
l-28 -224q0 -4 3 -4h162q56 0 92.5 37.5t36.5 96.5q0 45 -27 71.5t-73 26.5h-162zM184 -185q-6 0 -8 3.5t2 8.5l70 108q4 7 13 7h65q5 0 6.5 -3.5t-2.5 -8.5l-82 -108q-7 -7 -13 -7h-51z" />
    <glyph glyph-name="uni0157" unicode="&#x157;" horiz-adv-x="360" 
d="M328 514q31 0 55 -13q7 -3 3 -12l-25 -75q-3 -9 -12 -6q-16 7 -38 7l-14 -1q-45 -2 -78.5 -32.5t-39.5 -79.5l-36 -292q-2 -10 -11 -10h-74q-10 0 -8 10l60 489q2 10 11 10h73q5 0 7.5 -3t1.5 -7l-7 -53q0 -3 1.5 -3.5t2.5 1.5q52 70 128 70zM-28 -185q-6 0 -8 3.5t2 8.5
l70 108q4 7 13 7h65q5 0 6.5 -3.5t-2.5 -8.5l-82 -108q-7 -7 -13 -7h-51z" />
    <glyph glyph-name="Rcaron" unicode="&#x158;" horiz-adv-x="594" 
d="M447 0q-7 0 -10 7l-99 299q0 3 -3 3h-140q-4 0 -4 -4l-37 -295q0 -4 -3 -7t-7 -3h-74q-9 0 -9 10l84 680q2 10 11 10h261q79 0 125.5 -45.5t46.5 -121.5q0 -10 -2 -32q-8 -70 -49.5 -118.5t-106.5 -65.5q-3 -1 -3 -5l104 -300l1 -4q0 -8 -9 -8h-77zM233 617q-4 0 -4 -4
l-28 -224q0 -4 3 -4h162q56 0 92.5 37.5t36.5 96.5q0 45 -27 71.5t-73 26.5h-162zM247 879q-2 4 -2 5q0 3 2.5 5t6.5 2h59q8 0 10 -6l44 -76q1 -1 3 -1t3 1l61 76q5 6 12 6h58q5 0 6.5 -4t-2.5 -8l-90 -109q-5 -6 -13 -6h-83q-8 0 -12 6z" />
    <glyph glyph-name="rcaron" unicode="&#x159;" horiz-adv-x="360" 
d="M328 514q31 0 55 -13q7 -3 3 -12l-25 -75q-3 -9 -12 -6q-16 7 -38 7l-14 -1q-45 -2 -78.5 -32.5t-39.5 -79.5l-36 -292q-2 -10 -11 -10h-74q-10 0 -8 10l60 489q2 10 11 10h73q5 0 7.5 -3t1.5 -7l-7 -53q0 -3 1.5 -3.5t2.5 1.5q52 70 128 70zM147 688q-2 4 -2 5
q0 3 2.5 5t6.5 2h59q8 0 10 -6l44 -76q1 -1 3 -1t3 1l61 76q5 6 12 6h58q5 0 6.5 -4t-2.5 -8l-90 -109q-5 -6 -13 -6h-83q-8 0 -12 6z" />
    <glyph glyph-name="Sacute" unicode="&#x15a;" horiz-adv-x="571" 
d="M269 -8q-104 0 -163 45.5t-59 124.5q0 7 2 25l4 29q0 4 3 7t8 3h70q5 0 7.5 -3t1.5 -7l-3 -24q-1 -4 -1 -13q0 -46 39 -75t108 -29q71 0 109.5 33t38.5 85q0 38 -33 63t-117 62q-63 27 -99.5 47.5t-60.5 53t-24 80.5q0 64 31 111.5t86.5 72.5t128.5 25q100 0 158.5 -47
t58.5 -126q0 -8 -2 -26l-2 -20q-2 -10 -11 -10h-73q-9 0 -9 10l2 15q1 5 1 16q0 46 -36 75.5t-101 29.5q-66 0 -102.5 -30t-36.5 -84q0 -27 15.5 -46t45 -34t88.5 -39q61 -26 99 -47.5t63 -55t25 -82.5q0 -8 -2 -24q-11 -87 -80 -139t-178 -52zM315 764q-6 0 -8 3.5t2 8.5
l70 108q4 7 13 7h65q5 0 6.5 -3.5t-2.5 -8.5l-82 -108q-7 -7 -13 -7h-51z" />
    <glyph glyph-name="sacute" unicode="&#x15b;" horiz-adv-x="477" 
d="M221 -6q-82 0 -130.5 35t-48.5 89q0 9 1 13l2 11q0 4 3 7t8 3h69q5 0 7.5 -3t1.5 -7l-1 -5q-3 -28 24 -49t72 -21q47 0 77 21.5t30 53.5q0 26 -23.5 39.5t-74.5 28.5t-84 30t-56 42t-23 68q0 75 57.5 119.5t147.5 44.5q79 0 126 -35.5t47 -92.5q0 -11 -1 -16l-1 -3
q0 -4 -3 -7t-7 -3h-68q-5 0 -7.5 3t-1.5 7l1 3q3 29 -22.5 48.5t-72.5 19.5q-46 0 -75 -18.5t-29 -50.5q0 -26 24 -40t76 -30q52 -15 85 -29t56.5 -41t23.5 -69q0 -50 -26.5 -87.5t-74.5 -58t-109 -20.5zM250 573q-6 0 -8 3.5t2 8.5l70 108q4 7 13 7h65q5 0 6.5 -3.5
t-2.5 -8.5l-82 -108q-7 -7 -13 -7h-51z" />
    <glyph glyph-name="Scircumflex" unicode="&#x15c;" horiz-adv-x="571" 
d="M269 -8q-104 0 -163 45.5t-59 124.5q0 7 2 25l4 29q0 4 3 7t8 3h70q5 0 7.5 -3t1.5 -7l-3 -24q-1 -4 -1 -13q0 -46 39 -75t108 -29q71 0 109.5 33t38.5 85q0 38 -33 63t-117 62q-63 27 -99.5 47.5t-60.5 53t-24 80.5q0 64 31 111.5t86.5 72.5t128.5 25q100 0 158.5 -47
t58.5 -126q0 -8 -2 -26l-2 -20q-2 -10 -11 -10h-73q-9 0 -9 10l2 15q1 5 1 16q0 46 -36 75.5t-101 29.5q-66 0 -102.5 -30t-36.5 -84q0 -27 15.5 -46t45 -34t88.5 -39q61 -26 99 -47.5t63 -55t25 -82.5q0 -8 -2 -24q-11 -87 -80 -139t-178 -52zM230 764q-6 0 -7.5 3.5
t2.5 8.5l90 109q5 6 14 6h82q10 0 12 -6l63 -109l2 -5q0 -7 -9 -7h-57q-9 0 -11 6l-42 76q-1 2 -3 2t-3 -2l-63 -76q-4 -6 -12 -6h-58z" />
    <glyph glyph-name="scircumflex" unicode="&#x15d;" horiz-adv-x="477" 
d="M221 -6q-82 0 -130.5 35t-48.5 89q0 9 1 13l2 11q0 4 3 7t8 3h69q5 0 7.5 -3t1.5 -7l-1 -5q-3 -28 24 -49t72 -21q47 0 77 21.5t30 53.5q0 26 -23.5 39.5t-74.5 28.5t-84 30t-56 42t-23 68q0 75 57.5 119.5t147.5 44.5q79 0 126 -35.5t47 -92.5q0 -11 -1 -16l-1 -3
q0 -4 -3 -7t-7 -3h-68q-5 0 -7.5 3t-1.5 7l1 3q3 29 -22.5 48.5t-72.5 19.5q-46 0 -75 -18.5t-29 -50.5q0 -26 24 -40t76 -30q52 -15 85 -29t56.5 -41t23.5 -69q0 -50 -26.5 -87.5t-74.5 -58t-109 -20.5zM165 573q-6 0 -7.5 3.5t2.5 8.5l90 109q5 6 14 6h82q10 0 12 -6
l63 -109l2 -5q0 -7 -9 -7h-57q-9 0 -11 6l-42 76q-1 2 -3 2t-3 -2l-63 -76q-4 -6 -12 -6h-58z" />
    <glyph glyph-name="Scedilla" unicode="&#x15e;" horiz-adv-x="571" 
d="M527 183q-10 -80 -68.5 -130.5t-151.5 -58.5q-6 -2 -3 -5q36 -39 36 -79q0 -14 -7 -35q-12 -33 -37 -47t-56 -14q-26 0 -47 8q-9 3 -7 12l9 33q3 10 13 8q14 -4 22 -4q16 0 27.5 8t16.5 23q3 9 3 17q0 34 -41 72q-1 2 -5 2q-87 9 -135.5 53.5t-48.5 115.5q0 7 2 25l4 29
q0 4 3 7t8 3h70q5 0 7.5 -3t1.5 -7l-3 -24q-1 -4 -1 -13q0 -46 39 -75t108 -29q71 0 109.5 33t38.5 85q0 38 -33 63t-117 62q-63 27 -99.5 47.5t-60.5 53t-24 80.5q0 64 31 111.5t86.5 72.5t128.5 25q100 0 158.5 -47t58.5 -126q0 -8 -2 -26l-2 -20q-2 -10 -11 -10h-73
q-9 0 -9 10l2 15q1 5 1 16q0 46 -36 75.5t-101 29.5q-66 0 -102.5 -30t-36.5 -84q0 -27 15.5 -46t45 -34t88.5 -39q61 -26 99 -47.5t63 -55t25 -82.5q0 -8 -2 -24z" />
    <glyph glyph-name="scedilla" unicode="&#x15f;" horiz-adv-x="477" 
d="M431 160q0 -65 -46 -109t-122 -54q-6 -2 -1 -5q37 -38 37 -80q0 -18 -6 -34q-13 -33 -38.5 -47.5t-56.5 -14.5q-21 0 -47 8q-8 3 -5 12l9 33q1 4 4.5 6.5t8.5 0.5q11 -3 20 -3q16 0 28 7.5t17 23.5q3 9 3 17q0 36 -41 72q-1 2 -4 2q-69 7 -109 41t-40 82l1 13l2 11
q0 4 3 7t8 3h69q5 0 7.5 -3t1.5 -7l-1 -5q-3 -28 24 -49t72 -21q47 0 77 21.5t30 53.5q0 26 -23.5 39.5t-74.5 28.5t-84 30t-56 42t-23 68q0 75 57.5 119.5t147.5 44.5q79 0 126 -35.5t47 -92.5q0 -11 -1 -16l-1 -3q0 -4 -3 -7t-7 -3h-68q-5 0 -7.5 3t-1.5 7l1 3
q3 29 -22.5 48.5t-72.5 19.5q-46 0 -75 -18.5t-29 -50.5q0 -26 24 -40t76 -30q52 -15 85 -29t56.5 -41t23.5 -69z" />
    <glyph glyph-name="Scaron" unicode="&#x160;" horiz-adv-x="571" 
d="M269 -8q-104 0 -163 45.5t-59 124.5q0 7 2 25l4 29q0 4 3 7t8 3h70q5 0 7.5 -3t1.5 -7l-3 -24q-1 -4 -1 -13q0 -46 39 -75t108 -29q71 0 109.5 33t38.5 85q0 38 -33 63t-117 62q-63 27 -99.5 47.5t-60.5 53t-24 80.5q0 64 31 111.5t86.5 72.5t128.5 25q100 0 158.5 -47
t58.5 -126q0 -8 -2 -26l-2 -20q-2 -10 -11 -10h-73q-9 0 -9 10l2 15q1 5 1 16q0 46 -36 75.5t-101 29.5q-66 0 -102.5 -30t-36.5 -84q0 -27 15.5 -46t45 -34t88.5 -39q61 -26 99 -47.5t63 -55t25 -82.5q0 -8 -2 -24q-11 -87 -80 -139t-178 -52zM242 879q-2 4 -2 5q0 3 2.5 5
t6.5 2h59q8 0 10 -6l44 -76q1 -1 3 -1t3 1l61 76q5 6 12 6h58q5 0 6.5 -4t-2.5 -8l-90 -109q-5 -6 -13 -6h-83q-8 0 -12 6z" />
    <glyph glyph-name="scaron" unicode="&#x161;" horiz-adv-x="477" 
d="M221 -6q-82 0 -130.5 35t-48.5 89q0 9 1 13l2 11q0 4 3 7t8 3h69q5 0 7.5 -3t1.5 -7l-1 -5q-3 -28 24 -49t72 -21q47 0 77 21.5t30 53.5q0 26 -23.5 39.5t-74.5 28.5t-84 30t-56 42t-23 68q0 75 57.5 119.5t147.5 44.5q79 0 126 -35.5t47 -92.5q0 -11 -1 -16l-1 -3
q0 -4 -3 -7t-7 -3h-68q-5 0 -7.5 3t-1.5 7l1 3q3 29 -22.5 48.5t-72.5 19.5q-46 0 -75 -18.5t-29 -50.5q0 -26 24 -40t76 -30q52 -15 85 -29t56.5 -41t23.5 -69q0 -50 -26.5 -87.5t-74.5 -58t-109 -20.5zM176 688q-2 4 -2 5q0 3 2.5 5t6.5 2h59q8 0 10 -6l44 -76q1 -1 3 -1
t3 1l61 76q5 6 12 6h58q5 0 6.5 -4t-2.5 -8l-90 -109q-5 -6 -13 -6h-83q-8 0 -12 6z" />
    <glyph glyph-name="uni0162" unicode="&#x162;" horiz-adv-x="557" 
d="M578 700q10 0 8 -10l-8 -64q0 -4 -3 -7t-8 -3h-186q-4 0 -4 -4l-74 -602q-2 -10 -11 -10h-74q-10 0 -8 10l74 602q0 4 -4 4h-177q-9 0 -9 10l8 64q2 10 11 10h465zM205 -181q-8 3 -5 12l9 33q1 4 4.5 6.5t8.5 0.5q11 -3 20 -3q21 0 34.5 12t13.5 37q0 33 -40 71
q-3 3 -3 6q0 6 8 6h40q8 0 12 -4q46 -43 46 -90q0 -17 -6 -33q-13 -33 -38.5 -47t-56.5 -14q-24 0 -47 7z" />
    <glyph glyph-name="uni0163" unicode="&#x163;" horiz-adv-x="358" 
d="M262 -1q-6 -2 -3 -6q28 -32 28 -68q0 -16 -7 -35q-12 -33 -37.5 -47t-56.5 -14q-24 0 -47 7q-8 3 -5 12l9 34q1 4 4.5 6.5t8.5 0.5q11 -3 20 -3q16 0 28 7.5t17 23.5q3 9 3 17q0 30 -34 64q-1 2 -4 2q-43 7 -65.5 29.5t-22.5 68.5q0 7 2 29l37 299q0 4 -4 4h-59
q-10 0 -8 10l7 59q2 10 11 10h59q4 0 4 4l15 118q2 10 11 10h70q4 0 6.5 -3t1.5 -7l-14 -118q-1 -1 0 -2.5t3 -1.5h105q10 0 8 -10l-7 -59q-2 -10 -11 -10h-105q-4 0 -4 -4l-33 -265q-1 -7 -1 -19q0 -32 16.5 -46t50.5 -14h28q5 0 7.5 -3t1.5 -7l-8 -62q0 -9 -10 -11h-16z
" />
    <glyph glyph-name="Tcaron" unicode="&#x164;" horiz-adv-x="557" 
d="M578 700q10 0 8 -10l-8 -64q0 -4 -3 -7t-8 -3h-186q-4 0 -4 -4l-74 -602q-2 -10 -11 -10h-74q-10 0 -8 10l74 602q0 4 -4 4h-177q-9 0 -9 10l8 64q2 10 11 10h465zM236 877q-2 4 -2 5q0 3 2.5 5t6.5 2h59q8 0 10 -6l44 -76q1 -1 3 -1t3 1l61 76q5 6 12 6h58q5 0 6.5 -4
t-2.5 -8l-90 -109q-5 -6 -13 -6h-83q-8 0 -12 6z" />
    <glyph glyph-name="tcaron" unicode="&#x165;" horiz-adv-x="358" 
d="M346 440q-2 -10 -11 -10h-105q-4 0 -4 -4l-33 -265q-1 -7 -1 -19q0 -32 16.5 -46t50.5 -14h28q5 0 7.5 -3t1.5 -7l-8 -62q0 -10 -10 -10q-32 -2 -45 -2q-67 0 -101 21.5t-34 78.5q0 9 2 29l37 299q0 4 -4 4h-59q-10 0 -8 10l7 59q2 10 11 10h59q4 0 4 4l15 118
q2 10 11 10h70q4 0 6.5 -3t1.5 -7l-14 -118q-1 -1 0 -2.5t3 -1.5h105q10 0 8 -10zM296 573q-6 0 -8 3.5t2 8.5l70 108q4 7 13 7h65q5 0 6.5 -3.5t-2.5 -8.5l-82 -108q-7 -7 -13 -7h-51z" />
    <glyph glyph-name="Tbar" unicode="&#x166;" horiz-adv-x="557" 
d="M578 626q0 -4 -3 -7t-8 -3h-186q-4 0 -4 -4l-24 -193q0 -4 4 -4h102q5 0 7.5 -3t1.5 -7l-5 -40q-2 -10 -11 -10h-103q-4 0 -4 -4l-42 -341q-2 -10 -11 -10h-74q-10 0 -8 10l42 341q0 4 -4 4h-97q-10 0 -8 10l5 40q0 4 3 7t8 3h97q4 0 4 4l24 193q0 4 -4 4h-177
q-9 0 -9 10l8 64q2 10 11 10h465q10 0 8 -10z" />
    <glyph glyph-name="tbar" unicode="&#x167;" horiz-adv-x="358" 
d="M346 440q-2 -10 -11 -10h-105q-4 0 -4 -4l-9 -75q-1 -1 0 -2.5t3 -1.5h101q10 0 8 -10l-4 -40q-1 -4 -4 -7t-7 -3h-101q-3 0 -5 -4l-15 -122q-1 -7 -1 -19q0 -32 16.5 -46t50.5 -14h28q5 0 7.5 -3t1.5 -7l-8 -62q0 -10 -10 -10q-32 -2 -45 -2q-67 0 -101 21.5t-34 78.5
q0 9 2 29l19 156q0 4 -3 4h-55q-4 0 -6.5 3t-1.5 7l5 40q2 10 11 10h54q4 0 4 4l10 75q0 4 -4 4h-59q-10 0 -8 10l7 59q2 10 11 10h59q4 0 4 4l15 118q2 10 11 10h70q4 0 6.5 -3t1.5 -7l-14 -118q-1 -1 0 -2.5t3 -1.5h105q10 0 8 -10z" />
    <glyph glyph-name="Utilde" unicode="&#x168;" horiz-adv-x="622" 
d="M291 -8q-98 0 -155 53t-57 143q0 10 2 34l57 468q2 10 11 10h74q10 0 8 -10l-58 -470q-1 -7 -1 -21q0 -56 35 -90t94 -34q65 0 110 40t53 105l57 470q2 10 11 10h74q10 0 8 -10l-57 -468q-8 -68 -44 -120.5t-93.5 -81t-128.5 -28.5zM449 784q-19 0 -32.5 5t-27.5 15
q-17 10 -25.5 14t-19.5 4q-32 0 -54 -22l-4 -4q-6 -6 -12 0l-24 28q-5 7 0 14q19 26 44 40t54 14q16 0 28 -4.5t21.5 -10.5t13.5 -8t13.5 -8t17 -8.5t15.5 -2.5q31 0 54 27q6 10 14 2l20 -28q3 -4 3 -6.5t-2 -7.5q-15 -25 -41.5 -39t-55.5 -14z" />
    <glyph glyph-name="utilde" unicode="&#x169;" 
d="M404 499q0 4 3 7t8 3h72q5 0 7.5 -3t1.5 -7l-60 -489q-2 -10 -11 -10h-73q-10 0 -8 10l4 37q1 2 -0.5 2.5t-3.5 -1.5q-46 -55 -127 -55q-67 0 -112 37t-45 104q0 16 1 24l42 341q2 10 11 10h73q4 0 6.5 -3t1.5 -7l-38 -311q-1 -7 -1 -20q0 -43 23 -67.5t66 -24.5
q49 0 81.5 30.5t38.5 81.5zM377 593q-19 0 -32.5 5t-27.5 15q-17 10 -25.5 14t-19.5 4q-32 0 -54 -22l-4 -4q-6 -6 -12 0l-24 28q-5 7 0 14q19 26 44 40t54 14q16 0 28 -4.5t21.5 -10.5t13.5 -8t13.5 -8t17 -8.5t15.5 -2.5q31 0 54 27q6 10 14 2l20 -28q3 -4 3 -6.5t-2 -7.5
q-15 -25 -41.5 -39t-55.5 -14z" />
    <glyph glyph-name="Umacron" unicode="&#x16a;" horiz-adv-x="622" 
d="M291 -8q-98 0 -155 53t-57 143q0 10 2 34l57 468q2 10 11 10h74q10 0 8 -10l-58 -470q-1 -7 -1 -21q0 -56 35 -90t94 -34q65 0 110 40t53 105l57 470q2 10 11 10h74q10 0 8 -10l-57 -468q-8 -68 -44 -120.5t-93.5 -81t-128.5 -28.5zM262 779q-4 0 -6.5 3t-1.5 7l6 47
q2 10 11 10h250q10 0 8 -10l-5 -47q-2 -10 -11 -10h-251z" />
    <glyph glyph-name="umacron" unicode="&#x16b;" 
d="M404 499q0 4 3 7t8 3h72q5 0 7.5 -3t1.5 -7l-60 -489q-2 -10 -11 -10h-73q-10 0 -8 10l4 37q1 2 -0.5 2.5t-3.5 -1.5q-46 -55 -127 -55q-67 0 -112 37t-45 104q0 16 1 24l42 341q2 10 11 10h73q4 0 6.5 -3t1.5 -7l-38 -311q-1 -7 -1 -20q0 -43 23 -67.5t66 -24.5
q49 0 81.5 30.5t38.5 81.5zM190 588q-4 0 -6.5 3t-1.5 7l6 47q2 10 11 10h250q10 0 8 -10l-5 -47q-2 -10 -11 -10h-251z" />
    <glyph glyph-name="Ubreve" unicode="&#x16c;" horiz-adv-x="622" 
d="M291 -8q-98 0 -155 53t-57 143q0 10 2 34l57 468q2 10 11 10h74q10 0 8 -10l-58 -470q-1 -7 -1 -21q0 -56 35 -90t94 -34q65 0 110 40t53 105l57 470q2 10 11 10h74q10 0 8 -10l-57 -468q-8 -68 -44 -120.5t-93.5 -81t-128.5 -28.5zM385 767q-52 0 -86 30t-32 75
q0 10 10 10l39 -1q9 0 9 -9q1 -25 19.5 -40.5t46.5 -15.5q29 0 51.5 15.5t29.5 40.5q3 10 12 10h38q10 0 8 -9q-9 -45 -50 -75.5t-95 -30.5z" />
    <glyph glyph-name="ubreve" unicode="&#x16d;" 
d="M404 499q0 4 3 7t8 3h72q5 0 7.5 -3t1.5 -7l-60 -489q-2 -10 -11 -10h-73q-10 0 -8 10l4 37q1 2 -0.5 2.5t-3.5 -1.5q-46 -55 -127 -55q-67 0 -112 37t-45 104q0 16 1 24l42 341q2 10 11 10h73q4 0 6.5 -3t1.5 -7l-38 -311q-1 -7 -1 -20q0 -43 23 -67.5t66 -24.5
q49 0 81.5 30.5t38.5 81.5zM313 576q-52 0 -86 30t-32 75q0 10 10 10l39 -1q9 0 9 -9q1 -25 19.5 -40.5t46.5 -15.5q29 0 51.5 15.5t29.5 40.5q3 10 12 10h38q10 0 8 -9q-9 -45 -50 -75.5t-95 -30.5z" />
    <glyph glyph-name="Uring" unicode="&#x16e;" horiz-adv-x="622" 
d="M291 -8q-98 0 -155 53t-57 143q0 10 2 34l57 468q2 10 11 10h74q10 0 8 -10l-58 -470q-1 -7 -1 -21q0 -56 35 -90t94 -34q65 0 110 40t53 105l57 470q2 10 11 10h74q10 0 8 -10l-57 -468q-8 -68 -44 -120.5t-93.5 -81t-128.5 -28.5zM385 764q-43 0 -71 28t-28 71
q0 35 17.5 64.5t47 46.5t62.5 17q43 0 70.5 -27.5t27.5 -70.5q0 -35 -17 -64.5t-46 -47t-63 -17.5zM391 818q26 0 46.5 20t20.5 47q0 23 -14.5 38t-37.5 15q-26 0 -46 -20.5t-20 -48.5q0 -22 14.5 -36.5t36.5 -14.5z" />
    <glyph glyph-name="uring" unicode="&#x16f;" 
d="M404 499q0 4 3 7t8 3h72q5 0 7.5 -3t1.5 -7l-60 -489q-2 -10 -11 -10h-73q-10 0 -8 10l4 37q1 2 -0.5 2.5t-3.5 -1.5q-46 -55 -127 -55q-67 0 -112 37t-45 104q0 16 1 24l42 341q2 10 11 10h73q4 0 6.5 -3t1.5 -7l-38 -311q-1 -7 -1 -20q0 -43 23 -67.5t66 -24.5
q49 0 81.5 30.5t38.5 81.5zM313 573q-43 0 -71 28t-28 71q0 35 17.5 64.5t47 46.5t62.5 17q43 0 70.5 -27.5t27.5 -70.5q0 -35 -17 -64.5t-46 -47t-63 -17.5zM319 627q26 0 46.5 20t20.5 47q0 23 -14.5 38t-37.5 15q-26 0 -46 -20.5t-20 -48.5q0 -22 14.5 -36.5t36.5 -14.5z
" />
    <glyph glyph-name="Uhungarumlaut" unicode="&#x170;" horiz-adv-x="622" 
d="M291 -8q-98 0 -155 53t-57 143q0 10 2 34l57 468q2 10 11 10h74q10 0 8 -10l-58 -470q-1 -7 -1 -21q0 -56 35 -90t94 -34q65 0 110 40t53 105l57 470q2 10 11 10h74q10 0 8 -10l-57 -468q-8 -68 -44 -120.5t-93.5 -81t-128.5 -28.5zM273 764q-5 0 -6.5 3.5t0.5 8.5
l65 108q4 7 13 7h66q5 0 7.5 -3.5t-1.5 -8.5l-71 -108q-3 -7 -12 -7h-61zM437 764q-5 0 -7.5 3.5t0.5 8.5l70 108q4 7 12 7h63q5 0 7 -3.5t-2 -8.5l-71 -108q-3 -7 -12 -7h-60z" />
    <glyph glyph-name="uhungarumlaut" unicode="&#x171;" 
d="M404 499q0 4 3 7t8 3h72q5 0 7.5 -3t1.5 -7l-60 -489q-2 -10 -11 -10h-73q-10 0 -8 10l4 37q1 2 -0.5 2.5t-3.5 -1.5q-46 -55 -127 -55q-67 0 -112 37t-45 104q0 16 1 24l42 341q2 10 11 10h73q4 0 6.5 -3t1.5 -7l-38 -311q-1 -7 -1 -20q0 -43 23 -67.5t66 -24.5
q49 0 81.5 30.5t38.5 81.5zM201 573q-5 0 -6.5 3.5t0.5 8.5l65 108q4 7 13 7h66q5 0 7.5 -3.5t-1.5 -8.5l-71 -108q-3 -7 -12 -7h-61zM365 573q-5 0 -7.5 3.5t0.5 8.5l70 108q4 7 12 7h63q5 0 7 -3.5t-2 -8.5l-71 -108q-3 -7 -12 -7h-60z" />
    <glyph glyph-name="Uogonek" unicode="&#x172;" horiz-adv-x="622" 
d="M521 690q2 10 11 10h74q10 0 8 -10l-57 -468q-12 -97 -77.5 -159.5t-162.5 -69.5q-3 0 -5 -2q-25 -20 -38.5 -41t-11.5 -40q1 -16 11.5 -23.5t26.5 -7.5q11 0 21 3l4 1q7 0 7 -8l2 -34q0 -8 -9 -12q-25 -7 -49 -7q-35 0 -58 16.5t-23 55.5q0 51 51 96q5 3 0 5
q-78 12 -122.5 63t-44.5 130q0 10 2 34l57 468q2 10 11 10h74q10 0 8 -10l-58 -470q-1 -7 -1 -21q0 -56 35 -90t94 -34q65 0 110 40t53 105z" />
    <glyph glyph-name="uogonek" unicode="&#x173;" 
d="M425 -128q7 0 7 -8l1 -33q0 -9 -8 -12q-24 -7 -48 -7q-35 0 -58 17t-23 56q0 27 17.5 55.5t52.5 54.5q2 1 1.5 3t-2.5 2h-13q-10 0 -8 10l4 37q1 2 -0.5 2.5t-3.5 -1.5q-46 -55 -127 -55q-67 0 -112 37t-45 104q0 16 1 24l42 341q2 10 11 10h73q4 0 6.5 -3t1.5 -7
l-38 -311q-1 -7 -1 -20q0 -43 23 -67.5t66 -24.5q49 0 81.5 30.5t38.5 81.5l39 311q0 4 3 7t8 3h72q5 0 7.5 -3t1.5 -7l-61 -496q0 -4 -1 -5l-12 -10q-59 -47 -59 -84q0 -18 10.5 -27t27.5 -9q9 0 21 3z" />
    <glyph glyph-name="Wcircumflex" unicode="&#x174;" horiz-adv-x="878" 
d="M199 0q-8 0 -10 8l-99 681v2q0 4 3 6.5t7 2.5h79q8 0 10 -9l66 -498q0 -2 1.5 -2t2.5 2l182 498q3 9 12 9h76q8 0 10 -9l66 -499q0 -2 1 -2t2 2l190 499q1 4 4.5 6.5t7.5 2.5h73q11 0 8 -11l-259 -680q-4 -9 -12 -9h-75q-9 0 -9 9l-64 516q-1 3 -2 3t-2 -3l-187 -516
q-1 -9 -11 -9h-71zM388 764q-6 0 -7.5 3.5t2.5 8.5l90 109q5 6 14 6h82q10 0 12 -6l63 -109l2 -5q0 -7 -9 -7h-57q-9 0 -11 6l-42 76q-1 2 -3 2t-3 -2l-63 -76q-4 -6 -12 -6h-58z" />
    <glyph glyph-name="wcircumflex" unicode="&#x175;" horiz-adv-x="721" 
d="M158 0q-7 0 -10 8l-79 490v2q0 9 10 9h76q4 0 6.5 -2.5t2.5 -6.5l48 -363q0 -2 2 -2t3 2l138 363q4 9 12 9h67q8 0 10 -9l51 -362q1 -2 2.5 -2t2.5 2l140 362q4 9 12 9l75 -1q12 0 7 -11l-200 -489q-5 -8 -12 -8h-76q-7 0 -9 8l-54 338q-1 2 -2.5 2t-2.5 -2l-131 -337
q-4 -9 -12 -9h-77zM283 573q-6 0 -7.5 3.5t2.5 8.5l90 109q5 6 14 6h82q10 0 12 -6l63 -109l2 -5q0 -7 -9 -7h-57q-9 0 -11 6l-42 76q-1 2 -3 2t-3 -2l-63 -76q-4 -6 -12 -6h-58z" />
    <glyph glyph-name="Ycircumflex" unicode="&#x176;" horiz-adv-x="567" 
d="M227 1q-10 0 -8 10l34 281q0 1 0.5 2.5t-0.5 2.5l-154 391l-1 4q0 8 9 8h80q8 0 11 -7l112 -293q1 -2 3 -2t3 2l184 293q4 7 13 7h80q5 0 7 -3.5t-1 -8.5l-251 -391q-2 -2 -2 -5l-34 -281q-2 -10 -11 -10h-74zM233 764q-6 0 -7.5 3.5t2.5 8.5l90 109q5 6 14 6h82
q10 0 12 -6l63 -109l2 -5q0 -7 -9 -7h-57q-9 0 -11 6l-42 76q-1 2 -3 2t-3 -2l-63 -76q-4 -6 -12 -6h-58z" />
    <glyph glyph-name="ycircumflex" unicode="&#x177;" horiz-adv-x="462" 
d="M10 -199q-3 0 -5 3t-1 7l7 59q2 10 11 10h2q39 1 62.5 10t41 33.5t37.5 73.5q1 1 0.5 3.5l-0.5 2.5l-101 495v2q0 9 9 9h79q8 0 10 -8l64 -377q0 -2 2.5 -2t3.5 2l154 377q5 8 13 8h77q11 0 6 -11l-242 -533q-31 -68 -57 -102t-64 -48t-103 -14h-6zM157 579
q-6 0 -7.5 3.5t2.5 8.5l90 109q5 6 14 6h82q10 0 12 -6l63 -109l2 -5q0 -7 -9 -7h-57q-9 0 -11 6l-42 76q-1 2 -3 2t-3 -2l-63 -76q-4 -6 -12 -6h-58z" />
    <glyph glyph-name="Ydieresis" unicode="&#x178;" horiz-adv-x="567" 
d="M227 1q-10 0 -8 10l34 281q0 1 0.5 2.5t-0.5 2.5l-154 391l-1 4q0 8 9 8h80q8 0 11 -7l112 -293q1 -2 3 -2t3 2l184 293q4 7 13 7h80q5 0 7 -3.5t-1 -8.5l-251 -391q-2 -2 -2 -5l-34 -281q-2 -10 -11 -10h-74zM449 784q-25 0 -40 15t-15 39q0 32 20.5 53t50.5 21
q24 0 39 -15.5t15 -40.5q0 -31 -20.5 -51.5t-49.5 -20.5zM273 784q-25 0 -40 15t-15 39q0 32 20.5 53t50.5 21q24 0 39 -15.5t15 -40.5q0 -31 -20.5 -51.5t-49.5 -20.5z" />
    <glyph glyph-name="Zacute" unicode="&#x179;" horiz-adv-x="535" 
d="M30 0q-10 0 -8 10l8 70q2 9 6 13l403 519q2 2 1 3.5t-3 1.5h-331q-9 0 -9 10l8 63q2 10 11 10h431q10 0 8 -10l-8 -70q-2 -9 -6 -13l-405 -519q-2 -2 -1 -3.5t3 -1.5h333q10 0 8 -10l-7 -63q-2 -10 -11 -10h-431zM298 764q-6 0 -8 3.5t2 8.5l70 108q4 7 13 7h65
q5 0 6.5 -3.5t-2.5 -8.5l-82 -108q-7 -7 -13 -7h-51z" />
    <glyph glyph-name="zacute" unicode="&#x17a;" horiz-adv-x="437" 
d="M19 0q-4 0 -6.5 3t-1.5 7l9 70q0 7 5 12l297 324q2 2 1 3.5t-3 1.5h-244q-9 0 -9 10l9 68q2 10 11 10h350q10 0 8 -10l-8 -71q-1 -7 -6 -12l-300 -324q-2 -1 -1.5 -3t2.5 -2h254q9 0 9 -10l-9 -67q0 -4 -3 -7t-8 -3h-356zM227 573q-6 0 -8 3.5t2 8.5l70 108q4 7 13 7h65
q5 0 6.5 -3.5t-2.5 -8.5l-82 -108q-7 -7 -13 -7h-51z" />
    <glyph glyph-name="Zdotaccent" unicode="&#x17b;" horiz-adv-x="535" 
d="M30 0q-10 0 -8 10l8 70q2 9 6 13l403 519q2 2 1 3.5t-3 1.5h-331q-9 0 -9 10l8 63q2 10 11 10h431q10 0 8 -10l-8 -70q-2 -9 -6 -13l-405 -519q-2 -2 -1 -3.5t3 -1.5h333q10 0 8 -10l-7 -63q-2 -10 -11 -10h-431zM339 780q-25 0 -40 15t-15 39q0 32 20.5 53t50.5 21
q24 0 39 -15.5t15 -40.5q0 -31 -20.5 -51.5t-49.5 -20.5z" />
    <glyph glyph-name="zdotaccent" unicode="&#x17c;" horiz-adv-x="437" 
d="M19 0q-4 0 -6.5 3t-1.5 7l9 70q0 7 5 12l297 324q2 2 1 3.5t-3 1.5h-244q-9 0 -9 10l9 68q2 10 11 10h350q10 0 8 -10l-8 -71q-1 -7 -6 -12l-300 -324q-2 -1 -1.5 -3t2.5 -2h254q9 0 9 -10l-9 -67q0 -4 -3 -7t-8 -3h-356zM268 589q-25 0 -40 15t-15 39q0 32 20.5 53
t50.5 21q24 0 39 -15.5t15 -40.5q0 -31 -20.5 -51.5t-49.5 -20.5z" />
    <glyph glyph-name="Zcaron" unicode="&#x17d;" horiz-adv-x="535" 
d="M30 0q-10 0 -8 10l8 70q2 9 6 13l403 519q2 2 1 3.5t-3 1.5h-331q-9 0 -9 10l8 63q2 10 11 10h431q10 0 8 -10l-8 -70q-2 -9 -6 -13l-405 -519q-2 -2 -1 -3.5t3 -1.5h333q10 0 8 -10l-7 -63q-2 -10 -11 -10h-431zM224 879q-2 4 -2 5q0 3 2.5 5t6.5 2h59q8 0 10 -6l44 -76
q1 -1 3 -1t3 1l61 76q5 6 12 6h58q5 0 6.5 -4t-2.5 -8l-90 -109q-5 -6 -13 -6h-83q-8 0 -12 6z" />
    <glyph glyph-name="zcaron" unicode="&#x17e;" horiz-adv-x="437" 
d="M19 0q-4 0 -6.5 3t-1.5 7l9 70q0 7 5 12l297 324q2 2 1 3.5t-3 1.5h-244q-9 0 -9 10l9 68q2 10 11 10h350q10 0 8 -10l-8 -71q-1 -7 -6 -12l-300 -324q-2 -1 -1.5 -3t2.5 -2h254q9 0 9 -10l-9 -67q0 -4 -3 -7t-8 -3h-356zM154 688q-2 4 -2 5q0 3 2.5 5t6.5 2h59
q8 0 10 -6l44 -76q1 -1 3 -1t3 1l61 76q5 6 12 6h58q5 0 6.5 -4t-2.5 -8l-90 -109q-5 -6 -13 -6h-83q-8 0 -12 6z" />
    <glyph glyph-name="uni018F" unicode="&#x18f;" horiz-adv-x="594" 
d="M550 444q6 -28 6 -60q0 -29 -7 -89q-10 -84 -29 -136q-31 -77 -96 -123t-149 -46q-102 0 -156.5 59t-54.5 157q0 35 11 117q0 4 3 7t8 3h371q4 0 4 4q3 27 3 47q0 21 -3 34q-8 49 -42 77.5t-92 28.5q-47 0 -86 -23t-64 -63q-3 -5 -7 -6t-7 2l-51 40q-8 5 -2 13
q36 56 95.5 88t134.5 32q87 0 141 -43t69 -120zM285 74q53 0 92 29t57 78q10 23 15 65q1 4 -3 4h-282q-4 0 -5 -4q-2 -30 -2 -43q0 -58 33.5 -93.5t94.5 -35.5z" />
    <glyph glyph-name="florin" unicode="&#x192;" horiz-adv-x="532" 
d="M305 531q19 72 45.5 107.5t71 48t129.5 13.5q4 0 6.5 -3t1.5 -7l-8 -64q-2 -10 -11 -10h-36q-49 0 -71.5 -19t-36.5 -72l-26 -98q-1 -1 0 -2.5t2 -1.5h82q4 0 6.5 -3t1.5 -7l-8 -68q-2 -10 -11 -10h-95q-5 0 -6 -4l-99 -362q-21 -73 -47 -108t-70.5 -47.5t-129.5 -13.5
q-9 0 -9 10l8 64q2 10 11 10h37q48 0 71 19.5t37 71.5l98 356q0 4 -2 4h-72q-10 0 -8 10l8 68q2 10 11 10h85q5 0 5 4z" />
    <glyph glyph-name="Ohorn" unicode="&#x1a0;" horiz-adv-x="603" 
d="M667 783q4 0 6.5 -3t1.5 -7q-11 -56 -50.5 -88t-90.5 -37q-2 0 -2.5 -1.5t1.5 -2.5q48 -54 48 -138q0 -24 -2 -37l-29 -238q-8 -71 -45 -125.5t-95 -84.5t-130 -30q-97 0 -154.5 55t-57.5 148q0 24 2 37l29 238q9 71 45.5 125t94.5 84t129 30q94 0 150 -50q5 -3 5 2l4 30
q2 10 11 11q26 3 47.5 20.5t29.5 51.5q1 10 11 10h41zM486 470q2 18 2 26q0 59 -35 94t-95 35q-65 0 -111 -42.5t-54 -112.5l-30 -243q-2 -18 -2 -26q0 -58 35 -92.5t94 -34.5q67 0 112.5 42t54.5 111z" />
    <glyph glyph-name="ohorn" unicode="&#x1a1;" 
d="M493 377q6 -28 6 -64q0 -27 -3 -56q-8 -70 -32 -123q-30 -67 -87 -104.5t-128 -37.5q-72 0 -120.5 37.5t-61.5 104.5q-6 29 -6 67q0 28 3 55q10 73 32 120q29 66 87 103.5t132 37.5q19 0 55 -6q1 -1 4 -1q26 3 47 20.5t29 51.5q1 10 11 10h40q5 0 7.5 -3t1.5 -7
q-13 -68 -70 -102q-3 -3 -1 -6q42 -37 54 -97zM380 161q16 43 22 94q4 44 4 62q0 13 -2 31q-8 41 -34.5 63.5t-67.5 22.5q-40 0 -72 -22.5t-50 -63.5q-14 -34 -22 -93q-3 -27 -3 -52q0 -24 3 -42q6 -40 33 -63t68 -23q40 0 72 22.5t49 63.5z" />
    <glyph glyph-name="Uhorn" unicode="&#x1af;" horiz-adv-x="622" 
d="M738 783q10 0 8 -10q-9 -54 -46.5 -85.5t-86.5 -38.5q-4 0 -4 -4l-52 -423q-8 -68 -44 -120.5t-93.5 -81t-128.5 -28.5q-98 0 -155 53t-57 143q0 10 2 34l57 468q2 10 11 10h74q10 0 8 -10l-58 -470q-1 -7 -1 -21q0 -56 35 -90t94 -34q65 0 110 40t53 105l57 470
q2 10 11 10h68q28 0 54 18t34 55q0 10 11 10h39z" />
    <glyph glyph-name="uhorn" unicode="&#x1b0;" 
d="M596 592q4 0 6.5 -3t1.5 -7q-9 -48 -39 -78t-71 -41q-3 -1 -3 -5l-55 -448q-2 -10 -11 -10h-73q-10 0 -8 10l4 37q1 2 -0.5 2.5t-3.5 -1.5q-46 -55 -127 -55q-67 0 -112 37t-45 104q0 16 1 24l42 341q2 10 11 10h73q4 0 6.5 -3t1.5 -7l-38 -311q-1 -7 -1 -20
q0 -43 23 -67.5t66 -24.5q49 0 81.5 30.5t38.5 81.5l39 311q0 4 3 7t8 3h42q28 0 53.5 17.5t33.5 55.5q1 10 11 10h41z" />
    <glyph glyph-name="uni01CD" unicode="&#x1cd;" horiz-adv-x="611" 
d="M472 0q-3 0 -6 2t-4 6l-21 117q0 3 -3 3h-273q-3 0 -4 -3l-49 -117q-5 -8 -13 -8h-79q-5 0 -6.5 3t0.5 8l296 681q5 8 13 8h97q3 0 6 -2t4 -6l131 -681v-2q0 -9 -9 -9h-80zM195 209q-1 -2 0.5 -3.5t3.5 -1.5h223q2 0 3.5 1.5t0.5 3.5l-67 371q0 2 -2 2t-4 -2zM265 877
q-2 4 -2 5q0 3 2.5 5t6.5 2h59q8 0 10 -6l44 -76q1 -1 3 -1t3 1l61 76q5 6 12 6h58q5 0 6.5 -4t-2.5 -8l-90 -109q-5 -6 -13 -6h-83q-8 0 -12 6z" />
    <glyph glyph-name="uni01CE" unicode="&#x1ce;" horiz-adv-x="501" 
d="M416 499q2 10 11 10h74q10 0 8 -10l-60 -489q0 -4 -3 -7t-8 -3h-73q-9 0 -9 10l7 56q1 3 -1 3.5t-3 -2.5q-52 -75 -140 -75q-64 0 -107 39t-52 104q-2 22 -2 33q0 28 7 86q5 43 11.5 73t17.5 56q23 59 75 96.5t119 37.5q88 0 117 -71q1 -3 2.5 -2.5t2.5 3.5zM366 158
q7 16 11 34.5t9 60.5q6 42 6 71q0 10 -2 28q-5 36 -28.5 59t-62.5 23q-41 0 -72.5 -23t-43.5 -60q-7 -15 -11 -33t-10 -63q-6 -52 -6 -69q0 -14 3 -28q3 -37 29 -60t67 -23q40 0 68.5 23.5t42.5 59.5zM188 686q-2 4 -2 5q0 3 2.5 5t6.5 2h59q8 0 10 -6l44 -76q1 -1 3 -1t3 1
l61 76q5 6 12 6h58q5 0 6.5 -4t-2.5 -8l-90 -109q-5 -6 -13 -6h-83q-8 0 -12 6z" />
    <glyph glyph-name="uni01D4" unicode="&#x1d4;" 
d="M404 499q0 4 3 7t8 3h72q5 0 7.5 -3t1.5 -7l-60 -489q-2 -10 -11 -10h-73q-10 0 -8 10l4 37q1 2 -0.5 2.5t-3.5 -1.5q-46 -55 -127 -55q-67 0 -112 37t-45 104q0 16 1 24l42 341q2 10 11 10h73q4 0 6.5 -3t1.5 -7l-38 -311q-1 -7 -1 -20q0 -43 23 -67.5t66 -24.5
q49 0 81.5 30.5t38.5 81.5zM200 686q-2 4 -2 5q0 3 2.5 5t6.5 2h59q8 0 10 -6l44 -76q1 -1 3 -1t3 1l61 76q5 6 12 6h58q5 0 6.5 -4t-2.5 -8l-90 -109q-5 -6 -13 -6h-83q-8 0 -12 6z" />
    <glyph glyph-name="uni01E5" unicode="&#x1e5;" horiz-adv-x="549" 
d="M558 288q9 0 9 -10l-5 -41q-2 -10 -11 -10h-74q-4 0 -4 -4l-25 -197q-15 -121 -87.5 -173t-184.5 -52q-16 0 -48 2q-9 1 -8 11l11 69q1 5 4.5 7.5t7.5 1.5q14 -1 40 -1q82 0 122.5 31.5t50.5 106.5l2 18q0 6 -5 2q-46 -49 -125 -49q-63 0 -110 34t-58 100q-3 21 -3 45
q0 32 5 77q10 80 31 128q26 60 77.5 96.5t115.5 36.5q79 0 119 -50q3 -5 5 1l3 31q2 10 11 10h74q10 0 8 -10l-25 -207q0 -2 1 -3t2 -1h74zM252 79q42 0 72 23.5t42 60.5q7 19 13 60q1 4 -3 4h-112q-5 0 -7.5 3t-1.5 7l5 41q2 10 11 10h113q4 0 4 4l2 33q0 9 -2 25
q-3 37 -27 60.5t-65 23.5q-40 0 -70.5 -23.5t-46.5 -60.5q-16 -33 -22 -93q-5 -45 -5 -64t3 -30q5 -37 31 -60.5t66 -23.5z" />
    <glyph glyph-name="gcaron" unicode="&#x1e7;" horiz-adv-x="526" 
d="M413 499q2 10 11 10h74q10 0 8 -10l-58 -473q-15 -121 -87.5 -173t-184.5 -52q-16 0 -48 2q-9 1 -8 11l11 69q1 5 4.5 7.5t7.5 1.5q14 -1 40 -1q82 0 122.5 31.5t50.5 106.5l2 18q0 6 -5 2q-46 -49 -125 -49q-63 0 -110 34t-58 100q-3 21 -3 45q0 32 5 77q10 80 31 128
q26 60 77.5 96.5t115.5 36.5q79 0 119 -50q3 -5 5 1zM366 163q5 15 8.5 32t9.5 62q6 54 6 69q0 8 -2 24q-3 37 -27 60.5t-65 23.5q-40 0 -70.5 -23.5t-46.5 -60.5q-16 -33 -22 -93q-5 -45 -5 -64t3 -30q5 -37 31 -60.5t66 -23.5q42 0 72 23.5t42 60.5zM210 686q-2 4 -2 5
q0 3 2.5 5t6.5 2h59q8 0 10 -6l44 -76q1 -1 3 -1t3 1l61 76q5 6 12 6h58q5 0 6.5 -4t-2.5 -8l-90 -109q-5 -6 -13 -6h-83q-8 0 -12 6z" />
    <glyph glyph-name="uni01E9" unicode="&#x1e9;" horiz-adv-x="497" 
d="M58 0q-10 0 -8 10l83 680q2 10 11 10h74q10 0 8 -10l-47 -385q0 -2 1.5 -3t3.5 1l204 201q4 5 12 5h86q6 0 7 -3.5t-3 -8.5l-144 -149q-2 -4 -1 -6l108 -330v-3q0 -4 -3 -6.5t-7 -2.5h-77q-9 0 -10 8l-82 272q-2 4 -5 1l-104 -104q-2 -4 -2 -5l-20 -162q-2 -10 -11 -10
h-74zM207 877q-2 4 -2 5q0 3 2.5 5t6.5 2h59q8 0 10 -6l44 -76q1 -1 3 -1t3 1l61 76q5 6 12 6h58q5 0 6.5 -4t-2.5 -8l-90 -109q-5 -6 -13 -6h-83q-8 0 -12 6z" />
    <glyph glyph-name="uni01EF" unicode="&#x1ef;" horiz-adv-x="506" 
d="M254 276q-3 -3 1 -5q98 -10 142.5 -62.5t44.5 -130.5q0 -11 -2 -35q-10 -77 -52.5 -131.5t-107 -82.5t-139.5 -28q-60 0 -123 20q-8 3 -6 12l11 66q0 5 3.5 7.5t8.5 0.5q63 -19 117 -19q86 0 141 45t55 130q0 58 -35.5 96.5t-104.5 38.5q-44 0 -98 -17q-2 -1 -6 -1
q-5 0 -7 6l-18 39q-1 2 -1 5q0 4 5 9l225 177q2 2 1.5 3.5t-2.5 1.5h-211q-10 0 -8 10l8 68q2 10 11 10h338q4 0 6.5 -3t1.5 -7l-8 -66q-1 -6 -7 -12zM180 686q-2 4 -2 5q0 3 2.5 5t6.5 2h59q8 0 10 -6l44 -76q1 -1 3 -1t3 1l61 76q5 6 12 6h58q5 0 6.5 -4t-2.5 -8l-90 -109
q-5 -6 -13 -6h-83q-8 0 -12 6z" />
    <glyph glyph-name="oslashacute" unicode="&#x1ff;" horiz-adv-x="514" 
d="M485 377q6 -28 6 -64q0 -31 -4 -56q-8 -70 -32 -123q-30 -67 -86.5 -104.5t-127.5 -37.5q-59 0 -105 26q-4 2 -5 -1l-40 -51q-7 -9 -14 -2l-47 43q-6 6 0 14l45 57q2 3 0 6q-11 24 -17 50q-5 30 -5 62q0 33 4 60q8 74 30 120q30 66 87.5 103.5t131.5 37.5q54 0 94 -22
q4 -2 5 1l40 51q7 9 14 2l48 -42q3 -3 3 -6t-3 -8l-43 -54q-1 -2 -1 -6q14 -22 22 -56zM151 255q-5 -33 -5 -60q0 -13 1 -19q0 -2 2 -2.5t3 1.5l192 242q2 5 -1 6q-19 11 -49 11q-40 0 -72.5 -22.5t-49.5 -63.5q-14 -32 -21 -93zM371 161q15 32 22 94q4 31 4 62q0 18 -1 25
v1l-1 7h-1l-202 -255q-2 -4 1 -5q24 -15 58 -15q39 0 71 23t49 63zM269 573q-6 0 -8 3.5t2 8.5l70 108q4 7 13 7h65q5 0 6.5 -3.5t-2.5 -8.5l-82 -108q-7 -7 -13 -7h-51z" />
    <glyph glyph-name="uni0218" unicode="&#x218;" horiz-adv-x="571" 
d="M269 -8q-104 0 -163 45.5t-59 124.5q0 7 2 25l4 29q0 4 3 7t8 3h70q5 0 7.5 -3t1.5 -7l-3 -24q-1 -4 -1 -13q0 -46 39 -75t108 -29q71 0 109.5 33t38.5 85q0 38 -33 63t-117 62q-63 27 -99.5 47.5t-60.5 53t-24 80.5q0 64 31 111.5t86.5 72.5t128.5 25q100 0 158.5 -47
t58.5 -126q0 -8 -2 -26l-2 -20q-2 -10 -11 -10h-73q-9 0 -9 10l2 15q1 5 1 16q0 46 -36 75.5t-101 29.5q-66 0 -102.5 -30t-36.5 -84q0 -27 15.5 -46t45 -34t88.5 -39q61 -26 99 -47.5t63 -55t25 -82.5q0 -8 -2 -24q-11 -87 -80 -139t-178 -52zM169 -193q-6 0 -8 3.5t2 8.5
l70 108q4 7 13 7h65q5 0 6.5 -3.5t-2.5 -8.5l-82 -108q-7 -7 -13 -7h-51z" />
    <glyph glyph-name="uni0219" unicode="&#x219;" horiz-adv-x="477" 
d="M221 -6q-82 0 -130.5 35t-48.5 89q0 9 1 13l2 11q0 4 3 7t8 3h69q5 0 7.5 -3t1.5 -7l-1 -5q-3 -28 24 -49t72 -21q47 0 77 21.5t30 53.5q0 26 -23.5 39.5t-74.5 28.5t-84 30t-56 42t-23 68q0 75 57.5 119.5t147.5 44.5q79 0 126 -35.5t47 -92.5q0 -11 -1 -16l-1 -3
q0 -4 -3 -7t-7 -3h-68q-5 0 -7.5 3t-1.5 7l1 3q3 29 -22.5 48.5t-72.5 19.5q-46 0 -75 -18.5t-29 -50.5q0 -26 24 -40t76 -30q52 -15 85 -29t56.5 -41t23.5 -69q0 -50 -26.5 -87.5t-74.5 -58t-109 -20.5zM128 -191q-6 0 -8 3.5t2 8.5l70 108q4 7 13 7h65q5 0 6.5 -3.5
t-2.5 -8.5l-82 -108q-7 -7 -13 -7h-51z" />
    <glyph glyph-name="uni021A" unicode="&#x21a;" horiz-adv-x="557" 
d="M578 700q10 0 8 -10l-8 -64q0 -4 -3 -7t-8 -3h-186q-4 0 -4 -4l-74 -602q-2 -10 -11 -10h-74q-10 0 -8 10l74 602q0 4 -4 4h-177q-9 0 -9 10l8 64q2 10 11 10h465zM137 -185q-6 0 -8 3.5t2 8.5l70 108q4 7 13 7h65q5 0 6.5 -3.5t-2.5 -8.5l-82 -108q-7 -7 -13 -7h-51z
" />
    <glyph glyph-name="uni021B" unicode="&#x21b;" horiz-adv-x="358" 
d="M346 440q-2 -10 -11 -10h-105q-4 0 -4 -4l-33 -265q-1 -7 -1 -19q0 -32 16.5 -46t50.5 -14h28q5 0 7.5 -3t1.5 -7l-8 -62q0 -10 -10 -10q-32 -2 -45 -2q-67 0 -101 21.5t-34 78.5q0 9 2 29l37 299q0 4 -4 4h-59q-10 0 -8 10l7 59q2 10 11 10h59q4 0 4 4l15 118
q2 10 11 10h70q4 0 6.5 -3t1.5 -7l-14 -118q-1 -1 0 -2.5t3 -1.5h105q10 0 8 -10zM116 -180q-6 0 -8 3.5t2 8.5l70 108q4 7 13 7h65q5 0 6.5 -3.5t-2.5 -8.5l-82 -108q-7 -7 -13 -7h-51z" />
    <glyph glyph-name="uni021F" unicode="&#x21f;" horiz-adv-x="526" 
d="M332 516q72 0 112.5 -39.5t40.5 -107.5q0 -9 -2 -29l-40 -330q-1 -4 -4 -7t-7 -3h-74q-9 0 -9 10l39 311q1 6 1 18q0 42 -24 68t-66 26q-47 0 -79.5 -31t-38.5 -80l-38 -312q-2 -10 -11 -10h-74q-10 0 -8 10l83 680q2 10 11 10h74q10 0 8 -10l-28 -227q0 -2 1.5 -3t2.5 1
q48 55 130 55zM216 877q-2 4 -2 5q0 3 2.5 5t6.5 2h59q8 0 10 -6l44 -76q1 -1 3 -1t3 1l61 76q5 6 12 6h58q5 0 6.5 -4t-2.5 -8l-90 -109q-5 -6 -13 -6h-83q-8 0 -12 6z" />
    <glyph glyph-name="uni0228" unicode="&#x228;" horiz-adv-x="580" 
d="M588 627q-2 -10 -11 -10h-344q-4 0 -4 -4l-27 -215q0 -4 4 -4h236q9 0 9 -10l-8 -63q-2 -10 -11 -10h-237q-4 0 -4 -4l-27 -220q0 -4 3 -4h345q10 0 8 -10l-8 -63q0 -4 -3 -7t-8 -3h-170q-5 0 -2 -5q34 -37 34 -77q0 -16 -7 -35q-12 -33 -37 -47t-56 -14q-26 0 -47 8
q-9 3 -6 12l8 33q3 10 13 8q14 -4 22 -4q16 0 27.5 8t16.5 23q3 7 3 17q0 34 -40 71q-1 2 -5 2h-185q-9 0 -9 10l84 680q2 10 11 10h431q5 0 7.5 -3t1.5 -7z" />
    <glyph glyph-name="uni0229" unicode="&#x229;" horiz-adv-x="521" 
d="M487 325q0 -35 -8 -99q-1 -10 -11 -10h-310q-4 0 -4 -4q-2 -24 -2 -32q0 -10 2 -20q5 -40 34.5 -62.5t79.5 -22.5q71 0 118 61q6 10 13 3l51 -38q6 -6 1 -13q-28 -38 -70.5 -62.5t-93.5 -31.5q-6 -2 -1 -5q36 -37 36 -79q0 -14 -7 -35q-11 -33 -37 -47.5t-57 -14.5
q-21 0 -47 8q-8 3 -5 12l9 33q2 10 13 8q14 -4 22 -4q15 0 26.5 8t17.5 23q2 5 2 16q0 36 -43 74q-1 2 -4 2q-109 18 -140 121q-10 34 -10 80q0 19 4 63q5 38 10.5 64t14.5 47q26 69 83 109t132 40q96 0 138.5 -49t42.5 -143zM296 434q-42 0 -71.5 -21.5t-44.5 -57.5
q-9 -22 -15 -56q-1 -4 3 -4h222q4 0 4 4q2 24 2 32q0 46 -26.5 74.5t-73.5 28.5z" />
    <glyph glyph-name="uni0237" unicode="&#x237;" horiz-adv-x="240" 
d="M-78 -207q-10 0 -8 10l7 62q2 10 12 10q55 0 82.5 23t33.5 73l64 528q0 4 3 7t8 3h74q5 0 7.5 -3t1.5 -7l-65 -527q-8 -66 -32 -105t-69.5 -57t-118.5 -17z" />
    <glyph glyph-name="uni0259" unicode="&#x259;" horiz-adv-x="521" 
d="M472 395q10 -34 10 -81q0 -33 -4 -62q-8 -69 -24 -112q-27 -68 -84 -108t-131 -40q-97 0 -139.5 49.5t-42.5 145.5q0 38 9 96q1 10 11 10h309q4 0 5 4q2 22 2 30q0 10 -2 22q-5 40 -35 62.5t-80 22.5q-70 0 -118 -62q-5 -10 -13 -3l-50 39q-7 5 -2 13q33 45 86.5 71
t115.5 26q71 0 115.5 -32t61.5 -91zM249 75q42 0 71.5 21.5t43.5 57.5q9 20 16 55q0 4 -4 4h-222q-4 0 -4 -4q-1 -11 -1 -31q0 -46 26.5 -74.5t73.5 -28.5z" />
    <glyph glyph-name="uni0292" unicode="&#x292;" horiz-adv-x="507" 
d="M254 276q-3 -3 1 -5q98 -10 142.5 -62.5t44.5 -130.5q0 -11 -2 -35q-10 -77 -52.5 -131.5t-107 -82.5t-139.5 -28q-60 0 -123 20q-8 3 -6 12l11 66q0 5 3.5 7.5t8.5 0.5q63 -19 117 -19q86 0 141 45t55 130q0 58 -35.5 96.5t-104.5 38.5q-44 0 -98 -17q-2 -1 -6 -1
q-5 0 -7 6l-18 39q-1 2 -1 5q0 4 5 9l225 177q2 2 1.5 3.5t-2.5 1.5h-211q-10 0 -8 10l8 68q2 10 11 10h338q4 0 6.5 -3t1.5 -7l-8 -66q-1 -6 -7 -12z" />
    <glyph glyph-name="uni02BB" unicode="&#x2bb;" horiz-adv-x="158" 
d="M69 691q0 9 10 9h75q8 0 11 -8l32 -193v-2q0 -9 -10 -9h-55q-9 0 -10 8l-52 192z" />
    <glyph glyph-name="uni02BC" unicode="&#x2bc;" horiz-adv-x="158" 
d="M212 700q5 0 7 -3.5t-1 -8.5l-99 -192q-4 -8 -12 -8h-55q-12 0 -7 11l80 193q3 8 12 8h75z" />
    <glyph glyph-name="circumflex" unicode="&#x2c6;" horiz-adv-x="274" 
d="M90 573q-6 0 -7.5 3.5t2.5 8.5l90 109q5 6 14 6h82q10 0 12 -6l63 -109l2 -5q0 -7 -9 -7h-57q-9 0 -11 6l-42 76q-1 2 -3 2t-3 -2l-63 -76q-4 -6 -12 -6h-58z" />
    <glyph glyph-name="caron" unicode="&#x2c7;" horiz-adv-x="327" 
d="M98 688q-2 4 -2 5q0 3 2.5 5t6.5 2h59q8 0 10 -6l44 -76q1 -1 3 -1t3 1l61 76q5 6 12 6h58q5 0 6.5 -4t-2.5 -8l-90 -109q-5 -6 -13 -6h-83q-8 0 -12 6z" />
    <glyph glyph-name="uni02C9" unicode="&#x2c9;" horiz-adv-x="269" 
d="M68 632q-9 0 -9 10l6 47q2 10 11 10h250q5 0 7.5 -3t1.5 -7l-6 -47q-2 -10 -11 -10h-250z" />
    <glyph glyph-name="breve" unicode="&#x2d8;" horiz-adv-x="312" 
d="M206 560q-53 0 -87 30.5t-32 77.5q2 10 11 10h43q10 0 10 -10q0 -24 17.5 -39t43.5 -15q27 0 48 15t28 39q1 10 12 10h42q11 0 9 -9q-10 -47 -50.5 -78t-94.5 -31z" />
    <glyph glyph-name="dotaccent" unicode="&#x2d9;" horiz-adv-x="173" 
d="M140 589q-25 0 -40 15t-15 39q0 32 20.5 53t50.5 21q24 0 39 -15.5t15 -40.5q0 -31 -20.5 -51.5t-49.5 -20.5z" />
    <glyph glyph-name="ring" unicode="&#x2da;" horiz-adv-x="272" 
d="M187 573q-43 0 -71 28t-28 71q0 35 17.5 64.5t47 46.5t62.5 17q43 0 70.5 -27.5t27.5 -70.5q0 -35 -17 -64.5t-46 -47t-63 -17.5zM193 627q26 0 46.5 20t20.5 47q0 23 -14.5 38t-37.5 15q-26 0 -46 -20.5t-20 -48.5q0 -22 14.5 -36.5t36.5 -14.5z" />
    <glyph glyph-name="ogonek" unicode="&#x2db;" horiz-adv-x="146" 
d="M104 -171q0 -7 -8 -10q-25 -7 -48 -7q-35 0 -58 17t-23 56q0 58 70 111q7 4 13 4h40q7 0 7 -4t-5 -8q-58 -44 -58 -84q0 -18 10.5 -27t27.5 -9q10 0 21 3l3 1q6 0 8 -8v-33v-2z" />
    <glyph glyph-name="tilde" unicode="&#x2dc;" horiz-adv-x="354" 
d="M288 593q-19 0 -32.5 5t-27.5 15q-17 10 -25.5 14t-19.5 4q-32 0 -54 -22l-4 -4q-6 -6 -12 0l-24 28q-5 7 0 14q19 26 44 40t54 14q16 0 28 -4.5t21.5 -10.5t13.5 -8t13.5 -8t17 -8.5t15.5 -2.5q31 0 54 27q6 10 14 2l20 -28q3 -4 3 -6.5t-2 -7.5q-15 -25 -41.5 -39
t-55.5 -14z" />
    <glyph glyph-name="hungarumlaut" unicode="&#x2dd;" horiz-adv-x="372" 
d="M90 581q-5 0 -7.5 3.5t0.5 8.5l70 108q4 7 13 7h64q5 0 6.5 -3.5t-2.5 -8.5l-80 -108q-7 -7 -13 -7h-51zM261 581q-5 0 -7.5 3.5t1.5 8.5l71 108q3 7 12 7h64q12 0 5 -12l-82 -108q-5 -7 -12 -7h-52z" />
    <glyph glyph-name="gravecomb" unicode="&#x300;" horiz-adv-x="0" 
d="M48 585q1 -1 1 -4q0 -4 -3 -6t-8 -2h-52q-6 0 -11 7l-54 108q-1 2 -1 6q0 6 8 6h65q8 0 11 -7z" />
    <glyph glyph-name="acutecomb" unicode="&#x301;" horiz-adv-x="0" 
d="M-139 573q-6 0 -8 3.5t2 8.5l70 108q4 7 13 7h65q5 0 6.5 -3.5t-2.5 -8.5l-82 -108q-7 -7 -13 -7h-51z" />
    <glyph glyph-name="uni0302" unicode="&#x302;" horiz-adv-x="0" 
d="M-237 573q-6 0 -7.5 3.5t2.5 8.5l90 109q5 6 14 6h82q10 0 12 -6l63 -109l2 -5q0 -7 -9 -7h-57q-9 0 -11 6l-42 76q-1 2 -3 2t-3 -2l-63 -76q-4 -6 -12 -6h-58z" />
    <glyph glyph-name="tildecomb" unicode="&#x303;" horiz-adv-x="0" 
d="M-43 593q-19 0 -32.5 5t-27.5 15q-17 10 -25.5 14t-19.5 4q-32 0 -54 -22l-4 -4q-6 -6 -12 0l-24 28q-5 7 0 14q19 26 44 40t54 14q16 0 28 -4.5t21.5 -10.5t13.5 -8t13.5 -8t17 -8.5t15.5 -2.5q31 0 54 27q6 10 14 2l20 -28q3 -4 3 -6.5t-2 -7.5q-15 -25 -41.5 -39
t-55.5 -14z" />
    <glyph glyph-name="uni0304" unicode="&#x304;" horiz-adv-x="0" 
d="M-204 611q-4 0 -6.5 3t-1.5 7l6 47q0 4 3 7t8 3h250q10 0 8 -10l-5 -47q-1 -4 -4 -7t-7 -3h-251z" />
    <glyph glyph-name="uni0306" unicode="&#x306;" horiz-adv-x="0" 
d="M-105 574q-52 0 -86 30t-32 75q0 10 10 10l39 -1q9 0 9 -9q1 -25 19.5 -40.5t46.5 -15.5q29 0 51.5 15.5t29.5 40.5q3 10 12 10h38q10 0 8 -9q-9 -45 -50 -75.5t-95 -30.5z" />
    <glyph glyph-name="uni0307" unicode="&#x307;" horiz-adv-x="0" 
d="M-15 589q-25 0 -40 15t-15 39q0 32 20.5 53t50.5 21q24 0 39 -15.5t15 -40.5q0 -31 -20.5 -51.5t-49.5 -20.5z" />
    <glyph glyph-name="uni0308" unicode="&#x308;" horiz-adv-x="0" 
d="M-8 593q-25 0 -40 15t-15 39q0 32 20.5 53t50.5 21q24 0 39 -15.5t15 -40.5q0 -31 -20.5 -51.5t-49.5 -20.5zM-184 593q-25 0 -40 15t-15 39q0 32 20.5 53t50.5 21q24 0 39 -15.5t15 -40.5q0 -31 -20.5 -51.5t-49.5 -20.5z" />
    <glyph glyph-name="hookabovecomb" unicode="&#x309;" horiz-adv-x="0" 
d="M-275 557q-10 3 -4 12q13 26 38 49q13 12 19.5 21.5t8.5 23.5q2 13 -7.5 22t-24.5 9q-16 0 -26.5 -7t-27.5 -27q-8 -8 -14 -2l-21 16q-7 6 -1 14q23 30 44 43t54 13q36 0 57 -18.5t21 -50.5q0 -27 -11.5 -45t-34.5 -39q-21 -17 -31 -34q-6 -7 -14 -6z" />
    <glyph glyph-name="uni030A" unicode="&#x30a;" horiz-adv-x="0" 
d="M-50 573q-43 0 -71 28t-28 71q0 35 17.5 64.5t47 46.5t62.5 17q43 0 70.5 -27.5t27.5 -70.5q0 -35 -17 -64.5t-46 -47t-63 -17.5zM-44 627q26 0 46.5 20t20.5 47q0 23 -14.5 38t-37.5 15q-26 0 -46 -20.5t-20 -48.5q0 -22 14.5 -36.5t36.5 -14.5z" />
    <glyph glyph-name="uni030B" unicode="&#x30b;" horiz-adv-x="0" 
d="M-273 573q-5 0 -6.5 3.5t0.5 8.5l65 108q4 7 13 7h66q5 0 7.5 -3.5t-1.5 -8.5l-71 -108q-3 -7 -12 -7h-61zM-109 573q-5 0 -7.5 3.5t0.5 8.5l70 108q4 7 12 7h63q5 0 7 -3.5t-2 -8.5l-71 -108q-3 -7 -12 -7h-60z" />
    <glyph glyph-name="uni030C" unicode="&#x30c;" horiz-adv-x="0" 
d="M-229 688q-2 4 -2 5q0 3 2.5 5t6.5 2h59q8 0 10 -6l44 -76q1 -1 3 -1t3 1l61 76q5 6 12 6h58q5 0 6.5 -4t-2.5 -8l-90 -109q-5 -6 -13 -6h-83q-8 0 -12 6z" />
    <glyph glyph-name="uni0312" unicode="&#x312;" horiz-adv-x="0" 
d="M28 700q6 0 8.5 -3.5t-1.5 -8.5l-71 -108q-3 -7 -12 -7h-65q-12 0 -5 12l82 108q5 7 12 7h52z" />
    <glyph glyph-name="uni0313" unicode="&#x313;" horiz-adv-x="0" 
d="M-91 573q-6 0 -8 3.5t2 8.5l70 108q4 7 13 7h65q5 0 6.5 -3.5t-2.5 -8.5l-82 -108q-7 -7 -13 -7h-51z" />
    <glyph glyph-name="uni031B" unicode="&#x31b;" horiz-adv-x="0" 
d="M-98 457q-9 0 -9 10l4 32q2 9 11 11q26 3 48 20.5t29 51.5q1 10 11 10h41q5 0 6.5 -3.5t0.5 -9.5q-11 -56 -51.5 -87.5t-90.5 -34.5z" />
    <glyph glyph-name="dotbelowcomb" unicode="&#x323;" horiz-adv-x="0" 
d="M-115 -195q-23 0 -37.5 14.5t-14.5 37.5q0 30 19.5 50t47.5 20q24 0 38.5 -14t14.5 -37q0 -30 -20 -50.5t-48 -20.5z" />
    <glyph glyph-name="uni0326" unicode="&#x326;" horiz-adv-x="0" 
d="M-212 -185q-6 0 -8 3.5t2 8.5l70 108q4 7 13 7h65q5 0 6.5 -3.5t-2.5 -8.5l-82 -108q-7 -7 -13 -7h-51z" />
    <glyph glyph-name="uni0327" unicode="&#x327;" horiz-adv-x="0" 
d="M-179 -181q-8 3 -5 12l9 33q1 4 4.5 6.5t8.5 0.5q11 -3 20 -3q21 0 34.5 12t13.5 37q0 33 -40 71q-3 3 -3 6q0 6 8 6h40q8 0 12 -4q46 -43 46 -90q0 -17 -6 -33q-13 -33 -38.5 -47t-56.5 -14q-24 0 -47 7z" />
    <glyph glyph-name="uni0328" unicode="&#x328;" horiz-adv-x="0" 
d="M-42 -171q0 -7 -8 -10q-24 -7 -48 -7q-35 0 -58 17t-23 56q0 58 70 111q7 4 13 4h40q7 0 7 -4t-5 -8q-58 -44 -58 -84q0 -18 10.5 -27t27.5 -9q11 0 21 3l3 1q6 0 8 -8v-33v-2z" />
    <glyph glyph-name="uni0335" unicode="&#x335;" horiz-adv-x="0" 
d="M-264 618q1 4 4 7t7 3h301q9 0 9 -10l-5 -41q-1 -4 -4 -7t-7 -3h-301q-9 0 -9 10z" />
    <glyph glyph-name="uni0336" unicode="&#x336;" horiz-adv-x="0" 
d="M-533 513q-10 0 -8 10l6 48q0 4 3 7t8 3h566q9 0 9 -10l-6 -48q-2 -10 -11 -10h-567z" />
    <glyph glyph-name="uni0337" unicode="&#x337;" horiz-adv-x="0" 
d="M-404 12q-2 -2 -6 -2t-7 4l-29 42q-2 4 -2 6q0 6 5 8l487 359q2 2 6 2t7 -4l29 -42q2 -4 2 -6q0 -5 -5 -8z" />
    <glyph glyph-name="uni0338" unicode="&#x338;" horiz-adv-x="0" 
d="M-466 -43q-5 0 -6.5 3.5t1.5 8.5l466 772q3 7 12 7h53q5 0 6.5 -3.5t-1.5 -8.5l-467 -772q-4 -7 -13 -7h-51z" />
    <glyph glyph-name="uni0394" unicode="&#x394;" horiz-adv-x="627" 
d="M18 0q-4 0 -6.5 3t-1.5 7l8 67q2 9 4 12l319 603q4 8 12 8h54q9 0 10 -8l171 -604q1 -7 0 -12l-8 -66q0 -4 -3 -7t-8 -3h-551zM113 88q-2 -2 -1 -3.5t3 -1.5h378q4 0 4 5l-130 483q-1 2 -3 2t-3 -2z" />
    <glyph glyph-name="uni03A9" unicode="&#x3a9;" horiz-adv-x="620" 
d="M51 0q-4 0 -6.5 3t-1.5 7l8 63q0 4 3 7t8 3h68q2 0 3.5 1.5t-0.5 3.5q-54 48 -54 133q0 9 2 31l27 217q9 71 45.5 125t94.5 84t129 30q98 0 155.5 -55t57.5 -147q0 -24 -2 -37l-26 -217q-7 -52 -31 -94.5t-61 -69.5q-3 -2 -2.5 -3.5t3.5 -1.5h69q10 0 8 -10l-7 -63
q-1 -4 -4 -7t-7 -3h-194q-5 0 -7.5 3t-1.5 7l8 66q1 8 10 11q44 10 79.5 51t42.5 99l28 234q2 18 2 26q0 59 -35 93.5t-95 34.5q-66 0 -111.5 -42t-54.5 -112l-28 -234q-1 -8 -1 -24q0 -50 24 -84t60 -43q8 -3 7 -11l-8 -65q0 -4 -3 -7t-8 -3h-193z" />
    <glyph glyph-name="uni03BC" unicode="&#x3bc;" horiz-adv-x="531" 
d="M409 499q1 4 4 7t7 3h73q9 0 9 -10l-60 -489q-2 -10 -11 -10h-73q-9 0 -9 10l5 35q0 2 -1.5 2.5t-3.5 -1.5q-45 -53 -126 -53q-41 0 -76 15q-3 2 -5 -3l-24 -195q0 -4 -3 -7t-8 -3h-73q-5 0 -7.5 3t-1.5 7l85 689q2 10 11 10h73q5 0 7.5 -3t1.5 -7l-41 -330
q-1 -43 22 -68t67 -25q49 0 81.5 30.5t38.5 81.5z" />
    <glyph glyph-name="pi" unicode="&#x3c0;" horiz-adv-x="632" 
d="M632 437q-2 -10 -11 -10h-67q-4 0 -4 -4l-32 -255q-2 -24 -2 -31q0 -33 12.5 -43.5t39.5 -10.5q10 0 8 -10l-7 -62q-2 -10 -11 -10q-42 -1 -71 4t-49.5 26t-20.5 64q0 8 2 26l37 302q1 1 0 2.5t-3 1.5h-203q-4 0 -4 -4l-51 -413q-2 -10 -11 -10h-73q-5 0 -7.5 3t-1.5 7
l51 413q0 4 -4 4h-72q-5 0 -7.5 3t-1.5 7l8 62q2 10 11 10h544q10 0 8 -10z" />
    <glyph glyph-name="Wgrave" unicode="&#x1e80;" horiz-adv-x="878" 
d="M199 0q-8 0 -10 8l-99 681v2q0 4 3 6.5t7 2.5h79q8 0 10 -9l66 -498q0 -2 1.5 -2t2.5 2l182 498q3 9 12 9h76q8 0 10 -9l66 -499q0 -2 1 -2t2 2l190 499q1 4 4.5 6.5t7.5 2.5h73q11 0 8 -11l-259 -680q-4 -9 -12 -9h-75q-9 0 -9 9l-64 516q-1 3 -2 3t-2 -3l-187 -516
q-1 -9 -11 -9h-71zM550 776q1 -1 1 -4q0 -4 -3 -6t-8 -2h-52q-6 0 -11 7l-54 108q-1 2 -1 6q0 6 8 6h65q8 0 11 -7z" />
    <glyph glyph-name="wgrave" unicode="&#x1e81;" horiz-adv-x="721" 
d="M158 0q-7 0 -10 8l-79 490v2q0 9 10 9h76q4 0 6.5 -2.5t2.5 -6.5l48 -363q0 -2 2 -2t3 2l138 363q4 9 12 9h67q8 0 10 -9l51 -362q1 -2 2.5 -2t2.5 2l140 362q4 9 12 9l75 -1q12 0 7 -11l-200 -489q-5 -8 -12 -8h-76q-7 0 -9 8l-54 338q-1 2 -2.5 2t-2.5 -2l-131 -337
q-4 -9 -12 -9h-77zM445 585q1 -1 1 -4q0 -4 -3 -6t-8 -2h-52q-6 0 -11 7l-54 108q-1 2 -1 6q0 6 8 6h65q8 0 11 -7z" />
    <glyph glyph-name="Wacute" unicode="&#x1e82;" horiz-adv-x="878" 
d="M199 0q-8 0 -10 8l-99 681v2q0 4 3 6.5t7 2.5h79q8 0 10 -9l66 -498q0 -2 1.5 -2t2.5 2l182 498q3 9 12 9h76q8 0 10 -9l66 -499q0 -2 1 -2t2 2l190 499q1 4 4.5 6.5t7.5 2.5h73q11 0 8 -11l-259 -680q-4 -9 -12 -9h-75q-9 0 -9 9l-64 516q-1 3 -2 3t-2 -3l-187 -516
q-1 -9 -11 -9h-71zM473 764q-6 0 -8 3.5t2 8.5l70 108q4 7 13 7h65q5 0 6.5 -3.5t-2.5 -8.5l-82 -108q-7 -7 -13 -7h-51z" />
    <glyph glyph-name="wacute" unicode="&#x1e83;" horiz-adv-x="721" 
d="M158 0q-7 0 -10 8l-79 490v2q0 9 10 9h76q4 0 6.5 -2.5t2.5 -6.5l48 -363q0 -2 2 -2t3 2l138 363q4 9 12 9h67q8 0 10 -9l51 -362q1 -2 2.5 -2t2.5 2l140 362q4 9 12 9l75 -1q12 0 7 -11l-200 -489q-5 -8 -12 -8h-76q-7 0 -9 8l-54 338q-1 2 -2.5 2t-2.5 -2l-131 -337
q-4 -9 -12 -9h-77zM368 573q-6 0 -8 3.5t2 8.5l70 108q4 7 13 7h65q5 0 6.5 -3.5t-2.5 -8.5l-82 -108q-7 -7 -13 -7h-51z" />
    <glyph glyph-name="Wdieresis" unicode="&#x1e84;" horiz-adv-x="878" 
d="M199 0q-8 0 -10 8l-99 681v2q0 4 3 6.5t7 2.5h79q8 0 10 -9l66 -498q0 -2 1.5 -2t2.5 2l182 498q3 9 12 9h76q8 0 10 -9l66 -499q0 -2 1 -2t2 2l190 499q1 4 4.5 6.5t7.5 2.5h73q11 0 8 -11l-259 -680q-4 -9 -12 -9h-75q-9 0 -9 9l-64 516q-1 3 -2 3t-2 -3l-187 -516
q-1 -9 -11 -9h-71zM604 784q-25 0 -40 15t-15 39q0 32 20.5 53t50.5 21q24 0 39 -15.5t15 -40.5q0 -31 -20.5 -51.5t-49.5 -20.5zM428 784q-25 0 -40 15t-15 39q0 32 20.5 53t50.5 21q24 0 39 -15.5t15 -40.5q0 -31 -20.5 -51.5t-49.5 -20.5z" />
    <glyph glyph-name="wdieresis" unicode="&#x1e85;" horiz-adv-x="721" 
d="M158 0q-7 0 -10 8l-79 490v2q0 9 10 9h76q4 0 6.5 -2.5t2.5 -6.5l48 -363q0 -2 2 -2t3 2l138 363q4 9 12 9h67q8 0 10 -9l51 -362q1 -2 2.5 -2t2.5 2l140 362q4 9 12 9l75 -1q12 0 7 -11l-200 -489q-5 -8 -12 -8h-76q-7 0 -9 8l-54 338q-1 2 -2.5 2t-2.5 -2l-131 -337
q-4 -9 -12 -9h-77zM499 593q-25 0 -40 15t-15 39q0 32 20.5 53t50.5 21q24 0 39 -15.5t15 -40.5q0 -31 -20.5 -51.5t-49.5 -20.5zM323 593q-25 0 -40 15t-15 39q0 32 20.5 53t50.5 21q24 0 39 -15.5t15 -40.5q0 -31 -20.5 -51.5t-49.5 -20.5z" />
    <glyph glyph-name="uni1EA0" unicode="&#x1ea0;" horiz-adv-x="611" 
d="M472 0q-3 0 -6 2t-4 6l-21 117q0 3 -3 3h-273q-3 0 -4 -3l-49 -117q-5 -8 -13 -8h-79q-5 0 -6.5 3t0.5 8l296 681q5 8 13 8h97q3 0 6 -2t4 -6l131 -681v-2q0 -9 -9 -9h-80zM195 209q-1 -2 0.5 -3.5t3.5 -1.5h223q2 0 3.5 1.5t0.5 3.5l-67 371q0 2 -2 2t-4 -2zM261 -195
q-23 0 -37.5 14.5t-14.5 37.5q0 30 19.5 50t47.5 20q24 0 38.5 -14t14.5 -37q0 -30 -20 -50.5t-48 -20.5z" />
    <glyph glyph-name="uni1EA1" unicode="&#x1ea1;" horiz-adv-x="501" 
d="M416 499q2 10 11 10h74q10 0 8 -10l-60 -489q0 -4 -3 -7t-8 -3h-73q-9 0 -9 10l7 56q1 3 -1 3.5t-3 -2.5q-52 -75 -140 -75q-64 0 -107 39t-52 104q-2 22 -2 33q0 28 7 86q5 43 11.5 73t17.5 56q23 59 75 96.5t119 37.5q88 0 117 -71q1 -3 2.5 -2.5t2.5 3.5zM366 158
q7 16 11 34.5t9 60.5q6 42 6 71q0 10 -2 28q-5 36 -28.5 59t-62.5 23q-41 0 -72.5 -23t-43.5 -60q-7 -15 -11 -33t-10 -63q-6 -52 -6 -69q0 -14 3 -28q3 -37 29 -60t67 -23q40 0 68.5 23.5t42.5 59.5zM207 -195q-23 0 -37.5 14.5t-14.5 37.5q0 30 19.5 50t47.5 20
q24 0 38.5 -14t14.5 -37q0 -30 -20 -50.5t-48 -20.5z" />
    <glyph glyph-name="uni1EA2" unicode="&#x1ea2;" horiz-adv-x="611" 
d="M472 0q-3 0 -6 2t-4 6l-21 117q0 3 -3 3h-273q-3 0 -4 -3l-49 -117q-5 -8 -13 -8h-79q-5 0 -6.5 3t0.5 8l296 681q5 8 13 8h97q3 0 6 -2t4 -6l131 -681v-2q0 -9 -9 -9h-80zM195 209q-1 -2 0.5 -3.5t3.5 -1.5h223q2 0 3.5 1.5t0.5 3.5l-67 371q0 2 -2 2t-4 -2zM366 748
q-10 3 -4 12q13 26 38 49q13 12 19.5 21.5t8.5 23.5q2 13 -7.5 22t-24.5 9q-16 0 -26.5 -7t-27.5 -27q-8 -8 -14 -2l-21 16q-7 6 -1 14q23 30 44 43t54 13q36 0 57 -18.5t21 -50.5q0 -27 -11.5 -45t-34.5 -39q-21 -17 -31 -34q-6 -7 -14 -6z" />
    <glyph glyph-name="uni1EA3" unicode="&#x1ea3;" horiz-adv-x="501" 
d="M416 499q2 10 11 10h74q10 0 8 -10l-60 -489q0 -4 -3 -7t-8 -3h-73q-9 0 -9 10l7 56q1 3 -1 3.5t-3 -2.5q-52 -75 -140 -75q-64 0 -107 39t-52 104q-2 22 -2 33q0 28 7 86q5 43 11.5 73t17.5 56q23 59 75 96.5t119 37.5q88 0 117 -71q1 -3 2.5 -2.5t2.5 3.5zM366 158
q7 16 11 34.5t9 60.5q6 42 6 71q0 10 -2 28q-5 36 -28.5 59t-62.5 23q-41 0 -72.5 -23t-43.5 -60q-7 -15 -11 -33t-10 -63q-6 -52 -6 -69q0 -14 3 -28q3 -37 29 -60t67 -23q40 0 68.5 23.5t42.5 59.5zM289 557q-10 3 -4 12q13 26 38 49q13 12 19.5 21.5t8.5 23.5
q2 13 -7.5 22t-24.5 9q-16 0 -26.5 -7t-27.5 -27q-8 -8 -14 -2l-21 16q-7 6 -1 14q23 30 44 43t54 13q36 0 57 -18.5t21 -50.5q0 -27 -11.5 -45t-34.5 -39q-21 -17 -31 -34q-6 -7 -14 -6z" />
    <glyph glyph-name="uni1EA4" unicode="&#x1ea4;" horiz-adv-x="611" 
d="M472 0q-3 0 -6 2t-4 6l-21 117q0 3 -3 3h-273q-3 0 -4 -3l-49 -117q-5 -8 -13 -8h-79q-5 0 -6.5 3t0.5 8l296 681q5 8 13 8h97q3 0 6 -2t4 -6l131 -681v-2q0 -9 -9 -9h-80zM195 209q-1 -2 0.5 -3.5t3.5 -1.5h223q2 0 3.5 1.5t0.5 3.5l-67 371q0 2 -2 2t-4 -2zM253 764
q-6 0 -7.5 3.5t2.5 8.5l90 109q5 6 14 6h82q10 0 12 -6l63 -109l2 -5q0 -7 -9 -7h-57q-9 0 -11 6l-42 76q-1 2 -3 2t-3 -2l-63 -76q-4 -6 -12 -6h-58zM525 840q-6 0 -8 3.5t2 8.5l70 108q4 7 13 7h65q5 0 6.5 -3.5t-2.5 -8.5l-82 -108q-7 -7 -13 -7h-51z" />
    <glyph glyph-name="uni1EA5" unicode="&#x1ea5;" horiz-adv-x="501" 
d="M416 499q2 10 11 10h74q10 0 8 -10l-60 -489q0 -4 -3 -7t-8 -3h-73q-9 0 -9 10l7 56q1 3 -1 3.5t-3 -2.5q-52 -75 -140 -75q-64 0 -107 39t-52 104q-2 22 -2 33q0 28 7 86q5 43 11.5 73t17.5 56q23 59 75 96.5t119 37.5q88 0 117 -71q1 -3 2.5 -2.5t2.5 3.5zM366 158
q7 16 11 34.5t9 60.5q6 42 6 71q0 10 -2 28q-5 36 -28.5 59t-62.5 23q-41 0 -72.5 -23t-43.5 -60q-7 -15 -11 -33t-10 -63q-6 -52 -6 -69q0 -14 3 -28q3 -37 29 -60t67 -23q40 0 68.5 23.5t42.5 59.5zM177 573q-6 0 -7.5 3.5t2.5 8.5l90 109q5 6 14 6h82q10 0 12 -6l63 -109
l2 -5q0 -7 -9 -7h-57q-9 0 -11 6l-42 76q-1 2 -3 2t-3 -2l-63 -76q-4 -6 -12 -6h-58zM449 649q-6 0 -8 3.5t2 8.5l70 108q4 7 13 7h65q5 0 6.5 -3.5t-2.5 -8.5l-82 -108q-7 -7 -13 -7h-51z" />
    <glyph glyph-name="uni1EA6" unicode="&#x1ea6;" horiz-adv-x="611" 
d="M472 0q-3 0 -6 2t-4 6l-21 117q0 3 -3 3h-273q-3 0 -4 -3l-49 -117q-5 -8 -13 -8h-79q-5 0 -6.5 3t0.5 8l296 681q5 8 13 8h97q3 0 6 -2t4 -6l131 -681v-2q0 -9 -9 -9h-80zM195 209q-1 -2 0.5 -3.5t3.5 -1.5h223q2 0 3.5 1.5t0.5 3.5l-67 371q0 2 -2 2t-4 -2zM253 764
q-6 0 -7.5 3.5t2.5 8.5l90 109q5 6 14 6h82q10 0 12 -6l63 -109l2 -5q0 -7 -9 -7h-57q-9 0 -11 6l-42 76q-1 2 -3 2t-3 -2l-63 -76q-4 -6 -12 -6h-58zM580 893q1 -1 1 -4q0 -4 -3 -6t-8 -2h-52q-6 0 -11 7l-54 108q-1 2 -1 6q0 6 8 6h65q8 0 11 -7z" />
    <glyph glyph-name="uni1EA7" unicode="&#x1ea7;" horiz-adv-x="501" 
d="M416 499q2 10 11 10h74q10 0 8 -10l-60 -489q0 -4 -3 -7t-8 -3h-73q-9 0 -9 10l7 56q1 3 -1 3.5t-3 -2.5q-52 -75 -140 -75q-64 0 -107 39t-52 104q-2 22 -2 33q0 28 7 86q5 43 11.5 73t17.5 56q23 59 75 96.5t119 37.5q88 0 117 -71q1 -3 2.5 -2.5t2.5 3.5zM366 158
q7 16 11 34.5t9 60.5q6 42 6 71q0 10 -2 28q-5 36 -28.5 59t-62.5 23q-41 0 -72.5 -23t-43.5 -60q-7 -15 -11 -33t-10 -63q-6 -52 -6 -69q0 -14 3 -28q3 -37 29 -60t67 -23q40 0 68.5 23.5t42.5 59.5zM177 573q-6 0 -7.5 3.5t2.5 8.5l90 109q5 6 14 6h82q10 0 12 -6l63 -109
l2 -5q0 -7 -9 -7h-57q-9 0 -11 6l-42 76q-1 2 -3 2t-3 -2l-63 -76q-4 -6 -12 -6h-58zM504 702q1 -1 1 -4q0 -4 -3 -6t-8 -2h-52q-6 0 -11 7l-54 108q-1 2 -1 6q0 6 8 6h65q8 0 11 -7z" />
    <glyph glyph-name="uni1EA8" unicode="&#x1ea8;" horiz-adv-x="611" 
d="M472 0q-3 0 -6 2t-4 6l-21 117q0 3 -3 3h-273q-3 0 -4 -3l-49 -117q-5 -8 -13 -8h-79q-5 0 -6.5 3t0.5 8l296 681q5 8 13 8h97q3 0 6 -2t4 -6l131 -681v-2q0 -9 -9 -9h-80zM195 209q-1 -2 0.5 -3.5t3.5 -1.5h223q2 0 3.5 1.5t0.5 3.5l-67 371q0 2 -2 2t-4 -2zM253 764
q-6 0 -7.5 3.5t2.5 8.5l90 109q5 6 14 6h82q10 0 12 -6l63 -109l2 -5q0 -7 -9 -7h-57q-9 0 -11 6l-42 76q-1 2 -3 2t-3 -2l-63 -76q-4 -6 -12 -6h-58zM506 868q-10 3 -4 12q13 26 38 49q13 12 19.5 21.5t8.5 23.5q2 13 -7.5 22t-24.5 9q-16 0 -26.5 -7t-27.5 -27
q-8 -8 -14 -2l-21 16q-7 6 -1 14q23 30 44 43t54 13q36 0 57 -18.5t21 -50.5q0 -27 -11.5 -45t-34.5 -39q-21 -17 -31 -34q-6 -7 -14 -6z" />
    <glyph glyph-name="uni1EA9" unicode="&#x1ea9;" horiz-adv-x="501" 
d="M416 499q2 10 11 10h74q10 0 8 -10l-60 -489q0 -4 -3 -7t-8 -3h-73q-9 0 -9 10l7 56q1 3 -1 3.5t-3 -2.5q-52 -75 -140 -75q-64 0 -107 39t-52 104q-2 22 -2 33q0 28 7 86q5 43 11.5 73t17.5 56q23 59 75 96.5t119 37.5q88 0 117 -71q1 -3 2.5 -2.5t2.5 3.5zM366 158
q7 16 11 34.5t9 60.5q6 42 6 71q0 10 -2 28q-5 36 -28.5 59t-62.5 23q-41 0 -72.5 -23t-43.5 -60q-7 -15 -11 -33t-10 -63q-6 -52 -6 -69q0 -14 3 -28q3 -37 29 -60t67 -23q40 0 68.5 23.5t42.5 59.5zM177 573q-6 0 -7.5 3.5t2.5 8.5l90 109q5 6 14 6h82q10 0 12 -6l63 -109
l2 -5q0 -7 -9 -7h-57q-9 0 -11 6l-42 76q-1 2 -3 2t-3 -2l-63 -76q-4 -6 -12 -6h-58zM430 677q-10 3 -4 12q13 26 38 49q13 12 19.5 21.5t8.5 23.5q2 13 -7.5 22t-24.5 9q-16 0 -26.5 -7t-27.5 -27q-8 -8 -14 -2l-21 16q-7 6 -1 14q23 30 44 43t54 13q36 0 57 -18.5
t21 -50.5q0 -27 -11.5 -45t-34.5 -39q-21 -17 -31 -34q-6 -7 -14 -6z" />
    <glyph glyph-name="uni1EAA" unicode="&#x1eaa;" horiz-adv-x="611" 
d="M472 0q-3 0 -6 2t-4 6l-21 117q0 3 -3 3h-273q-3 0 -4 -3l-49 -117q-5 -8 -13 -8h-79q-5 0 -6.5 3t0.5 8l296 681q5 8 13 8h97q3 0 6 -2t4 -6l131 -681v-2q0 -9 -9 -9h-80zM195 209q-1 -2 0.5 -3.5t3.5 -1.5h223q2 0 3.5 1.5t0.5 3.5l-67 371q0 2 -2 2t-4 -2zM253 764
q-6 0 -7.5 3.5t2.5 8.5l90 109q5 6 14 6h82q10 0 12 -6l63 -109l2 -5q0 -7 -9 -7h-57q-9 0 -11 6l-42 76q-1 2 -3 2t-3 -2l-63 -76q-4 -6 -12 -6h-58zM459 923q-19 0 -32.5 5t-27.5 15q-17 10 -25.5 14t-19.5 4q-32 0 -54 -22l-4 -4q-6 -6 -12 0l-24 28q-5 7 0 14
q19 26 44 40t54 14q16 0 28 -4.5t21.5 -10.5t13.5 -8t13.5 -8t17 -8.5t15.5 -2.5q31 0 54 27q6 10 14 2l20 -28q3 -4 3 -6.5t-2 -7.5q-15 -25 -41.5 -39t-55.5 -14z" />
    <glyph glyph-name="uni1EAB" unicode="&#x1eab;" horiz-adv-x="501" 
d="M416 499q2 10 11 10h74q10 0 8 -10l-60 -489q0 -4 -3 -7t-8 -3h-73q-9 0 -9 10l7 56q1 3 -1 3.5t-3 -2.5q-52 -75 -140 -75q-64 0 -107 39t-52 104q-2 22 -2 33q0 28 7 86q5 43 11.5 73t17.5 56q23 59 75 96.5t119 37.5q88 0 117 -71q1 -3 2.5 -2.5t2.5 3.5zM366 158
q7 16 11 34.5t9 60.5q6 42 6 71q0 10 -2 28q-5 36 -28.5 59t-62.5 23q-41 0 -72.5 -23t-43.5 -60q-7 -15 -11 -33t-10 -63q-6 -52 -6 -69q0 -14 3 -28q3 -37 29 -60t67 -23q40 0 68.5 23.5t42.5 59.5zM177 573q-6 0 -7.5 3.5t2.5 8.5l90 109q5 6 14 6h82q10 0 12 -6l63 -109
l2 -5q0 -7 -9 -7h-57q-9 0 -11 6l-42 76q-1 2 -3 2t-3 -2l-63 -76q-4 -6 -12 -6h-58zM383 732q-19 0 -32.5 5t-27.5 15q-17 10 -25.5 14t-19.5 4q-32 0 -54 -22l-4 -4q-6 -6 -12 0l-24 28q-5 7 0 14q19 26 44 40t54 14q16 0 28 -4.5t21.5 -10.5t13.5 -8t13.5 -8t17 -8.5
t15.5 -2.5q31 0 54 27q6 10 14 2l20 -28q3 -4 3 -6.5t-2 -7.5q-15 -25 -41.5 -39t-55.5 -14z" />
    <glyph glyph-name="uni1EAC" unicode="&#x1eac;" horiz-adv-x="611" 
d="M472 0q-3 0 -6 2t-4 6l-21 117q0 3 -3 3h-273q-3 0 -4 -3l-49 -117q-5 -8 -13 -8h-79q-5 0 -6.5 3t0.5 8l296 681q5 8 13 8h97q3 0 6 -2t4 -6l131 -681v-2q0 -9 -9 -9h-80zM195 209q-1 -2 0.5 -3.5t3.5 -1.5h223q2 0 3.5 1.5t0.5 3.5l-67 371q0 2 -2 2t-4 -2zM261 -195
q-23 0 -37.5 14.5t-14.5 37.5q0 30 19.5 50t47.5 20q24 0 38.5 -14t14.5 -37q0 -30 -20 -50.5t-48 -20.5zM253 764q-6 0 -7.5 3.5t2.5 8.5l90 109q5 6 14 6h82q10 0 12 -6l63 -109l2 -5q0 -7 -9 -7h-57q-9 0 -11 6l-42 76q-1 2 -3 2t-3 -2l-63 -76q-4 -6 -12 -6h-58z" />
    <glyph glyph-name="uni1EAD" unicode="&#x1ead;" horiz-adv-x="501" 
d="M416 499q2 10 11 10h74q10 0 8 -10l-60 -489q0 -4 -3 -7t-8 -3h-73q-9 0 -9 10l7 56q1 3 -1 3.5t-3 -2.5q-52 -75 -140 -75q-64 0 -107 39t-52 104q-2 22 -2 33q0 28 7 86q5 43 11.5 73t17.5 56q23 59 75 96.5t119 37.5q88 0 117 -71q1 -3 2.5 -2.5t2.5 3.5zM366 158
q7 16 11 34.5t9 60.5q6 42 6 71q0 10 -2 28q-5 36 -28.5 59t-62.5 23q-41 0 -72.5 -23t-43.5 -60q-7 -15 -11 -33t-10 -63q-6 -52 -6 -69q0 -14 3 -28q3 -37 29 -60t67 -23q40 0 68.5 23.5t42.5 59.5zM207 -195q-23 0 -37.5 14.5t-14.5 37.5q0 30 19.5 50t47.5 20
q24 0 38.5 -14t14.5 -37q0 -30 -20 -50.5t-48 -20.5zM177 573q-6 0 -7.5 3.5t2.5 8.5l90 109q5 6 14 6h82q10 0 12 -6l63 -109l2 -5q0 -7 -9 -7h-57q-9 0 -11 6l-42 76q-1 2 -3 2t-3 -2l-63 -76q-4 -6 -12 -6h-58z" />
    <glyph glyph-name="uni1EAE" unicode="&#x1eae;" horiz-adv-x="611" 
d="M472 0q-3 0 -6 2t-4 6l-21 117q0 3 -3 3h-273q-3 0 -4 -3l-49 -117q-5 -8 -13 -8h-79q-5 0 -6.5 3t0.5 8l296 681q5 8 13 8h97q3 0 6 -2t4 -6l131 -681v-2q0 -9 -9 -9h-80zM195 209q-1 -2 0.5 -3.5t3.5 -1.5h223q2 0 3.5 1.5t0.5 3.5l-67 371q0 2 -2 2t-4 -2zM378 767
q-52 0 -86 30t-32 75q0 10 10 10l39 -1q9 0 9 -9q1 -25 19.5 -40.5t46.5 -15.5q29 0 51.5 15.5t29.5 40.5q3 10 12 10h38q10 0 8 -9q-9 -45 -50 -75.5t-95 -30.5zM366 913q-6 0 -8 3.5t2 8.5l70 108q4 7 13 7h65q5 0 6.5 -3.5t-2.5 -8.5l-82 -108q-7 -7 -13 -7h-51z" />
    <glyph glyph-name="uni1EAF" unicode="&#x1eaf;" horiz-adv-x="501" 
d="M416 499q2 10 11 10h74q10 0 8 -10l-60 -489q0 -4 -3 -7t-8 -3h-73q-9 0 -9 10l7 56q1 3 -1 3.5t-3 -2.5q-52 -75 -140 -75q-64 0 -107 39t-52 104q-2 22 -2 33q0 28 7 86q5 43 11.5 73t17.5 56q23 59 75 96.5t119 37.5q88 0 117 -71q1 -3 2.5 -2.5t2.5 3.5zM366 158
q7 16 11 34.5t9 60.5q6 42 6 71q0 10 -2 28q-5 36 -28.5 59t-62.5 23q-41 0 -72.5 -23t-43.5 -60q-7 -15 -11 -33t-10 -63q-6 -52 -6 -69q0 -14 3 -28q3 -37 29 -60t67 -23q40 0 68.5 23.5t42.5 59.5zM301 576q-52 0 -86 30t-32 75q0 10 10 10l39 -1q9 0 9 -9
q1 -25 19.5 -40.5t46.5 -15.5q29 0 51.5 15.5t29.5 40.5q3 10 12 10h38q10 0 8 -9q-9 -45 -50 -75.5t-95 -30.5zM289 722q-6 0 -8 3.5t2 8.5l70 108q4 7 13 7h65q5 0 6.5 -3.5t-2.5 -8.5l-82 -108q-7 -7 -13 -7h-51z" />
    <glyph glyph-name="uni1EB0" unicode="&#x1eb0;" horiz-adv-x="611" 
d="M472 0q-3 0 -6 2t-4 6l-21 117q0 3 -3 3h-273q-3 0 -4 -3l-49 -117q-5 -8 -13 -8h-79q-5 0 -6.5 3t0.5 8l296 681q5 8 13 8h97q3 0 6 -2t4 -6l131 -681v-2q0 -9 -9 -9h-80zM195 209q-1 -2 0.5 -3.5t3.5 -1.5h223q2 0 3.5 1.5t0.5 3.5l-67 371q0 2 -2 2t-4 -2zM378 767
q-52 0 -86 30t-32 75q0 10 10 10l39 -1q9 0 9 -9q1 -25 19.5 -40.5t46.5 -15.5q29 0 51.5 15.5t29.5 40.5q3 10 12 10h38q10 0 8 -9q-9 -45 -50 -75.5t-95 -30.5zM434 925q1 -1 1 -4q0 -4 -3 -6t-8 -2h-52q-6 0 -11 7l-54 108q-1 2 -1 6q0 6 8 6h65q8 0 11 -7z" />
    <glyph glyph-name="uni1EB1" unicode="&#x1eb1;" horiz-adv-x="501" 
d="M416 499q2 10 11 10h74q10 0 8 -10l-60 -489q0 -4 -3 -7t-8 -3h-73q-9 0 -9 10l7 56q1 3 -1 3.5t-3 -2.5q-52 -75 -140 -75q-64 0 -107 39t-52 104q-2 22 -2 33q0 28 7 86q5 43 11.5 73t17.5 56q23 59 75 96.5t119 37.5q88 0 117 -71q1 -3 2.5 -2.5t2.5 3.5zM366 158
q7 16 11 34.5t9 60.5q6 42 6 71q0 10 -2 28q-5 36 -28.5 59t-62.5 23q-41 0 -72.5 -23t-43.5 -60q-7 -15 -11 -33t-10 -63q-6 -52 -6 -69q0 -14 3 -28q3 -37 29 -60t67 -23q40 0 68.5 23.5t42.5 59.5zM301 576q-52 0 -86 30t-32 75q0 10 10 10l39 -1q9 0 9 -9
q1 -25 19.5 -40.5t46.5 -15.5q29 0 51.5 15.5t29.5 40.5q3 10 12 10h38q10 0 8 -9q-9 -45 -50 -75.5t-95 -30.5zM357 734q1 -1 1 -4q0 -4 -3 -6t-8 -2h-52q-6 0 -11 7l-54 108q-1 2 -1 6q0 6 8 6h65q8 0 11 -7z" />
    <glyph glyph-name="uni1EB2" unicode="&#x1eb2;" horiz-adv-x="611" 
d="M472 0q-3 0 -6 2t-4 6l-21 117q0 3 -3 3h-273q-3 0 -4 -3l-49 -117q-5 -8 -13 -8h-79q-5 0 -6.5 3t0.5 8l296 681q5 8 13 8h97q3 0 6 -2t4 -6l131 -681v-2q0 -9 -9 -9h-80zM195 209q-1 -2 0.5 -3.5t3.5 -1.5h223q2 0 3.5 1.5t0.5 3.5l-67 371q0 2 -2 2t-4 -2zM378 767
q-52 0 -86 30t-32 75q0 10 10 10l39 -1q9 0 9 -9q1 -25 19.5 -40.5t46.5 -15.5q29 0 51.5 15.5t29.5 40.5q3 10 12 10h38q10 0 8 -9q-9 -45 -50 -75.5t-95 -30.5zM384 902q-10 3 -4 12q13 26 38 49q13 12 19.5 21.5t8.5 23.5q2 13 -7.5 22t-24.5 9q-16 0 -26.5 -7t-27.5 -27
q-8 -8 -14 -2l-21 16q-7 6 -1 14q23 30 44 43t54 13q36 0 57 -18.5t21 -50.5q0 -27 -11.5 -45t-34.5 -39q-21 -17 -31 -34q-6 -7 -14 -6z" />
    <glyph glyph-name="uni1EB3" unicode="&#x1eb3;" horiz-adv-x="501" 
d="M416 499q2 10 11 10h74q10 0 8 -10l-60 -489q0 -4 -3 -7t-8 -3h-73q-9 0 -9 10l7 56q1 3 -1 3.5t-3 -2.5q-52 -75 -140 -75q-64 0 -107 39t-52 104q-2 22 -2 33q0 28 7 86q5 43 11.5 73t17.5 56q23 59 75 96.5t119 37.5q88 0 117 -71q1 -3 2.5 -2.5t2.5 3.5zM366 158
q7 16 11 34.5t9 60.5q6 42 6 71q0 10 -2 28q-5 36 -28.5 59t-62.5 23q-41 0 -72.5 -23t-43.5 -60q-7 -15 -11 -33t-10 -63q-6 -52 -6 -69q0 -14 3 -28q3 -37 29 -60t67 -23q40 0 68.5 23.5t42.5 59.5zM301 576q-52 0 -86 30t-32 75q0 10 10 10l39 -1q9 0 9 -9
q1 -25 19.5 -40.5t46.5 -15.5q29 0 51.5 15.5t29.5 40.5q3 10 12 10h38q10 0 8 -9q-9 -45 -50 -75.5t-95 -30.5zM307 711q-10 3 -4 12q13 26 38 49q13 12 19.5 21.5t8.5 23.5q2 13 -7.5 22t-24.5 9q-16 0 -26.5 -7t-27.5 -27q-8 -8 -14 -2l-21 16q-7 6 -1 14q23 30 44 43
t54 13q36 0 57 -18.5t21 -50.5q0 -27 -11.5 -45t-34.5 -39q-21 -17 -31 -34q-6 -7 -14 -6z" />
    <glyph glyph-name="uni1EB4" unicode="&#x1eb4;" horiz-adv-x="611" 
d="M472 0q-3 0 -6 2t-4 6l-21 117q0 3 -3 3h-273q-3 0 -4 -3l-49 -117q-5 -8 -13 -8h-79q-5 0 -6.5 3t0.5 8l296 681q5 8 13 8h97q3 0 6 -2t4 -6l131 -681v-2q0 -9 -9 -9h-80zM195 209q-1 -2 0.5 -3.5t3.5 -1.5h223q2 0 3.5 1.5t0.5 3.5l-67 371q0 2 -2 2t-4 -2zM456 913
q-17 0 -29 4.5t-26 13.5q-15 9 -23.5 13t-18.5 4q-16 0 -27.5 -5t-22.5 -17q-9 -7 -15 -1l-21 25q-3 3 -3 7q0 3 3 7q36 49 89 49q15 0 26 -4t20 -9.5t13 -7.5q5 -3 13.5 -8t15.5 -7.5t14 -2.5q27 0 48 25q9 10 14 2l19 -25q4 -6 0 -14q-15 -23 -39 -36t-50 -13zM378 767
q-52 0 -86 30t-32 75q0 10 10 10l39 -1q9 0 9 -9q1 -25 19.5 -40.5t46.5 -15.5q29 0 51.5 15.5t29.5 40.5q3 10 12 10h38q9 0 8 -9q-9 -45 -50 -75.5t-95 -30.5z" />
    <glyph glyph-name="uni1EB5" unicode="&#x1eb5;" horiz-adv-x="501" 
d="M416 499q2 10 11 10h74q10 0 8 -10l-60 -489q0 -4 -3 -7t-8 -3h-73q-9 0 -9 10l7 56q1 3 -1 3.5t-3 -2.5q-52 -75 -140 -75q-64 0 -107 39t-52 104q-2 22 -2 33q0 28 7 86q5 43 11.5 73t17.5 56q23 59 75 96.5t119 37.5q88 0 117 -71q1 -3 2.5 -2.5t2.5 3.5zM366 158
q7 16 11 34.5t9 60.5q6 42 6 71q0 10 -2 28q-5 36 -28.5 59t-62.5 23q-41 0 -72.5 -23t-43.5 -60q-7 -15 -11 -33t-10 -63q-6 -52 -6 -69q0 -14 3 -28q3 -37 29 -60t67 -23q40 0 68.5 23.5t42.5 59.5zM379 722q-17 0 -29 4.5t-26 13.5q-15 9 -23.5 13t-18.5 4
q-16 0 -27.5 -5t-22.5 -17q-9 -7 -15 -1l-21 25q-3 3 -3 7q0 3 3 7q36 49 89 49q15 0 26 -4t20 -9.5t13 -7.5q5 -3 13.5 -8t15.5 -7.5t14 -2.5q27 0 48 25q9 10 14 2l19 -25q4 -6 0 -14q-15 -23 -39 -36t-50 -13zM301 576q-52 0 -86 30t-32 75q0 10 10 10l39 -1q9 0 9 -9
q1 -25 19.5 -40.5t46.5 -15.5q29 0 51.5 15.5t29.5 40.5q3 10 12 10h38q9 0 8 -9q-9 -45 -50 -75.5t-95 -30.5z" />
    <glyph glyph-name="uni1EB6" unicode="&#x1eb6;" horiz-adv-x="611" 
d="M472 0q-3 0 -6 2t-4 6l-21 117q0 3 -3 3h-273q-3 0 -4 -3l-49 -117q-5 -8 -13 -8h-79q-5 0 -6.5 3t0.5 8l296 681q5 8 13 8h97q3 0 6 -2t4 -6l131 -681v-2q0 -9 -9 -9h-80zM195 209q-1 -2 0.5 -3.5t3.5 -1.5h223q2 0 3.5 1.5t0.5 3.5l-67 371q0 2 -2 2t-4 -2zM261 -195
q-23 0 -37.5 14.5t-14.5 37.5q0 30 19.5 50t47.5 20q24 0 38.5 -14t14.5 -37q0 -30 -20 -50.5t-48 -20.5zM378 767q-52 0 -86 30t-32 75q0 10 10 10l39 -1q9 0 9 -9q1 -25 19.5 -40.5t46.5 -15.5q29 0 51.5 15.5t29.5 40.5q3 10 12 10h38q10 0 8 -9q-9 -45 -50 -75.5
t-95 -30.5z" />
    <glyph glyph-name="uni1EB7" unicode="&#x1eb7;" horiz-adv-x="501" 
d="M416 499q2 10 11 10h74q10 0 8 -10l-60 -489q0 -4 -3 -7t-8 -3h-73q-9 0 -9 10l7 56q1 3 -1 3.5t-3 -2.5q-52 -75 -140 -75q-64 0 -107 39t-52 104q-2 22 -2 33q0 28 7 86q5 43 11.5 73t17.5 56q23 59 75 96.5t119 37.5q88 0 117 -71q1 -3 2.5 -2.5t2.5 3.5zM366 158
q7 16 11 34.5t9 60.5q6 42 6 71q0 10 -2 28q-5 36 -28.5 59t-62.5 23q-41 0 -72.5 -23t-43.5 -60q-7 -15 -11 -33t-10 -63q-6 -52 -6 -69q0 -14 3 -28q3 -37 29 -60t67 -23q40 0 68.5 23.5t42.5 59.5zM207 -195q-23 0 -37.5 14.5t-14.5 37.5q0 30 19.5 50t47.5 20
q24 0 38.5 -14t14.5 -37q0 -30 -20 -50.5t-48 -20.5zM301 576q-52 0 -86 30t-32 75q0 10 10 10l39 -1q9 0 9 -9q1 -25 19.5 -40.5t46.5 -15.5q29 0 51.5 15.5t29.5 40.5q3 10 12 10h38q10 0 8 -9q-9 -45 -50 -75.5t-95 -30.5z" />
    <glyph glyph-name="uni1EB8" unicode="&#x1eb8;" horiz-adv-x="580" 
d="M588 627q-2 -10 -11 -10h-344q-4 0 -4 -4l-27 -215q0 -4 4 -4h236q9 0 9 -10l-8 -63q-2 -10 -11 -10h-237q-4 0 -4 -4l-27 -220q0 -4 3 -4h345q10 0 8 -10l-8 -63q0 -4 -3 -7t-8 -3h-431q-9 0 -9 10l84 680q2 10 11 10h431q5 0 7.5 -3t1.5 -7zM263 -195q-23 0 -37.5 14.5
t-14.5 37.5q0 30 19.5 50t47.5 20q24 0 38.5 -14t14.5 -37q0 -30 -20 -50.5t-48 -20.5z" />
    <glyph glyph-name="uni1EB9" unicode="&#x1eb9;" horiz-adv-x="521" 
d="M487 325q0 -35 -8 -99q-1 -10 -11 -10h-310q-4 0 -4 -4q-2 -24 -2 -32q0 -10 2 -20q5 -40 34.5 -62.5t79.5 -22.5q71 0 118 61q6 10 13 3l51 -38q6 -6 1 -13q-33 -46 -86 -71.5t-116 -25.5q-71 0 -115 31.5t-62 91.5q-10 34 -10 80q0 19 4 63q5 38 10.5 64t14.5 47
q26 69 83 109t132 40q96 0 138.5 -49t42.5 -143zM296 434q-42 0 -71.5 -21.5t-44.5 -57.5q-9 -22 -15 -56q-1 -4 3 -4h222q4 0 4 4q2 24 2 32q0 46 -26.5 74.5t-73.5 28.5zM222 -204q-23 0 -37.5 14.5t-14.5 37.5q0 30 19.5 50t47.5 20q24 0 38.5 -14t14.5 -37
q0 -30 -20 -50.5t-48 -20.5z" />
    <glyph glyph-name="uni1EBA" unicode="&#x1eba;" horiz-adv-x="580" 
d="M588 627q-2 -10 -11 -10h-344q-4 0 -4 -4l-27 -215q0 -4 4 -4h236q9 0 9 -10l-8 -63q-2 -10 -11 -10h-237q-4 0 -4 -4l-27 -220q0 -4 3 -4h345q10 0 8 -10l-8 -63q0 -4 -3 -7t-8 -3h-431q-9 0 -9 10l84 680q2 10 11 10h431q5 0 7.5 -3t1.5 -7zM363 748q-10 3 -4 12
q13 26 38 49q13 12 19.5 21.5t8.5 23.5q2 13 -7.5 22t-24.5 9q-16 0 -26.5 -7t-27.5 -27q-8 -8 -14 -2l-21 16q-7 6 -1 14q23 30 44 43t54 13q36 0 57 -18.5t21 -50.5q0 -27 -11.5 -45t-34.5 -39q-21 -17 -31 -34q-6 -7 -14 -6z" />
    <glyph glyph-name="uni1EBB" unicode="&#x1ebb;" horiz-adv-x="521" 
d="M487 325q0 -35 -8 -99q-1 -10 -11 -10h-310q-4 0 -4 -4q-2 -24 -2 -32q0 -10 2 -20q5 -40 34.5 -62.5t79.5 -22.5q71 0 118 61q6 10 13 3l51 -38q6 -6 1 -13q-33 -46 -86 -71.5t-116 -25.5q-71 0 -115 31.5t-62 91.5q-10 34 -10 80q0 19 4 63q5 38 10.5 64t14.5 47
q26 69 83 109t132 40q96 0 138.5 -49t42.5 -143zM296 434q-42 0 -71.5 -21.5t-44.5 -57.5q-9 -22 -15 -56q-1 -4 3 -4h222q4 0 4 4q2 24 2 32q0 46 -26.5 74.5t-73.5 28.5zM298 557q-10 3 -4 12q13 26 38 49q13 12 19.5 21.5t8.5 23.5q2 13 -7.5 22t-24.5 9q-16 0 -26.5 -7
t-27.5 -27q-8 -8 -14 -2l-21 16q-7 6 -1 14q23 30 44 43t54 13q36 0 57 -18.5t21 -50.5q0 -27 -11.5 -45t-34.5 -39q-21 -17 -31 -34q-6 -7 -14 -6z" />
    <glyph glyph-name="uni1EBC" unicode="&#x1ebc;" horiz-adv-x="580" 
d="M588 627q-2 -10 -11 -10h-344q-4 0 -4 -4l-27 -215q0 -4 4 -4h236q9 0 9 -10l-8 -63q-2 -10 -11 -10h-237q-4 0 -4 -4l-27 -220q0 -4 3 -4h345q10 0 8 -10l-8 -63q0 -4 -3 -7t-8 -3h-431q-9 0 -9 10l84 680q2 10 11 10h431q5 0 7.5 -3t1.5 -7zM440 784q-19 0 -32.5 5
t-27.5 15q-17 10 -25.5 14t-19.5 4q-32 0 -54 -22l-4 -4q-6 -6 -12 0l-24 28q-5 7 0 14q19 26 44 40t54 14q16 0 28 -4.5t21.5 -10.5t13.5 -8t13.5 -8t17 -8.5t15.5 -2.5q31 0 54 27q6 10 14 2l20 -28q3 -4 3 -6.5t-2 -7.5q-15 -25 -41.5 -39t-55.5 -14z" />
    <glyph glyph-name="uni1EBD" unicode="&#x1ebd;" horiz-adv-x="521" 
d="M487 325q0 -35 -8 -99q-1 -10 -11 -10h-310q-4 0 -4 -4q-2 -24 -2 -32q0 -10 2 -20q5 -40 34.5 -62.5t79.5 -22.5q71 0 118 61q6 10 13 3l51 -38q6 -6 1 -13q-33 -46 -86 -71.5t-116 -25.5q-71 0 -115 31.5t-62 91.5q-10 34 -10 80q0 19 4 63q5 38 10.5 64t14.5 47
q26 69 83 109t132 40q96 0 138.5 -49t42.5 -143zM296 434q-42 0 -71.5 -21.5t-44.5 -57.5q-9 -22 -15 -56q-1 -4 3 -4h222q4 0 4 4q2 24 2 32q0 46 -26.5 74.5t-73.5 28.5zM374 593q-19 0 -32.5 5t-27.5 15q-17 10 -25.5 14t-19.5 4q-32 0 -54 -22l-4 -4q-6 -6 -12 0l-24 28
q-5 7 0 14q19 26 44 40t54 14q16 0 28 -4.5t21.5 -10.5t13.5 -8t13.5 -8t17 -8.5t15.5 -2.5q31 0 54 27q6 10 14 2l20 -28q3 -4 3 -6.5t-2 -7.5q-15 -25 -41.5 -39t-55.5 -14z" />
    <glyph glyph-name="uni1EBE" unicode="&#x1ebe;" horiz-adv-x="580" 
d="M588 627q-2 -10 -11 -10h-344q-4 0 -4 -4l-27 -215q0 -4 4 -4h236q9 0 9 -10l-8 -63q-2 -10 -11 -10h-237q-4 0 -4 -4l-27 -220q0 -4 3 -4h345q10 0 8 -10l-8 -63q0 -4 -3 -7t-8 -3h-431q-9 0 -9 10l84 680q2 10 11 10h431q5 0 7.5 -3t1.5 -7zM251 764q-6 0 -7.5 3.5
t2.5 8.5l90 109q5 6 14 6h82q10 0 12 -6l63 -109l2 -5q0 -7 -9 -7h-57q-9 0 -11 6l-42 76q-1 2 -3 2t-3 -2l-63 -76q-4 -6 -12 -6h-58zM523 840q-6 0 -8 3.5t2 8.5l70 108q4 7 13 7h65q5 0 6.5 -3.5t-2.5 -8.5l-82 -108q-7 -7 -13 -7h-51z" />
    <glyph glyph-name="uni1EBF" unicode="&#x1ebf;" horiz-adv-x="521" 
d="M487 325q0 -35 -8 -99q-1 -10 -11 -10h-310q-4 0 -4 -4q-2 -24 -2 -32q0 -10 2 -20q5 -40 34.5 -62.5t79.5 -22.5q71 0 118 61q6 10 13 3l51 -38q6 -6 1 -13q-33 -46 -86 -71.5t-116 -25.5q-71 0 -115 31.5t-62 91.5q-10 34 -10 80q0 19 4 63q5 38 10.5 64t14.5 47
q26 69 83 109t132 40q96 0 138.5 -49t42.5 -143zM296 434q-42 0 -71.5 -21.5t-44.5 -57.5q-9 -22 -15 -56q-1 -4 3 -4h222q4 0 4 4q2 24 2 32q0 46 -26.5 74.5t-73.5 28.5zM186 573q-6 0 -7.5 3.5t2.5 8.5l90 109q5 6 14 6h82q10 0 12 -6l63 -109l2 -5q0 -7 -9 -7h-57
q-9 0 -11 6l-42 76q-1 2 -3 2t-3 -2l-63 -76q-4 -6 -12 -6h-58zM458 649q-6 0 -8 3.5t2 8.5l70 108q4 7 13 7h65q5 0 6.5 -3.5t-2.5 -8.5l-82 -108q-7 -7 -13 -7h-51z" />
    <glyph glyph-name="uni1EC0" unicode="&#x1ec0;" horiz-adv-x="580" 
d="M588 627q-2 -10 -11 -10h-344q-4 0 -4 -4l-27 -215q0 -4 4 -4h236q9 0 9 -10l-8 -63q-2 -10 -11 -10h-237q-4 0 -4 -4l-27 -220q0 -4 3 -4h345q10 0 8 -10l-8 -63q0 -4 -3 -7t-8 -3h-431q-9 0 -9 10l84 680q2 10 11 10h431q5 0 7.5 -3t1.5 -7zM251 764q-6 0 -7.5 3.5
t2.5 8.5l90 109q5 6 14 6h82q10 0 12 -6l63 -109l2 -5q0 -7 -9 -7h-57q-9 0 -11 6l-42 76q-1 2 -3 2t-3 -2l-63 -76q-4 -6 -12 -6h-58zM578 893q1 -1 1 -4q0 -4 -3 -6t-8 -2h-52q-6 0 -11 7l-54 108q-1 2 -1 6q0 6 8 6h65q8 0 11 -7z" />
    <glyph glyph-name="uni1EC1" unicode="&#x1ec1;" horiz-adv-x="521" 
d="M487 325q0 -35 -8 -99q-1 -10 -11 -10h-310q-4 0 -4 -4q-2 -24 -2 -32q0 -10 2 -20q5 -40 34.5 -62.5t79.5 -22.5q71 0 118 61q6 10 13 3l51 -38q6 -6 1 -13q-33 -46 -86 -71.5t-116 -25.5q-71 0 -115 31.5t-62 91.5q-10 34 -10 80q0 19 4 63q5 38 10.5 64t14.5 47
q26 69 83 109t132 40q96 0 138.5 -49t42.5 -143zM296 434q-42 0 -71.5 -21.5t-44.5 -57.5q-9 -22 -15 -56q-1 -4 3 -4h222q4 0 4 4q2 24 2 32q0 46 -26.5 74.5t-73.5 28.5zM186 573q-6 0 -7.5 3.5t2.5 8.5l90 109q5 6 14 6h82q10 0 12 -6l63 -109l2 -5q0 -7 -9 -7h-57
q-9 0 -11 6l-42 76q-1 2 -3 2t-3 -2l-63 -76q-4 -6 -12 -6h-58zM513 702q1 -1 1 -4q0 -4 -3 -6t-8 -2h-52q-6 0 -11 7l-54 108q-1 2 -1 6q0 6 8 6h65q8 0 11 -7z" />
    <glyph glyph-name="uni1EC2" unicode="&#x1ec2;" horiz-adv-x="580" 
d="M588 627q-2 -10 -11 -10h-344q-4 0 -4 -4l-27 -215q0 -4 4 -4h236q9 0 9 -10l-8 -63q-2 -10 -11 -10h-237q-4 0 -4 -4l-27 -220q0 -4 3 -4h345q10 0 8 -10l-8 -63q0 -4 -3 -7t-8 -3h-431q-9 0 -9 10l84 680q2 10 11 10h431q5 0 7.5 -3t1.5 -7zM251 764q-6 0 -7.5 3.5
t2.5 8.5l90 109q5 6 14 6h82q10 0 12 -6l63 -109l2 -5q0 -7 -9 -7h-57q-9 0 -11 6l-42 76q-1 2 -3 2t-3 -2l-63 -76q-4 -6 -12 -6h-58zM504 868q-10 3 -4 12q13 26 38 49q13 12 19.5 21.5t8.5 23.5q2 13 -7.5 22t-24.5 9q-16 0 -26.5 -7t-27.5 -27q-8 -8 -14 -2l-21 16
q-7 6 -1 14q23 30 44 43t54 13q36 0 57 -18.5t21 -50.5q0 -27 -11.5 -45t-34.5 -39q-21 -17 -31 -34q-6 -7 -14 -6z" />
    <glyph glyph-name="uni1EC3" unicode="&#x1ec3;" horiz-adv-x="521" 
d="M487 325q0 -35 -8 -99q-1 -10 -11 -10h-310q-4 0 -4 -4q-2 -24 -2 -32q0 -10 2 -20q5 -40 34.5 -62.5t79.5 -22.5q71 0 118 61q6 10 13 3l51 -38q6 -6 1 -13q-33 -46 -86 -71.5t-116 -25.5q-71 0 -115 31.5t-62 91.5q-10 34 -10 80q0 19 4 63q5 38 10.5 64t14.5 47
q26 69 83 109t132 40q96 0 138.5 -49t42.5 -143zM296 434q-42 0 -71.5 -21.5t-44.5 -57.5q-9 -22 -15 -56q-1 -4 3 -4h222q4 0 4 4q2 24 2 32q0 46 -26.5 74.5t-73.5 28.5zM186 573q-6 0 -7.5 3.5t2.5 8.5l90 109q5 6 14 6h82q10 0 12 -6l63 -109l2 -5q0 -7 -9 -7h-57
q-9 0 -11 6l-42 76q-1 2 -3 2t-3 -2l-63 -76q-4 -6 -12 -6h-58zM439 677q-10 3 -4 12q13 26 38 49q13 12 19.5 21.5t8.5 23.5q2 13 -7.5 22t-24.5 9q-16 0 -26.5 -7t-27.5 -27q-8 -8 -14 -2l-21 16q-7 6 -1 14q23 30 44 43t54 13q36 0 57 -18.5t21 -50.5q0 -27 -11.5 -45
t-34.5 -39q-21 -17 -31 -34q-6 -7 -14 -6z" />
    <glyph glyph-name="uni1EC4" unicode="&#x1ec4;" horiz-adv-x="580" 
d="M588 627q-2 -10 -11 -10h-344q-4 0 -4 -4l-27 -215q0 -4 4 -4h236q9 0 9 -10l-8 -63q-2 -10 -11 -10h-237q-4 0 -4 -4l-27 -220q0 -4 3 -4h345q10 0 8 -10l-8 -63q0 -4 -3 -7t-8 -3h-431q-9 0 -9 10l84 680q2 10 11 10h431q5 0 7.5 -3t1.5 -7zM251 764q-6 0 -7.5 3.5
t2.5 8.5l90 109q5 6 14 6h82q10 0 12 -6l63 -109l2 -5q0 -7 -9 -7h-57q-9 0 -11 6l-42 76q-1 2 -3 2t-3 -2l-63 -76q-4 -6 -12 -6h-58zM457 923q-19 0 -32.5 5t-27.5 15q-17 10 -25.5 14t-19.5 4q-32 0 -54 -22l-4 -4q-6 -6 -12 0l-24 28q-5 7 0 14q19 26 44 40t54 14
q16 0 28 -4.5t21.5 -10.5t13.5 -8t13.5 -8t17 -8.5t15.5 -2.5q31 0 54 27q6 10 14 2l20 -28q3 -4 3 -6.5t-2 -7.5q-15 -25 -41.5 -39t-55.5 -14z" />
    <glyph glyph-name="uni1EC5" unicode="&#x1ec5;" horiz-adv-x="521" 
d="M487 325q0 -35 -8 -99q-1 -10 -11 -10h-310q-4 0 -4 -4q-2 -24 -2 -32q0 -10 2 -20q5 -40 34.5 -62.5t79.5 -22.5q71 0 118 61q6 10 13 3l51 -38q6 -6 1 -13q-33 -46 -86 -71.5t-116 -25.5q-71 0 -115 31.5t-62 91.5q-10 34 -10 80q0 19 4 63q5 38 10.5 64t14.5 47
q26 69 83 109t132 40q96 0 138.5 -49t42.5 -143zM296 434q-42 0 -71.5 -21.5t-44.5 -57.5q-9 -22 -15 -56q-1 -4 3 -4h222q4 0 4 4q2 24 2 32q0 46 -26.5 74.5t-73.5 28.5zM186 573q-6 0 -7.5 3.5t2.5 8.5l90 109q5 6 14 6h82q10 0 12 -6l63 -109l2 -5q0 -7 -9 -7h-57
q-9 0 -11 6l-42 76q-1 2 -3 2t-3 -2l-63 -76q-4 -6 -12 -6h-58zM392 732q-19 0 -32.5 5t-27.5 15q-17 10 -25.5 14t-19.5 4q-32 0 -54 -22l-4 -4q-6 -6 -12 0l-24 28q-5 7 0 14q19 26 44 40t54 14q16 0 28 -4.5t21.5 -10.5t13.5 -8t13.5 -8t17 -8.5t15.5 -2.5q31 0 54 27
q6 10 14 2l20 -28q3 -4 3 -6.5t-2 -7.5q-15 -25 -41.5 -39t-55.5 -14z" />
    <glyph glyph-name="uni1EC6" unicode="&#x1ec6;" horiz-adv-x="580" 
d="M588 627q-2 -10 -11 -10h-344q-4 0 -4 -4l-27 -215q0 -4 4 -4h236q9 0 9 -10l-8 -63q-2 -10 -11 -10h-237q-4 0 -4 -4l-27 -220q0 -4 3 -4h345q10 0 8 -10l-8 -63q0 -4 -3 -7t-8 -3h-431q-9 0 -9 10l84 680q2 10 11 10h431q5 0 7.5 -3t1.5 -7zM263 -195q-23 0 -37.5 14.5
t-14.5 37.5q0 30 19.5 50t47.5 20q24 0 38.5 -14t14.5 -37q0 -30 -20 -50.5t-48 -20.5zM251 764q-6 0 -7.5 3.5t2.5 8.5l90 109q5 6 14 6h82q10 0 12 -6l63 -109l2 -5q0 -7 -9 -7h-57q-9 0 -11 6l-42 76q-1 2 -3 2t-3 -2l-63 -76q-4 -6 -12 -6h-58z" />
    <glyph glyph-name="uni1EC7" unicode="&#x1ec7;" horiz-adv-x="521" 
d="M487 325q0 -35 -8 -99q-1 -10 -11 -10h-310q-4 0 -4 -4q-2 -24 -2 -32q0 -10 2 -20q5 -40 34.5 -62.5t79.5 -22.5q71 0 118 61q6 10 13 3l51 -38q6 -6 1 -13q-33 -46 -86 -71.5t-116 -25.5q-71 0 -115 31.5t-62 91.5q-10 34 -10 80q0 19 4 63q5 38 10.5 64t14.5 47
q26 69 83 109t132 40q96 0 138.5 -49t42.5 -143zM296 434q-42 0 -71.5 -21.5t-44.5 -57.5q-9 -22 -15 -56q-1 -4 3 -4h222q4 0 4 4q2 24 2 32q0 46 -26.5 74.5t-73.5 28.5zM222 -204q-23 0 -37.5 14.5t-14.5 37.5q0 30 19.5 50t47.5 20q24 0 38.5 -14t14.5 -37
q0 -30 -20 -50.5t-48 -20.5zM186 573q-6 0 -7.5 3.5t2.5 8.5l90 109q5 6 14 6h82q10 0 12 -6l63 -109l2 -5q0 -7 -9 -7h-57q-9 0 -11 6l-42 76q-1 2 -3 2t-3 -2l-63 -76q-4 -6 -12 -6h-58z" />
    <glyph glyph-name="uni1EC8" unicode="&#x1ec8;" horiz-adv-x="253" 
d="M70 0q-9 0 -9 10l84 680q2 10 11 10h74q4 0 6.5 -3t1.5 -7l-84 -680q0 -4 -3 -7t-7 -3h-74zM188 748q-10 3 -4 12q13 26 38 49q13 12 19.5 21.5t8.5 23.5q2 13 -7.5 22t-24.5 9q-16 0 -26.5 -7t-27.5 -27q-8 -8 -14 -2l-21 16q-7 6 -1 14q23 30 44 43t54 13
q36 0 57 -18.5t21 -50.5q0 -27 -11.5 -45t-34.5 -39q-21 -17 -31 -34q-6 -7 -14 -6z" />
    <glyph glyph-name="uni1EC9" unicode="&#x1ec9;" horiz-adv-x="214" 
d="M50 0q-4 0 -6.5 3t-1.5 7l60 489q2 10 11 10h74q4 0 6.5 -3t1.5 -7l-60 -489q-2 -10 -11 -10h-74zM145 557q-10 3 -4 12q13 26 38 49q13 12 19.5 21.5t8.5 23.5q2 13 -7.5 22t-24.5 9q-16 0 -26.5 -7t-27.5 -27q-8 -8 -14 -2l-21 16q-7 6 -1 14q23 30 44 43t54 13
q36 0 57 -18.5t21 -50.5q0 -27 -11.5 -45t-34.5 -39q-21 -17 -31 -34q-6 -7 -14 -6z" />
    <glyph glyph-name="uni1ECA" unicode="&#x1eca;" horiz-adv-x="253" 
d="M70 0q-9 0 -9 10l84 680q2 10 11 10h74q4 0 6.5 -3t1.5 -7l-84 -680q0 -4 -3 -7t-7 -3h-74zM82 -195q-23 0 -37.5 14.5t-14.5 37.5q0 30 19.5 50t47.5 20q24 0 38.5 -14t14.5 -37q0 -30 -20 -50.5t-48 -20.5z" />
    <glyph glyph-name="uni1ECB" unicode="&#x1ecb;" horiz-adv-x="247" 
d="M177 589q-25 0 -40 15t-15 39q0 32 20.5 53t50.5 21q25 0 40 -14.5t15 -39.5q0 -31 -21 -52.5t-50 -21.5zM66 1q-10 0 -8 10l60 488q0 4 3 7t7 3h74q9 0 9 -10l-60 -488q-2 -10 -11 -10h-74zM80 -195q-23 0 -37.5 14.5t-14.5 37.5q0 30 19.5 50t47.5 20q24 0 38.5 -14
t14.5 -37q0 -30 -20 -50.5t-48 -20.5z" />
    <glyph glyph-name="uni1ECC" unicode="&#x1ecc;" horiz-adv-x="603" 
d="M280 -9q-97 0 -154.5 55t-57.5 148q0 24 2 37l29 238q9 71 45.5 125t94.5 84t129 30q98 0 155.5 -55t57.5 -147q0 -24 -2 -37l-29 -238q-8 -71 -45 -125.5t-95 -84.5t-130 -30zM290 74q67 0 112.5 42t54.5 111l29 243q2 18 2 26q0 59 -35 94t-95 35q-65 0 -111 -42.5
t-54 -112.5l-30 -243q-2 -18 -2 -26q0 -58 35 -92.5t94 -34.5zM258 -195q-23 0 -37.5 14.5t-14.5 37.5q0 30 19.5 50t47.5 20q24 0 38.5 -14t14.5 -37q0 -30 -20 -50.5t-48 -20.5z" />
    <glyph glyph-name="uni1ECD" unicode="&#x1ecd;" 
d="M249 -8q-72 0 -120.5 37.5t-61.5 104.5q-6 29 -6 67q0 28 3 55q10 73 32 120q29 66 87 103.5t132 37.5q70 0 117 -37.5t61 -102.5q6 -28 6 -64q0 -27 -3 -56q-8 -70 -32 -123q-30 -67 -87 -104.5t-128 -37.5zM259 75q40 0 72 22.5t49 63.5q16 43 22 94q4 44 4 62
q0 13 -2 31q-8 41 -34.5 63.5t-67.5 22.5q-40 0 -72 -22.5t-50 -63.5q-14 -34 -22 -93q-3 -27 -3 -52q0 -24 3 -42q6 -40 33 -63t68 -23zM219 -195q-23 0 -37.5 14.5t-14.5 37.5q0 30 19.5 50t47.5 20q24 0 38.5 -14t14.5 -37q0 -30 -20 -50.5t-48 -20.5z" />
    <glyph glyph-name="uni1ECE" unicode="&#x1ece;" horiz-adv-x="603" 
d="M280 -9q-97 0 -154.5 55t-57.5 148q0 24 2 37l29 238q9 71 45.5 125t94.5 84t129 30q98 0 155.5 -55t57.5 -147q0 -24 -2 -37l-29 -238q-8 -71 -45 -125.5t-95 -84.5t-130 -30zM290 74q67 0 112.5 42t54.5 111l29 243q2 18 2 26q0 59 -35 94t-95 35q-65 0 -111 -42.5
t-54 -112.5l-30 -243q-2 -18 -2 -26q0 -58 35 -92.5t94 -34.5zM362 748q-10 3 -4 12q13 26 38 49q13 12 19.5 21.5t8.5 23.5q2 13 -7.5 22t-24.5 9q-16 0 -26.5 -7t-27.5 -27q-8 -8 -14 -2l-21 16q-7 6 -1 14q23 30 44 43t54 13q36 0 57 -18.5t21 -50.5q0 -27 -11.5 -45
t-34.5 -39q-21 -17 -31 -34q-6 -7 -14 -6z" />
    <glyph glyph-name="uni1ECF" unicode="&#x1ecf;" 
d="M249 -8q-72 0 -120.5 37.5t-61.5 104.5q-6 29 -6 67q0 28 3 55q10 73 32 120q29 66 87 103.5t132 37.5q70 0 117 -37.5t61 -102.5q6 -28 6 -64q0 -27 -3 -56q-8 -70 -32 -123q-30 -67 -87 -104.5t-128 -37.5zM259 75q40 0 72 22.5t49 63.5q16 43 22 94q4 44 4 62
q0 13 -2 31q-8 41 -34.5 63.5t-67.5 22.5q-40 0 -72 -22.5t-50 -63.5q-14 -34 -22 -93q-3 -27 -3 -52q0 -24 3 -42q6 -40 33 -63t68 -23zM300 557q-10 3 -4 12q13 26 38 49q13 12 19.5 21.5t8.5 23.5q2 13 -7.5 22t-24.5 9q-16 0 -26.5 -7t-27.5 -27q-8 -8 -14 -2l-21 16
q-7 6 -1 14q23 30 44 43t54 13q36 0 57 -18.5t21 -50.5q0 -27 -11.5 -45t-34.5 -39q-21 -17 -31 -34q-6 -7 -14 -6z" />
    <glyph glyph-name="uni1ED0" unicode="&#x1ed0;" horiz-adv-x="603" 
d="M280 -9q-97 0 -154.5 55t-57.5 148q0 24 2 37l29 238q9 71 45.5 125t94.5 84t129 30q98 0 155.5 -55t57.5 -147q0 -24 -2 -37l-29 -238q-8 -71 -45 -125.5t-95 -84.5t-130 -30zM290 74q67 0 112.5 42t54.5 111l29 243q2 18 2 26q0 59 -35 94t-95 35q-65 0 -111 -42.5
t-54 -112.5l-30 -243q-2 -18 -2 -26q0 -58 35 -92.5t94 -34.5zM250 764q-6 0 -7.5 3.5t2.5 8.5l90 109q5 6 14 6h82q10 0 12 -6l63 -109l2 -5q0 -7 -9 -7h-57q-9 0 -11 6l-42 76q-1 2 -3 2t-3 -2l-63 -76q-4 -6 -12 -6h-58zM522 840q-6 0 -8 3.5t2 8.5l70 108q4 7 13 7h65
q5 0 6.5 -3.5t-2.5 -8.5l-82 -108q-7 -7 -13 -7h-51z" />
    <glyph glyph-name="uni1ED1" unicode="&#x1ed1;" 
d="M249 -8q-72 0 -120.5 37.5t-61.5 104.5q-6 29 -6 67q0 28 3 55q10 73 32 120q29 66 87 103.5t132 37.5q70 0 117 -37.5t61 -102.5q6 -28 6 -64q0 -27 -3 -56q-8 -70 -32 -123q-30 -67 -87 -104.5t-128 -37.5zM259 75q40 0 72 22.5t49 63.5q16 43 22 94q4 44 4 62
q0 13 -2 31q-8 41 -34.5 63.5t-67.5 22.5q-40 0 -72 -22.5t-50 -63.5q-14 -34 -22 -93q-3 -27 -3 -52q0 -24 3 -42q6 -40 33 -63t68 -23zM188 573q-6 0 -7.5 3.5t2.5 8.5l90 109q5 6 14 6h82q10 0 12 -6l63 -109l2 -5q0 -7 -9 -7h-57q-9 0 -11 6l-42 76q-1 2 -3 2t-3 -2
l-63 -76q-4 -6 -12 -6h-58zM460 649q-6 0 -8 3.5t2 8.5l70 108q4 7 13 7h65q5 0 6.5 -3.5t-2.5 -8.5l-82 -108q-7 -7 -13 -7h-51z" />
    </font>
</defs>
</svg>
