<?xml version="1.0" standalone="no"?>
<!DOCTYPE svg PUBLIC "-//W3C//DTD SVG 1.1//EN" "http://www.w3.org/Graphics/SVG/1.1/DTD/svg11.dtd" >
<svg xmlns="http://www.w3.org/2000/svg" xmlns:xlink="http://www.w3.org/1999/xlink" version="1.1">
<metadata>
Created by FontForge 20201107 at Mon Sep 15 10:37:15 2025
 By 
Copyright 2017 The Barlow Project Authors (https://github.com/jpt/barlow)
</metadata>
<defs>
<font id="INNOQ-Regular" horiz-adv-x="539" >
  <font-face 
    font-family="INNO-Q"
    font-weight="400"
    font-stretch="normal"
    units-per-em="1000"
    panose-1="0 0 0 0 0 0 0 0 0 0"
    ascent="800"
    descent="-200"
    x-height="506"
    cap-height="700"
    bbox="-591 -209 1114 1084"
    underline-thickness="50"
    underline-position="-100"
    unicode-range="U+000D-FB02"
  />
<missing-glyph horiz-adv-x="419" 
d="M0 696q0 4 4 4h411q4 0 4 -4v-692q0 -4 -4 -4h-411q-4 0 -4 4v692zM218 232q10 0 10 10v37q0 20 11.5 33.5t36.5 33.5q35 27 54 53t19 71q0 57 -36.5 91.5t-96.5 34.5q-61 0 -99 -35t-38 -92v-17q0 -10 10 -10l30 -2q10 0 10 10v19q0 36 24 58t62 22t60.5 -21.5
t22.5 -57.5q0 -31 -15 -50.5t-46 -44.5q-31 -24 -46 -43t-15 -50v-40q0 -10 10 -10h32zM201 91q17 0 28.5 11.5t11.5 28.5t-11.5 28.5t-28.5 11.5t-28.5 -11.5t-11.5 -28.5t11.5 -28.5t28.5 -11.5z" />
    <glyph glyph-name="fi" unicode="fi" horiz-adv-x="612" 
d="M280 638q-55 0 -75 -24.5t-20 -83.5v-20q0 -4 4 -4h112q10 0 10 -10v-45q0 -10 -10 -10h-112q-4 0 -4 -4v-427q0 -10 -10 -10h-50q-10 0 -10 10v427q0 4 -4 4h-67q-10 0 -10 10v45q0 10 10 10h67q4 0 4 4v24q0 62 14 97.5t48.5 52t96.5 16.5h29q10 0 10 -10v-42
q0 -10 -10 -10h-23zM484 598q-24 0 -40 16t-16 40q0 25 16 40.5t40 15.5t40 -15.5t16 -40.5q0 -24 -16 -40t-40 -16zM456 1q-10 0 -10 10v486q0 10 10 10h51q10 0 10 -10v-486q0 -10 -10 -10h-51z" />
    <glyph glyph-name="fl" unicode="fl" horiz-adv-x="586" 
d="M280 638q-55 0 -75 -24.5t-20 -83.5v-20q0 -4 4 -4h112q10 0 10 -10v-45q0 -10 -10 -10h-112q-4 0 -4 -4v-427q0 -10 -10 -10h-50q-10 0 -10 10v427q0 4 -4 4h-67q-10 0 -10 10v45q0 10 10 10h67q4 0 4 4v24q0 62 14 97.5t48.5 52t96.5 16.5h29q10 0 10 -10v-42
q0 -10 -10 -10h-23zM446 0q-10 0 -10 10v680q0 10 10 10h51q10 0 10 -10v-680q0 -10 -10 -10h-51z" />
    <glyph glyph-name="hyphen_hyphen.liga" unicode="&#x2d;&#x2d;" horiz-adv-x="685" 
d="M49 273q-10 0 -10 10v42q0 10 10 10h587q10 0 10 -10v-42q0 -10 -10 -10h-587z" />
    <glyph glyph-name="IJ.liga" unicode="IJ" horiz-adv-x="836" 
d="M104 0q-10 0 -10 10v680q0 10 10 10h51q10 0 10 -10v-680q0 -10 -10 -10h-51zM515 -8q-68 0 -119.5 26t-79.5 73.5t-28 109.5v76q0 10 10 10h51q10 0 10 -10v-76q0 -66 42.5 -106.5t113.5 -40.5q70 0 113 40.5t43 106.5v489q0 10 10 10h51q10 0 10 -10v-489
q0 -62 -28.5 -109.5t-80 -73.5t-118.5 -26z" />
    <glyph glyph-name="f_f_i" unicode="ffi" horiz-adv-x="939" 
d="M812 710q24 0 40 -15.5t16 -40.5q0 -24 -16 -40t-40 -16q-25 0 -40.5 16t-15.5 40q0 25 15.5 40.5t40.5 15.5zM181 510q0 -4 4 -4h125q10 0 10 -10v-39q0 -10 -10 -10h-125q-4 0 -4 -4v-433q0 -10 -10 -10h-50q-10 0 -10 10v433q0 4 -4 4h-63q-10 0 -10 10v39q0 10 10 10
h63q4 0 4 4v35q0 81 35.5 118.5t125.5 36.5h29q10 0 10 -10v-32q0 -10 -10 -10h-29q-53 -1 -72 -27t-19 -81v-30zM446 545q0 81 36 118.5t126 36.5h29q10 0 10 -10v-32q0 -10 -10 -10h-29q-53 -1 -72 -27t-19 -81v-30q0 -4 4 -4h116q10 0 10 -10v-39q0 -10 -10 -10h-116
q-4 0 -4 -4v-433q0 -10 -10 -10h-51q-10 0 -10 10v433q0 4 -4 4h-92q-10 0 -10 10v39q0 10 10 10h92q4 0 4 4v35zM784 1q-10 0 -10 10v486q0 10 10 10h51q10 0 10 -10v-486q0 -10 -10 -10h-51z" />
    <glyph glyph-name="f_f_l" unicode="ffl" horiz-adv-x="919" 
d="M446 545q0 81 36 118.5t126 36.5h29q10 0 10 -10v-32q0 -10 -10 -10h-29q-53 -1 -72 -27t-19 -81v-30q0 -4 4 -4h116q10 0 10 -10v-39q0 -10 -10 -10h-116q-4 0 -4 -4v-433q0 -10 -10 -10h-51q-10 0 -10 10v433q0 4 -4 4h-257q-4 0 -4 -4v-433q0 -10 -10 -10h-50
q-10 0 -10 10v433q0 4 -4 4h-63q-10 0 -10 10v39q0 10 10 10h63q4 0 4 4v35q0 81 35.5 118.5t125.5 36.5h29q10 0 10 -10v-32q0 -10 -10 -10h-29q-53 -1 -72 -27t-19 -81v-30q0 -4 4 -4h257q4 0 4 4v35zM768 690q0 10 10 10h51q10 0 10 -10v-680q0 -10 -10 -10h-51
q-10 0 -10 10v680z" />
    <glyph glyph-name="g_j.liga" unicode="gj" horiz-adv-x="780" 
d="M653 710q24 0 40 -15.5t16 -40.5q0 -24 -16 -40t-40 -16q-25 0 -40.5 16t-15.5 40q0 25 15.5 40.5t40.5 15.5zM387 455q2 -2 3.5 -1t1.5 3v39q0 10 10 10h51q10 0 10 -10v-479q0 -112 -64.5 -164t-177.5 -52q-23 0 -35 1q-10 1 -10 11l2 46q0 5 3 7.5t7 1.5l27 -1
q93 0 135 36.5t42 115.5v37q0 2 -1.5 2.5t-3.5 -1.5q-46 -60 -131 -60q-65 0 -115.5 35t-67.5 99q-12 41 -12 122q0 44 2.5 74t10.5 54q18 60 65 96.5t113 36.5q89 0 135 -59zM617 496q0 10 10 10h51q10 0 10 -10v-540q0 -84 -44.5 -123.5t-132.5 -40.5q-10 0 -10 10v41
q0 10 10 10q49 2 77.5 28t28.5 75v540zM387 153q3 15 4 37t1 64q0 51 -1 68.5t-5 32.5q-8 42 -39.5 69.5t-79.5 27.5q-47 0 -79.5 -27t-45.5 -70q-10 -32 -10 -100q0 -73 10 -101q10 -42 43.5 -69.5t81.5 -27.5q49 0 80.5 27t39.5 69z" />
    <glyph glyph-name="ij.liga" unicode="ij" horiz-adv-x="500" 
d="M128 598q-25 0 -40.5 16t-15.5 40q0 25 15.5 40.5t40.5 15.5q24 0 40 -15.5t16 -40.5q0 -24 -16 -40t-40 -16zM371 598q-25 0 -40.5 16t-15.5 40q0 25 15.5 40.5t40.5 15.5q24 0 39.5 -15.5t15.5 -40.5q0 -24 -15.5 -40t-39.5 -16zM104 0q-10 0 -10 10v486q0 10 10 10h51
q10 0 10 -10v-486q0 -10 -10 -10h-51zM229 -208q-10 0 -10 10v41q0 10 10 10q107 1 107 103v540q0 10 10 10h51q10 0 10 -10v-540q0 -85 -42 -124t-136 -40z" />
    <glyph glyph-name=".notdef" horiz-adv-x="419" 
d="M0 696q0 4 4 4h411q4 0 4 -4v-692q0 -4 -4 -4h-411q-4 0 -4 4v692zM218 232q10 0 10 10v37q0 20 11.5 33.5t36.5 33.5q35 27 54 53t19 71q0 57 -36.5 91.5t-96.5 34.5q-61 0 -99 -35t-38 -92v-17q0 -10 10 -10l30 -2q10 0 10 10v19q0 36 24 58t62 22t60.5 -21.5
t22.5 -57.5q0 -31 -15 -50.5t-46 -44.5q-31 -24 -46 -43t-15 -50v-40q0 -10 10 -10h32zM201 91q17 0 28.5 11.5t11.5 28.5t-11.5 28.5t-28.5 11.5t-28.5 -11.5t-11.5 -28.5t11.5 -28.5t28.5 -11.5z" />
    <glyph glyph-name=".null" horiz-adv-x="0" 
 />
    <glyph glyph-name=".null" horiz-adv-x="0" 
 />
    <glyph glyph-name="uni000D" unicode="&#xd;" horiz-adv-x="200" 
 />
    <glyph glyph-name="space" unicode=" " horiz-adv-x="200" 
 />
    <glyph glyph-name="exclam" unicode="!" horiz-adv-x="319" 
d="M141 228q-10 0 -10 10l-5 452q0 10 10 10h51q10 0 10 -10l-6 -452q0 -10 -10 -10h-40zM157 4q-24 0 -39.5 15.5t-15.5 39.5q0 25 15.5 40.5t39.5 15.5q25 0 40.5 -15.5t15.5 -40.5q0 -24 -15.5 -39.5t-40.5 -15.5z" />
    <glyph glyph-name="quotedbl" unicode="&#x22;" horiz-adv-x="263" 
d="M47 488q-10 0 -10 10l-8 186q0 10 10 10h52q10 0 10 -10l-8 -186q0 -10 -10 -10h-36zM182 488q-10 0 -10 10l-8 186q0 10 10 10h51q10 0 10 -10l-8 -186q0 -10 -10 -10h-35z" />
    <glyph glyph-name="numbersign" unicode="#" horiz-adv-x="659" 
d="M586 439q0 -10 -10 -10h-76q-5 0 -5 -4l-24 -159q0 -4 3 -4h67q10 0 10 -10l-1 -42q0 -10 -10 -10h-75q-5 0 -5 -4l-27 -171q-1 -9 -10 -9l-51 2q-4 0 -7 3t-2 8l25 167q0 4 -3 4h-159q-5 0 -5 -4l-27 -171q-1 -9 -10 -9l-51 2q-4 0 -7 3t-2 8l25 167q0 4 -3 4h-64
q-10 0 -10 10l1 42q0 10 10 10h73q5 0 5 4l24 159q0 4 -3 4h-63q-10 0 -10 10v43q0 10 10 10h73q5 0 5 4l27 171q1 9 10 9l51 -2q4 0 7 -3t2 -8l-25 -167q0 -4 3 -4h158q5 0 5 4l27 171q1 9 10 9l51 -2q4 0 7 -3t2 -8l-25 -167q0 -4 3 -4h67q10 0 10 -10zM395 262q5 0 5 4
l24 159q0 4 -3 4h-159q-5 0 -5 -4l-24 -159q0 -4 3 -4h159z" />
    <glyph glyph-name="dollar" unicode="$" horiz-adv-x="559" 
d="M504 176q0 -76 -49.5 -125t-138.5 -58q-4 0 -4 -4l1 -72q0 -10 -10 -10h-44q-10 0 -10 10l1 72q0 4 -4 4q-91 10 -142 59.5t-51 126.5v31q0 10 10 10h45q10 0 10 -10v-27q0 -58 45.5 -93.5t125.5 -35.5q72 0 110 32.5t38 86.5q0 35 -17.5 60t-53.5 47t-103 51
q-72 30 -110.5 52.5t-63 58t-24.5 89.5q0 77 47 122.5t130 53.5q4 0 4 4l-1 78q0 10 10 10h43q10 0 10 -10l-1 -79q0 -4 4 -4q88 -10 138 -60t50 -128v-22q0 -10 -10 -10h-47q-10 0 -10 10v18q0 58 -43 95t-119 37q-67 0 -103 -29t-36 -84q0 -36 17.5 -59.5t50 -41
t100.5 -45.5q69 -30 111.5 -56t68 -63.5t25.5 -91.5z" />
    <glyph glyph-name="percent" unicode="%" horiz-adv-x="848" 
d="M238 425q-39 0 -72 19t-52.5 51.5t-19.5 71.5t19.5 71.5t52.5 51.5t72 19t72 -19t52 -51.5t19 -71.5t-19 -71.5t-52 -51.5t-72 -19zM215 0q-6 0 -8 3.5t1 8.5l379 681q5 7 12 7h32q6 0 8 -3.5t-1 -8.5l-378 -681q-3 -7 -12 -7h-33zM238 471q40 0 67.5 28t27.5 68
t-27.5 68t-67.5 28t-68 -27.5t-28 -68.5q0 -40 28 -68t68 -28zM614 -9q-39 0 -72 19t-52.5 52t-19.5 72q0 38 19.5 70.5t52.5 51.5t72 19q38 0 71 -19t52 -51.5t19 -70.5q0 -39 -19 -72t-51.5 -52t-71.5 -19zM614 37q40 0 67.5 28t27.5 69q0 40 -28 67.5t-67 27.5
q-41 0 -69 -27.5t-28 -67.5q0 -41 28 -69t69 -28z" />
    <glyph glyph-name="ampersand" unicode="&#x26;" horiz-adv-x="658" 
d="M594 12q2 -2 2 -6q0 -2 -2 -4t-6 -2h-59q-6 0 -12 6q-38 43 -58 68q-3 3 -6 0q-48 -43 -96.5 -62.5t-106.5 -19.5q-89 0 -143.5 41.5t-54.5 120.5q0 69 39.5 118t110.5 97q5 2 1 5q-58 71 -77 107.5t-19 74.5q0 67 46 109.5t122 42.5t125 -42.5t49 -110.5q0 -61 -37 -106
t-104 -91q-4 -1 -1 -5q46 -57 115 -136q25 -31 34 -41q3 -3 6 0q39 49 65 86q6 8 14 3l38 -22q9 -6 3 -14q-42 -62 -80 -104v-2q0 -3 4 -8q-4 5 70 -83zM277 642q-45 0 -72 -24.5t-27 -66.5q0 -24 15 -51t65 -89q3 -3 6 -1q55 38 84.5 71t29.5 74q0 39 -28 63t-73 24z
M252 53q43 0 81.5 17.5t77.5 52.5q3 3 0 6l-35 42q-27 33 -41 48l-84 97q-1 3 -5 1q-58 -39 -89.5 -77t-31.5 -86t34 -74.5t93 -26.5z" />
    <glyph glyph-name="quotesingle" unicode="'" horiz-adv-x="132" 
d="M47 493q-10 0 -10 10l-8 185q0 10 10 10h54q10 0 10 -10l-8 -185q0 -10 -10 -10h-38z" />
    <glyph glyph-name="parenleft" unicode="(" horiz-adv-x="261" 
d="M116 -104q-7 0 -12 6q-49 75 -79 187t-30 236q0 126 30.5 241t80.5 191q4 6 12 6h48q6 0 8 -3.5t-1 -8.5q-43 -77 -70 -189.5t-27 -235.5q0 -121 27 -231.5t70 -186.5q2 -4 2 -6q0 -6 -9 -6h-50z" />
    <glyph glyph-name="parenright" unicode=")" horiz-adv-x="261" 
d="M145 763q7 0 12 -6q48 -75 78 -187t30 -236q0 -127 -30.5 -242t-80.5 -190q-4 -6 -12 -6h-47q-6 0 -8 3.5t1 8.5q43 77 70 189.5t27 234.5q0 121 -27 232t-70 187q-2 4 -2 6q0 6 9 6h50z" />
    <glyph glyph-name="asterisk" unicode="*" horiz-adv-x="397" 
d="M185 393q-10 0 -10 10l1 122q0 6 -5 3l-111 -64q-2 -1 -5 -1q-6 0 -9 5l-12 24q-1 2 -1 5q0 6 5 9l110 61q2 1 2 3t-2 3l-110 61q-4 2 -5 6t1 8l12 24q2 4 6 5t8 -1l111 -64q5 -2 5 3l-1 122q0 10 10 10h27q10 0 10 -10l-1 -122q0 -5 5 -3l111 64q2 1 5 1q6 0 9 -5
l12 -24q1 -2 1 -5q0 -6 -5 -9l-111 -61q-1 -1 -1 -3t1 -3l111 -61q4 -2 5 -6t-1 -8l-12 -24q-2 -4 -6 -5t-8 1l-111 64q-5 3 -5 -3l1 -122q0 -10 -10 -10h-27z" />
    <glyph glyph-name="plus" unicode="+" horiz-adv-x="500" 
d="M451 344q10 0 10 -10v-42q0 -10 -10 -10h-166q-4 0 -4 -4v-162q0 -10 -10 -10h-42q-10 0 -10 10v162q0 4 -4 4h-166q-10 0 -10 10v42q0 10 10 10h166q4 0 4 4v170q0 10 10 10h42q10 0 10 -10v-170q0 -4 4 -4h166z" />
    <glyph glyph-name="comma" unicode="," horiz-adv-x="264" 
d="M76 -79q-5 0 -7.5 3t-1.5 8l44 214q2 9 11 9h44q5 0 7.5 -3t1.5 -8l-56 -214q-2 -9 -11 -9h-32z" />
    <glyph glyph-name="hyphen" unicode="-" horiz-adv-x="394" 
d="M49 280q-10 0 -10 10v42q0 10 10 10h296q10 0 10 -10v-42q0 -10 -10 -10h-296z" />
    <glyph glyph-name="period" unicode="." horiz-adv-x="278" 
d="M138 2q-25 0 -40.5 16t-15.5 40q0 25 15.5 40.5t40.5 15.5q24 0 40 -15.5t16 -40.5q0 -24 -16 -40t-40 -16z" />
    <glyph glyph-name="slash" unicode="/" horiz-adv-x="400" 
d="M41 0q-11 0 -8 11l221 681q3 8 12 8h50q11 0 8 -11l-221 -681q-3 -8 -12 -8h-50z" />
    <glyph glyph-name="zero" unicode="0" horiz-adv-x="565" 
d="M281 -10q-96 0 -153 55t-57 147v316q0 92 57 146.5t153 54.5q97 0 155 -55t58 -146v-316q0 -92 -58 -147t-155 -55zM281 52q64 0 103 37t39 99v323q0 61 -38.5 98t-103.5 37q-63 0 -101 -37t-38 -98v-323q0 -62 38 -99t101 -37z" />
    <glyph glyph-name="one" unicode="1" horiz-adv-x="350" 
d="M180 697q6 3 13 3h54q10 0 10 -10v-680q0 -10 -10 -10h-51q-10 0 -10 10v609q0 2 -1.5 3t-3.5 0l-106 -43l-4 -1q-6 0 -8 8l-5 38v2q0 5 7 10z" />
    <glyph glyph-name="two" unicode="2" horiz-adv-x="536" 
d="M152 67q-3 -5 2 -5h314q10 0 10 -10v-42q0 -10 -10 -10h-399q-10 0 -10 10v42q0 7 5 12q34 40 153 188l74 92q94 119 94 185q0 53 -36 85t-94 32q-57 0 -92 -32.5t-34 -85.5v-31q0 -10 -10 -10h-52q-10 0 -10 10v40q2 77 57.5 124t140.5 47q60 0 106 -23t71 -63.5
t25 -91.5q0 -85 -94 -205q-49 -63 -189 -232z" />
    <glyph glyph-name="three" unicode="3" horiz-adv-x="515" 
d="M430 331q20 -49 20 -117q0 -55 -15 -97q-20 -60 -67.5 -92.5t-117.5 -32.5t-120 36.5t-69 98.5q-9 28 -11 76q0 10 10 10h51q10 0 10 -10q2 -29 7 -54q11 -44 42.5 -69.5t78.5 -25.5q90 0 117 80q12 33 12 82q0 60 -16 98q-32 72 -113 72q-15 0 -37 -11q-4 -2 -6 -2
q-4 0 -7 5l-26 35q-5 8 1 14l176 206q3 5 -2 5h-282q-10 0 -10 10v42q0 10 10 10h370q10 0 10 -10v-49q0 -5 -5 -12l-160 -192q-2 -2 -1 -3.5t4 -1.5q107 -7 146 -101z" />
    <glyph glyph-name="four" unicode="4" horiz-adv-x="551" 
d="M480 257q10 0 10 -10v-44q0 -10 -10 -10h-43q-4 0 -4 -4v-179q0 -10 -10 -10h-51q-10 0 -10 10v179q0 4 -4 4h-299q-10 0 -10 10v37q0 5 3 12l205 441q3 7 11 7h53q5 0 7.5 -3.5t0.5 -8.5l-199 -426q-1 -2 0 -3.5t3 -1.5h225q4 0 4 4v161q0 10 10 10h51q10 0 10 -10v-161
q0 -4 4 -4h43z" />
    <glyph glyph-name="five" unicode="5" horiz-adv-x="514" 
d="M455 306q9 -44 9 -90q0 -49 -9 -84q-17 -64 -68 -101.5t-123 -37.5q-71 0 -121 36t-68 96q-7 22 -9 44v2q0 8 9 8h53q10 0 11 -10q0 -6 4 -20q10 -43 41.5 -68.5t78.5 -25.5q48 0 80.5 27t42.5 74q6 23 6 60q0 34 -5 65q-7 46 -40 70t-82 24q-44 0 -79 -20t-45 -53
q-3 -9 -11 -9h-54q-10 0 -10 10v387q0 10 10 10h350q10 0 10 -10v-42q0 -10 -10 -10h-285q-4 0 -4 -4l-1 -242q0 -2 1.5 -3t3.5 1q25 23 59 35.5t72 12.5q71 0 120 -34.5t63 -97.5z" />
    <glyph glyph-name="six" unicode="6" horiz-adv-x="515" 
d="M444 329q21 -45 21 -114q0 -62 -16 -100q-21 -58 -67 -90t-115 -32q-72 0 -121 34t-69 96q-12 40 -12 94v312q0 82 54 130.5t141 48.5q85 0 137 -47t52 -124v-14q0 -10 -10 -10h-51q-10 0 -10 10v8q0 51 -33 83t-85 32q-54 0 -89 -33.5t-35 -88.5v-147q0 -2 2 -2.5t3 1.5
q44 60 133 60q63 0 105.5 -28t64.5 -79zM382 139q12 31 12 76q0 52 -14 80q-12 37 -42 58t-74 21t-74 -21.5t-42 -59.5q-12 -31 -12 -81q0 -44 10 -73q12 -38 42.5 -61t76.5 -23q43 0 74 21.5t43 62.5z" />
    <glyph glyph-name="seven" unicode="7" horiz-adv-x="473" 
d="M151 0q-5 0 -7.5 3.5t-0.5 8.5l231 621q1 2 0 3.5t-3 1.5h-270q-4 0 -4 -4v-46q0 -10 -10 -10h-41q-10 0 -10 10l1 102q0 10 10 10h394q10 0 10 -10v-46q0 -4 -2 -12l-230 -624q-3 -8 -12 -8h-56z" />
    <glyph glyph-name="eight" unicode="8" horiz-adv-x="521" 
d="M441 294q19 -41 19 -98q0 -69 -29 -117q-24 -41 -68 -64t-102 -23q-60 0 -105 23.5t-69 68.5q-28 50 -28 113q0 53 21 100q23 50 73 75q5 2 0 5q-33 19 -54 51q-30 43 -30 98q0 56 30 102q24 39 66.5 60.5t95.5 21.5q55 0 96 -21.5t65 -60.5q29 -47 29 -102t-30 -100
q-18 -27 -53 -49q-5 -3 0 -5q51 -25 73 -78zM155 585q-16 -30 -16 -59q0 -42 21 -73q16 -25 41.5 -38t58.5 -13t59 13.5t42 38.5q19 27 19 73q0 33 -15 60q-15 28 -42 44.5t-64 16.5q-35 0 -62 -17t-42 -46zM364 106q25 38 25 95q0 47 -16 81q-30 66 -113 66q-79 0 -110 -62
q-18 -32 -18 -86q0 -56 22 -91q34 -55 107 -55q71 0 103 52z" />
    <glyph glyph-name="nine" unicode="9" horiz-adv-x="521" 
d="M444 577q12 -40 12 -94v-312q0 -82 -54 -130.5t-141 -48.5q-84 0 -136.5 47.5t-52.5 123.5v14q0 10 10 10h51q10 0 10 -10v-8q0 -51 33 -83t85 -32q54 0 89 33.5t35 88.5v146q0 2 -2 2.5t-3 -1.5q-44 -59 -132 -59q-63 0 -105.5 28t-64.5 79q-21 42 -21 114q0 61 15 100
q21 58 67.5 90t114.5 32q72 0 121.5 -34.5t68.5 -95.5zM257 326q44 0 74.5 21.5t42.5 59.5q11 29 11 81q0 43 -9 73q-12 38 -43 61t-76 23q-43 0 -74 -21.5t-44 -62.5q-11 -28 -11 -76q0 -51 13 -80q12 -36 42 -57.5t74 -21.5z" />
    <glyph glyph-name="colon" unicode=":" horiz-adv-x="339" 
d="M169 350q-25 0 -40.5 16t-15.5 40q0 25 15.5 40.5t40.5 15.5q24 0 40 -15.5t16 -40.5q0 -24 -16 -40t-40 -16zM169 13q-25 0 -40.5 16t-15.5 40q0 25 15.5 40.5t40.5 15.5q24 0 40 -15.5t16 -40.5q0 -24 -16 -40t-40 -16z" />
    <glyph glyph-name="semicolon" unicode=";" horiz-adv-x="311" 
d="M158 347q-27 0 -44.5 17t-17.5 43q0 24 19 41t43 17t43.5 -17t19.5 -41q0 -25 -18.5 -42.5t-44.5 -17.5zM110 -75q-5 0 -8 3.5t-2 7.5l28 206q1 9 10 9h46q5 0 7.5 -3t1.5 -8l-41 -206q-1 -9 -11 -9h-31z" />
    <glyph glyph-name="less" unicode="&#x3c;" horiz-adv-x="500" 
d="M461 55q0 -5 -3.5 -7.5t-8.5 -0.5l-403 188q-7 4 -7 11v48q0 7 7 11l403 188l4 1q8 0 8 -9v-49q0 -8 -8 -11l-337 -152q-6 -3 0 -6l337 -152q8 -3 8 -11v-49z" />
    <glyph glyph-name="equal" unicode="=" horiz-adv-x="500" 
d="M49 390q-10 0 -10 10v42q0 10 10 10h402q10 0 10 -10v-42q0 -10 -10 -10h-402zM49 181q-10 0 -10 10v42q0 10 10 10h402q10 0 10 -10v-42q0 -10 -10 -10h-402z" />
    <glyph glyph-name="greater" unicode="&#x3e;" horiz-adv-x="500" 
d="M47 46q-8 0 -8 9v49q0 8 8 11l337 152q6 3 0 6l-337 152q-8 3 -8 11v49q0 5 3.5 7.5t8.5 0.5l403 -188q7 -4 7 -11v-48q0 -7 -7 -11l-403 -188z" />
    <glyph glyph-name="question" unicode="?" horiz-adv-x="461" 
d="M186 200q-10 0 -10 10v59q0 43 21 70t64 61q29 23 46 39.5t28.5 39.5t11.5 54q0 50 -32 80.5t-85 30.5q-54 0 -86.5 -31t-32.5 -81v-31q0 -10 -10 -10l-51 3q-10 0 -10 10v28q0 79 53 128t139 49q84 0 135 -48t51 -128q0 -44 -14.5 -76t-34.5 -52t-53 -46
q-34 -26 -51 -46t-17 -48v-55q0 -10 -10 -10h-52zM211 2q-24 0 -40 16t-16 40q0 25 16 40.5t40 15.5q25 0 40.5 -15.5t15.5 -40.5q0 -24 -16 -40t-40 -16z" />
    <glyph glyph-name="at" unicode="@" horiz-adv-x="827" 
d="M454 617q91 0 161.5 -37t109 -104t38.5 -153q0 -16 -4 -52q-12 -92 -57 -143t-113 -51q-35 0 -61.5 13t-40.5 38q-1 5 -5 1q-19 -25 -46.5 -38t-59.5 -13q-54 0 -88 26.5t-39 69.5q-1 6 -1 20q0 29 6 66q6 57 18 87q16 44 53 70t83 26q28 0 50 -9.5t36 -27.5q2 -2 3.5 -2
t1.5 3l3 22q1 9 10 9h32q5 0 8 -3.5t2 -7.5l-28 -209q-1 -5 -1 -16q0 -34 19 -56t50 -22q42 0 71.5 38t39.5 106q4 24 4 53q0 76 -33 132t-91.5 86t-134.5 30q-86 0 -162.5 -39t-124 -117t-47.5 -189q0 -78 30 -139t87 -95t136 -34q50 0 96.5 12t71.5 29q3 2 7 2t7 -4
l16 -20q3 -3 3 -7t-5 -7q-32 -25 -88.5 -39.5t-114.5 -14.5q-91 0 -159 40.5t-104 113.5t-36 168q0 120 56 208t146 134t189 46zM465 189q5 11 8 24t7 48q5 52 4 71q-1 28 -20.5 47t-51.5 19t-56.5 -18t-36.5 -47q-5 -10 -8 -27t-7 -47q-5 -36 -5 -54q0 -11 1 -16
q2 -29 23 -47t54 -18q32 0 55 18t33 47z" />
    <glyph glyph-name="A" unicode="A" horiz-adv-x="607" 
d="M509 0q-9 0 -12 8l-40 126q-1 3 -4 3h-299q-3 0 -4 -3l-40 -126q-3 -8 -12 -8h-54q-11 0 -8 11l221 681q3 8 12 8h68q9 0 12 -8l222 -681l1 -4q0 -7 -9 -7h-54zM170 200q-1 -2 0.5 -3.5t3.5 -1.5h258q2 0 3.5 1.5t0.5 3.5l-130 408q-1 2 -3 2t-3 -2z" />
    <glyph glyph-name="B" unicode="B" horiz-adv-x="627" 
d="M445 365q-5 -3 0 -6q54 -22 82 -65t28 -104q0 -90 -57.5 -140t-151.5 -50h-242q-10 0 -10 10v680q0 10 10 10h235q97 0 152.5 -48t55.5 -135q0 -55 -26.5 -93.5t-75.5 -58.5zM169 638q-4 0 -4 -4v-240q0 -4 4 -4h170q63 0 100.5 33t37.5 88q0 58 -37.5 92.5t-100.5 34.5
h-170zM346 63q63 0 100.5 36t37.5 97t-38.5 97.5t-103.5 36.5h-173q-4 0 -4 -4v-259q0 -4 4 -4h177z" />
    <glyph glyph-name="C" unicode="C" horiz-adv-x="607" 
d="M307 -9q-70 0 -123 27.5t-82.5 78t-29.5 116.5v275q0 65 29.5 115t82.5 77.5t123 27.5t123 -27t82.5 -76t29.5 -113q0 -5 -3 -8t-7 -3l-51 -3q-10 0 -10 9v3q0 71 -45 113.5t-119 42.5t-119 -43t-45 -113v-280q0 -70 45 -113t119 -43t119 42.5t45 113.5v2q0 9 10 9l51 -3
q10 0 10 -9q0 -65 -29.5 -114.5t-82.5 -76.5t-123 -27z" />
    <glyph glyph-name="D" unicode="D" horiz-adv-x="618" 
d="M104 0q-10 0 -10 10v680q0 10 10 10h236q99 0 157.5 -52t58.5 -141v-314q0 -89 -58.5 -141t-157.5 -52h-236zM165 66q0 -4 4 -4h174q65 0 103.5 38t38.5 102v295q0 65 -38 103t-104 38h-174q-4 0 -4 -4v-568z" />
    <glyph glyph-name="E" unicode="E" horiz-adv-x="605" 
d="M547 648q0 -10 -10 -10h-368q-4 0 -4 -4v-247q0 -4 4 -4h258q10 0 10 -10v-42q0 -10 -10 -10h-258q-4 0 -4 -4v-251q0 -4 4 -4h368q10 0 10 -10v-42q0 -10 -10 -10h-433q-10 0 -10 10v680q0 10 10 10h433q10 0 10 -10v-42z" />
    <glyph glyph-name="F" unicode="F" horiz-adv-x="568" 
d="M546 648q0 -10 -10 -10h-367q-4 0 -4 -4v-247q0 -4 4 -4h257q10 0 10 -10v-42q0 -10 -10 -10h-257q-4 0 -4 -4v-307q0 -10 -10 -10h-51q-10 0 -10 10v680q0 10 10 10h432q10 0 10 -10v-42z" />
    <glyph glyph-name="G" unicode="G" horiz-adv-x="613" 
d="M307 -8q-70 0 -123 27.5t-82.5 77.5t-29.5 115v276q0 65 29.5 115t82.5 77.5t123 27.5q69 0 122.5 -27t82.5 -75.5t29 -109.5v-13q0 -10 -10 -10h-51q-10 0 -10 10v12q0 67 -44.5 109t-118.5 42t-119 -43t-45 -113v-280q0 -70 46 -113t121 -43q73 0 116.5 40t43.5 107v91
q0 4 -4 4h-147q-10 0 -10 10v42q0 10 10 10h212q10 0 10 -10v-129q0 -107 -63.5 -167t-170.5 -60z" />
    <glyph glyph-name="H" unicode="H" horiz-adv-x="654" 
d="M492 690q0 10 10 10h51q10 0 10 -10v-680q0 -10 -10 -10h-51q-10 0 -10 10v307q0 4 -4 4h-319q-4 0 -4 -4v-307q0 -10 -10 -10h-51q-10 0 -10 10v680q0 10 10 10h51q10 0 10 -10v-303q0 -4 4 -4h319q4 0 4 4v303z" />
    <glyph glyph-name="I" unicode="I" horiz-adv-x="259" 
d="M104 0q-10 0 -10 10v680q0 10 10 10h51q10 0 10 -10v-680q0 -10 -10 -10h-51z" />
    <glyph glyph-name="J" unicode="J" horiz-adv-x="577" 
d="M256 -8q-68 0 -119.5 26t-79.5 73.5t-28 109.5v76q0 10 10 10h51q10 0 10 -10v-76q0 -66 42.5 -106.5t113.5 -40.5q70 0 113 40.5t43 106.5v489q0 10 10 10h51q10 0 10 -10v-489q0 -62 -28.5 -109.5t-80 -73.5t-118.5 -26z" />
    <glyph glyph-name="K" unicode="K" horiz-adv-x="611" 
d="M104 0q-10 0 -10 10v680q0 10 10 10h51q10 0 10 -10v-339q0 -2 2 -3t3 1l316 346q4 5 12 5h58q6 0 7.5 -4t-2.5 -8l-245 -277q-2 -2 0 -6l266 -393l2 -5q0 -7 -9 -7h-58q-8 0 -12 6l-237 348q-1 2 -3 2t-3 -1l-95 -101q-2 -2 -2 -5v-239q0 -10 -10 -10h-51z" />
    <glyph glyph-name="L" unicode="L" horiz-adv-x="568" 
d="M104 0q-10 0 -10 10v680q0 10 10 10h51q10 0 10 -10v-624q0 -4 4 -4h353q10 0 10 -10v-42q0 -10 -10 -10h-418z" />
    <glyph glyph-name="M" unicode="M" horiz-adv-x="715" 
d="M548 693q5 7 12 7h52q10 0 10 -10v-680q0 -10 -10 -10h-51q-10 0 -10 10v556q0 3 -2 4t-3 -2l-163 -250q-5 -7 -12 -7h-26q-7 0 -12 6l-163 248q-1 3 -3 2t-2 -4v-553q0 -10 -10 -10h-51q-10 0 -10 10v680q0 10 10 10h52q8 0 12 -6l188 -285q1 -1 3 -1t3 1z" />
    <glyph glyph-name="N" unicode="N" horiz-adv-x="676" 
d="M511 690q0 10 10 10h51q10 0 10 -10v-680q0 -10 -10 -10h-50q-7 0 -12 7l-341 555q-1 3 -3 2.5t-2 -3.5l1 -551q0 -10 -10 -10h-51q-10 0 -10 10v680q0 10 10 10h50q7 0 12 -7l341 -555q1 -3 3 -2.5t2 3.5z" />
    <glyph glyph-name="O" unicode="O" horiz-adv-x="622" 
d="M310 -8q-71 0 -125 29t-83.5 81.5t-29.5 121.5v252q0 69 29.5 121.5t83.5 81.5t125 29t125.5 -29t84 -81.5t29.5 -121.5v-252q0 -69 -29.5 -121.5t-84 -81.5t-125.5 -29zM310 53q76 0 122 46t46 122v256q0 76 -46 122.5t-122 46.5q-75 0 -121 -46.5t-46 -122.5v-256
q0 -76 46 -122t121 -46z" />
    <glyph glyph-name="P" unicode="P" horiz-adv-x="592" 
d="M360 701q88 0 141.5 -54t53.5 -142q0 -87 -54.5 -140t-143.5 -53h-195q-4 0 -4 -4v-298q0 -10 -10 -10h-51q-10 0 -10 10v681q0 10 10 10h263zM352 371q59 0 96 36.5t37 96.5q0 61 -37 98t-96 37h-190q-4 0 -4 -4v-260q0 -4 4 -4h190z" />
    <glyph glyph-name="Q" unicode="Q" horiz-adv-x="576" 
d="M203 177q28 16 63 16q26 0 45.5 -6.5t35 -18.5t28.5 -28.5t26 -35.5q2 0 2 2q45 45 45 120v253q0 36 -11 67t-32 53t-51 34.5t-67 12.5t-67 -12.5t-51 -34.5t-32 -52.5t-11 -67.5v-253q0 -74 43 -119.5t118 -45.5q40 0 70 13q-14 24 -28 42t-32 30.5t-40.5 20t-53.5 10.5
zM437 48q26 -33 61 -47.5t76 -19.5q-33 -16 -67 -16q-33 0 -62.5 15t-53.5 41q-46 -21 -104 -21q-61 0 -116 26t-84 83q-15 26 -22 56t-7 64v249q0 53 16.5 95.5t47 72t72.5 45.5t93 16q53 0 95.5 -16.5t72.5 -47t46 -72.5t16 -93v-249q0 -53 -19 -100t-61 -81z" />
    <glyph glyph-name="R" unicode="R" horiz-adv-x="612" 
d="M502 0q-9 0 -12 7l-147 310q-1 3 -4 3h-170q-4 0 -4 -4v-306q0 -10 -10 -10h-51q-10 0 -10 10v680q0 10 10 10h259q86 0 139 -53.5t53 -139.5q0 -70 -38 -119t-103 -63q-4 -2 -2 -5l150 -308q1 -2 1 -5q0 -7 -8 -7h-53zM169 638q-4 0 -4 -4v-253q0 -4 4 -4h186
q58 0 94 36t36 94t-36 94.5t-94 36.5h-186z" />
    <glyph glyph-name="S" unicode="S" horiz-adv-x="584" 
d="M296 -8q-113 0 -178.5 51t-65.5 136v31q0 10 10 10h49q10 0 10 -10v-27q0 -58 48 -93.5t133 -35.5q77 0 117 32.5t40 86.5q0 35 -18.5 60t-57 47t-108.5 51q-75 30 -116.5 52.5t-67 58t-25.5 89.5q0 84 58.5 130.5t160.5 46.5q111 0 175 -52t64 -138v-22q0 -10 -10 -10
h-50q-10 0 -10 10v18q0 58 -45.5 95t-126.5 37q-71 0 -109 -29t-38 -84q0 -36 18.5 -59.5t53 -41t106.5 -45.5q73 -30 117.5 -56t72 -63.5t27.5 -91.5q0 -84 -62 -134t-172 -50z" />
    <glyph glyph-name="T" unicode="T" horiz-adv-x="569" 
d="M516 700q10 0 10 -10v-43q0 -10 -10 -10h-196q-4 0 -4 -4v-623q0 -10 -10 -10h-51q-10 0 -10 10v623q0 4 -4 4h-188q-10 0 -10 10v43q0 10 10 10h463z" />
    <glyph glyph-name="U" unicode="U" horiz-adv-x="648" 
d="M324 -8q-70 0 -124 28t-84 78.5t-30 117.5v474q0 10 10 10h51q10 0 10 -10v-476q0 -71 46 -115.5t121 -44.5t121 44.5t46 115.5v476q0 10 10 10h51q10 0 10 -10v-474q0 -67 -29.5 -117.5t-83.5 -78.5t-125 -28z" />
    <glyph glyph-name="V" unicode="V" horiz-adv-x="589" 
d="M266 0q-9 0 -12 8l-218 681l-1 4q0 7 9 7h54q9 0 12 -8l182 -586q1 -2 3 -2t3 2l182 586q3 8 12 8h53q11 0 8 -11l-220 -681q-3 -8 -12 -8h-55z" />
    <glyph glyph-name="W" unicode="W" horiz-adv-x="878" 
d="M231 0q-8 0 -11 8l-192 681l-1 3q0 8 10 8h53q9 0 11 -8l152 -548q1 -2 2.5 -2t2.5 2l141 547q2 9 11 9h54q9 0 11 -9l147 -547q1 -2 2.5 -2t2.5 2l152 548q2 8 11 8h51q5 0 7.5 -3t1.5 -8l-189 -681q-2 -8 -11 -8h-53q-9 0 -11 9l-146 560q-1 2 -2.5 2t-2.5 -2
l-143 -560q-1 -9 -11 -9h-50z" />
    <glyph glyph-name="X" unicode="X" horiz-adv-x="589" 
d="M46 0q-6 0 -7.5 3.5t1.5 8.5l210 335q2 3 0 6l-210 335q-2 4 -2 6q0 6 8 6h56q7 0 12 -7l178 -285q1 -1 3 -1t3 1l177 285q5 7 12 7h55q6 0 7.5 -3.5t-1.5 -8.5l-209 -336q-1 -3 0 -6l209 -334q2 -4 2 -6q0 -6 -8 -6h-55q-7 0 -12 7l-177 284q-1 2 -3 2t-3 -2l-178 -284
q-5 -7 -12 -7h-56z" />
    <glyph glyph-name="Y" unicode="Y" horiz-adv-x="567" 
d="M258 1q-10 0 -10 10v296q0 4 -1 5l-208 376q-2 4 -2 6q0 6 9 6h54q9 0 12 -7l168 -305q1 -1 3 -1t3 1l169 305q4 7 12 7h54q6 0 8 -3.5t-1 -8.5l-208 -376q-1 -1 -1 -5v-296q0 -10 -10 -10h-51z" />
    <glyph glyph-name="Z" unicode="Z" horiz-adv-x="549" 
d="M55 0q-10 0 -10 10v48q0 5 4 13l366 562q1 1 0 3t-3 2h-357q-10 0 -10 10v42q0 10 10 10h431q10 0 10 -10v-48q0 -5 -4 -13l-365 -562q-1 -1 0 -3t3 -2h356q10 0 10 -10v-42q0 -10 -10 -10h-431z" />
    <glyph glyph-name="bracketleft" unicode="[" horiz-adv-x="380" 
d="M42 -121q-10 0 -10 10v875q0 10 10 10h193q10 0 10 -10v-42q0 -10 -10 -10h-128q-4 0 -4 -4v-763q0 -4 4 -4h129q10 0 10 -10v-42q0 -10 -10 -10h-194z" />
    <glyph glyph-name="backslash" unicode="\" horiz-adv-x="400" 
d="M369 7q0 -7 -9 -7h-50q-9 0 -12 8l-222 681l-1 4q0 7 9 7h50q9 0 12 -8l222 -681z" />
    <glyph glyph-name="bracketright" unicode="]" horiz-adv-x="380" 
d="M347 -111q0 -10 -10 -10h-193q-10 0 -10 10v42q0 10 10 10h128q4 0 4 4v763q0 4 -4 4h-127q-10 0 -10 10v42q0 10 10 10h192q10 0 10 -10v-875z" />
    <glyph glyph-name="asciicircum" unicode="^" horiz-adv-x="450" 
d="M51 307q-5 0 -7 3.5t0 8.5l146 373q3 8 11 8h47q8 0 11 -8l147 -373q1 -2 1 -5q0 -7 -8 -7h-42q-8 0 -11 8l-118 308q-1 3 -3 3t-3 -3l-118 -308q-3 -8 -11 -8h-42z" />
    <glyph glyph-name="underscore" unicode="_" horiz-adv-x="484" 
d="M39 0q-10 0 -10 10v37q0 10 10 10h406q10 0 10 -10v-37q0 -10 -10 -10h-406z" />
    <glyph glyph-name="grave" unicode="`" horiz-adv-x="195" 
d="M160 584q2 -4 2 -6q0 -6 -9 -6h-36q-7 0 -12 7l-68 109q-2 4 -2 6q0 6 8 6h45q9 0 12 -7z" />
    <glyph glyph-name="a" unicode="a" horiz-adv-x="511" 
d="M255 514q90 0 139 -46t49 -122v-336q0 -10 -10 -10h-51q-10 0 -10 10v41q0 2 -1.5 3t-3.5 -1q-25 -30 -65 -45.5t-89 -15.5q-71 0 -119 36t-48 110q0 75 54.5 118.5t151.5 43.5h116q4 0 4 4v38q0 51 -28.5 80.5t-88.5 29.5q-48 0 -78 -18.5t-37 -51.5q-3 -10 -12 -9
l-54 7q-11 2 -9 8q8 56 60 91t130 35zM227 53q59 0 102 29.5t43 79.5v78q0 4 -4 4h-105q-66 0 -106 -27t-40 -75q0 -44 30.5 -66.5t79.5 -22.5z" />
    <glyph glyph-name="b" unicode="b" horiz-adv-x="546" 
d="M469 377q12 -45 12 -124q0 -82 -14 -127q-19 -62 -66 -98t-117 -36q-40 0 -73 16t-55 46q-1 2 -3 1.5t-2 -2.5v-43q0 -10 -10 -10h-51q-10 0 -10 10v680q0 10 10 10h51q10 0 10 -10v-236q0 -2 1.5 -2.5t3.5 1.5q22 29 55 45t73 16q71 0 119 -36.5t66 -100.5zM392 132
q10 21 14 47.5t4 73.5q0 49 -5.5 76.5t-17.5 49.5q-13 33 -42 53t-69 20q-38 0 -65.5 -20.5t-39.5 -54.5q-10 -21 -14.5 -48t-4.5 -76q0 -48 4.5 -74.5t13.5 -47.5q13 -35 40 -56t67 -21q42 0 72.5 21t42.5 57z" />
    <glyph glyph-name="c" unicode="c" horiz-adv-x="520" 
d="M271 -8q-72 0 -123.5 37.5t-70.5 101.5q-13 44 -13 124q0 72 13 122q18 62 70 99.5t124 37.5q73 0 126.5 -37t69.5 -92q5 -18 6 -30v-2q0 -7 -9 -9l-50 -7h-2q-7 0 -9 9l-3 15q-9 38 -44 64.5t-85 26.5t-83.5 -26.5t-43.5 -70.5q-9 -38 -9 -101q0 -66 9 -102
q10 -45 43.5 -71.5t83.5 -26.5q49 0 84.5 25.5t44.5 65.5v4l1 4q1 10 12 8l49 -8q10 -2 9 -11l-4 -20q-15 -58 -69 -94t-127 -36z" />
    <glyph glyph-name="d" unicode="d" horiz-adv-x="546" 
d="M394 690q0 10 10 10h51q10 0 10 -10v-680q0 -10 -10 -10h-51q-10 0 -10 10v42q0 2 -1.5 2.5t-3.5 -1.5q-22 -29 -54.5 -45t-72.5 -16q-70 0 -117.5 36t-65.5 98q-14 45 -14 127q0 83 12 124q18 64 66 100.5t119 36.5q39 0 72 -15.5t55 -44.5q2 -2 3.5 -1.5t1.5 2.5v235z
M376 131q9 20 13 47t4 75t-4 75.5t-14 48.5q-12 34 -39.5 54.5t-65.5 20.5q-40 0 -69 -20t-42 -53q-12 -22 -17.5 -49.5t-5.5 -76.5q0 -47 4 -73.5t14 -47.5q12 -36 42.5 -57t72.5 -21q40 0 67 21t40 56z" />
    <glyph glyph-name="e" unicode="e" horiz-adv-x="533" 
d="M468 338q4 -28 4 -70v-32q0 -10 -10 -10h-323q-4 0 -4 -4q2 -55 6 -71q11 -45 47 -71t92 -26q42 0 74 19t50 54q6 9 14 4l39 -23q8 -5 4 -14q-25 -48 -75 -75.5t-115 -27.5q-71 1 -119 34t-69 92q-18 48 -18 138q0 42 1.5 68.5t7.5 47.5q17 65 68.5 104t124.5 39
q91 0 140 -46t61 -130zM267 452q-49 0 -81.5 -25.5t-42.5 -68.5q-6 -21 -8 -68q0 -4 4 -4h259q4 0 4 4q-2 45 -6 64q-11 45 -44.5 71.5t-84.5 26.5z" />
    <glyph glyph-name="f" unicode="f" horiz-adv-x="356" 
d="M280 638q-55 0 -75 -24.5t-20 -83.5v-20q0 -4 4 -4h112q10 0 10 -10v-45q0 -10 -10 -10h-112q-4 0 -4 -4v-427q0 -10 -10 -10h-50q-10 0 -10 10v427q0 4 -4 4h-67q-10 0 -10 10v45q0 10 10 10h67q4 0 4 4v24q0 62 14 97.5t48.5 52t96.5 16.5h29q10 0 10 -10v-42
q0 -10 -10 -10h-23z" />
    <glyph glyph-name="g" unicode="g" horiz-adv-x="535" 
d="M392 496q0 10 10 10h51q10 0 10 -10v-479q0 -112 -64.5 -164t-177.5 -52q-23 0 -35 1q-10 1 -10 11l2 46q0 5 3 7.5t7 1.5l27 -1q93 0 135 36.5t42 115.5v37q0 2 -1.5 2.5t-3.5 -1.5q-46 -60 -131 -60q-65 0 -115.5 35t-67.5 99q-12 41 -12 122q0 44 2.5 74t10.5 54
q18 60 65 96.5t113 36.5q89 0 135 -59q2 -2 3.5 -1t1.5 3v39zM387 153q3 15 4 37t1 64q0 51 -1 68.5t-5 32.5q-8 42 -39.5 69.5t-79.5 27.5q-47 0 -79.5 -27t-45.5 -70q-10 -32 -10 -100q0 -73 10 -101q10 -42 43.5 -69.5t81.5 -27.5q49 0 80.5 27t39.5 69z" />
    <glyph glyph-name="h" unicode="h" 
d="M290 513q80 0 127.5 -47t47.5 -126v-330q0 -10 -10 -10h-51q-10 0 -10 10v316q0 55 -33.5 90t-86.5 35q-55 0 -89 -34t-34 -89v-318q0 -10 -10 -10h-51q-10 0 -10 10v680q0 10 10 10h51q10 0 10 -10v-237q0 -2 1.5 -3t2.5 1q44 62 135 62z" />
    <glyph glyph-name="i" unicode="i" horiz-adv-x="255" 
d="M128 598q-24 0 -40 16t-16 40q0 25 16 40.5t40 15.5t40 -15.5t16 -40.5q0 -24 -16 -40t-40 -16zM100 1q-10 0 -10 10v486q0 10 10 10h51q10 0 10 -10v-486q0 -10 -10 -10h-51z" />
    <glyph glyph-name="j" unicode="j" horiz-adv-x="245" 
d="M118 598q-25 0 -40.5 16t-15.5 40q0 25 15.5 40.5t40.5 15.5q24 0 40 -15.5t16 -40.5q0 -24 -16 -40t-40 -16zM-25 -208q-10 0 -10 10v41q0 10 10 10q107 1 107 103v540q0 10 10 10h51q10 0 10 -10v-540q0 -85 -42 -124t-136 -40z" />
    <glyph glyph-name="k" unicode="k" horiz-adv-x="501" 
d="M90 0q-10 0 -10 10v680q0 10 10 10h51q10 0 10 -10v-409q0 -2 1.5 -3t3.5 1l212 222q5 5 12 5h60q6 0 8 -4t-2 -8l-128 -142q-2 -2 -1 -5l153 -335l1 -4q0 -8 -9 -8h-54q-8 0 -11 8l-129 292q-2 4 -5 1l-110 -116q-2 -2 -2 -5v-170q0 -10 -10 -10h-51z" />
    <glyph glyph-name="l" unicode="l" horiz-adv-x="230" 
d="M90 0q-10 0 -10 10v680q0 10 10 10h51q10 0 10 -10v-680q0 -10 -10 -10h-51z" />
    <glyph glyph-name="m" unicode="m" horiz-adv-x="827" 
d="M592 513q75 0 118.5 -45t43.5 -123v-335q0 -10 -10 -10h-50q-10 0 -10 10v321q0 55 -31.5 87.5t-82.5 32.5q-53 0 -85.5 -32t-32.5 -86v-323q0 -10 -10 -10h-51q-10 0 -10 10v321q0 55 -31 87.5t-83 32.5q-53 0 -84.5 -32t-31.5 -86v-323q0 -10 -10 -10h-51q-10 0 -10 10
v486q0 10 10 10h51q10 0 10 -10v-40q0 -2 1.5 -2.5t3.5 1.5q22 29 56.5 43.5t76.5 14.5q52 0 89 -21t56 -61q2 -5 5 0q22 41 62 61.5t91 20.5z" />
    <glyph glyph-name="n" unicode="n" 
d="M290 513q80 0 127.5 -47t47.5 -126v-330q0 -10 -10 -10h-51q-10 0 -10 10v316q0 55 -33.5 90t-86.5 35q-55 0 -89 -34t-34 -89v-318q0 -10 -10 -10h-51q-10 0 -10 10v486q0 10 10 10h51q10 0 10 -10v-43q0 -2 1.5 -3t2.5 1q44 62 135 62z" />
    <glyph glyph-name="o" unicode="o" horiz-adv-x="545" 
d="M273 -8q-72 0 -124 37t-72 102q-14 46 -14 123t14 122q19 64 71 101t126 37q71 0 122.5 -37t70.5 -100q14 -43 14 -123q0 -81 -14 -123q-19 -65 -70.5 -102t-123.5 -37zM273 54q48 0 82 26.5t46 71.5q9 36 9 101q0 66 -8 101q-12 45 -46.5 71.5t-83.5 26.5t-83 -26.5
t-46 -71.5q-8 -35 -8 -101t8 -101q11 -45 45.5 -71.5t84.5 -26.5z" />
    <glyph glyph-name="p" unicode="p" horiz-adv-x="552" 
d="M473 380q15 -48 15 -127q0 -80 -13 -124q-18 -64 -65.5 -100.5t-119.5 -36.5q-39 0 -72 15.5t-55 44.5q-2 2 -3.5 1.5t-1.5 -2.5v-235q0 -10 -10 -10h-51q-10 0 -10 10v680q0 10 10 10h51q10 0 10 -10v-42q0 -2 1.5 -2.5t3.5 1.5q22 29 54.5 45t72.5 16q70 0 117.5 -36
t65.5 -98zM394 127q11 22 16.5 49.5t5.5 76.5q0 47 -4 73.5t-14 47.5q-12 36 -42.5 57t-72.5 21q-40 0 -67 -21t-40 -56q-9 -20 -13 -47t-4 -75t4 -75.5t14 -48.5q12 -34 39.5 -54.5t65.5 -20.5q40 0 69.5 20t42.5 53z" />
    <glyph glyph-name="q" unicode="q" horiz-adv-x="552" 
d="M394 496q0 10 10 10h51q10 0 10 -10v-680q0 -10 -10 -10h-51q-10 0 -10 10v235q0 2 -1.5 2.5t-3.5 -1.5q-22 -29 -55 -44.5t-72 -15.5q-71 0 -119 36.5t-66 100.5q-12 41 -12 124q0 82 14 127q18 62 65.5 98t117.5 36q40 0 72.5 -16t54.5 -45q2 -2 3.5 -1.5t1.5 2.5v42z
M375 129q10 21 14 48.5t4 75.5t-4 75t-13 47q-13 35 -40 56t-67 21q-42 0 -72.5 -21t-42.5 -57q-10 -21 -14 -47.5t-4 -73.5q0 -49 5.5 -76.5t17.5 -49.5q13 -33 42 -53t69 -20q38 0 65.5 20.5t39.5 54.5z" />
    <glyph glyph-name="r" unicode="r" horiz-adv-x="364" 
d="M284 511q33 0 57 -13q8 -4 6 -13l-11 -49q-3 -10 -13 -6q-17 7 -39 7l-13 -1q-52 -2 -86 -38.5t-34 -92.5v-295q0 -10 -10 -10h-51q-10 0 -10 10v486q0 10 10 10h51q10 0 10 -10v-61q0 -3 1.5 -3.5t2.5 1.5q21 37 53.5 57.5t75.5 20.5z" />
    <glyph glyph-name="s" unicode="s" horiz-adv-x="481" 
d="M246 -5q-56 0 -99.5 18t-67 48t-23.5 67v12q0 10 10 10h48q10 0 10 -10v-8q0 -33 34.5 -57.5t86.5 -24.5t84 23.5t32 59.5q0 25 -16.5 41t-39 25t-69.5 23q-56 16 -92 32t-60.5 44.5t-24.5 72.5q0 64 50 102t132 38q55 0 97.5 -18t65.5 -49.5t23 -70.5v-3q0 -10 -10 -10
h-47q-10 0 -10 10v3q0 34 -32.5 57t-87.5 23q-51 0 -82 -20.5t-31 -56.5q0 -34 30 -52t93 -36q58 -17 94 -32t62 -43.5t26 -74.5q0 -65 -51 -104t-135 -39z" />
    <glyph glyph-name="t" unicode="t" horiz-adv-x="364" 
d="M307 457q0 -10 -10 -10h-113q-4 0 -4 -4v-295q0 -48 21.5 -67.5t67.5 -19.5h25q10 0 10 -10v-41q0 -10 -10 -10q-12 -1 -37 -1q-72 0 -109 27t-37 100v317q0 4 -4 4h-61q-10 0 -10 10v39q0 10 10 10h61q4 0 4 4v116q0 10 10 10h49q10 0 10 -10v-116q0 -4 4 -4h113
q10 0 10 -10v-39z" />
    <glyph glyph-name="u" unicode="u" horiz-adv-x="536" 
d="M386 496q0 10 10 10h51q10 0 10 -10v-486q0 -10 -10 -10h-51q-10 0 -10 10v43q0 2 -2 3t-3 -1q-42 -62 -133 -62q-48 0 -88.5 19.5t-64 56.5t-23.5 89v338q0 10 10 10h51q10 0 10 -10v-317q0 -57 32 -90.5t87 -33.5q57 0 90.5 34t33.5 90v317z" />
    <glyph glyph-name="v" unicode="v" horiz-adv-x="475" 
d="M209 0q-9 0 -12 8l-164 487l-1 4q0 7 9 7h57q9 0 12 -8l125 -392q1 -2 3 -2t3 2l125 392q3 8 12 8l57 -1q11 0 8 -11l-164 -486q-3 -8 -12 -8h-58z" />
    <glyph glyph-name="w" unicode="w" horiz-adv-x="721" 
d="M185 0q-8 0 -11 8l-142 487l-1 3q0 8 10 8h52q9 0 11 -9l106 -394q1 -2 2.5 -2t2.5 2l108 394q2 9 11 9h48q9 0 11 -8l109 -394q1 -2 3 -2t3 2l109 393q2 9 11 9l52 -1q5 0 7.5 -3t1.5 -8l-144 -486q-3 -8 -11 -8h-53q-8 0 -11 8l-109 374q-1 2 -2.5 2t-2.5 -2l-106 -374
q-3 -8 -11 -8h-54z" />
    <glyph glyph-name="x" unicode="x" horiz-adv-x="477" 
d="M37 0q-6 0 -8.5 4t1.5 8l167 238q2 3 0 6l-167 238q-2 2 -2 5q0 7 9 7h54q8 0 12 -6l131 -189q1 -1 3 -1t3 1l130 189q4 6 12 6h59q6 0 8 -3.5t-2 -8.5l-167 -238q-1 -3 0 -6l167 -238q2 -2 2 -6q0 -2 -2 -4t-6 -2h-55q-8 0 -12 6l-130 189q-1 2 -3 2t-3 -2l-132 -189
q-4 -6 -12 -6h-57z" />
    <glyph glyph-name="y" unicode="y" horiz-adv-x="461" 
d="M57 -200q-7 0 -7 10v40q0 10 10 10h4q39 1 60.5 11.5t37 39t33.5 86.5q2 4 0 6l-169 492l-1 4q0 7 9 7h53q9 0 12 -8l130 -404q1 -2 3 -2t3 2l128 404q3 8 12 8h52q11 0 8 -11l-185 -539q-24 -67 -45 -99t-52.5 -44.5t-88.5 -12.5h-7z" />
    <glyph glyph-name="z" unicode="z" horiz-adv-x="445" 
d="M44 0q-10 0 -10 10v48q0 7 4 12l284 366q2 2 1 3.5t-3 1.5h-272q-10 0 -10 10v45q0 10 10 10h351q10 0 10 -10v-48q0 -7 -4 -12l-287 -366q-2 -2 -1 -3.5t3 -1.5h279q10 0 10 -10v-45q0 -10 -10 -10h-355z" />
    <glyph glyph-name="braceleft" unicode="{" horiz-adv-x="302" 
d="M197 -121q-53 0 -78 27.5t-25 86.5v217q0 43 -12.5 64t-40.5 26q-9 2 -9 10v40q0 9 9 10q28 4 40.5 25.5t12.5 63.5v212q0 58 25 85.5t78 27.5h63q10 0 10 -10v-42q0 -10 -10 -10h-38q-29 0 -43 -18t-14 -56v-194q0 -46 -11.5 -72.5t-37.5 -39.5q-5 -2 0 -5
q26 -13 37.5 -39.5t11.5 -72.5v-199q0 -75 57 -75h38q10 0 10 -10v-42q0 -10 -10 -10h-63z" />
    <glyph glyph-name="bar" unicode="|" horiz-adv-x="166" 
d="M57 -80q-10 0 -10 10v820q0 10 10 10h51q10 0 10 -10v-820q0 -10 -10 -10h-51z" />
    <glyph glyph-name="braceright" unicode="}" horiz-adv-x="302" 
d="M42 -121q-10 0 -10 10v42q0 10 10 10h38q57 0 57 75v199q0 46 12 72.5t38 39.5q5 3 0 5q-26 13 -38 39.5t-12 72.5v194q0 38 -14 56t-43 18h-38q-10 0 -10 10v42q0 10 10 10h63q53 0 78 -27.5t25 -85.5v-212q0 -42 13 -63t40 -26q9 -1 9 -10v-40q0 -8 -9 -10
q-27 -5 -40 -26.5t-13 -63.5v-217q0 -59 -25 -86.5t-78 -27.5h-63z" />
    <glyph glyph-name="asciitilde" unicode="~" horiz-adv-x="501" 
d="M345 231q-30 0 -51 8.5t-51 25.5q-23 12 -40.5 19t-38.5 7q-49 0 -76 -41q-2 -4 -6 -5t-8 2l-28 19q-7 6 -3 13q15 34 47 54.5t72 20.5q25 0 43.5 -6.5t42.5 -19.5q5 -3 22.5 -13t35.5 -15.5t36 -5.5q22 0 35.5 10t30.5 30q6 8 14 3l32 -21q8 -6 4 -13
q-19 -33 -47.5 -52.5t-65.5 -19.5z" />
    <glyph glyph-name="uni00A0" unicode="&#xa0;" horiz-adv-x="200" 
 />
    <glyph glyph-name="exclamdown" unicode="&#xa1;" horiz-adv-x="319" 
d="M157 708q25 0 40.5 -16t15.5 -40q0 -25 -15.5 -40.5t-40.5 -15.5q-24 0 -39.5 15.5t-15.5 40.5q0 24 15.5 40t39.5 16zM131 473q0 10 10 10h40q10 0 10 -10l6 -451q0 -10 -10 -10h-51q-10 0 -10 10z" />
    <glyph glyph-name="cent" unicode="&#xa2;" horiz-adv-x="520" 
d="M400 239l1 4q1 10 12 8l49 -8q10 -2 9 -11l-4 -20q-14 -53 -60.5 -87.5t-110.5 -41.5q-4 0 -4 -4l1 -71q0 -10 -10 -10h-44q-10 0 -10 10l1 73q0 4 -4 5q-56 11 -94.5 46.5t-54.5 88.5q-13 44 -13 124q0 72 13 122q15 52 54 87t94 45q4 1 4 5l-1 73q0 10 10 10h44
q10 0 10 -10l-1 -70q0 -4 4 -4q65 -7 111 -42.5t61 -85.5q5 -18 6 -30v-2q0 -7 -9 -9l-50 -7h-2q-7 0 -9 9l-3 15q-9 38 -44 64.5t-85 26.5t-83.5 -26.5t-43.5 -70.5q-9 -38 -9 -101q0 -66 9 -102q10 -45 43.5 -71.5t83.5 -26.5q49 0 84.5 25.5t44.5 65.5v4z" />
    <glyph glyph-name="sterling" unicode="&#xa3;" horiz-adv-x="606" 
d="M210 67q-3 -5 2 -5h350q10 0 10 -10v-42q0 -10 -10 -10h-428q-10 0 -10 10v44q0 8 7 12q25 15 39 47t14 74v117q0 4 -4 4h-76q-10 0 -10 10v39q0 10 10 10h76q4 0 4 4v141q0 92 54 144t149 52q66 0 111 -34.5t66 -98.5l1 -4q0 -6 -8 -8l-49 -9h-3q-6 0 -9 7
q-15 44 -42.5 64.5t-68.5 20.5q-62 0 -96 -34t-34 -99v-142q0 -4 4 -4h192q10 0 10 -10v-39q0 -10 -10 -10h-192q-4 0 -4 -4v-115q0 -79 -45 -122z" />
    <glyph glyph-name="currency" unicode="&#xa4;" horiz-adv-x="521" 
d="M456 301q0 -63 -36 -112q-2 -3 1 -6l65 -65q3 -3 3 -6q0 -4 -4 -8l-32 -28q-3 -3 -6 -3q-4 0 -8 4l-62 62q-3 3 -6 1q-50 -36 -114 -36q-61 0 -110 33q-3 2 -6 -1l-59 -59q-3 -3 -7 -3.5t-7 2.5l-32 28q-7 8 -1 14l61 60q3 3 1 6q-39 51 -39 117q0 64 36 114q2 3 -1 6
l-64 64q-3 3 -3 6q0 4 4 8l31 28q3 3 6 3q4 0 8 -4l61 -61q3 -3 6 -1q50 36 115 36t118 -40q3 -2 6 1l65 65q3 3 7 3.5t7 -2.5l32 -28q8 -7 1 -14l-69 -68q-3 -3 -1 -6q33 -49 33 -110zM120 301q0 -36 18.5 -67t50 -49.5t68.5 -18.5t68 18t50 49t19 68t-19 68.5t-50.5 50
t-67.5 18.5q-37 0 -68.5 -18.5t-50 -50t-18.5 -68.5z" />
    <glyph glyph-name="yen" unicode="&#xa5;" horiz-adv-x="688" 
d="M583 700q6 0 8 -3.5t-1 -8.5l-190 -344q-1 -2 -0.5 -3.5t2.5 -1.5h117q10 0 10 -10v-23q0 -10 -10 -10h-134q-4 0 -4 -4v-82q0 -4 4 -4h134q10 0 10 -10v-24q0 -10 -10 -10h-134q-4 0 -4 -4v-147q0 -10 -10 -10h-51q-10 0 -10 10v147q0 4 -4 4h-139q-10 0 -10 10v24
q0 10 10 10h139q4 0 4 4v82q0 4 -4 4h-139q-10 0 -10 10v23q0 10 10 10h122q2 0 2.5 1.5t-0.5 3.5l-190 344q-2 4 -2 6q0 6 9 6h54q9 0 12 -7l168 -305q1 -1 3 -1t3 1l169 305q4 7 12 7h54z" />
    <glyph glyph-name="brokenbar" unicode="&#xa6;" horiz-adv-x="166" 
d="M57 398q-10 0 -10 10v342q0 10 10 10h51q10 0 10 -10v-342q0 -10 -10 -10h-51zM57 -80q-10 0 -10 10v342q0 10 10 10h51q10 0 10 -10v-342q0 -10 -10 -10h-51z" />
    <glyph glyph-name="section" unicode="&#xa7;" horiz-adv-x="453" 
d="M224 -207q-73 0 -116 44t-45 119l-1 23q0 10 10 10h51q10 0 10 -10v-13q1 -52 26.5 -82t67.5 -30q41 0 68 30t27 73q0 36 -18 58.5t-43 34t-67 25.5q-44 15 -72.5 32.5t-46.5 47.5q-23 38 -23 88q0 55 27 97q30 45 80 58q3 1 3 2t-3 2q-43 18 -71 57.5t-28 89.5
q0 42 21 78.5t59 58t87 21.5q71 0 116.5 -44.5t47.5 -114.5v-17q0 -10 -10 -10h-51q-10 0 -10 10v11q0 45 -26.5 74.5t-66.5 29.5q-42 0 -69 -31t-27 -74q0 -44 32 -71t91 -46q33 -10 61 -24.5t49 -39.5q34 -41 34 -105q0 -58 -25 -98q-13 -23 -32.5 -38.5t-43.5 -20.5
q-5 -1 -1 -4q46 -20 72 -56t26 -87q0 -45 -22 -81t-60.5 -56.5t-87.5 -20.5zM225 138q59 0 86 44q16 26 16 66q0 46 -21 73q-30 38 -80 38q-27 0 -50.5 -14.5t-36.5 -37.5q-16 -29 -16 -62q0 -39 16 -62q29 -45 86 -45z" />
    <glyph glyph-name="dieresis" unicode="&#xa8;" horiz-adv-x="341" 
d="M256 601q-25 0 -40.5 16t-15.5 40q0 25 15.5 40.5t40.5 15.5q24 0 40 -15.5t16 -40.5q0 -24 -16 -40t-40 -16zM85 601q-25 0 -40.5 16t-15.5 40q0 25 15.5 40.5t40.5 15.5q24 0 40 -15.5t16 -40.5q0 -24 -16 -40t-40 -16z" />
    <glyph glyph-name="copyright" unicode="&#xa9;" horiz-adv-x="869" 
d="M434 -8q-103 0 -185.5 46.5t-129.5 128.5t-47 183t47 183t129.5 128.5t185.5 46.5t186 -46.5t129.5 -128.5t46.5 -183t-46.5 -183t-129.5 -128.5t-186 -46.5zM434 43q88 0 158.5 40t110.5 110t40 156q0 87 -40 157.5t-110.5 110.5t-158.5 40q-89 0 -159.5 -40
t-110 -110.5t-39.5 -157.5q0 -86 39.5 -156t110 -110t159.5 -40zM435 171q-50 0 -80 28t-30 75v153q0 47 30 74.5t80 27.5t80 -27t30 -72v-1q0 -10 -10 -10l-24 1q-10 0 -10 10v1q0 27 -18.5 43.5t-47.5 16.5q-30 0 -48 -16.5t-18 -43.5v-162q0 -27 18 -43.5t48 -16.5
q29 0 47.5 16.5t18.5 43.5v1q0 10 10 10l24 1q10 0 10 -10q0 -45 -30.5 -72.5t-79.5 -27.5z" />
    <glyph glyph-name="ordfeminine" unicode="&#xaa;" horiz-adv-x="324" 
d="M234 564q4 0 4 4v24q0 35 -20.5 56t-60.5 21q-30 0 -50.5 -12.5t-25.5 -33.5q-3 -9 -12 -8l-24 3q-10 2 -9 11q7 35 40.5 57t81.5 22q58 0 91.5 -30.5t33.5 -80.5v-218q0 -10 -10 -10h-25q-10 0 -10 10v21q0 2 -1.5 3t-3.5 -1q-31 -39 -99 -39q-49 0 -80 23.5t-31 69.5
q0 50 37 79t100 29h74zM141 400q40 0 68.5 20t28.5 55v48q0 4 -4 4h-70q-44 0 -70 -17t-26 -50q0 -30 20 -45t53 -15zM23 290q0 10 10 10h248q10 0 10 -10v-32q0 -10 -10 -10h-248q-10 0 -10 10v32z" />
    <glyph glyph-name="guillemotleft" unicode="&#xab;" horiz-adv-x="540" 
d="M281 119q2 -2 2 -6q0 -6 -8 -6h-49q-8 0 -13 6l-125 161q-2 3 -2 7t2 7l125 161q5 6 13 6h49q6 0 8 -3.5t-2 -8.5l-125 -159q-1 -3 0 -6zM439 119q2 -2 2 -6q0 -2 -2 -4t-6 -2h-49q-8 0 -13 6l-125 161q-2 3 -2 7t2 7l125 161q5 6 13 6h49q6 0 8 -3.5t-2 -8.5l-124 -159
q-1 -3 0 -6z" />
    <glyph glyph-name="logicalnot" unicode="&#xac;" horiz-adv-x="500" 
d="M39 334q0 10 10 10h402q10 0 10 -10v-162q0 -10 -10 -10h-43q-10 0 -10 10v106q0 4 -4 4h-345q-10 0 -10 10v42z" />
    <glyph glyph-name="uni00AD" unicode="&#xad;" horiz-adv-x="394" 
d="M49 280q-10 0 -10 10v42q0 10 10 10h296q10 0 10 -10v-42q0 -10 -10 -10h-296z" />
    <glyph glyph-name="registered" unicode="&#xae;" horiz-adv-x="451" 
d="M226 714q54 0 99 -26t71 -70.5t26 -97.5q0 -54 -26 -99t-71 -71t-99 -26t-99.5 26t-71.5 71t-26 99q0 53 26.5 97.5t71.5 70.5t99 26zM226 361q44 0 80.5 21t57.5 57.5t21 80.5q0 43 -21 79t-57.5 57t-80.5 21t-80.5 -21t-57.5 -57t-21 -79q0 -44 21 -80.5t57.5 -57.5
t80.5 -21zM289 555q0 -16 -7 -28t-19 -17q-4 -3 -3 -6l26 -63l1 -4q0 -8 -9 -8h-13q-8 0 -11 8l-25 64q-1 3 -4 3h-16q-4 0 -4 -4v-61q0 -10 -10 -10h-11q-10 0 -10 10v159q0 10 10 10h53q23 0 37.5 -15t14.5 -38zM209 581q-4 0 -4 -4v-45q0 -4 4 -4h23q12 0 19 7.5t7 18.5
q0 13 -7 20t-19 7h-23z" />
    <glyph glyph-name="macron" unicode="&#xaf;" horiz-adv-x="269" 
d="M10 594q-10 0 -10 10v31q0 10 10 10h249q10 0 10 -10v-31q0 -10 -10 -10h-249z" />
    <glyph glyph-name="degree" unicode="&#xb0;" horiz-adv-x="381" 
d="M190 487q-44 0 -81 21.5t-58.5 58t-21.5 81.5q0 44 21.5 81t58.5 58t81 21q45 0 82 -21t58.5 -58t21.5 -81q0 -45 -21.5 -82t-58.5 -58t-82 -21zM190 537q47 0 79 32t32 79t-32 79t-79 32q-46 0 -78.5 -32.5t-32.5 -78.5q0 -47 32.5 -79t78.5 -32z" />
    <glyph glyph-name="plusminus" unicode="&#xb1;" horiz-adv-x="500" 
d="M451 383q10 0 10 -10v-42q0 -10 -10 -10h-166q-4 0 -4 -4v-162q0 -10 -10 -10h-42q-10 0 -10 10v162q0 4 -4 4h-166q-10 0 -10 10v42q0 10 10 10h166q4 0 4 4v170q0 10 10 10h42q10 0 10 -10v-170q0 -4 4 -4h166zM49 0q-10 0 -10 10v42q0 10 10 10h402q10 0 10 -10v-42
q0 -10 -10 -10h-402z" />
    <glyph glyph-name="twosuperior" unicode="&#xb2;" horiz-adv-x="326" 
d="M46 442q-10 0 -10 10v27q0 7 5 12q44 51 116 138l17 21q57 68 57 107q0 29 -20.5 47t-53.5 18q-32 0 -52 -18t-19 -48v-14q0 -10 -10 -10h-31q-10 0 -10 10v21q1 47 35.5 75.5t86.5 28.5q56 0 90 -31t34 -78q0 -50 -54 -121q-63 -81 -121 -146q-3 -5 2 -5h176
q10 0 10 -10v-24q0 -10 -10 -10h-238z" />
    <glyph glyph-name="threesuperior" unicode="&#xb3;" horiz-adv-x="322" 
d="M269 646q15 -30 15 -76q0 -41 -14 -71q-14 -31 -42.5 -47.5t-67.5 -16.5q-42 0 -72.5 22t-43.5 60q-5 13 -7 42q0 10 10 10h31q10 0 10 -10q2 -21 4 -27q5 -23 23.5 -37.5t44.5 -14.5q43 0 61 35q12 23 12 56q0 39 -13 62q-18 35 -60 35q-11 0 -19 -4q-2 -1 -5 -1
q-5 0 -9 4l-14 18q-3 3 -3 7t3 7l101 112q1 2 0 3.5t-3 1.5h-160q-10 0 -10 10v24q0 10 10 10h220q10 0 10 -10v-27q0 -5 -5 -12l-90 -105q-3 -3 3 -5q56 -6 80 -55z" />
    <glyph glyph-name="acute" unicode="&#xb4;" horiz-adv-x="195" 
d="M42 572q-6 0 -8 3.5t1 8.5l60 109q3 7 12 7h45q6 0 7.5 -3.5t-1.5 -8.5l-68 -109q-5 -7 -12 -7h-36z" />
    <glyph glyph-name="uni00B5" unicode="&#xb5;" horiz-adv-x="546" 
d="M393 496q0 10 10 10h51q10 0 10 -10v-486q0 -10 -10 -10h-51q-10 0 -10 10v43q0 2 -2 3t-3 -1q-42 -62 -132 -62q-56 0 -100 25q-2 1 -3.5 0t-1.5 -3v-205q0 -10 -10 -10h-51q-10 0 -10 10v686q0 10 10 10h51q10 0 10 -10v-336q5 -49 36.5 -77t81.5 -28q57 0 90.5 34
t33.5 90v317z" />
    <glyph glyph-name="paragraph" unicode="&#xb6;" horiz-adv-x="577" 
d="M475 700q10 0 10 -10v-880q0 -10 -10 -10h-34q-10 0 -10 10v833q0 4 -4 4h-128q-4 0 -4 -4v-833q0 -10 -10 -10h-35q-10 0 -10 10v436q0 4 -4 4q-57 3 -102.5 33.5t-71.5 80.5t-26 111q0 63 28 114.5t78 81t112 29.5h221z" />
    <glyph glyph-name="periodcentered" unicode="&#xb7;" horiz-adv-x="210" 
d="M106 222q-25 0 -40.5 16t-15.5 40q0 25 15.5 40.5t40.5 15.5q24 0 40 -15.5t16 -40.5q0 -24 -16 -40t-40 -16z" />
    <glyph glyph-name="cedilla" unicode="&#xb8;" horiz-adv-x="140" 
d="M9 -181q-8 3 -7 12l4 23q1 5 4.5 6.5t7.5 0.5q12 -3 22 -3q18 0 30.5 9t16.5 27q1 4 1 12q0 39 -50 82q-4 3 -4 7q0 5 8 5h26q8 0 13 -4q59 -48 59 -101q0 -14 -2 -21q-8 -32 -32.5 -46t-55.5 -14q-21 0 -41 5z" />
    <glyph glyph-name="onesuperior" unicode="&#xb9;" horiz-adv-x="184" 
d="M82 860q5 2 12 2h35q10 0 10 -10v-400q0 -10 -10 -10h-31q-10 0 -10 10v358q0 3 -4 3l-50 -9h-2q-9 0 -9 9v18q0 9 8 12z" />
    <glyph glyph-name="ordmasculine" unicode="&#xba;" horiz-adv-x="349" 
d="M175 367q-46 0 -78.5 24t-46.5 67q-10 31 -10 80t9 80q13 42 46 66t80 24q45 0 77.5 -24t45.5 -66q9 -28 9 -79q0 -53 -9 -81q-13 -42 -45.5 -66.5t-77.5 -24.5zM175 410q29 0 49.5 17t27.5 45q6 19 6 66q0 46 -5 65q-8 29 -28.5 45.5t-50.5 16.5t-50 -16.5t-28 -45.5
q-6 -22 -6 -65t6 -66q7 -29 28 -45.5t51 -16.5zM42 248q-10 0 -10 10v34q0 10 10 10h265q10 0 10 -10v-34q0 -10 -10 -10h-265z" />
    <glyph glyph-name="guillemotright" unicode="&#xbb;" horiz-adv-x="540" 
d="M110 107q-6 0 -8 3.5t2 8.5l124 159q2 3 0 6l-124 159q-2 2 -2 6q0 2 2 4t6 2h48q9 0 13 -6l126 -161q2 -3 2 -7t-2 -7l-126 -161q-4 -6 -13 -6h-48zM268 107q-6 0 -8 3.5t2 8.5l124 159q2 3 0 6l-124 159q-2 2 -2 6q0 2 2 4t6 2h48q9 0 13 -6l126 -161q2 -3 2 -7t-2 -7
l-126 -161q-4 -6 -13 -6h-48z" />
    <glyph glyph-name="onequarter" unicode="&#xbc;" horiz-adv-x="806" 
d="M82 698q5 2 12 2h35q10 0 10 -10v-400q0 -10 -10 -10h-31q-10 0 -10 10v358q0 3 -4 3l-50 -9h-2q-9 0 -9 9v18q0 9 8 12zM113 0q-6 0 -7.5 3.5t1.5 8.5l426 681q5 7 12 7h33q6 0 7.5 -3.5t-1.5 -8.5l-425 -681q-5 -7 -12 -7h-34zM750 159q10 0 10 -10v-26q0 -10 -10 -10
h-20q-4 0 -4 -4v-99q0 -10 -10 -10h-31q-10 0 -10 10v99q0 4 -4 4h-175q-10 0 -10 10v23q0 5 3 12l117 255q3 7 11 7h32q5 0 7.5 -3.5t0.5 -8.5l-112 -244q-1 -2 0 -3.5t3 -1.5h123q4 0 4 4v88q0 10 10 10h31q10 0 10 -10v-88q0 -4 4 -4h20z" />
    <glyph glyph-name="onehalf" unicode="&#xbd;" horiz-adv-x="796" 
d="M82 698q5 2 12 2h35q10 0 10 -10v-400q0 -10 -10 -10h-31q-10 0 -10 10v358q0 3 -4 3l-50 -9h-2q-9 0 -9 9v18q0 9 8 12zM113 0q-6 0 -7.5 3.5t1.5 8.5l426 681q5 7 12 7h33q6 0 7.5 -3.5t-1.5 -8.5l-425 -681q-5 -7 -12 -7h-34zM504 0q-10 0 -10 10v27q0 7 5 12
q44 51 116 138l17 21q57 68 57 107q0 29 -20.5 47t-53.5 18q-32 0 -52 -18t-19 -48v-14q0 -10 -10 -10h-31q-10 0 -10 10v21q1 47 35.5 75.5t86.5 28.5q56 0 90 -31t34 -78q0 -50 -54 -121q-63 -81 -121 -146q-3 -5 2 -5h176q10 0 10 -10v-24q0 -10 -10 -10h-238z" />
    <glyph glyph-name="threequarters" unicode="&#xbe;" horiz-adv-x="901" 
d="M269 492q15 -30 15 -76q0 -41 -14 -71q-14 -31 -42.5 -47.5t-67.5 -16.5q-42 0 -72.5 22t-43.5 60q-5 13 -7 42q0 10 10 10h31q10 0 10 -10q2 -21 4 -27q5 -23 23.5 -37.5t44.5 -14.5q43 0 61 35q12 23 12 56q0 39 -13 62q-18 35 -60 35q-11 0 -19 -4q-2 -1 -5 -1
q-5 0 -9 4l-14 18q-3 3 -3 7t3 7l101 112q1 2 0 3.5t-3 1.5h-160q-10 0 -10 10v24q0 10 10 10h220q10 0 10 -10v-27q0 -5 -5 -12l-90 -105q-3 -3 3 -5q56 -6 80 -55zM212 0q-6 0 -7.5 3.5t1.5 8.5l426 681q5 7 12 7h33q6 0 7.5 -3.5t-1.5 -8.5l-425 -681q-5 -7 -12 -7h-34z
M849 159q10 0 10 -10v-26q0 -10 -10 -10h-20q-4 0 -4 -4v-99q0 -10 -10 -10h-31q-10 0 -10 10v99q0 4 -4 4h-175q-10 0 -10 10v23q0 5 3 12l117 255q3 7 11 7h32q5 0 7.5 -3.5t0.5 -8.5l-112 -244q-1 -2 0 -3.5t3 -1.5h123q4 0 4 4v88q0 10 10 10h31q10 0 10 -10v-88
q0 -4 4 -4h20z" />
    <glyph glyph-name="questiondown" unicode="&#xbf;" horiz-adv-x="461" 
d="M249 498q25 0 40.5 -16t15.5 -40q0 -25 -15.5 -40.5t-40.5 -15.5q-24 0 -40 15.5t-16 40.5q0 24 16 40t40 16zM274 300q10 0 10 -10v-59q0 -43 -21.5 -70.5t-63.5 -60.5q-29 -24 -45.5 -40t-28 -39t-11.5 -54q0 -50 31.5 -80.5t84.5 -30.5q54 0 87 31t33 81v31
q0 10 10 10l51 -3q10 0 10 -10v-28q0 -79 -53 -128t-139 -49q-85 0 -136 48t-51 128q0 44 14.5 76t34.5 52t53 46q34 26 51 46t17 48v55q0 10 10 10h52z" />
    <glyph glyph-name="Agrave" unicode="&#xc0;" horiz-adv-x="607" 
d="M509 0q-9 0 -12 8l-40 126q-1 3 -4 3h-299q-3 0 -4 -3l-40 -126q-3 -8 -12 -8h-54q-11 0 -8 11l221 681q3 8 12 8h68q9 0 12 -8l222 -681l1 -4q0 -7 -9 -7h-54zM170 200q-1 -2 0.5 -3.5t3.5 -1.5h258q2 0 3.5 1.5t0.5 3.5l-130 408q-1 2 -3 2t-3 -2zM329 778q2 -4 2 -6
q0 -6 -9 -6h-36q-7 0 -12 7l-68 109q-2 4 -2 6q0 6 8 6h45q9 0 12 -7z" />
    <glyph glyph-name="Aacute" unicode="&#xc1;" horiz-adv-x="607" 
d="M509 0q-9 0 -12 8l-40 126q-1 3 -4 3h-299q-3 0 -4 -3l-40 -126q-3 -8 -12 -8h-54q-11 0 -8 11l221 681q3 8 12 8h68q9 0 12 -8l222 -681l1 -4q0 -7 -9 -7h-54zM170 200q-1 -2 0.5 -3.5t3.5 -1.5h258q2 0 3.5 1.5t0.5 3.5l-130 408q-1 2 -3 2t-3 -2zM269 766q-6 0 -8 3.5
t1 8.5l60 109q3 7 12 7h45q6 0 7.5 -3.5t-1.5 -8.5l-68 -109q-5 -7 -12 -7h-36z" />
    <glyph glyph-name="Acircumflex" unicode="&#xc2;" horiz-adv-x="607" 
d="M509 0q-9 0 -12 8l-40 126q-1 3 -4 3h-299q-3 0 -4 -3l-40 -126q-3 -8 -12 -8h-54q-11 0 -8 11l221 681q3 8 12 8h68q9 0 12 -8l222 -681l1 -4q0 -7 -9 -7h-54zM170 200q-1 -2 0.5 -3.5t3.5 -1.5h258q2 0 3.5 1.5t0.5 3.5l-130 408q-1 2 -3 2t-3 -2zM185 768q-6 0 -8 3.5
t2 8.5l80 108q4 6 13 6h58q9 0 13 -6l81 -108q2 -2 2 -6q0 -2 -2 -4t-6 -2h-40q-9 0 -13 6l-60 82q-1 2 -3 2t-3 -2l-61 -82q-4 -6 -13 -6h-40z" />
    <glyph glyph-name="Atilde" unicode="&#xc3;" horiz-adv-x="607" 
d="M509 0q-9 0 -12 8l-40 126q-1 3 -4 3h-299q-3 0 -4 -3l-40 -126q-3 -8 -12 -8h-54q-11 0 -8 11l221 681q3 8 12 8h68q9 0 12 -8l222 -681l1 -4q0 -7 -9 -7h-54zM170 200q-1 -2 0.5 -3.5t3.5 -1.5h258q2 0 3.5 1.5t0.5 3.5l-130 408q-1 2 -3 2t-3 -2zM365 797q-19 0 -33 6
t-29 16q-18 11 -28 15t-22 4q-18 0 -30.5 -5.5t-24.5 -19.5q-6 -9 -14 -2l-18 18q-7 7 -2 14q33 49 86 49q16 0 28.5 -5t23 -10.5t13.5 -7.5q4 -2 14.5 -8t19 -9t16.5 -3q33 0 53 28q6 10 14 2l18 -17q7 -7 1 -15q-14 -24 -37.5 -37t-48.5 -13z" />
    <glyph glyph-name="Adieresis" unicode="&#xc4;" horiz-adv-x="607" 
d="M509 0q-9 0 -12 8l-40 126q-1 3 -4 3h-299q-3 0 -4 -3l-40 -126q-3 -8 -12 -8h-54q-11 0 -8 11l221 681q3 8 12 8h68q9 0 12 -8l222 -681l1 -4q0 -7 -9 -7h-54zM170 200q-1 -2 0.5 -3.5t3.5 -1.5h258q2 0 3.5 1.5t0.5 3.5l-130 408q-1 2 -3 2t-3 -2zM388 795
q-25 0 -40.5 16t-15.5 40q0 25 15.5 40.5t40.5 15.5q24 0 40 -15.5t16 -40.5q0 -24 -16 -40t-40 -16zM217 795q-25 0 -40.5 16t-15.5 40q0 25 15.5 40.5t40.5 15.5q24 0 40 -15.5t16 -40.5q0 -24 -16 -40t-40 -16z" />
    <glyph glyph-name="Aring" unicode="&#xc5;" horiz-adv-x="607" 
d="M509 0q-9 0 -12 8l-40 126q-1 3 -4 3h-299q-3 0 -4 -3l-40 -126q-3 -8 -12 -8h-54q-11 0 -8 11l221 681q3 8 12 8h68q9 0 12 -8l222 -681l1 -4q0 -7 -9 -7h-54zM170 200q-1 -2 0.5 -3.5t3.5 -1.5h258q2 0 3.5 1.5t0.5 3.5l-130 408q-1 2 -3 2t-3 -2zM303 773
q-47 0 -78.5 31t-31.5 77q0 45 32 76.5t78 31.5t77.5 -31.5t31.5 -76.5q0 -46 -31.5 -77t-77.5 -31zM303 816q27 0 46.5 18.5t19.5 46.5t-19.5 47t-46.5 19q-28 0 -47.5 -19t-19.5 -47t19.5 -46.5t47.5 -18.5z" />
    <glyph glyph-name="AE" unicode="&#xc6;" horiz-adv-x="921" 
d="M863 648q0 -10 -10 -10h-341q-4 0 -4 -4v-247q0 -4 4 -4h231q10 0 10 -10v-42q0 -10 -10 -10h-231q-4 0 -4 -4v-251q0 -4 4 -4h341q10 0 10 -10v-42q0 -10 -10 -10h-406q-10 0 -10 10v123q0 4 -4 4h-248q-2 0 -4 -3l-66 -127q-3 -7 -12 -7h-58q-5 0 -7 3.5t0 8.5l359 681
q3 7 12 7h444q10 0 10 -10v-42zM215 200q-2 -5 3 -5h215q4 0 4 4v416q0 3 -1.5 3t-3.5 -2z" />
    <glyph glyph-name="Ccedilla" unicode="&#xc7;" horiz-adv-x="607" 
d="M542 487q0 -2 -3 -4t-7 -2l-51 -3q-10 0 -10 9v3q0 71 -45 113.5t-119 42.5t-119 -43t-45 -113v-280q0 -70 45 -113t119 -43t119 42.5t45 113.5v2q0 9 10 9l51 -3q10 0 10 -9q0 -65 -29.5 -114.5t-82.5 -76.5t-123 -27q-2 0 3 -5q48 -41 48 -91q0 -15 -2 -22
q-8 -32 -32 -46t-56 -14q-21 0 -41 5q-8 3 -7 12l4 23q1 5 4.5 6.5t7.5 0.5q12 -3 22 -3q21 0 35 12t14 35t-17 47t-45 45q0 1 -5 3q-78 17 -123 74t-45 140v275q0 65 29.5 115t82.5 77.5t123 27.5t123 -27t82.5 -76t29.5 -113v-5z" />
    <glyph glyph-name="Egrave" unicode="&#xc8;" horiz-adv-x="605" 
d="M547 648q0 -10 -10 -10h-368q-4 0 -4 -4v-247q0 -4 4 -4h258q10 0 10 -10v-42q0 -10 -10 -10h-258q-4 0 -4 -4v-251q0 -4 4 -4h368q10 0 10 -10v-42q0 -10 -10 -10h-433q-10 0 -10 10v680q0 10 10 10h433q10 0 10 -10v-42zM343 778q2 -4 2 -6q0 -6 -9 -6h-36q-7 0 -12 7
l-68 109q-2 4 -2 6q0 6 8 6h45q9 0 12 -7z" />
    <glyph glyph-name="Eacute" unicode="&#xc9;" horiz-adv-x="605" 
d="M547 648q0 -10 -10 -10h-368q-4 0 -4 -4v-247q0 -4 4 -4h258q10 0 10 -10v-42q0 -10 -10 -10h-258q-4 0 -4 -4v-251q0 -4 4 -4h368q10 0 10 -10v-42q0 -10 -10 -10h-433q-10 0 -10 10v680q0 10 10 10h433q10 0 10 -10v-42zM283 766q-6 0 -8 3.5t1 8.5l60 109q3 7 12 7h45
q6 0 7.5 -3.5t-1.5 -8.5l-68 -109q-5 -7 -12 -7h-36z" />
    <glyph glyph-name="Ecircumflex" unicode="&#xca;" horiz-adv-x="605" 
d="M547 648q0 -10 -10 -10h-368q-4 0 -4 -4v-247q0 -4 4 -4h258q10 0 10 -10v-42q0 -10 -10 -10h-258q-4 0 -4 -4v-251q0 -4 4 -4h368q10 0 10 -10v-42q0 -10 -10 -10h-433q-10 0 -10 10v680q0 10 10 10h433q10 0 10 -10v-42zM199 768q-6 0 -8 3.5t2 8.5l80 108q4 6 13 6h58
q9 0 13 -6l81 -108q2 -2 2 -6q0 -2 -2 -4t-6 -2h-40q-9 0 -13 6l-60 82q-1 2 -3 2t-3 -2l-61 -82q-4 -6 -13 -6h-40z" />
    <glyph glyph-name="Edieresis" unicode="&#xcb;" horiz-adv-x="605" 
d="M547 648q0 -10 -10 -10h-368q-4 0 -4 -4v-247q0 -4 4 -4h258q10 0 10 -10v-42q0 -10 -10 -10h-258q-4 0 -4 -4v-251q0 -4 4 -4h368q10 0 10 -10v-42q0 -10 -10 -10h-433q-10 0 -10 10v680q0 10 10 10h433q10 0 10 -10v-42zM402 795q-25 0 -40.5 16t-15.5 40
q0 25 15.5 40.5t40.5 15.5q24 0 40 -15.5t16 -40.5q0 -24 -16 -40t-40 -16zM231 795q-25 0 -40.5 16t-15.5 40q0 25 15.5 40.5t40.5 15.5q24 0 40 -15.5t16 -40.5q0 -24 -16 -40t-40 -16z" />
    <glyph glyph-name="Igrave" unicode="&#xcc;" horiz-adv-x="259" 
d="M104 0q-10 0 -10 10v680q0 10 10 10h51q10 0 10 -10v-680q0 -10 -10 -10h-51zM156 778q2 -4 2 -6q0 -6 -9 -6h-36q-7 0 -12 7l-68 109q-2 4 -2 6q0 6 8 6h45q9 0 12 -7z" />
    <glyph glyph-name="Iacute" unicode="&#xcd;" horiz-adv-x="259" 
d="M104 0q-10 0 -10 10v680q0 10 10 10h51q10 0 10 -10v-680q0 -10 -10 -10h-51zM96 766q-6 0 -8 3.5t1 8.5l60 109q3 7 12 7h45q6 0 7.5 -3.5t-1.5 -8.5l-68 -109q-5 -7 -12 -7h-36z" />
    <glyph glyph-name="Icircumflex" unicode="&#xce;" horiz-adv-x="259" 
d="M104 0q-10 0 -10 10v680q0 10 10 10h51q10 0 10 -10v-680q0 -10 -10 -10h-51zM12 768q-6 0 -8 3.5t2 8.5l80 108q4 6 13 6h58q9 0 13 -6l81 -108q2 -2 2 -6q0 -2 -2 -4t-6 -2h-40q-9 0 -13 6l-60 82q-1 2 -3 2t-3 -2l-61 -82q-4 -6 -13 -6h-40z" />
    <glyph glyph-name="Idieresis" unicode="&#xcf;" horiz-adv-x="259" 
d="M104 0q-10 0 -10 10v680q0 10 10 10h51q10 0 10 -10v-680q0 -10 -10 -10h-51zM215 795q-25 0 -40.5 16t-15.5 40q0 25 15.5 40.5t40.5 15.5q24 0 40 -15.5t16 -40.5q0 -24 -16 -40t-40 -16zM44 795q-25 0 -40.5 16t-15.5 40q0 25 15.5 40.5t40.5 15.5q24 0 40 -15.5
t16 -40.5q0 -24 -16 -40t-40 -16z" />
    <glyph glyph-name="Eth" unicode="&#xd0;" horiz-adv-x="683" 
d="M405 700q99 0 157.5 -52t58.5 -141v-314q0 -89 -58.5 -141t-157.5 -52h-236q-10 0 -10 10v324q0 4 -4 4h-51q-10 0 -10 10v32q0 10 10 10h51q4 0 4 4v296q0 10 10 10h236zM550 497q0 65 -38 103t-104 38h-174q-4 0 -4 -4v-240q0 -4 4 -4h119q10 0 10 -10v-32
q0 -10 -10 -10h-119q-4 0 -4 -4v-268q0 -4 4 -4h175q65 0 103 38t38 102v295z" />
    <glyph glyph-name="Ntilde" unicode="&#xd1;" horiz-adv-x="676" 
d="M511 690q0 10 10 10h51q10 0 10 -10v-680q0 -10 -10 -10h-50q-7 0 -12 7l-341 555q-1 3 -3 2.5t-2 -3.5l1 -551q0 -10 -10 -10h-51q-10 0 -10 10v680q0 10 10 10h50q7 0 12 -7l341 -555q1 -3 3 -2.5t2 3.5zM399 797q-19 0 -33 6t-29 16q-18 11 -28 15t-22 4
q-18 0 -30.5 -5.5t-24.5 -19.5q-6 -9 -14 -2l-18 18q-7 7 -2 14q33 49 86 49q16 0 28.5 -5t23 -10.5t13.5 -7.5q4 -2 14.5 -8t19 -9t16.5 -3q33 0 53 28q6 10 14 2l18 -17q7 -7 1 -15q-14 -24 -37.5 -37t-48.5 -13z" />
    <glyph glyph-name="Ograve" unicode="&#xd2;" horiz-adv-x="622" 
d="M310 -8q-71 0 -125 29t-83.5 81.5t-29.5 121.5v252q0 69 29.5 121.5t83.5 81.5t125 29t125.5 -29t84 -81.5t29.5 -121.5v-252q0 -69 -29.5 -121.5t-84 -81.5t-125.5 -29zM310 53q76 0 122 46t46 122v256q0 76 -46 122.5t-122 46.5q-75 0 -121 -46.5t-46 -122.5v-256
q0 -76 46 -122t121 -46zM337 778q2 -4 2 -6q0 -6 -9 -6h-36q-7 0 -12 7l-68 109q-2 4 -2 6q0 6 8 6h45q9 0 12 -7z" />
    <glyph glyph-name="Oacute" unicode="&#xd3;" horiz-adv-x="622" 
d="M310 -8q-71 0 -125 29t-83.5 81.5t-29.5 121.5v252q0 69 29.5 121.5t83.5 81.5t125 29t125.5 -29t84 -81.5t29.5 -121.5v-252q0 -69 -29.5 -121.5t-84 -81.5t-125.5 -29zM310 53q76 0 122 46t46 122v256q0 76 -46 122.5t-122 46.5q-75 0 -121 -46.5t-46 -122.5v-256
q0 -76 46 -122t121 -46zM277 766q-6 0 -8 3.5t1 8.5l60 109q3 7 12 7h45q6 0 7.5 -3.5t-1.5 -8.5l-68 -109q-5 -7 -12 -7h-36z" />
    <glyph glyph-name="Ocircumflex" unicode="&#xd4;" horiz-adv-x="622" 
d="M310 -8q-71 0 -125 29t-83.5 81.5t-29.5 121.5v252q0 69 29.5 121.5t83.5 81.5t125 29t125.5 -29t84 -81.5t29.5 -121.5v-252q0 -69 -29.5 -121.5t-84 -81.5t-125.5 -29zM310 53q76 0 122 46t46 122v256q0 76 -46 122.5t-122 46.5q-75 0 -121 -46.5t-46 -122.5v-256
q0 -76 46 -122t121 -46zM193 768q-6 0 -8 3.5t2 8.5l80 108q4 6 13 6h58q9 0 13 -6l81 -108q2 -2 2 -6q0 -2 -2 -4t-6 -2h-40q-9 0 -13 6l-60 82q-1 2 -3 2t-3 -2l-61 -82q-4 -6 -13 -6h-40z" />
    <glyph glyph-name="Otilde" unicode="&#xd5;" horiz-adv-x="622" 
d="M310 -8q-71 0 -125 29t-83.5 81.5t-29.5 121.5v252q0 69 29.5 121.5t83.5 81.5t125 29t125.5 -29t84 -81.5t29.5 -121.5v-252q0 -69 -29.5 -121.5t-84 -81.5t-125.5 -29zM310 53q76 0 122 46t46 122v256q0 76 -46 122.5t-122 46.5q-75 0 -121 -46.5t-46 -122.5v-256
q0 -76 46 -122t121 -46zM373 797q-19 0 -33 6t-29 16q-18 11 -28 15t-22 4q-18 0 -30.5 -5.5t-24.5 -19.5q-6 -9 -14 -2l-18 18q-7 7 -2 14q33 49 86 49q16 0 28.5 -5t23 -10.5t13.5 -7.5q4 -2 14.5 -8t19 -9t16.5 -3q33 0 53 28q6 10 14 2l18 -17q7 -7 1 -15
q-14 -24 -37.5 -37t-48.5 -13z" />
    <glyph glyph-name="Odieresis" unicode="&#xd6;" horiz-adv-x="622" 
d="M310 -8q-71 0 -125 29t-83.5 81.5t-29.5 121.5v252q0 69 29.5 121.5t83.5 81.5t125 29t125.5 -29t84 -81.5t29.5 -121.5v-252q0 -69 -29.5 -121.5t-84 -81.5t-125.5 -29zM310 53q76 0 122 46t46 122v256q0 76 -46 122.5t-122 46.5q-75 0 -121 -46.5t-46 -122.5v-256
q0 -76 46 -122t121 -46zM396 795q-25 0 -40.5 16t-15.5 40q0 25 15.5 40.5t40.5 15.5q24 0 40 -15.5t16 -40.5q0 -24 -16 -40t-40 -16zM225 795q-25 0 -40.5 16t-15.5 40q0 25 15.5 40.5t40.5 15.5q24 0 40 -15.5t16 -40.5q0 -24 -16 -40t-40 -16z" />
    <glyph glyph-name="multiply" unicode="&#xd7;" horiz-adv-x="422" 
d="M376 453q3 -3 3 -7t-3 -7l-117 -117q-3 -3 0 -6l115 -115q3 -3 3 -7t-3 -7l-30 -30q-3 -3 -7 -3t-7 3l-115 115q-3 3 -6 0l-117 -117q-3 -3 -7 -3t-7 3l-30 29q-3 3 -3 7t3 7l118 118q3 3 0 6l-120 120q-3 3 -3 7t3 7l29 29q3 3 7 3t7 -3l120 -120q3 -3 6 0l118 118
q3 3 7 3t7 -3z" />
    <glyph glyph-name="Oslash" unicode="&#xd8;" horiz-adv-x="622" 
d="M563 693q8 -6 3 -14l-48 -73q-1 -3 0 -6q32 -52 32 -124v-252q0 -69 -30 -121.5t-84.5 -81.5t-125.5 -29q-91 0 -156 49q-3 3 -5 -1l-39 -59q-5 -8 -13 -3l-39 25q-8 6 -4 13l50 77q2 3 0 6q-31 53 -31 125v252q0 69 29.5 121.5t83.5 81.5t124 29q93 0 158 -49q3 -3 5 1
l38 57q2 4 6 5t8 -2zM144 221q0 -26 6 -50q1 -2 3 -2t3 2l276 424q2 3 -1 6q-45 45 -121 45q-75 0 -120.5 -46.5t-45.5 -122.5v-256zM479 477q0 26 -6 51q-1 2 -2.5 2t-3.5 -2l-277 -425q-2 -3 1 -6q44 -44 119 -44q76 0 122.5 46t46.5 122v256z" />
    <glyph glyph-name="Ugrave" unicode="&#xd9;" horiz-adv-x="648" 
d="M324 -8q-70 0 -124 28t-84 78.5t-30 117.5v474q0 10 10 10h51q10 0 10 -10v-476q0 -71 46 -115.5t121 -44.5t121 44.5t46 115.5v476q0 10 10 10h51q10 0 10 -10v-474q0 -67 -29.5 -117.5t-83.5 -78.5t-125 -28zM351 778q2 -4 2 -6q0 -6 -9 -6h-36q-7 0 -12 7l-68 109
q-2 4 -2 6q0 6 8 6h45q9 0 12 -7z" />
    <glyph glyph-name="Uacute" unicode="&#xda;" horiz-adv-x="648" 
d="M324 -8q-70 0 -124 28t-84 78.5t-30 117.5v474q0 10 10 10h51q10 0 10 -10v-476q0 -71 46 -115.5t121 -44.5t121 44.5t46 115.5v476q0 10 10 10h51q10 0 10 -10v-474q0 -67 -29.5 -117.5t-83.5 -78.5t-125 -28zM291 766q-6 0 -8 3.5t1 8.5l60 109q3 7 12 7h45
q6 0 7.5 -3.5t-1.5 -8.5l-68 -109q-5 -7 -12 -7h-36z" />
    <glyph glyph-name="Ucircumflex" unicode="&#xdb;" horiz-adv-x="648" 
d="M324 -8q-70 0 -124 28t-84 78.5t-30 117.5v474q0 10 10 10h51q10 0 10 -10v-476q0 -71 46 -115.5t121 -44.5t121 44.5t46 115.5v476q0 10 10 10h51q10 0 10 -10v-474q0 -67 -29.5 -117.5t-83.5 -78.5t-125 -28zM207 768q-6 0 -8 3.5t2 8.5l80 108q4 6 13 6h58q9 0 13 -6
l81 -108q2 -2 2 -6q0 -2 -2 -4t-6 -2h-40q-9 0 -13 6l-60 82q-1 2 -3 2t-3 -2l-61 -82q-4 -6 -13 -6h-40z" />
    <glyph glyph-name="Udieresis" unicode="&#xdc;" horiz-adv-x="648" 
d="M324 -8q-70 0 -124 28t-84 78.5t-30 117.5v474q0 10 10 10h51q10 0 10 -10v-476q0 -71 46 -115.5t121 -44.5t121 44.5t46 115.5v476q0 10 10 10h51q10 0 10 -10v-474q0 -67 -29.5 -117.5t-83.5 -78.5t-125 -28zM409 795q-25 0 -40.5 16t-15.5 40q0 25 15.5 40.5
t40.5 15.5q24 0 40 -15.5t16 -40.5q0 -24 -16 -40t-40 -16zM238 795q-25 0 -40.5 16t-15.5 40q0 25 15.5 40.5t40.5 15.5q24 0 40 -15.5t16 -40.5q0 -24 -16 -40t-40 -16z" />
    <glyph glyph-name="Yacute" unicode="&#xdd;" horiz-adv-x="567" 
d="M258 1q-10 0 -10 10v296q0 4 -1 5l-208 376q-2 4 -2 6q0 6 9 6h54q9 0 12 -7l168 -305q1 -1 3 -1t3 1l169 305q4 7 12 7h54q6 0 8 -3.5t-1 -8.5l-208 -376q-1 -1 -1 -5v-296q0 -10 -10 -10h-51zM250 765q-6 0 -8 3.5t1 8.5l60 109q3 7 12 7h45q6 0 7.5 -3.5t-1.5 -8.5
l-68 -109q-5 -7 -12 -7h-36z" />
    <glyph glyph-name="Thorn" unicode="&#xde;" horiz-adv-x="567" 
d="M335 543q88 0 142 -53.5t54 -140.5q0 -57 -25.5 -100.5t-70.5 -67.5t-102 -24h-171q-4 0 -4 -4v-143q0 -10 -10 -10h-51q-10 0 -10 10v680q0 10 10 10h51q10 0 10 -10v-143q0 -4 4 -4h173zM328 216q60 0 96 36t36 96q0 61 -36 97t-96 36h-166q-4 0 -4 -4v-257q0 -4 4 -4
h166z" />
    <glyph glyph-name="germandbls" unicode="&#xdf;" horiz-adv-x="557" 
d="M90 0q-10 0 -10 10v500q1 93 55 146t148 53q92 0 147.5 -50.5t55.5 -136.5q0 -53 -22.5 -90.5t-65.5 -56.5q-2 -1 -2 -2t2 -2q45 -19 70.5 -65t25.5 -109q0 -93 -57.5 -145t-162.5 -52h-62q-10 0 -10 10v41q0 10 10 10h68q67 0 105 37t38 105q0 66 -34.5 103t-94.5 38
h-59q-10 0 -10 10v37q0 10 10 10h58q58 0 90 31t32 86q0 60 -34 94.5t-96 34.5q-59 0 -96 -35t-38 -97v-505q0 -10 -10 -10h-51z" />
    <glyph glyph-name="agrave" unicode="&#xe0;" horiz-adv-x="510" 
d="M255 514q90 0 139 -46t49 -122v-336q0 -10 -10 -10h-51q-10 0 -10 10v41q0 2 -1.5 3t-3.5 -1q-25 -30 -65 -45.5t-89 -15.5q-71 0 -119 36t-48 110q0 75 54.5 118.5t151.5 43.5h116q4 0 4 4v38q0 51 -28.5 80.5t-88.5 29.5q-48 0 -78 -18.5t-37 -51.5q-3 -10 -12 -9
l-54 7q-11 2 -9 8q8 56 60 91t130 35zM227 53q59 0 102 29.5t43 79.5v78q0 4 -4 4h-105q-66 0 -106 -27t-40 -75q0 -44 30.5 -66.5t79.5 -22.5zM282 584q2 -4 2 -6q0 -6 -9 -6h-36q-7 0 -12 7l-68 109q-2 4 -2 6q0 6 8 6h45q9 0 12 -7z" />
    <glyph glyph-name="aacute" unicode="&#xe1;" horiz-adv-x="510" 
d="M255 514q90 0 139 -46t49 -122v-336q0 -10 -10 -10h-51q-10 0 -10 10v41q0 2 -1.5 3t-3.5 -1q-25 -30 -65 -45.5t-89 -15.5q-71 0 -119 36t-48 110q0 75 54.5 118.5t151.5 43.5h116q4 0 4 4v38q0 51 -28.5 80.5t-88.5 29.5q-48 0 -78 -18.5t-37 -51.5q-3 -10 -12 -9
l-54 7q-11 2 -9 8q8 56 60 91t130 35zM227 53q59 0 102 29.5t43 79.5v78q0 4 -4 4h-105q-66 0 -106 -27t-40 -75q0 -44 30.5 -66.5t79.5 -22.5zM222 572q-6 0 -8 3.5t1 8.5l60 109q3 7 12 7h45q6 0 7.5 -3.5t-1.5 -8.5l-68 -109q-5 -7 -12 -7h-36z" />
    <glyph glyph-name="acircumflex" unicode="&#xe2;" horiz-adv-x="510" 
d="M255 514q90 0 139 -46t49 -122v-336q0 -10 -10 -10h-51q-10 0 -10 10v41q0 2 -1.5 3t-3.5 -1q-25 -30 -65 -45.5t-89 -15.5q-71 0 -119 36t-48 110q0 75 54.5 118.5t151.5 43.5h116q4 0 4 4v38q0 51 -28.5 80.5t-88.5 29.5q-48 0 -78 -18.5t-37 -51.5q-3 -10 -12 -9
l-54 7q-11 2 -9 8q8 56 60 91t130 35zM227 53q59 0 102 29.5t43 79.5v78q0 4 -4 4h-105q-66 0 -106 -27t-40 -75q0 -44 30.5 -66.5t79.5 -22.5zM138 574q-6 0 -8 3.5t2 8.5l80 108q4 6 13 6h58q9 0 13 -6l81 -108q2 -2 2 -6q0 -2 -2 -4t-6 -2h-40q-9 0 -13 6l-60 82
q-1 2 -3 2t-3 -2l-61 -82q-4 -6 -13 -6h-40z" />
    <glyph glyph-name="atilde" unicode="&#xe3;" horiz-adv-x="510" 
d="M255 514q90 0 139 -46t49 -122v-336q0 -10 -10 -10h-51q-10 0 -10 10v41q0 2 -1.5 3t-3.5 -1q-25 -30 -65 -45.5t-89 -15.5q-71 0 -119 36t-48 110q0 75 54.5 118.5t151.5 43.5h116q4 0 4 4v38q0 51 -28.5 80.5t-88.5 29.5q-48 0 -78 -18.5t-37 -51.5q-3 -10 -12 -9
l-54 7q-11 2 -9 8q8 56 60 91t130 35zM227 53q59 0 102 29.5t43 79.5v78q0 4 -4 4h-105q-66 0 -106 -27t-40 -75q0 -44 30.5 -66.5t79.5 -22.5zM318 603q-19 0 -33 6t-29 16q-18 11 -28 15t-22 4q-18 0 -30.5 -5.5t-24.5 -19.5q-6 -9 -14 -2l-18 18q-7 7 -2 14q33 49 86 49
q16 0 28.5 -5t23 -10.5t13.5 -7.5q4 -2 14.5 -8t19 -9t16.5 -3q33 0 53 28q6 10 14 2l18 -17q7 -7 1 -15q-14 -24 -37.5 -37t-48.5 -13z" />
    <glyph glyph-name="adieresis" unicode="&#xe4;" horiz-adv-x="510" 
d="M255 514q90 0 139 -46t49 -122v-336q0 -10 -10 -10h-51q-10 0 -10 10v41q0 2 -1.5 3t-3.5 -1q-25 -30 -65 -45.5t-89 -15.5q-71 0 -119 36t-48 110q0 75 54.5 118.5t151.5 43.5h116q4 0 4 4v38q0 51 -28.5 80.5t-88.5 29.5q-48 0 -78 -18.5t-37 -51.5q-3 -10 -12 -9
l-54 7q-11 2 -9 8q8 56 60 91t130 35zM227 53q59 0 102 29.5t43 79.5v78q0 4 -4 4h-105q-66 0 -106 -27t-40 -75q0 -44 30.5 -66.5t79.5 -22.5zM341 601q-25 0 -40.5 16t-15.5 40q0 25 15.5 40.5t40.5 15.5q24 0 40 -15.5t16 -40.5q0 -24 -16 -40t-40 -16zM170 601
q-25 0 -40.5 16t-15.5 40q0 25 15.5 40.5t40.5 15.5q24 0 40 -15.5t16 -40.5q0 -24 -16 -40t-40 -16z" />
    <glyph glyph-name="aring" unicode="&#xe5;" horiz-adv-x="510" 
d="M255 514q90 0 139 -46t49 -122v-336q0 -10 -10 -10h-51q-10 0 -10 10v41q0 2 -1.5 3t-3.5 -1q-25 -30 -65 -45.5t-89 -15.5q-71 0 -119 36t-48 110q0 75 54.5 118.5t151.5 43.5h116q4 0 4 4v38q0 51 -28.5 80.5t-88.5 29.5q-48 0 -78 -18.5t-37 -51.5q-3 -10 -12 -9
l-54 7q-11 2 -9 8q8 56 60 91t130 35zM227 53q59 0 102 29.5t43 79.5v78q0 4 -4 4h-105q-66 0 -106 -27t-40 -75q0 -44 30.5 -66.5t79.5 -22.5zM256 579q-47 0 -78.5 31t-31.5 77q0 45 32 76.5t78 31.5t77.5 -31.5t31.5 -76.5q0 -46 -31.5 -77t-77.5 -31zM256 622
q27 0 46.5 18.5t19.5 46.5t-19.5 47t-46.5 19q-28 0 -47.5 -19t-19.5 -47t19.5 -46.5t47.5 -18.5z" />
    <glyph glyph-name="ae" unicode="&#xe6;" horiz-adv-x="832" 
d="M222 -8q-76 0 -126 34t-50 106q0 74 54 116t152 42h116q4 0 4 4v43q0 52 -29.5 83.5t-90.5 31.5q-46 0 -77 -19t-38 -51q-3 -10 -12 -9l-51 7q-10 2 -9 11q9 55 60.5 89t125.5 34q59 0 101.5 -24.5t59.5 -63.5q2 -6 5 -1q19 37 61.5 63t94.5 26q68 0 120.5 -37.5
t68.5 -100.5q6 -21 8 -49.5t2 -85.5q0 -11 -10 -11h-313q-4 0 -4 -4q0 -38 1 -63q3 -50 41.5 -77t95.5 -27q91 0 125 73q4 9 13 5l35 -19q8 -5 5 -13q-20 -49 -69.5 -81t-116.5 -32q-57 0 -100.5 23t-63.5 62q-1 2 -2 2t-2 -1q-21 -40 -71.5 -63t-113.5 -23zM444 294
q0 -4 4 -4h249q4 0 4 4q0 43 -4 60q-9 43 -43 70.5t-82 27.5q-49 0 -82 -27t-41 -71q-3 -15 -5 -60zM229 49q58 0 100.5 28.5t42.5 82.5v66q0 4 -4 4h-106q-67 0 -106 -23.5t-39 -68.5q0 -42 31 -65.5t81 -23.5z" />
    <glyph glyph-name="ccedilla" unicode="&#xe7;" horiz-adv-x="520" 
d="M400 149l1 4q1 10 12 8l49 -8q10 -2 9 -11l-4 -20q-14 -53 -60.5 -88t-111.5 -41q-6 0 -2 -4q51 -44 51 -94q0 -14 -2 -21q-8 -32 -32.5 -46t-55.5 -14q-21 0 -41 5q-8 3 -7 12l4 23q1 5 4.5 6.5t7.5 0.5q12 -3 22 -3q18 0 30.5 9t16.5 27q1 4 1 12q0 21 -15.5 44
t-41.5 43q-1 2 -5 2q-56 10 -96 45.5t-57 90.5q-13 44 -13 124q0 72 13 122q18 62 70 99.5t124 37.5q73 0 126.5 -37t69.5 -92q5 -18 6 -30v-2q0 -7 -9 -9l-50 -7h-2q-7 0 -9 9l-3 15q-9 38 -44 64.5t-85 26.5t-83.5 -26.5t-43.5 -70.5q-9 -38 -9 -101q0 -66 9 -102
q10 -45 43.5 -71.5t83.5 -26.5q49 0 84.5 25.5t44.5 65.5v4z" />
    <glyph glyph-name="egrave" unicode="&#xe8;" horiz-adv-x="533" 
d="M468 338q4 -28 4 -70v-32q0 -10 -10 -10h-323q-4 0 -4 -4q2 -55 6 -71q11 -45 47 -71t92 -26q42 0 74 19t50 54q6 9 14 4l39 -23q8 -5 4 -14q-25 -48 -75 -75.5t-115 -27.5q-71 1 -119 34t-69 92q-18 48 -18 138q0 42 1.5 68.5t7.5 47.5q17 65 68.5 104t124.5 39
q91 0 140 -46t61 -130zM267 452q-49 0 -81.5 -25.5t-42.5 -68.5q-6 -21 -8 -68q0 -4 4 -4h259q4 0 4 4q-2 45 -6 64q-11 45 -44.5 71.5t-84.5 26.5zM293 584q2 -4 2 -6q0 -6 -9 -6h-36q-7 0 -12 7l-68 109q-2 4 -2 6q0 6 8 6h45q9 0 12 -7z" />
    <glyph glyph-name="eacute" unicode="&#xe9;" horiz-adv-x="533" 
d="M468 338q4 -28 4 -70v-32q0 -10 -10 -10h-323q-4 0 -4 -4q2 -55 6 -71q11 -45 47 -71t92 -26q42 0 74 19t50 54q6 9 14 4l39 -23q8 -5 4 -14q-25 -48 -75 -75.5t-115 -27.5q-71 1 -119 34t-69 92q-18 48 -18 138q0 42 1.5 68.5t7.5 47.5q17 65 68.5 104t124.5 39
q91 0 140 -46t61 -130zM267 452q-49 0 -81.5 -25.5t-42.5 -68.5q-6 -21 -8 -68q0 -4 4 -4h259q4 0 4 4q-2 45 -6 64q-11 45 -44.5 71.5t-84.5 26.5zM233 572q-6 0 -8 3.5t1 8.5l60 109q3 7 12 7h45q6 0 7.5 -3.5t-1.5 -8.5l-68 -109q-5 -7 -12 -7h-36z" />
    <glyph glyph-name="ecircumflex" unicode="&#xea;" horiz-adv-x="533" 
d="M468 338q4 -28 4 -70v-32q0 -10 -10 -10h-323q-4 0 -4 -4q2 -55 6 -71q11 -45 47 -71t92 -26q42 0 74 19t50 54q6 9 14 4l39 -23q8 -5 4 -14q-25 -48 -75 -75.5t-115 -27.5q-71 1 -119 34t-69 92q-18 48 -18 138q0 42 1.5 68.5t7.5 47.5q17 65 68.5 104t124.5 39
q91 0 140 -46t61 -130zM267 452q-49 0 -81.5 -25.5t-42.5 -68.5q-6 -21 -8 -68q0 -4 4 -4h259q4 0 4 4q-2 45 -6 64q-11 45 -44.5 71.5t-84.5 26.5zM149 574q-6 0 -8 3.5t2 8.5l80 108q4 6 13 6h58q9 0 13 -6l81 -108q2 -2 2 -6q0 -2 -2 -4t-6 -2h-40q-9 0 -13 6l-60 82
q-1 2 -3 2t-3 -2l-61 -82q-4 -6 -13 -6h-40z" />
    <glyph glyph-name="edieresis" unicode="&#xeb;" horiz-adv-x="533" 
d="M468 338q4 -28 4 -70v-32q0 -10 -10 -10h-323q-4 0 -4 -4q2 -55 6 -71q11 -45 47 -71t92 -26q42 0 74 19t50 54q6 9 14 4l39 -23q8 -5 4 -14q-25 -48 -75 -75.5t-115 -27.5q-71 1 -119 34t-69 92q-18 48 -18 138q0 42 1.5 68.5t7.5 47.5q17 65 68.5 104t124.5 39
q91 0 140 -46t61 -130zM267 452q-49 0 -81.5 -25.5t-42.5 -68.5q-6 -21 -8 -68q0 -4 4 -4h259q4 0 4 4q-2 45 -6 64q-11 45 -44.5 71.5t-84.5 26.5zM352 601q-25 0 -40.5 16t-15.5 40q0 25 15.5 40.5t40.5 15.5q24 0 40 -15.5t16 -40.5q0 -24 -16 -40t-40 -16zM181 601
q-25 0 -40.5 16t-15.5 40q0 25 15.5 40.5t40.5 15.5q24 0 40 -15.5t16 -40.5q0 -24 -16 -40t-40 -16z" />
    <glyph glyph-name="igrave" unicode="&#xec;" horiz-adv-x="212" 
d="M80 0q-10 0 -10 10v486q0 10 10 10h51q10 0 10 -10v-486q0 -10 -10 -10h-51zM133 584q2 -4 2 -6q0 -6 -9 -6h-36q-7 0 -12 7l-68 109q-2 4 -2 6q0 6 8 6h45q9 0 12 -7z" />
    <glyph glyph-name="iacute" unicode="&#xed;" horiz-adv-x="212" 
d="M80 0q-10 0 -10 10v486q0 10 10 10h51q10 0 10 -10v-486q0 -10 -10 -10h-51zM73 572q-6 0 -8 3.5t1 8.5l60 109q3 7 12 7h45q6 0 7.5 -3.5t-1.5 -8.5l-68 -109q-5 -7 -12 -7h-36z" />
    <glyph glyph-name="icircumflex" unicode="&#xee;" horiz-adv-x="212" 
d="M80 0q-10 0 -10 10v486q0 10 10 10h51q10 0 10 -10v-486q0 -10 -10 -10h-51zM-11 574q-6 0 -8 3.5t2 8.5l80 108q4 6 13 6h58q9 0 13 -6l81 -108q2 -2 2 -6q0 -2 -2 -4t-6 -2h-40q-9 0 -13 6l-60 82q-1 2 -3 2t-3 -2l-61 -82q-4 -6 -13 -6h-40z" />
    <glyph glyph-name="idieresis" unicode="&#xef;" horiz-adv-x="212" 
d="M80 0q-10 0 -10 10v486q0 10 10 10h51q10 0 10 -10v-486q0 -10 -10 -10h-51zM192 601q-25 0 -40.5 16t-15.5 40q0 25 15.5 40.5t40.5 15.5q24 0 40 -15.5t16 -40.5q0 -24 -16 -40t-40 -16zM21 601q-25 0 -40.5 16t-15.5 40q0 25 15.5 40.5t40.5 15.5q24 0 40 -15.5
t16 -40.5q0 -24 -16 -40t-40 -16z" />
    <glyph glyph-name="eth" unicode="&#xf0;" horiz-adv-x="531" 
d="M458 355q6 -38 6 -111q0 -46 -2 -72t-8 -47q-18 -60 -69 -96.5t-122 -36.5q-70 0 -120.5 36.5t-68.5 96.5q-6 22 -8 49t-2 70q0 44 2 70t8 48q13 49 51.5 81.5t92.5 37.5q16 3 35 3q33 0 63 -8.5t50 -24.5q2 -2 3 -1.5t0 3.5q-19 58 -66 117q-2 4 -5 2l-92 -27l-4 -1
q-6 0 -9 8l-6 22l-1 4q0 6 8 9l70 21q6 2 1 5q-37 39 -78 75q-4 3 -4 6q0 6 9 6h56q7 0 12 -5q44 -42 67 -66q2 -2 5 -1l77 23l4 1q6 0 9 -8l6 -23v-3q0 -6 -7 -9l-55 -17q-4 -1 -3 -4q39 -48 64 -104t31 -129zM386 144q6 24 6 98q0 73 -6 96q-9 43 -42 69.5t-81 26.5
q-47 0 -79.5 -26.5t-41.5 -69.5q-7 -23 -7 -96q0 -70 7 -98q9 -43 41.5 -69.5t79.5 -26.5q48 0 81 26.5t42 69.5z" />
    <glyph glyph-name="ntilde" unicode="&#xf1;" 
d="M290 513q80 0 127.5 -47t47.5 -126v-330q0 -10 -10 -10h-51q-10 0 -10 10v316q0 55 -33.5 90t-86.5 35q-55 0 -89 -34t-34 -89v-318q0 -10 -10 -10h-51q-10 0 -10 10v486q0 10 10 10h51q10 0 10 -10v-43q0 -2 1.5 -3t2.5 1q44 62 135 62zM334 603q-19 0 -33 6t-29 16
q-18 11 -28 15t-22 4q-18 0 -30.5 -5.5t-24.5 -19.5q-6 -9 -14 -2l-18 18q-7 7 -2 14q33 49 86 49q16 0 28.5 -5t23 -10.5t13.5 -7.5q4 -2 14.5 -8t19 -9t16.5 -3q33 0 53 28q6 10 14 2l18 -17q7 -7 1 -15q-14 -24 -37.5 -37t-48.5 -13z" />
    <glyph glyph-name="ograve" unicode="&#xf2;" horiz-adv-x="536" 
d="M273 -8q-72 0 -124 37t-72 102q-14 46 -14 123t14 122q19 64 71 101t126 37q71 0 122.5 -37t70.5 -100q14 -43 14 -123q0 -81 -14 -123q-19 -65 -70.5 -102t-123.5 -37zM273 54q48 0 82 26.5t46 71.5q9 36 9 101q0 66 -8 101q-12 45 -46.5 71.5t-83.5 26.5t-83 -26.5
t-46 -71.5q-8 -35 -8 -101t8 -101q11 -45 45.5 -71.5t84.5 -26.5zM295 584q2 -4 2 -6q0 -6 -9 -6h-36q-7 0 -12 7l-68 109q-2 4 -2 6q0 6 8 6h45q9 0 12 -7z" />
    <glyph glyph-name="oacute" unicode="&#xf3;" horiz-adv-x="536" 
d="M273 -8q-72 0 -124 37t-72 102q-14 46 -14 123t14 122q19 64 71 101t126 37q71 0 122.5 -37t70.5 -100q14 -43 14 -123q0 -81 -14 -123q-19 -65 -70.5 -102t-123.5 -37zM273 54q48 0 82 26.5t46 71.5q9 36 9 101q0 66 -8 101q-12 45 -46.5 71.5t-83.5 26.5t-83 -26.5
t-46 -71.5q-8 -35 -8 -101t8 -101q11 -45 45.5 -71.5t84.5 -26.5zM235 572q-6 0 -8 3.5t1 8.5l60 109q3 7 12 7h45q6 0 7.5 -3.5t-1.5 -8.5l-68 -109q-5 -7 -12 -7h-36z" />
    <glyph glyph-name="ocircumflex" unicode="&#xf4;" horiz-adv-x="536" 
d="M273 -8q-72 0 -124 37t-72 102q-14 46 -14 123t14 122q19 64 71 101t126 37q71 0 122.5 -37t70.5 -100q14 -43 14 -123q0 -81 -14 -123q-19 -65 -70.5 -102t-123.5 -37zM273 54q48 0 82 26.5t46 71.5q9 36 9 101q0 66 -8 101q-12 45 -46.5 71.5t-83.5 26.5t-83 -26.5
t-46 -71.5q-8 -35 -8 -101t8 -101q11 -45 45.5 -71.5t84.5 -26.5zM151 574q-6 0 -8 3.5t2 8.5l80 108q4 6 13 6h58q9 0 13 -6l81 -108q2 -2 2 -6q0 -2 -2 -4t-6 -2h-40q-9 0 -13 6l-60 82q-1 2 -3 2t-3 -2l-61 -82q-4 -6 -13 -6h-40z" />
    <glyph glyph-name="otilde" unicode="&#xf5;" horiz-adv-x="536" 
d="M273 -8q-72 0 -124 37t-72 102q-14 46 -14 123t14 122q19 64 71 101t126 37q71 0 122.5 -37t70.5 -100q14 -43 14 -123q0 -81 -14 -123q-19 -65 -70.5 -102t-123.5 -37zM273 54q48 0 82 26.5t46 71.5q9 36 9 101q0 66 -8 101q-12 45 -46.5 71.5t-83.5 26.5t-83 -26.5
t-46 -71.5q-8 -35 -8 -101t8 -101q11 -45 45.5 -71.5t84.5 -26.5zM331 603q-19 0 -33 6t-29 16q-18 11 -28 15t-22 4q-18 0 -30.5 -5.5t-24.5 -19.5q-6 -9 -14 -2l-18 18q-7 7 -2 14q33 49 86 49q16 0 28.5 -5t23 -10.5t13.5 -7.5q4 -2 14.5 -8t19 -9t16.5 -3q33 0 53 28
q6 10 14 2l18 -17q7 -7 1 -15q-14 -24 -37.5 -37t-48.5 -13z" />
    <glyph glyph-name="odieresis" unicode="&#xf6;" horiz-adv-x="536" 
d="M273 -8q-72 0 -124 37t-72 102q-14 46 -14 123t14 122q19 64 71 101t126 37q71 0 122.5 -37t70.5 -100q14 -43 14 -123q0 -81 -14 -123q-19 -65 -70.5 -102t-123.5 -37zM273 54q48 0 82 26.5t46 71.5q9 36 9 101q0 66 -8 101q-12 45 -46.5 71.5t-83.5 26.5t-83 -26.5
t-46 -71.5q-8 -35 -8 -101t8 -101q11 -45 45.5 -71.5t84.5 -26.5zM353 601q-25 0 -40.5 16t-15.5 40q0 25 15.5 40.5t40.5 15.5q24 0 40 -15.5t16 -40.5q0 -24 -16 -40t-40 -16zM182 601q-25 0 -40.5 16t-15.5 40q0 25 15.5 40.5t40.5 15.5q24 0 40 -15.5t16 -40.5
q0 -24 -16 -40t-40 -16z" />
    <glyph glyph-name="divide" unicode="&#xf7;" horiz-adv-x="500" 
d="M249 440q-22 0 -37 15.5t-15 37.5q0 21 15.5 36t36.5 15t37 -15t16 -36q0 -22 -16 -37.5t-37 -15.5zM49 295q-10 0 -10 10v41q0 10 10 10h402q10 0 10 -10v-41q0 -10 -10 -10h-402zM249 123q-22 0 -37 15t-15 37q0 21 15.5 36.5t36.5 15.5t37 -15.5t16 -36.5t-16 -36.5
t-37 -15.5z" />
    <glyph glyph-name="oslash" unicode="&#xf8;" horiz-adv-x="528" 
d="M462 377q13 -44 13 -123q0 -80 -13 -123q-20 -65 -71.5 -102t-123.5 -37q-69 0 -118 33q-4 2 -5 -1l-32 -47q-6 -9 -14 -3l-36 28q-8 6 -3 14l38 55q2 3 0 6q-16 23 -25 54q-14 46 -14 123q0 80 13 122q19 64 71 101t126 37q61 0 107 -27q4 -2 5 1l32 47q6 9 14 3l36 -28
q8 -6 3 -14l-35 -51q-1 -3 0 -6q19 -24 32 -62zM140 144q1 -2 3 -2t3 1l193 285q2 4 -2 5q-32 19 -71 19q-49 0 -83 -26.5t-45 -71.5q-9 -33 -9 -101t9 -101zM395 152q9 31 9 101q0 72 -8 101q-2 7 -8 21q-1 4 -5 0l-198 -291q-2 -4 1 -5q34 -25 81 -25q48 0 82.5 26.5
t45.5 71.5z" />
    <glyph glyph-name="ugrave" unicode="&#xf9;" 
d="M386 496q0 10 10 10h51q10 0 10 -10v-486q0 -10 -10 -10h-51q-10 0 -10 10v43q0 2 -2 3t-3 -1q-42 -62 -133 -62q-48 0 -88.5 19.5t-64 56.5t-23.5 89v338q0 10 10 10h51q10 0 10 -10v-317q0 -57 32 -90.5t87 -33.5q57 0 90.5 34t33.5 90v317zM296 584q2 -4 2 -6
q0 -6 -9 -6h-36q-7 0 -12 7l-68 109q-2 4 -2 6q0 6 8 6h45q9 0 12 -7z" />
    <glyph glyph-name="uacute" unicode="&#xfa;" 
d="M386 496q0 10 10 10h51q10 0 10 -10v-486q0 -10 -10 -10h-51q-10 0 -10 10v43q0 2 -2 3t-3 -1q-42 -62 -133 -62q-48 0 -88.5 19.5t-64 56.5t-23.5 89v338q0 10 10 10h51q10 0 10 -10v-317q0 -57 32 -90.5t87 -33.5q57 0 90.5 34t33.5 90v317zM236 572q-6 0 -8 3.5t1 8.5
l60 109q3 7 12 7h45q6 0 7.5 -3.5t-1.5 -8.5l-68 -109q-5 -7 -12 -7h-36z" />
    <glyph glyph-name="ucircumflex" unicode="&#xfb;" 
d="M386 496q0 10 10 10h51q10 0 10 -10v-486q0 -10 -10 -10h-51q-10 0 -10 10v43q0 2 -2 3t-3 -1q-42 -62 -133 -62q-48 0 -88.5 19.5t-64 56.5t-23.5 89v338q0 10 10 10h51q10 0 10 -10v-317q0 -57 32 -90.5t87 -33.5q57 0 90.5 34t33.5 90v317zM152 574q-6 0 -8 3.5t2 8.5
l80 108q4 6 13 6h58q9 0 13 -6l81 -108q2 -2 2 -6q0 -2 -2 -4t-6 -2h-40q-9 0 -13 6l-60 82q-1 2 -3 2t-3 -2l-61 -82q-4 -6 -13 -6h-40z" />
    <glyph glyph-name="udieresis" unicode="&#xfc;" 
d="M386 496q0 10 10 10h51q10 0 10 -10v-486q0 -10 -10 -10h-51q-10 0 -10 10v43q0 2 -2 3t-3 -1q-42 -62 -133 -62q-48 0 -88.5 19.5t-64 56.5t-23.5 89v338q0 10 10 10h51q10 0 10 -10v-317q0 -57 32 -90.5t87 -33.5q57 0 90.5 34t33.5 90v317zM355 601q-25 0 -40.5 16
t-15.5 40q0 25 15.5 40.5t40.5 15.5q24 0 40 -15.5t16 -40.5q0 -24 -16 -40t-40 -16zM184 601q-25 0 -40.5 16t-15.5 40q0 25 15.5 40.5t40.5 15.5q24 0 40 -15.5t16 -40.5q0 -24 -16 -40t-40 -16z" />
    <glyph glyph-name="yacute" unicode="&#xfd;" horiz-adv-x="461" 
d="M57 -200q-7 0 -7 10v40q0 10 10 10h4q39 1 60.5 11.5t37 39t33.5 86.5q2 4 0 6l-169 492l-1 4q0 7 9 7h53q9 0 12 -8l130 -404q1 -2 3 -2t3 2l128 404q3 8 12 8h52q11 0 8 -11l-185 -539q-24 -67 -45 -99t-52.5 -44.5t-88.5 -12.5h-7zM197 576q-6 0 -8 3.5t1 8.5l60 109
q3 7 12 7h45q6 0 7.5 -3.5t-1.5 -8.5l-68 -109q-5 -7 -12 -7h-36z" />
    <glyph glyph-name="thorn" unicode="&#xfe;" horiz-adv-x="540" 
d="M465 381q7 -25 9 -54t2 -75q0 -47 -1.5 -73t-7.5 -48q-15 -63 -63.5 -101t-115.5 -38q-45 0 -78.5 18t-53.5 50q-1 3 -3 2.5t-2 -3.5v-249q0 -10 -10 -10h-51q-10 0 -10 10v880q0 10 10 10h51q10 0 10 -10v-242q0 -3 1.5 -3t3.5 2q42 67 130 67q68 0 116 -37t63 -96z
M395 150q4 16 5.5 35t1.5 68q0 50 -1.5 69t-5.5 34q-9 42 -42.5 69t-81.5 27q-46 0 -77 -25.5t-40 -64.5q-1 -3 -1 -7q-1 -1 -1 -4l-1 -2v-193l1 -4q0 -3 1 -4q9 -41 40 -67.5t78 -26.5q48 0 82 27t42 69z" />
    <glyph glyph-name="ydieresis" unicode="&#xff;" horiz-adv-x="461" 
d="M57 -200q-7 0 -7 10v40q0 10 10 10h4q39 1 60.5 11.5t37 39t33.5 86.5q2 4 0 6l-169 492l-1 4q0 7 9 7h53q9 0 12 -8l130 -404q1 -2 3 -2t3 2l128 404q3 8 12 8h52q11 0 8 -11l-185 -539q-24 -67 -45 -99t-52.5 -44.5t-88.5 -12.5h-7zM316 605q-25 0 -40.5 16t-15.5 40
q0 25 15.5 40.5t40.5 15.5q24 0 40 -15.5t16 -40.5q0 -24 -16 -40t-40 -16zM145 605q-25 0 -40.5 16t-15.5 40q0 25 15.5 40.5t40.5 15.5q24 0 40 -15.5t16 -40.5q0 -24 -16 -40t-40 -16z" />
    <glyph glyph-name="Amacron" unicode="&#x100;" horiz-adv-x="607" 
d="M509 0q-9 0 -12 8l-40 126q-1 3 -4 3h-299q-3 0 -4 -3l-40 -126q-3 -8 -12 -8h-54q-11 0 -8 11l221 681q3 8 12 8h68q9 0 12 -8l222 -681l1 -4q0 -7 -9 -7h-54zM170 200q-1 -2 0.5 -3.5t3.5 -1.5h258q2 0 3.5 1.5t0.5 3.5l-130 408q-1 2 -3 2t-3 -2zM178 788
q-10 0 -10 10v31q0 10 10 10h249q10 0 10 -10v-31q0 -10 -10 -10h-249z" />
    <glyph glyph-name="amacron" unicode="&#x101;" horiz-adv-x="510" 
d="M255 514q90 0 139 -46t49 -122v-336q0 -10 -10 -10h-51q-10 0 -10 10v41q0 2 -1.5 3t-3.5 -1q-25 -30 -65 -45.5t-89 -15.5q-71 0 -119 36t-48 110q0 75 54.5 118.5t151.5 43.5h116q4 0 4 4v38q0 51 -28.5 80.5t-88.5 29.5q-48 0 -78 -18.5t-37 -51.5q-3 -10 -12 -9
l-54 7q-11 2 -9 8q8 56 60 91t130 35zM227 53q59 0 102 29.5t43 79.5v78q0 4 -4 4h-105q-66 0 -106 -27t-40 -75q0 -44 30.5 -66.5t79.5 -22.5zM131 594q-10 0 -10 10v31q0 10 10 10h249q10 0 10 -10v-31q0 -10 -10 -10h-249z" />
    <glyph glyph-name="Abreve" unicode="&#x102;" horiz-adv-x="607" 
d="M509 0q-9 0 -12 8l-40 126q-1 3 -4 3h-299q-3 0 -4 -3l-40 -126q-3 -8 -12 -8h-54q-11 0 -8 11l221 681q3 8 12 8h68q9 0 12 -8l222 -681l1 -4q0 -7 -9 -7h-54zM170 200q-1 -2 0.5 -3.5t3.5 -1.5h258q2 0 3.5 1.5t0.5 3.5l-130 408q-1 2 -3 2t-3 -2zM302 756
q-49 0 -83.5 28.5t-39.5 72.5q0 10 10 10h30q10 0 11 -10q3 -26 23.5 -42.5t48.5 -16.5q29 0 49.5 16.5t23.5 42.5q1 10 11 10h30q10 0 10 -9q-4 -44 -39 -73t-85 -29z" />
    <glyph glyph-name="abreve" unicode="&#x103;" horiz-adv-x="510" 
d="M255 514q90 0 139 -46t49 -122v-336q0 -10 -10 -10h-51q-10 0 -10 10v41q0 2 -1.5 3t-3.5 -1q-25 -30 -65 -45.5t-89 -15.5q-71 0 -119 36t-48 110q0 75 54.5 118.5t151.5 43.5h116q4 0 4 4v38q0 51 -28.5 80.5t-88.5 29.5q-48 0 -78 -18.5t-37 -51.5q-3 -10 -12 -9
l-54 7q-11 2 -9 8q8 56 60 91t130 35zM227 53q59 0 102 29.5t43 79.5v78q0 4 -4 4h-105q-66 0 -106 -27t-40 -75q0 -44 30.5 -66.5t79.5 -22.5zM255 562q-49 0 -83.5 28.5t-39.5 72.5q0 10 10 10h30q10 0 11 -10q3 -26 23.5 -42.5t48.5 -16.5q29 0 49.5 16.5t23.5 42.5
q1 10 11 10h30q10 0 10 -9q-4 -44 -39 -73t-85 -29z" />
    <glyph glyph-name="Aogonek" unicode="&#x104;" horiz-adv-x="607" 
d="M509 0q-9 0 -12 8l-40 126q-1 3 -4 3h-299q-3 0 -4 -3l-40 -126q-3 -8 -12 -8h-54q-11 0 -8 11l221 681q3 8 12 8h68q9 0 12 -8l222 -681l1 -4q0 -7 -9 -7h-54zM170 200q-1 -2 0.5 -3.5t3.5 -1.5h258q2 0 3.5 1.5t0.5 3.5l-130 408q-1 2 -3 2t-3 -2zM595 -172q0 -6 -7 -9
q-20 -5 -41 -5q-32 0 -55.5 14t-31.5 46q-3 10 -3 23q0 52 59 99q5 4 13 4h27q8 0 8 -5q0 -4 -4 -7q-51 -43 -51 -82q0 -8 1 -12q4 -18 16.5 -27t31.5 -9q10 0 22 3l3 1q7 0 9 -9l3 -22v-3z" />
    <glyph glyph-name="aogonek" unicode="&#x105;" horiz-adv-x="510" 
d="M452 -138q6 0 8 -8l4 -23v-3q0 -6 -7 -9q-20 -5 -41 -5q-31 0 -55.5 14t-32.5 46q-2 7 -2 21q0 54 59 100q2 1 1 3t-3 2h-1q-10 0 -10 10v41q0 2 -1.5 3t-3.5 -1q-25 -30 -65 -45.5t-89 -15.5q-71 0 -119 36t-48 110q0 75 54.5 118.5t151.5 43.5h116q4 0 4 4v38
q0 51 -28.5 80.5t-88.5 29.5q-48 0 -78 -18.5t-37 -51.5q-3 -10 -12 -9l-54 7q-10 2 -9 11q10 55 61.5 89t128.5 34q90 0 139 -46t49 -122v-346l-5 -5q-27 -21 -43.5 -44t-16.5 -45q0 -8 1 -12q4 -18 16.5 -27t30.5 -9q10 0 22 3zM227 53q59 0 102 29.5t43 79.5v78q0 4 -4 4
h-105q-66 0 -106 -27t-40 -75q0 -44 30.5 -66.5t79.5 -22.5z" />
    <glyph glyph-name="Cacute" unicode="&#x106;" horiz-adv-x="607" 
d="M307 -9q-70 0 -123 27.5t-82.5 78t-29.5 116.5v275q0 65 29.5 115t82.5 77.5t123 27.5t123 -27t82.5 -76t29.5 -113q0 -5 -3 -8t-7 -3l-51 -3q-10 0 -10 9v3q0 71 -45 113.5t-119 42.5t-119 -43t-45 -113v-280q0 -70 45 -113t119 -43t119 42.5t45 113.5v2q0 9 10 9l51 -3
q10 0 10 -9q0 -65 -29.5 -114.5t-82.5 -76.5t-123 -27zM274 766q-6 0 -8 3.5t1 8.5l60 109q3 7 12 7h45q6 0 7.5 -3.5t-1.5 -8.5l-68 -109q-5 -7 -12 -7h-36z" />
    <glyph glyph-name="cacute" unicode="&#x107;" horiz-adv-x="520" 
d="M271 -8q-72 0 -123.5 37.5t-70.5 101.5q-13 44 -13 124q0 72 13 122q18 62 70 99.5t124 37.5q73 0 126.5 -37t69.5 -92q5 -18 6 -30v-2q0 -7 -9 -9l-50 -7h-2q-7 0 -9 9l-3 15q-9 38 -44 64.5t-85 26.5t-83.5 -26.5t-43.5 -70.5q-9 -38 -9 -101q0 -66 9 -102
q10 -45 43.5 -71.5t83.5 -26.5q49 0 84.5 25.5t44.5 65.5v4l1 4q1 10 12 8l49 -8q10 -2 9 -11l-4 -20q-15 -58 -69 -94t-127 -36zM237 572q-6 0 -8 3.5t1 8.5l60 109q3 7 12 7h45q6 0 7.5 -3.5t-1.5 -8.5l-68 -109q-5 -7 -12 -7h-36z" />
    <glyph glyph-name="Ccircumflex" unicode="&#x108;" horiz-adv-x="607" 
d="M307 -9q-70 0 -123 27.5t-82.5 78t-29.5 116.5v275q0 65 29.5 115t82.5 77.5t123 27.5t123 -27t82.5 -76t29.5 -113q0 -5 -3 -8t-7 -3l-51 -3q-10 0 -10 9v3q0 71 -45 113.5t-119 42.5t-119 -43t-45 -113v-280q0 -70 45 -113t119 -43t119 42.5t45 113.5v2q0 9 10 9l51 -3
q10 0 10 -9q0 -65 -29.5 -114.5t-82.5 -76.5t-123 -27zM190 768q-6 0 -8 3.5t2 8.5l80 108q4 6 13 6h58q9 0 13 -6l81 -108q2 -2 2 -6q0 -2 -2 -4t-6 -2h-40q-9 0 -13 6l-60 82q-1 2 -3 2t-3 -2l-61 -82q-4 -6 -13 -6h-40z" />
    <glyph glyph-name="ccircumflex" unicode="&#x109;" horiz-adv-x="520" 
d="M271 -8q-72 0 -123.5 37.5t-70.5 101.5q-13 44 -13 124q0 72 13 122q18 62 70 99.5t124 37.5q73 0 126.5 -37t69.5 -92q5 -18 6 -30v-2q0 -7 -9 -9l-50 -7h-2q-7 0 -9 9l-3 15q-9 38 -44 64.5t-85 26.5t-83.5 -26.5t-43.5 -70.5q-9 -38 -9 -101q0 -66 9 -102
q10 -45 43.5 -71.5t83.5 -26.5q49 0 84.5 25.5t44.5 65.5v4l1 4q1 10 12 8l49 -8q10 -2 9 -11l-4 -20q-15 -58 -69 -94t-127 -36zM153 574q-6 0 -8 3.5t2 8.5l80 108q4 6 13 6h58q9 0 13 -6l81 -108q2 -2 2 -6q0 -2 -2 -4t-6 -2h-40q-9 0 -13 6l-60 82q-1 2 -3 2t-3 -2
l-61 -82q-4 -6 -13 -6h-40z" />
    <glyph glyph-name="Cdotaccent" unicode="&#x10a;" horiz-adv-x="607" 
d="M307 -9q-70 0 -123 27.5t-82.5 78t-29.5 116.5v275q0 65 29.5 115t82.5 77.5t123 27.5t123 -27t82.5 -76t29.5 -113q0 -5 -3 -8t-7 -3l-51 -3q-10 0 -10 9v3q0 71 -45 113.5t-119 42.5t-119 -43t-45 -113v-280q0 -70 45 -113t119 -43t119 42.5t45 113.5v2q0 9 10 9l51 -3
q10 0 10 -9q0 -65 -29.5 -114.5t-82.5 -76.5t-123 -27zM307 792q-25 0 -40.5 16t-15.5 40q0 25 15.5 40.5t40.5 15.5q24 0 40 -15.5t16 -40.5q0 -24 -16 -40t-40 -16z" />
    <glyph glyph-name="cdotaccent" unicode="&#x10b;" horiz-adv-x="520" 
d="M271 -8q-72 0 -123.5 37.5t-70.5 101.5q-13 44 -13 124q0 72 13 122q18 62 70 99.5t124 37.5q73 0 126.5 -37t69.5 -92q5 -18 6 -30v-2q0 -7 -9 -9l-50 -7h-2q-7 0 -9 9l-3 15q-9 38 -44 64.5t-85 26.5t-83.5 -26.5t-43.5 -70.5q-9 -38 -9 -101q0 -66 9 -102
q10 -45 43.5 -71.5t83.5 -26.5q49 0 84.5 25.5t44.5 65.5v4l1 4q1 10 12 8l49 -8q10 -2 9 -11l-4 -20q-15 -58 -69 -94t-127 -36zM270 598q-25 0 -40.5 16t-15.5 40q0 25 15.5 40.5t40.5 15.5q24 0 40 -15.5t16 -40.5q0 -24 -16 -40t-40 -16z" />
    <glyph glyph-name="Ccaron" unicode="&#x10c;" horiz-adv-x="607" 
d="M307 -9q-70 0 -123 27.5t-82.5 78t-29.5 116.5v275q0 65 29.5 115t82.5 77.5t123 27.5t123 -27t82.5 -76t29.5 -113q0 -5 -3 -8t-7 -3l-51 -3q-10 0 -10 9v3q0 71 -45 113.5t-119 42.5t-119 -43t-45 -113v-280q0 -70 45 -113t119 -43t119 42.5t45 113.5v2q0 9 10 9l51 -3
q10 0 10 -9q0 -65 -29.5 -114.5t-82.5 -76.5t-123 -27zM187 882q-2 2 -2 6q0 2 2 4t6 2h40q9 0 13 -6l61 -82q1 -1 3 -1t3 1l60 82q4 6 13 6h40q6 0 8 -3.5t-2 -8.5l-81 -108q-4 -6 -13 -6h-58q-9 0 -13 6z" />
    <glyph glyph-name="ccaron" unicode="&#x10d;" horiz-adv-x="520" 
d="M271 -8q-72 0 -123.5 37.5t-70.5 101.5q-13 44 -13 124q0 72 13 122q18 62 70 99.5t124 37.5q73 0 126.5 -37t69.5 -92q5 -18 6 -30v-2q0 -7 -9 -9l-50 -7h-2q-7 0 -9 9l-3 15q-9 38 -44 64.5t-85 26.5t-83.5 -26.5t-43.5 -70.5q-9 -38 -9 -101q0 -66 9 -102
q10 -45 43.5 -71.5t83.5 -26.5q49 0 84.5 25.5t44.5 65.5v4l1 4q1 10 12 8l49 -8q10 -2 9 -11l-4 -20q-15 -58 -69 -94t-127 -36zM150 688q-2 2 -2 6q0 2 2 4t6 2h40q9 0 13 -6l61 -82q1 -1 3 -1t3 1l60 82q4 6 13 6h40q6 0 8 -3.5t-2 -8.5l-81 -108q-4 -6 -13 -6h-58
q-9 0 -13 6z" />
    <glyph glyph-name="Dcaron" unicode="&#x10e;" horiz-adv-x="618" 
d="M104 0q-10 0 -10 10v680q0 10 10 10h236q99 0 157.5 -52t58.5 -141v-314q0 -89 -58.5 -141t-157.5 -52h-236zM165 66q0 -4 4 -4h174q65 0 103.5 38t38.5 102v295q0 65 -38 103t-104 38h-174q-4 0 -4 -4v-568zM190 880q-2 2 -2 6q0 2 2 4t6 2h40q9 0 13 -6l61 -82
q1 -1 3 -1t3 1l60 82q4 6 13 6h40q6 0 8 -3.5t-2 -8.5l-81 -108q-4 -6 -13 -6h-58q-9 0 -13 6z" />
    <glyph glyph-name="dcaron" unicode="&#x10f;" horiz-adv-x="546" 
d="M394 690q0 10 10 10h51q10 0 10 -10v-680q0 -10 -10 -10h-51q-10 0 -10 10v42q0 2 -1.5 2.5t-3.5 -1.5q-22 -29 -54.5 -45t-72.5 -16q-70 0 -117.5 36t-65.5 98q-14 45 -14 127q0 83 12 124q18 64 66 100.5t119 36.5q39 0 72 -15.5t55 -44.5q2 -2 3.5 -1.5t1.5 2.5v235z
M376 131q9 20 13 47t4 75t-4 75.5t-14 48.5q-12 34 -39.5 54.5t-65.5 20.5q-40 0 -69 -20t-42 -53q-12 -22 -17.5 -49.5t-5.5 -76.5q0 -47 4 -73.5t14 -47.5q12 -36 42.5 -57t72.5 -21q40 0 67 21t40 56zM519 572q-6 0 -8 3.5t1 8.5l60 109q3 7 12 7h45q6 0 7.5 -3.5
t-1.5 -8.5l-68 -109q-5 -7 -12 -7h-36z" />
    <glyph glyph-name="Dcroat" unicode="&#x110;" horiz-adv-x="683" 
d="M405 700q99 0 157.5 -52t58.5 -141v-314q0 -89 -58.5 -141t-157.5 -52h-236q-10 0 -10 10v324q0 4 -4 4h-51q-10 0 -10 10v32q0 10 10 10h51q4 0 4 4v296q0 10 10 10h236zM550 497q0 65 -38 103t-104 38h-174q-4 0 -4 -4v-240q0 -4 4 -4h119q10 0 10 -10v-32
q0 -10 -10 -10h-119q-4 0 -4 -4v-268q0 -4 4 -4h175q65 0 103 38t38 102v295z" />
    <glyph glyph-name="dcroat" unicode="&#x111;" horiz-adv-x="546" 
d="M529 620q10 0 10 -10v-27q0 -10 -10 -10h-60q-4 0 -4 -4v-559q0 -10 -10 -10h-51q-10 0 -10 10v42q0 2 -1.5 2.5t-3.5 -1.5q-22 -29 -54.5 -45t-72.5 -16q-70 0 -117.5 36t-65.5 98q-14 45 -14 127q0 83 12 124q18 64 66 100.5t119 36.5q39 0 72 -15.5t55 -44.5
q2 -2 3.5 -1.5t1.5 2.5v114q0 4 -4 4h-159q-10 0 -10 10v27q0 10 10 10h159q4 0 4 4v66q0 10 10 10h51q10 0 10 -10v-66q0 -4 4 -4h60zM376 131q9 20 13 47t4 75t-4 75.5t-14 48.5q-12 34 -39.5 54.5t-65.5 20.5q-40 0 -69 -20t-42 -53q-12 -22 -17.5 -49.5t-5.5 -76.5
q0 -47 4 -73.5t14 -47.5q12 -36 42.5 -57t72.5 -21q40 0 67 21t40 56z" />
    <glyph glyph-name="Emacron" unicode="&#x112;" horiz-adv-x="605" 
d="M547 648q0 -10 -10 -10h-368q-4 0 -4 -4v-247q0 -4 4 -4h258q10 0 10 -10v-42q0 -10 -10 -10h-258q-4 0 -4 -4v-251q0 -4 4 -4h368q10 0 10 -10v-42q0 -10 -10 -10h-433q-10 0 -10 10v680q0 10 10 10h433q10 0 10 -10v-42zM193 788q-10 0 -10 10v31q0 10 10 10h249
q10 0 10 -10v-31q0 -10 -10 -10h-249z" />
    <glyph glyph-name="emacron" unicode="&#x113;" horiz-adv-x="533" 
d="M468 338q4 -28 4 -70v-32q0 -10 -10 -10h-323q-4 0 -4 -4q2 -55 6 -71q11 -45 47 -71t92 -26q42 0 74 19t50 54q6 9 14 4l39 -23q8 -5 4 -14q-25 -48 -75 -75.5t-115 -27.5q-71 1 -119 34t-69 92q-18 48 -18 138q0 42 1.5 68.5t7.5 47.5q17 65 68.5 104t124.5 39
q91 0 140 -46t61 -130zM267 452q-49 0 -81.5 -25.5t-42.5 -68.5q-6 -21 -8 -68q0 -4 4 -4h259q4 0 4 4q-2 45 -6 64q-11 45 -44.5 71.5t-84.5 26.5zM142 621q-10 0 -10 10v32q0 10 10 10h249q10 0 10 -10v-32q0 -10 -10 -10h-249z" />
    <glyph glyph-name="Edotaccent" unicode="&#x116;" horiz-adv-x="605" 
d="M547 648q0 -10 -10 -10h-368q-4 0 -4 -4v-247q0 -4 4 -4h258q10 0 10 -10v-42q0 -10 -10 -10h-258q-4 0 -4 -4v-251q0 -4 4 -4h368q10 0 10 -10v-42q0 -10 -10 -10h-433q-10 0 -10 10v680q0 10 10 10h433q10 0 10 -10v-42zM316 792q-25 0 -40.5 16t-15.5 40
q0 25 15.5 40.5t40.5 15.5q24 0 40 -15.5t16 -40.5q0 -24 -16 -40t-40 -16z" />
    <glyph glyph-name="edotaccent" unicode="&#x117;" horiz-adv-x="533" 
d="M468 338q4 -28 4 -70v-32q0 -10 -10 -10h-323q-4 0 -4 -4q2 -55 6 -71q11 -45 47 -71t92 -26q42 0 74 19t50 54q6 9 14 4l39 -23q8 -5 4 -14q-25 -48 -75 -75.5t-115 -27.5q-71 1 -119 34t-69 92q-18 48 -18 138q0 42 1.5 68.5t7.5 47.5q17 65 68.5 104t124.5 39
q91 0 140 -46t61 -130zM267 452q-49 0 -81.5 -25.5t-42.5 -68.5q-6 -21 -8 -68q0 -4 4 -4h259q4 0 4 4q-2 45 -6 64q-11 45 -44.5 71.5t-84.5 26.5zM266 598q-25 0 -40.5 16t-15.5 40q0 25 15.5 40.5t40.5 15.5q24 0 40 -15.5t16 -40.5q0 -24 -16 -40t-40 -16z" />
    <glyph glyph-name="Eogonek" unicode="&#x118;" horiz-adv-x="605" 
d="M547 648q0 -10 -10 -10h-368q-4 0 -4 -4v-247q0 -4 4 -4h258q10 0 10 -10v-42q0 -10 -10 -10h-258q-4 0 -4 -4v-251q0 -4 4 -4h368q10 0 10 -10v-42q0 -10 -10 -10h-187q-3 0 -5 -2q-25 -20 -39.5 -42t-14.5 -44q0 -7 1 -10q4 -18 17 -27t31 -9q10 0 22 3l4 1q6 0 8 -8
l4 -23v-3q0 -6 -7 -9q-20 -5 -41 -5q-32 0 -56 14t-32 46q-3 10 -3 23q0 48 49 90q2 2 1 3.5t-3 1.5h-182q-10 0 -10 10v680q0 10 10 10h433q10 0 10 -10v-42z" />
    <glyph glyph-name="eogonek" unicode="&#x119;" horiz-adv-x="533" 
d="M468 338q4 -28 4 -70v-32q0 -10 -10 -10h-323q-4 0 -4 -4q2 -55 6 -71q11 -45 47 -71t92 -26q42 0 74 19t50 54q6 9 14 4l39 -23q8 -5 4 -14q-23 -42 -65 -69t-97 -33q-3 0 -5 -2q-54 -44 -54 -85q0 -24 13.5 -35.5t35.5 -11.5q10 0 22 3l4 1q6 0 8 -8l4 -23v-2
q0 -7 -8 -10q-22 -5 -42 -5q-32 0 -55 13.5t-31 45.5q-3 12 -3 23q0 49 51 93q5 3 -1 5q-58 7 -97.5 39t-57.5 84q-18 48 -18 138q0 42 1.5 68.5t7.5 47.5q17 65 68.5 104t124.5 39q91 0 140 -46t61 -130zM267 452q-49 0 -81.5 -25.5t-42.5 -68.5q-6 -21 -8 -68q0 -4 4 -4
h259q4 0 4 4q-2 45 -6 64q-11 45 -44.5 71.5t-84.5 26.5z" />
    <glyph glyph-name="Ecaron" unicode="&#x11a;" horiz-adv-x="605" 
d="M547 648q0 -10 -10 -10h-368q-4 0 -4 -4v-247q0 -4 4 -4h258q10 0 10 -10v-42q0 -10 -10 -10h-258q-4 0 -4 -4v-251q0 -4 4 -4h368q10 0 10 -10v-42q0 -10 -10 -10h-433q-10 0 -10 10v680q0 10 10 10h433q10 0 10 -10v-42zM196 882q-2 2 -2 6q0 2 2 4t6 2h40q9 0 13 -6
l61 -82q1 -1 3 -1t3 1l60 82q4 6 13 6h40q6 0 8 -3.5t-2 -8.5l-81 -108q-4 -6 -13 -6h-58q-9 0 -13 6z" />
    <glyph glyph-name="ecaron" unicode="&#x11b;" horiz-adv-x="533" 
d="M468 338q4 -28 4 -70v-32q0 -10 -10 -10h-323q-4 0 -4 -4q2 -55 6 -71q11 -45 47 -71t92 -26q42 0 74 19t50 54q6 9 14 4l39 -23q8 -5 4 -14q-25 -48 -75 -75.5t-115 -27.5q-71 1 -119 34t-69 92q-18 48 -18 138q0 42 1.5 68.5t7.5 47.5q17 65 68.5 104t124.5 39
q91 0 140 -46t61 -130zM267 452q-49 0 -81.5 -25.5t-42.5 -68.5q-6 -21 -8 -68q0 -4 4 -4h259q4 0 4 4q-2 45 -6 64q-11 45 -44.5 71.5t-84.5 26.5zM145 686q-2 2 -2 6q0 2 2 4t6 2h40q9 0 13 -6l61 -82q1 -1 3 -1t3 1l60 82q4 6 13 6h40q6 0 8 -3.5t-2 -8.5l-81 -108
q-4 -6 -13 -6h-58q-9 0 -13 6z" />
    <glyph glyph-name="Gcircumflex" unicode="&#x11c;" horiz-adv-x="613" 
d="M307 -8q-70 0 -123 27.5t-82.5 77.5t-29.5 115v276q0 65 29.5 115t82.5 77.5t123 27.5q69 0 122.5 -27t82.5 -75.5t29 -109.5v-13q0 -10 -10 -10h-51q-10 0 -10 10v12q0 67 -44.5 109t-118.5 42t-119 -43t-45 -113v-280q0 -70 46 -113t121 -43q73 0 116.5 40t43.5 107v91
q0 4 -4 4h-147q-10 0 -10 10v42q0 10 10 10h212q10 0 10 -10v-129q0 -107 -63.5 -167t-170.5 -60zM189 770q-6 0 -8 3.5t2 8.5l80 108q4 6 13 6h58q9 0 13 -6l81 -108q2 -2 2 -6q0 -2 -2 -4t-6 -2h-40q-9 0 -13 6l-60 82q-1 2 -3 2t-3 -2l-61 -82q-4 -6 -13 -6h-40z" />
    <glyph glyph-name="gcircumflex" unicode="&#x11d;" horiz-adv-x="535" 
d="M392 496q0 10 10 10h51q10 0 10 -10v-479q0 -112 -64.5 -164t-177.5 -52q-23 0 -35 1q-10 1 -10 11l2 46q0 5 3 7.5t7 1.5l27 -1q93 0 135 36.5t42 115.5v37q0 2 -1.5 2.5t-3.5 -1.5q-46 -60 -131 -60q-65 0 -115.5 35t-67.5 99q-12 41 -12 122q0 44 2.5 74t10.5 54
q18 60 65 96.5t113 36.5q89 0 135 -59q2 -2 3.5 -1t1.5 3v39zM387 153q3 15 4 37t1 64q0 51 -1 68.5t-5 32.5q-8 42 -39.5 69.5t-79.5 27.5q-47 0 -79.5 -27t-45.5 -70q-10 -32 -10 -100q0 -73 10 -101q10 -42 43.5 -69.5t81.5 -27.5q49 0 80.5 27t39.5 69zM159 574
q-6 0 -8 3.5t2 8.5l80 108q4 6 13 6h58q9 0 13 -6l81 -108q2 -2 2 -6q0 -2 -2 -4t-6 -2h-40q-9 0 -13 6l-60 82q-1 2 -3 2t-3 -2l-61 -82q-4 -6 -13 -6h-40z" />
    <glyph glyph-name="Gbreve" unicode="&#x11e;" horiz-adv-x="613" 
d="M307 -8q-70 0 -123 27.5t-82.5 77.5t-29.5 115v276q0 65 29.5 115t82.5 77.5t123 27.5q69 0 122.5 -27t82.5 -75.5t29 -109.5v-13q0 -10 -10 -10h-51q-10 0 -10 10v12q0 67 -44.5 109t-118.5 42t-119 -43t-45 -113v-280q0 -70 46 -113t121 -43q73 0 116.5 40t43.5 107v91
q0 4 -4 4h-147q-10 0 -10 10v42q0 10 10 10h212q10 0 10 -10v-129q0 -107 -63.5 -167t-170.5 -60zM306 758q-49 0 -83.5 28.5t-39.5 72.5q0 10 10 10h30q10 0 11 -10q3 -26 23.5 -42.5t48.5 -16.5q29 0 49.5 16.5t23.5 42.5q1 10 11 10h30q10 0 10 -9q-4 -44 -39 -73
t-85 -29z" />
    <glyph glyph-name="gbreve" unicode="&#x11f;" horiz-adv-x="535" 
d="M392 496q0 10 10 10h51q10 0 10 -10v-479q0 -112 -64.5 -164t-177.5 -52q-23 0 -35 1q-10 1 -10 11l2 46q0 5 3 7.5t7 1.5l27 -1q93 0 135 36.5t42 115.5v37q0 2 -1.5 2.5t-3.5 -1.5q-46 -60 -131 -60q-65 0 -115.5 35t-67.5 99q-12 41 -12 122q0 44 2.5 74t10.5 54
q18 60 65 96.5t113 36.5q89 0 135 -59q2 -2 3.5 -1t1.5 3v39zM387 153q3 15 4 37t1 64q0 51 -1 68.5t-5 32.5q-8 42 -39.5 69.5t-79.5 27.5q-47 0 -79.5 -27t-45.5 -70q-10 -32 -10 -100q0 -73 10 -101q10 -42 43.5 -69.5t81.5 -27.5q49 0 80.5 27t39.5 69zM275 562
q-49 0 -83.5 28.5t-39.5 72.5q0 10 10 10h30q10 0 11 -10q3 -26 23.5 -42.5t48.5 -16.5q29 0 49.5 16.5t23.5 42.5q1 10 11 10h30q10 0 10 -9q-4 -44 -39 -73t-85 -29z" />
    <glyph glyph-name="Gdotaccent" unicode="&#x120;" horiz-adv-x="613" 
d="M307 -8q-70 0 -123 27.5t-82.5 77.5t-29.5 115v276q0 65 29.5 115t82.5 77.5t123 27.5q69 0 122.5 -27t82.5 -75.5t29 -109.5v-13q0 -10 -10 -10h-51q-10 0 -10 10v12q0 67 -44.5 109t-118.5 42t-119 -43t-45 -113v-280q0 -70 46 -113t121 -43q73 0 116.5 40t43.5 107v91
q0 4 -4 4h-147q-10 0 -10 10v42q0 10 10 10h212q10 0 10 -10v-129q0 -107 -63.5 -167t-170.5 -60zM306 794q-25 0 -40.5 16t-15.5 40q0 25 15.5 40.5t40.5 15.5q24 0 40 -15.5t16 -40.5q0 -24 -16 -40t-40 -16z" />
    <glyph glyph-name="gdotaccent" unicode="&#x121;" horiz-adv-x="535" 
d="M392 496q0 10 10 10h51q10 0 10 -10v-479q0 -112 -64.5 -164t-177.5 -52q-23 0 -35 1q-10 1 -10 11l2 46q0 5 3 7.5t7 1.5l27 -1q93 0 135 36.5t42 115.5v37q0 2 -1.5 2.5t-3.5 -1.5q-46 -60 -131 -60q-65 0 -115.5 35t-67.5 99q-12 41 -12 122q0 44 2.5 74t10.5 54
q18 60 65 96.5t113 36.5q89 0 135 -59q2 -2 3.5 -1t1.5 3v39zM387 153q3 15 4 37t1 64q0 51 -1 68.5t-5 32.5q-8 42 -39.5 69.5t-79.5 27.5q-47 0 -79.5 -27t-45.5 -70q-10 -32 -10 -100q0 -73 10 -101q10 -42 43.5 -69.5t81.5 -27.5q49 0 80.5 27t39.5 69zM276 598
q-25 0 -40.5 16t-15.5 40q0 25 15.5 40.5t40.5 15.5q24 0 40 -15.5t16 -40.5q0 -24 -16 -40t-40 -16z" />
    <glyph glyph-name="uni0122" unicode="&#x122;" horiz-adv-x="613" 
d="M307 -8q-70 0 -123 27.5t-82.5 77.5t-29.5 115v276q0 65 29.5 115t82.5 77.5t123 27.5q69 0 122.5 -27t82.5 -75.5t29 -109.5v-13q0 -10 -10 -10h-51q-10 0 -10 10v12q0 67 -44.5 109t-118.5 42t-119 -43t-45 -113v-280q0 -70 46 -113t121 -43q73 0 116.5 40t43.5 107v91
q0 4 -4 4h-147q-10 0 -10 10v42q0 10 10 10h212q10 0 10 -10v-129q0 -107 -63.5 -167t-170.5 -60zM243 -198q-6 0 -8 3.5t1 8.5l60 109q3 7 12 7h45q6 0 7.5 -3.5t-1.5 -8.5l-68 -109q-5 -7 -12 -7h-36z" />
    <glyph glyph-name="uni0123" unicode="&#x123;" horiz-adv-x="535" 
d="M338 696q5 0 7.5 -3.5t-0.5 -8.5l-59 -109q-3 -7 -12 -7h-45q-6 0 -8 3.5t1 8.5l68 109q5 7 12 7h36zM392 496q0 10 10 10h51q10 0 10 -10v-479q0 -112 -64.5 -164t-177.5 -52q-23 0 -35 1q-10 1 -10 11l2 46q0 5 3 7.5t7 1.5l27 -1q93 0 135 36.5t42 115.5v37
q0 2 -1.5 2.5t-3.5 -1.5q-46 -60 -131 -60q-65 0 -115.5 35t-67.5 99q-12 41 -12 122q0 44 2.5 74t10.5 54q18 60 65 96.5t113 36.5q89 0 135 -59q2 -2 3.5 -1t1.5 3v39zM387 153q3 15 4 37t1 64q0 51 -1 68.5t-5 32.5q-8 42 -39.5 69.5t-79.5 27.5q-47 0 -79.5 -27
t-45.5 -70q-10 -32 -10 -100q0 -73 10 -101q10 -42 43.5 -69.5t81.5 -27.5q49 0 80.5 27t39.5 69z" />
    <glyph glyph-name="Hcircumflex" unicode="&#x124;" horiz-adv-x="654" 
d="M492 690q0 10 10 10h51q10 0 10 -10v-680q0 -10 -10 -10h-51q-10 0 -10 10v307q0 4 -4 4h-319q-4 0 -4 -4v-307q0 -10 -10 -10h-51q-10 0 -10 10v680q0 10 10 10h51q10 0 10 -10v-303q0 -4 4 -4h319q4 0 4 4v303zM212 769q-6 0 -8 3.5t2 8.5l80 108q4 6 13 6h58
q9 0 13 -6l81 -108q2 -2 2 -6q0 -2 -2 -4t-6 -2h-40q-9 0 -13 6l-60 82q-1 2 -3 2t-3 -2l-61 -82q-4 -6 -13 -6h-40z" />
    <glyph glyph-name="hcircumflex" unicode="&#x125;" 
d="M290 513q80 0 127.5 -47t47.5 -126v-330q0 -10 -10 -10h-51q-10 0 -10 10v316q0 55 -33.5 90t-86.5 35q-55 0 -89 -34t-34 -89v-318q0 -10 -10 -10h-51q-10 0 -10 10v680q0 10 10 10h51q10 0 10 -10v-237q0 -2 1.5 -3t2.5 1q44 62 135 62zM159 751q-6 0 -8 3.5t2 8.5
l80 108q4 6 13 6h58q9 0 13 -6l81 -108q2 -2 2 -6q0 -2 -2 -4t-6 -2h-40q-9 0 -13 6l-60 82q-1 2 -3 2t-3 -2l-61 -82q-4 -6 -13 -6h-40z" />
    <glyph glyph-name="Hbar" unicode="&#x126;" horiz-adv-x="654" 
d="M614 560q10 0 10 -10v-32q0 -10 -10 -10h-47q-4 0 -4 -4v-494q0 -10 -10 -10h-51q-10 0 -10 10v307q0 4 -4 4h-319q-4 0 -4 -4v-307q0 -10 -10 -10h-51q-10 0 -10 10v494q0 4 -4 4h-47q-10 0 -10 10v32q0 10 10 10h47q4 0 4 4v126q0 10 10 10h51q10 0 10 -10v-126
q0 -4 4 -4h319q4 0 4 4v126q0 10 10 10h51q10 0 10 -10v-126q0 -4 4 -4h47zM488 383q4 0 4 4v117q0 4 -4 4h-319q-4 0 -4 -4v-117q0 -4 4 -4h319z" />
    <glyph glyph-name="hbar" unicode="&#x127;" 
d="M290 513q80 0 127.5 -47t47.5 -126v-330q0 -10 -10 -10h-51q-10 0 -10 10v316q0 55 -33.5 90t-86.5 35q-55 0 -89 -34t-34 -89v-318q0 -10 -10 -10h-51q-10 0 -10 10v544q0 4 -4 4h-58q-10 0 -10 10v27q0 10 10 10h58q4 0 4 4v81q0 10 10 10h51q10 0 10 -10v-81
q0 -4 4 -4h160q10 0 10 -10v-27q0 -10 -10 -10h-160q-4 0 -4 -4v-101q0 -2 1.5 -3t2.5 1q44 62 135 62z" />
    <glyph glyph-name="Itilde" unicode="&#x128;" horiz-adv-x="259" 
d="M104 0q-10 0 -10 10v680q0 10 10 10h51q10 0 10 -10v-680q0 -10 -10 -10h-51zM192 797q-19 0 -33 6t-29 16q-18 11 -28 15t-22 4q-18 0 -30.5 -5.5t-24.5 -19.5q-6 -9 -14 -2l-18 18q-7 7 -2 14q33 49 86 49q16 0 28.5 -5t23 -10.5t13.5 -7.5q4 -2 14.5 -8t19 -9t16.5 -3
q33 0 53 28q6 10 14 2l18 -17q7 -7 1 -15q-14 -24 -37.5 -37t-48.5 -13z" />
    <glyph glyph-name="itilde" unicode="&#x129;" horiz-adv-x="212" 
d="M80 0q-10 0 -10 10v486q0 10 10 10h51q10 0 10 -10v-486q0 -10 -10 -10h-51zM169 603q-19 0 -33 6t-29 16q-18 11 -28 15t-22 4q-18 0 -30.5 -5.5t-24.5 -19.5q-6 -9 -14 -2l-18 18q-7 7 -2 14q33 49 86 49q16 0 28.5 -5t23 -10.5t13.5 -7.5q4 -2 14.5 -8t19 -9t16.5 -3
q33 0 53 28q6 10 14 2l18 -17q7 -7 1 -15q-14 -24 -37.5 -37t-48.5 -13z" />
    <glyph glyph-name="Imacron" unicode="&#x12a;" horiz-adv-x="259" 
d="M104 0q-10 0 -10 10v680q0 10 10 10h51q10 0 10 -10v-680q0 -10 -10 -10h-51zM6 788q-10 0 -10 10v31q0 10 10 10h249q10 0 10 -10v-31q0 -10 -10 -10h-249z" />
    <glyph glyph-name="imacron" unicode="&#x12b;" horiz-adv-x="212" 
d="M80 0q-10 0 -10 10v486q0 10 10 10h51q10 0 10 -10v-486q0 -10 -10 -10h-51zM-18 594q-10 0 -10 10v31q0 10 10 10h249q10 0 10 -10v-31q0 -10 -10 -10h-249z" />
    <glyph glyph-name="ibreve" unicode="&#x12d;" horiz-adv-x="212" 
d="M80 0q-10 0 -10 10v486q0 10 10 10h51q10 0 10 -10v-486q0 -10 -10 -10h-51zM105 581q-49 0 -83 28.5t-39 70.5v2q0 8 9 8h27q10 0 11 -10q4 -25 25 -42t50 -17q30 0 51.5 16.5t24.5 42.5q1 10 11 10h27q10 0 10 -9q-4 -43 -39 -71.5t-85 -28.5z" />
    <glyph glyph-name="Iogonek" unicode="&#x12e;" horiz-adv-x="235" 
d="M93 0q-10 0 -10 10v680q0 10 10 10h51q10 0 10 -10v-680q0 -10 -10 -10h-51zM174 -172q0 -6 -7 -9q-20 -5 -41 -5q-32 0 -55.5 14t-31.5 46q-3 10 -3 23q0 52 59 99q5 4 13 4h27q8 0 8 -5q0 -2 -5 -7q-50 -43 -50 -82q0 -8 1 -12q4 -18 16.5 -27t30.5 -9q11 0 23 3l3 1
q7 0 9 -9l3 -22v-3z" />
    <glyph glyph-name="iogonek" unicode="&#x12f;" horiz-adv-x="284" 
d="M128 0q-10 0 -10 10v486q0 10 10 10h51q10 0 10 -10v-486q0 -10 -10 -10h-51zM155 598q-25 0 -40.5 16t-15.5 40q0 25 15.5 40.5t40.5 15.5q24 0 40 -15.5t16 -40.5q0 -24 -16 -40t-40 -16zM210 -172q0 -6 -7 -9q-20 -5 -41 -5q-32 0 -55.5 14t-31.5 46q-3 10 -3 23
q0 52 59 99q5 4 13 4h27q8 0 8 -5q0 -2 -5 -7q-50 -43 -50 -82q0 -8 1 -12q4 -18 16.5 -27t30.5 -9q11 0 23 3l3 1q7 0 9 -9l3 -22v-3z" />
    <glyph glyph-name="Idotaccent" unicode="&#x130;" horiz-adv-x="259" 
d="M104 0q-10 0 -10 10v680q0 10 10 10h51q10 0 10 -10v-680q0 -10 -10 -10h-51zM129 792q-25 0 -40.5 16t-15.5 40q0 25 15.5 40.5t40.5 15.5q24 0 40 -15.5t16 -40.5q0 -24 -16 -40t-40 -16z" />
    <glyph glyph-name="dotlessi" unicode="&#x131;" horiz-adv-x="212" 
d="M80 0q-10 0 -10 10v486q0 10 10 10h51q10 0 10 -10v-486q0 -10 -10 -10h-51z" />
    <glyph glyph-name="ij" unicode="&#x133;" horiz-adv-x="492" 
d="M128 598q-24 0 -40 16t-16 40q0 25 16 40.5t40 15.5t40 -15.5t16 -40.5q0 -24 -16 -40t-40 -16zM100 1q-10 0 -10 10v486q0 10 10 10h51q10 0 10 -10v-486q0 -10 -10 -10h-51zM364 598q-25 0 -40.5 16t-15.5 40q0 25 15.5 40.5t40.5 15.5q24 0 40 -15.5t16 -40.5
q0 -24 -16 -40t-40 -16zM221 -208q-10 0 -10 10v41q0 10 10 10q107 1 107 103v540q0 10 10 10h51q10 0 10 -10v-540q0 -85 -42 -124t-136 -40z" />
    <glyph glyph-name="Jcircumflex" unicode="&#x134;" horiz-adv-x="577" 
d="M256 -8q-68 0 -119.5 26t-79.5 73.5t-28 109.5v76q0 10 10 10h51q10 0 10 -10v-76q0 -66 42.5 -106.5t113.5 -40.5q70 0 113 40.5t43 106.5v489q0 10 10 10h51q10 0 10 -10v-489q0 -62 -28.5 -109.5t-80 -73.5t-118.5 -26zM331 769q-6 0 -8 3.5t2 8.5l80 108q4 6 13 6h58
q9 0 13 -6l81 -108q2 -2 2 -6q0 -2 -2 -4t-6 -2h-40q-9 0 -13 6l-60 82q-1 2 -3 2t-3 -2l-61 -82q-4 -6 -13 -6h-40z" />
    <glyph glyph-name="jcircumflex" unicode="&#x135;" horiz-adv-x="241" 
d="M-25 -208q-10 0 -10 10v41q0 10 10 10q107 1 107 103v540q0 10 10 10h51q10 0 10 -10v-540q0 -85 -42 -124t-136 -40zM1 574q-6 0 -8 3.5t2 8.5l80 108q4 6 13 6h58q9 0 13 -6l81 -108q2 -2 2 -6q0 -2 -2 -4t-6 -2h-40q-9 0 -13 6l-60 82q-1 2 -3 2t-3 -2l-61 -82
q-4 -6 -13 -6h-40z" />
    <glyph glyph-name="uni0136" unicode="&#x136;" horiz-adv-x="611" 
d="M104 0q-10 0 -10 10v680q0 10 10 10h51q10 0 10 -10v-339q0 -2 2 -3t3 1l316 346q4 5 12 5h58q6 0 7.5 -4t-2.5 -8l-245 -277q-2 -2 0 -6l266 -393l2 -5q0 -7 -9 -7h-58q-8 0 -12 6l-237 348q-1 2 -3 2t-3 -1l-95 -101q-2 -2 -2 -5v-239q0 -10 -10 -10h-51zM257 -190
q-6 0 -8 3.5t1 8.5l60 109q3 7 12 7h45q6 0 7.5 -3.5t-1.5 -8.5l-68 -109q-5 -7 -12 -7h-36z" />
    <glyph glyph-name="uni0137" unicode="&#x137;" horiz-adv-x="501" 
d="M90 0q-10 0 -10 10v680q0 10 10 10h51q10 0 10 -10v-409q0 -2 1.5 -3t3.5 1l212 222q5 5 12 5h60q6 0 8 -4t-2 -8l-128 -142q-2 -2 -1 -5l153 -335l1 -4q0 -8 -9 -8h-54q-8 0 -11 8l-129 292q-2 4 -5 1l-110 -116q-2 -2 -2 -5v-170q0 -10 -10 -10h-51zM205 -190
q-6 0 -8 3.5t1 8.5l60 109q3 7 12 7h45q6 0 7.5 -3.5t-1.5 -8.5l-68 -109q-5 -7 -12 -7h-36z" />
    <glyph glyph-name="Lacute" unicode="&#x139;" horiz-adv-x="568" 
d="M104 0q-10 0 -10 10v680q0 10 10 10h51q10 0 10 -10v-624q0 -4 4 -4h353q10 0 10 -10v-42q0 -10 -10 -10h-418zM96 766q-6 0 -8 3.5t1 8.5l60 109q3 7 12 7h45q6 0 7.5 -3.5t-1.5 -8.5l-68 -109q-5 -7 -12 -7h-36z" />
    <glyph glyph-name="lacute" unicode="&#x13a;" horiz-adv-x="230" 
d="M90 0q-10 0 -10 10v680q0 10 10 10h51q10 0 10 -10v-680q0 -10 -10 -10h-51zM83 766q-6 0 -8 3.5t1 8.5l60 109q3 7 12 7h45q6 0 7.5 -3.5t-1.5 -8.5l-68 -109q-5 -7 -12 -7h-36z" />
    <glyph glyph-name="uni013B" unicode="&#x13b;" horiz-adv-x="568" 
d="M104 0q-10 0 -10 10v680q0 10 10 10h51q10 0 10 -10v-624q0 -4 4 -4h353q10 0 10 -10v-42q0 -10 -10 -10h-418zM223 -190q-6 0 -8 3.5t1 8.5l60 109q3 7 12 7h45q6 0 7.5 -3.5t-1.5 -8.5l-68 -109q-5 -7 -12 -7h-36z" />
    <glyph glyph-name="uni013C" unicode="&#x13c;" horiz-adv-x="230" 
d="M90 0q-10 0 -10 10v680q0 10 10 10h51q10 0 10 -10v-680q0 -10 -10 -10h-51zM23 -190q-6 0 -8 3.5t1 8.5l60 109q3 7 12 7h45q6 0 7.5 -3.5t-1.5 -8.5l-68 -109q-5 -7 -12 -7h-36z" />
    <glyph glyph-name="Lcaron" unicode="&#x13d;" horiz-adv-x="568" 
d="M104 0q-10 0 -10 10v680q0 10 10 10h51q10 0 10 -10v-624q0 -4 4 -4h353q10 0 10 -10v-42q0 -10 -10 -10h-418zM265 572q-6 0 -8 3.5t1 8.5l60 109q3 7 12 7h45q6 0 7.5 -3.5t-1.5 -8.5l-68 -109q-5 -7 -12 -7h-36z" />
    <glyph glyph-name="lcaron" unicode="&#x13e;" horiz-adv-x="361" 
d="M90 0q-10 0 -10 10v680q0 10 10 10h51q10 0 10 -10v-680q0 -10 -10 -10h-51zM206 572q-6 0 -8 3.5t1 8.5l60 109q3 7 12 7h45q6 0 7.5 -3.5t-1.5 -8.5l-68 -109q-5 -7 -12 -7h-36z" />
    <glyph glyph-name="ldot" unicode="&#x140;" horiz-adv-x="271" 
d="M110 0q-10 0 -10 10v680q0 10 10 10h51q10 0 10 -10v-680q0 -10 -10 -10h-51zM137 792q-25 0 -40.5 16t-15.5 40q0 25 15.5 40.5t40.5 15.5q24 0 40 -15.5t16 -40.5q0 -24 -16 -40t-40 -16z" />
    <glyph glyph-name="Lslash" unicode="&#x141;" horiz-adv-x="599" 
d="M196 66q0 -4 4 -4h353q10 0 10 -10v-42q0 -10 -10 -10h-418q-10 0 -10 10v236q0 2 -1.5 3t-3.5 -1l-102 -76q-2 -2 -6 -2q-5 0 -8 4l-23 28q-3 3 -3 7t4 7l141 106q2 2 2 5v363q0 10 10 10h51q10 0 10 -10v-307q0 -2 1.5 -3t3.5 1l224 169q2 2 6 2q5 0 8 -4l24 -29
q2 -2 2 -6q0 -5 -4 -8l-263 -197q-2 -2 -2 -5v-237z" />
    <glyph glyph-name="lslash" unicode="&#x142;" horiz-adv-x="342" 
d="M317 411q0 -4 -6 -9l-107 -64q-3 -1 -3 -5v-323q0 -10 -10 -10h-51q-10 0 -10 10v278q0 2 -1.5 3t-3.5 0l-68 -41l-5 -2q-5 0 -9 6l-16 30q-2 4 -2 6q0 6 5 8l97 58q3 2 3 5v329q0 10 10 10h51q10 0 10 -10v-284q0 -2 1.5 -3t3.5 0l77 47q4 2 6 2q5 0 8 -6l18 -30z" />
    <glyph glyph-name="Nacute" unicode="&#x143;" horiz-adv-x="676" 
d="M511 690q0 10 10 10h51q10 0 10 -10v-680q0 -10 -10 -10h-50q-7 0 -12 7l-341 555q-1 3 -3 2.5t-2 -3.5l1 -551q0 -10 -10 -10h-51q-10 0 -10 10v680q0 10 10 10h50q7 0 12 -7l341 -555q1 -3 3 -2.5t2 3.5zM303 766q-6 0 -8 3.5t1 8.5l60 109q3 7 12 7h45q6 0 7.5 -3.5
t-1.5 -8.5l-68 -109q-5 -7 -12 -7h-36z" />
    <glyph glyph-name="nacute" unicode="&#x144;" 
d="M290 513q80 0 127.5 -47t47.5 -126v-330q0 -10 -10 -10h-51q-10 0 -10 10v316q0 55 -33.5 90t-86.5 35q-55 0 -89 -34t-34 -89v-318q0 -10 -10 -10h-51q-10 0 -10 10v486q0 10 10 10h51q10 0 10 -10v-43q0 -2 1.5 -3t2.5 1q44 62 135 62zM238 572q-6 0 -8 3.5t1 8.5
l60 109q3 7 12 7h45q6 0 7.5 -3.5t-1.5 -8.5l-68 -109q-5 -7 -12 -7h-36z" />
    <glyph glyph-name="uni0145" unicode="&#x145;" horiz-adv-x="676" 
d="M511 690q0 10 10 10h51q10 0 10 -10v-680q0 -10 -10 -10h-50q-7 0 -12 7l-341 555q-1 3 -3 2.5t-2 -3.5l1 -551q0 -10 -10 -10h-51q-10 0 -10 10v680q0 10 10 10h50q7 0 12 -7l341 -555q1 -3 3 -2.5t2 3.5zM277 -190q-6 0 -8 3.5t1 8.5l60 109q3 7 12 7h45q6 0 7.5 -3.5
t-1.5 -8.5l-68 -109q-5 -7 -12 -7h-36z" />
    <glyph glyph-name="uni0146" unicode="&#x146;" 
d="M290 513q80 0 127.5 -47t47.5 -126v-330q0 -10 -10 -10h-51q-10 0 -10 10v316q0 55 -33.5 90t-86.5 35q-55 0 -89 -34t-34 -89v-318q0 -10 -10 -10h-51q-10 0 -10 10v486q0 10 10 10h51q10 0 10 -10v-43q0 -2 1.5 -3t2.5 1q44 62 135 62zM215 -190q-6 0 -8 3.5t1 8.5
l60 109q3 7 12 7h45q6 0 7.5 -3.5t-1.5 -8.5l-68 -109q-5 -7 -12 -7h-36z" />
    <glyph glyph-name="Ncaron" unicode="&#x147;" horiz-adv-x="676" 
d="M511 690q0 10 10 10h51q10 0 10 -10v-680q0 -10 -10 -10h-50q-7 0 -12 7l-341 555q-1 3 -3 2.5t-2 -3.5l1 -551q0 -10 -10 -10h-51q-10 0 -10 10v680q0 10 10 10h50q7 0 12 -7l341 -555q1 -3 3 -2.5t2 3.5zM216 882q-2 2 -2 6q0 2 2 4t6 2h40q9 0 13 -6l61 -82q1 -1 3 -1
t3 1l60 82q4 6 13 6h40q6 0 8 -3.5t-2 -8.5l-81 -108q-4 -6 -13 -6h-58q-9 0 -13 6z" />
    <glyph glyph-name="ncaron" unicode="&#x148;" 
d="M290 513q80 0 127.5 -47t47.5 -126v-330q0 -10 -10 -10h-51q-10 0 -10 10v316q0 55 -33.5 90t-86.5 35q-55 0 -89 -34t-34 -89v-318q0 -10 -10 -10h-51q-10 0 -10 10v486q0 10 10 10h51q10 0 10 -10v-43q0 -2 1.5 -3t2.5 1q44 62 135 62zM151 688q-2 2 -2 6q0 2 2 4t6 2
h40q9 0 13 -6l61 -82q1 -1 3 -1t3 1l60 82q4 6 13 6h40q6 0 8 -3.5t-2 -8.5l-81 -108q-4 -6 -13 -6h-58q-9 0 -13 6z" />
    <glyph glyph-name="Eng" unicode="&#x14a;" horiz-adv-x="676" 
d="M511 690q0 10 10 10h51q10 0 10 -10v-690q-2 -83 -38.5 -120t-125.5 -37q-10 0 -10 10v41q0 10 10 10q50 0 71 24t22 74q0 4 -1 5l-341 555q-1 3 -3 2.5t-2 -3.5l1 -551q0 -10 -10 -10h-51q-10 0 -10 10v680q0 10 10 10h50q7 0 12 -7l340 -554q1 -3 3 -2.5t2 3.5v550z
" />
    <glyph glyph-name="eng" unicode="&#x14b;" horiz-adv-x="540" 
d="M466 206h1v-214q0 -82 -35.5 -122.5t-120.5 -42.5q-10 0 -10 10v39q0 10 10 10q85 6 85 104v7l-1 5q-1 2 -1 8v316q0 55 -33.5 90t-86.5 35q-55 0 -89 -34t-34 -89v-318q0 -10 -10 -10h-51q-10 0 -10 10v486q0 10 10 10h51q10 0 10 -10v-43q0 -2 2 -3t3 1q43 62 134 62
q80 0 127.5 -47t47.5 -126v-130z" />
    <glyph glyph-name="Omacron" unicode="&#x14c;" horiz-adv-x="622" 
d="M310 -8q-71 0 -125 29t-83.5 81.5t-29.5 121.5v252q0 69 29.5 121.5t83.5 81.5t125 29t125.5 -29t84 -81.5t29.5 -121.5v-252q0 -69 -29.5 -121.5t-84 -81.5t-125.5 -29zM310 53q76 0 122 46t46 122v256q0 76 -46 122.5t-122 46.5q-75 0 -121 -46.5t-46 -122.5v-256
q0 -76 46 -122t121 -46zM186 788q-10 0 -10 10v31q0 10 10 10h249q10 0 10 -10v-31q0 -10 -10 -10h-249z" />
    <glyph glyph-name="omacron" unicode="&#x14d;" horiz-adv-x="536" 
d="M273 -8q-72 0 -124 37t-72 102q-14 46 -14 123t14 122q19 64 71 101t126 37q71 0 122.5 -37t70.5 -100q14 -43 14 -123q0 -81 -14 -123q-19 -65 -70.5 -102t-123.5 -37zM273 54q48 0 82 26.5t46 71.5q9 36 9 101q0 66 -8 101q-12 45 -46.5 71.5t-83.5 26.5t-83 -26.5
t-46 -71.5q-8 -35 -8 -101t8 -101q11 -45 45.5 -71.5t84.5 -26.5zM144 594q-10 0 -10 10v31q0 10 10 10h249q10 0 10 -10v-31q0 -10 -10 -10h-249z" />
    <glyph glyph-name="obreve" unicode="&#x14f;" horiz-adv-x="536" 
d="M273 -8q-72 0 -124 37t-72 102q-14 46 -14 123t14 122q19 64 71 101t126 37q71 0 122.5 -37t70.5 -100q14 -43 14 -123q0 -81 -14 -123q-19 -65 -70.5 -102t-123.5 -37zM273 54q48 0 82 26.5t46 71.5q9 36 9 101q0 66 -8 101q-12 45 -46.5 71.5t-83.5 26.5t-83 -26.5
t-46 -71.5q-8 -35 -8 -101t8 -101q11 -45 45.5 -71.5t84.5 -26.5zM267 581q-49 0 -83 28.5t-39 70.5v2q0 8 9 8h27q10 0 11 -10q4 -25 25 -42t50 -17q30 0 51.5 16.5t24.5 42.5q1 10 11 10h27q10 0 10 -9q-4 -43 -39 -71.5t-85 -28.5z" />
    <glyph glyph-name="Ohungarumlaut" unicode="&#x150;" horiz-adv-x="622" 
d="M310 -8q-71 0 -125 29t-83.5 81.5t-29.5 121.5v252q0 69 29.5 121.5t83.5 81.5t125 29t125.5 -29t84 -81.5t29.5 -121.5v-252q0 -69 -29.5 -121.5t-84 -81.5t-125.5 -29zM310 53q76 0 122 46t46 122v256q0 76 -46 122.5t-122 46.5q-75 0 -121 -46.5t-46 -122.5v-256
q0 -76 46 -122t121 -46zM205 766q-5 0 -7 3.5t0 8.5l56 109q3 7 12 7h46q6 0 8 -3.5t-1 -8.5l-60 -109q-3 -7 -12 -7h-42zM369 766q-6 0 -8.5 3.5t0.5 8.5l59 109q3 7 12 7h43q6 0 8 -3.5t-1 -8.5l-61 -109q-5 -7 -12 -7h-40z" />
    <glyph glyph-name="ohungarumlaut" unicode="&#x151;" horiz-adv-x="536" 
d="M273 -8q-72 0 -124 37t-72 102q-14 46 -14 123t14 122q19 64 71 101t126 37q71 0 122.5 -37t70.5 -100q14 -43 14 -123q0 -81 -14 -123q-19 -65 -70.5 -102t-123.5 -37zM273 54q48 0 82 26.5t46 71.5q9 36 9 101q0 66 -8 101q-12 45 -46.5 71.5t-83.5 26.5t-83 -26.5
t-46 -71.5q-8 -35 -8 -101t8 -101q11 -45 45.5 -71.5t84.5 -26.5zM163 572q-5 0 -7 3.5t0 8.5l56 109q3 7 12 7h46q6 0 8 -3.5t-1 -8.5l-60 -109q-3 -7 -12 -7h-42zM327 572q-6 0 -8.5 3.5t0.5 8.5l59 109q3 7 12 7h43q6 0 8 -3.5t-1 -8.5l-61 -109q-5 -7 -12 -7h-40z" />
    <glyph glyph-name="OE" unicode="&#x152;" horiz-adv-x="920" 
d="M862 648q0 -10 -10 -10h-327q-4 0 -4 -4v-247q0 -4 4 -4h217q10 0 10 -10v-42q0 -10 -10 -10h-217q-4 0 -4 -4v-251q0 -4 4 -4h327q10 0 10 -10v-42q0 -10 -10 -10h-392q-10 0 -10 10v49q0 5 -5 2q-30 -33 -72.5 -51t-91.5 -18q-60 0 -107.5 28t-74.5 77t-27 112v281
q0 63 27 112.5t74.5 77.5t107.5 28q49 0 91.5 -18t72.5 -51q5 -3 5 2v49q0 10 10 10h392q10 0 10 -10v-42zM296 53q69 0 111.5 43.5t42.5 110.5v284q0 68 -42.5 111.5t-111.5 43.5q-68 0 -110.5 -43.5t-42.5 -111.5v-284q0 -67 42.5 -110.5t110.5 -43.5z" />
    <glyph glyph-name="oe" unicode="&#x153;" horiz-adv-x="858" 
d="M608 53q40 0 73.5 20.5t49.5 54.5q4 8 13 4l33 -20q8 -5 4 -14q-25 -49 -72 -77.5t-109 -28.5q-55 0 -98 23t-68 64q-3 3 -6 0q-26 -40 -69.5 -63.5t-95.5 -23.5q-70 0 -120.5 37.5t-68.5 100.5q-6 24 -8 52t-2 72q0 46 2 73.5t8 49.5q17 62 68 99.5t121 37.5
q52 0 95 -23.5t70 -63.5q3 -3 6 0q26 40 68.5 63.5t93.5 23.5q71 0 123 -38.5t69 -99.5q6 -21 8 -49t2 -84q0 -11 -10 -11h-316q-4 0 -4 -4q0 -57 6 -76q10 -46 45 -72.5t89 -26.5zM386 152q6 25 6 102q0 76 -6 100q-9 44 -42 71t-81 27q-47 0 -79.5 -27t-42.5 -71
q-6 -25 -6 -100q0 -73 7 -102q9 -44 41.5 -71t79.5 -27q48 0 81 27t42 71zM596 452q-48 0 -80.5 -27t-41.5 -71q-4 -16 -6 -68q0 -4 4 -4h250q4 0 4 4q-2 54 -5 68q-10 44 -43.5 71t-81.5 27z" />
    <glyph glyph-name="Racute" unicode="&#x154;" horiz-adv-x="612" 
d="M502 0q-9 0 -12 7l-147 310q-1 3 -4 3h-170q-4 0 -4 -4v-306q0 -10 -10 -10h-51q-10 0 -10 10v680q0 10 10 10h259q86 0 139 -53.5t53 -139.5q0 -70 -38 -119t-103 -63q-4 -2 -2 -5l150 -308q1 -2 1 -5q0 -7 -8 -7h-53zM169 638q-4 0 -4 -4v-253q0 -4 4 -4h186
q58 0 94 36t36 94t-36 94.5t-94 36.5h-186zM265 766q-6 0 -8 3.5t1 8.5l60 109q3 7 12 7h45q6 0 7.5 -3.5t-1.5 -8.5l-68 -109q-5 -7 -12 -7h-36z" />
    <glyph glyph-name="racute" unicode="&#x155;" horiz-adv-x="364" 
d="M284 511q33 0 57 -13q8 -4 6 -13l-11 -49q-3 -10 -13 -6q-17 7 -39 7l-13 -1q-52 -2 -86 -38.5t-34 -92.5v-295q0 -10 -10 -10h-51q-10 0 -10 10v486q0 10 10 10h51q10 0 10 -10v-61q0 -3 1.5 -3.5t2.5 1.5q21 37 53.5 57.5t75.5 20.5zM183 572q-6 0 -8 3.5t1 8.5l60 109
q3 7 12 7h45q6 0 7.5 -3.5t-1.5 -8.5l-68 -109q-5 -7 -12 -7h-36z" />
    <glyph glyph-name="uni0156" unicode="&#x156;" horiz-adv-x="612" 
d="M502 0q-9 0 -12 7l-147 310q-1 3 -4 3h-170q-4 0 -4 -4v-306q0 -10 -10 -10h-51q-10 0 -10 10v680q0 10 10 10h259q86 0 139 -53.5t53 -139.5q0 -70 -38 -119t-103 -63q-4 -2 -2 -5l150 -308q1 -2 1 -5q0 -7 -8 -7h-53zM169 638q-4 0 -4 -4v-253q0 -4 4 -4h186
q58 0 94 36t36 94t-36 94.5t-94 36.5h-186zM249 -190q-6 0 -8 3.5t1 8.5l60 109q3 7 12 7h45q6 0 7.5 -3.5t-1.5 -8.5l-68 -109q-5 -7 -12 -7h-36z" />
    <glyph glyph-name="uni0157" unicode="&#x157;" horiz-adv-x="364" 
d="M284 511q33 0 57 -13q8 -4 6 -13l-11 -49q-3 -10 -13 -6q-17 7 -39 7l-13 -1q-52 -2 -86 -38.5t-34 -92.5v-295q0 -10 -10 -10h-51q-10 0 -10 10v486q0 10 10 10h51q10 0 10 -10v-61q0 -3 1.5 -3.5t2.5 1.5q21 37 53.5 57.5t75.5 20.5zM21 -190q-6 0 -8 3.5t1 8.5l60 109
q3 7 12 7h45q6 0 7.5 -3.5t-1.5 -8.5l-68 -109q-5 -7 -12 -7h-36z" />
    <glyph glyph-name="Rcaron" unicode="&#x158;" horiz-adv-x="612" 
d="M502 0q-9 0 -12 7l-147 310q-1 3 -4 3h-170q-4 0 -4 -4v-306q0 -10 -10 -10h-51q-10 0 -10 10v680q0 10 10 10h259q86 0 139 -53.5t53 -139.5q0 -70 -38 -119t-103 -63q-4 -2 -2 -5l150 -308q1 -2 1 -5q0 -7 -8 -7h-53zM169 638q-4 0 -4 -4v-253q0 -4 4 -4h186
q58 0 94 36t36 94t-36 94.5t-94 36.5h-186zM178 882q-2 2 -2 6q0 2 2 4t6 2h40q9 0 13 -6l61 -82q1 -1 3 -1t3 1l60 82q4 6 13 6h40q6 0 8 -3.5t-2 -8.5l-81 -108q-4 -6 -13 -6h-58q-9 0 -13 6z" />
    <glyph glyph-name="rcaron" unicode="&#x159;" horiz-adv-x="364" 
d="M284 511q33 0 57 -13q8 -4 6 -13l-11 -49q-3 -10 -13 -6q-17 7 -39 7l-13 -1q-52 -2 -86 -38.5t-34 -92.5v-295q0 -10 -10 -10h-51q-10 0 -10 10v486q0 10 10 10h51q10 0 10 -10v-61q0 -3 1.5 -3.5t2.5 1.5q21 37 53.5 57.5t75.5 20.5zM96 688q-2 2 -2 6q0 2 2 4t6 2h40
q9 0 13 -6l61 -82q1 -1 3 -1t3 1l60 82q4 6 13 6h40q6 0 8 -3.5t-2 -8.5l-81 -108q-4 -6 -13 -6h-58q-9 0 -13 6z" />
    <glyph glyph-name="Sacute" unicode="&#x15a;" horiz-adv-x="584" 
d="M296 -8q-113 0 -178.5 51t-65.5 136v31q0 10 10 10h49q10 0 10 -10v-27q0 -58 48 -93.5t133 -35.5q77 0 117 32.5t40 86.5q0 35 -18.5 60t-57 47t-108.5 51q-75 30 -116.5 52.5t-67 58t-25.5 89.5q0 84 58.5 130.5t160.5 46.5q111 0 175 -52t64 -138v-22q0 -10 -10 -10
h-50q-10 0 -10 10v18q0 58 -45.5 95t-126.5 37q-71 0 -109 -29t-38 -84q0 -36 18.5 -59.5t53 -41t106.5 -45.5q73 -30 117.5 -56t72 -63.5t27.5 -91.5q0 -84 -62 -134t-172 -50zM253 766q-6 0 -8 3.5t1 8.5l60 109q3 7 12 7h45q6 0 7.5 -3.5t-1.5 -8.5l-68 -109
q-5 -7 -12 -7h-36z" />
    <glyph glyph-name="sacute" unicode="&#x15b;" horiz-adv-x="484" 
d="M246 -5q-56 0 -99.5 18t-67 48t-23.5 67v12q0 10 10 10h48q10 0 10 -10v-8q0 -33 34.5 -57.5t86.5 -24.5t84 23.5t32 59.5q0 25 -16.5 41t-39 25t-69.5 23q-56 16 -92 32t-60.5 44.5t-24.5 72.5q0 64 50 102t132 38q55 0 97.5 -18t65.5 -49.5t23 -70.5v-3q0 -10 -10 -10
h-47q-10 0 -10 10v3q0 34 -32.5 57t-87.5 23q-51 0 -82 -20.5t-31 -56.5q0 -34 30 -52t93 -36q58 -17 94 -32t62 -43.5t26 -74.5q0 -65 -51 -104t-135 -39zM210 572q-6 0 -8 3.5t1 8.5l60 109q3 7 12 7h45q6 0 7.5 -3.5t-1.5 -8.5l-68 -109q-5 -7 -12 -7h-36z" />
    <glyph glyph-name="Scircumflex" unicode="&#x15c;" horiz-adv-x="584" 
d="M296 -8q-113 0 -178.5 51t-65.5 136v31q0 10 10 10h49q10 0 10 -10v-27q0 -58 48 -93.5t133 -35.5q77 0 117 32.5t40 86.5q0 35 -18.5 60t-57 47t-108.5 51q-75 30 -116.5 52.5t-67 58t-25.5 89.5q0 84 58.5 130.5t160.5 46.5q111 0 175 -52t64 -138v-22q0 -10 -10 -10
h-50q-10 0 -10 10v18q0 58 -45.5 95t-126.5 37q-71 0 -109 -29t-38 -84q0 -36 18.5 -59.5t53 -41t106.5 -45.5q73 -30 117.5 -56t72 -63.5t27.5 -91.5q0 -84 -62 -134t-172 -50zM169 768q-6 0 -8 3.5t2 8.5l80 108q4 6 13 6h58q9 0 13 -6l81 -108q2 -2 2 -6q0 -2 -2 -4
t-6 -2h-40q-9 0 -13 6l-60 82q-1 2 -3 2t-3 -2l-61 -82q-4 -6 -13 -6h-40z" />
    <glyph glyph-name="scircumflex" unicode="&#x15d;" horiz-adv-x="484" 
d="M246 -5q-56 0 -99.5 18t-67 48t-23.5 67v12q0 10 10 10h48q10 0 10 -10v-8q0 -33 34.5 -57.5t86.5 -24.5t84 23.5t32 59.5q0 25 -16.5 41t-39 25t-69.5 23q-56 16 -92 32t-60.5 44.5t-24.5 72.5q0 64 50 102t132 38q55 0 97.5 -18t65.5 -49.5t23 -70.5v-3q0 -10 -10 -10
h-47q-10 0 -10 10v3q0 34 -32.5 57t-87.5 23q-51 0 -82 -20.5t-31 -56.5q0 -34 30 -52t93 -36q58 -17 94 -32t62 -43.5t26 -74.5q0 -65 -51 -104t-135 -39zM126 574q-6 0 -8 3.5t2 8.5l80 108q4 6 13 6h58q9 0 13 -6l81 -108q2 -2 2 -6q0 -2 -2 -4t-6 -2h-40q-9 0 -13 6
l-60 82q-1 2 -3 2t-3 -2l-61 -82q-4 -6 -13 -6h-40z" />
    <glyph glyph-name="Scedilla" unicode="&#x15e;" horiz-adv-x="584" 
d="M530 176q0 -78 -54 -127t-151 -56q-5 0 -2 -5q50 -43 50 -92q0 -15 -2 -22q-8 -32 -32 -46t-56 -14q-21 0 -41 5q-8 3 -7 12l4 23q1 5 4.5 6.5t7.5 0.5q12 -3 22 -3q21 0 34.5 12t13.5 35q0 22 -14.5 44t-39.5 42q-1 2 -5 2q-98 8 -154 58t-56 128v31q0 10 10 10h49
q10 0 10 -10v-27q0 -58 48 -93.5t133 -35.5q77 0 117 32.5t40 86.5q0 35 -18.5 60t-57 47t-108.5 51q-75 30 -116.5 52.5t-67 58t-25.5 89.5q0 84 58.5 130.5t160.5 46.5q111 0 175 -52t64 -138v-22q0 -10 -10 -10h-50q-10 0 -10 10v18q0 58 -45.5 95t-126.5 37
q-71 0 -109 -29t-38 -84q0 -36 18.5 -59.5t53 -41t106.5 -45.5q73 -30 117.5 -56t72 -63.5t27.5 -91.5z" />
    <glyph glyph-name="scedilla" unicode="&#x15f;" horiz-adv-x="484" 
d="M432 138q0 -57 -41 -95t-110 -46q-7 -2 -2 -5q51 -44 51 -92q0 -13 -3 -23q-8 -32 -32 -46t-56 -14q-21 0 -41 5q-8 3 -7 12l4 23q1 5 4.5 6.5t7.5 0.5q12 -3 23 -3q21 0 34.5 11.5t13.5 35.5q0 22 -15 44t-40 42q-1 2 -5 2q-73 7 -117.5 44t-44.5 88v12q0 10 10 10h48
q10 0 10 -10v-8q0 -33 34.5 -57.5t86.5 -24.5t84 23.5t32 59.5q0 25 -16.5 41t-39 25t-69.5 23q-56 16 -92 32t-60.5 44.5t-24.5 72.5q0 64 50 102t132 38q55 0 97.5 -18t65.5 -49.5t23 -70.5v-3q0 -10 -10 -10h-47q-10 0 -10 10v3q0 34 -32.5 57t-87.5 23q-51 0 -82 -20.5
t-31 -56.5q0 -34 30 -52t93 -36q58 -17 94 -32t62 -43.5t26 -74.5z" />
    <glyph glyph-name="Scaron" unicode="&#x160;" horiz-adv-x="584" 
d="M296 -8q-113 0 -178.5 51t-65.5 136v31q0 10 10 10h49q10 0 10 -10v-27q0 -58 48 -93.5t133 -35.5q77 0 117 32.5t40 86.5q0 35 -18.5 60t-57 47t-108.5 51q-75 30 -116.5 52.5t-67 58t-25.5 89.5q0 84 58.5 130.5t160.5 46.5q111 0 175 -52t64 -138v-22q0 -10 -10 -10
h-50q-10 0 -10 10v18q0 58 -45.5 95t-126.5 37q-71 0 -109 -29t-38 -84q0 -36 18.5 -59.5t53 -41t106.5 -45.5q73 -30 117.5 -56t72 -63.5t27.5 -91.5q0 -84 -62 -134t-172 -50zM166 882q-2 2 -2 6q0 2 2 4t6 2h40q9 0 13 -6l61 -82q1 -1 3 -1t3 1l60 82q4 6 13 6h40
q6 0 8 -3.5t-2 -8.5l-81 -108q-4 -6 -13 -6h-58q-9 0 -13 6z" />
    <glyph glyph-name="scaron" unicode="&#x161;" horiz-adv-x="484" 
d="M246 -5q-56 0 -99.5 18t-67 48t-23.5 67v12q0 10 10 10h48q10 0 10 -10v-8q0 -33 34.5 -57.5t86.5 -24.5t84 23.5t32 59.5q0 25 -16.5 41t-39 25t-69.5 23q-56 16 -92 32t-60.5 44.5t-24.5 72.5q0 64 50 102t132 38q55 0 97.5 -18t65.5 -49.5t23 -70.5v-3q0 -10 -10 -10
h-47q-10 0 -10 10v3q0 34 -32.5 57t-87.5 23q-51 0 -82 -20.5t-31 -56.5q0 -34 30 -52t93 -36q58 -17 94 -32t62 -43.5t26 -74.5q0 -65 -51 -104t-135 -39zM123 688q-2 2 -2 6q0 2 2 4t6 2h40q9 0 13 -6l61 -82q1 -1 3 -1t3 1l60 82q4 6 13 6h40q6 0 8 -3.5t-2 -8.5
l-81 -108q-4 -6 -13 -6h-58q-9 0 -13 6z" />
    <glyph glyph-name="uni0162" unicode="&#x162;" horiz-adv-x="569" 
d="M516 700q10 0 10 -10v-43q0 -10 -10 -10h-196q-4 0 -4 -4v-623q0 -10 -10 -10h-51q-10 0 -10 10v623q0 4 -4 4h-188q-10 0 -10 10v43q0 10 10 10h463zM250 -181q-8 3 -7 12l4 23q1 5 4.5 6.5t7.5 0.5q12 -3 22 -3q18 0 30.5 9t16.5 27q1 4 1 11q0 38 -50 83q-4 3 -4 7
q0 5 8 5h26q8 0 12 -4q60 -47 60 -102q0 -6 -2 -20q-8 -32 -32.5 -46t-55.5 -14q-21 0 -41 5z" />
    <glyph glyph-name="uni0163" unicode="&#x163;" horiz-adv-x="364" 
d="M278 -1q-5 0 -2 -5q39 -38 39 -81q0 -11 -3 -23q-8 -31 -32 -45t-55 -14q-20 0 -42 5q-8 1 -7 11l4 24q1 5 4.5 6.5t7.5 0.5q12 -3 23 -3q40 0 47 35q1 4 1 12q0 37 -45 77q-1 2 -5 2q-50 7 -76 35.5t-26 89.5v317q0 4 -4 4h-61q-10 0 -10 10v39q0 10 10 10h61q4 0 4 4
v116q0 10 10 10h49q10 0 10 -10v-116q0 -4 4 -4h113q10 0 10 -10v-39q0 -10 -10 -10h-113q-4 0 -4 -4v-295q0 -48 21.5 -67.5t67.5 -19.5h25q10 0 10 -10v-41q0 -10 -10 -11h-16z" />
    <glyph glyph-name="Tcaron" unicode="&#x164;" horiz-adv-x="569" 
d="M516 700q10 0 10 -10v-43q0 -10 -10 -10h-196q-4 0 -4 -4v-623q0 -10 -10 -10h-51q-10 0 -10 10v623q0 4 -4 4h-188q-10 0 -10 10v43q0 10 10 10h463zM160 880q-2 2 -2 6q0 2 2 4t6 2h40q9 0 13 -6l61 -82q1 -1 3 -1t3 1l60 82q4 6 13 6h40q6 0 8 -3.5t-2 -8.5l-81 -108
q-4 -6 -13 -6h-58q-9 0 -13 6z" />
    <glyph glyph-name="tcaron" unicode="&#x165;" horiz-adv-x="364" 
d="M307 457q0 -10 -10 -10h-113q-4 0 -4 -4v-295q0 -48 21.5 -67.5t67.5 -19.5h25q10 0 10 -10v-41q0 -10 -10 -10q-12 -1 -37 -1q-72 0 -109 27t-37 100v317q0 4 -4 4h-61q-10 0 -10 10v39q0 10 10 10h61q4 0 4 4v116q0 10 10 10h49q10 0 10 -10v-116q0 -4 4 -4h113
q10 0 10 -10v-39zM245 572q-6 0 -8 3.5t1 8.5l60 109q3 7 12 7h45q6 0 7.5 -3.5t-1.5 -8.5l-68 -109q-5 -7 -12 -7h-36z" />
    <glyph glyph-name="Tbar" unicode="&#x166;" horiz-adv-x="569" 
d="M526 647q0 -10 -10 -10h-196q-4 0 -4 -4v-210q0 -4 4 -4h110q10 0 10 -10v-28q0 -10 -10 -10h-110q-4 0 -4 -4v-357q0 -10 -10 -10h-51q-10 0 -10 10v357q0 4 -4 4h-108q-10 0 -10 10v28q0 10 10 10h108q4 0 4 4v210q0 4 -4 4h-188q-10 0 -10 10v43q0 10 10 10h463
q10 0 10 -10v-43z" />
    <glyph glyph-name="tbar" unicode="&#x167;" horiz-adv-x="364" 
d="M307 457q0 -10 -10 -10h-113q-4 0 -4 -4v-91q0 -4 4 -4h110q10 0 10 -10v-27q0 -10 -10 -10h-110q-4 0 -4 -4v-149q0 -48 21.5 -67.5t67.5 -19.5h25q10 0 10 -10v-41q0 -10 -10 -10q-12 -1 -37 -1q-72 0 -109 27t-37 100v171q0 4 -4 4h-55q-10 0 -10 10v27q0 10 10 10h55
q4 0 4 4v91q0 4 -4 4h-61q-10 0 -10 10v39q0 10 10 10h61q4 0 4 4v116q0 10 10 10h49q10 0 10 -10v-116q0 -4 4 -4h113q10 0 10 -10v-39z" />
    <glyph glyph-name="Utilde" unicode="&#x168;" horiz-adv-x="648" 
d="M324 -8q-70 0 -124 28t-84 78.5t-30 117.5v474q0 10 10 10h51q10 0 10 -10v-476q0 -71 46 -115.5t121 -44.5t121 44.5t46 115.5v476q0 10 10 10h51q10 0 10 -10v-474q0 -67 -29.5 -117.5t-83.5 -78.5t-125 -28zM387 797q-19 0 -33 6t-29 16q-18 11 -28 15t-22 4
q-18 0 -30.5 -5.5t-24.5 -19.5q-6 -9 -14 -2l-18 18q-7 7 -2 14q33 49 86 49q16 0 28.5 -5t23 -10.5t13.5 -7.5q4 -2 14.5 -8t19 -9t16.5 -3q33 0 53 28q6 10 14 2l18 -17q7 -7 1 -15q-14 -24 -37.5 -37t-48.5 -13z" />
    <glyph glyph-name="utilde" unicode="&#x169;" 
d="M386 496q0 10 10 10h51q10 0 10 -10v-486q0 -10 -10 -10h-51q-10 0 -10 10v43q0 2 -2 3t-3 -1q-42 -62 -133 -62q-48 0 -88.5 19.5t-64 56.5t-23.5 89v338q0 10 10 10h51q10 0 10 -10v-317q0 -57 32 -90.5t87 -33.5q57 0 90.5 34t33.5 90v317zM332 603q-19 0 -33 6
t-29 16q-18 11 -28 15t-22 4q-18 0 -30.5 -5.5t-24.5 -19.5q-6 -9 -14 -2l-18 18q-7 7 -2 14q33 49 86 49q16 0 28.5 -5t23 -10.5t13.5 -7.5q4 -2 14.5 -8t19 -9t16.5 -3q33 0 53 28q6 10 14 2l18 -17q7 -7 1 -15q-14 -24 -37.5 -37t-48.5 -13z" />
    <glyph glyph-name="Umacron" unicode="&#x16a;" horiz-adv-x="648" 
d="M324 -8q-70 0 -124 28t-84 78.5t-30 117.5v474q0 10 10 10h51q10 0 10 -10v-476q0 -71 46 -115.5t121 -44.5t121 44.5t46 115.5v476q0 10 10 10h51q10 0 10 -10v-474q0 -67 -29.5 -117.5t-83.5 -78.5t-125 -28zM200 788q-10 0 -10 10v31q0 10 10 10h249q10 0 10 -10v-31
q0 -10 -10 -10h-249z" />
    <glyph glyph-name="umacron" unicode="&#x16b;" 
d="M386 496q0 10 10 10h51q10 0 10 -10v-486q0 -10 -10 -10h-51q-10 0 -10 10v43q0 2 -2 3t-3 -1q-42 -62 -133 -62q-48 0 -88.5 19.5t-64 56.5t-23.5 89v338q0 10 10 10h51q10 0 10 -10v-317q0 -57 32 -90.5t87 -33.5q57 0 90.5 34t33.5 90v317zM145 594q-10 0 -10 10v31
q0 10 10 10h249q10 0 10 -10v-31q0 -10 -10 -10h-249z" />
    <glyph glyph-name="Ubreve" unicode="&#x16c;" horiz-adv-x="648" 
d="M324 -8q-70 0 -124 28t-84 78.5t-30 117.5v474q0 10 10 10h51q10 0 10 -10v-476q0 -71 46 -115.5t121 -44.5t121 44.5t46 115.5v476q0 10 10 10h51q10 0 10 -10v-474q0 -67 -29.5 -117.5t-83.5 -78.5t-125 -28zM323 776q-49 0 -83 28.5t-39 70.5v2q0 8 9 8h27
q10 0 11 -10q4 -25 25 -42t50 -17q30 0 51.5 16.5t24.5 42.5q1 10 11 10h27q10 0 10 -9q-4 -43 -39 -71.5t-85 -28.5z" />
    <glyph glyph-name="ubreve" unicode="&#x16d;" 
d="M386 496q0 10 10 10h51q10 0 10 -10v-486q0 -10 -10 -10h-51q-10 0 -10 10v43q0 2 -2 3t-3 -1q-42 -62 -133 -62q-48 0 -88.5 19.5t-64 56.5t-23.5 89v338q0 10 10 10h51q10 0 10 -10v-317q0 -57 32 -90.5t87 -33.5q57 0 90.5 34t33.5 90v317zM268 581q-49 0 -83 28.5
t-39 70.5v2q0 8 9 8h27q10 0 11 -10q4 -25 25 -42t50 -17q30 0 51.5 16.5t24.5 42.5q1 10 11 10h27q10 0 10 -9q-4 -43 -39 -71.5t-85 -28.5z" />
    <glyph glyph-name="Uring" unicode="&#x16e;" horiz-adv-x="648" 
d="M324 -8q-70 0 -124 28t-84 78.5t-30 117.5v474q0 10 10 10h51q10 0 10 -10v-476q0 -71 46 -115.5t121 -44.5t121 44.5t46 115.5v476q0 10 10 10h51q10 0 10 -10v-474q0 -67 -29.5 -117.5t-83.5 -78.5t-125 -28zM324 773q-47 0 -78.5 31t-31.5 77q0 45 32 76.5t78 31.5
t77.5 -31.5t31.5 -76.5q0 -46 -31.5 -77t-77.5 -31zM324 816q27 0 46.5 18.5t19.5 46.5t-19.5 47t-46.5 19q-28 0 -47.5 -19t-19.5 -47t19.5 -46.5t47.5 -18.5z" />
    <glyph glyph-name="uring" unicode="&#x16f;" 
d="M386 496q0 10 10 10h51q10 0 10 -10v-486q0 -10 -10 -10h-51q-10 0 -10 10v43q0 2 -2 3t-3 -1q-42 -62 -133 -62q-48 0 -88.5 19.5t-64 56.5t-23.5 89v338q0 10 10 10h51q10 0 10 -10v-317q0 -57 32 -90.5t87 -33.5q57 0 90.5 34t33.5 90v317zM270 579q-47 0 -78.5 31
t-31.5 77q0 45 32 76.5t78 31.5t77.5 -31.5t31.5 -76.5q0 -46 -31.5 -77t-77.5 -31zM270 622q27 0 46.5 18.5t19.5 46.5t-19.5 47t-46.5 19q-28 0 -47.5 -19t-19.5 -47t19.5 -46.5t47.5 -18.5z" />
    <glyph glyph-name="Uhungarumlaut" unicode="&#x170;" horiz-adv-x="648" 
d="M324 -8q-70 0 -124 28t-84 78.5t-30 117.5v474q0 10 10 10h51q10 0 10 -10v-476q0 -71 46 -115.5t121 -44.5t121 44.5t46 115.5v476q0 10 10 10h51q10 0 10 -10v-474q0 -67 -29.5 -117.5t-83.5 -78.5t-125 -28zM219 766q-5 0 -7 3.5t0 8.5l56 109q3 7 12 7h46q6 0 8 -3.5
t-1 -8.5l-60 -109q-3 -7 -12 -7h-42zM383 766q-6 0 -8.5 3.5t0.5 8.5l59 109q3 7 12 7h43q6 0 8 -3.5t-1 -8.5l-61 -109q-5 -7 -12 -7h-40z" />
    <glyph glyph-name="uhungarumlaut" unicode="&#x171;" 
d="M386 496q0 10 10 10h51q10 0 10 -10v-486q0 -10 -10 -10h-51q-10 0 -10 10v43q0 2 -2 3t-3 -1q-42 -62 -133 -62q-48 0 -88.5 19.5t-64 56.5t-23.5 89v338q0 10 10 10h51q10 0 10 -10v-317q0 -57 32 -90.5t87 -33.5q57 0 90.5 34t33.5 90v317zM164 572q-5 0 -7 3.5t0 8.5
l56 109q3 7 12 7h46q6 0 8 -3.5t-1 -8.5l-60 -109q-3 -7 -12 -7h-42zM328 572q-6 0 -8.5 3.5t0.5 8.5l59 109q3 7 12 7h43q6 0 8 -3.5t-1 -8.5l-61 -109q-5 -7 -12 -7h-40z" />
    <glyph glyph-name="Uogonek" unicode="&#x172;" horiz-adv-x="648" 
d="M491 690q0 10 10 10h51q10 0 10 -10v-474q0 -96 -59 -156.5t-157 -66.5q-3 0 -5 -2q-21 -18 -33 -38t-12 -39q0 -8 1 -12q4 -18 16.5 -27t30.5 -9q10 0 22 3l4 1q6 0 8 -8l4 -23v-3q0 -6 -7 -9q-20 -5 -41 -5q-31 0 -55.5 14t-32.5 46q-2 7 -2 21q0 45 42 87q5 3 -1 5
q-90 11 -144.5 70.5t-54.5 150.5v474q0 10 10 10h51q10 0 10 -10v-476q0 -71 46 -115.5t121 -44.5t121 44.5t46 115.5v476z" />
    <glyph glyph-name="uogonek" unicode="&#x173;" 
d="M468 -138q6 0 8 -8l4 -23v-3q0 -6 -7 -9q-20 -5 -41 -5q-32 0 -56 14t-32 46q-3 10 -3 22q0 53 59 99q3 1 2 3t-3 2h-3q-10 0 -10 10v43q0 2 -2 3t-3 -1q-42 -62 -133 -62q-48 0 -88.5 19.5t-64 56.5t-23.5 89v338q0 10 10 10h51q10 0 10 -10v-317q0 -57 32 -90.5
t87 -33.5q57 0 90.5 34t33.5 90v317q0 10 10 10h51q10 0 10 -10v-493q0 -4 -2 -5l-11 -10q-50 -43 -50 -82q0 -8 1 -12q4 -18 16.5 -27t30.5 -9q10 0 22 3z" />
    <glyph glyph-name="Wcircumflex" unicode="&#x174;" horiz-adv-x="896" 
d="M231 0q-8 0 -11 8l-192 681l-1 3q0 8 10 8h53q9 0 11 -8l152 -548q1 -2 2.5 -2t2.5 2l141 547q2 9 11 9h54q9 0 11 -9l147 -547q1 -2 2.5 -2t2.5 2l152 548q2 8 11 8h51q5 0 7.5 -3t1.5 -8l-189 -681q-2 -8 -11 -8h-53q-9 0 -11 9l-146 560q-1 2 -2.5 2t-2.5 -2
l-143 -560q-1 -9 -11 -9h-50zM330 768q-6 0 -8 3.5t2 8.5l80 108q4 6 13 6h58q9 0 13 -6l81 -108q2 -2 2 -6q0 -2 -2 -4t-6 -2h-40q-9 0 -13 6l-60 82q-1 2 -3 2t-3 -2l-61 -82q-4 -6 -13 -6h-40z" />
    <glyph glyph-name="wcircumflex" unicode="&#x175;" horiz-adv-x="721" 
d="M185 0q-8 0 -11 8l-142 487l-1 3q0 8 10 8h52q9 0 11 -9l106 -394q1 -2 2.5 -2t2.5 2l108 394q2 9 11 9h48q9 0 11 -8l109 -394q1 -2 3 -2t3 2l109 393q2 9 11 9l52 -1q5 0 7.5 -3t1.5 -8l-144 -486q-3 -8 -11 -8h-53q-8 0 -11 8l-109 374q-1 2 -2.5 2t-2.5 -2l-106 -374
q-3 -8 -11 -8h-54zM241 574q-6 0 -8 3.5t2 8.5l80 108q4 6 13 6h58q9 0 13 -6l81 -108q2 -2 2 -6q0 -2 -2 -4t-6 -2h-40q-9 0 -13 6l-60 82q-1 2 -3 2t-3 -2l-61 -82q-4 -6 -13 -6h-40z" />
    <glyph glyph-name="Ycircumflex" unicode="&#x176;" horiz-adv-x="567" 
d="M258 1q-10 0 -10 10v296q0 4 -1 5l-208 376q-2 4 -2 6q0 6 9 6h54q9 0 12 -7l168 -305q1 -1 3 -1t3 1l169 305q4 7 12 7h54q6 0 8 -3.5t-1 -8.5l-208 -376q-1 -1 -1 -5v-296q0 -10 -10 -10h-51zM166 767q-6 0 -8 3.5t2 8.5l80 108q4 6 13 6h58q9 0 13 -6l81 -108
q2 -2 2 -6q0 -2 -2 -4t-6 -2h-40q-9 0 -13 6l-60 82q-1 2 -3 2t-3 -2l-61 -82q-4 -6 -13 -6h-40z" />
    <glyph glyph-name="ycircumflex" unicode="&#x177;" horiz-adv-x="461" 
d="M57 -200q-7 0 -7 10v40q0 10 10 10h4q39 1 60.5 11.5t37 39t33.5 86.5q2 4 0 6l-169 492l-1 4q0 7 9 7h53q9 0 12 -8l130 -404q1 -2 3 -2t3 2l128 404q3 8 12 8h52q11 0 8 -11l-185 -539q-24 -67 -45 -99t-52.5 -44.5t-88.5 -12.5h-7zM113 578q-6 0 -8 3.5t2 8.5l80 108
q4 6 13 6h58q9 0 13 -6l81 -108q2 -2 2 -6q0 -2 -2 -4t-6 -2h-40q-9 0 -13 6l-60 82q-1 2 -3 2t-3 -2l-61 -82q-4 -6 -13 -6h-40z" />
    <glyph glyph-name="Ydieresis" unicode="&#x178;" horiz-adv-x="567" 
d="M258 1q-10 0 -10 10v296q0 4 -1 5l-208 376q-2 4 -2 6q0 6 9 6h54q9 0 12 -7l168 -305q1 -1 3 -1t3 1l169 305q4 7 12 7h54q6 0 8 -3.5t-1 -8.5l-208 -376q-1 -1 -1 -5v-296q0 -10 -10 -10h-51zM369 794q-25 0 -40.5 16t-15.5 40q0 25 15.5 40.5t40.5 15.5q24 0 40 -15.5
t16 -40.5q0 -24 -16 -40t-40 -16zM198 794q-25 0 -40.5 16t-15.5 40q0 25 15.5 40.5t40.5 15.5q24 0 40 -15.5t16 -40.5q0 -24 -16 -40t-40 -16z" />
    <glyph glyph-name="Zacute" unicode="&#x179;" horiz-adv-x="549" 
d="M55 0q-10 0 -10 10v48q0 5 4 13l366 562q1 1 0 3t-3 2h-357q-10 0 -10 10v42q0 10 10 10h431q10 0 10 -10v-48q0 -5 -4 -13l-365 -562q-1 -1 0 -3t3 -2h356q10 0 10 -10v-42q0 -10 -10 -10h-431zM235 766q-6 0 -8 3.5t1 8.5l60 109q3 7 12 7h45q6 0 7.5 -3.5t-1.5 -8.5
l-68 -109q-5 -7 -12 -7h-36z" />
    <glyph glyph-name="zacute" unicode="&#x17a;" horiz-adv-x="445" 
d="M44 0q-10 0 -10 10v48q0 7 4 12l284 366q2 2 1 3.5t-3 1.5h-272q-10 0 -10 10v45q0 10 10 10h351q10 0 10 -10v-48q0 -7 -4 -12l-287 -366q-2 -2 -1 -3.5t3 -1.5h279q10 0 10 -10v-45q0 -10 -10 -10h-355zM187 572q-6 0 -8 3.5t1 8.5l60 109q3 7 12 7h45q6 0 7.5 -3.5
t-1.5 -8.5l-68 -109q-5 -7 -12 -7h-36z" />
    <glyph glyph-name="Zdotaccent" unicode="&#x17b;" horiz-adv-x="549" 
d="M55 0q-10 0 -10 10v48q0 5 4 13l366 562q1 1 0 3t-3 2h-357q-10 0 -10 10v42q0 10 10 10h431q10 0 10 -10v-48q0 -5 -4 -13l-365 -562q-1 -1 0 -3t3 -2h356q10 0 10 -10v-42q0 -10 -10 -10h-431zM268 792q-25 0 -40.5 16t-15.5 40q0 25 15.5 40.5t40.5 15.5
q24 0 40 -15.5t16 -40.5q0 -24 -16 -40t-40 -16z" />
    <glyph glyph-name="zdotaccent" unicode="&#x17c;" horiz-adv-x="445" 
d="M44 0q-10 0 -10 10v48q0 7 4 12l284 366q2 2 1 3.5t-3 1.5h-272q-10 0 -10 10v45q0 10 10 10h351q10 0 10 -10v-48q0 -7 -4 -12l-287 -366q-2 -2 -1 -3.5t3 -1.5h279q10 0 10 -10v-45q0 -10 -10 -10h-355zM220 598q-25 0 -40.5 16t-15.5 40q0 25 15.5 40.5t40.5 15.5
q24 0 40 -15.5t16 -40.5q0 -24 -16 -40t-40 -16z" />
    <glyph glyph-name="Zcaron" unicode="&#x17d;" horiz-adv-x="549" 
d="M55 0q-10 0 -10 10v48q0 5 4 13l366 562q1 1 0 3t-3 2h-357q-10 0 -10 10v42q0 10 10 10h431q10 0 10 -10v-48q0 -5 -4 -13l-365 -562q-1 -1 0 -3t3 -2h356q10 0 10 -10v-42q0 -10 -10 -10h-431zM148 882q-2 2 -2 6q0 2 2 4t6 2h40q9 0 13 -6l61 -82q1 -1 3 -1t3 1l60 82
q4 6 13 6h40q6 0 8 -3.5t-2 -8.5l-81 -108q-4 -6 -13 -6h-58q-9 0 -13 6z" />
    <glyph glyph-name="zcaron" unicode="&#x17e;" horiz-adv-x="445" 
d="M44 0q-10 0 -10 10v48q0 7 4 12l284 366q2 2 1 3.5t-3 1.5h-272q-10 0 -10 10v45q0 10 10 10h351q10 0 10 -10v-48q0 -7 -4 -12l-287 -366q-2 -2 -1 -3.5t3 -1.5h279q10 0 10 -10v-45q0 -10 -10 -10h-355zM100 688q-2 2 -2 6q0 2 2 4t6 2h40q9 0 13 -6l61 -82q1 -1 3 -1
t3 1l60 82q4 6 13 6h40q6 0 8 -3.5t-2 -8.5l-81 -108q-4 -6 -13 -6h-58q-9 0 -13 6z" />
    <glyph glyph-name="uni018F" unicode="&#x18f;" horiz-adv-x="587" 
d="M500 422q8 -27 11 -59.5t3 -82.5q0 -47 -2.5 -77t-8.5 -56q-18 -71 -74.5 -113.5t-137.5 -42.5q-90 0 -148 49t-73 131q-5 28 -5 77v48q0 10 10 10h365q4 0 4 4q-2 67 -9 90q-13 52 -53 82t-102 30q-49 -1 -86.5 -25t-57.5 -64q-5 -10 -13 -5l-40 24q-8 5 -4 14
q26 54 79 85.5t125 31.5q82 0 139 -40t78 -111zM291 53q57 0 95.5 30.5t50.5 81.5q5 23 7 75q0 4 -4 4h-300q-4 0 -4 -4q2 -57 7 -73q11 -51 50 -82.5t98 -31.5z" />
    <glyph glyph-name="florin" unicode="&#x192;" horiz-adv-x="547" 
d="M279 534q11 70 32.5 104.5t63 47.5t119.5 14q10 0 10 -10v-42q0 -10 -10 -10h-33q-55 0 -79 -24.5t-33 -83.5l-19 -121q0 -4 3 -4h92q10 0 10 -10v-45q0 -10 -10 -10h-102q-5 0 -5 -4l-59 -370q-11 -70 -33 -104.5t-63 -47.5t-119 -14q-10 0 -10 10v42q0 10 10 10h33
q55 0 79 24.5t33 83.5l58 366q0 4 -3 4h-76q-10 0 -10 10v45q0 10 10 10h86q5 0 5 4z" />
    <glyph glyph-name="Ohorn" unicode="&#x1a0;" horiz-adv-x="622" 
d="M310 -8q-71 0 -125 29t-83.5 81.5t-29.5 121.5v252q0 69 29.5 121.5t83.5 81.5t125 29t125.5 -29t84 -81.5t29.5 -121.5v-252q0 -69 -29.5 -121.5t-84 -81.5t-125.5 -29zM310 53q76 0 122 46t46 122v256q0 76 -46 122.5t-122 46.5q-75 0 -121 -46.5t-46 -122.5v-256
q0 -76 46 -122t121 -46zM512 658q-10 0 -10 10v22q0 10 9 11q26 2 46 20t24 50q0 10 10 10h28q10 0 9 -12q-4 -49 -37.5 -78t-78.5 -33z" />
    <glyph glyph-name="ohorn" unicode="&#x1a1;" horiz-adv-x="536" 
d="M467 377q14 -43 14 -123q0 -81 -14 -123q-19 -65 -70.5 -102t-123.5 -37t-124 37t-72 102q-14 46 -14 123t14 122q19 64 71 101t126 37q25 0 58 -7q1 -1 5 -1q27 4 46.5 22t22.5 49q0 10 10 10h28q10 0 10 -10q-3 -32 -18 -56t-39 -38q-4 -3 -1 -6q51 -36 71 -100z
M401 152q9 36 9 101q0 66 -8 101q-12 45 -46.5 71.5t-83.5 26.5t-83 -26.5t-46 -71.5q-8 -35 -8 -101t8 -101q11 -45 45.5 -71.5t84.5 -26.5q48 0 82 26.5t46 71.5z" />
    <glyph glyph-name="Uhorn" unicode="&#x1af;" horiz-adv-x="648" 
d="M324 -8q-70 0 -124 28t-84 78.5t-30 117.5v474q0 10 10 10h51q10 0 10 -10v-476q0 -71 46 -115.5t121 -44.5t121 44.5t46 115.5v476q0 10 10 10h51q10 0 10 -10v-474q0 -67 -29.5 -117.5t-83.5 -78.5t-125 -28zM575 658q-10 0 -10 10v22q0 10 9 11q26 2 46 20t24 50
q0 10 10 10h28q10 0 9 -12q-4 -49 -37.5 -78t-78.5 -33z" />
    <glyph glyph-name="uhorn" unicode="&#x1b0;" 
d="M542 587q10 0 10 -10q-4 -43 -29 -70.5t-63 -37.5q-3 -1 -3 -5v-454q0 -10 -10 -10h-51q-10 0 -10 10v43q0 2 -2 3t-3 -1q-42 -62 -133 -62q-48 0 -88.5 19.5t-64 56.5t-23.5 89v338q0 10 10 10h51q10 0 10 -10v-317q0 -57 32 -90.5t87 -33.5q57 0 90.5 34t33.5 90v317
q0 10 10 10h29q29 0 52.5 18t26.5 53q0 10 10 10h28z" />
    <glyph glyph-name="uni01CD" unicode="&#x1cd;" horiz-adv-x="607" 
d="M509 0q-9 0 -12 8l-40 126q-1 3 -4 3h-299q-3 0 -4 -3l-40 -126q-3 -8 -12 -8h-54q-11 0 -8 11l221 681q3 8 12 8h68q9 0 12 -8l222 -681l1 -4q0 -7 -9 -7h-54zM170 200q-1 -2 0.5 -3.5t3.5 -1.5h258q2 0 3.5 1.5t0.5 3.5l-130 408q-1 2 -3 2t-3 -2zM182 880q-2 2 -2 6
q0 2 2 4t6 2h40q9 0 13 -6l61 -82q1 -1 3 -1t3 1l60 82q4 6 13 6h40q6 0 8 -3.5t-2 -8.5l-81 -108q-4 -6 -13 -6h-58q-9 0 -13 6z" />
    <glyph glyph-name="uni01CE" unicode="&#x1ce;" horiz-adv-x="510" 
d="M255 514q90 0 139 -46t49 -122v-336q0 -10 -10 -10h-51q-10 0 -10 10v41q0 2 -1.5 3t-3.5 -1q-25 -30 -65 -45.5t-89 -15.5q-71 0 -119 36t-48 110q0 75 54.5 118.5t151.5 43.5h116q4 0 4 4v38q0 51 -28.5 80.5t-88.5 29.5q-48 0 -78 -18.5t-37 -51.5q-3 -10 -12 -9
l-54 7q-11 2 -9 8q8 56 60 91t130 35zM227 53q59 0 102 29.5t43 79.5v78q0 4 -4 4h-105q-66 0 -106 -27t-40 -75q0 -44 30.5 -66.5t79.5 -22.5zM135 686q-2 2 -2 6q0 2 2 4t6 2h40q9 0 13 -6l61 -82q1 -1 3 -1t3 1l60 82q4 6 13 6h40q6 0 8 -3.5t-2 -8.5l-81 -108
q-4 -6 -13 -6h-58q-9 0 -13 6z" />
    <glyph glyph-name="uni01D4" unicode="&#x1d4;" 
d="M386 496q0 10 10 10h51q10 0 10 -10v-486q0 -10 -10 -10h-51q-10 0 -10 10v43q0 2 -2 3t-3 -1q-42 -62 -133 -62q-48 0 -88.5 19.5t-64 56.5t-23.5 89v338q0 10 10 10h51q10 0 10 -10v-317q0 -57 32 -90.5t87 -33.5q57 0 90.5 34t33.5 90v317zM149 686q-2 2 -2 6q0 2 2 4
t6 2h40q9 0 13 -6l61 -82q1 -1 3 -1t3 1l60 82q4 6 13 6h40q6 0 8 -3.5t-2 -8.5l-81 -108q-4 -6 -13 -6h-58q-9 0 -13 6z" />
    <glyph glyph-name="uni01E5" unicode="&#x1e5;" horiz-adv-x="559" 
d="M551 280q10 0 10 -10v-27q0 -10 -10 -10h-84q-4 0 -4 -4v-212q0 -112 -64.5 -164t-177.5 -52q-23 0 -35 1q-10 1 -10 11l2 46q0 5 3 7.5t7 1.5l27 -1q93 0 135 36.5t42 115.5v37q0 2 -1.5 2.5t-3.5 -1.5q-46 -60 -131 -60q-65 0 -115.5 35t-67.5 99q-12 41 -12 122
q0 44 2.5 74t10.5 54q18 60 65 96.5t113 36.5q89 0 135 -59q2 -2 3.5 -1t1.5 3v39q0 10 10 10h51q10 0 10 -10v-212q0 -4 4 -4h84zM267 57q49 0 80.5 27t39.5 69q3 13 4 29.5t1 46.5q0 4 -4 4h-125q-10 0 -10 10v27q0 10 10 10h125q4 0 4 4q0 31 -1.5 44t-4.5 27
q-8 42 -39.5 69.5t-79.5 27.5q-47 0 -79.5 -27t-45.5 -70q-10 -32 -10 -100q0 -73 10 -101q10 -42 43.5 -69.5t81.5 -27.5z" />
    <glyph glyph-name="gcaron" unicode="&#x1e7;" horiz-adv-x="535" 
d="M392 496q0 10 10 10h51q10 0 10 -10v-479q0 -112 -64.5 -164t-177.5 -52q-23 0 -35 1q-10 1 -10 11l2 46q0 5 3 7.5t7 1.5l27 -1q93 0 135 36.5t42 115.5v37q0 2 -1.5 2.5t-3.5 -1.5q-46 -60 -131 -60q-65 0 -115.5 35t-67.5 99q-12 41 -12 122q0 44 2.5 74t10.5 54
q18 60 65 96.5t113 36.5q89 0 135 -59q2 -2 3.5 -1t1.5 3v39zM387 153q3 15 4 37t1 64q0 51 -1 68.5t-5 32.5q-8 42 -39.5 69.5t-79.5 27.5q-47 0 -79.5 -27t-45.5 -70q-10 -32 -10 -100q0 -73 10 -101q10 -42 43.5 -69.5t81.5 -27.5q49 0 80.5 27t39.5 69zM155 686
q-2 2 -2 6q0 2 2 4t6 2h40q9 0 13 -6l61 -82q1 -1 3 -1t3 1l60 82q4 6 13 6h40q6 0 8 -3.5t-2 -8.5l-81 -108q-4 -6 -13 -6h-58q-9 0 -13 6z" />
    <glyph glyph-name="uni01E9" unicode="&#x1e9;" horiz-adv-x="501" 
d="M90 0q-10 0 -10 10v680q0 10 10 10h51q10 0 10 -10v-409q0 -2 1.5 -3t3.5 1l212 222q5 5 12 5h60q6 0 8 -4t-2 -8l-128 -142q-2 -2 -1 -5l153 -335l1 -4q0 -8 -9 -8h-54q-8 0 -11 8l-129 292q-2 4 -5 1l-110 -116q-2 -2 -2 -5v-170q0 -10 -10 -10h-51zM132 880q-2 2 -2 6
q0 2 2 4t6 2h40q9 0 13 -6l61 -82q1 -1 3 -1t3 1l60 82q4 6 13 6h40q6 0 8 -3.5t-2 -8.5l-81 -108q-4 -6 -13 -6h-58q-9 0 -13 6z" />
    <glyph glyph-name="uni01EF" unicode="&#x1ef;" horiz-adv-x="536" 
d="M219 273q-5 -5 2 -5q86 0 143 -32t83.5 -83.5t26.5 -114.5q0 -75 -35.5 -128t-96.5 -79.5t-137 -26.5q-69 0 -135 20q-8 3 -8 12l2 43q0 5 3.5 7.5t8.5 0.5q66 -19 129 -19q89 0 143.5 42t54.5 125q0 47 -20 87.5t-62 65t-104 24.5q-48 0 -108 -16q-2 -1 -5 -1q-5 0 -8 6
l-14 27q-1 2 -1 5q0 5 4 9l237 194q2 2 1 3.5t-3 1.5h-245q-10 0 -10 10v45q0 10 10 10h342q10 0 10 -10v-45q0 -6 -6 -12zM140 686q-2 2 -2 6q0 2 2 4t6 2h40q9 0 13 -6l61 -82q1 -1 3 -1t3 1l60 82q4 6 13 6h40q6 0 8 -3.5t-2 -8.5l-81 -108q-4 -6 -13 -6h-58q-9 0 -13 6z
" />
    <glyph glyph-name="oslashacute" unicode="&#x1ff;" horiz-adv-x="528" 
d="M462 377q13 -44 13 -123q0 -80 -13 -123q-20 -65 -71.5 -102t-123.5 -37q-69 0 -118 33q-4 2 -5 -1l-32 -47q-6 -9 -14 -3l-36 28q-8 6 -3 14l38 55q2 3 0 6q-16 23 -25 54q-14 46 -14 123q0 80 13 122q19 64 71 101t126 37q61 0 107 -27q4 -2 5 1l32 47q6 9 14 3l36 -28
q8 -6 3 -14l-35 -51q-1 -3 0 -6q19 -24 32 -62zM140 144q1 -2 3 -2t3 1l193 285q2 4 -2 5q-32 19 -71 19q-49 0 -83 -26.5t-45 -71.5q-9 -33 -9 -101t9 -101zM395 152q9 31 9 101q0 72 -8 101q-2 7 -8 21q-1 4 -5 0l-198 -291q-2 -4 1 -5q34 -25 81 -25q48 0 82.5 26.5
t45.5 71.5zM232 572q-6 0 -8 3.5t1 8.5l60 109q3 7 12 7h45q6 0 7.5 -3.5t-1.5 -8.5l-68 -109q-5 -7 -12 -7h-36z" />
    <glyph glyph-name="uni0218" unicode="&#x218;" horiz-adv-x="584" 
d="M296 -8q-113 0 -178.5 51t-65.5 136v31q0 10 10 10h49q10 0 10 -10v-27q0 -58 48 -93.5t133 -35.5q77 0 117 32.5t40 86.5q0 35 -18.5 60t-57 47t-108.5 51q-75 30 -116.5 52.5t-67 58t-25.5 89.5q0 84 58.5 130.5t160.5 46.5q111 0 175 -52t64 -138v-22q0 -10 -10 -10
h-50q-10 0 -10 10v18q0 58 -45.5 95t-126.5 37q-71 0 -109 -29t-38 -84q0 -36 18.5 -59.5t53 -41t106.5 -45.5q73 -30 117.5 -56t72 -63.5t27.5 -91.5q0 -84 -62 -134t-172 -50zM228 -198q-6 0 -8 3.5t1 8.5l60 109q3 7 12 7h45q6 0 7.5 -3.5t-1.5 -8.5l-68 -109
q-5 -7 -12 -7h-36z" />
    <glyph glyph-name="uni0219" unicode="&#x219;" horiz-adv-x="484" 
d="M246 -5q-56 0 -99.5 18t-67 48t-23.5 67v12q0 10 10 10h48q10 0 10 -10v-8q0 -33 34.5 -57.5t86.5 -24.5t84 23.5t32 59.5q0 25 -16.5 41t-39 25t-69.5 23q-56 16 -92 32t-60.5 44.5t-24.5 72.5q0 64 50 102t132 38q55 0 97.5 -18t65.5 -49.5t23 -70.5v-3q0 -10 -10 -10
h-47q-10 0 -10 10v3q0 34 -32.5 57t-87.5 23q-51 0 -82 -20.5t-31 -56.5q0 -34 30 -52t93 -36q58 -17 94 -32t62 -43.5t26 -74.5q0 -65 -51 -104t-135 -39zM184 -195q-6 0 -8 3.5t1 8.5l60 109q3 7 12 7h45q6 0 7.5 -3.5t-1.5 -8.5l-68 -109q-5 -7 -12 -7h-36z" />
    <glyph glyph-name="uni021A" unicode="&#x21a;" horiz-adv-x="569" 
d="M516 700q10 0 10 -10v-43q0 -10 -10 -10h-196q-4 0 -4 -4v-623q0 -10 -10 -10h-51q-10 0 -10 10v623q0 4 -4 4h-188q-10 0 -10 10v43q0 10 10 10h463zM189 -190q-6 0 -8 3.5t1 8.5l60 109q3 7 12 7h45q6 0 7.5 -3.5t-1.5 -8.5l-68 -109q-5 -7 -12 -7h-36z" />
    <glyph glyph-name="uni021B" unicode="&#x21b;" horiz-adv-x="364" 
d="M307 457q0 -10 -10 -10h-113q-4 0 -4 -4v-295q0 -48 21.5 -67.5t67.5 -19.5h25q10 0 10 -10v-41q0 -10 -10 -10q-12 -1 -37 -1q-72 0 -109 27t-37 100v317q0 4 -4 4h-61q-10 0 -10 10v39q0 10 10 10h61q4 0 4 4v116q0 10 10 10h49q10 0 10 -10v-116q0 -4 4 -4h113
q10 0 10 -10v-39zM169 -183q-6 0 -8 3.5t1 8.5l60 109q3 7 12 7h45q6 0 7.5 -3.5t-1.5 -8.5l-68 -109q-5 -7 -12 -7h-36z" />
    <glyph glyph-name="uni021F" unicode="&#x21f;" 
d="M290 513q80 0 127.5 -47t47.5 -126v-330q0 -10 -10 -10h-51q-10 0 -10 10v316q0 55 -33.5 90t-86.5 35q-55 0 -89 -34t-34 -89v-318q0 -10 -10 -10h-51q-10 0 -10 10v680q0 10 10 10h51q10 0 10 -10v-237q0 -2 1.5 -3t2.5 1q44 62 135 62zM144 880q-2 2 -2 6q0 2 2 4t6 2
h40q9 0 13 -6l61 -82q1 -1 3 -1t3 1l60 82q4 6 13 6h40q6 0 8 -3.5t-2 -8.5l-81 -108q-4 -6 -13 -6h-58q-9 0 -13 6z" />
    <glyph glyph-name="uni0228" unicode="&#x228;" horiz-adv-x="605" 
d="M547 648q0 -10 -10 -10h-368q-4 0 -4 -4v-247q0 -4 4 -4h258q10 0 10 -10v-42q0 -10 -10 -10h-258q-4 0 -4 -4v-251q0 -4 4 -4h368q10 0 10 -10v-42q0 -10 -10 -10h-181q-2 0 -3 -1.5t1 -3.5q49 -43 49 -92q0 -14 -2 -21q-8 -32 -32 -46t-56 -14q-21 0 -41 5q-8 3 -7 12
l4 23q1 5 4.5 6.5t7.5 0.5q12 -3 22 -3q21 0 35 11.5t14 34.5q0 22 -14.5 44t-39.5 42q-1 2 -5 2h-189q-10 0 -10 10v680q0 10 10 10h433q10 0 10 -10v-42z" />
    <glyph glyph-name="uni0229" unicode="&#x229;" horiz-adv-x="533" 
d="M468 338q4 -28 4 -70v-32q0 -10 -10 -10h-323q-4 0 -4 -4q2 -55 6 -71q11 -45 47 -71t92 -26q42 0 74 19t50 54q6 9 14 4l39 -23q8 -5 4 -14q-22 -42 -63.5 -68.5t-94.5 -32.5q-6 -1 -2 -5q51 -43 51 -93q0 -15 -2 -22q-8 -32 -32.5 -46t-56.5 -14q-20 0 -40 5
q-8 3 -7 12l4 23q1 4 4 6.5t8 1.5q12 -3 23 -3q21 0 34 11.5t13 35.5q0 42 -55 86q-1 2 -5 2q-58 8 -98 40t-59 84q-18 48 -18 138q0 42 1.5 68.5t7.5 47.5q17 65 68.5 104t124.5 39q91 0 140 -46t61 -130zM267 452q-49 0 -81.5 -25.5t-42.5 -68.5q-6 -21 -8 -68q0 -4 4 -4
h259q4 0 4 4q-2 45 -6 64q-11 45 -44.5 71.5t-84.5 26.5z" />
    <glyph glyph-name="uni0237" unicode="&#x237;" horiz-adv-x="241" 
d="M-25 -208q-10 0 -10 10v41q0 10 10 10q107 1 107 103v540q0 10 10 10h51q10 0 10 -10v-540q0 -85 -42 -124t-136 -40z" />
    <glyph glyph-name="uni0259" unicode="&#x259;" horiz-adv-x="533" 
d="M450 389q18 -48 18 -138q0 -42 -1.5 -68.5t-7.5 -47.5q-17 -65 -68.5 -104t-124.5 -39q-91 0 -140 46t-61 130q-4 28 -4 70v32q0 10 10 10h323q4 0 4 4q-2 55 -6 71q-11 45 -47 71t-92 26q-42 0 -74 -19t-50 -54q-6 -9 -14 -4l-39 23q-8 5 -4 14q25 48 75 75.5t115 27.5
q71 -1 119 -34t69 -92zM266 54q49 0 81.5 25.5t42.5 68.5q6 21 8 68q0 4 -4 4h-259q-4 0 -4 -4q2 -45 6 -64q11 -45 44.5 -71.5t84.5 -26.5z" />
    <glyph glyph-name="uni0292" unicode="&#x292;" horiz-adv-x="536" 
d="M219 273q-5 -5 2 -5q86 0 143 -32t83.5 -83.5t26.5 -114.5q0 -75 -35.5 -128t-96.5 -79.5t-137 -26.5q-69 0 -135 20q-8 3 -8 12l2 43q0 5 3.5 7.5t8.5 0.5q66 -19 129 -19q89 0 143.5 42t54.5 125q0 47 -20 87.5t-62 65t-104 24.5q-48 0 -108 -16q-2 -1 -5 -1q-5 0 -8 6
l-14 27q-1 2 -1 5q0 5 4 9l237 194q2 2 1 3.5t-3 1.5h-245q-10 0 -10 10v45q0 10 10 10h342q10 0 10 -10v-45q0 -6 -6 -12z" />
    <glyph glyph-name="uni02BB" unicode="&#x2bb;" horiz-adv-x="140" 
d="M5 688q-1 2 -1 5q0 7 8 7h53q9 0 12 -8l59 -186l1 -4q0 -7 -9 -7h-38q-8 0 -11 8z" />
    <glyph glyph-name="uni02BC" unicode="&#x2bc;" horiz-adv-x="140" 
d="M128 700q5 0 7 -3.5t0 -8.5l-74 -185q-3 -8 -11 -8h-38q-11 0 -8 11l59 186q3 8 12 8h53z" />
    <glyph glyph-name="circumflex" unicode="&#x2c6;" horiz-adv-x="260" 
d="M44 574q-6 0 -8 3.5t2 8.5l80 108q4 6 13 6h58q9 0 13 -6l81 -108q2 -2 2 -6q0 -2 -2 -4t-6 -2h-40q-9 0 -13 6l-60 82q-1 2 -3 2t-3 -2l-61 -82q-4 -6 -13 -6h-40z" />
    <glyph glyph-name="caron" unicode="&#x2c7;" horiz-adv-x="321" 
d="M38 688q-2 2 -2 6q0 2 2 4t6 2h40q9 0 13 -6l61 -82q1 -1 3 -1t3 1l60 82q4 6 13 6h40q6 0 8 -3.5t-2 -8.5l-81 -108q-4 -6 -13 -6h-58q-9 0 -13 6z" />
    <glyph glyph-name="uni02C9" unicode="&#x2c9;" horiz-adv-x="269" 
d="M10 648q-10 0 -10 10v31q0 10 10 10h249q10 0 10 -10v-31q0 -10 -10 -10h-249z" />
    <glyph glyph-name="breve" unicode="&#x2d8;" horiz-adv-x="305" 
d="M152 562q-49 0 -83.5 28.5t-39.5 72.5q0 10 10 10h30q10 0 11 -10q3 -26 23.5 -42.5t48.5 -16.5q29 0 49.5 16.5t23.5 42.5q1 10 11 10h30q10 0 10 -9q-4 -44 -39 -73t-85 -29z" />
    <glyph glyph-name="dotaccent" unicode="&#x2d9;" horiz-adv-x="170" 
d="M85 598q-25 0 -40.5 16t-15.5 40q0 25 15.5 40.5t40.5 15.5q24 0 40 -15.5t16 -40.5q0 -24 -16 -40t-40 -16z" />
    <glyph glyph-name="ring" unicode="&#x2da;" horiz-adv-x="277" 
d="M139 579q-47 0 -78.5 31t-31.5 77q0 45 32 76.5t78 31.5t77.5 -31.5t31.5 -76.5q0 -46 -31.5 -77t-77.5 -31zM139 622q27 0 46.5 18.5t19.5 46.5t-19.5 47t-46.5 19q-28 0 -47.5 -19t-19.5 -47t19.5 -46.5t47.5 -18.5z" />
    <glyph glyph-name="ogonek" unicode="&#x2db;" horiz-adv-x="140" 
d="M138 -172q0 -6 -7 -9q-20 -5 -41 -5q-32 0 -55.5 14t-31.5 46q-3 10 -3 23q0 52 59 99q5 4 13 4h27q8 0 8 -5q0 -4 -4 -7q-51 -43 -51 -82q0 -8 1 -12q4 -18 16.5 -27t31.5 -9q10 0 22 3l3 1q7 0 9 -9l3 -22v-3z" />
    <glyph glyph-name="tilde" unicode="&#x2dc;" horiz-adv-x="355" 
d="M235 603q-19 0 -33 6t-29 16q-18 11 -28 15t-22 4q-18 0 -30.5 -5.5t-24.5 -19.5q-6 -9 -14 -2l-18 18q-7 7 -2 14q33 49 86 49q16 0 28.5 -5t23 -10.5t13.5 -7.5q4 -2 14.5 -8t19 -9t16.5 -3q33 0 53 28q6 10 14 2l18 -17q7 -7 1 -15q-14 -24 -37.5 -37t-48.5 -13z" />
    <glyph glyph-name="hungarumlaut" unicode="&#x2dd;" horiz-adv-x="363" 
d="M43 580q-6 0 -8.5 3.5t0.5 8.5l59 109q3 7 12 7h45q6 0 8 -3.5t-1 -8.5l-68 -109q-5 -7 -12 -7h-35zM211 580q-5 0 -7.5 3.5t0.5 8.5l59 109q3 7 12 7h45q6 0 8 -3.5t-1 -8.5l-68 -109q-5 -7 -12 -7h-36z" />
    <glyph glyph-name="gravecomb" unicode="&#x300;" horiz-adv-x="0" 
d="M-3 584q2 -4 2 -6q0 -6 -9 -6h-36q-7 0 -12 7l-68 109q-2 4 -2 6q0 6 8 6h45q9 0 12 -7z" />
    <glyph glyph-name="acutecomb" unicode="&#x301;" horiz-adv-x="0" 
d="M-183 572q-6 0 -8 3.5t1 8.5l60 109q3 7 12 7h45q6 0 7.5 -3.5t-1.5 -8.5l-68 -109q-5 -7 -12 -7h-36z" />
    <glyph glyph-name="uni0302" unicode="&#x302;" horiz-adv-x="0" 
d="M-277 574q-6 0 -8 3.5t2 8.5l80 108q4 6 13 6h58q9 0 13 -6l81 -108q2 -2 2 -6q0 -2 -2 -4t-6 -2h-40q-9 0 -13 6l-60 82q-1 2 -3 2t-3 -2l-61 -82q-4 -6 -13 -6h-40z" />
    <glyph glyph-name="tildecomb" unicode="&#x303;" horiz-adv-x="0" 
d="M-92 603q-19 0 -33 6t-29 16q-18 11 -28 15t-22 4q-18 0 -30.5 -5.5t-24.5 -19.5q-6 -9 -14 -2l-18 18q-7 7 -2 14q33 49 86 49q16 0 28.5 -5t23 -10.5t13.5 -7.5q4 -2 14.5 -8t19 -9t16.5 -3q33 0 53 28q6 10 14 2l18 -17q7 -7 1 -15q-14 -24 -37.5 -37t-48.5 -13z" />
    <glyph glyph-name="uni0304" unicode="&#x304;" horiz-adv-x="0" 
d="M-259 621q-10 0 -10 10v32q0 10 10 10h249q10 0 10 -10v-32q0 -10 -10 -10h-249z" />
    <glyph glyph-name="uni0306" unicode="&#x306;" horiz-adv-x="0" 
d="M-153 580q-49 0 -83 28.5t-39 70.5v2q0 8 9 8h27q10 0 11 -10q4 -25 25 -42t50 -17q30 0 51.5 16.5t24.5 42.5q1 10 11 10h27q10 0 10 -9q-4 -43 -39 -71.5t-85 -28.5z" />
    <glyph glyph-name="uni0307" unicode="&#x307;" horiz-adv-x="0" 
d="M-60 598q-25 0 -40.5 16t-15.5 40q0 25 15.5 40.5t40.5 15.5q24 0 40 -15.5t16 -40.5q0 -24 -16 -40t-40 -16z" />
    <glyph glyph-name="uni0308" unicode="&#x308;" horiz-adv-x="0" 
d="M-56 601q-25 0 -40.5 16t-15.5 40q0 25 15.5 40.5t40.5 15.5q24 0 40 -15.5t16 -40.5q0 -24 -16 -40t-40 -16zM-227 601q-25 0 -40.5 16t-15.5 40q0 25 15.5 40.5t40.5 15.5q24 0 40 -15.5t16 -40.5q0 -24 -16 -40t-40 -16z" />
    <glyph glyph-name="hookabovecomb" unicode="&#x309;" horiz-adv-x="0" 
d="M-329 554q-5 1 -7 4.5t0 7.5q7 15 16 27t18 21q13 12 19 22t6 25q0 14 -12.5 25t-29.5 11t-28.5 -8t-25.5 -28q-6 -8 -14 -2l-16 10q-8 6 -3 14q19 29 38 41.5t51 12.5q37 0 60.5 -21t23.5 -55q0 -22 -9 -36.5t-28 -34.5q-21 -19 -28 -34q-4 -7 -13 -6z" />
    <glyph glyph-name="uni030A" unicode="&#x30a;" horiz-adv-x="0" 
d="M-102 579q-47 0 -78.5 31t-31.5 77q0 45 32 76.5t78 31.5t77.5 -31.5t31.5 -76.5q0 -46 -31.5 -77t-77.5 -31zM-102 622q27 0 46.5 18.5t19.5 46.5t-19.5 47t-46.5 19q-28 0 -47.5 -19t-19.5 -47t19.5 -46.5t47.5 -18.5z" />
    <glyph glyph-name="uni030B" unicode="&#x30b;" horiz-adv-x="0" 
d="M-313 572q-5 0 -7 3.5t0 8.5l56 109q3 7 12 7h46q6 0 8 -3.5t-1 -8.5l-60 -109q-3 -7 -12 -7h-42zM-149 572q-6 0 -8.5 3.5t0.5 8.5l59 109q3 7 12 7h43q6 0 8 -3.5t-1 -8.5l-61 -109q-5 -7 -12 -7h-40z" />
    <glyph glyph-name="uni030C" unicode="&#x30c;" horiz-adv-x="0" 
d="M-283 688q-2 2 -2 6q0 2 2 4t6 2h40q9 0 13 -6l61 -82q1 -1 3 -1t3 1l60 82q4 6 13 6h40q6 0 8 -3.5t-2 -8.5l-81 -108q-4 -6 -13 -6h-58q-9 0 -13 6z" />
    <glyph glyph-name="uni0312" unicode="&#x312;" horiz-adv-x="0" 
d="M-43 700q5 0 7.5 -3.5t-0.5 -8.5l-59 -109q-3 -7 -12 -7h-45q-6 0 -7.5 3.5t1.5 8.5l68 109q5 7 12 7h35z" />
    <glyph glyph-name="uni0313" unicode="&#x313;" horiz-adv-x="0" 
d="M-125 572q-6 0 -8 3.5t1 8.5l60 109q3 7 12 7h45q6 0 7.5 -3.5t-1.5 -8.5l-68 -109q-5 -7 -12 -7h-36z" />
    <glyph glyph-name="uni031B" unicode="&#x31b;" horiz-adv-x="0" 
d="M-134 464q-10 0 -10 10v22q0 10 9 11q26 2 46 20t24 50q0 10 10 10h28q10 0 9 -12q-4 -49 -37.5 -78t-78.5 -33z" />
    <glyph glyph-name="dotbelowcomb" unicode="&#x323;" horiz-adv-x="0" 
d="M-62 -184q-23 0 -38 15t-15 38t15 38t38 15t38 -15t15 -38t-15.5 -38t-37.5 -15z" />
    <glyph glyph-name="uni0326" unicode="&#x326;" horiz-adv-x="0" 
d="M-158 -190q-6 0 -8 3.5t1 8.5l60 109q3 7 12 7h45q6 0 7.5 -3.5t-1.5 -8.5l-68 -109q-5 -7 -12 -7h-36z" />
    <glyph glyph-name="uni0327" unicode="&#x327;" horiz-adv-x="0" 
d="M-131 -181q-8 3 -7 12l4 23q1 5 4.5 6.5t7.5 0.5q12 -3 22 -3q18 0 30.5 9t16.5 27q1 4 1 11q0 38 -50 83q-4 3 -4 7q0 5 8 5h26q8 0 12 -4q60 -47 60 -102q0 -6 -2 -20q-8 -32 -32.5 -46t-55.5 -14q-21 0 -41 5z" />
    <glyph glyph-name="uni0328" unicode="&#x328;" horiz-adv-x="0" 
d="M-2 -172q0 -6 -7 -9q-20 -5 -41 -5q-32 0 -55.5 14t-31.5 46q-3 10 -3 23q0 52 59 99q5 4 13 4h27q8 0 8 -5q0 -2 -5 -7q-50 -43 -50 -82q0 -8 1 -12q4 -18 16.5 -27t30.5 -9q11 0 23 3l3 1q7 0 9 -9l3 -22v-3z" />
    <glyph glyph-name="uni0335" unicode="&#x335;" horiz-adv-x="0" 
d="M-317 610q0 10 10 10h297q10 0 10 -10v-27q0 -10 -10 -10h-297q-10 0 -10 10v27z" />
    <glyph glyph-name="uni0336" unicode="&#x336;" horiz-adv-x="0" 
d="M-581 516q-10 0 -10 10v31q0 10 10 10h571q10 0 10 -10v-31q0 -10 -10 -10h-571z" />
    <glyph glyph-name="uni0337" unicode="&#x337;" horiz-adv-x="0" 
d="M-387 38q-2 -2 -6 -2q-5 0 -8 4l-23 28q-3 3 -3 7t4 7l443 334q2 2 6 2q5 0 8 -4l23 -28q2 -2 2 -6q0 -5 -4 -8z" />
    <glyph glyph-name="uni0338" unicode="&#x338;" horiz-adv-x="0" 
d="M-417 -39q-5 0 -7 3.5t0 8.5l362 765q3 7 12 7h37q5 0 7 -3.5t0 -8.5l-363 -765q-3 -7 -12 -7h-36z" />
    <glyph glyph-name="uni0394" unicode="&#x394;" horiz-adv-x="638" 
d="M42 0q-10 0 -10 10v46q0 7 2 12l254 624q3 8 11 8h40q8 0 11 -8l254 -625q2 -5 2 -12v-45q0 -10 -10 -10h-554zM104 67q-1 -2 0 -3.5t3 -1.5h424q2 0 3 1.5t0 3.5l-212 536q-1 3 -3 3t-3 -3z" />
    <glyph glyph-name="uni03A9" unicode="&#x3a9;" horiz-adv-x="641" 
d="M82 0q-10 0 -10 10v42q0 10 10 10h83q3 0 3.5 1.5t-1.5 3.5q-40 27 -62.5 71.5t-22.5 101.5v236q0 69 29.5 121.5t83.5 81.5t125 29t125.5 -29t84 -81.5t29.5 -121.5v-236q0 -57 -22.5 -101.5t-63.5 -71.5q-2 -2 -1.5 -3.5t3.5 -1.5h84q10 0 10 -10v-42q0 -10 -10 -10
h-187q-10 0 -10 10v44q0 8 9 11q30 7 57 29.5t43.5 57.5t16.5 78v248q0 76 -46 122t-122 46q-75 0 -121 -46t-46 -122v-248q0 -43 16.5 -78t43.5 -57.5t56 -29.5q9 -3 9 -11v-44q0 -10 -10 -10h-186z" />
    <glyph glyph-name="uni03BC" unicode="&#x3bc;" horiz-adv-x="546" 
d="M393 496q0 10 10 10h51q10 0 10 -10v-486q0 -10 -10 -10h-51q-10 0 -10 10v43q0 2 -2 3t-3 -1q-42 -62 -132 -62q-56 0 -100 25q-2 1 -3.5 0t-1.5 -3v-205q0 -10 -10 -10h-51q-10 0 -10 10v686q0 10 10 10h51q10 0 10 -10v-336q5 -49 36.5 -77t81.5 -28q57 0 90.5 34
t33.5 90v317z" />
    <glyph glyph-name="pi" unicode="&#x3c0;" horiz-adv-x="646" 
d="M607 455q0 -10 -10 -10h-73q-4 0 -4 -4v-288q0 -37 6.5 -56t20.5 -26.5t38 -8.5q10 0 10 -10v-41q0 -10 -10 -10q-41 0 -70 8t-47.5 34.5t-18.5 78.5v319q0 4 -4 4h-237q-4 0 -4 -4v-431q0 -10 -10 -10h-51q-10 0 -10 10v431q0 4 -4 4h-80q-10 0 -10 10v41q0 10 10 10
h548q10 0 10 -10v-41z" />
    <glyph glyph-name="Wgrave" unicode="&#x1e80;" horiz-adv-x="896" 
d="M231 0q-8 0 -11 8l-192 681l-1 3q0 8 10 8h53q9 0 11 -8l152 -548q1 -2 2.5 -2t2.5 2l141 547q2 9 11 9h54q9 0 11 -9l147 -547q1 -2 2.5 -2t2.5 2l152 548q2 8 11 8h51q5 0 7.5 -3t1.5 -8l-189 -681q-2 -8 -11 -8h-53q-9 0 -11 9l-146 560q-1 2 -2.5 2t-2.5 -2
l-143 -560q-1 -9 -11 -9h-50zM474 778q2 -4 2 -6q0 -6 -9 -6h-36q-7 0 -12 7l-68 109q-2 4 -2 6q0 6 8 6h45q9 0 12 -7z" />
    <glyph glyph-name="wgrave" unicode="&#x1e81;" horiz-adv-x="721" 
d="M185 0q-8 0 -11 8l-142 487l-1 3q0 8 10 8h52q9 0 11 -9l106 -394q1 -2 2.5 -2t2.5 2l108 394q2 9 11 9h48q9 0 11 -8l109 -394q1 -2 3 -2t3 2l109 393q2 9 11 9l52 -1q5 0 7.5 -3t1.5 -8l-144 -486q-3 -8 -11 -8h-53q-8 0 -11 8l-109 374q-1 2 -2.5 2t-2.5 -2l-106 -374
q-3 -8 -11 -8h-54zM385 584q2 -4 2 -6q0 -6 -9 -6h-36q-7 0 -12 7l-68 109q-2 4 -2 6q0 6 8 6h45q9 0 12 -7z" />
    <glyph glyph-name="Wacute" unicode="&#x1e82;" horiz-adv-x="896" 
d="M231 0q-8 0 -11 8l-192 681l-1 3q0 8 10 8h53q9 0 11 -8l152 -548q1 -2 2.5 -2t2.5 2l141 547q2 9 11 9h54q9 0 11 -9l147 -547q1 -2 2.5 -2t2.5 2l152 548q2 8 11 8h51q5 0 7.5 -3t1.5 -8l-189 -681q-2 -8 -11 -8h-53q-9 0 -11 9l-146 560q-1 2 -2.5 2t-2.5 -2
l-143 -560q-1 -9 -11 -9h-50zM414 766q-6 0 -8 3.5t1 8.5l60 109q3 7 12 7h45q6 0 7.5 -3.5t-1.5 -8.5l-68 -109q-5 -7 -12 -7h-36z" />
    <glyph glyph-name="wacute" unicode="&#x1e83;" horiz-adv-x="721" 
d="M185 0q-8 0 -11 8l-142 487l-1 3q0 8 10 8h52q9 0 11 -9l106 -394q1 -2 2.5 -2t2.5 2l108 394q2 9 11 9h48q9 0 11 -8l109 -394q1 -2 3 -2t3 2l109 393q2 9 11 9l52 -1q5 0 7.5 -3t1.5 -8l-144 -486q-3 -8 -11 -8h-53q-8 0 -11 8l-109 374q-1 2 -2.5 2t-2.5 -2l-106 -374
q-3 -8 -11 -8h-54zM325 572q-6 0 -8 3.5t1 8.5l60 109q3 7 12 7h45q6 0 7.5 -3.5t-1.5 -8.5l-68 -109q-5 -7 -12 -7h-36z" />
    <glyph glyph-name="Wdieresis" unicode="&#x1e84;" horiz-adv-x="896" 
d="M231 0q-8 0 -11 8l-192 681l-1 3q0 8 10 8h53q9 0 11 -8l152 -548q1 -2 2.5 -2t2.5 2l141 547q2 9 11 9h54q9 0 11 -9l147 -547q1 -2 2.5 -2t2.5 2l152 548q2 8 11 8h51q5 0 7.5 -3t1.5 -8l-189 -681q-2 -8 -11 -8h-53q-9 0 -11 9l-146 560q-1 2 -2.5 2t-2.5 -2
l-143 -560q-1 -9 -11 -9h-50zM533 795q-25 0 -40.5 16t-15.5 40q0 25 15.5 40.5t40.5 15.5q24 0 40 -15.5t16 -40.5q0 -24 -16 -40t-40 -16zM362 795q-25 0 -40.5 16t-15.5 40q0 25 15.5 40.5t40.5 15.5q24 0 40 -15.5t16 -40.5q0 -24 -16 -40t-40 -16z" />
    <glyph glyph-name="wdieresis" unicode="&#x1e85;" horiz-adv-x="721" 
d="M185 0q-8 0 -11 8l-142 487l-1 3q0 8 10 8h52q9 0 11 -9l106 -394q1 -2 2.5 -2t2.5 2l108 394q2 9 11 9h48q9 0 11 -8l109 -394q1 -2 3 -2t3 2l109 393q2 9 11 9l52 -1q5 0 7.5 -3t1.5 -8l-144 -486q-3 -8 -11 -8h-53q-8 0 -11 8l-109 374q-1 2 -2.5 2t-2.5 -2l-106 -374
q-3 -8 -11 -8h-54zM443 601q-25 0 -40.5 16t-15.5 40q0 25 15.5 40.5t40.5 15.5q24 0 40 -15.5t16 -40.5q0 -24 -16 -40t-40 -16zM272 601q-25 0 -40.5 16t-15.5 40q0 25 15.5 40.5t40.5 15.5q24 0 40 -15.5t16 -40.5q0 -24 -16 -40t-40 -16z" />
    <glyph glyph-name="uni1EA0" unicode="&#x1ea0;" horiz-adv-x="607" 
d="M509 0q-9 0 -12 8l-40 126q-1 3 -4 3h-299q-3 0 -4 -3l-40 -126q-3 -8 -12 -8h-54q-11 0 -8 11l221 681q3 8 12 8h68q9 0 12 -8l222 -681l1 -4q0 -7 -9 -7h-54zM170 200q-1 -2 0.5 -3.5t3.5 -1.5h258q2 0 3.5 1.5t0.5 3.5l-130 408q-1 2 -3 2t-3 -2zM304 -184
q-23 0 -38 15t-15 38t15 38t38 15t38 -15t15 -38t-15.5 -38t-37.5 -15z" />
    <glyph glyph-name="uni1EA1" unicode="&#x1ea1;" horiz-adv-x="510" 
d="M255 514q90 0 139 -46t49 -122v-336q0 -10 -10 -10h-51q-10 0 -10 10v41q0 2 -1.5 3t-3.5 -1q-25 -30 -65 -45.5t-89 -15.5q-71 0 -119 36t-48 110q0 75 54.5 118.5t151.5 43.5h116q4 0 4 4v38q0 51 -28.5 80.5t-88.5 29.5q-48 0 -78 -18.5t-37 -51.5q-3 -10 -12 -9
l-54 7q-11 2 -9 8q8 56 60 91t130 35zM227 53q59 0 102 29.5t43 79.5v78q0 4 -4 4h-105q-66 0 -106 -27t-40 -75q0 -44 30.5 -66.5t79.5 -22.5zM256 -184q-23 0 -38 15t-15 38t15 38t38 15t38 -15t15 -38t-15.5 -38t-37.5 -15z" />
    <glyph glyph-name="uni1EA2" unicode="&#x1ea2;" horiz-adv-x="607" 
d="M509 0q-9 0 -12 8l-40 126q-1 3 -4 3h-299q-3 0 -4 -3l-40 -126q-3 -8 -12 -8h-54q-11 0 -8 11l221 681q3 8 12 8h68q9 0 12 -8l222 -681l1 -4q0 -7 -9 -7h-54zM170 200q-1 -2 0.5 -3.5t3.5 -1.5h258q2 0 3.5 1.5t0.5 3.5l-130 408q-1 2 -3 2t-3 -2zM295 748q-5 1 -7 4.5
t0 7.5q7 15 16 27t18 21q13 12 19 22t6 25q0 14 -12.5 25t-29.5 11t-28.5 -8t-25.5 -28q-6 -8 -14 -2l-16 10q-8 6 -3 14q19 29 38 41.5t51 12.5q37 0 60.5 -21t23.5 -55q0 -22 -9 -36.5t-28 -34.5q-21 -19 -28 -34q-4 -7 -13 -6z" />
    <glyph glyph-name="uni1EA3" unicode="&#x1ea3;" horiz-adv-x="510" 
d="M255 514q90 0 139 -46t49 -122v-336q0 -10 -10 -10h-51q-10 0 -10 10v41q0 2 -1.5 3t-3.5 -1q-25 -30 -65 -45.5t-89 -15.5q-71 0 -119 36t-48 110q0 75 54.5 118.5t151.5 43.5h116q4 0 4 4v38q0 51 -28.5 80.5t-88.5 29.5q-48 0 -78 -18.5t-37 -51.5q-3 -10 -12 -9
l-54 7q-11 2 -9 8q8 56 60 91t130 35zM227 53q59 0 102 29.5t43 79.5v78q0 4 -4 4h-105q-66 0 -106 -27t-40 -75q0 -44 30.5 -66.5t79.5 -22.5zM248 554q-5 1 -7 4.5t0 7.5q7 15 16 27t18 21q13 12 19 22t6 25q0 14 -12.5 25t-29.5 11t-28.5 -8t-25.5 -28q-6 -8 -14 -2
l-16 10q-8 6 -3 14q19 29 38 41.5t51 12.5q37 0 60.5 -21t23.5 -55q0 -22 -9 -36.5t-28 -34.5q-21 -19 -28 -34q-4 -7 -13 -6z" />
    <glyph glyph-name="uni1EA4" unicode="&#x1ea4;" horiz-adv-x="607" 
d="M509 0q-9 0 -12 8l-40 126q-1 3 -4 3h-299q-3 0 -4 -3l-40 -126q-3 -8 -12 -8h-54q-11 0 -8 11l221 681q3 8 12 8h68q9 0 12 -8l222 -681l1 -4q0 -7 -9 -7h-54zM170 200q-1 -2 0.5 -3.5t3.5 -1.5h258q2 0 3.5 1.5t0.5 3.5l-130 408q-1 2 -3 2t-3 -2zM185 768q-6 0 -8 3.5
t2 8.5l80 108q4 6 13 6h58q9 0 13 -6l81 -108q2 -2 2 -6q0 -2 -2 -4t-6 -2h-40q-9 0 -13 6l-60 82q-1 2 -3 2t-3 -2l-61 -82q-4 -6 -13 -6h-40zM434 842q-6 0 -8 3.5t1 8.5l60 109q3 7 12 7h45q6 0 7.5 -3.5t-1.5 -8.5l-68 -109q-5 -7 -12 -7h-36z" />
    <glyph glyph-name="uni1EA5" unicode="&#x1ea5;" horiz-adv-x="510" 
d="M255 514q90 0 139 -46t49 -122v-336q0 -10 -10 -10h-51q-10 0 -10 10v41q0 2 -1.5 3t-3.5 -1q-25 -30 -65 -45.5t-89 -15.5q-71 0 -119 36t-48 110q0 75 54.5 118.5t151.5 43.5h116q4 0 4 4v38q0 51 -28.5 80.5t-88.5 29.5q-48 0 -78 -18.5t-37 -51.5q-3 -10 -12 -9
l-54 7q-11 2 -9 8q8 56 60 91t130 35zM227 53q59 0 102 29.5t43 79.5v78q0 4 -4 4h-105q-66 0 -106 -27t-40 -75q0 -44 30.5 -66.5t79.5 -22.5zM138 574q-6 0 -8 3.5t2 8.5l80 108q4 6 13 6h58q9 0 13 -6l81 -108q2 -2 2 -6q0 -2 -2 -4t-6 -2h-40q-9 0 -13 6l-60 82
q-1 2 -3 2t-3 -2l-61 -82q-4 -6 -13 -6h-40zM387 648q-6 0 -8 3.5t1 8.5l60 109q3 7 12 7h45q6 0 7.5 -3.5t-1.5 -8.5l-68 -109q-5 -7 -12 -7h-36z" />
    <glyph glyph-name="uni1EA6" unicode="&#x1ea6;" horiz-adv-x="607" 
d="M509 0q-9 0 -12 8l-40 126q-1 3 -4 3h-299q-3 0 -4 -3l-40 -126q-3 -8 -12 -8h-54q-11 0 -8 11l221 681q3 8 12 8h68q9 0 12 -8l222 -681l1 -4q0 -7 -9 -7h-54zM170 200q-1 -2 0.5 -3.5t3.5 -1.5h258q2 0 3.5 1.5t0.5 3.5l-130 408q-1 2 -3 2t-3 -2zM185 768q-6 0 -8 3.5
t2 8.5l80 108q4 6 13 6h58q9 0 13 -6l81 -108q2 -2 2 -6q0 -2 -2 -4t-6 -2h-40q-9 0 -13 6l-60 82q-1 2 -3 2t-3 -2l-61 -82q-4 -6 -13 -6h-40zM466 894q2 -4 2 -6q0 -6 -9 -6h-36q-7 0 -12 7l-68 109q-2 4 -2 6q0 6 8 6h45q9 0 12 -7z" />
    <glyph glyph-name="uni1EA7" unicode="&#x1ea7;" horiz-adv-x="510" 
d="M255 514q90 0 139 -46t49 -122v-336q0 -10 -10 -10h-51q-10 0 -10 10v41q0 2 -1.5 3t-3.5 -1q-25 -30 -65 -45.5t-89 -15.5q-71 0 -119 36t-48 110q0 75 54.5 118.5t151.5 43.5h116q4 0 4 4v38q0 51 -28.5 80.5t-88.5 29.5q-48 0 -78 -18.5t-37 -51.5q-3 -10 -12 -9
l-54 7q-11 2 -9 8q8 56 60 91t130 35zM227 53q59 0 102 29.5t43 79.5v78q0 4 -4 4h-105q-66 0 -106 -27t-40 -75q0 -44 30.5 -66.5t79.5 -22.5zM138 574q-6 0 -8 3.5t2 8.5l80 108q4 6 13 6h58q9 0 13 -6l81 -108q2 -2 2 -6q0 -2 -2 -4t-6 -2h-40q-9 0 -13 6l-60 82
q-1 2 -3 2t-3 -2l-61 -82q-4 -6 -13 -6h-40zM419 700q2 -4 2 -6q0 -6 -9 -6h-36q-7 0 -12 7l-68 109q-2 4 -2 6q0 6 8 6h45q9 0 12 -7z" />
    <glyph glyph-name="uni1EA8" unicode="&#x1ea8;" horiz-adv-x="607" 
d="M509 0q-9 0 -12 8l-40 126q-1 3 -4 3h-299q-3 0 -4 -3l-40 -126q-3 -8 -12 -8h-54q-11 0 -8 11l221 681q3 8 12 8h68q9 0 12 -8l222 -681l1 -4q0 -7 -9 -7h-54zM170 200q-1 -2 0.5 -3.5t3.5 -1.5h258q2 0 3.5 1.5t0.5 3.5l-130 408q-1 2 -3 2t-3 -2zM185 768q-6 0 -8 3.5
t2 8.5l80 108q4 6 13 6h58q9 0 13 -6l81 -108q2 -2 2 -6q0 -2 -2 -4t-6 -2h-40q-9 0 -13 6l-60 82q-1 2 -3 2t-3 -2l-61 -82q-4 -6 -13 -6h-40zM411 868q-5 1 -7 4.5t0 7.5q7 15 16 27t18 21q13 12 19 22t6 25q0 14 -12.5 25t-29.5 11t-28.5 -8t-25.5 -28q-6 -8 -14 -2
l-16 10q-8 6 -3 14q19 29 38 41.5t51 12.5q37 0 60.5 -21t23.5 -55q0 -22 -9 -36.5t-28 -34.5q-21 -19 -28 -34q-4 -7 -13 -6z" />
    <glyph glyph-name="uni1EA9" unicode="&#x1ea9;" horiz-adv-x="510" 
d="M255 514q90 0 139 -46t49 -122v-336q0 -10 -10 -10h-51q-10 0 -10 10v41q0 2 -1.5 3t-3.5 -1q-25 -30 -65 -45.5t-89 -15.5q-71 0 -119 36t-48 110q0 75 54.5 118.5t151.5 43.5h116q4 0 4 4v38q0 51 -28.5 80.5t-88.5 29.5q-48 0 -78 -18.5t-37 -51.5q-3 -10 -12 -9
l-54 7q-11 2 -9 8q8 56 60 91t130 35zM227 53q59 0 102 29.5t43 79.5v78q0 4 -4 4h-105q-66 0 -106 -27t-40 -75q0 -44 30.5 -66.5t79.5 -22.5zM138 574q-6 0 -8 3.5t2 8.5l80 108q4 6 13 6h58q9 0 13 -6l81 -108q2 -2 2 -6q0 -2 -2 -4t-6 -2h-40q-9 0 -13 6l-60 82
q-1 2 -3 2t-3 -2l-61 -82q-4 -6 -13 -6h-40zM364 674q-5 1 -7 4.5t0 7.5q7 15 16 27t18 21q13 12 19 22t6 25q0 14 -12.5 25t-29.5 11t-28.5 -8t-25.5 -28q-6 -8 -14 -2l-16 10q-8 6 -3 14q19 29 38 41.5t51 12.5q37 0 60.5 -21t23.5 -55q0 -22 -9 -36.5t-28 -34.5
q-21 -19 -28 -34q-4 -7 -13 -6z" />
    <glyph glyph-name="uni1EAA" unicode="&#x1eaa;" horiz-adv-x="607" 
d="M509 0q-9 0 -12 8l-40 126q-1 3 -4 3h-299q-3 0 -4 -3l-40 -126q-3 -8 -12 -8h-54q-11 0 -8 11l221 681q3 8 12 8h68q9 0 12 -8l222 -681l1 -4q0 -7 -9 -7h-54zM170 200q-1 -2 0.5 -3.5t3.5 -1.5h258q2 0 3.5 1.5t0.5 3.5l-130 408q-1 2 -3 2t-3 -2zM185 768q-6 0 -8 3.5
t2 8.5l80 108q4 6 13 6h58q9 0 13 -6l81 -108q2 -2 2 -6q0 -2 -2 -4t-6 -2h-40q-9 0 -13 6l-60 82q-1 2 -3 2t-3 -2l-61 -82q-4 -6 -13 -6h-40zM365 925q-19 0 -33 6t-29 16q-18 11 -28 15t-22 4q-18 0 -30.5 -5.5t-24.5 -19.5q-6 -9 -14 -2l-18 18q-7 7 -2 14q33 49 86 49
q16 0 28.5 -5t23 -10.5t13.5 -7.5q4 -2 14.5 -8t19 -9t16.5 -3q33 0 53 28q6 10 14 2l18 -17q7 -7 1 -15q-14 -24 -37.5 -37t-48.5 -13z" />
    <glyph glyph-name="uni1EAB" unicode="&#x1eab;" horiz-adv-x="510" 
d="M255 514q90 0 139 -46t49 -122v-336q0 -10 -10 -10h-51q-10 0 -10 10v41q0 2 -1.5 3t-3.5 -1q-25 -30 -65 -45.5t-89 -15.5q-71 0 -119 36t-48 110q0 75 54.5 118.5t151.5 43.5h116q4 0 4 4v38q0 51 -28.5 80.5t-88.5 29.5q-48 0 -78 -18.5t-37 -51.5q-3 -10 -12 -9
l-54 7q-11 2 -9 8q8 56 60 91t130 35zM227 53q59 0 102 29.5t43 79.5v78q0 4 -4 4h-105q-66 0 -106 -27t-40 -75q0 -44 30.5 -66.5t79.5 -22.5zM138 574q-6 0 -8 3.5t2 8.5l80 108q4 6 13 6h58q9 0 13 -6l81 -108q2 -2 2 -6q0 -2 -2 -4t-6 -2h-40q-9 0 -13 6l-60 82
q-1 2 -3 2t-3 -2l-61 -82q-4 -6 -13 -6h-40zM318 731q-19 0 -33 6t-29 16q-18 11 -28 15t-22 4q-18 0 -30.5 -5.5t-24.5 -19.5q-6 -9 -14 -2l-18 18q-7 7 -2 14q33 49 86 49q16 0 28.5 -5t23 -10.5t13.5 -7.5q4 -2 14.5 -8t19 -9t16.5 -3q33 0 53 28q6 10 14 2l18 -17
q7 -7 1 -15q-14 -24 -37.5 -37t-48.5 -13z" />
    <glyph glyph-name="uni1EAC" unicode="&#x1eac;" horiz-adv-x="607" 
d="M509 0q-9 0 -12 8l-40 126q-1 3 -4 3h-299q-3 0 -4 -3l-40 -126q-3 -8 -12 -8h-54q-11 0 -8 11l221 681q3 8 12 8h68q9 0 12 -8l222 -681l1 -4q0 -7 -9 -7h-54zM170 200q-1 -2 0.5 -3.5t3.5 -1.5h258q2 0 3.5 1.5t0.5 3.5l-130 408q-1 2 -3 2t-3 -2zM304 -184
q-23 0 -38 15t-15 38t15 38t38 15t38 -15t15 -38t-15.5 -38t-37.5 -15zM185 768q-6 0 -8 3.5t2 8.5l80 108q4 6 13 6h58q9 0 13 -6l81 -108q2 -2 2 -6q0 -2 -2 -4t-6 -2h-40q-9 0 -13 6l-60 82q-1 2 -3 2t-3 -2l-61 -82q-4 -6 -13 -6h-40z" />
    <glyph glyph-name="uni1EAD" unicode="&#x1ead;" horiz-adv-x="510" 
d="M255 514q90 0 139 -46t49 -122v-336q0 -10 -10 -10h-51q-10 0 -10 10v41q0 2 -1.5 3t-3.5 -1q-25 -30 -65 -45.5t-89 -15.5q-71 0 -119 36t-48 110q0 75 54.5 118.5t151.5 43.5h116q4 0 4 4v38q0 51 -28.5 80.5t-88.5 29.5q-48 0 -78 -18.5t-37 -51.5q-3 -10 -12 -9
l-54 7q-11 2 -9 8q8 56 60 91t130 35zM227 53q59 0 102 29.5t43 79.5v78q0 4 -4 4h-105q-66 0 -106 -27t-40 -75q0 -44 30.5 -66.5t79.5 -22.5zM256 -184q-23 0 -38 15t-15 38t15 38t38 15t38 -15t15 -38t-15.5 -38t-37.5 -15zM138 574q-6 0 -8 3.5t2 8.5l80 108q4 6 13 6
h58q9 0 13 -6l81 -108q2 -2 2 -6q0 -2 -2 -4t-6 -2h-40q-9 0 -13 6l-60 82q-1 2 -3 2t-3 -2l-61 -82q-4 -6 -13 -6h-40z" />
    <glyph glyph-name="uni1EAE" unicode="&#x1eae;" horiz-adv-x="607" 
d="M509 0q-9 0 -12 8l-40 126q-1 3 -4 3h-299q-3 0 -4 -3l-40 -126q-3 -8 -12 -8h-54q-11 0 -8 11l221 681q3 8 12 8h68q9 0 12 -8l222 -681l1 -4q0 -7 -9 -7h-54zM170 200q-1 -2 0.5 -3.5t3.5 -1.5h258q2 0 3.5 1.5t0.5 3.5l-130 408q-1 2 -3 2t-3 -2zM302 776
q-49 0 -83 28.5t-39 70.5v2q0 8 9 8h27q10 0 11 -10q4 -25 25 -42t50 -17q30 0 51.5 16.5t24.5 42.5q1 10 11 10h27q10 0 10 -9q-4 -43 -39 -71.5t-85 -28.5zM282 913q-6 0 -8 3.5t1 8.5l60 109q3 7 12 7h45q6 0 7.5 -3.5t-1.5 -8.5l-68 -109q-5 -7 -12 -7h-36z" />
    <glyph glyph-name="uni1EAF" unicode="&#x1eaf;" horiz-adv-x="510" 
d="M255 514q90 0 139 -46t49 -122v-336q0 -10 -10 -10h-51q-10 0 -10 10v41q0 2 -1.5 3t-3.5 -1q-25 -30 -65 -45.5t-89 -15.5q-71 0 -119 36t-48 110q0 75 54.5 118.5t151.5 43.5h116q4 0 4 4v38q0 51 -28.5 80.5t-88.5 29.5q-48 0 -78 -18.5t-37 -51.5q-3 -10 -12 -9
l-54 7q-11 2 -9 8q8 56 60 91t130 35zM227 53q59 0 102 29.5t43 79.5v78q0 4 -4 4h-105q-66 0 -106 -27t-40 -75q0 -44 30.5 -66.5t79.5 -22.5zM255 581q-49 0 -83 28.5t-39 70.5v2q0 8 9 8h27q10 0 11 -10q4 -25 25 -42t50 -17q30 0 51.5 16.5t24.5 42.5q1 10 11 10h27
q10 0 10 -9q-4 -43 -39 -71.5t-85 -28.5zM235 718q-6 0 -8 3.5t1 8.5l60 109q3 7 12 7h45q6 0 7.5 -3.5t-1.5 -8.5l-68 -109q-5 -7 -12 -7h-36z" />
    <glyph glyph-name="uni1EB0" unicode="&#x1eb0;" horiz-adv-x="607" 
d="M509 0q-9 0 -12 8l-40 126q-1 3 -4 3h-299q-3 0 -4 -3l-40 -126q-3 -8 -12 -8h-54q-11 0 -8 11l221 681q3 8 12 8h68q9 0 12 -8l222 -681l1 -4q0 -7 -9 -7h-54zM170 200q-1 -2 0.5 -3.5t3.5 -1.5h258q2 0 3.5 1.5t0.5 3.5l-130 408q-1 2 -3 2t-3 -2zM302 776
q-49 0 -83 28.5t-39 70.5v2q0 8 9 8h27q10 0 11 -10q4 -25 25 -42t50 -17q30 0 51.5 16.5t24.5 42.5q1 10 11 10h27q10 0 10 -9q-4 -43 -39 -71.5t-85 -28.5zM329 925q2 -4 2 -6q0 -6 -9 -6h-36q-7 0 -12 7l-68 109q-2 4 -2 6q0 6 8 6h45q9 0 12 -7z" />
    <glyph glyph-name="uni1EB1" unicode="&#x1eb1;" horiz-adv-x="510" 
d="M255 514q90 0 139 -46t49 -122v-336q0 -10 -10 -10h-51q-10 0 -10 10v41q0 2 -1.5 3t-3.5 -1q-25 -30 -65 -45.5t-89 -15.5q-71 0 -119 36t-48 110q0 75 54.5 118.5t151.5 43.5h116q4 0 4 4v38q0 51 -28.5 80.5t-88.5 29.5q-48 0 -78 -18.5t-37 -51.5q-3 -10 -12 -9
l-54 7q-11 2 -9 8q8 56 60 91t130 35zM227 53q59 0 102 29.5t43 79.5v78q0 4 -4 4h-105q-66 0 -106 -27t-40 -75q0 -44 30.5 -66.5t79.5 -22.5zM255 581q-49 0 -83 28.5t-39 70.5v2q0 8 9 8h27q10 0 11 -10q4 -25 25 -42t50 -17q30 0 51.5 16.5t24.5 42.5q1 10 11 10h27
q10 0 10 -9q-4 -43 -39 -71.5t-85 -28.5zM282 730q2 -4 2 -6q0 -6 -9 -6h-36q-7 0 -12 7l-68 109q-2 4 -2 6q0 6 8 6h45q9 0 12 -7z" />
    <glyph glyph-name="uni1EB2" unicode="&#x1eb2;" horiz-adv-x="607" 
d="M509 0q-9 0 -12 8l-40 126q-1 3 -4 3h-299q-3 0 -4 -3l-40 -126q-3 -8 -12 -8h-54q-11 0 -8 11l221 681q3 8 12 8h68q9 0 12 -8l222 -681l1 -4q0 -7 -9 -7h-54zM170 200q-1 -2 0.5 -3.5t3.5 -1.5h258q2 0 3.5 1.5t0.5 3.5l-130 408q-1 2 -3 2t-3 -2zM302 776
q-49 0 -83 28.5t-39 70.5v2q0 8 9 8h27q10 0 11 -10q4 -25 25 -42t50 -17q30 0 51.5 16.5t24.5 42.5q1 10 11 10h27q10 0 10 -9q-4 -43 -39 -71.5t-85 -28.5zM295 901q-5 1 -7 4.5t0 7.5q7 15 16 27t18 21q13 12 19 22t6 25q0 14 -12.5 25t-29.5 11t-28.5 -8t-25.5 -28
q-6 -8 -14 -2l-16 10q-8 6 -3 14q19 29 38 41.5t51 12.5q37 0 60.5 -21t23.5 -55q0 -22 -9 -36.5t-28 -34.5q-21 -19 -28 -34q-4 -7 -13 -6z" />
    <glyph glyph-name="uni1EB3" unicode="&#x1eb3;" horiz-adv-x="510" 
d="M255 514q90 0 139 -46t49 -122v-336q0 -10 -10 -10h-51q-10 0 -10 10v41q0 2 -1.5 3t-3.5 -1q-25 -30 -65 -45.5t-89 -15.5q-71 0 -119 36t-48 110q0 75 54.5 118.5t151.5 43.5h116q4 0 4 4v38q0 51 -28.5 80.5t-88.5 29.5q-48 0 -78 -18.5t-37 -51.5q-3 -10 -12 -9
l-54 7q-11 2 -9 8q8 56 60 91t130 35zM227 53q59 0 102 29.5t43 79.5v78q0 4 -4 4h-105q-66 0 -106 -27t-40 -75q0 -44 30.5 -66.5t79.5 -22.5zM255 581q-49 0 -83 28.5t-39 70.5v2q0 8 9 8h27q10 0 11 -10q4 -25 25 -42t50 -17q30 0 51.5 16.5t24.5 42.5q1 10 11 10h27
q10 0 10 -9q-4 -43 -39 -71.5t-85 -28.5zM248 706q-5 1 -7 4.5t0 7.5q7 15 16 27t18 21q13 12 19 22t6 25q0 14 -12.5 25t-29.5 11t-28.5 -8t-25.5 -28q-6 -8 -14 -2l-16 10q-8 6 -3 14q19 29 38 41.5t51 12.5q37 0 60.5 -21t23.5 -55q0 -22 -9 -36.5t-28 -34.5
q-21 -19 -28 -34q-4 -7 -13 -6z" />
    <glyph glyph-name="uni1EB4" unicode="&#x1eb4;" horiz-adv-x="607" 
d="M509 0q-9 0 -12 8l-40 126q-1 3 -4 3h-299q-3 0 -4 -3l-40 -126q-3 -8 -12 -8h-54q-11 0 -8 11l221 681q3 8 12 8h68q9 0 12 -8l222 -681l1 -4q0 -7 -9 -7h-54zM170 200q-1 -2 0.5 -3.5t3.5 -1.5h258q2 0 3.5 1.5t0.5 3.5l-130 408q-1 2 -3 2t-3 -2zM365 922
q-29 0 -59 20q-18 11 -27 15t-20 4q-17 0 -29 -5.5t-23 -18.5q-6 -9 -14 -2l-17 16q-7 7 -2 14q29 47 82 47q15 0 26.5 -4.5t21 -10t13.5 -7.5q3 -2 13.5 -7.5t19 -8.5t15.5 -3q15 0 27 6t23 21q7 8 14 1l16 -15q7 -7 1 -15q-13 -23 -35 -35t-46 -12zM302 776
q-49 0 -83.5 28.5t-38.5 70.5v2q0 8 9 8h27q10 0 11 -10q4 -25 25 -42t50 -17t50.5 16.5t25.5 42.5q1 10 11 10h27q10 0 10 -9q-4 -43 -39 -71.5t-85 -28.5z" />
    <glyph glyph-name="uni1EB5" unicode="&#x1eb5;" horiz-adv-x="510" 
d="M255 514q90 0 139 -46t49 -122v-336q0 -10 -10 -10h-51q-10 0 -10 10v41q0 2 -1.5 3t-3.5 -1q-25 -30 -65 -45.5t-89 -15.5q-71 0 -119 36t-48 110q0 75 54.5 118.5t151.5 43.5h116q4 0 4 4v38q0 51 -28.5 80.5t-88.5 29.5q-48 0 -78 -18.5t-37 -51.5q-3 -10 -12 -9
l-54 7q-11 2 -9 8q8 56 60 91t130 35zM227 53q59 0 102 29.5t43 79.5v78q0 4 -4 4h-105q-66 0 -106 -27t-40 -75q0 -44 30.5 -66.5t79.5 -22.5zM318 727q-29 0 -59 20q-18 11 -27 15t-20 4q-17 0 -29 -5.5t-23 -18.5q-6 -9 -14 -2l-17 16q-7 7 -2 14q29 47 82 47
q15 0 26.5 -4.5t21 -10t13.5 -7.5q3 -2 13.5 -7.5t19 -8.5t15.5 -3q15 0 27 6t23 21q7 8 14 1l16 -15q7 -7 1 -15q-13 -23 -35 -35t-46 -12zM255 581q-49 0 -83.5 28.5t-38.5 70.5v2q0 8 9 8h27q10 0 11 -10q4 -25 25 -42t50 -17t50.5 16.5t25.5 42.5q1 10 11 10h27
q10 0 10 -9q-4 -43 -39 -71.5t-85 -28.5z" />
    <glyph glyph-name="uni1EB6" unicode="&#x1eb6;" horiz-adv-x="607" 
d="M509 0q-9 0 -12 8l-40 126q-1 3 -4 3h-299q-3 0 -4 -3l-40 -126q-3 -8 -12 -8h-54q-11 0 -8 11l221 681q3 8 12 8h68q9 0 12 -8l222 -681l1 -4q0 -7 -9 -7h-54zM170 200q-1 -2 0.5 -3.5t3.5 -1.5h258q2 0 3.5 1.5t0.5 3.5l-130 408q-1 2 -3 2t-3 -2zM304 -184
q-23 0 -38 15t-15 38t15 38t38 15t38 -15t15 -38t-15.5 -38t-37.5 -15zM301 776q-49 0 -83 28.5t-39 70.5v2q0 8 9 8h27q10 0 11 -10q4 -25 25 -42t50 -17q30 0 51.5 16.5t24.5 42.5q1 10 11 10h27q10 0 10 -9q-4 -43 -39 -71.5t-85 -28.5z" />
    <glyph glyph-name="uni1EB7" unicode="&#x1eb7;" horiz-adv-x="510" 
d="M255 514q90 0 139 -46t49 -122v-336q0 -10 -10 -10h-51q-10 0 -10 10v41q0 2 -1.5 3t-3.5 -1q-25 -30 -65 -45.5t-89 -15.5q-71 0 -119 36t-48 110q0 75 54.5 118.5t151.5 43.5h116q4 0 4 4v38q0 51 -28.5 80.5t-88.5 29.5q-48 0 -78 -18.5t-37 -51.5q-3 -10 -12 -9
l-54 7q-11 2 -9 8q8 56 60 91t130 35zM227 53q59 0 102 29.5t43 79.5v78q0 4 -4 4h-105q-66 0 -106 -27t-40 -75q0 -44 30.5 -66.5t79.5 -22.5zM256 -184q-23 0 -38 15t-15 38t15 38t38 15t38 -15t15 -38t-15.5 -38t-37.5 -15zM254 581q-49 0 -83 28.5t-39 70.5v2q0 8 9 8
h27q10 0 11 -10q4 -25 25 -42t50 -17q30 0 51.5 16.5t24.5 42.5q1 10 11 10h27q10 0 10 -9q-4 -43 -39 -71.5t-85 -28.5z" />
    <glyph glyph-name="uni1EB8" unicode="&#x1eb8;" horiz-adv-x="605" 
d="M547 648q0 -10 -10 -10h-368q-4 0 -4 -4v-247q0 -4 4 -4h258q10 0 10 -10v-42q0 -10 -10 -10h-258q-4 0 -4 -4v-251q0 -4 4 -4h368q10 0 10 -10v-42q0 -10 -10 -10h-433q-10 0 -10 10v680q0 10 10 10h433q10 0 10 -10v-42zM322 -184q-23 0 -38 15t-15 38t15 38t38 15
t38 -15t15 -38t-15.5 -38t-37.5 -15z" />
    <glyph glyph-name="uni1EB9" unicode="&#x1eb9;" horiz-adv-x="533" 
d="M468 338q4 -28 4 -70v-32q0 -10 -10 -10h-323q-4 0 -4 -4q2 -55 6 -71q11 -45 47 -71t92 -26q42 0 74 19t50 54q6 9 14 4l39 -23q8 -5 4 -14q-25 -48 -75 -75.5t-115 -27.5q-71 1 -119 34t-69 92q-18 48 -18 138q0 42 1.5 68.5t7.5 47.5q17 65 68.5 104t124.5 39
q91 0 140 -46t61 -130zM267 452q-49 0 -81.5 -25.5t-42.5 -68.5q-6 -21 -8 -68q0 -4 4 -4h259q4 0 4 4q-2 45 -6 64q-11 45 -44.5 71.5t-84.5 26.5zM271 -193q-23 0 -38 15t-15 38t15 38t38 15t38 -15t15 -38t-15.5 -38t-37.5 -15z" />
    <glyph glyph-name="uni1EBA" unicode="&#x1eba;" horiz-adv-x="605" 
d="M547 648q0 -10 -10 -10h-368q-4 0 -4 -4v-247q0 -4 4 -4h258q10 0 10 -10v-42q0 -10 -10 -10h-258q-4 0 -4 -4v-251q0 -4 4 -4h368q10 0 10 -10v-42q0 -10 -10 -10h-433q-10 0 -10 10v680q0 10 10 10h433q10 0 10 -10v-42zM309 748q-5 1 -7 4.5t0 7.5q7 15 16 27t18 21
q13 12 19 22t6 25q0 14 -12.5 25t-29.5 11t-28.5 -8t-25.5 -28q-6 -8 -14 -2l-16 10q-8 6 -3 14q19 29 38 41.5t51 12.5q37 0 60.5 -21t23.5 -55q0 -22 -9 -36.5t-28 -34.5q-21 -19 -28 -34q-4 -7 -13 -6z" />
    <glyph glyph-name="uni1EBB" unicode="&#x1ebb;" horiz-adv-x="533" 
d="M468 338q4 -28 4 -70v-32q0 -10 -10 -10h-323q-4 0 -4 -4q2 -55 6 -71q11 -45 47 -71t92 -26q42 0 74 19t50 54q6 9 14 4l39 -23q8 -5 4 -14q-25 -48 -75 -75.5t-115 -27.5q-71 1 -119 34t-69 92q-18 48 -18 138q0 42 1.5 68.5t7.5 47.5q17 65 68.5 104t124.5 39
q91 0 140 -46t61 -130zM267 452q-49 0 -81.5 -25.5t-42.5 -68.5q-6 -21 -8 -68q0 -4 4 -4h259q4 0 4 4q-2 45 -6 64q-11 45 -44.5 71.5t-84.5 26.5zM258 554q-5 1 -7 4.5t0 7.5q7 15 16 27t18 21q13 12 19 22t6 25q0 14 -12.5 25t-29.5 11t-28.5 -8t-25.5 -28q-6 -8 -14 -2
l-16 10q-8 6 -3 14q19 29 38 41.5t51 12.5q37 0 60.5 -21t23.5 -55q0 -22 -9 -36.5t-28 -34.5q-21 -19 -28 -34q-4 -7 -13 -6z" />
    <glyph glyph-name="uni1EBC" unicode="&#x1ebc;" horiz-adv-x="605" 
d="M547 648q0 -10 -10 -10h-368q-4 0 -4 -4v-247q0 -4 4 -4h258q10 0 10 -10v-42q0 -10 -10 -10h-258q-4 0 -4 -4v-251q0 -4 4 -4h368q10 0 10 -10v-42q0 -10 -10 -10h-433q-10 0 -10 10v680q0 10 10 10h433q10 0 10 -10v-42zM379 797q-19 0 -33 6t-29 16q-18 11 -28 15
t-22 4q-18 0 -30.5 -5.5t-24.5 -19.5q-6 -9 -14 -2l-18 18q-7 7 -2 14q33 49 86 49q16 0 28.5 -5t23 -10.5t13.5 -7.5q4 -2 14.5 -8t19 -9t16.5 -3q33 0 53 28q6 10 14 2l18 -17q7 -7 1 -15q-14 -24 -37.5 -37t-48.5 -13z" />
    <glyph glyph-name="uni1EBD" unicode="&#x1ebd;" horiz-adv-x="533" 
d="M468 338q4 -28 4 -70v-32q0 -10 -10 -10h-323q-4 0 -4 -4q2 -55 6 -71q11 -45 47 -71t92 -26q42 0 74 19t50 54q6 9 14 4l39 -23q8 -5 4 -14q-25 -48 -75 -75.5t-115 -27.5q-71 1 -119 34t-69 92q-18 48 -18 138q0 42 1.5 68.5t7.5 47.5q17 65 68.5 104t124.5 39
q91 0 140 -46t61 -130zM267 452q-49 0 -81.5 -25.5t-42.5 -68.5q-6 -21 -8 -68q0 -4 4 -4h259q4 0 4 4q-2 45 -6 64q-11 45 -44.5 71.5t-84.5 26.5zM329 603q-19 0 -33 6t-29 16q-18 11 -28 15t-22 4q-18 0 -30.5 -5.5t-24.5 -19.5q-6 -9 -14 -2l-18 18q-7 7 -2 14
q33 49 86 49q16 0 28.5 -5t23 -10.5t13.5 -7.5q4 -2 14.5 -8t19 -9t16.5 -3q33 0 53 28q6 10 14 2l18 -17q7 -7 1 -15q-14 -24 -37.5 -37t-48.5 -13z" />
    <glyph glyph-name="uni1EBE" unicode="&#x1ebe;" horiz-adv-x="605" 
d="M547 648q0 -10 -10 -10h-368q-4 0 -4 -4v-247q0 -4 4 -4h258q10 0 10 -10v-42q0 -10 -10 -10h-258q-4 0 -4 -4v-251q0 -4 4 -4h368q10 0 10 -10v-42q0 -10 -10 -10h-433q-10 0 -10 10v680q0 10 10 10h433q10 0 10 -10v-42zM200 768q-6 0 -8 3.5t2 8.5l80 108q4 6 13 6h58
q9 0 13 -6l81 -108q2 -2 2 -6q0 -2 -2 -4t-6 -2h-40q-9 0 -13 6l-60 82q-1 2 -3 2t-3 -2l-61 -82q-4 -6 -13 -6h-40zM449 842q-6 0 -8 3.5t1 8.5l60 109q3 7 12 7h45q6 0 7.5 -3.5t-1.5 -8.5l-68 -109q-5 -7 -12 -7h-36z" />
    <glyph glyph-name="uni1EBF" unicode="&#x1ebf;" horiz-adv-x="533" 
d="M468 338q4 -28 4 -70v-32q0 -10 -10 -10h-323q-4 0 -4 -4q2 -55 6 -71q11 -45 47 -71t92 -26q42 0 74 19t50 54q6 9 14 4l39 -23q8 -5 4 -14q-25 -48 -75 -75.5t-115 -27.5q-71 1 -119 34t-69 92q-18 48 -18 138q0 42 1.5 68.5t7.5 47.5q17 65 68.5 104t124.5 39
q91 0 140 -46t61 -130zM267 452q-49 0 -81.5 -25.5t-42.5 -68.5q-6 -21 -8 -68q0 -4 4 -4h259q4 0 4 4q-2 45 -6 64q-11 45 -44.5 71.5t-84.5 26.5zM149 574q-6 0 -8 3.5t2 8.5l80 108q4 6 13 6h58q9 0 13 -6l81 -108q2 -2 2 -6q0 -2 -2 -4t-6 -2h-40q-9 0 -13 6l-60 82
q-1 2 -3 2t-3 -2l-61 -82q-4 -6 -13 -6h-40zM398 648q-6 0 -8 3.5t1 8.5l60 109q3 7 12 7h45q6 0 7.5 -3.5t-1.5 -8.5l-68 -109q-5 -7 -12 -7h-36z" />
    <glyph glyph-name="uni1EC0" unicode="&#x1ec0;" horiz-adv-x="605" 
d="M547 648q0 -10 -10 -10h-368q-4 0 -4 -4v-247q0 -4 4 -4h258q10 0 10 -10v-42q0 -10 -10 -10h-258q-4 0 -4 -4v-251q0 -4 4 -4h368q10 0 10 -10v-42q0 -10 -10 -10h-433q-10 0 -10 10v680q0 10 10 10h433q10 0 10 -10v-42zM199 768q-6 0 -8 3.5t2 8.5l80 108q4 6 13 6h58
q9 0 13 -6l81 -108q2 -2 2 -6q0 -2 -2 -4t-6 -2h-40q-9 0 -13 6l-60 82q-1 2 -3 2t-3 -2l-61 -82q-4 -6 -13 -6h-40zM480 894q2 -4 2 -6q0 -6 -9 -6h-36q-7 0 -12 7l-68 109q-2 4 -2 6q0 6 8 6h45q9 0 12 -7z" />
    <glyph glyph-name="uni1EC1" unicode="&#x1ec1;" horiz-adv-x="533" 
d="M468 338q4 -28 4 -70v-32q0 -10 -10 -10h-323q-4 0 -4 -4q2 -55 6 -71q11 -45 47 -71t92 -26q42 0 74 19t50 54q6 9 14 4l39 -23q8 -5 4 -14q-25 -48 -75 -75.5t-115 -27.5q-71 1 -119 34t-69 92q-18 48 -18 138q0 42 1.5 68.5t7.5 47.5q17 65 68.5 104t124.5 39
q91 0 140 -46t61 -130zM267 452q-49 0 -81.5 -25.5t-42.5 -68.5q-6 -21 -8 -68q0 -4 4 -4h259q4 0 4 4q-2 45 -6 64q-11 45 -44.5 71.5t-84.5 26.5zM149 574q-6 0 -8 3.5t2 8.5l80 108q4 6 13 6h58q9 0 13 -6l81 -108q2 -2 2 -6q0 -2 -2 -4t-6 -2h-40q-9 0 -13 6l-60 82
q-1 2 -3 2t-3 -2l-61 -82q-4 -6 -13 -6h-40zM430 700q2 -4 2 -6q0 -6 -9 -6h-36q-7 0 -12 7l-68 109q-2 4 -2 6q0 6 8 6h45q9 0 12 -7z" />
    <glyph glyph-name="uni1EC2" unicode="&#x1ec2;" horiz-adv-x="605" 
d="M547 648q0 -10 -10 -10h-368q-4 0 -4 -4v-247q0 -4 4 -4h258q10 0 10 -10v-42q0 -10 -10 -10h-258q-4 0 -4 -4v-251q0 -4 4 -4h368q10 0 10 -10v-42q0 -10 -10 -10h-433q-10 0 -10 10v680q0 10 10 10h433q10 0 10 -10v-42zM199 768q-6 0 -8 3.5t2 8.5l80 108q4 6 13 6h58
q9 0 13 -6l81 -108q2 -2 2 -6q0 -2 -2 -4t-6 -2h-40q-9 0 -13 6l-60 82q-1 2 -3 2t-3 -2l-61 -82q-4 -6 -13 -6h-40zM425 868q-5 1 -7 4.5t0 7.5q7 15 16 27t18 21q13 12 19 22t6 25q0 14 -12.5 25t-29.5 11t-28.5 -8t-25.5 -28q-6 -8 -14 -2l-16 10q-8 6 -3 14
q19 29 38 41.5t51 12.5q37 0 60.5 -21t23.5 -55q0 -22 -9 -36.5t-28 -34.5q-21 -19 -28 -34q-4 -7 -13 -6z" />
    <glyph glyph-name="uni1EC3" unicode="&#x1ec3;" horiz-adv-x="533" 
d="M468 338q4 -28 4 -70v-32q0 -10 -10 -10h-323q-4 0 -4 -4q2 -55 6 -71q11 -45 47 -71t92 -26q42 0 74 19t50 54q6 9 14 4l39 -23q8 -5 4 -14q-25 -48 -75 -75.5t-115 -27.5q-71 1 -119 34t-69 92q-18 48 -18 138q0 42 1.5 68.5t7.5 47.5q17 65 68.5 104t124.5 39
q91 0 140 -46t61 -130zM267 452q-49 0 -81.5 -25.5t-42.5 -68.5q-6 -21 -8 -68q0 -4 4 -4h259q4 0 4 4q-2 45 -6 64q-11 45 -44.5 71.5t-84.5 26.5zM149 574q-6 0 -8 3.5t2 8.5l80 108q4 6 13 6h58q9 0 13 -6l81 -108q2 -2 2 -6q0 -2 -2 -4t-6 -2h-40q-9 0 -13 6l-60 82
q-1 2 -3 2t-3 -2l-61 -82q-4 -6 -13 -6h-40zM375 674q-5 1 -7 4.5t0 7.5q7 15 16 27t18 21q13 12 19 22t6 25q0 14 -12.5 25t-29.5 11t-28.5 -8t-25.5 -28q-6 -8 -14 -2l-16 10q-8 6 -3 14q19 29 38 41.5t51 12.5q37 0 60.5 -21t23.5 -55q0 -22 -9 -36.5t-28 -34.5
q-21 -19 -28 -34q-4 -7 -13 -6z" />
    <glyph glyph-name="uni1EC4" unicode="&#x1ec4;" horiz-adv-x="605" 
d="M547 648q0 -10 -10 -10h-368q-4 0 -4 -4v-247q0 -4 4 -4h258q10 0 10 -10v-42q0 -10 -10 -10h-258q-4 0 -4 -4v-251q0 -4 4 -4h368q10 0 10 -10v-42q0 -10 -10 -10h-433q-10 0 -10 10v680q0 10 10 10h433q10 0 10 -10v-42zM199 768q-6 0 -8 3.5t2 8.5l80 108q4 6 13 6h58
q9 0 13 -6l81 -108q2 -2 2 -6q0 -2 -2 -4t-6 -2h-40q-9 0 -13 6l-60 82q-1 2 -3 2t-3 -2l-61 -82q-4 -6 -13 -6h-40zM379 925q-19 0 -33 6t-29 16q-18 11 -28 15t-22 4q-18 0 -30.5 -5.5t-24.5 -19.5q-6 -9 -14 -2l-18 18q-7 7 -2 14q33 49 86 49q16 0 28.5 -5t23 -10.5
t13.5 -7.5q4 -2 14.5 -8t19 -9t16.5 -3q33 0 53 28q6 10 14 2l18 -17q7 -7 1 -15q-14 -24 -37.5 -37t-48.5 -13z" />
    <glyph glyph-name="uni1EC5" unicode="&#x1ec5;" horiz-adv-x="533" 
d="M468 338q4 -28 4 -70v-32q0 -10 -10 -10h-323q-4 0 -4 -4q2 -55 6 -71q11 -45 47 -71t92 -26q42 0 74 19t50 54q6 9 14 4l39 -23q8 -5 4 -14q-25 -48 -75 -75.5t-115 -27.5q-71 1 -119 34t-69 92q-18 48 -18 138q0 42 1.5 68.5t7.5 47.5q17 65 68.5 104t124.5 39
q91 0 140 -46t61 -130zM267 452q-49 0 -81.5 -25.5t-42.5 -68.5q-6 -21 -8 -68q0 -4 4 -4h259q4 0 4 4q-2 45 -6 64q-11 45 -44.5 71.5t-84.5 26.5zM149 574q-6 0 -8 3.5t2 8.5l80 108q4 6 13 6h58q9 0 13 -6l81 -108q2 -2 2 -6q0 -2 -2 -4t-6 -2h-40q-9 0 -13 6l-60 82
q-1 2 -3 2t-3 -2l-61 -82q-4 -6 -13 -6h-40zM329 731q-19 0 -33 6t-29 16q-18 11 -28 15t-22 4q-18 0 -30.5 -5.5t-24.5 -19.5q-6 -9 -14 -2l-18 18q-7 7 -2 14q33 49 86 49q16 0 28.5 -5t23 -10.5t13.5 -7.5q4 -2 14.5 -8t19 -9t16.5 -3q33 0 53 28q6 10 14 2l18 -17
q7 -7 1 -15q-14 -24 -37.5 -37t-48.5 -13z" />
    <glyph glyph-name="uni1EC6" unicode="&#x1ec6;" horiz-adv-x="605" 
d="M547 648q0 -10 -10 -10h-368q-4 0 -4 -4v-247q0 -4 4 -4h258q10 0 10 -10v-42q0 -10 -10 -10h-258q-4 0 -4 -4v-251q0 -4 4 -4h368q10 0 10 -10v-42q0 -10 -10 -10h-433q-10 0 -10 10v680q0 10 10 10h433q10 0 10 -10v-42zM322 -184q-23 0 -38 15t-15 38t15 38t38 15
t38 -15t15 -38t-15.5 -38t-37.5 -15zM199 768q-6 0 -8 3.5t2 8.5l80 108q4 6 13 6h58q9 0 13 -6l81 -108q2 -2 2 -6q0 -2 -2 -4t-6 -2h-40q-9 0 -13 6l-60 82q-1 2 -3 2t-3 -2l-61 -82q-4 -6 -13 -6h-40z" />
    <glyph glyph-name="uni1EC7" unicode="&#x1ec7;" horiz-adv-x="533" 
d="M468 338q4 -28 4 -70v-32q0 -10 -10 -10h-323q-4 0 -4 -4q2 -55 6 -71q11 -45 47 -71t92 -26q42 0 74 19t50 54q6 9 14 4l39 -23q8 -5 4 -14q-25 -48 -75 -75.5t-115 -27.5q-71 1 -119 34t-69 92q-18 48 -18 138q0 42 1.5 68.5t7.5 47.5q17 65 68.5 104t124.5 39
q91 0 140 -46t61 -130zM267 452q-49 0 -81.5 -25.5t-42.5 -68.5q-6 -21 -8 -68q0 -4 4 -4h259q4 0 4 4q-2 45 -6 64q-11 45 -44.5 71.5t-84.5 26.5zM271 -193q-23 0 -38 15t-15 38t15 38t38 15t38 -15t15 -38t-15.5 -38t-37.5 -15zM149 574q-6 0 -8 3.5t2 8.5l80 108
q4 6 13 6h58q9 0 13 -6l81 -108q2 -2 2 -6q0 -2 -2 -4t-6 -2h-40q-9 0 -13 6l-60 82q-1 2 -3 2t-3 -2l-61 -82q-4 -6 -13 -6h-40z" />
    <glyph glyph-name="uni1EC8" unicode="&#x1ec8;" horiz-adv-x="259" 
d="M104 0q-10 0 -10 10v680q0 10 10 10h51q10 0 10 -10v-680q0 -10 -10 -10h-51zM122 748q-5 1 -7 4.5t0 7.5q7 15 16 27t18 21q13 12 19 22t6 25q0 14 -12.5 25t-29.5 11t-28.5 -8t-25.5 -28q-6 -8 -14 -2l-16 10q-8 6 -3 14q19 29 38 41.5t51 12.5q37 0 60.5 -21t23.5 -55
q0 -22 -9 -36.5t-28 -34.5q-21 -19 -28 -34q-4 -7 -13 -6z" />
    <glyph glyph-name="uni1EC9" unicode="&#x1ec9;" horiz-adv-x="212" 
d="M80 0q-10 0 -10 10v486q0 10 10 10h51q10 0 10 -10v-486q0 -10 -10 -10h-51zM99 554q-5 1 -7 4.5t0 7.5q7 15 16 27t18 21q13 12 19 22t6 25q0 14 -12.5 25t-29.5 11t-28.5 -8t-25.5 -28q-6 -8 -14 -2l-16 10q-8 6 -3 14q19 29 38 41.5t51 12.5q37 0 60.5 -21t23.5 -55
q0 -22 -9 -36.5t-28 -34.5q-21 -19 -28 -34q-4 -7 -13 -6z" />
    <glyph glyph-name="uni1ECA" unicode="&#x1eca;" horiz-adv-x="259" 
d="M104 0q-10 0 -10 10v680q0 10 10 10h51q10 0 10 -10v-680q0 -10 -10 -10h-51zM130 -184q-23 0 -38 15t-15 38t15 38t38 15t38 -15t15 -38t-15.5 -38t-37.5 -15z" />
    <glyph glyph-name="uni1ECB" unicode="&#x1ecb;" horiz-adv-x="255" 
d="M128 598q-24 0 -40 16t-16 40q0 25 16 40.5t40 15.5t40 -15.5t16 -40.5q0 -24 -16 -40t-40 -16zM100 1q-10 0 -10 10v486q0 10 10 10h51q10 0 10 -10v-486q0 -10 -10 -10h-51zM128 -184q-23 0 -38 15t-15 38t15 38t38 15t38 -15t15 -38t-15.5 -38t-37.5 -15z" />
    <glyph glyph-name="uni1ECC" unicode="&#x1ecc;" horiz-adv-x="622" 
d="M310 -8q-71 0 -125 29t-83.5 81.5t-29.5 121.5v252q0 69 29.5 121.5t83.5 81.5t125 29t125.5 -29t84 -81.5t29.5 -121.5v-252q0 -69 -29.5 -121.5t-84 -81.5t-125.5 -29zM310 53q76 0 122 46t46 122v256q0 76 -46 122.5t-122 46.5q-75 0 -121 -46.5t-46 -122.5v-256
q0 -76 46 -122t121 -46zM312 -184q-23 0 -38 15t-15 38t15 38t38 15t38 -15t15 -38t-15.5 -38t-37.5 -15z" />
    <glyph glyph-name="uni1ECD" unicode="&#x1ecd;" horiz-adv-x="536" 
d="M273 -8q-72 0 -124 37t-72 102q-14 46 -14 123t14 122q19 64 71 101t126 37q71 0 122.5 -37t70.5 -100q14 -43 14 -123q0 -81 -14 -123q-19 -65 -70.5 -102t-123.5 -37zM273 54q48 0 82 26.5t46 71.5q9 36 9 101q0 66 -8 101q-12 45 -46.5 71.5t-83.5 26.5t-83 -26.5
t-46 -71.5q-8 -35 -8 -101t8 -101q11 -45 45.5 -71.5t84.5 -26.5zM269 -184q-23 0 -38 15t-15 38t15 38t38 15t38 -15t15 -38t-15.5 -38t-37.5 -15z" />
    <glyph glyph-name="uni1ECE" unicode="&#x1ece;" horiz-adv-x="622" 
d="M310 -8q-71 0 -125 29t-83.5 81.5t-29.5 121.5v252q0 69 29.5 121.5t83.5 81.5t125 29t125.5 -29t84 -81.5t29.5 -121.5v-252q0 -69 -29.5 -121.5t-84 -81.5t-125.5 -29zM310 53q76 0 122 46t46 122v256q0 76 -46 122.5t-122 46.5q-75 0 -121 -46.5t-46 -122.5v-256
q0 -76 46 -122t121 -46zM303 748q-5 1 -7 4.5t0 7.5q7 15 16 27t18 21q13 12 19 22t6 25q0 14 -12.5 25t-29.5 11t-28.5 -8t-25.5 -28q-6 -8 -14 -2l-16 10q-8 6 -3 14q19 29 38 41.5t51 12.5q37 0 60.5 -21t23.5 -55q0 -22 -9 -36.5t-28 -34.5q-21 -19 -28 -34
q-4 -7 -13 -6z" />
    <glyph glyph-name="uni1ECF" unicode="&#x1ecf;" horiz-adv-x="536" 
d="M273 -8q-72 0 -124 37t-72 102q-14 46 -14 123t14 122q19 64 71 101t126 37q71 0 122.5 -37t70.5 -100q14 -43 14 -123q0 -81 -14 -123q-19 -65 -70.5 -102t-123.5 -37zM273 54q48 0 82 26.5t46 71.5q9 36 9 101q0 66 -8 101q-12 45 -46.5 71.5t-83.5 26.5t-83 -26.5
t-46 -71.5q-8 -35 -8 -101t8 -101q11 -45 45.5 -71.5t84.5 -26.5zM260 554q-5 1 -7 4.5t0 7.5q7 15 16 27t18 21q13 12 19 22t6 25q0 14 -12.5 25t-29.5 11t-28.5 -8t-25.5 -28q-6 -8 -14 -2l-16 10q-8 6 -3 14q19 29 38 41.5t51 12.5q37 0 60.5 -21t23.5 -55
q0 -22 -9 -36.5t-28 -34.5q-21 -19 -28 -34q-4 -7 -13 -6z" />
    <glyph glyph-name="uni1ED0" unicode="&#x1ed0;" horiz-adv-x="622" 
d="M310 -8q-71 0 -125 29t-83.5 81.5t-29.5 121.5v252q0 69 29.5 121.5t83.5 81.5t125 29t125.5 -29t84 -81.5t29.5 -121.5v-252q0 -69 -29.5 -121.5t-84 -81.5t-125.5 -29zM310 53q76 0 122 46t46 122v256q0 76 -46 122.5t-122 46.5q-75 0 -121 -46.5t-46 -122.5v-256
q0 -76 46 -122t121 -46zM193 768q-6 0 -8 3.5t2 8.5l80 108q4 6 13 6h58q9 0 13 -6l81 -108q2 -2 2 -6q0 -2 -2 -4t-6 -2h-40q-9 0 -13 6l-60 82q-1 2 -3 2t-3 -2l-61 -82q-4 -6 -13 -6h-40zM442 842q-6 0 -8 3.5t1 8.5l60 109q3 7 12 7h45q6 0 7.5 -3.5t-1.5 -8.5l-68 -109
q-5 -7 -12 -7h-36z" />
    <glyph glyph-name="uni1ED1" unicode="&#x1ed1;" horiz-adv-x="536" 
d="M273 -8q-72 0 -124 37t-72 102q-14 46 -14 123t14 122q19 64 71 101t126 37q71 0 122.5 -37t70.5 -100q14 -43 14 -123q0 -81 -14 -123q-19 -65 -70.5 -102t-123.5 -37zM273 54q48 0 82 26.5t46 71.5q9 36 9 101q0 66 -8 101q-12 45 -46.5 71.5t-83.5 26.5t-83 -26.5
t-46 -71.5q-8 -35 -8 -101t8 -101q11 -45 45.5 -71.5t84.5 -26.5zM151 574q-6 0 -8 3.5t2 8.5l80 108q4 6 13 6h58q9 0 13 -6l81 -108q2 -2 2 -6q0 -2 -2 -4t-6 -2h-40q-9 0 -13 6l-60 82q-1 2 -3 2t-3 -2l-61 -82q-4 -6 -13 -6h-40zM400 648q-6 0 -8 3.5t1 8.5l60 109
q3 7 12 7h45q6 0 7.5 -3.5t-1.5 -8.5l-68 -109q-5 -7 -12 -7h-36z" />
    <glyph glyph-name="uni1ED2" unicode="&#x1ed2;" horiz-adv-x="622" 
d="M310 -8q-71 0 -125 29t-83.5 81.5t-29.5 121.5v252q0 69 29.5 121.5t83.5 81.5t125 29t125.5 -29t84 -81.5t29.5 -121.5v-252q0 -69 -29.5 -121.5t-84 -81.5t-125.5 -29zM310 53q76 0 122 46t46 122v256q0 76 -46 122.5t-122 46.5q-75 0 -121 -46.5t-46 -122.5v-256
q0 -76 46 -122t121 -46zM193 768q-6 0 -8 3.5t2 8.5l80 108q4 6 13 6h58q9 0 13 -6l81 -108q2 -2 2 -6q0 -2 -2 -4t-6 -2h-40q-9 0 -13 6l-60 82q-1 2 -3 2t-3 -2l-61 -82q-4 -6 -13 -6h-40zM474 894q2 -4 2 -6q0 -6 -9 -6h-36q-7 0 -12 7l-68 109q-2 4 -2 6q0 6 8 6h45
q9 0 12 -7z" />
    <glyph glyph-name="uni1ED3" unicode="&#x1ed3;" horiz-adv-x="536" 
d="M273 -8q-72 0 -124 37t-72 102q-14 46 -14 123t14 122q19 64 71 101t126 37q71 0 122.5 -37t70.5 -100q14 -43 14 -123q0 -81 -14 -123q-19 -65 -70.5 -102t-123.5 -37zM273 54q48 0 82 26.5t46 71.5q9 36 9 101q0 66 -8 101q-12 45 -46.5 71.5t-83.5 26.5t-83 -26.5
t-46 -71.5q-8 -35 -8 -101t8 -101q11 -45 45.5 -71.5t84.5 -26.5zM151 574q-6 0 -8 3.5t2 8.5l80 108q4 6 13 6h58q9 0 13 -6l81 -108q2 -2 2 -6q0 -2 -2 -4t-6 -2h-40q-9 0 -13 6l-60 82q-1 2 -3 2t-3 -2l-61 -82q-4 -6 -13 -6h-40zM432 700q2 -4 2 -6q0 -6 -9 -6h-36
q-7 0 -12 7l-68 109q-2 4 -2 6q0 6 8 6h45q9 0 12 -7z" />
    <glyph glyph-name="uni1ED4" unicode="&#x1ed4;" horiz-adv-x="622" 
d="M310 -8q-71 0 -125 29t-83.5 81.5t-29.5 121.5v252q0 69 29.5 121.5t83.5 81.5t125 29t125.5 -29t84 -81.5t29.5 -121.5v-252q0 -69 -29.5 -121.5t-84 -81.5t-125.5 -29zM310 53q76 0 122 46t46 122v256q0 76 -46 122.5t-122 46.5q-75 0 -121 -46.5t-46 -122.5v-256
q0 -76 46 -122t121 -46zM193 768q-6 0 -8 3.5t2 8.5l80 108q4 6 13 6h58q9 0 13 -6l81 -108q2 -2 2 -6q0 -2 -2 -4t-6 -2h-40q-9 0 -13 6l-60 82q-1 2 -3 2t-3 -2l-61 -82q-4 -6 -13 -6h-40zM419 868q-5 1 -7 4.5t0 7.5q7 15 16 27t18 21q13 12 19 22t6 25q0 14 -12.5 25
t-29.5 11t-28.5 -8t-25.5 -28q-6 -8 -14 -2l-16 10q-8 6 -3 14q19 29 38 41.5t51 12.5q37 0 60.5 -21t23.5 -55q0 -22 -9 -36.5t-28 -34.5q-21 -19 -28 -34q-4 -7 -13 -6z" />
    <glyph glyph-name="uni1ED5" unicode="&#x1ed5;" horiz-adv-x="536" 
d="M273 -8q-72 0 -124 37t-72 102q-14 46 -14 123t14 122q19 64 71 101t126 37q71 0 122.5 -37t70.5 -100q14 -43 14 -123q0 -81 -14 -123q-19 -65 -70.5 -102t-123.5 -37zM273 54q48 0 82 26.5t46 71.5q9 36 9 101q0 66 -8 101q-12 45 -46.5 71.5t-83.5 26.5t-83 -26.5
t-46 -71.5q-8 -35 -8 -101t8 -101q11 -45 45.5 -71.5t84.5 -26.5zM151 574q-6 0 -8 3.5t2 8.5l80 108q4 6 13 6h58q9 0 13 -6l81 -108q2 -2 2 -6q0 -2 -2 -4t-6 -2h-40q-9 0 -13 6l-60 82q-1 2 -3 2t-3 -2l-61 -82q-4 -6 -13 -6h-40zM377 674q-5 1 -7 4.5t0 7.5q7 15 16 27
t18 21q13 12 19 22t6 25q0 14 -12.5 25t-29.5 11t-28.5 -8t-25.5 -28q-6 -8 -14 -2l-16 10q-8 6 -3 14q19 29 38 41.5t51 12.5q37 0 60.5 -21t23.5 -55q0 -22 -9 -36.5t-28 -34.5q-21 -19 -28 -34q-4 -7 -13 -6z" />
    <glyph glyph-name="uni1ED6" unicode="&#x1ed6;" horiz-adv-x="622" 
d="M310 -8q-71 0 -125 29t-83.5 81.5t-29.5 121.5v252q0 69 29.5 121.5t83.5 81.5t125 29t125.5 -29t84 -81.5t29.5 -121.5v-252q0 -69 -29.5 -121.5t-84 -81.5t-125.5 -29zM310 53q76 0 122 46t46 122v256q0 76 -46 122.5t-122 46.5q-75 0 -121 -46.5t-46 -122.5v-256
q0 -76 46 -122t121 -46zM193 768q-6 0 -8 3.5t2 8.5l80 108q4 6 13 6h58q9 0 13 -6l81 -108q2 -2 2 -6q0 -2 -2 -4t-6 -2h-40q-9 0 -13 6l-60 82q-1 2 -3 2t-3 -2l-61 -82q-4 -6 -13 -6h-40zM373 925q-19 0 -33 6t-29 16q-18 11 -28 15t-22 4q-18 0 -30.5 -5.5t-24.5 -19.5
q-6 -9 -14 -2l-18 18q-7 7 -2 14q33 49 86 49q16 0 28.5 -5t23 -10.5t13.5 -7.5q4 -2 14.5 -8t19 -9t16.5 -3q33 0 53 28q6 10 14 2l18 -17q7 -7 1 -15q-14 -24 -37.5 -37t-48.5 -13z" />
    <glyph glyph-name="uni1ED7" unicode="&#x1ed7;" horiz-adv-x="536" 
d="M273 -8q-72 0 -124 37t-72 102q-14 46 -14 123t14 122q19 64 71 101t126 37q71 0 122.5 -37t70.5 -100q14 -43 14 -123q0 -81 -14 -123q-19 -65 -70.5 -102t-123.5 -37zM273 54q48 0 82 26.5t46 71.5q9 36 9 101q0 66 -8 101q-12 45 -46.5 71.5t-83.5 26.5t-83 -26.5
t-46 -71.5q-8 -35 -8 -101t8 -101q11 -45 45.5 -71.5t84.5 -26.5zM151 574q-6 0 -8 3.5t2 8.5l80 108q4 6 13 6h58q9 0 13 -6l81 -108q2 -2 2 -6q0 -2 -2 -4t-6 -2h-40q-9 0 -13 6l-60 82q-1 2 -3 2t-3 -2l-61 -82q-4 -6 -13 -6h-40zM331 731q-19 0 -33 6t-29 16
q-18 11 -28 15t-22 4q-18 0 -30.5 -5.5t-24.5 -19.5q-6 -9 -14 -2l-18 18q-7 7 -2 14q33 49 86 49q16 0 28.5 -5t23 -10.5t13.5 -7.5q4 -2 14.5 -8t19 -9t16.5 -3q33 0 53 28q6 10 14 2l18 -17q7 -7 1 -15q-14 -24 -37.5 -37t-48.5 -13z" />
    <glyph glyph-name="uni1ED8" unicode="&#x1ed8;" horiz-adv-x="622" 
d="M310 -8q-71 0 -125 29t-83.5 81.5t-29.5 121.5v252q0 69 29.5 121.5t83.5 81.5t125 29t125.5 -29t84 -81.5t29.5 -121.5v-252q0 -69 -29.5 -121.5t-84 -81.5t-125.5 -29zM310 53q76 0 122 46t46 122v256q0 76 -46 122.5t-122 46.5q-75 0 -121 -46.5t-46 -122.5v-256
q0 -76 46 -122t121 -46zM312 -184q-23 0 -38 15t-15 38t15 38t38 15t38 -15t15 -38t-15.5 -38t-37.5 -15zM193 768q-6 0 -8 3.5t2 8.5l80 108q4 6 13 6h58q9 0 13 -6l81 -108q2 -2 2 -6q0 -2 -2 -4t-6 -2h-40q-9 0 -13 6l-60 82q-1 2 -3 2t-3 -2l-61 -82q-4 -6 -13 -6h-40z
" />
    <glyph glyph-name="uni1ED9" unicode="&#x1ed9;" horiz-adv-x="536" 
d="M273 -8q-72 0 -124 37t-72 102q-14 46 -14 123t14 122q19 64 71 101t126 37q71 0 122.5 -37t70.5 -100q14 -43 14 -123q0 -81 -14 -123q-19 -65 -70.5 -102t-123.5 -37zM273 54q48 0 82 26.5t46 71.5q9 36 9 101q0 66 -8 101q-12 45 -46.5 71.5t-83.5 26.5t-83 -26.5
t-46 -71.5q-8 -35 -8 -101t8 -101q11 -45 45.5 -71.5t84.5 -26.5zM269 -184q-23 0 -38 15t-15 38t15 38t38 15t38 -15t15 -38t-15.5 -38t-37.5 -15zM151 574q-6 0 -8 3.5t2 8.5l80 108q4 6 13 6h58q9 0 13 -6l81 -108q2 -2 2 -6q0 -2 -2 -4t-6 -2h-40q-9 0 -13 6l-60 82
q-1 2 -3 2t-3 -2l-61 -82q-4 -6 -13 -6h-40z" />
    <glyph glyph-name="uni1EDA" unicode="&#x1eda;" horiz-adv-x="622" 
d="M310 -8q-71 0 -125 29t-83.5 81.5t-29.5 121.5v252q0 69 29.5 121.5t83.5 81.5t125 29t125.5 -29t84 -81.5t29.5 -121.5v-252q0 -69 -29.5 -121.5t-84 -81.5t-125.5 -29zM310 53q76 0 122 46t46 122v256q0 76 -46 122.5t-122 46.5q-75 0 -121 -46.5t-46 -122.5v-256
q0 -76 46 -122t121 -46zM512 658q-10 0 -10 10v22q0 10 9 11q26 2 46 20t24 50q0 10 10 10h28q10 0 9 -12q-4 -49 -37.5 -78t-78.5 -33zM277 766q-6 0 -8 3.5t1 8.5l60 109q3 7 12 7h45q6 0 7.5 -3.5t-1.5 -8.5l-68 -109q-5 -7 -12 -7h-36z" />
    <glyph glyph-name="uni1EDB" unicode="&#x1edb;" horiz-adv-x="536" 
d="M467 377q14 -43 14 -123q0 -81 -14 -123q-19 -65 -70.5 -102t-123.5 -37t-124 37t-72 102q-14 46 -14 123t14 122q19 64 71 101t126 37q25 0 58 -7q1 -1 5 -1q27 4 46.5 22t22.5 49q0 10 10 10h28q10 0 10 -10q-3 -32 -18 -56t-39 -38q-4 -3 -1 -6q51 -36 71 -100z
M401 152q9 36 9 101q0 66 -8 101q-12 45 -46.5 71.5t-83.5 26.5t-83 -26.5t-46 -71.5q-8 -35 -8 -101t8 -101q11 -45 45.5 -71.5t84.5 -26.5q48 0 82 26.5t46 71.5zM235 572q-6 0 -8 3.5t1 8.5l60 109q3 7 12 7h45q6 0 7.5 -3.5t-1.5 -8.5l-68 -109q-5 -7 -12 -7h-36z" />
    <glyph glyph-name="uni1EDC" unicode="&#x1edc;" horiz-adv-x="622" 
d="M310 -8q-71 0 -125 29t-83.5 81.5t-29.5 121.5v252q0 69 29.5 121.5t83.5 81.5t125 29t125.5 -29t84 -81.5t29.5 -121.5v-252q0 -69 -29.5 -121.5t-84 -81.5t-125.5 -29zM310 53q76 0 122 46t46 122v256q0 76 -46 122.5t-122 46.5q-75 0 -121 -46.5t-46 -122.5v-256
q0 -76 46 -122t121 -46zM512 658q-10 0 -10 10v22q0 10 9 11q26 2 46 20t24 50q0 10 10 10h28q10 0 9 -12q-4 -49 -37.5 -78t-78.5 -33zM337 778q2 -4 2 -6q0 -6 -9 -6h-36q-7 0 -12 7l-68 109q-2 4 -2 6q0 6 8 6h45q9 0 12 -7z" />
    <glyph glyph-name="uni1EDD" unicode="&#x1edd;" horiz-adv-x="536" 
d="M467 377q14 -43 14 -123q0 -81 -14 -123q-19 -65 -70.5 -102t-123.5 -37t-124 37t-72 102q-14 46 -14 123t14 122q19 64 71 101t126 37q25 0 58 -7q1 -1 5 -1q27 4 46.5 22t22.5 49q0 10 10 10h28q10 0 10 -10q-3 -32 -18 -56t-39 -38q-4 -3 -1 -6q51 -36 71 -100z
M401 152q9 36 9 101q0 66 -8 101q-12 45 -46.5 71.5t-83.5 26.5t-83 -26.5t-46 -71.5q-8 -35 -8 -101t8 -101q11 -45 45.5 -71.5t84.5 -26.5q48 0 82 26.5t46 71.5zM295 584q2 -4 2 -6q0 -6 -9 -6h-36q-7 0 -12 7l-68 109q-2 4 -2 6q0 6 8 6h45q9 0 12 -7z" />
    <glyph glyph-name="uni1EDE" unicode="&#x1ede;" horiz-adv-x="622" 
d="M310 -8q-71 0 -125 29t-83.5 81.5t-29.5 121.5v252q0 69 29.5 121.5t83.5 81.5t125 29t125.5 -29t84 -81.5t29.5 -121.5v-252q0 -69 -29.5 -121.5t-84 -81.5t-125.5 -29zM310 53q76 0 122 46t46 122v256q0 76 -46 122.5t-122 46.5q-75 0 -121 -46.5t-46 -122.5v-256
q0 -76 46 -122t121 -46zM512 658q-10 0 -10 10v22q0 10 9 11q26 2 46 20t24 50q0 10 10 10h28q10 0 9 -12q-4 -49 -37.5 -78t-78.5 -33zM303 748q-5 1 -7 4.5t0 7.5q7 15 16 27t18 21q13 12 19 22t6 25q0 14 -12.5 25t-29.5 11t-28.5 -8t-25.5 -28q-6 -8 -14 -2l-16 10
q-8 6 -3 14q19 29 38 41.5t51 12.5q37 0 60.5 -21t23.5 -55q0 -22 -9 -36.5t-28 -34.5q-21 -19 -28 -34q-4 -7 -13 -6z" />
    <glyph glyph-name="uni1EDF" unicode="&#x1edf;" horiz-adv-x="536" 
d="M467 377q14 -43 14 -123q0 -81 -14 -123q-19 -65 -70.5 -102t-123.5 -37t-124 37t-72 102q-14 46 -14 123t14 122q19 64 71 101t126 37q25 0 58 -7q1 -1 5 -1q27 4 46.5 22t22.5 49q0 10 10 10h28q10 0 10 -10q-3 -32 -18 -56t-39 -38q-4 -3 -1 -6q51 -36 71 -100z
M401 152q9 36 9 101q0 66 -8 101q-12 45 -46.5 71.5t-83.5 26.5t-83 -26.5t-46 -71.5q-8 -35 -8 -101t8 -101q11 -45 45.5 -71.5t84.5 -26.5q48 0 82 26.5t46 71.5zM260 554q-5 1 -7 4.5t0 7.5q7 15 16 27t18 21q13 12 19 22t6 25q0 14 -12.5 25t-29.5 11t-28.5 -8
t-25.5 -28q-6 -8 -14 -2l-16 10q-8 6 -3 14q19 29 38 41.5t51 12.5q37 0 60.5 -21t23.5 -55q0 -22 -9 -36.5t-28 -34.5q-21 -19 -28 -34q-4 -7 -13 -6z" />
    <glyph glyph-name="uni1EE0" unicode="&#x1ee0;" horiz-adv-x="622" 
d="M310 -8q-71 0 -125 29t-83.5 81.5t-29.5 121.5v252q0 69 29.5 121.5t83.5 81.5t125 29t125.5 -29t84 -81.5t29.5 -121.5v-252q0 -69 -29.5 -121.5t-84 -81.5t-125.5 -29zM310 53q76 0 122 46t46 122v256q0 76 -46 122.5t-122 46.5q-75 0 -121 -46.5t-46 -122.5v-256
q0 -76 46 -122t121 -46zM512 658q-10 0 -10 10v22q0 10 9 11q26 2 46 20t24 50q0 10 10 10h28q10 0 9 -12q-4 -49 -37.5 -78t-78.5 -33zM364 806q-19 0 -33 6t-29 16q-18 11 -28 15t-22 4q-18 0 -30.5 -5.5t-24.5 -19.5q-6 -9 -14 -2l-18 18q-7 7 -2 14q33 49 86 49
q16 0 28.5 -5t23 -10.5t13.5 -7.5q4 -2 14.5 -8t19 -9t16.5 -3q33 0 53 28q6 10 14 2l18 -17q7 -7 1 -15q-14 -24 -37.5 -37t-48.5 -13z" />
    <glyph glyph-name="uni1EE1" unicode="&#x1ee1;" horiz-adv-x="536" 
d="M467 377q14 -43 14 -123q0 -81 -14 -123q-19 -65 -70.5 -102t-123.5 -37t-124 37t-72 102q-14 46 -14 123t14 122q19 64 71 101t126 37q25 0 58 -7q1 -1 5 -1q27 4 46.5 22t22.5 49q0 10 10 10h28q10 0 10 -10q-3 -32 -18 -56t-39 -38q-4 -3 -1 -6q51 -36 71 -100z
M401 152q9 36 9 101q0 66 -8 101q-12 45 -46.5 71.5t-83.5 26.5t-83 -26.5t-46 -71.5q-8 -35 -8 -101t8 -101q11 -45 45.5 -71.5t84.5 -26.5q48 0 82 26.5t46 71.5zM318 607q-19 0 -33 6t-29 16q-18 11 -28 15t-22 4q-18 0 -30.5 -5.5t-24.5 -19.5q-6 -9 -14 -2l-18 18
q-7 7 -2 14q33 49 86 49q16 0 28.5 -5t23 -10.5t13.5 -7.5q4 -2 14.5 -8t19 -9t16.5 -3q33 0 53 28q6 10 14 2l18 -17q7 -7 1 -15q-14 -24 -37.5 -37t-48.5 -13z" />
    <glyph glyph-name="uni1EE2" unicode="&#x1ee2;" horiz-adv-x="622" 
d="M310 -8q-71 0 -125 29t-83.5 81.5t-29.5 121.5v252q0 69 29.5 121.5t83.5 81.5t125 29t125.5 -29t84 -81.5t29.5 -121.5v-252q0 -69 -29.5 -121.5t-84 -81.5t-125.5 -29zM310 53q76 0 122 46t46 122v256q0 76 -46 122.5t-122 46.5q-75 0 -121 -46.5t-46 -122.5v-256
q0 -76 46 -122t121 -46zM512 658q-10 0 -10 10v22q0 10 9 11q26 2 46 20t24 50q0 10 10 10h28q10 0 9 -12q-4 -49 -37.5 -78t-78.5 -33zM312 -184q-23 0 -38 15t-15 38t15 38t38 15t38 -15t15 -38t-15.5 -38t-37.5 -15z" />
    <glyph glyph-name="uni1EE3" unicode="&#x1ee3;" horiz-adv-x="536" 
d="M467 377q14 -43 14 -123q0 -81 -14 -123q-19 -65 -70.5 -102t-123.5 -37t-124 37t-72 102q-14 46 -14 123t14 122q19 64 71 101t126 37q25 0 58 -7q1 -1 5 -1q27 4 46.5 22t22.5 49q0 10 10 10h28q10 0 10 -10q-3 -32 -18 -56t-39 -38q-4 -3 -1 -6q51 -36 71 -100z
M401 152q9 36 9 101q0 66 -8 101q-12 45 -46.5 71.5t-83.5 26.5t-83 -26.5t-46 -71.5q-8 -35 -8 -101t8 -101q11 -45 45.5 -71.5t84.5 -26.5q48 0 82 26.5t46 71.5zM269 -184q-23 0 -38 15t-15 38t15 38t38 15t38 -15t15 -38t-15.5 -38t-37.5 -15z" />
    <glyph glyph-name="uni1EE4" unicode="&#x1ee4;" horiz-adv-x="648" 
d="M324 -8q-70 0 -124 28t-84 78.5t-30 117.5v474q0 10 10 10h51q10 0 10 -10v-476q0 -71 46 -115.5t121 -44.5t121 44.5t46 115.5v476q0 10 10 10h51q10 0 10 -10v-474q0 -67 -29.5 -117.5t-83.5 -78.5t-125 -28zM326 -184q-23 0 -38 15t-15 38t15 38t38 15t38 -15t15 -38
t-15.5 -38t-37.5 -15z" />
    </font>
</defs>
</svg>
