<svg width="37" height="37" viewBox="0 0 37 37" fill="none" xmlns="http://www.w3.org/2000/svg">
<g clip-path="url(#clip0_18080_1724)">
<path fill-rule="evenodd" clip-rule="evenodd" d="M5.55874 27.1182H1.76391C1.68467 27.1182 1.60631 27.1016 1.53393 27.0693C1.46155 27.037 1.39678 26.9899 1.34382 26.9309C1.29086 26.872 1.2509 26.8025 1.22655 26.7271C1.20219 26.6517 1.19398 26.572 1.20245 26.4932C1.72459 21.6311 5.23114 17.662 9.85318 16.4572C7.93347 15.407 6.62695 13.3666 6.62695 11.0314C6.62695 7.62896 9.4005 4.85237 12.803 4.85237C16.2086 4.85237 18.9819 7.62903 18.9819 11.0314C18.9819 13.3667 17.6754 15.4072 15.7546 16.4574C19.9765 17.5577 23.2665 20.9629 24.2018 25.2481H25.2261L26.3163 21.8929C26.3755 21.7106 26.4909 21.5518 26.6459 21.4392C26.8009 21.3266 26.9876 21.2659 27.1792 21.2659C27.3708 21.2659 27.5575 21.3266 27.7125 21.4392C27.8675 21.5518 27.9829 21.7106 28.0421 21.8929L29.1322 25.2481H32.6602C32.8518 25.2481 33.0384 25.3088 33.1934 25.4214C33.3484 25.534 33.4638 25.6928 33.523 25.875C33.5822 26.0572 33.5822 26.2535 33.523 26.4357C33.4638 26.618 33.3485 26.7768 33.1935 26.8894L30.3393 28.9631L31.4295 32.3184C31.4888 32.5006 31.4888 32.6969 31.4295 32.8791C31.3703 33.0613 31.255 33.2201 31.1 33.3328C30.9449 33.4454 30.7583 33.506 30.5667 33.506C30.3751 33.506 30.1884 33.4454 30.0334 33.3327L27.1792 31.2591L24.325 33.3327C24.17 33.4454 23.9834 33.506 23.7918 33.506C23.6002 33.506 23.4135 33.4454 23.2585 33.3328C23.1035 33.2201 22.9881 33.0613 22.9289 32.8791C22.8697 32.6969 22.8697 32.5006 22.9289 32.3184L24.019 28.9631L21.4798 27.1182H20.0472C20.1062 27.1712 20.1534 27.236 20.1857 27.3084C20.2181 27.3809 20.2348 27.4593 20.2347 27.5386V29.3967C20.2347 29.5108 20.2002 29.6222 20.1356 29.7163C20.071 29.8104 19.9794 29.8827 19.8729 29.9237L19.0048 30.2578C18.8713 30.7193 18.6867 31.1644 18.4544 31.585L18.8317 32.4368C18.8778 32.5411 18.8914 32.6569 18.8705 32.769C18.8496 32.8811 18.7953 32.9842 18.7147 33.0649L17.4011 34.3784C17.3205 34.459 17.2173 34.5133 17.1052 34.5342C16.9931 34.5551 16.8774 34.5416 16.7731 34.4954L15.9222 34.1185C15.5016 34.3513 15.056 34.5358 14.594 34.6687L14.2599 35.5366C14.219 35.6431 14.1467 35.7347 14.0526 35.7993C13.9585 35.8639 13.8471 35.8985 13.7329 35.8985H11.8749C11.7608 35.8985 11.6493 35.8639 11.5552 35.7993C11.4612 35.7347 11.3889 35.6431 11.3479 35.5366L11.0139 34.6688C10.5516 34.5354 10.1058 34.3507 9.68469 34.118L8.83283 34.4954C8.72857 34.5416 8.61278 34.5551 8.50068 34.5342C8.38858 34.5133 8.28543 34.459 8.20481 34.3784L6.8913 33.0649C6.81057 32.9841 6.7562 32.8809 6.73535 32.7686C6.71451 32.6564 6.72818 32.5405 6.77455 32.4361C6.77455 32.4361 7.15276 31.5855 7.15283 31.5855C6.92018 31.165 6.73533 30.7197 6.60175 30.258L5.73302 29.9237C5.62653 29.8827 5.53495 29.8104 5.47036 29.7163C5.40577 29.6222 5.37119 29.5108 5.37118 29.3967V27.5386C5.37118 27.375 5.44163 27.2233 5.55874 27.1182ZM12.803 17.2103C7.5837 17.2103 3.2505 21.0064 2.41149 25.9888H6.84358C6.93478 25.7697 7.03806 25.5559 7.15297 25.3482L6.77455 24.4973C6.72818 24.393 6.71451 24.277 6.73535 24.1648C6.7562 24.0526 6.81057 23.9493 6.8913 23.8686L8.20481 22.555C8.28553 22.4743 8.38882 22.4199 8.50107 22.3991C8.61331 22.3782 8.72923 22.3919 8.83354 22.4383L9.68448 22.8167C10.105 22.5841 10.5504 22.3995 11.0122 22.2665L11.348 21.3963C11.3891 21.2899 11.4614 21.1984 11.5554 21.1339C11.6495 21.0694 11.7609 21.0349 11.8749 21.0349H13.7329C13.9666 21.0349 14.1762 21.1789 14.2601 21.3971L14.5942 22.2666C15.0558 22.3996 15.501 22.5841 15.9214 22.8167L16.7724 22.4383C16.8767 22.3919 16.9926 22.3782 17.1049 22.3991C17.2171 22.4199 17.3204 22.4743 17.4011 22.555L18.7147 23.8686C18.7953 23.9492 18.8496 24.0523 18.8705 24.1644C18.8914 24.2765 18.8778 24.3923 18.8317 24.4966L18.4546 25.3478C18.5695 25.5556 18.6728 25.7696 18.764 25.9888H20.8063C20.8452 25.7807 20.9556 25.5927 21.1185 25.4575C21.2814 25.3222 21.4864 25.2481 21.6982 25.2481H23.0428C21.9213 20.635 17.7629 17.2103 12.803 17.2103ZM22.3819 26.3775L24.8135 28.1442C24.9685 28.2568 25.0839 28.4156 25.1431 28.5979C25.2023 28.7801 25.2023 28.9764 25.1431 29.1586L24.2143 32.0172L26.6459 30.2505C26.8009 30.1379 26.9876 30.0772 27.1792 30.0772C27.3708 30.0772 27.5575 30.1378 27.7125 30.2504L30.1441 32.0172L29.2153 29.1586C29.1561 28.9764 29.1561 28.7801 29.2153 28.5979C29.2745 28.4156 29.3899 28.2568 29.5449 28.1442L31.9765 26.3775H28.9709C28.7793 26.3775 28.5926 26.3169 28.4376 26.2043C28.2826 26.0917 28.1672 25.9329 28.108 25.7507L27.1792 22.8921L26.2504 25.7507C26.1912 25.9329 26.0758 26.0917 25.9208 26.2043C25.7658 26.3169 25.5791 26.3775 25.3875 26.3775H22.3819ZM12.803 16.0809C15.5861 16.0809 17.8525 13.8119 17.8525 11.0314C17.8525 8.25091 15.5861 5.98178 12.803 5.98178C10.0226 5.98178 7.75636 8.25098 7.75636 11.0314C7.75636 13.8117 10.0226 16.0809 12.803 16.0809ZM13.6436 22.9417L13.345 22.1643H12.2623L11.962 22.9424C11.929 23.028 11.8757 23.1041 11.8066 23.1644C11.7376 23.2247 11.6549 23.2673 11.5657 23.2885C11.0181 23.4186 10.4947 23.6355 10.0155 23.9309C9.93738 23.9791 9.84867 24.0074 9.75707 24.0136C9.66547 24.0197 9.57376 24.0035 9.48987 23.9662L8.72914 23.6279L7.96417 24.3929L8.30243 25.1536C8.33973 25.2375 8.35602 25.3292 8.34988 25.4208C8.34374 25.5124 8.31537 25.6011 8.26721 25.6793C7.9714 26.1596 7.75384 26.6839 7.62267 27.2325C7.60129 27.3215 7.55861 27.404 7.49828 27.4729C7.43795 27.5417 7.36179 27.5949 7.27636 27.6278L6.5006 27.9263V29.0089L7.27636 29.3075C7.36173 29.3403 7.43785 29.3934 7.49815 29.4622C7.55845 29.531 7.60113 29.6134 7.62253 29.7023C7.75445 30.2503 7.97074 30.7747 8.26671 31.2534C8.31509 31.3316 8.34363 31.4204 8.34985 31.5121C8.35608 31.6039 8.3398 31.6957 8.30243 31.7797L7.96417 32.5405L8.72956 33.3059L9.49064 32.9688C9.57423 32.9318 9.66556 32.9156 9.75678 32.9216C9.848 32.9277 9.93639 32.9558 10.0143 33.0036C10.4948 33.2979 11.0174 33.5163 11.5672 33.6467C11.6566 33.6678 11.7394 33.7105 11.8085 33.7709C11.8777 33.8313 11.9311 33.9076 11.9641 33.9933L12.2626 34.7691H13.3452L13.6438 33.9933C13.6767 33.9077 13.73 33.8314 13.7991 33.771C13.8682 33.7106 13.9509 33.6679 14.0402 33.6467C14.5877 33.517 15.1108 33.3003 15.5896 33.0048C15.6677 32.9565 15.7564 32.928 15.848 32.9217C15.9396 32.9154 16.0314 32.9316 16.1154 32.9688L16.8764 33.3059L17.6422 32.5401L17.305 31.779C17.268 31.6954 17.2518 31.6041 17.2579 31.5129C17.264 31.4217 17.2921 31.3333 17.3398 31.2553C17.6343 30.7748 17.8527 30.2521 17.983 29.7039C18.0042 29.6147 18.0468 29.5319 18.1072 29.4628C18.1676 29.3938 18.2439 29.3404 18.3296 29.3075L19.1053 29.0089V27.9263L18.3296 27.6278C18.2439 27.5948 18.1675 27.5414 18.1071 27.4723C18.0467 27.4031 18.0041 27.3203 17.9829 27.231C17.8531 26.6827 17.6363 26.1589 17.3406 25.6793C17.2925 25.6012 17.2642 25.5127 17.258 25.4212C17.2518 25.3297 17.2679 25.2381 17.305 25.1543L17.6422 24.3932L16.8768 23.6279L16.1161 23.9662C16.0322 24.0035 15.9405 24.0197 15.8489 24.0136C15.7573 24.0074 15.6685 23.9791 15.5904 23.9309C15.1112 23.6355 14.5879 23.4186 14.0402 23.2885C13.9509 23.2673 13.8681 23.2246 13.799 23.1642C13.7299 23.1037 13.6766 23.0274 13.6436 22.9417ZM12.803 24.6612C14.9056 24.6612 16.6104 26.3641 16.6104 28.4667C16.6104 30.5692 14.9055 32.2741 12.803 32.2741C10.7004 32.2741 8.99744 30.5693 8.99744 28.4667C8.99744 26.364 10.7002 24.6612 12.803 24.6612ZM12.803 25.7906C11.3243 25.7906 10.1269 26.988 10.1269 28.4667C10.1269 29.9454 11.3242 31.1447 12.803 31.1447C14.2818 31.1447 15.481 29.9455 15.481 28.4667C15.481 26.9879 14.2818 25.7906 12.803 25.7906ZM34.1215 5.90378L30.9553 2.17382L27.7892 5.90378H28.928C29.0778 5.90378 29.2214 5.96327 29.3273 6.06918C29.4332 6.17508 29.4927 6.31871 29.4927 6.46848V16.4317C29.4927 16.7434 29.2398 16.9964 28.928 16.9964C28.6164 16.9964 28.3633 16.7434 28.3633 16.4317V7.03319H27.1635C26.8249 7.03319 26.5404 6.85001 26.4001 6.54416C26.2605 6.24161 26.3054 5.90215 26.5249 5.6479L30.3142 1.18382C30.4765 0.990766 30.6967 0.886719 30.9553 0.886719C31.207 0.886719 31.4271 0.987166 31.593 1.17987L31.5956 1.18291L35.3871 5.64945C35.6027 5.90286 35.6482 6.24204 35.5088 6.54416C35.368 6.85107 35.0816 7.03319 34.7472 7.03319H33.5456V13.304C33.5456 13.6157 33.2925 13.8687 32.9809 13.8687C32.6691 13.8687 32.4162 13.6157 32.4162 13.304V6.46848C32.4162 6.31871 32.4756 6.17508 32.5816 6.06918C32.6875 5.96327 32.8311 5.90378 32.9809 5.90378H34.1215ZM32.4162 14.8678C32.4162 14.5562 32.6691 14.3031 32.9809 14.3031C33.2925 14.3031 33.5456 14.5562 33.5456 14.8678V16.4317C33.5456 16.7434 33.2925 16.9964 32.9809 16.9964C32.6691 16.9964 32.4162 16.7434 32.4162 16.4317V14.8678ZM32.4162 17.9955C32.4162 17.6839 32.6691 17.4308 32.9809 17.4308C33.2925 17.4308 33.5456 17.6839 33.5456 17.9955V19.5209C33.5456 19.8325 33.2925 20.0856 32.9809 20.0856C32.6691 20.0856 32.4162 19.8325 32.4162 19.5209V17.9955ZM29.4927 19.5209C29.4927 19.8325 29.2398 20.0856 28.928 20.0856C28.6164 20.0856 28.3633 19.8325 28.3633 19.5209V17.9955C28.3633 17.6839 28.6164 17.4308 28.928 17.4308C29.2398 17.4308 29.4927 17.6839 29.4927 17.9955V19.5209ZM25.9409 12.0231L23.3942 9.023L20.8474 12.0231H21.6532C21.803 12.0231 21.9466 12.0826 22.0525 12.1885C22.1584 12.2944 22.2179 12.4381 22.2179 12.5879V17.7C22.2179 18.0116 21.9649 18.2647 21.6532 18.2647C21.3416 18.2647 21.0885 18.0116 21.0885 17.7V13.1526H20.1378C19.8149 13.1526 19.5436 12.9778 19.4098 12.6862C19.2766 12.3976 19.3196 12.0738 19.5288 11.8314L22.7827 7.99806C22.9376 7.81397 23.1474 7.71465 23.3942 7.71465C23.6341 7.71465 23.844 7.81037 24.0022 7.99411L24.0049 7.99714L27.2607 11.8328C27.4664 12.0745 27.51 12.398 27.377 12.6862C27.2427 12.9789 26.9694 13.1526 26.6506 13.1526H25.6983V21.0563C25.6983 21.3679 25.4453 21.621 25.1336 21.621C24.822 21.621 24.5689 21.3679 24.5689 21.0563V12.5879C24.5689 12.4381 24.6284 12.2944 24.7343 12.1885C24.8402 12.0826 24.9839 12.0231 25.1336 12.0231H25.9409Z" fill="#8CC63F"/>
</g>
<defs>
<clipPath id="clip0_18080_1724">
<rect width="36" height="36" fill="white" transform="translate(0.394531 0.392578)"/>
</clipPath>
</defs>
</svg>
