<svg width="20" height="20" viewBox="0 0 20 20" fill="none" xmlns="http://www.w3.org/2000/svg">
<path d="M2.27987 18.66H2.23987C1.97987 18.64 1.79987 18.42 1.81987 18.18C2.07987 14.36 5.67987 11.38 9.99987 11.38C14.3199 11.38 17.9199 14.36 18.1799 18.16C18.1999 18.42 17.9999 18.62 17.7599 18.64C17.4999 18.66 17.2999 18.46 17.2799 18.22C17.0399 14.88 13.8399 12.28 9.99987 12.28C6.13987 12.28 2.93987 14.9 2.71987 18.24C2.69987 18.48 2.49987 18.66 2.27987 18.66ZM9.99987 10.46C7.47987 10.46 5.43987 8.42003 5.43987 5.90003C5.43987 3.38003 7.47987 1.34003 9.99987 1.34003C12.5199 1.34003 14.5599 3.38003 14.5599 5.90003C14.5599 8.42003 12.5199 10.46 9.99987 10.46ZM9.99987 2.26003C7.99987 2.26003 6.35987 3.90003 6.35987 5.90003C6.35987 7.90003 7.99987 9.54003 9.99987 9.54003C11.9999 9.54003 13.6399 7.90003 13.6399 5.90003C13.6399 3.90003 11.9999 2.26003 9.99987 2.26003Z" fill="black"/>
</svg>
