<svg width="20" height="20" viewBox="0 0 20 20" fill="none" xmlns="http://www.w3.org/2000/svg">
<path d="M16.3346 5.64597C16.3208 5.54129 16.2693 5.44524 16.1896 5.37594C16.11 5.30665 16.0077 5.26888 15.9022 5.26978H13.5196V4.40497C13.5196 3.45771 13.1433 2.54924 12.4735 1.87943C11.8037 1.20961 10.8952 0.833313 9.94795 0.833313C9.00069 0.833313 8.09222 1.20961 7.42241 1.87943C6.75259 2.54924 6.37629 3.45771 6.37629 4.40497V5.26978H3.98942C3.88385 5.26888 3.78159 5.30665 3.70194 5.37594C3.62229 5.44524 3.57074 5.54129 3.55702 5.64597L1.9528 17.8138C1.94463 17.8769 1.95048 17.941 1.96991 18.0015C1.98934 18.062 2.02189 18.1175 2.06522 18.1641C2.24683 18.3587 2.44574 18.5576 2.66194 18.7521C2.74124 18.8242 2.84449 18.8643 2.95165 18.8646H16.9442C17.0514 18.8643 17.1547 18.8242 17.234 18.7521C17.4458 18.5576 17.6664 18.3587 17.8307 18.1641C17.874 18.1175 17.9066 18.062 17.926 18.0015C17.9454 17.941 17.9513 17.8769 17.9431 17.8138L16.3346 5.64597ZM7.25407 4.39632C7.25407 3.67842 7.53926 2.98992 8.04689 2.48229C8.55452 1.97466 9.24302 1.68947 9.96092 1.68947C10.6788 1.68947 11.3673 1.97466 11.875 2.48229C12.3826 2.98992 12.6678 3.67842 12.6678 4.39632V5.26113H7.2411L7.25407 4.39632ZM16.767 17.9998H3.12029L2.8349 17.723L4.36561 6.13459H15.526L17.0567 17.723L16.767 17.9998Z" fill="black"/>
</svg>
