<svg width="20" height="20" viewBox="0 0 20 20" fill="none" xmlns="http://www.w3.org/2000/svg">
<path d="M14.1669 13.5767L17.3786 16.7883C17.4568 16.8666 17.5008 16.9727 17.5008 17.0833C17.5008 17.194 17.4568 17.3001 17.3786 17.3783C17.3003 17.4566 17.1942 17.5005 17.0836 17.5005C16.9729 17.5005 16.8668 17.4566 16.7886 17.3783L13.5769 14.1658C12.2781 15.3116 10.5842 15.907 8.85413 15.8258C7.12401 15.7446 5.4934 14.9932 4.30756 13.7308C3.12172 12.4684 2.47374 10.794 2.50082 9.06221C2.52789 7.3304 3.2279 5.6771 4.45262 4.45238C5.67735 3.22765 7.33064 2.52765 9.06245 2.50057C10.7943 2.4735 12.4686 3.12148 13.731 4.30732C14.9935 5.49316 15.7448 7.12376 15.826 8.85388C15.9072 10.584 15.3127 12.2778 14.1669 13.5767ZM9.16692 15C9.93296 15 10.6915 14.8491 11.3992 14.556C12.107 14.2628 12.75 13.8331 13.2917 13.2915C13.8334 12.7498 14.2631 12.1067 14.5562 11.399C14.8494 10.6913 15.0002 9.93272 15.0002 9.16667C15.0002 8.40063 14.8494 7.64208 14.5562 6.93435C14.2631 6.22662 13.8334 5.58356 13.2917 5.04188C12.75 4.50021 12.107 4.07053 11.3992 3.77737C10.6915 3.48422 9.93296 3.33334 9.16692 3.33334C7.61982 3.33334 6.13609 3.94792 5.04213 5.04188C3.94816 6.13584 3.33358 7.61958 3.33358 9.16667C3.33358 10.7138 3.94816 12.1975 5.04213 13.2915C6.13609 14.3854 7.61982 15 9.16692 15Z" fill="black"/>
</svg>
