<svg width="1920" height="216" viewBox="0 0 1920 216" fill="none" xmlns="http://www.w3.org/2000/svg">
<path d="M111.764 0.595323C104.621 -1.49198 94.9228 2.07254 91.3824 8.73664C87.5 16.0445 92.6036 24.1014 102.931 45.3735C123.321 87.37 122.975 96.2302 121.954 101.685C119.848 112.943 112.28 123.549 102.252 128.824C78.6763 141.224 42.5063 123.634 36.3528 99.6501C36.0246 98.3706 32.453 83.589 40.4291 72.5118C47.0453 63.3234 55.3799 65.331 62.1685 55.5501C67.292 48.1681 70.1668 36.0425 64.886 29.0908C58.3781 20.5236 40.9893 21.7964 30.238 28.4118C10.8932 40.3153 10.602 71.0133 10.5363 77.9396C10.2709 105.94 23.3028 116.876 15.2924 131.537C10.5132 140.284 -0.143135 147.636 -9.84431 145.785C-21.3248 143.595 -28.8351 129.015 -27.9678 117.619C-27.0608 105.707 -17.2976 101.179 -19.1861 95.2399C-20.6158 90.7444 -28.4689 86.2343 -58 87.0986V244H843.442H1922V138.813C1899.34 138.15 1893.31 141.612 1892.21 145.063C1890.76 149.623 1898.26 153.098 1898.95 162.243C1899.62 170.991 1893.85 182.183 1885.04 183.864C1877.6 185.284 1869.42 179.641 1865.75 172.926C1859.61 161.672 1869.61 153.277 1869.4 131.783C1869.35 126.466 1869.13 102.902 1854.28 93.7638C1846.03 88.6856 1832.69 87.708 1827.69 94.2843C1823.64 99.6207 1825.85 108.93 1829.78 114.596C1834.99 122.104 1841.39 120.563 1846.46 127.616C1852.58 136.12 1849.84 147.467 1849.59 148.449C1844.87 166.86 1817.11 180.362 1799.02 170.844C1791.32 166.794 1785.52 158.653 1783.9 150.011C1783.12 145.824 1782.85 139.022 1798.5 106.784C1806.42 90.4548 1810.34 84.2698 1807.36 78.66C1804.64 73.5445 1797.2 70.808 1791.72 72.4101C1781.52 75.3926 1779.91 92.8803 1779.73 94.8048C1778.37 109.593 1786.13 117.115 1781.81 121.888C1778.09 126.002 1768.77 124.341 1763.05 121.367C1757.4 118.434 1755.45 114.331 1752.62 110.95C1741.68 97.895 1717.67 95.8592 1701 101.576C1690.07 105.327 1675.52 115.099 1677.02 123.45C1678.25 130.293 1690.02 134.906 1699.44 134.907C1709.46 134.908 1712.49 129.69 1721.34 127.616C1737.28 123.882 1760.21 133.146 1765.13 148.449C1770.83 166.182 1750.93 187.605 1732.29 194.801C1716.6 200.854 1701.14 197.092 1687.45 193.76C1655.59 186.007 1654.3 176.938 1638.96 178.656C1614.09 181.441 1612.28 208.532 1582.13 214.071C1569.98 216.302 1551.85 215.382 1544.59 204.696C1539.42 197.077 1540.86 187.728 1542.51 177.093C1545.68 156.579 1554.36 151.062 1550.85 140.637C1548.22 132.834 1539.94 125.758 1533.12 127.095C1526.27 128.44 1522.65 138.015 1521.65 144.803C1519.74 157.855 1531.32 164.835 1530 174.489C1528.09 188.362 1501.1 196.498 1486.72 198.968C1438.16 207.308 1425.67 194.072 1428.79 174.489C1431.9 154.907 1368.01 175.985 1352.24 189.194C1336.48 202.404 1320.49 207.751 1272.61 199.512C1258.43 197.072 1231.82 189.035 1229.95 175.33C1228.64 165.793 1240.06 158.898 1238.17 146.003C1237.19 139.297 1233.62 129.839 1226.86 128.51C1220.14 127.189 1211.97 134.179 1209.39 141.887C1205.93 152.186 1214.48 157.637 1217.61 177.903C1219.23 188.409 1220.66 197.645 1215.55 205.172C1208.4 215.728 1190.52 216.637 1178.54 214.433C1148.81 208.961 1147.03 182.198 1122.51 179.447C1107.39 177.75 1106.11 186.708 1074.7 194.367C1061.2 197.66 1045.96 201.376 1030.5 195.396C1012.11 188.288 992.489 167.123 998.11 149.604C1002.96 134.486 1025.57 125.335 1041.29 129.025C1050.02 131.072 1053 136.229 1062.88 136.227C1072.16 136.226 1083.77 131.668 1084.99 124.908C1086.46 116.658 1072.12 107.004 1061.34 103.299C1044.91 97.6508 1021.23 99.6624 1010.45 112.56C1007.65 115.899 1005.73 119.953 1000.17 122.85C994.521 125.789 985.329 127.429 981.661 123.365C977.406 118.65 985.059 111.219 983.717 96.61C983.542 94.7097 981.955 77.4325 971.894 74.4859C966.489 72.9031 959.151 75.6063 956.472 80.66C953.535 86.202 957.396 92.3119 965.211 108.444C980.639 140.293 980.377 147.012 979.604 151.149C978.01 159.685 972.285 167.728 964.697 171.729C946.859 181.132 919.49 167.793 914.834 149.604C914.586 148.633 911.884 137.425 917.918 129.025C922.925 122.056 929.232 123.579 934.368 116.162C938.245 110.564 940.42 101.367 936.424 96.0956C931.5 89.5989 918.343 90.5645 910.208 95.5812C895.571 104.608 895.35 127.888 895.3 133.141C895.1 154.375 904.96 162.668 898.898 173.786C895.282 180.419 887.219 185.995 879.878 184.591C871.192 182.93 865.51 171.874 866.166 163.232C866.852 154.198 874.24 150.764 872.811 146.26C872.055 143.878 866.438 156.999 857 156C857.124 155.182 859.739 138.852 859.867 138.021L859.868 138.02C863.941 111.619 875.093 104.519 870.585 91.102C867.21 81.0608 856.567 71.9545 847.81 73.6759C839.005 75.4069 834.35 87.7286 833.073 96.4644C830.619 113.262 845.49 122.245 843.791 134.669C841.35 152.522 806.672 162.991 788.195 166.17C725.806 176.903 704.977 169.937 684.433 152.729C663.888 135.521 580.628 108.064 584.69 133.573C588.752 159.083 572.473 176.325 509.197 165.461C490.457 162.243 455.285 151.645 452.809 133.573C451.086 120.997 466.168 111.905 463.679 94.9013C462.384 86.0586 457.663 73.5852 448.733 71.8328C439.852 70.0902 429.057 79.3091 425.634 89.4734C421.061 103.055 432.372 110.242 436.503 136.965C438.645 150.819 440.528 162.997 433.786 172.923C424.33 186.843 400.704 188.043 384.872 185.136C345.581 177.921 343.226 142.629 310.82 139.001C290.831 136.764 289.146 148.577 247.639 158.676C229.794 163.018 209.651 167.918 189.212 160.033C164.917 150.66 138.983 122.751 146.412 99.6501C152.823 79.7146 182.704 67.6473 203.479 72.5118C215.012 75.2123 218.96 82.011 232.012 82.0094C244.282 82.0078 259.626 75.9978 261.226 67.0839C263.179 56.205 244.219 43.4741 229.974 38.5884C208.259 31.1414 176.975 33.7942 162.717 50.8013C159.026 55.2047 156.487 60.55 149.129 64.3705C141.667 68.2451 129.519 70.4084 124.671 65.0486C119.048 58.8314 129.163 49.0326 127.389 29.7681C127.158 27.2607 125.059 4.48091 111.764 0.595323Z" fill="white"/>
<path d="M1193.63 99.2149C1189.13 96.8955 1181.62 98.5165 1178.54 103.299C1175.45 108.115 1178.08 114.225 1179.36 117.181C1182.55 124.57 1190.36 132.373 1194.85 130.655C1201.46 128.129 1203.2 104.151 1193.63 99.2149Z" fill="white"/>
<path d="M1869.4 10.1602C1863.65 7.19373 1854.04 9.26598 1850.11 15.3812C1846.15 21.5403 1849.52 29.3532 1851.16 33.1339C1855.23 42.583 1865.22 52.5613 1870.97 50.3644C1879.41 47.1349 1881.64 16.4718 1869.4 10.1602Z" fill="white"/>
<path d="M336.692 116.83C341.185 118.548 348.996 110.745 352.185 103.356C353.46 100.399 356.096 94.2899 353 89.4734C349.926 84.6912 342.413 83.0705 337.915 85.3903C328.345 90.3261 330.086 114.305 336.692 116.83Z" fill="white"/>
</svg>
